<svg width="101" height="36" viewBox="0 0 101 36" fill="none" xmlns="http://www.w3.org/2000/svg">
<path d="M98.6638 0.424462L97.8857 0.164062M98.6638 0.424462H96.3581M98.6638 0.424462L99.4677 0.693461M98.6638 0.424462H100.297M97.8857 0.164062L98.1689 0.164164L98.449 0.164728L98.7234 0.166313L98.9891 0.169435L99.2434 0.174502L99.4833 0.182129L99.7062 0.192723L99.9131 0.206233L100.091 0.224914L100.252 0.246563L100.297 0.254146V0.424462M97.8857 0.164062H95.6171M95.6171 0.164062H93.3485M95.6171 0.164062L96.3581 0.424462M93.3485 0.164062H91.0799M93.3485 0.164062L94.0524 0.424462M91.0799 0.164062H88.8113M91.0799 0.164062L91.7468 0.424462M88.8113 0.164062H86.5427M88.8113 0.164062L89.4412 0.424462M86.5427 0.164062H84.274M86.5427 0.164062L87.1355 0.424462M84.274 0.164062H82.0054M84.274 0.164062L84.8298 0.424462M82.0054 0.164062H79.7368M82.0054 0.164062L82.5241 0.424462M79.7368 0.164062H77.4682M79.7368 0.164062L80.2185 0.424462M77.4682 0.164062H75.1996M77.4682 0.164062L77.9128 0.424462M75.1996 0.164062H72.931M75.1996 0.164062L75.6071 0.424462M72.931 0.164062H70.6624M72.931 0.164062L73.3015 0.424462M70.6624 0.164062H68.3937M70.6624 0.164062L70.7447 0.228394L70.8695 0.325789L70.9958 0.424462M68.3937 0.164062H66.1251M68.3937 0.164062L68.4669 0.228394L68.6901 0.424462M66.1251 0.164062H63.8565M66.1251 0.164062L66.3845 0.424462M63.8565 0.164062H61.5879M63.8565 0.164062L63.939 0.260739L64.0226 0.358543L64.0506 0.391452L64.0788 0.424462M61.5879 0.164062H59.3193M61.5879 0.164062L61.6566 0.260739L61.6798 0.293187L61.703 0.325789L61.7732 0.424462M59.3193 0.164062H57.0507M59.3193 0.164062L59.4675 0.424462M57.0507 0.164062L57.0644 0.196151L57.0781 0.228394L57.1477 0.391452L57.1618 0.424462M57.0507 0.164062H54.7821M54.7821 0.164062H52.5134M54.7821 0.164062L54.8562 0.424462M52.5134 0.164062H50.2448M52.5134 0.164062L52.5272 0.260739L52.5505 0.424462M50.2448 0.164062H47.9762M50.2448 0.164062V0.424462M47.9762 0.164062H45.7076M47.9762 0.164062L47.9625 0.260739L47.9392 0.424462M45.7076 0.164062H43.439M45.7076 0.164062L45.6335 0.424462M43.439 0.164062L43.4253 0.196151L43.4116 0.228394L43.3419 0.391452L43.3278 0.424462M43.439 0.164062H41.1704M41.1704 0.164062H38.9017M41.1704 0.164062L41.041 0.391452L41.0221 0.424462M38.9017 0.164062H36.6331M38.9017 0.164062L38.833 0.260739L38.8099 0.293187L38.7633 0.358543L38.74 0.391452L38.7165 0.424462M36.6331 0.164062H34.3645M36.6331 0.164062L36.5506 0.260739L36.4671 0.358543L36.439 0.391452L36.4108 0.424462M34.3645 0.164062H32.0959M34.3645 0.164062L34.1052 0.424462M32.0959 0.164062H29.8273M32.0959 0.164062L32.0227 0.228394L31.7995 0.424462M29.8273 0.164062H27.5587M29.8273 0.164062L29.4938 0.424462M27.5587 0.164062H25.2901M27.5587 0.164062L27.1882 0.424462M25.2901 0.164062H23.0214M25.2901 0.164062L24.8825 0.424462M23.0214 0.164062H20.7528M23.0214 0.164062L22.5768 0.424462M20.7528 0.164062H18.4842M20.7528 0.164062L20.2712 0.424462M18.4842 0.164062H16.2156M18.4842 0.164062L17.9655 0.424462M16.2156 0.164062H13.947M16.2156 0.164062L15.6598 0.424462M13.947 0.164062H11.6784M13.947 0.164062L13.3542 0.424462M11.6784 0.164062H9.40976M11.6784 0.164062L11.0485 0.424462M9.40976 0.164062H7.14111M9.40976 0.164062L8.74282 0.424462M7.14111 0.164062H4.87251M7.14111 0.164062L6.4372 0.424462M4.87251 0.164062H2.60391M4.87251 0.164062L4.13153 0.424462M2.60391 0.164062L2.3208 0.164164L2.04061 0.164728L1.76627 0.166313L1.50052 0.169435L1.2463 0.174502L1.00631 0.182129L0.783426 0.192723L0.576545 0.206233L0.399018 0.224914L0.237392 0.246563L0.192971 0.254148V0.424462M2.60391 0.164062L1.82586 0.424462M6.4372 0.424462H8.74282M6.4372 0.424462H4.13153M6.4372 0.424462L5.70983 0.693461M8.74282 0.424462L8.05377 0.693461M8.74282 0.424462H11.0485M15.6598 0.424462H17.9655M15.6598 0.424462H13.3542M15.6598 0.424462L15.5181 0.490893L15.0856 0.693461M17.9655 0.424462L17.4296 0.693461M17.9655 0.424462H20.2712M24.8825 0.424462H27.1882M24.8825 0.424462H22.5768M24.8825 0.424462L24.7785 0.490893L24.7262 0.524262L24.4614 0.693461M27.1882 0.424462L27.141 0.457575L27.0937 0.490893L26.8054 0.693461M27.1882 0.424462H29.4938M34.1052 0.424462L34.0721 0.457575L33.8372 0.693461M34.1052 0.424462H36.4108M34.1052 0.424462H31.7995M36.4108 0.424462L36.3541 0.490893L36.3256 0.524262L36.2969 0.557836L36.1811 0.693461M36.4108 0.424462H38.7165M43.3278 0.424462H45.6335M43.3278 0.424462H41.0221M43.3278 0.424462L43.213 0.693461M45.6335 0.424462L45.624 0.457575L45.6146 0.490893L45.6051 0.524262L45.5763 0.625341L45.5569 0.693461M45.6335 0.424462H47.9392M52.5505 0.424462H54.8562M52.5505 0.424462H50.2448M52.5505 0.424462L52.5888 0.693461M54.8562 0.424462L54.8656 0.457575L54.875 0.490893L54.8846 0.524262L54.9327 0.693461M54.8562 0.424462H57.1618M61.7732 0.424462H64.0788M61.7732 0.424462H59.4675M61.7732 0.424462L61.8204 0.490893L61.9161 0.625341L61.9403 0.659324L61.9646 0.693461M64.0788 0.424462L64.1355 0.490893L64.1641 0.524262L64.1927 0.557836L64.3085 0.693461M64.0788 0.424462H66.3845M70.9958 0.424462H73.3015M70.9958 0.424462H68.6901M70.9958 0.424462L71.0809 0.490893L71.1237 0.524262L71.3403 0.693461M73.3015 0.424462L73.3487 0.457575L73.396 0.490893L73.6843 0.693461M73.3015 0.424462H75.6071M80.2185 0.424462H82.5241M80.2185 0.424462H77.9128M80.2185 0.424462L80.3414 0.490893L80.4032 0.524262L80.7161 0.693461M82.5241 0.424462L83.0601 0.693461M82.5241 0.424462H84.8298M89.4412 0.424462H91.7468M89.4412 0.424462H87.1355M89.4412 0.424462L90.0919 0.693461M91.7468 0.424462L92.4359 0.693461M91.7468 0.424462H94.0524M0.18489 2.85957H0.192971M2.50557 2.85957L3.38586 2.5159M2.50557 2.85957L1.59156 3.21639M2.50557 2.85957H5.15775M2.50557 2.85957H0.192971M3.38586 2.5159H0.782592M3.38586 2.5159L4.23429 2.18467M3.38586 2.5159H5.98913M0.782592 2.5159L1.67816 2.18467M0.782592 2.5159H0.192971M0.782592 2.5159L0.192971 2.73393M3.37533 1.55691H5.84216M3.37533 1.55691L4.18023 1.2592M3.37533 1.55691H0.908556M3.37533 1.55691L2.54181 1.86521M5.84216 1.55691L6.60472 1.2592M5.84216 1.55691L5.05254 1.86521M5.84216 1.55691H8.30898M4.18023 1.2592H6.60472M4.18023 1.2592L4.95796 0.971568M4.18023 1.2592H1.75579M6.60472 1.2592H9.02916M6.60472 1.2592L7.34147 0.971568M0.16758 8.28406H0.192971M2.30761 8.28406L3.44274 7.71428M2.30761 8.28406L1.11606 8.88219M2.30761 8.28406H5.73173M2.30761 8.28406H0.192971M3.44274 7.71428L4.52538 7.17086M3.44274 7.71428H6.78574M3.44274 7.71428H0.192971M1.2597 7.17086H4.52538M1.2597 7.17086L2.3672 6.65201M1.2597 7.17086H0.192971M1.2597 7.17086L0.192971 7.67061M3.4257 6.15608H6.54695M3.4257 6.15608L4.43841 5.68165M3.4257 6.15608H0.304441M3.4257 6.15608L2.3672 6.65201M6.54695 6.15608L7.4922 5.68165M6.54695 6.15608L5.559 6.65201M6.54695 6.15608H9.66826M4.43841 5.68165H7.4922M4.43841 5.68165H1.38467M4.43841 5.68165L5.40827 5.22728M7.4922 5.68165L8.39736 5.22728M7.4922 5.68165H10.5459M7.22974 4.37391H10.0974M7.22974 4.37391L8.0861 3.97272M7.22974 4.37391H4.36208M7.22974 4.37391L6.33788 4.79174M10.0974 4.37391L10.8967 3.97272M10.0974 4.37391L9.26503 4.79174M10.0974 4.37391H12.9651M8.0861 3.97272H10.8967M8.0861 3.97272H5.27553M8.0861 3.97272L8.90903 3.58719M10.8967 3.97272L11.6648 3.58719M10.8967 3.97272H13.7073M10.4621 2.85957H13.1143M10.4621 2.85957L11.1957 2.5159M10.4621 2.85957H7.80993M10.4621 2.85957L9.70043 3.21639M13.1143 2.85957L13.7989 2.5159M13.1143 2.85957L12.4034 3.21639M13.1143 2.85957H15.7664M11.1957 2.5159H13.7989M11.1957 2.5159H8.5924M11.1957 2.5159L11.9027 2.18467M13.7989 2.5159L14.4588 2.18467M13.7989 2.5159H16.4022M13.2426 1.55691H15.7094M13.2426 1.55691L13.878 1.2592M13.2426 1.55691H10.7758M13.2426 1.55691L12.5846 1.86521M15.7094 1.55691L16.3025 1.2592M15.7094 1.55691L15.0952 1.86521M15.7094 1.55691H18.1762M13.878 1.2592H16.3025M13.878 1.2592L14.4921 0.971568M13.878 1.2592H11.4536M16.3025 1.2592H18.727M16.3025 1.2592L16.8756 0.971568M1.94724 18.1624L3.54483 17.0397M1.94724 18.1624L0.236401 19.3646M1.94724 18.1624H6.77698M1.94724 18.1624H0.192971M3.54483 17.0397L5.04018 15.9888M3.54483 17.0397H8.21482M3.54483 17.0397H0.192971M3.5124 14.0769H7.76081M3.5124 14.0769L4.87762 13.2047M3.5124 14.0769L2.06246 15.0032M3.5124 14.0769H0.192971M7.76081 14.0769L9.00189 13.2047M7.76081 14.0769L6.44268 15.0032M7.76081 14.0769H12.0092M4.87762 13.2047H9.00189M4.87762 13.2047H0.753343M4.87762 13.2047L6.16536 12.382M9.00189 13.2047L10.1726 12.382M9.00189 13.2047H13.1262M8.53323 10.8693H12.3252M8.53323 10.8693L9.6243 10.1723M8.53323 10.8693H4.74128M8.53323 10.8693L7.38198 11.6048M12.3252 10.8693L13.3171 10.1723M12.3252 10.8693L11.2786 11.6048M12.3252 10.8693H16.1172M9.6243 10.1723H13.3171M9.6243 10.1723H5.93152M9.6243 10.1723L10.6597 9.51078M13.3171 10.1723L14.2584 9.51078M13.3171 10.1723H17.0098M12.5799 8.28406H16.004M12.5799 8.28406L13.4718 7.71428M12.5799 8.28406H9.1558M12.5799 8.28406L11.6437 8.88219M16.004 8.28406L16.8148 7.71428M16.004 8.28406L15.1528 8.88219M16.004 8.28406H19.4281M13.4718 7.71428H16.8148M13.4718 7.71428H10.1288M13.4718 7.71428L14.3224 7.17086M16.8148 7.71428L17.5881 7.17086M16.8148 7.71428H20.1578M15.9108 6.15608H19.0321M15.9108 6.15608L16.6535 5.68165M15.9108 6.15608H12.7895M15.9108 6.15608L15.1345 6.65201M19.0321 6.15608L19.7073 5.68165M19.0321 6.15608L18.3264 6.65201M19.0321 6.15608H22.1533M16.6535 5.68165H19.7073M16.6535 5.68165H13.5997M16.6535 5.68165L17.3647 5.22728M19.7073 5.68165L20.3538 5.22728M19.7073 5.68165H22.761M18.7004 4.37391H21.5681M18.7004 4.37391L19.3284 3.97272M18.7004 4.37391H15.8328M18.7004 4.37391L18.0464 4.79174M21.5681 4.37391L21.6408 4.32289L22.139 3.97272M21.5681 4.37391L20.9736 4.79174M21.5681 4.37391H24.4358M19.3284 3.97272H22.139M19.3284 3.97272H16.5179M19.3284 3.97272L19.9319 3.58719M22.139 3.97272L22.6876 3.58719M22.139 3.97272H24.9496M21.0708 2.85957H23.723M21.0708 2.85957L21.6088 2.5159M21.0708 2.85957H18.4186M21.0708 2.85957L20.5123 3.21639M23.723 2.85957L24.2121 2.5159M23.723 2.85957L23.5349 2.99182L23.2152 3.21639M23.723 2.85957H26.3752M21.6088 2.5159H24.2121M21.6088 2.5159H19.0055M21.6088 2.5159L22.1273 2.18467M24.2121 2.5159L24.6834 2.18467M24.2121 2.5159H26.8153M23.1098 1.55691H25.5767M23.1098 1.55691L23.5758 1.2592M23.1098 1.55691H20.6431M23.1098 1.55691L22.6273 1.86521M25.5767 1.55691L25.8958 1.33269L25.9481 1.29584L26.0003 1.2592M25.5767 1.55691L25.138 1.86521M25.5767 1.55691H28.0435M23.5758 1.2592H26.0003M23.5758 1.2592L24.0261 0.971568M23.5758 1.2592H21.1514M26.0003 1.2592H28.4248M26.0003 1.2592L26.4096 0.971568M3.69712 30.9517H10.3468M3.69712 30.9517L5.79096 28.8496M3.69712 30.9517L1.3963 33.2615M3.69712 30.9517L0.192971 30.9517M10.3468 30.9517L12.1415 28.8496M10.3468 30.9517L8.37468 33.2615M10.3468 30.9517H16.9965M5.79096 28.8496H12.1415M5.79096 28.8496L7.70456 26.9286M5.79096 28.8496H0.192971M12.1415 28.8496L13.7817 26.9286M12.1415 28.8496H18.4921M11.0766 23.5433H16.6721M11.0766 23.5433L12.5699 22.0442M11.0766 23.5433H5.48121M11.0766 23.5433L9.46018 25.1661M16.6721 23.5433L17.952 22.0442M16.6721 23.5433L15.2866 25.1661M16.6721 23.5433H22.2676M12.5699 22.0442H17.952M12.5699 22.0442H7.18772M12.5699 22.0442L13.9534 20.6552M17.952 22.0442L19.1379 20.6552M17.952 22.0442H23.3341M16.4365 18.1624H21.2663M16.4365 18.1624L17.5549 17.0397M16.4365 18.1624H11.6067M16.4365 18.1624L15.2389 19.3646M21.2663 18.1624L22.2249 17.0397M21.2663 18.1624L20.2398 19.3646M21.2663 18.1624H26.096M17.5549 17.0397H22.2249M17.5549 17.0397H12.8848M17.5549 17.0397L18.6016 15.9888M22.2249 17.0397L23.122 15.9888M22.2249 17.0397H26.8949M20.506 14.0769H24.7544M20.506 14.0769L21.3748 13.2047M20.506 14.0769H16.2576M20.506 14.0769L19.5833 15.0032M24.7544 14.0769L25.4991 13.2047M24.7544 14.0769L23.9635 15.0032M24.7544 14.0769H29.0028M21.3748 13.2047H25.4991M21.3748 13.2047H17.2505M21.3748 13.2047L22.1943 12.382M25.4991 13.2047L26.2015 12.382M25.4991 13.2047H29.6234M23.7011 10.8693H27.4931M23.7011 10.8693L24.3954 10.1723M23.7011 10.8693H19.9091M23.7011 10.8693L22.9684 11.6048M27.4931 10.8693L28.0882 10.1723M27.4931 10.8693L26.8651 11.6048M27.4931 10.8693H31.285M24.3954 10.1723H28.0882M24.3954 10.1723H20.7026M24.3954 10.1723L25.0543 9.51078M28.0882 10.1723L28.6529 9.51078M28.0882 10.1723H31.781M26.2762 8.28406H29.7003M26.2762 8.28406L26.8438 7.71428M26.2762 8.28406H22.8521M26.2762 8.28406L25.6805 8.88219M29.7003 8.28406L30.1868 7.71428M29.7003 8.28406L29.1896 8.88219M29.7003 8.28406H33.1244M26.8438 7.71428H30.1868M26.8438 7.71428H23.5008M26.8438 7.71428L27.3851 7.17086M30.1868 7.71428L30.6508 7.17086M30.1868 7.71428H33.5298M28.3959 6.15608H31.5172M28.3959 6.15608L28.8685 5.68165M28.3959 6.15608H25.2746M28.3959 6.15608L27.9019 6.65201M31.5172 6.15608L31.9222 5.68165M31.5172 6.15608L31.0938 6.65201M31.5172 6.15608H34.6385M28.8685 5.68165H31.9222M28.8685 5.68165H25.8147M28.8685 5.68165L29.3211 5.22728M31.9222 5.68165L32.3102 5.22728M31.9222 5.68165H34.976M30.1711 4.37391H33.0388M30.1711 4.37391L30.5707 3.97272M30.1711 4.37391H27.3035M30.1711 4.37391L29.7549 4.79174M33.0388 4.37391L32.995 4.4252L32.682 4.79174M33.0388 4.37391L33.3813 3.97272M33.0388 4.37391H35.9065M30.5707 3.97272H33.3813M30.5707 3.97272H27.7602M30.5707 3.97272L30.9548 3.58719M33.3813 3.97272L33.7105 3.58719M33.3813 3.97272H36.1919M31.6796 2.85957H34.3317M31.6796 2.85957L32.0219 2.5159M31.6796 2.85957H29.0274M31.6796 2.85957L31.3241 3.21639M34.3317 2.85957L34.6252 2.5159M34.3317 2.85957L34.2188 2.99182L34.1427 3.08102L34.0271 3.21639M34.3317 2.85957H36.9839M32.0219 2.5159H34.6252M32.0219 2.5159H29.4186M32.0219 2.5159L32.3518 2.18467M34.6252 2.5159L34.7325 2.39026L34.8032 2.30745L34.908 2.18467M34.6252 2.5159H37.2284M32.9771 1.55691H35.4439M32.9771 1.55691L33.2005 1.33269L33.2737 1.2592M32.9771 1.55691H30.5103M32.9771 1.55691L32.709 1.82606L32.6701 1.86521M35.4439 1.55691L35.6354 1.33269L35.6668 1.29584L35.6981 1.2592M35.4439 1.55691L35.3135 1.70968L35.1807 1.86521M35.4439 1.55691H37.9107M33.2737 1.2592H35.6981M33.2737 1.2592L33.5602 0.971568M33.2737 1.2592H30.8492M35.6981 1.2592H38.1226M35.6981 1.2592L35.9437 0.971568M30.2958 30.9517H36.9455M30.2958 30.9517L31.1932 28.8496M30.2958 30.9517H23.6462M30.2958 30.9517L29.3098 33.2615M36.9455 30.9517L37.5438 28.8496M36.9455 30.9517L36.2881 33.2615M36.9455 30.9517H43.5952M31.1932 28.8496H37.5438M31.1932 28.8496H24.8426M31.1932 28.8496L32.0133 26.9286M37.5438 28.8496L38.0905 26.9286M37.5438 28.8496H43.8943M33.4585 23.5433H39.0539M33.4585 23.5433L34.0984 22.0442M33.4585 23.5433H27.863M33.4585 23.5433L32.7657 25.1661M39.0539 23.5433L39.4805 22.0442M39.0539 23.5433L38.5921 25.1661M39.0539 23.5433H44.6494M34.0984 22.0442H39.4805M34.0984 22.0442H28.7163M34.0984 22.0442L34.6914 20.6552M39.4805 22.0442L39.8759 20.6552M39.4805 22.0442H44.8627M35.7555 18.1624H40.5853M35.7555 18.1624L36.2348 17.0397M35.7555 18.1624H30.9258M35.7555 18.1624L35.2423 19.3646M40.5853 18.1624L40.9048 17.0397M40.5853 18.1624L40.2432 19.3646M40.5853 18.1624H45.4151M36.2348 17.0397H40.9048M36.2348 17.0397H31.5648M36.2348 17.0397L36.6834 15.9888M40.9048 17.0397L41.2039 15.9888M40.9048 17.0397H45.5748M37.4996 14.0769H41.748M37.4996 14.0769L37.872 13.2047M37.4996 14.0769H33.2512M37.4996 14.0769L37.1042 15.0032M41.748 14.0769L41.9962 13.2047M41.748 14.0769L41.4844 15.0032M41.748 14.0769H45.9964M37.872 13.2047H41.9962M37.872 13.2047H33.7477M37.872 13.2047L38.2232 12.382M41.9962 13.2047L42.2304 12.382M41.9962 13.2047H46.1206M38.8689 10.8693H42.6609M38.8689 10.8693L39.1665 10.1723M38.8689 10.8693H35.077M38.8689 10.8693L38.555 11.6048M42.6609 10.8693L42.8593 10.1723M42.6609 10.8693L42.4516 11.6048M42.6609 10.8693H46.4529M39.1665 10.1723H42.8593M39.1665 10.1723H35.4737M39.1665 10.1723L39.4489 9.51078M42.8593 10.1723L43.0475 9.51078M42.8593 10.1723H46.552M39.9726 8.28406H43.3966M39.9726 8.28406L40.2158 7.71428M39.9726 8.28406H36.5485M39.9726 8.28406L39.7173 8.88219M43.3966 8.28406L43.5588 7.71428M43.3966 8.28406L43.2264 8.88219M43.3966 8.28406H46.8208M40.2158 7.71428H43.5588M40.2158 7.71428H36.8728M40.2158 7.71428L40.3041 7.50752L40.4478 7.17086M43.5588 7.71428L43.7135 7.17086M43.5588 7.71428H46.9018M40.881 6.15608H44.0023M40.881 6.15608L41.0836 5.68165M40.881 6.15608H37.7597M40.881 6.15608L40.7231 6.52595L40.6693 6.65201M44.0023 6.15608L44.0536 5.97572L44.1373 5.68165M44.0023 6.15608L43.8611 6.65201M44.0023 6.15608H47.1236M41.0836 5.68165L41.1082 5.62376L41.2775 5.22728M41.0836 5.68165H44.1373M41.0836 5.68165H38.0298M44.1373 5.68165L44.1865 5.50897L44.2026 5.45201L44.2188 5.3954L44.2666 5.22728M44.1373 5.68165H47.1911M41.6418 4.37391H44.5095M41.6418 4.37391L41.7283 4.1713L41.7497 4.12129L41.7709 4.0715L41.7921 4.02201L41.8131 3.97272M41.6418 4.37391H38.7741M41.6418 4.37391L41.4634 4.79174M44.5095 4.37391L44.5955 4.0715L44.6097 4.02201L44.6236 3.97272M44.5095 4.37391L44.3906 4.79174M44.5095 4.37391H47.3772M41.8131 3.97272H44.6236M41.8131 3.97272H39.0025M41.8131 3.97272L41.9167 3.72998L41.9371 3.68212L41.9777 3.58719M44.6236 3.97272L44.6927 3.72998L44.7064 3.68212L44.7199 3.63453L44.7334 3.58719M44.6236 3.97272H47.4343M42.2883 2.85957H44.9405M42.2883 2.85957L42.435 2.5159M42.2883 2.85957H39.6361M42.2883 2.85957L42.2507 2.9475L42.1937 3.08102L42.136 3.21639M44.9405 2.85957L44.928 2.90343L44.8518 3.17105L44.8389 3.21639M44.9405 2.85957L45.0383 2.5159M44.9405 2.85957H47.5927M42.435 2.5159H45.0383M42.435 2.5159H39.8317M42.435 2.5159L42.5764 2.18467M45.0383 2.5159L45.0741 2.39026L45.0858 2.34875L45.0976 2.30745L45.1326 2.18467M45.0383 2.5159H47.6416M42.8444 1.55691H45.3112M42.8444 1.55691L42.9401 1.33269L42.9715 1.2592M42.8444 1.55691H40.3776M42.8444 1.55691L42.7955 1.67124L42.7792 1.70968L42.7626 1.74832L42.7128 1.86521M45.3112 1.55691L45.322 1.51914L45.3433 1.44405L45.3645 1.36964L45.3959 1.2592M45.3112 1.55691L45.2677 1.70968L45.2567 1.74832L45.2346 1.82606L45.2235 1.86521M45.3112 1.55691H47.778M42.9715 1.2592H45.3959M42.9715 1.2592L43.0791 1.00699L43.0943 0.971568M42.9715 1.2592H40.547M45.3959 1.2592L45.4063 1.22271L45.4166 1.18637L45.427 1.15018L45.4372 1.11415L45.4677 1.00699L45.4778 0.971568M45.3959 1.2592H47.8204M56.8945 30.9517H63.5442M56.8945 30.9517L56.5954 28.8496M56.8945 30.9517H50.2448M56.8945 30.9517L57.2232 33.2615M63.5442 30.9517L62.946 28.8496M63.5442 30.9517L64.2015 33.2615M63.5442 30.9517H70.1938M56.5954 28.8496H62.946M56.5954 28.8496H50.2448M56.5954 28.8496L56.322 26.9286M62.946 28.8496L62.3992 26.9286M62.946 28.8496H69.2965M55.8403 23.5433H61.4357M55.8403 23.5433L55.627 22.0442M55.8403 23.5433H50.2448M55.8403 23.5433L56.0712 25.1661M61.4357 23.5433L61.0091 22.0442M61.4357 23.5433L61.8976 25.1661M61.4357 23.5433H67.0312M55.627 22.0442H61.0091M55.627 22.0442H50.2448M55.627 22.0442L55.4293 20.6552M61.0091 22.0442L60.6138 20.6552M61.0091 22.0442H66.3912M55.0746 18.1624H59.9044M55.0746 18.1624L54.9148 17.0397M55.0746 18.1624H50.2448M55.0746 18.1624L55.2457 19.3646M59.9044 18.1624L59.5848 17.0397M59.9044 18.1624L60.2465 19.3646M59.9044 18.1624H64.7341M54.9148 17.0397H59.5848M54.9148 17.0397H50.2448M54.9148 17.0397L54.7653 15.9888M59.5848 17.0397L59.2858 15.9888M59.5848 17.0397H64.2548M54.4932 14.0769H58.7416M54.4932 14.0769L54.3691 13.2047M54.4932 14.0769H50.2448M54.4932 14.0769L54.625 15.0032M58.7416 14.0769L58.4934 13.2047M58.7416 14.0769L59.0053 15.0032M58.7416 14.0769H62.99M54.3691 13.2047H58.4934M54.3691 13.2047H50.2448M54.3691 13.2047L54.252 12.382M58.4934 13.2047L58.2593 12.382M58.4934 13.2047H62.6177M54.0368 10.8693H57.8287M54.0368 10.8693L53.9376 10.1723M54.0368 10.8693H50.2448M54.0368 10.8693L54.1415 11.6048M57.8287 10.8693L57.6304 10.1723M57.8287 10.8693L58.0381 11.6048M57.8287 10.8693H61.6207M53.9376 10.1723H57.6304M53.9376 10.1723H50.2448M53.9376 10.1723L53.8434 9.51078M57.6304 10.1723L57.4421 9.51078M57.6304 10.1723H61.3232M53.6689 8.28406H57.093M53.6689 8.28406L53.5878 7.71428M53.6689 8.28406H50.2448M53.6689 8.28406L53.754 8.88219M57.093 8.28406L56.9308 7.71428M57.093 8.28406L57.2632 8.88219M57.093 8.28406H60.5171M53.5878 7.71428H56.9308M53.5878 7.71428H50.2448M53.5878 7.71428L53.5105 7.17086M56.9308 7.71428L56.7762 7.17086M56.9308 7.71428H60.2739M53.3661 6.15608H56.4874M53.3661 6.15608L53.2986 5.68165M53.3661 6.15608H50.2448M53.3661 6.15608L53.4367 6.65201M56.4874 6.15608L56.3689 5.73984L56.3523 5.68165M56.4874 6.15608L56.6285 6.65201M56.4874 6.15608H59.6086M53.2986 5.68165L53.2904 5.62376L53.2339 5.22728M53.2986 5.68165H56.3523M53.2986 5.68165H50.2448M56.3523 5.68165L56.3032 5.50897L56.287 5.45201L56.2709 5.3954L56.223 5.22728M56.3523 5.68165H59.4061M53.1125 4.37391H55.9802M53.1125 4.37391L53.0554 3.97272M53.1125 4.37391H50.2448M53.1125 4.37391L53.1345 4.52858L53.1419 4.58068L53.1494 4.63303L53.1644 4.73857L53.172 4.79174M55.9802 4.37391L55.8941 4.0715L55.866 3.97272M55.9802 4.37391L56.0991 4.79174M55.9802 4.37391H58.8478M53.0554 3.97272H55.866M53.0554 3.97272H50.2448M53.0554 3.97272L53.0005 3.58719M55.866 3.97272L55.7969 3.72998L55.7833 3.68212L55.7698 3.63453L55.7563 3.58719M55.866 3.97272H58.6766M52.897 2.85957H55.5492M52.897 2.85957L52.8481 2.5159M52.897 2.85957H50.2448M52.897 2.85957L52.9478 3.21639M55.5492 2.85957L55.5617 2.90343L55.6379 3.17105L55.6507 3.21639M55.5492 2.85957L55.4514 2.5159M55.5492 2.85957H58.2014M52.8481 2.5159H55.4514M52.8481 2.5159H50.2448M52.8481 2.5159L52.801 2.18467M55.4514 2.5159L55.4156 2.39026L55.4038 2.34875L55.392 2.30745L55.3571 2.18467M55.4514 2.5159H58.0546M52.7117 1.55691H55.1785M52.7117 1.55691L52.6693 1.2592M52.7117 1.55691H50.2448M52.7117 1.55691L52.7555 1.86521M55.1785 1.55691L55.1677 1.51914L55.1463 1.44405L55.1357 1.40674L55.1146 1.33269L55.1042 1.29584L55.0937 1.2592M55.1785 1.55691L55.222 1.70968L55.2329 1.74832L55.2551 1.82606L55.2662 1.86521M55.1785 1.55691H57.6453M52.6693 1.2592L52.6641 1.22271L52.6589 1.18637L52.6538 1.15018L52.6283 0.971568M52.6693 1.2592H55.0937M52.6693 1.2592H50.2448M55.0937 1.2592H57.5182M55.0937 1.2592L55.073 1.18637L55.0627 1.15018L55.0525 1.11415L55.022 1.00699L55.0118 0.971568M83.4932 30.9517H90.1428M83.4932 30.9517L81.9976 28.8496M83.4932 30.9517H76.8435M83.4932 30.9517L85.1366 33.2615M90.1428 30.9517L88.3481 28.8496M90.1428 30.9517L92.115 33.2615M90.1428 30.9517H96.7925M81.9976 28.8496H88.3481M81.9976 28.8496H75.647M81.9976 28.8496L80.6307 26.9286M88.3481 28.8496L86.7079 26.9286M88.3481 28.8496H94.6987M78.2221 23.5433H83.8176M78.2221 23.5433L77.1555 22.0442M78.2221 23.5433H72.6267M78.2221 23.5433L79.3767 25.1661M83.8176 23.5433L82.5377 22.0442M83.8176 23.5433L85.2031 25.1661M83.8176 23.5433H89.413M77.1555 22.0442H82.5377M77.1555 22.0442H71.7734M77.1555 22.0442L76.1673 20.6552M82.5377 22.0442L81.3517 20.6552M82.5377 22.0442H87.9198M74.3936 18.1624H79.2234M74.3936 18.1624L73.5948 17.0397M74.3936 18.1624H69.5638M74.3936 18.1624L75.2491 19.3646M79.2234 18.1624L78.2648 17.0397M79.2234 18.1624L80.2499 19.3646M79.2234 18.1624H84.0531M73.5948 17.0397H78.2648M73.5948 17.0397H68.9248M73.5948 17.0397L72.8471 15.9888M78.2648 17.0397L77.3676 15.9888M78.2648 17.0397H82.9348M71.4868 14.0769H75.7352M71.4868 14.0769L70.8663 13.2047M71.4868 14.0769H67.2384M71.4868 14.0769L72.1459 15.0032M75.7352 14.0769L74.9906 13.2047M75.7352 14.0769L76.5261 15.0032M75.7352 14.0769H79.9837M70.8663 13.2047H74.9906M70.8663 13.2047H66.742M70.8663 13.2047L70.2809 12.382M74.9906 13.2047L74.2882 12.382M74.9906 13.2047H79.1148M69.2046 10.8693H72.9966M69.2046 10.8693L68.7087 10.1723M69.2046 10.8693H65.4127M69.2046 10.8693L69.7279 11.6048M72.9966 10.8693L72.4015 10.1723M72.9966 10.8693L73.6246 11.6048M72.9966 10.8693H76.7886M68.7087 10.1723H72.4015M68.7087 10.1723H65.0159M68.7087 10.1723L68.2381 9.51078M72.4015 10.1723L71.8367 9.51078M72.4015 10.1723H76.0943M67.3653 8.28406H70.7893M67.3653 8.28406L66.9598 7.71428M67.3653 8.28406H63.9412M67.3653 8.28406L67.7908 8.88219M70.7893 8.28406L70.3028 7.71428M70.7893 8.28406L71.3 8.88219M70.7893 8.28406H74.2134M66.9598 7.71428H70.3028M66.9598 7.71428H63.6169M66.9598 7.71428L66.5732 7.17086M70.3028 7.71428L69.8389 7.17086M70.3028 7.71428H73.6458M65.8512 6.15608L65.8944 6.21688L65.938 6.27799L66.204 6.65201M65.8512 6.15608H68.9725M65.8512 6.15608L65.5136 5.68165M65.8512 6.15608H62.7299M68.9725 6.15608L68.5674 5.68165M68.9725 6.15608L69.3959 6.65201M68.9725 6.15608H72.0938M65.5136 5.68165H68.5674M65.5136 5.68165H62.4599M65.5136 5.68165L65.1904 5.22728M68.5674 5.68165L68.1794 5.22728M68.5674 5.68165H71.6211M64.5832 4.37391H67.4509M64.5832 4.37391L64.2977 3.97272M64.5832 4.37391H61.7155M64.5832 4.37391L64.8805 4.79174M67.4509 4.37391L67.2351 4.12129L67.1083 3.97272M67.4509 4.37391L67.8076 4.79174M67.4509 4.37391H70.3185M64.2977 3.97272H67.1083M64.2977 3.97272H61.4871M64.2977 3.97272L64.0572 3.63453L64.0234 3.58719M67.1083 3.97272L66.7791 3.58719M67.1083 3.97272H69.9189M63.5057 2.85957H66.1579M63.5057 2.85957L63.4438 2.77241L63.2612 2.5159M63.5057 2.85957H60.8536M63.5057 2.85957L63.5683 2.9475L63.6953 3.12591L63.7596 3.21639M66.1579 2.85957L65.8645 2.5159M66.1579 2.85957L66.2708 2.99182L66.347 3.08102L66.4626 3.21639M66.1579 2.85957H68.8101M63.2612 2.5159H65.8645M63.2612 2.5159H60.6579M63.2612 2.5159L63.0836 2.2663L63.0255 2.18467M65.8645 2.5159L65.7572 2.39026L65.6865 2.30745L65.5816 2.18467M65.8645 2.5159H68.4678M62.5789 1.55691H65.0457M62.5789 1.55691L62.4456 1.36964L62.3671 1.2592M62.5789 1.55691H60.1121M62.5789 1.55691L62.7982 1.86521M65.0457 1.55691L64.8542 1.33269L64.8228 1.29584L64.7915 1.2592M65.0457 1.55691L65.1762 1.70968L65.3089 1.86521M65.0457 1.55691H67.5125M62.3671 1.2592H64.7915M62.3671 1.2592L62.2639 1.11415L62.213 1.04255L62.1876 1.00699L62.1624 0.971568M62.3671 1.2592H59.9426M64.7915 1.2592H67.216M64.7915 1.2592L64.5459 0.971568M98.6841 22.0442H93.3019M98.6841 22.0442L96.9052 20.6552M98.6841 22.0442H100.297M98.6841 22.0442L100.297 23.3034M93.7127 18.1624H98.5424M93.7127 18.1624L92.2748 17.0397M93.7127 18.1624H88.8829M93.7127 18.1624L95.2524 19.3646M98.5424 18.1624L96.9448 17.0397M98.5424 18.1624L100.253 19.3646M98.5424 18.1624H100.297M92.2748 17.0397H96.9448M92.2748 17.0397H87.6048M92.2748 17.0397L90.929 15.9888M96.9448 17.0397L95.4495 15.9888M96.9448 17.0397H100.297M88.4804 14.0769H92.7288M88.4804 14.0769L87.3634 13.2047M88.4804 14.0769H84.232M88.4804 14.0769L89.6668 15.0032M92.7288 14.0769L91.4878 13.2047M92.7288 14.0769L94.047 15.0032M92.7288 14.0769H96.9773M87.3634 13.2047H91.4878M87.3634 13.2047H83.2392M87.3634 13.2047L86.3098 12.382M91.4878 13.2047L90.3171 12.382M91.4878 13.2047H95.612M84.3725 10.8693H88.1644M84.3725 10.8693L83.4798 10.1723M84.3725 10.8693H80.5805M84.3725 10.8693L85.3144 11.6048M88.1644 10.8693L87.1726 10.1723M88.1644 10.8693L89.2111 11.6048M88.1644 10.8693H91.9564M83.4798 10.1723H87.1726M83.4798 10.1723H79.787M83.4798 10.1723L82.6327 9.51078M87.1726 10.1723L86.2313 9.51078M87.1726 10.1723H90.8653M81.0616 8.28406H84.4857M81.0616 8.28406L80.3319 7.71428M81.0616 8.28406H77.6375M81.0616 8.28406L81.8276 8.88219M84.4857 8.28406L83.6749 7.71428M84.4857 8.28406L85.3368 8.88219M84.4857 8.28406H87.9097M80.3319 7.71428H83.6749M80.3319 7.71428H76.9889M80.3319 7.71428L79.6359 7.17086M83.6749 7.71428L82.9016 7.17086M83.6749 7.71428H87.0179M78.3363 6.15608H81.4576M78.3363 6.15608L77.7287 5.68165M78.3363 6.15608H75.215M78.3363 6.15608L78.9714 6.65201M81.4576 6.15608L80.7824 5.68165M81.4576 6.15608L82.1633 6.65201M81.4576 6.15608H84.5788M77.7287 5.68165H80.7824M77.7287 5.68165H74.6749M77.7287 5.68165L77.1468 5.22728M80.7824 5.68165L80.1358 5.22728M80.7824 5.68165H83.8362M76.0539 4.37391H78.9215M76.0539 4.37391L75.54 3.97272M76.0539 4.37391H73.1862M76.0539 4.37391L76.589 4.79174M78.9215 4.37391L78.3507 3.97272M78.9215 4.37391L79.5161 4.79174M78.9215 4.37391H81.7892M75.54 3.97272H78.3507M75.54 3.97272H72.7295M75.54 3.97272L75.0463 3.58719M78.3507 3.97272L77.802 3.58719M78.3507 3.97272H81.1612M74.1145 2.85957H76.7666M74.1145 2.85957L73.6743 2.5159M74.1145 2.85957H71.4623M74.1145 2.85957L74.2271 2.9475L74.2838 2.99182L74.5715 3.21639M76.7666 2.85957L76.2776 2.5159M76.7666 2.85957L77.2744 3.21639M76.7666 2.85957H79.4188M73.6743 2.5159H76.2776M73.6743 2.5159H71.071M73.6743 2.5159L73.2501 2.18467M76.2776 2.5159L75.8063 2.18467M76.2776 2.5159H78.8808M72.4462 1.55691H74.913M72.4462 1.55691L72.0649 1.2592M72.4462 1.55691H69.9793M72.4462 1.55691L72.841 1.86521M74.913 1.55691L74.5939 1.33269L74.5415 1.29584L74.4893 1.2592M74.913 1.55691L75.3517 1.86521M74.913 1.55691H77.3798M72.0649 1.2592H74.4893M72.0649 1.2592L71.7419 1.00699L71.6965 0.971568M72.0649 1.2592H69.6404M74.4893 1.2592H76.9138M74.4893 1.2592L74.08 0.971568M99.5403 10.8693L98.2509 10.1723M99.5403 10.8693H95.7484M99.5403 10.8693L100.297 11.2782M99.5403 10.8693H100.297M98.2509 10.1723H94.5581M98.2509 10.1723L97.0272 9.51078M98.2509 10.1723H100.297M94.7579 8.28406H98.182M94.7579 8.28406L93.7039 7.71428M94.7579 8.28406H91.3339M94.7579 8.28406L95.8644 8.88219M98.182 8.28406L97.0469 7.71428M98.182 8.28406L99.3736 8.88219M98.182 8.28406H100.297M93.7039 7.71428H97.0469M93.7039 7.71428H90.3609M93.7039 7.71428L92.6986 7.17086M97.0469 7.71428L95.9643 7.17086M97.0469 7.71428H100.297M90.8214 6.15608H93.9427M90.8214 6.15608L89.9437 5.68165M90.8214 6.15608H87.7001M90.8214 6.15608L91.7388 6.65201M93.9427 6.15608L92.9974 5.68165M93.9427 6.15608L94.9306 6.65201M93.9427 6.15608H97.064M89.9437 5.68165H92.9974M89.9437 5.68165H86.8899M89.9437 5.68165L89.1032 5.22728M92.9974 5.68165L92.0923 5.22728M92.9974 5.68165H96.0512M87.5245 4.37391H90.3922M87.5245 4.37391L86.7824 3.97272M87.5245 4.37391H84.6569M87.5245 4.37391L88.2975 4.79174M90.3922 4.37391L89.593 3.97272M90.3922 4.37391L91.2246 4.79174M90.3922 4.37391H93.2599M86.7824 3.97272H89.593M86.7824 3.97272H83.9718M86.7824 3.97272L86.0692 3.58719M89.593 3.97272L88.8249 3.58719M89.593 3.97272H92.4036M84.7232 2.85957H87.3754M84.7232 2.85957L84.0874 2.5159M84.7232 2.85957H82.071M84.7232 2.85957L85.3833 3.21639M87.3754 2.85957L86.6907 2.5159M87.3754 2.85957L88.0863 3.21639M87.3754 2.85957H90.0275M84.0874 2.5159H86.6907M84.0874 2.5159H81.4841M84.0874 2.5159L83.4747 2.18467M86.6907 2.5159L86.0308 2.18467M86.6907 2.5159H89.294M82.3134 1.55691H84.7802M82.3134 1.55691L81.7627 1.2592M82.3134 1.55691H79.8466M82.3134 1.55691L82.8837 1.86521M84.7802 1.55691L84.1871 1.2592M84.7802 1.55691L85.3944 1.86521M84.7802 1.55691H87.2471M81.7627 1.2592H84.1871M81.7627 1.2592L81.2306 0.971568M81.7627 1.2592H79.3382M84.1871 1.2592H86.6116M84.1871 1.2592L83.6141 0.971568M98.9952 4.37391L98.0247 3.97272M98.9952 4.37391H96.1276M98.9952 4.37391L100.006 4.79174M98.9952 4.37391H100.297M98.0247 3.97272H95.2141M98.0247 3.97272L97.0921 3.58719M98.0247 3.97272H100.297M95.3319 2.85957H97.9841M95.3319 2.85957L94.5005 2.5159M95.3319 2.85957H92.6797M95.3319 2.85957L96.1951 3.21639M97.9841 2.85957L97.1038 2.5159M97.9841 2.85957L98.8981 3.21639M97.9841 2.85957H100.297M94.5005 2.5159H97.1038M94.5005 2.5159H91.8972M94.5005 2.5159L93.6992 2.18467M97.1038 2.5159L96.2554 2.18467M97.1038 2.5159H99.7071M92.1807 1.55691H94.6475M92.1807 1.55691L91.4605 1.2592M92.1807 1.55691H89.7138M92.1807 1.55691L92.9264 1.86521M94.6475 1.55691L93.8849 1.2592M94.6475 1.55691L95.4371 1.86521M94.6475 1.55691H97.1143M91.4605 1.2592H93.8849M91.4605 1.2592L90.7647 0.971568M91.4605 1.2592H89.0361M93.8849 1.2592H96.3094M93.8849 1.2592L93.1482 0.971568M95.4371 1.86521L96.2554 2.18467M95.4371 1.86521H97.9478M95.4371 1.86521H92.9264M97.1143 1.55691L96.3094 1.2592M97.1143 1.55691L97.9478 1.86521M97.1143 1.55691H99.5811M96.3094 1.2592H98.7339M96.3094 1.2592L95.5317 0.971568M93.1482 0.971568H90.7647M93.1482 0.971568H95.5317M93.1482 0.971568L92.4359 0.693461M97.9478 1.86521L98.8115 2.18467M97.9478 1.86521H100.297M99.5811 1.55691L98.7339 1.2592M99.5811 1.55691L100.297 1.80833M99.5811 1.55691H100.297M98.7339 1.2592L97.9152 0.971568M98.7339 1.2592H100.297M95.5317 0.971568H97.9152M95.5317 0.971568L94.7798 0.693461M97.9152 0.971568L97.1238 0.693461M97.9152 0.971568H100.297M96.2554 2.18467H98.8115M96.2554 2.18467H93.6992M99.7071 2.5159L98.8115 2.18467M99.7071 2.5159L100.297 2.73393M99.7071 2.5159H100.297M98.8115 2.18467H100.297M93.6992 2.18467H91.1431M93.6992 2.18467L92.9264 1.86521M92.9264 1.86521H90.4158M98.8981 3.21639L99.8478 3.58719M98.8981 3.21639H96.1951M98.8981 3.21639H100.297M100.305 2.85957H100.297M99.8478 3.58719H97.0921M99.8478 3.58719L100.297 3.76242M99.8478 3.58719H100.297M97.0921 3.58719H94.3363M97.0921 3.58719L96.1951 3.21639M96.1951 3.21639H93.4922M85.3944 1.86521L86.0308 2.18467M85.3944 1.86521H87.9051M85.3944 1.86521H82.8837M87.2471 1.55691L86.6116 1.2592M87.2471 1.55691L87.9051 1.86521M87.2471 1.55691H89.7138M86.6116 1.2592H89.0361M86.6116 1.2592L85.9976 0.971568M83.6141 0.971568H85.9976M83.6141 0.971568L83.0601 0.693461M83.6141 0.971568H81.2306M87.9051 1.86521L88.5869 2.18467M87.9051 1.86521H90.4158M89.7138 1.55691L89.0361 1.2592M89.7138 1.55691L90.4158 1.86521M89.0361 1.2592L88.3812 0.971568M85.9976 0.971568H88.3812M85.9976 0.971568L85.404 0.693461M90.4158 1.86521L91.1431 2.18467M90.7647 0.971568H88.3812M90.7647 0.971568L90.0919 0.693461M88.3812 0.971568L87.7479 0.693461M86.0308 2.18467H88.5869M86.0308 2.18467H83.4747M89.294 2.5159L88.5869 2.18467M89.294 2.5159L90.0275 2.85957M89.294 2.5159H91.8972M88.5869 2.18467H91.1431M83.4747 2.18467H80.9185M83.4747 2.18467L82.8837 1.86521M91.1431 2.18467L91.8972 2.5159M82.8837 1.86521H80.373M90.0275 2.85957L90.7892 3.21639M90.0275 2.85957H92.6797M91.8972 2.5159L92.6797 2.85957M92.6797 2.85957L93.4922 3.21639M88.0863 3.21639L88.8249 3.58719M88.0863 3.21639H90.7892M88.0863 3.21639H85.3833M90.7892 3.21639L91.5806 3.58719M90.7892 3.21639H93.4922M93.4922 3.21639L94.3363 3.58719M88.8249 3.58719H91.5806M88.8249 3.58719H86.0692M92.4036 3.97272L91.5806 3.58719M92.4036 3.97272L93.2599 4.37391M92.4036 3.97272H95.2141M91.5806 3.58719H94.3363M86.0692 3.58719H83.3135M86.0692 3.58719L85.3833 3.21639M94.3363 3.58719L95.2141 3.97272M85.3833 3.21639H82.6804M93.2599 4.37391L94.1518 4.79174M93.2599 4.37391H96.1276M95.2141 3.97272L96.1276 4.37391M96.1276 4.37391L97.0789 4.79174M91.2246 4.79174L92.0923 5.22728M91.2246 4.79174H94.1518M91.2246 4.79174H88.2975M94.1518 4.79174L95.0814 5.22728M94.1518 4.79174H97.0789M97.0789 4.79174L98.0705 5.22728M97.0789 4.79174H100.006M100.006 4.79174H100.297M100.006 4.79174L100.297 4.91188M92.0923 5.22728H95.0814M92.0923 5.22728H89.1032M96.0512 5.68165L95.0814 5.22728M96.0512 5.68165L97.064 6.15608M96.0512 5.68165H99.105M95.0814 5.22728H98.0705M89.1032 5.22728H86.1141M89.1032 5.22728L88.2975 4.79174M98.0705 5.22728L99.105 5.68165M98.0705 5.22728H100.297M88.2975 4.79174H85.3704M97.064 6.15608L98.1224 6.65201M97.064 6.15608H100.185M99.105 5.68165L100.185 6.15608M99.105 5.68165H100.297M100.312 5.22728H100.297M100.185 6.15608L100.297 6.20504M100.185 6.15608H100.297M94.9306 6.65201L95.9643 7.17086M94.9306 6.65201H98.1224M94.9306 6.65201H91.7388M98.1224 6.65201L99.23 7.17086M98.1224 6.65201H100.297M100.324 6.21688L100.297 6.20504M95.9643 7.17086H99.23M95.9643 7.17086H92.6986M99.23 7.17086H100.297M99.23 7.17086L100.297 7.67061M92.6986 7.17086H89.4329M92.6986 7.17086L91.7388 6.65201M91.7388 6.65201H88.547M99.3736 8.88219H95.8644M99.3736 8.88219L100.297 9.34554M99.3736 8.88219H100.297M100.322 8.28406H100.297M95.8644 8.88219H92.3552M95.8644 8.88219L97.0272 9.51078M100.307 9.35064L100.297 9.34554M75.3517 1.86521L75.8063 2.18467M75.3517 1.86521H77.8623M75.3517 1.86521H72.841M77.3798 1.55691L76.9138 1.2592M77.3798 1.55691L77.8623 1.86521M77.3798 1.55691H79.8466M76.9138 1.2592H79.3382M76.9138 1.2592L76.4636 0.971568M74.08 0.971568H76.4636M74.08 0.971568L73.93 0.866191L73.6843 0.693461M74.08 0.971568H71.6965M77.8623 1.86521L78.3624 2.18467M77.8623 1.86521H80.373M79.8466 1.55691L79.3382 1.2592M79.8466 1.55691L80.373 1.86521M79.3382 1.2592L78.8471 0.971568M76.4636 0.971568H78.8471M76.4636 0.971568L76.0283 0.693461M80.373 1.86521L80.9185 2.18467M81.2306 0.971568L80.7161 0.693461M81.2306 0.971568H78.8471M78.8471 0.971568L78.7868 0.936254L78.6671 0.866191L78.3722 0.693461M75.8063 2.18467H78.3624M75.8063 2.18467H73.2501M78.8808 2.5159L78.3624 2.18467M78.8808 2.5159L79.4188 2.85957M78.8808 2.5159H81.4841M78.3624 2.18467H80.9185M73.2501 2.18467H70.694M73.2501 2.18467L72.841 1.86521M80.9185 2.18467L81.4841 2.5159M72.841 1.86521H70.3303M79.4188 2.85957L79.9774 3.21639M79.4188 2.85957H82.071M81.4841 2.5159L81.5563 2.55813L82.071 2.85957M82.071 2.85957L82.6804 3.21639M77.2744 3.21639L77.3392 3.26199L77.802 3.58719M77.2744 3.21639H79.9774M77.2744 3.21639H74.5715M79.9774 3.21639L80.5577 3.58719M79.9774 3.21639H82.6804M82.6804 3.21639L83.3135 3.58719M77.802 3.58719H80.5577M77.802 3.58719H75.0463M81.1612 3.97272L80.5577 3.58719M81.1612 3.97272L81.7892 4.37391M81.1612 3.97272H83.9718M80.5577 3.58719H83.3135M75.0463 3.58719H72.2906M75.0463 3.58719L74.5715 3.21639M83.3135 3.58719L83.9718 3.97272M74.5715 3.21639H71.8685M81.7892 4.37391L82.4432 4.79174M81.7892 4.37391H84.6569M83.9718 3.97272L84.6569 4.37391M84.6569 4.37391L85.3704 4.79174M79.5161 4.79174L80.1358 5.22728M79.5161 4.79174H82.4432M79.5161 4.79174H76.589M82.4432 4.79174L83.125 5.22728M82.4432 4.79174H85.3704M85.3704 4.79174L86.1141 5.22728M80.1358 5.22728H83.125M80.1358 5.22728H77.1468M83.8362 5.68165L83.125 5.22728M83.8362 5.68165L84.5788 6.15608M83.8362 5.68165H86.8899M83.125 5.22728H86.1141M77.1468 5.22728H74.1577M77.1468 5.22728L76.589 4.79174M86.1141 5.22728L86.8899 5.68165M76.589 4.79174H73.6618M84.5788 6.15608L85.3551 6.65201M84.5788 6.15608H87.7001M86.8899 5.68165L87.7001 6.15608M87.7001 6.15608L88.547 6.65201M82.1633 6.65201L82.9016 7.17086M82.1633 6.65201H85.3551M82.1633 6.65201H78.9714M85.3551 6.65201L86.1672 7.17086M85.3551 6.65201H88.547M88.547 6.65201L89.4329 7.17086M82.9016 7.17086H86.1672M82.9016 7.17086H79.6359M87.0179 7.71428L86.1672 7.17086M87.0179 7.71428L87.9097 8.28406M87.0179 7.71428H90.3609M86.1672 7.17086H89.4329M79.6359 7.17086H76.3702M79.6359 7.17086L78.9714 6.65201M89.4329 7.17086L90.3609 7.71428M78.9714 6.65201H75.7796M87.9097 8.28406L88.846 8.88219M87.9097 8.28406H91.3339M90.3609 7.71428L91.3339 8.28406M91.3339 8.28406L92.3552 8.88219M85.3368 8.88219L86.2313 9.51078M85.3368 8.88219H88.846M85.3368 8.88219H81.8276M88.846 8.88219L89.8299 9.51078M88.846 8.88219H92.3552M92.3552 8.88219L93.4286 9.51078M86.2313 9.51078H89.8299M86.2313 9.51078H82.6327M90.8653 10.1723L89.8299 9.51078M90.8653 10.1723L91.9564 10.8693M90.8653 10.1723H94.5581M89.8299 9.51078H93.4286M82.6327 9.51078H79.034M82.6327 9.51078L81.8276 8.88219M93.4286 9.51078L94.5581 10.1723M93.4286 9.51078H97.0272M81.8276 8.88219H78.3184M91.9564 10.8693L93.1077 11.6048M91.9564 10.8693H95.7484M94.5581 10.1723L95.7484 10.8693M97.0272 9.51078H100.297M95.7484 10.8693L97.0043 11.6048M89.2111 11.6048L90.3171 12.382M89.2111 11.6048H93.1077M89.2111 11.6048H85.3144M93.1077 11.6048L94.3243 12.382M93.1077 11.6048H97.0043M97.0043 11.6048L98.3315 12.382M97.0043 11.6048H100.297M90.3171 12.382H94.3243M90.3171 12.382H86.3098M95.612 13.2047L94.3243 12.382M95.612 13.2047L96.9773 14.0769M95.612 13.2047H99.7363M94.3243 12.382H98.3315M86.3098 12.382H82.3026M86.3098 12.382L85.3144 11.6048M98.3315 12.382L99.7363 13.2047M98.3315 12.382H100.297M85.3144 11.6048H81.4178M96.9773 14.0769L98.4272 15.0032M96.9773 14.0769H100.297M99.7363 13.2047H100.297M99.7363 13.2047L100.297 13.5329M94.047 15.0032L95.4495 15.9888M94.047 15.0032H98.4272M94.047 15.0032H89.6668M98.4272 15.0032L99.9699 15.9888M98.4272 15.0032H100.297M95.4495 15.9888H99.9699M95.4495 15.9888H90.929M99.9699 15.9888L100.297 16.1976M99.9699 15.9888H100.297M90.929 15.9888H86.4085M90.929 15.9888L89.6668 15.0032M89.6668 15.0032H85.2865M100.253 19.3646H95.2524M100.253 19.3646H100.297M100.253 19.3646L100.297 19.3951M95.2524 19.3646H90.2516M95.2524 19.3646L96.9052 20.6552M65.3089 1.86521L65.4101 1.98364L65.4441 2.02351L65.5816 2.18467M65.3089 1.86521H67.8196M65.3089 1.86521H62.7982M67.5125 1.55691L67.2891 1.33269L67.216 1.2592M67.5125 1.55691L67.7806 1.82606L67.8196 1.86521M67.5125 1.55691H69.9793M67.216 1.2592H69.6404M67.216 1.2592L66.9295 0.971568M64.5459 0.971568H66.9295M64.5459 0.971568L64.456 0.866191L64.3085 0.693461M64.5459 0.971568H62.1624M67.8196 1.86521L67.8981 1.94397L68.1378 2.18467M67.8196 1.86521H70.3303M69.9793 1.55691L69.6404 1.2592M69.9793 1.55691L70.3303 1.86521M69.6404 1.2592L69.3938 1.04255L69.313 0.971568M66.9295 0.971568H69.313M66.9295 0.971568L66.6524 0.693461M70.3303 1.86521L70.694 2.18467M71.6965 0.971568L71.6513 0.936254L71.3403 0.693461M71.6965 0.971568H69.313M69.313 0.971568L69.193 0.866191L68.9964 0.693461M65.5816 2.18467H68.1378M65.5816 2.18467H63.0255M68.4678 2.5159L68.1378 2.18467M68.4678 2.5159L68.8101 2.85957M68.4678 2.5159H71.071M68.1378 2.18467H70.694M63.0255 2.18467H60.4694M63.0255 2.18467L62.7982 1.86521M70.694 2.18467L71.071 2.5159M62.7982 1.86521H60.2876M68.8101 2.85957L69.0306 3.08102L69.0754 3.12591L69.1655 3.21639M68.8101 2.85957H71.4623M71.071 2.5159L71.4623 2.85957M71.4623 2.85957L71.8685 3.21639M66.4626 3.21639L66.7791 3.58719M66.4626 3.21639H69.1655M66.4626 3.21639H63.7596M69.1655 3.21639L69.5349 3.58719M69.1655 3.21639H71.8685M71.8685 3.21639L72.2906 3.58719M66.7791 3.58719H69.5349M66.7791 3.58719H64.0234M69.9189 3.97272L69.6771 3.72998L69.6295 3.68212L69.5349 3.58719M69.9189 3.97272L70.3185 4.37391M69.9189 3.97272H72.7295M69.5349 3.58719H72.2906M64.0234 3.58719H61.2677M64.0234 3.58719L63.7596 3.21639M72.2906 3.58719L72.7295 3.97272M63.7596 3.21639H61.0566M70.3185 4.37391L70.7348 4.79174M70.3185 4.37391H73.1862M72.7295 3.97272L73.1862 4.37391M73.1862 4.37391L73.6618 4.79174M67.8076 4.79174L67.9916 5.00721L68.0382 5.06182L68.1794 5.22728M67.8076 4.79174H70.7348M67.8076 4.79174H64.8805M70.7348 4.79174L71.1685 5.22728M70.7348 4.79174H73.6618M73.6618 4.79174L74.1577 5.22728M68.1794 5.22728H71.1685M68.1794 5.22728H65.1904M71.6211 5.68165L71.1685 5.22728M71.6211 5.68165L72.0938 6.15608M71.6211 5.68165H74.6749M71.1685 5.22728H74.1577M65.1904 5.22728H62.2012M65.1904 5.22728L65.1116 5.11668L64.8805 4.79174M74.1577 5.22728L74.6749 5.68165M64.8805 4.79174H61.9534M72.0938 6.15608L72.5877 6.65201M72.0938 6.15608H75.215M74.6749 5.68165L75.215 6.15608M75.215 6.15608L75.7796 6.65201M69.3959 6.65201L69.8389 7.17086M69.3959 6.65201H72.5877M69.3959 6.65201H66.204M72.5877 6.65201L73.1046 7.17086M72.5877 6.65201H75.7796M75.7796 6.65201L76.3702 7.17086M69.8389 7.17086H73.1046M69.8389 7.17086H66.5732M73.6458 7.71428L73.1046 7.17086M73.6458 7.71428L74.2134 8.28406M73.6458 7.71428H76.9889M73.1046 7.17086H76.3702M66.5732 7.17086H63.3075M66.5732 7.17086L66.204 6.65201M76.3702 7.17086L76.9889 7.71428M66.204 6.65201H63.0122M74.2134 8.28406L74.8092 8.88219M74.2134 8.28406H77.6375M76.9889 7.71428L77.6375 8.28406M77.6375 8.28406L78.3184 8.88219M71.3 8.88219L71.8367 9.51078M71.3 8.88219H74.8092M71.3 8.88219H67.7908M74.8092 8.88219L75.4353 9.51078M74.8092 8.88219H78.3184M78.3184 8.88219L79.034 9.51078M71.8367 9.51078H75.4353M71.8367 9.51078H68.2381M76.0943 10.1723L75.4353 9.51078M76.0943 10.1723L76.7886 10.8693M76.0943 10.1723H79.787M75.4353 9.51078H79.034M68.2381 9.51078H64.6394M68.2381 9.51078L67.7908 8.88219M79.034 9.51078L79.787 10.1723M67.7908 8.88219H64.2816M76.7886 10.8693L77.5212 11.6048M76.7886 10.8693H80.5805M79.787 10.1723L80.5805 10.8693M80.5805 10.8693L81.4178 11.6048M73.6246 11.6048L74.2882 12.382M73.6246 11.6048H77.5212M73.6246 11.6048H69.7279M77.5212 11.6048L78.2954 12.382M77.5212 11.6048H81.4178M81.4178 11.6048L82.3026 12.382M74.2882 12.382H78.2954M74.2882 12.382H70.2809M79.1148 13.2047L78.2954 12.382M79.1148 13.2047L79.9837 14.0769M79.1148 13.2047H83.2392M78.2954 12.382H82.3026M70.2809 12.382H66.2737M70.2809 12.382L69.7279 11.6048M82.3026 12.382L83.2392 13.2047M69.7279 11.6048H65.8313M79.9837 14.0769L80.9063 15.0032M79.9837 14.0769H84.232M83.2392 13.2047L84.232 14.0769M84.232 14.0769L85.2865 15.0032M76.5261 15.0032L77.3676 15.9888M76.5261 15.0032H80.9063M76.5261 15.0032H72.1459M80.9063 15.0032L81.8881 15.9888M80.9063 15.0032H85.2865M85.2865 15.0032L86.4085 15.9888M77.3676 15.9888H81.8881M77.3676 15.9888H72.8471M82.9348 17.0397L81.8881 15.9888M82.9348 17.0397L84.0531 18.1624M82.9348 17.0397H87.6048M81.8881 15.9888H86.4085M72.8471 15.9888H68.3267M72.8471 15.9888L72.1459 15.0032M86.4085 15.9888L87.6048 17.0397M72.1459 15.0032H67.7657M84.0531 18.1624L85.2507 19.3646M84.0531 18.1624H88.8829M87.6048 17.0397L88.8829 18.1624M88.8829 18.1624L90.2516 19.3646M80.2499 19.3646L81.3517 20.6552M80.2499 19.3646H85.2507M80.2499 19.3646H75.2491M85.2507 19.3646L86.5362 20.6552M85.2507 19.3646H90.2516M90.2516 19.3646L91.7208 20.6552M81.3517 20.6552H86.5362M81.3517 20.6552H76.1673M87.9198 22.0442L86.5362 20.6552M87.9198 22.0442L89.413 23.5433M87.9198 22.0442H93.3019M86.5362 20.6552H91.7208M76.1673 20.6552H70.9828M76.1673 20.6552L75.2491 19.3646M91.7208 20.6552L93.3019 22.0442M91.7208 20.6552H96.9052M75.2491 19.3646H70.2482M89.413 23.5433L91.0295 25.1661M89.413 23.5433H95.0084M93.3019 22.0442L95.0084 23.5433M96.9052 20.6552H100.297M95.0084 23.5433L96.8559 25.1661M95.0084 23.5433H100.297M85.2031 25.1661L86.7079 26.9286M85.2031 25.1661H91.0295M85.2031 25.1661H79.3767M91.0295 25.1661L92.7851 26.9286M91.0295 25.1661H96.8559M96.8559 25.1661L98.8623 26.9286M96.8559 25.1661H100.297M86.7079 26.9286H92.7851M86.7079 26.9286H80.6307M94.6987 28.8496L92.7851 26.9286M94.6987 28.8496L96.7925 30.9517M94.6987 28.8496H100.297M92.7851 26.9286H98.8623M80.6307 26.9286H74.5536M80.6307 26.9286L79.3767 25.1661M98.8623 26.9286H100.297M98.8623 26.9286L100.297 28.1886M79.3767 25.1661H73.5503M96.7925 30.9517L99.0934 33.2615M96.7925 30.9517H100.297M92.115 33.2615L94.2922 35.8116M92.115 33.2615H99.0934M92.115 33.2615H85.1366M99.0934 33.2615L100.297 34.4696M99.0934 33.2615H100.297M94.2922 35.8116H86.951M94.2922 35.8116L100.297 35.8116M86.951 35.8116H79.6098M86.951 35.8116L85.1366 33.2615M85.1366 33.2615H78.1583M55.2662 1.86521L55.2774 1.90452L55.2886 1.94397L55.2999 1.98364L55.3112 2.02351L55.3456 2.14409L55.3571 2.18467M55.2662 1.86521H57.7769M55.2662 1.86521H52.7555M57.6453 1.55691L57.5495 1.33269L57.5182 1.2592M57.6453 1.55691L57.727 1.74832L57.7769 1.86521M57.6453 1.55691H60.1121M57.5182 1.2592H59.9426M57.5182 1.2592L57.4257 1.04255L57.3954 0.971568M55.0118 0.971568L55.0018 0.936254L54.9621 0.796637L54.9327 0.693461M55.0118 0.971568H57.3954M55.0118 0.971568H52.6283M57.7769 1.86521L57.7936 1.90452L57.8105 1.94397L57.8274 1.98364L57.8445 2.02351L57.9132 2.18467M57.7769 1.86521H60.2876M60.1121 1.55691L59.9844 1.33269L59.9426 1.2592M60.1121 1.55691L60.2876 1.86521M59.9426 1.2592L59.86 1.11415L59.799 1.00699L59.7789 0.971568M57.3954 0.971568L57.3803 0.936254L57.3504 0.866191L57.3207 0.796637L57.306 0.762092L57.2766 0.693461M57.3954 0.971568H59.7789M60.2876 1.86521L60.4233 2.1037L60.4694 2.18467M62.1624 0.971568L62.0134 0.762092L61.9646 0.693461M62.1624 0.971568H59.7789M59.7789 0.971568L59.6401 0.7277L59.6206 0.693461M55.3571 2.18467H57.9132M55.3571 2.18467H52.801M58.0546 2.5159L57.9132 2.18467M58.0546 2.5159L58.2014 2.85957M58.0546 2.5159H60.6579M57.9132 2.18467H60.4694M52.801 2.18467H50.2448M52.801 2.18467L52.7555 1.86521M60.4694 2.18467L60.6579 2.5159M52.7555 1.86521H50.2448M58.2014 2.85957L58.2389 2.9475L58.2959 3.08102L58.3537 3.21639M58.2014 2.85957H60.8536M60.6579 2.5159L60.682 2.55813L60.8536 2.85957M60.8536 2.85957L60.8785 2.90343L60.9036 2.9475L60.9288 2.99182L61.0566 3.21639M55.6507 3.21639L55.7563 3.58719M55.6507 3.21639H58.3537M55.6507 3.21639H52.9478M58.3537 3.21639L58.512 3.58719M58.3537 3.21639H61.0566M61.0566 3.21639L61.2142 3.49312L61.2409 3.54005L61.2677 3.58719M55.7563 3.58719H58.512M55.7563 3.58719H53.0005M58.6766 3.97272L58.6976 4.02201L58.7188 4.0715L58.74 4.12129L58.8478 4.37391M58.6766 3.97272L58.5935 3.77803L58.5729 3.72998L58.5525 3.68212L58.512 3.58719M58.6766 3.97272H61.4871M58.512 3.58719H61.2677M53.0005 3.58719H50.2448M53.0005 3.58719L52.9478 3.21639M61.2677 3.58719L61.4871 3.97272M52.9478 3.21639H50.2448M58.8478 4.37391L59.0035 4.73857L59.0262 4.79174M58.8478 4.37391H61.7155M61.4871 3.97272L61.5434 4.0715L61.7155 4.37391M61.7155 4.37391L61.8036 4.52858L61.9534 4.79174M56.0991 4.79174L56.1604 5.00721L56.1759 5.06182L56.223 5.22728M56.0991 4.79174H59.0262M56.0991 4.79174H53.172M59.0262 4.79174L59.2121 5.22728M59.0262 4.79174H61.9534M61.9534 4.79174L62.2012 5.22728M56.223 5.22728H59.2121M56.223 5.22728H53.2339M59.4061 5.68165L59.2121 5.22728M59.4061 5.68165L59.6086 6.15608M59.4061 5.68165H62.4599M59.2121 5.22728H62.2012M53.2339 5.22728H50.2448M53.2339 5.22728L53.2182 5.11668L53.1872 4.89891L53.172 4.79174M62.2012 5.22728L62.4599 5.68165M53.172 4.79174H50.2448M59.6086 6.15608L59.7665 6.52595L59.8204 6.65201M59.6086 6.15608H62.7299M62.4599 5.68165L62.7299 6.15608M62.7299 6.15608L62.8695 6.40128L63.0122 6.65201M56.6285 6.65201L56.7762 7.17086M56.6285 6.65201H59.8204M56.6285 6.65201H53.4367M59.8204 6.65201L60.0418 7.17086M59.8204 6.65201H63.0122M63.0122 6.65201L63.3075 7.17086M56.7762 7.17086H60.0418M56.7762 7.17086H53.5105M60.2739 7.71428L60.2148 7.57605L60.0418 7.17086M60.2739 7.71428L60.5171 8.28406M60.2739 7.71428H63.6169M60.0418 7.17086H63.3075M53.5105 7.17086H50.2448M53.5105 7.17086L53.4367 6.65201M63.3075 7.17086L63.6169 7.71428M53.4367 6.65201H50.2448M60.5171 8.28406L60.7724 8.88219M60.5171 8.28406H63.9412M63.6169 7.71428L63.9412 8.28406M63.9412 8.28406L64.2816 8.88219M57.2632 8.88219L57.4421 9.51078M57.2632 8.88219H60.7724M57.2632 8.88219H53.754M60.7724 8.88219L61.0407 9.51078M60.7724 8.88219H64.2816M64.2816 8.88219L64.6394 9.51078M57.4421 9.51078H61.0407M57.4421 9.51078H53.8434M61.3232 10.1723L61.0407 9.51078M61.3232 10.1723L61.6207 10.8693M61.3232 10.1723H65.0159M61.0407 9.51078H64.6394M53.8434 9.51078H50.2448M53.8434 9.51078L53.7649 8.95906L53.754 8.88219M64.6394 9.51078L65.0159 10.1723M53.754 8.88219H50.2448M61.6207 10.8693L61.9347 11.6048M61.6207 10.8693H65.4127M65.0159 10.1723L65.3115 10.6916L65.4127 10.8693M65.4127 10.8693L65.8313 11.6048M58.0381 11.6048L58.2593 12.382M58.0381 11.6048H61.9347M58.0381 11.6048H54.1415M61.9347 11.6048L62.2665 12.382M61.9347 11.6048H65.8313M65.8313 11.6048L66.2737 12.382M58.2593 12.382H62.2665M58.2593 12.382H54.252M62.6177 13.2047L62.2665 12.382M62.6177 13.2047L62.99 14.0769M62.6177 13.2047H66.742M62.2665 12.382H66.2737M54.252 12.382H50.2448M54.252 12.382L54.1415 11.6048M66.2737 12.382L66.742 13.2047M54.1415 11.6048H50.2448M62.99 14.0769L63.3855 15.0032M62.99 14.0769H67.2384M66.742 13.2047L67.2384 14.0769M67.2384 14.0769L67.7657 15.0032M59.0053 15.0032L59.2858 15.9888M59.0053 15.0032H63.3855M59.0053 15.0032H54.625M63.3855 15.0032L63.8062 15.9888M63.3855 15.0032H67.7657M67.7657 15.0032L68.3267 15.9888M59.2858 15.9888H63.8062M59.2858 15.9888H54.7653M64.2548 17.0397L63.8062 15.9888M64.2548 17.0397L64.7341 18.1624M64.2548 17.0397H68.9248M63.8062 15.9888H68.3267M54.7653 15.9888H50.2448M54.7653 15.9888L54.625 15.0032M68.3267 15.9888L68.9248 17.0397M54.625 15.0032H50.2448M64.7341 18.1624L65.2473 19.3646M64.7341 18.1624H69.5638M68.9248 17.0397L69.5638 18.1624M69.5638 18.1624L70.2482 19.3646M60.2465 19.3646L60.6138 20.6552M60.2465 19.3646H65.2473M60.2465 19.3646H55.2457M65.2473 19.3646L65.7983 20.6552M65.2473 19.3646H70.2482M70.2482 19.3646L70.9828 20.6552M60.6138 20.6552H65.7983M60.6138 20.6552H55.4293M66.3912 22.0442L65.7983 20.6552M66.3912 22.0442L67.0312 23.5433M66.3912 22.0442H71.7734M65.7983 20.6552H70.9828M55.4293 20.6552H50.2448M55.4293 20.6552L55.2457 19.3646M70.9828 20.6552L71.7734 22.0442M55.2457 19.3646H50.2448M67.0312 23.5433L67.724 25.1661M67.0312 23.5433H72.6267M71.7734 22.0442L72.6267 23.5433M72.6267 23.5433L73.5503 25.1661M61.8976 25.1661L62.3992 26.9286M61.8976 25.1661H67.724M61.8976 25.1661H56.0712M67.724 25.1661L68.4764 26.9286M67.724 25.1661H73.5503M73.5503 25.1661L74.5536 26.9286M62.3992 26.9286H68.4764M62.3992 26.9286H56.322M69.2965 28.8496L68.4764 26.9286M69.2965 28.8496L70.1938 30.9517M69.2965 28.8496H75.647M68.4764 26.9286H74.5536M56.322 26.9286H50.2448M56.322 26.9286L56.0712 25.1661M74.5536 26.9286L75.647 28.8496M56.0712 25.1661H50.2448M70.1938 30.9517L71.1799 33.2615M70.1938 30.9517H76.8435M75.647 28.8496L76.8435 30.9517M76.8435 30.9517L78.1583 33.2615M64.2015 33.2615L64.9273 35.8116M64.2015 33.2615H71.1799M64.2015 33.2615H57.2232M71.1799 33.2615L72.2685 35.8116M71.1799 33.2615H78.1583M78.1583 33.2615L79.6098 35.8116M72.2685 35.8116H64.9273M72.2685 35.8116H79.6098M64.9273 35.8116H57.5861M57.5861 35.8116H50.2448M57.5861 35.8116L57.2232 33.2615M57.2232 33.2615H50.2448M45.2235 1.86521L45.2123 1.90452L45.2011 1.94397L45.1897 1.98364L45.1784 2.02351L45.1556 2.1037L45.1441 2.14409L45.1326 2.18467M45.2235 1.86521H47.7342M45.2235 1.86521H42.7128M47.778 1.55691L47.8204 1.2592M47.778 1.55691L47.7342 1.86521M47.778 1.55691H50.2448M47.8204 1.2592L47.8256 1.22271L47.8308 1.18637L47.8359 1.15018L47.8613 0.971568M47.8204 1.2592H50.2448M45.4778 0.971568L45.4878 0.936254L45.5275 0.796637L45.5569 0.693461M45.4778 0.971568H47.8613M45.4778 0.971568H43.0943M47.7342 1.86521L47.7285 1.90452L47.7229 1.94397L47.7173 1.98364L47.6887 2.18467M47.7342 1.86521H50.2448M50.2448 1.55691V1.2592M50.2448 1.55691V1.86521M50.2448 1.2592V0.971568M47.8613 0.971568H50.2448M47.8613 0.971568L47.8763 0.866191L47.8813 0.831337L47.9009 0.693461M50.2448 1.86521V2.18467M52.6283 0.971568L52.6134 0.866191L52.6084 0.831337L52.6035 0.796637L52.5985 0.762092L52.5937 0.7277L52.5888 0.693461M52.6283 0.971568H50.2448M50.2448 0.971568V0.693461M45.1326 2.18467H47.6887M45.1326 2.18467H42.5764M47.6416 2.5159L47.6355 2.55813L47.6295 2.6006L47.5927 2.85957M47.6416 2.5159L47.6887 2.18467M47.6416 2.5159H50.2448M47.6887 2.18467H50.2448M42.5764 2.18467H40.0203M42.5764 2.18467L42.6109 2.1037L42.6281 2.06353L42.6452 2.02351L42.6622 1.98364L42.6791 1.94397L42.696 1.90452L42.7128 1.86521M50.2448 2.18467V2.5159M42.7128 1.86521H40.2021M47.5927 2.85957L47.5419 3.21639M47.5927 2.85957H50.2448M50.2448 2.5159V2.85957M50.2448 2.85957V3.21639M44.8389 3.21639L44.7334 3.58719M44.8389 3.21639H47.5419M44.8389 3.21639H42.136M47.5419 3.21639L47.4891 3.58719M47.5419 3.21639H50.2448M50.2448 3.21639V3.58719M44.7334 3.58719H47.4891M44.7334 3.58719H41.9777M47.4343 3.97272L47.4891 3.58719M47.4343 3.97272L47.3772 4.37391M47.4343 3.97272H50.2448M47.4891 3.58719H50.2448M41.9777 3.58719H39.2219M41.9777 3.58719L42.136 3.21639M50.2448 3.58719V3.97272M42.136 3.21639H39.433M47.3772 4.37391L47.3552 4.52858L47.3328 4.68565L47.3177 4.79174M47.3772 4.37391H50.2448M50.2448 3.97272V4.37391M50.2448 4.37391V4.79174M44.3906 4.79174L44.3292 5.00721L44.3137 5.06182L44.2666 5.22728M44.3906 4.79174H47.3177M44.3906 4.79174H41.4634M47.3177 4.79174L47.3025 4.89891L47.2715 5.11668L47.2557 5.22728M47.3177 4.79174H50.2448M50.2448 4.79174V5.22728M44.2666 5.22728H47.2557M44.2666 5.22728H41.2775M47.1911 5.68165L47.1993 5.62376L47.2557 5.22728M47.1911 5.68165L47.1236 6.15608M47.1911 5.68165H50.2448M47.2557 5.22728H50.2448M41.2775 5.22728H38.2884M41.2775 5.22728L41.4634 4.79174M50.2448 5.22728V5.68165M41.4634 4.79174H38.5363M47.1236 6.15608L47.053 6.65201M47.1236 6.15608H50.2448M50.2448 5.68165V6.15608M50.2448 6.15608V6.65201M43.8611 6.65201L43.7135 7.17086M43.8611 6.65201H47.053M43.8611 6.65201H40.6693M47.053 6.65201L46.9792 7.17086M47.053 6.65201H50.2448M50.2448 6.65201V7.17086M43.7135 7.17086H46.9792M43.7135 7.17086H40.4478M46.9018 7.71428L46.9792 7.17086M46.9018 7.71428L46.8208 8.28406M46.9018 7.71428H50.2448M46.9792 7.17086H50.2448M40.4478 7.17086H37.1821M40.4478 7.17086L40.6693 6.65201M50.2448 7.17086V7.71428M40.6693 6.65201H37.4774M46.8208 8.28406L46.7356 8.88219M46.8208 8.28406H50.2448M50.2448 7.71428V8.28406M50.2448 8.28406V8.88219M43.2264 8.88219L43.0475 9.51078M43.2264 8.88219H46.7356M43.2264 8.88219H39.7173M46.7356 8.88219L46.6462 9.51078M46.7356 8.88219H50.2448M50.2448 8.88219V9.51078M43.0475 9.51078H46.6462M43.0475 9.51078H39.4489M46.552 10.1723L46.6462 9.51078M46.552 10.1723L46.4529 10.8693M46.552 10.1723H50.2448M46.6462 9.51078H50.2448M39.4489 9.51078H35.8502M39.4489 9.51078L39.7173 8.88219M50.2448 9.51078V10.1723M39.7173 8.88219H36.208M46.4529 10.8693L46.3482 11.6048M46.4529 10.8693H50.2448M50.2448 10.1723V10.8693M50.2448 10.8693V11.6048M42.4516 11.6048L42.2304 12.382M42.4516 11.6048H46.3482M42.4516 11.6048H38.555M46.3482 11.6048L46.2376 12.382M46.3482 11.6048H50.2448M50.2448 11.6048V12.382M42.2304 12.382H46.2376M42.2304 12.382H38.2232M46.1206 13.2047L46.2376 12.382M46.1206 13.2047L45.9964 14.0769M46.1206 13.2047H50.2448M46.2376 12.382H50.2448M38.2232 12.382H34.2159M38.2232 12.382L38.555 11.6048M50.2448 12.382V13.2047M38.555 11.6048H34.6583M45.9964 14.0769L45.8646 15.0032M45.9964 14.0769H50.2448M50.2448 13.2047V14.0769M50.2448 14.0769V15.0032M41.4844 15.0032L41.2039 15.9888M41.4844 15.0032H45.8646M41.4844 15.0032H37.1042M45.8646 15.0032L45.7244 15.9888M45.8646 15.0032H50.2448M50.2448 15.0032V15.9888M41.2039 15.9888H45.7244M41.2039 15.9888H36.6834M45.5748 17.0397L45.7244 15.9888M45.5748 17.0397L45.4151 18.1624M45.5748 17.0397H50.2448M45.7244 15.9888H50.2448M36.6834 15.9888H32.163M36.6834 15.9888L37.1042 15.0032M50.2448 15.9888V17.0397M37.1042 15.0032H32.724M45.4151 18.1624L45.244 19.3646M45.4151 18.1624H50.2448M50.2448 17.0397V18.1624M50.2448 18.1624V19.3646M40.2432 19.3646L39.8759 20.6552M40.2432 19.3646H45.244M40.2432 19.3646H35.2423M45.244 19.3646L45.0603 20.6552M45.244 19.3646H50.2448M50.2448 19.3646V20.6552M39.8759 20.6552H45.0603M39.8759 20.6552H34.6914M44.8627 22.0442L45.0603 20.6552M44.8627 22.0442L44.6494 23.5433M44.8627 22.0442H50.2448M45.0603 20.6552H50.2448M34.6914 20.6552H29.5069M34.6914 20.6552L35.2423 19.3646M50.2448 20.6552V22.0442M35.2423 19.3646H30.2414M44.6494 23.5433L44.4184 25.1661M44.6494 23.5433H50.2448M50.2448 22.0442V23.5433M50.2448 23.5433V25.1661M38.5921 25.1661L38.0905 26.9286M38.5921 25.1661H44.4184M38.5921 25.1661H32.7657M44.4184 25.1661L44.1676 26.9286M44.4184 25.1661H50.2448M50.2448 25.1661V26.9286M38.0905 26.9286H44.1676M38.0905 26.9286H32.0133M43.8943 28.8496L44.1676 26.9286M43.8943 28.8496L43.5952 30.9517M43.8943 28.8496H50.2448M44.1676 26.9286H50.2448M32.0133 26.9286H25.9361M32.0133 26.9286L32.7657 25.1661M50.2448 26.9286V28.8496M32.7657 25.1661H26.9393M43.5952 30.9517L43.2665 33.2615M43.5952 30.9517H50.2448M50.2448 28.8496V30.9517M50.2448 30.9517V33.2615M36.2881 33.2615L35.5624 35.8116M36.2881 33.2615H43.2665M36.2881 33.2615H29.3098M43.2665 33.2615L42.9036 35.8116M43.2665 33.2615H50.2448M50.2448 33.2615V35.8116M42.9036 35.8116H35.5624M42.9036 35.8116H50.2448M35.5624 35.8116H28.2211M28.2211 35.8116H20.8799M28.2211 35.8116L29.3098 33.2615M29.3098 33.2615H22.3314M35.1807 1.86521L35.0456 2.02351L34.908 2.18467M35.1807 1.86521H37.6914M35.1807 1.86521H32.6701M37.9107 1.55691L38.1226 1.2592M37.9107 1.55691L37.6914 1.86521M37.9107 1.55691H40.3776M38.1226 1.2592H40.547M38.1226 1.2592L38.2767 1.04255L38.3272 0.971568M35.9437 0.971568H38.3272M35.9437 0.971568L36.0337 0.866191L36.1811 0.693461M35.9437 0.971568H33.5602M37.6914 1.86521L37.4641 2.18467M37.6914 1.86521H40.2021M40.3776 1.55691L40.547 1.2592M40.3776 1.55691L40.2021 1.86521M40.547 1.2592L40.6296 1.11415L40.6906 1.00699L40.7107 0.971568M38.3272 0.971568H40.7107M38.3272 0.971568L38.4762 0.762092L38.5251 0.693461M40.2021 1.86521L40.0663 2.1037L40.0203 2.18467M43.0943 0.971568L43.1093 0.936254L43.1392 0.866191L43.1837 0.762092L43.213 0.693461M43.0943 0.971568H40.7107M40.7107 0.971568L40.7308 0.936254L40.7707 0.866191L40.869 0.693461M34.908 2.18467H37.4641M34.908 2.18467H32.3518M37.2284 2.5159L37.2584 2.47383L37.2882 2.43192L37.406 2.2663L37.4641 2.18467M37.2284 2.5159L37.0459 2.77241L36.9839 2.85957M37.2284 2.5159H39.8317M37.4641 2.18467H40.0203M32.3518 2.18467H29.7957M32.3518 2.18467L32.5915 1.94397L32.6701 1.86521M40.0203 2.18467L39.8317 2.5159M32.6701 1.86521H30.1593M36.9839 2.85957L36.9527 2.90343L36.9213 2.9475L36.8264 3.08102L36.7944 3.12591L36.73 3.21639M36.9839 2.85957H39.6361M39.8317 2.5159L39.8077 2.55813L39.6361 2.85957M39.6361 2.85957L39.6112 2.90343L39.586 2.9475L39.5608 2.99182L39.433 3.21639M34.0271 3.21639L33.7105 3.58719M34.0271 3.21639H36.73M34.0271 3.21639H31.3241M36.73 3.21639L36.4662 3.58719M36.73 3.21639H39.433M39.433 3.21639L39.2219 3.58719M33.7105 3.58719H36.4662M33.7105 3.58719H30.9548M36.1919 3.97272L36.4662 3.58719M36.1919 3.97272L35.9065 4.37391M36.1919 3.97272H39.0025M36.4662 3.58719H39.2219M30.9548 3.58719H28.1991M30.9548 3.58719L31.3241 3.21639M39.2219 3.58719L39.0025 3.97272M31.3241 3.21639H28.6211M35.9065 4.37391L35.6092 4.79174M35.9065 4.37391H38.7741M39.0025 3.97272L38.9462 4.0715L38.7741 4.37391M38.7741 4.37391L38.6861 4.52858L38.5967 4.68565L38.5363 4.79174M32.682 4.79174L32.4981 5.00721L32.3102 5.22728M32.682 4.79174H35.6092M32.682 4.79174H29.7549M35.6092 4.79174L35.2993 5.22728M35.6092 4.79174H38.5363M38.5363 4.79174L38.2884 5.22728M32.3102 5.22728H35.2993M32.3102 5.22728H29.3211M34.976 5.68165L35.2993 5.22728M34.976 5.68165L34.6385 6.15608M34.976 5.68165H38.0298M35.2993 5.22728H38.2884M29.3211 5.22728H26.332M29.3211 5.22728L29.7549 4.79174M38.2884 5.22728L38.0298 5.68165M29.7549 4.79174H26.8278M34.6385 6.15608L34.5517 6.27799L34.2856 6.65201M34.6385 6.15608H37.7597M38.0298 5.68165L37.7597 6.15608M37.7597 6.15608L37.7251 6.21688L37.6202 6.40128L37.4774 6.65201M31.0938 6.65201L30.6508 7.17086M31.0938 6.65201H34.2856M31.0938 6.65201H27.9019M34.2856 6.65201L33.9165 7.17086M34.2856 6.65201H37.4774M37.4774 6.65201L37.1821 7.17086M30.6508 7.17086H33.9165M30.6508 7.17086H27.3851M33.5298 7.71428L33.7736 7.37169L33.9165 7.17086M33.5298 7.71428L33.1244 8.28406M33.5298 7.71428H36.8728M33.9165 7.17086H37.1821M27.3851 7.17086H24.1194M27.3851 7.17086L27.9019 6.65201M37.1821 7.17086L36.8728 7.71428M27.9019 6.65201H24.7101M33.1244 8.28406L32.6988 8.88219M33.1244 8.28406H36.5485M36.8728 7.71428L36.5485 8.28406M36.5485 8.28406L36.208 8.88219M29.1896 8.88219L28.6529 9.51078M29.1896 8.88219H32.6988M29.1896 8.88219H25.6805M32.6988 8.88219L32.2516 9.51078M32.6988 8.88219H36.208M36.208 8.88219L35.8502 9.51078M28.6529 9.51078H32.2516M28.6529 9.51078H25.0543M31.781 10.1723L32.2516 9.51078M31.781 10.1723L31.285 10.8693M31.781 10.1723H35.4737M32.2516 9.51078H35.8502M25.0543 9.51078H21.4557M25.0543 9.51078L25.6805 8.88219M35.8502 9.51078L35.4737 10.1723M25.6805 8.88219H22.1713M31.285 10.8693L30.7617 11.6048M31.285 10.8693H35.077M35.4737 10.1723L35.077 10.8693M35.077 10.8693L34.6583 11.6048M26.8651 11.6048L26.2015 12.382M26.8651 11.6048H30.7617M26.8651 11.6048H22.9684M30.7617 11.6048L30.2087 12.382M30.7617 11.6048H34.6583M34.6583 11.6048L34.2159 12.382M26.2015 12.382H30.2087M26.2015 12.382H22.1943M29.6234 13.2047L30.2087 12.382M29.6234 13.2047L29.0028 14.0769M29.6234 13.2047H33.7477M30.2087 12.382H34.2159M22.1943 12.382H18.187M22.1943 12.382L22.9684 11.6048M34.2159 12.382L33.7477 13.2047M22.9684 11.6048H19.0719M29.0028 14.0769L28.3438 15.0032M29.0028 14.0769H33.2512M33.7477 13.2047L33.2512 14.0769M33.2512 14.0769L32.724 15.0032M23.9635 15.0032L23.122 15.9888M23.9635 15.0032H28.3438M23.9635 15.0032H19.5833M28.3438 15.0032L27.6425 15.9888M28.3438 15.0032H32.724M32.724 15.0032L32.163 15.9888M23.122 15.9888H27.6425M23.122 15.9888H18.6016M26.8949 17.0397L27.6425 15.9888M26.8949 17.0397L26.096 18.1624M26.8949 17.0397H31.5648M27.6425 15.9888H32.163M18.6016 15.9888H14.0811M18.6016 15.9888L19.5833 15.0032M32.163 15.9888L31.5648 17.0397M19.5833 15.0032H15.2031M26.096 18.1624L25.2406 19.3646M26.096 18.1624H30.9258M31.5648 17.0397L30.9258 18.1624M30.9258 18.1624L30.2414 19.3646M20.2398 19.3646L19.1379 20.6552M20.2398 19.3646H25.2406M20.2398 19.3646H15.2389M25.2406 19.3646L24.3224 20.6552M25.2406 19.3646H30.2414M30.2414 19.3646L29.5069 20.6552M19.1379 20.6552H24.3224M19.1379 20.6552H13.9534M23.3341 22.0442L24.3224 20.6552M23.3341 22.0442L22.2676 23.5433M23.3341 22.0442H28.7163M24.3224 20.6552H29.5069M13.9534 20.6552H8.76894M13.9534 20.6552L15.2389 19.3646M29.5069 20.6552L28.7163 22.0442M15.2389 19.3646H10.2381M22.2676 23.5433L21.1129 25.1661M22.2676 23.5433H27.863M28.7163 22.0442L27.863 23.5433M27.863 23.5433L26.9393 25.1661M15.2866 25.1661L13.7817 26.9286M15.2866 25.1661H21.1129M15.2866 25.1661H9.46018M21.1129 25.1661L19.8589 26.9286M21.1129 25.1661H26.9393M26.9393 25.1661L25.9361 26.9286M13.7817 26.9286H19.8589M13.7817 26.9286H7.70456M18.4921 28.8496L19.8589 26.9286M18.4921 28.8496L16.9965 30.9517M18.4921 28.8496H24.8426M19.8589 26.9286H25.9361M7.70456 26.9286H1.62737M7.70456 26.9286L9.46018 25.1661M25.9361 26.9286L24.8426 28.8496M9.46018 25.1661H3.63383M16.9965 30.9517L15.3531 33.2615M16.9965 30.9517H23.6462M24.8426 28.8496L23.6462 30.9517M23.6462 30.9517L22.3314 33.2615M8.37468 33.2615L6.19742 35.8116M8.37468 33.2615H15.3531M8.37468 33.2615H1.3963M15.3531 33.2615L13.5387 35.8116M15.3531 33.2615H22.3314M22.3314 33.2615L20.8799 35.8116M13.5387 35.8116H6.19742M13.5387 35.8116H20.8799M6.19742 35.8116L0.192971 35.8116M1.3963 33.2615L0.192971 34.4696M1.3963 33.2615H0.192971M25.138 1.86521L24.6834 2.18467M25.138 1.86521H27.6487M25.138 1.86521H22.6273M28.0435 1.55691L28.4248 1.2592M28.0435 1.55691L27.6487 1.86521M28.0435 1.55691H30.5103M28.4248 1.2592H30.8492M28.4248 1.2592L28.7932 0.971568M26.4096 0.971568H28.7932M26.4096 0.971568L26.5596 0.866191L26.8054 0.693461M26.4096 0.971568H24.0261M27.6487 1.86521L27.2395 2.18467M27.6487 1.86521H30.1593M30.5103 1.55691L30.8492 1.2592M30.5103 1.55691L30.1593 1.86521M30.8492 1.2592L31.0959 1.04255L31.1767 0.971568M28.7932 0.971568L28.8383 0.936254L29.1493 0.693461M28.7932 0.971568H31.1767M30.1593 1.86521L29.7957 2.18467M33.5602 0.971568L33.8372 0.693461M33.5602 0.971568H31.1767M31.1767 0.971568L31.2967 0.866191L31.4933 0.693461M24.6834 2.18467H27.2395M24.6834 2.18467H22.1273M26.8153 2.5159L27.2395 2.18467M26.8153 2.5159L26.3752 2.85957M26.8153 2.5159H29.4186M27.2395 2.18467H29.7957M22.1273 2.18467H19.5711M22.1273 2.18467L22.6273 1.86521M29.7957 2.18467L29.4186 2.5159M22.6273 1.86521H20.1166M26.3752 2.85957L26.2625 2.9475L25.9182 3.21639M26.3752 2.85957H29.0274M29.4186 2.5159L29.0274 2.85957M29.0274 2.85957L28.6211 3.21639M23.2152 3.21639L23.1504 3.26199L22.6876 3.58719M23.2152 3.21639H25.9182M23.2152 3.21639H20.5123M25.9182 3.21639L25.4433 3.58719M25.9182 3.21639H28.6211M28.6211 3.21639L28.5693 3.26199L28.1991 3.58719M22.6876 3.58719H25.4433M22.6876 3.58719H19.9319M24.9496 3.97272L25.4433 3.58719M24.9496 3.97272L24.4358 4.37391M24.9496 3.97272H27.7602M25.4433 3.58719H28.1991M19.9319 3.58719H17.1762M19.9319 3.58719L20.5123 3.21639M28.1991 3.58719L27.7602 3.97272M20.5123 3.21639H17.8093M24.4358 4.37391L23.9007 4.79174M24.4358 4.37391H27.3035M27.7602 3.97272L27.3035 4.37391M27.3035 4.37391L26.8278 4.79174M20.9736 4.79174L20.3538 5.22728M20.9736 4.79174H23.9007M20.9736 4.79174H18.0464M23.9007 4.79174L23.3429 5.22728M23.9007 4.79174H26.8278M26.8278 4.79174L26.332 5.22728M20.3538 5.22728H23.3429M20.3538 5.22728H17.3647M22.761 5.68165L23.3429 5.22728M22.761 5.68165L22.1533 6.15608M22.761 5.68165H25.8147M23.3429 5.22728H26.332M17.3647 5.22728H14.3756M17.3647 5.22728L18.0464 4.79174M26.332 5.22728L25.8147 5.68165M18.0464 4.79174H15.1193M22.1533 6.15608L21.5182 6.65201M22.1533 6.15608H25.2746M25.8147 5.68165L25.2746 6.15608M25.2746 6.15608L24.7101 6.65201M18.3264 6.65201L17.5881 7.17086M18.3264 6.65201H21.5182M18.3264 6.65201H15.1345M21.5182 6.65201L20.8538 7.17086M21.5182 6.65201H24.7101M24.7101 6.65201L24.1194 7.17086M17.5881 7.17086H20.8538M17.5881 7.17086H14.3224M20.1578 7.71428L20.8538 7.17086M20.1578 7.71428L19.4281 8.28406M20.1578 7.71428H23.5008M20.8538 7.17086H24.1194M14.3224 7.17086H11.0567M14.3224 7.17086L15.1345 6.65201M24.1194 7.17086L23.5008 7.71428M15.1345 6.65201H11.9427M19.4281 8.28406L18.6621 8.88219M19.4281 8.28406H22.8521M23.5008 7.71428L22.8521 8.28406M22.8521 8.28406L22.1713 8.88219M15.1528 8.88219L14.2584 9.51078M15.1528 8.88219H18.6621M15.1528 8.88219H11.6437M18.6621 8.88219L17.857 9.51078M18.6621 8.88219H22.1713M22.1713 8.88219L21.4557 9.51078M14.2584 9.51078H17.857M14.2584 9.51078H10.6597M17.0098 10.1723L17.857 9.51078M17.0098 10.1723L16.1172 10.8693M17.0098 10.1723H20.7026M17.857 9.51078H21.4557M10.6597 9.51078H7.06108M10.6597 9.51078L11.6437 8.88219M21.4557 9.51078L20.7026 10.1723M11.6437 8.88219H8.13448M16.1172 10.8693L15.1752 11.6048M16.1172 10.8693H19.9091M20.7026 10.1723L19.9091 10.8693M19.9091 10.8693L19.0719 11.6048M11.2786 11.6048L10.1726 12.382M11.2786 11.6048H15.1752M11.2786 11.6048H7.38198M15.1752 11.6048L14.1798 12.382M15.1752 11.6048H19.0719M19.0719 11.6048L18.187 12.382M10.1726 12.382H14.1798M10.1726 12.382H6.16536M13.1262 13.2047L14.1798 12.382M13.1262 13.2047L12.0092 14.0769M13.1262 13.2047H17.2505M14.1798 12.382H18.187M6.16536 12.382H2.15813M6.16536 12.382L7.38198 11.6048M18.187 12.382L17.2505 13.2047M7.38198 11.6048H3.48534M12.0092 14.0769L10.8229 15.0032M12.0092 14.0769H16.2576M17.2505 13.2047L16.2576 14.0769M16.2576 14.0769L15.2031 15.0032M6.44268 15.0032L5.04018 15.9888M6.44268 15.0032H10.8229M6.44268 15.0032H2.06246M10.8229 15.0032L9.56065 15.9888M10.8229 15.0032H15.2031M15.2031 15.0032L14.0811 15.9888M5.04018 15.9888H9.56065M5.04018 15.9888H0.519716M8.21482 17.0397L9.56065 15.9888M8.21482 17.0397L6.77698 18.1624M8.21482 17.0397H12.8848M9.56065 15.9888H14.0811M0.519716 15.9888L2.06246 15.0032M0.519716 15.9888H0.192971M0.519716 15.9888L0.192971 16.1976M14.0811 15.9888L12.8848 17.0397M2.06246 15.0032H0.192971M6.77698 18.1624L5.23726 19.3646M6.77698 18.1624H11.6067M12.8848 17.0397L11.6067 18.1624M11.6067 18.1624L10.2381 19.3646M0.236401 19.3646H5.23726M0.236401 19.3646H0.192971M0.236401 19.3646L0.192971 19.3951M5.23726 19.3646L3.5844 20.6552M5.23726 19.3646H10.2381M10.2381 19.3646L8.76894 20.6552M1.80558 22.0442L3.5844 20.6552M1.80558 22.0442H7.18772M1.80558 22.0442H0.192971M1.80558 22.0442L0.192971 23.3033M3.5844 20.6552H8.76894M3.5844 20.6552H0.192971M8.76894 20.6552L7.18772 22.0442M7.18772 22.0442L5.48121 23.5433M5.48121 23.5433L3.63383 25.1661M5.48121 23.5433H0.192971M3.63383 25.1661L1.62737 26.9286M3.63383 25.1661H0.192971M1.62737 26.9286H0.192971M1.62737 26.9286L0.192971 28.1886M15.0952 1.86521L14.4588 2.18467M15.0952 1.86521H17.606M15.0952 1.86521H12.5846M18.1762 1.55691L18.727 1.2592M18.1762 1.55691L17.606 1.86521M18.1762 1.55691H20.6431M18.727 1.2592H21.1514M18.727 1.2592L19.2591 0.971568M16.8756 0.971568H19.2591M16.8756 0.971568L17.4296 0.693461M16.8756 0.971568H14.4921M17.606 1.86521L17.015 2.18467M17.606 1.86521H20.1166M20.6431 1.55691L21.1514 1.2592M20.6431 1.55691L20.1166 1.86521M21.1514 1.2592L21.6426 0.971568M19.2591 0.971568L19.3243 0.936254L19.7735 0.693461M19.2591 0.971568H21.6426M20.1166 1.86521L19.5711 2.18467M24.0261 0.971568L24.4614 0.693461M24.0261 0.971568H21.6426M21.6426 0.971568L21.7028 0.936254L22.1175 0.693461M14.4588 2.18467H17.015M14.4588 2.18467H11.9027M16.4022 2.5159L17.015 2.18467M16.4022 2.5159L15.7664 2.85957M16.4022 2.5159H19.0055M17.015 2.18467H19.5711M11.9027 2.18467H9.34657M11.9027 2.18467L12.5846 1.86521M19.5711 2.18467L19.0055 2.5159M12.5846 1.86521H10.0739M15.7664 2.85957L15.1063 3.21639M15.7664 2.85957H18.4186M19.0055 2.5159L18.9333 2.55813L18.4186 2.85957M18.4186 2.85957L17.8093 3.21639M12.4034 3.21639L11.6648 3.58719M12.4034 3.21639H15.1063M12.4034 3.21639H9.70043M15.1063 3.21639L14.4205 3.58719M15.1063 3.21639H17.8093M17.8093 3.21639L17.1762 3.58719M11.6648 3.58719H14.4205M11.6648 3.58719H8.90903M13.7073 3.97272L14.4205 3.58719M13.7073 3.97272L12.9651 4.37391M13.7073 3.97272H16.5179M14.4205 3.58719H17.1762M8.90903 3.58719H6.15331M8.90903 3.58719L9.70043 3.21639M17.1762 3.58719L16.5179 3.97272M9.70043 3.21639H6.99747M12.9651 4.37391L12.1922 4.79174M12.9651 4.37391H15.8328M16.5179 3.97272L15.8328 4.37391M15.8328 4.37391L15.1193 4.79174M9.26503 4.79174L8.39736 5.22728M9.26503 4.79174H12.1922M9.26503 4.79174H6.33788M12.1922 4.79174L11.3865 5.22728M12.1922 4.79174H15.1193M15.1193 4.79174L14.3756 5.22728M8.39736 5.22728H11.3865M8.39736 5.22728H5.40827M10.5459 5.68165L11.3865 5.22728M10.5459 5.68165L9.66826 6.15608M10.5459 5.68165H13.5997M11.3865 5.22728H14.3756M5.40827 5.22728H2.41918M5.40827 5.22728L6.33788 4.79174M14.3756 5.22728L13.5997 5.68165M6.33788 4.79174H3.41078M9.66826 6.15608L8.75085 6.65201M9.66826 6.15608H12.7895M13.5997 5.68165L12.7895 6.15608M12.7895 6.15608L11.9427 6.65201M5.559 6.65201L4.52538 7.17086M5.559 6.65201H8.75085M5.559 6.65201H2.3672M8.75085 6.65201L7.79105 7.17086M8.75085 6.65201H11.9427M11.9427 6.65201L11.0567 7.17086M4.52538 7.17086H7.79105M6.78574 7.71428L7.79105 7.17086M6.78574 7.71428L5.73173 8.28406M6.78574 7.71428H10.1288M7.79105 7.17086H11.0567M11.0567 7.17086L10.1288 7.71428M2.3672 6.65201H0.192971M5.73173 8.28406L4.62527 8.88219M5.73173 8.28406H9.1558M10.1288 7.71428L9.1558 8.28406M9.1558 8.28406L8.13448 8.88219M1.11606 8.88219H4.62527M1.11606 8.88219H0.192971M1.11606 8.88219L0.192971 9.34553M4.62527 8.88219L3.4624 9.51078M4.62527 8.88219H8.13448M8.13448 8.88219L7.06108 9.51078M2.23874 10.1723L3.4624 9.51078M2.23874 10.1723L0.949327 10.8693M2.23874 10.1723H5.93152M2.23874 10.1723H0.192971M3.4624 9.51078H7.06108M3.4624 9.51078H0.192971M7.06108 9.51078L5.93152 10.1723M0.182804 9.35064L0.192971 9.34553M0.949327 10.8693H4.74128M0.949327 10.8693H0.192971M0.949327 10.8693L0.192971 11.2782M5.93152 10.1723L4.74128 10.8693M4.74128 10.8693L3.48534 11.6048M3.48534 11.6048L2.15813 12.382M3.48534 11.6048H0.192971M0.753343 13.2047L2.15813 12.382M0.753343 13.2047H0.192971M0.753343 13.2047L0.192971 13.5329M2.15813 12.382H0.192971M5.05254 1.86521L4.23429 2.18467M5.05254 1.86521H7.56321M5.05254 1.86521H2.54181M8.30898 1.55691L9.02916 1.2592M8.30898 1.55691L7.56321 1.86521M8.30898 1.55691H10.7758M9.02916 1.2592H11.4536M9.02916 1.2592L9.72498 0.971568M7.34147 0.971568H9.72498M7.34147 0.971568L8.05377 0.693461M7.34147 0.971568H4.95796M7.56321 1.86521L6.79043 2.18467M7.56321 1.86521H10.0739M10.7758 1.55691L11.4536 1.2592M10.7758 1.55691L10.0739 1.86521M11.4536 1.2592L12.1085 0.971568M9.72498 0.971568H12.1085M9.72498 0.971568L10.3978 0.693461M10.0739 1.86521L9.34657 2.18467M14.4921 0.971568L15.0856 0.693461M14.4921 0.971568H12.1085M12.1085 0.971568L12.7417 0.693461M4.23429 2.18467H6.79043M4.23429 2.18467H1.67816M5.98913 2.5159L6.79043 2.18467M5.98913 2.5159L5.15775 2.85957M5.98913 2.5159H8.5924M6.79043 2.18467H9.34657M1.67816 2.18467L2.54181 1.86521M1.67816 2.18467H0.192971M9.34657 2.18467L8.5924 2.5159M2.54181 1.86521H0.192971M5.15775 2.85957L4.29451 3.21639M5.15775 2.85957H7.80993M8.5924 2.5159L7.80993 2.85957M7.80993 2.85957L6.99747 3.21639M1.59156 3.21639L0.641873 3.58719M1.59156 3.21639H4.29451M1.59156 3.21639H0.192971M4.29451 3.21639L3.39759 3.58719M4.29451 3.21639H6.99747M6.99747 3.21639L6.15331 3.58719M2.46496 3.97272L3.39759 3.58719M2.46496 3.97272L1.49442 4.37391M2.46496 3.97272H5.27553M2.46496 3.97272H0.192971M3.39759 3.58719H0.641873M3.39759 3.58719H6.15331M0.641873 3.58719L0.192971 3.76242M0.641873 3.58719H0.192971M6.15331 3.58719L5.27553 3.97272M1.49442 4.37391L0.483637 4.79174M1.49442 4.37391H4.36208M1.49442 4.37391H0.192971M5.27553 3.97272L4.36208 4.37391M4.36208 4.37391L3.41078 4.79174M0.483637 4.79174H3.41078M0.483637 4.79174L0.192971 4.91188M0.483637 4.79174H0.192971M3.41078 4.79174L2.41918 5.22728M1.38467 5.68165L2.41918 5.22728M1.38467 5.68165L0.304441 6.15608M1.38467 5.68165H0.192971M2.41918 5.22728H0.192971M0.17733 5.22728H0.192971M0.304441 6.15608H0.192971M0.304441 6.15608L0.192971 6.20504M0.166016 6.21688L0.192971 6.20504M0.908556 1.55691L1.75579 1.2592M0.908556 1.55691H0.192971M0.908556 1.55691L0.192971 1.80833M1.75579 1.2592L2.57445 0.971568M1.75579 1.2592H0.192971M4.95796 0.971568L5.70983 0.693461M4.95796 0.971568H2.57445M2.57445 0.971568L3.36589 0.693461M2.57445 0.971568H0.192971M83.0601 0.693461H85.404M83.0601 0.693461H80.7161M84.8298 0.424462L84.9716 0.490893L85.404 0.693461M84.8298 0.424462H87.1355M85.404 0.693461H87.7479M87.1355 0.424462L87.2867 0.490893L87.3628 0.524262L87.7479 0.693461M87.7479 0.693461H90.0919M90.0919 0.693461H92.4359M80.7161 0.693461H78.3722M92.4359 0.693461H94.7798M94.7798 0.693461L94.0524 0.424462M94.7798 0.693461H97.1238M94.0524 0.424462H96.3581M73.6843 0.693461H76.0283M73.6843 0.693461H71.3403M75.6071 0.424462L75.7111 0.490893L75.7634 0.524262L76.0283 0.693461M75.6071 0.424462H77.9128M76.0283 0.693461H78.3722M77.9128 0.424462L78.3722 0.693461M71.3403 0.693461H68.9964M64.3085 0.693461H66.6524M64.3085 0.693461H61.9646M66.3845 0.424462L66.4175 0.457575L66.4506 0.490893L66.4839 0.524262L66.6524 0.693461M66.3845 0.424462H68.6901M66.6524 0.693461H68.9964M68.6901 0.424462L68.9964 0.693461M61.9646 0.693461H59.6206M54.9327 0.693461H57.2766M54.9327 0.693461H52.5888M57.1618 0.424462L57.2766 0.693461M57.1618 0.424462H59.4675M57.2766 0.693461H59.6206M59.4675 0.424462L59.4864 0.457575L59.5053 0.490893L59.5243 0.524262L59.6206 0.693461M52.5888 0.693461H50.2448M45.5569 0.693461H47.9009M45.5569 0.693461H43.213M47.9392 0.424462L47.9009 0.693461M47.9392 0.424462H50.2448M47.9009 0.693461H50.2448M50.2448 0.424462V0.693461M43.213 0.693461H40.869M36.1811 0.693461H38.5251M36.1811 0.693461H33.8372M38.7165 0.424462L38.6692 0.490893L38.5735 0.625341L38.5251 0.693461M38.7165 0.424462H41.0221M38.5251 0.693461H40.869M41.0221 0.424462L41.0033 0.457575L40.9843 0.490893L40.9653 0.524262L40.869 0.693461M33.8372 0.693461H31.4933M26.8054 0.693461H29.1493M26.8054 0.693461H24.4614M29.4938 0.424462L29.4088 0.490893L29.366 0.524262L29.1493 0.693461M29.4938 0.424462H31.7995M29.1493 0.693461H31.4933M31.7995 0.424462L31.7618 0.457575L31.4933 0.693461M24.4614 0.693461H22.1175M17.4296 0.693461H19.7735M17.4296 0.693461H15.0856M20.2712 0.424462L20.1483 0.490893L20.0864 0.524262L19.7735 0.693461M20.2712 0.424462H22.5768M19.7735 0.693461H22.1175M22.5768 0.424462L22.5202 0.457575L22.1175 0.693461M15.0856 0.693461H12.7417M8.05377 0.693461H10.3978M8.05377 0.693461H5.70983M11.0485 0.424462L10.3978 0.693461M11.0485 0.424462H13.3542M10.3978 0.693461H12.7417M13.3542 0.424462L13.203 0.490893L13.1268 0.524262L12.7417 0.693461M5.70983 0.693461H3.36589M1.82586 0.424462L1.02195 0.693461M1.82586 0.424462H4.13153M1.82586 0.424462H0.192971M1.02195 0.693461H3.36589M1.02195 0.693461L0.192971 0.970888M1.02195 0.693461H0.192971M4.13153 0.424462L3.94248 0.490893L3.36589 0.693461M96.3581 0.424462L96.5472 0.490893L97.1238 0.693461M97.1238 0.693461H99.4677M99.4677 0.693461L100.297 0.970889M99.4677 0.693461H100.297M100.297 13.5329V13.2047M100.297 13.5329V14.0769M100.297 13.2047V12.382M100.297 14.0769V14.2395V15.0032M100.297 15.0032V15.9888M100.297 7.17086V6.65201M100.297 7.17086V7.67061M100.297 0.424462V0.693461M100.297 0.693461V0.970889M100.297 0.970889L100.299 0.971568H100.297M100.297 0.970889V0.971568M100.297 0.971568V1.2592M100.297 1.2592V1.55691M100.297 1.55691V1.80833M100.297 1.80833V1.86521M100.297 1.86521V2.18467M100.297 2.18467V2.5159M100.297 2.5159V2.73393M100.297 2.73393V2.85957M100.297 2.85957V3.21639M100.297 3.21639V3.58719M100.297 3.58719V3.76242M100.297 3.76242V3.97272M100.297 3.97272V4.37391M100.297 4.37391V4.79174M100.297 4.79174V4.91188M100.297 4.91188V5.22728M100.297 5.22728V5.68165M100.297 5.68165V6.15608M100.297 6.15608V6.20504M100.297 6.20504V6.65201M100.297 7.71428V8.28406M100.297 7.71428V7.67061M100.297 8.28406V8.88219M100.297 8.88219V9.34554M100.297 9.34554V9.51078M100.297 9.51078V10.1723M100.297 10.1723V10.8693M100.297 10.8693V11.2782M100.297 11.2782V11.6048M100.297 11.6048V12.382M100.297 15.9888V16.1976M100.297 16.1976V17.0397M100.297 17.0397V18.1624M100.297 18.1624V19.3646M100.297 19.3646V19.3951M100.297 19.3951V20.6552M100.297 20.6552V22.0442M100.297 22.0442V23.3034M100.297 23.3034V23.5433M100.297 23.5433V25.1661M100.297 25.1661V26.9286M100.297 26.9286V28.1886M100.297 28.1886V28.8496M100.297 28.8496V30.9517M100.297 30.9517V33.2615M100.297 33.2615V34.4696M100.297 34.4696V35.8116M100.297 35.8116V35.8207H0.192971V35.8116M0.192971 7.71428V8.28406M0.192971 7.71428V7.67061M0.192971 7.67061V7.17086M0.192971 7.17086V6.65201M0.192971 6.65201V6.20504M0.192971 6.20504V6.15608M0.192971 6.15608V5.68165M0.192971 5.68165V5.22728M0.192971 5.22728V4.91188M0.192971 4.91188V4.79174M0.192971 4.79174V4.37391M0.192971 4.37391V3.97272M0.192971 3.97272V3.76242M0.192971 3.76242V3.58719M0.192971 3.58719V3.21639M0.192971 3.21639V2.85957M0.192971 2.85957V2.73393M0.192971 2.73393V2.5159M0.192971 2.5159V2.18467M0.192971 2.18467V1.86521M0.192971 1.86521V1.80833M0.192971 1.80833V1.55691M0.192971 1.55691V1.2592M0.192971 1.2592V0.971568M0.192971 0.971568H0.190938L0.192971 0.970888M0.192971 0.971568V0.970888M0.192971 0.970888V0.693461M0.192971 0.693461V0.424462M0.192971 35.8116V34.4696M0.192971 34.4696V33.2615M0.192971 33.2615V30.9517M0.192971 30.9517V28.8496M0.192971 28.8496V28.1886M0.192971 28.1886V26.9286M0.192971 26.9286V25.1661M0.192971 25.1661V23.5433M0.192971 23.5433V23.3033M0.192971 23.3033V22.0442M0.192971 22.0442V20.6552M0.192971 20.6552V19.3951M0.192971 19.3951V19.3646M0.192971 19.3646V18.1624M0.192971 18.1624V17.0397M0.192971 17.0397V16.1976M0.192971 16.1976V15.9888M0.192971 15.9888V15.0032M0.192971 15.0032V14.0769M0.192971 14.0769V13.5329M0.192971 13.5329V13.2047M0.192971 13.2047V12.382M0.192971 12.382V11.6048M0.192971 11.6048V11.2782M0.192971 11.2782V10.8693M0.192971 10.8693V10.1723M0.192971 10.1723V9.51078M0.192971 9.51078V9.34553M0.192971 9.34553V8.88219M0.192971 8.88219V8.28406" stroke="url(#paint0_radial_3928_29521)" stroke-width="0.332308" stroke-miterlimit="10" stroke-linecap="round" stroke-linejoin="round"/>
<defs>
<radialGradient id="paint0_radial_3928_29521" cx="0" cy="0" r="1" gradientUnits="userSpaceOnUse" gradientTransform="translate(50.2448 17.9924) rotate(90) scale(14.472 43.9104)">
<stop offset="0.183758" stop-color="#3BF5FF"/>
<stop offset="1" stop-color="#121314" stop-opacity="0"/>
</radialGradient>
</defs>
</svg>
