<svg width="1440" height="732" viewBox="0 0 1440 732" fill="none" xmlns="http://www.w3.org/2000/svg">
<g clip-path="url(#clip0_3897_53376)">
<rect x="-26.9004" width="53.35" height="53.35" stroke="white" stroke-opacity="0.034" stroke-width="1.067"/>
<rect x="26.4502" width="53.35" height="53.35" stroke="white" stroke-opacity="0.034" stroke-width="1.067"/>
<rect x="79.7998" width="53.35" height="53.35" stroke="white" stroke-opacity="0.034" stroke-width="1.067"/>
<rect x="133.15" width="53.35" height="53.35" stroke="white" stroke-opacity="0.034" stroke-width="1.067"/>
<rect x="186.5" width="53.35" height="53.35" stroke="white" stroke-opacity="0.034" stroke-width="1.067"/>
<rect x="239.85" width="53.35" height="53.35" stroke="white" stroke-opacity="0.034" stroke-width="1.067"/>
<rect x="293.2" width="53.35" height="53.35" stroke="white" stroke-opacity="0.034" stroke-width="1.067"/>
<rect x="346.55" width="53.35" height="53.35" stroke="white" stroke-opacity="0.034" stroke-width="1.067"/>
<rect x="399.9" width="53.35" height="53.35" stroke="white" stroke-opacity="0.034" stroke-width="1.067"/>
<rect x="453.25" width="53.35" height="53.35" stroke="white" stroke-opacity="0.034" stroke-width="1.067"/>
<rect x="506.6" width="53.35" height="53.35" stroke="white" stroke-opacity="0.034" stroke-width="1.067"/>
<rect x="559.95" width="53.35" height="53.35" stroke="white" stroke-opacity="0.034" stroke-width="1.067"/>
<rect x="613.3" width="53.35" height="53.35" stroke="white" stroke-opacity="0.034" stroke-width="1.067"/>
<rect x="666.649" width="53.35" height="53.35" stroke="white" stroke-opacity="0.034" stroke-width="1.067"/>
<rect x="720" width="53.35" height="53.35" stroke="white" stroke-opacity="0.034" stroke-width="1.067"/>
<rect x="773.35" width="53.35" height="53.35" stroke="white" stroke-opacity="0.034" stroke-width="1.067"/>
<rect x="826.7" width="53.35" height="53.35" stroke="white" stroke-opacity="0.034" stroke-width="1.067"/>
<rect x="880.05" width="53.35" height="53.35" stroke="white" stroke-opacity="0.034" stroke-width="1.067"/>
<rect x="933.399" width="53.35" height="53.35" stroke="white" stroke-opacity="0.034" stroke-width="1.067"/>
<rect x="986.75" width="53.35" height="53.35" stroke="white" stroke-opacity="0.034" stroke-width="1.067"/>
<rect x="1040.1" width="53.35" height="53.35" stroke="white" stroke-opacity="0.034" stroke-width="1.067"/>
<rect x="1093.45" width="53.35" height="53.35" stroke="white" stroke-opacity="0.034" stroke-width="1.067"/>
<rect x="1146.8" width="53.35" height="53.35" stroke="white" stroke-opacity="0.034" stroke-width="1.067"/>
<rect x="1200.15" width="53.35" height="53.35" stroke="white" stroke-opacity="0.034" stroke-width="1.067"/>
<rect x="1253.5" width="53.35" height="53.35" stroke="white" stroke-opacity="0.034" stroke-width="1.067"/>
<rect x="1306.85" width="53.35" height="53.35" stroke="white" stroke-opacity="0.034" stroke-width="1.067"/>
<rect x="1360.2" width="53.35" height="53.35" stroke="white" stroke-opacity="0.034" stroke-width="1.067"/>
<rect x="1413.55" width="53.35" height="53.35" stroke="white" stroke-opacity="0.034" stroke-width="1.067"/>
<rect x="-26.9004" y="53.3516" width="53.35" height="53.35" stroke="white" stroke-opacity="0.034" stroke-width="1.067"/>
<rect x="26.4502" y="53.3516" width="53.35" height="53.35" stroke="white" stroke-opacity="0.034" stroke-width="1.067"/>
<rect x="79.7998" y="53.3516" width="53.35" height="53.35" stroke="white" stroke-opacity="0.034" stroke-width="1.067"/>
<rect x="133.15" y="53.3516" width="53.35" height="53.35" fill="white" fill-opacity="0.056" stroke="white" stroke-opacity="0.034" stroke-width="1.067"/>
<rect x="186.5" y="53.3516" width="53.35" height="53.35" stroke="white" stroke-opacity="0.034" stroke-width="1.067"/>
<rect x="239.85" y="53.3516" width="53.35" height="53.35" stroke="white" stroke-opacity="0.034" stroke-width="1.067"/>
<rect x="293.2" y="53.3516" width="53.35" height="53.35" stroke="white" stroke-opacity="0.034" stroke-width="1.067"/>
<rect x="346.55" y="53.3516" width="53.35" height="53.35" stroke="white" stroke-opacity="0.034" stroke-width="1.067"/>
<rect x="399.9" y="53.3516" width="53.35" height="53.35" stroke="white" stroke-opacity="0.034" stroke-width="1.067"/>
<rect x="453.25" y="53.3516" width="53.35" height="53.35" stroke="white" stroke-opacity="0.034" stroke-width="1.067"/>
<rect x="506.6" y="53.3516" width="53.35" height="53.35" stroke="white" stroke-opacity="0.034" stroke-width="1.067"/>
<rect x="559.95" y="53.3516" width="53.35" height="53.35" stroke="white" stroke-opacity="0.034" stroke-width="1.067"/>
<rect x="613.3" y="53.3516" width="53.35" height="53.35" stroke="white" stroke-opacity="0.034" stroke-width="1.067"/>
<rect x="666.649" y="53.3516" width="53.35" height="53.35" stroke="white" stroke-opacity="0.034" stroke-width="1.067"/>
<rect x="720" y="53.3516" width="53.35" height="53.35" stroke="white" stroke-opacity="0.034" stroke-width="1.067"/>
<rect x="773.35" y="53.3516" width="53.35" height="53.35" stroke="white" stroke-opacity="0.034" stroke-width="1.067"/>
<rect x="826.7" y="53.3516" width="53.35" height="53.35" stroke="white" stroke-opacity="0.034" stroke-width="1.067"/>
<rect x="880.05" y="53.3516" width="53.35" height="53.35" stroke="white" stroke-opacity="0.034" stroke-width="1.067"/>
<rect x="933.399" y="53.3516" width="53.35" height="53.35" stroke="white" stroke-opacity="0.034" stroke-width="1.067"/>
<rect x="986.75" y="53.3516" width="53.35" height="53.35" stroke="white" stroke-opacity="0.034" stroke-width="1.067"/>
<rect x="1040.1" y="53.3516" width="53.35" height="53.35" stroke="white" stroke-opacity="0.034" stroke-width="1.067"/>
<rect x="1093.45" y="53.3516" width="53.35" height="53.35" stroke="white" stroke-opacity="0.034" stroke-width="1.067"/>
<rect x="1146.8" y="53.3516" width="53.35" height="53.35" fill="white" fill-opacity="0.056" stroke="white" stroke-opacity="0.034" stroke-width="1.067"/>
<rect x="1200.15" y="53.3516" width="53.35" height="53.35" stroke="white" stroke-opacity="0.034" stroke-width="1.067"/>
<rect x="1253.5" y="53.3516" width="53.35" height="53.35" stroke="white" stroke-opacity="0.034" stroke-width="1.067"/>
<rect x="1306.85" y="53.3516" width="53.35" height="53.35" stroke="white" stroke-opacity="0.034" stroke-width="1.067"/>
<rect x="1360.2" y="53.3516" width="53.35" height="53.35" stroke="white" stroke-opacity="0.034" stroke-width="1.067"/>
<rect x="1413.55" y="53.3516" width="53.35" height="53.35" stroke="white" stroke-opacity="0.034" stroke-width="1.067"/>
<rect x="-26.9004" y="106.703" width="53.35" height="53.35" stroke="white" stroke-opacity="0.034" stroke-width="1.067"/>
<rect x="26.4502" y="106.703" width="53.35" height="53.35" stroke="white" stroke-opacity="0.034" stroke-width="1.067"/>
<rect x="79.7998" y="106.703" width="53.35" height="53.35" stroke="white" stroke-opacity="0.034" stroke-width="1.067"/>
<rect x="133.15" y="106.703" width="53.35" height="53.35" stroke="white" stroke-opacity="0.034" stroke-width="1.067"/>
<rect x="186.5" y="106.703" width="53.35" height="53.35" stroke="white" stroke-opacity="0.034" stroke-width="1.067"/>
<rect x="239.85" y="106.703" width="53.35" height="53.35" stroke="white" stroke-opacity="0.034" stroke-width="1.067"/>
<rect x="293.2" y="106.703" width="53.35" height="53.35" stroke="white" stroke-opacity="0.034" stroke-width="1.067"/>
<rect x="346.55" y="106.703" width="53.35" height="53.35" fill="white" fill-opacity="0.056" stroke="white" stroke-opacity="0.034" stroke-width="1.067"/>
<rect x="399.9" y="106.703" width="53.35" height="53.35" stroke="white" stroke-opacity="0.034" stroke-width="1.067"/>
<rect x="453.25" y="106.703" width="53.35" height="53.35" stroke="white" stroke-opacity="0.034" stroke-width="1.067"/>
<rect x="506.6" y="106.703" width="53.35" height="53.35" stroke="white" stroke-opacity="0.034" stroke-width="1.067"/>
<rect x="559.95" y="106.703" width="53.35" height="53.35" stroke="white" stroke-opacity="0.034" stroke-width="1.067"/>
<rect x="613.3" y="106.703" width="53.35" height="53.35" stroke="white" stroke-opacity="0.034" stroke-width="1.067"/>
<rect x="666.649" y="106.703" width="53.35" height="53.35" stroke="white" stroke-opacity="0.034" stroke-width="1.067"/>
<rect x="720" y="106.703" width="53.35" height="53.35" stroke="white" stroke-opacity="0.034" stroke-width="1.067"/>
<rect x="773.35" y="106.703" width="53.35" height="53.35" stroke="white" stroke-opacity="0.034" stroke-width="1.067"/>
<rect x="826.7" y="106.703" width="53.35" height="53.35" stroke="white" stroke-opacity="0.034" stroke-width="1.067"/>
<rect x="880.05" y="106.703" width="53.35" height="53.35" stroke="white" stroke-opacity="0.034" stroke-width="1.067"/>
<rect x="933.399" y="106.703" width="53.35" height="53.35" stroke="white" stroke-opacity="0.034" stroke-width="1.067"/>
<rect x="986.75" y="106.703" width="53.35" height="53.35" fill="white" fill-opacity="0.056" stroke="white" stroke-opacity="0.034" stroke-width="1.067"/>
<rect x="1040.1" y="106.703" width="53.35" height="53.35" stroke="white" stroke-opacity="0.034" stroke-width="1.067"/>
<rect x="1093.45" y="106.703" width="53.35" height="53.35" stroke="white" stroke-opacity="0.034" stroke-width="1.067"/>
<rect x="1146.8" y="106.703" width="53.35" height="53.35" stroke="white" stroke-opacity="0.034" stroke-width="1.067"/>
<rect x="1200.15" y="106.703" width="53.35" height="53.35" stroke="white" stroke-opacity="0.034" stroke-width="1.067"/>
<rect x="1253.5" y="106.703" width="53.35" height="53.35" stroke="white" stroke-opacity="0.034" stroke-width="1.067"/>
<rect x="1306.85" y="106.703" width="53.35" height="53.35" fill="white" fill-opacity="0.056" stroke="white" stroke-opacity="0.034" stroke-width="1.067"/>
<rect x="1360.2" y="106.703" width="53.35" height="53.35" stroke="white" stroke-opacity="0.034" stroke-width="1.067"/>
<rect x="1413.55" y="106.703" width="53.35" height="53.35" stroke="white" stroke-opacity="0.034" stroke-width="1.067"/>
<rect x="-26.9004" y="160.047" width="53.35" height="53.35" stroke="white" stroke-opacity="0.034" stroke-width="1.067"/>
<rect x="26.4502" y="160.047" width="53.35" height="53.35" stroke="white" stroke-opacity="0.034" stroke-width="1.067"/>
<rect x="79.7998" y="160.047" width="53.35" height="53.35" stroke="white" stroke-opacity="0.034" stroke-width="1.067"/>
<rect x="133.15" y="160.047" width="53.35" height="53.35" stroke="white" stroke-opacity="0.034" stroke-width="1.067"/>
<rect x="186.5" y="160.047" width="53.35" height="53.35" stroke="white" stroke-opacity="0.034" stroke-width="1.067"/>
<rect x="239.85" y="160.047" width="53.35" height="53.35" stroke="white" stroke-opacity="0.034" stroke-width="1.067"/>
<rect x="293.2" y="160.047" width="53.35" height="53.35" stroke="white" stroke-opacity="0.034" stroke-width="1.067"/>
<rect x="346.55" y="160.047" width="53.35" height="53.35" stroke="white" stroke-opacity="0.034" stroke-width="1.067"/>
<rect x="399.9" y="160.047" width="53.35" height="53.35" stroke="white" stroke-opacity="0.034" stroke-width="1.067"/>
<rect x="453.25" y="160.047" width="53.35" height="53.35" stroke="white" stroke-opacity="0.034" stroke-width="1.067"/>
<rect x="506.6" y="160.047" width="53.35" height="53.35" stroke="white" stroke-opacity="0.034" stroke-width="1.067"/>
<rect x="559.95" y="160.047" width="53.35" height="53.35" stroke="white" stroke-opacity="0.034" stroke-width="1.067"/>
<rect x="613.3" y="160.047" width="53.35" height="53.35" stroke="white" stroke-opacity="0.034" stroke-width="1.067"/>
<rect x="666.649" y="160.047" width="53.35" height="53.35" stroke="white" stroke-opacity="0.034" stroke-width="1.067"/>
<rect x="720" y="160.047" width="53.35" height="53.35" stroke="white" stroke-opacity="0.034" stroke-width="1.067"/>
<rect x="773.35" y="160.047" width="53.35" height="53.35" stroke="white" stroke-opacity="0.034" stroke-width="1.067"/>
<rect x="826.7" y="160.047" width="53.35" height="53.35" stroke="white" stroke-opacity="0.034" stroke-width="1.067"/>
<rect x="880.05" y="160.047" width="53.35" height="53.35" stroke="white" stroke-opacity="0.034" stroke-width="1.067"/>
<rect x="933.399" y="160.047" width="53.35" height="53.35" stroke="white" stroke-opacity="0.034" stroke-width="1.067"/>
<rect x="986.75" y="160.047" width="53.35" height="53.35" stroke="white" stroke-opacity="0.034" stroke-width="1.067"/>
<rect x="1040.1" y="160.047" width="53.35" height="53.35" stroke="white" stroke-opacity="0.034" stroke-width="1.067"/>
<rect x="1093.45" y="160.047" width="53.35" height="53.35" stroke="white" stroke-opacity="0.034" stroke-width="1.067"/>
<rect x="1146.8" y="160.047" width="53.35" height="53.35" stroke="white" stroke-opacity="0.034" stroke-width="1.067"/>
<rect x="1200.15" y="160.047" width="53.35" height="53.35" stroke="white" stroke-opacity="0.034" stroke-width="1.067"/>
<rect x="1253.5" y="160.047" width="53.35" height="53.35" stroke="white" stroke-opacity="0.034" stroke-width="1.067"/>
<rect x="1306.85" y="160.047" width="53.35" height="53.35" stroke="white" stroke-opacity="0.034" stroke-width="1.067"/>
<rect x="1360.2" y="160.047" width="53.35" height="53.35" stroke="white" stroke-opacity="0.034" stroke-width="1.067"/>
<rect x="1413.55" y="160.047" width="53.35" height="53.35" stroke="white" stroke-opacity="0.034" stroke-width="1.067"/>
<rect x="-26.9004" y="213.398" width="53.35" height="53.35" stroke="white" stroke-opacity="0.034" stroke-width="1.067"/>
<rect x="26.4502" y="213.398" width="53.35" height="53.35" stroke="white" stroke-opacity="0.034" stroke-width="1.067"/>
<rect x="79.7998" y="213.398" width="53.35" height="53.35" stroke="white" stroke-opacity="0.034" stroke-width="1.067"/>
<rect x="133.15" y="213.398" width="53.35" height="53.35" stroke="white" stroke-opacity="0.034" stroke-width="1.067"/>
<rect x="186.5" y="213.398" width="53.35" height="53.35" stroke="white" stroke-opacity="0.034" stroke-width="1.067"/>
<rect x="239.85" y="213.398" width="53.35" height="53.35" stroke="white" stroke-opacity="0.034" stroke-width="1.067"/>
<rect x="293.2" y="213.398" width="53.35" height="53.35" stroke="white" stroke-opacity="0.034" stroke-width="1.067"/>
<rect x="346.55" y="213.398" width="53.35" height="53.35" stroke="white" stroke-opacity="0.034" stroke-width="1.067"/>
<rect x="399.9" y="213.398" width="53.35" height="53.35" fill="white" fill-opacity="0.056" stroke="white" stroke-opacity="0.034" stroke-width="1.067"/>
<rect x="453.25" y="213.398" width="53.35" height="53.35" stroke="white" stroke-opacity="0.034" stroke-width="1.067"/>
<rect x="506.6" y="213.398" width="53.35" height="53.35" stroke="white" stroke-opacity="0.034" stroke-width="1.067"/>
<rect x="559.95" y="213.398" width="53.35" height="53.35" stroke="white" stroke-opacity="0.034" stroke-width="1.067"/>
<rect x="613.3" y="213.398" width="53.35" height="53.35" stroke="white" stroke-opacity="0.034" stroke-width="1.067"/>
<rect x="666.649" y="213.398" width="53.35" height="53.35" stroke="white" stroke-opacity="0.034" stroke-width="1.067"/>
<rect x="720" y="213.398" width="53.35" height="53.35" stroke="white" stroke-opacity="0.034" stroke-width="1.067"/>
<rect x="773.35" y="213.398" width="53.35" height="53.35" stroke="white" stroke-opacity="0.034" stroke-width="1.067"/>
<rect x="826.7" y="213.398" width="53.35" height="53.35" stroke="white" stroke-opacity="0.034" stroke-width="1.067"/>
<rect x="880.05" y="213.398" width="53.35" height="53.35" stroke="white" stroke-opacity="0.034" stroke-width="1.067"/>
<rect x="933.399" y="213.398" width="53.35" height="53.35" stroke="white" stroke-opacity="0.034" stroke-width="1.067"/>
<rect x="986.75" y="213.398" width="53.35" height="53.35" stroke="white" stroke-opacity="0.034" stroke-width="1.067"/>
<rect x="1040.1" y="213.398" width="53.35" height="53.35" stroke="white" stroke-opacity="0.034" stroke-width="1.067"/>
<rect x="1093.45" y="213.398" width="53.35" height="53.35" fill="white" fill-opacity="0.056" stroke="white" stroke-opacity="0.034" stroke-width="1.067"/>
<rect x="1146.8" y="213.398" width="53.35" height="53.35" stroke="white" stroke-opacity="0.034" stroke-width="1.067"/>
<rect x="1200.15" y="213.398" width="53.35" height="53.35" stroke="white" stroke-opacity="0.034" stroke-width="1.067"/>
<rect x="1253.5" y="213.398" width="53.35" height="53.35" stroke="white" stroke-opacity="0.034" stroke-width="1.067"/>
<rect x="1306.85" y="213.398" width="53.35" height="53.35" stroke="white" stroke-opacity="0.034" stroke-width="1.067"/>
<rect x="1360.2" y="213.398" width="53.35" height="53.35" stroke="white" stroke-opacity="0.034" stroke-width="1.067"/>
<rect x="1413.55" y="213.398" width="53.35" height="53.35" fill="white" fill-opacity="0.056" stroke="white" stroke-opacity="0.034" stroke-width="1.067"/>
<rect x="-26.9004" y="266.75" width="53.35" height="53.35" stroke="white" stroke-opacity="0.034" stroke-width="1.067"/>
<rect x="26.4502" y="266.75" width="53.35" height="53.35" stroke="white" stroke-opacity="0.034" stroke-width="1.067"/>
<rect x="79.7998" y="266.75" width="53.35" height="53.35" stroke="white" stroke-opacity="0.034" stroke-width="1.067"/>
<rect x="133.15" y="266.75" width="53.35" height="53.35" stroke="white" stroke-opacity="0.034" stroke-width="1.067"/>
<rect x="186.5" y="266.75" width="53.35" height="53.35" stroke="white" stroke-opacity="0.034" stroke-width="1.067"/>
<rect x="239.85" y="266.75" width="53.35" height="53.35" stroke="white" stroke-opacity="0.034" stroke-width="1.067"/>
<rect x="293.2" y="266.75" width="53.35" height="53.35" stroke="white" stroke-opacity="0.034" stroke-width="1.067"/>
<rect x="346.55" y="266.75" width="53.35" height="53.35" stroke="white" stroke-opacity="0.034" stroke-width="1.067"/>
<rect x="399.9" y="266.75" width="53.35" height="53.35" stroke="white" stroke-opacity="0.034" stroke-width="1.067"/>
<rect x="453.25" y="266.75" width="53.35" height="53.35" stroke="white" stroke-opacity="0.034" stroke-width="1.067"/>
<rect x="506.6" y="266.75" width="53.35" height="53.35" stroke="white" stroke-opacity="0.034" stroke-width="1.067"/>
<rect x="559.95" y="266.75" width="53.35" height="53.35" stroke="white" stroke-opacity="0.034" stroke-width="1.067"/>
<rect x="613.3" y="266.75" width="53.35" height="53.35" stroke="white" stroke-opacity="0.034" stroke-width="1.067"/>
<rect x="666.649" y="266.75" width="53.35" height="53.35" stroke="white" stroke-opacity="0.034" stroke-width="1.067"/>
<rect x="720" y="266.75" width="53.35" height="53.35" stroke="white" stroke-opacity="0.034" stroke-width="1.067"/>
<rect x="773.35" y="266.75" width="53.35" height="53.35" stroke="white" stroke-opacity="0.034" stroke-width="1.067"/>
<rect x="826.7" y="266.75" width="53.35" height="53.35" stroke="white" stroke-opacity="0.034" stroke-width="1.067"/>
<rect x="880.05" y="266.75" width="53.35" height="53.35" stroke="white" stroke-opacity="0.034" stroke-width="1.067"/>
<rect x="933.399" y="266.75" width="53.35" height="53.35" stroke="white" stroke-opacity="0.034" stroke-width="1.067"/>
<rect x="986.75" y="266.75" width="53.35" height="53.35" stroke="white" stroke-opacity="0.034" stroke-width="1.067"/>
<rect x="1040.1" y="266.75" width="53.35" height="53.35" stroke="white" stroke-opacity="0.034" stroke-width="1.067"/>
<rect x="1093.45" y="266.75" width="53.35" height="53.35" stroke="white" stroke-opacity="0.034" stroke-width="1.067"/>
<rect x="1146.8" y="266.75" width="53.35" height="53.35" stroke="white" stroke-opacity="0.034" stroke-width="1.067"/>
<rect x="1200.15" y="266.75" width="53.35" height="53.35" stroke="white" stroke-opacity="0.034" stroke-width="1.067"/>
<rect x="1253.5" y="266.75" width="53.35" height="53.35" stroke="white" stroke-opacity="0.034" stroke-width="1.067"/>
<rect x="1306.85" y="266.75" width="53.35" height="53.35" stroke="white" stroke-opacity="0.034" stroke-width="1.067"/>
<rect x="1360.2" y="266.75" width="53.35" height="53.35" stroke="white" stroke-opacity="0.034" stroke-width="1.067"/>
<rect x="1413.55" y="266.75" width="53.35" height="53.35" stroke="white" stroke-opacity="0.034" stroke-width="1.067"/>
<rect x="-26.9004" y="320.102" width="53.35" height="53.35" stroke="white" stroke-opacity="0.034" stroke-width="1.067"/>
<rect x="26.4502" y="320.102" width="53.35" height="53.35" stroke="white" stroke-opacity="0.034" stroke-width="1.067"/>
<rect x="79.7998" y="320.102" width="53.35" height="53.35" stroke="white" stroke-opacity="0.034" stroke-width="1.067"/>
<rect x="133.15" y="320.102" width="53.35" height="53.35" stroke="white" stroke-opacity="0.034" stroke-width="1.067"/>
<rect x="186.5" y="320.102" width="53.35" height="53.35" stroke="white" stroke-opacity="0.034" stroke-width="1.067"/>
<rect x="239.85" y="320.102" width="53.35" height="53.35" fill="white" fill-opacity="0.056" stroke="white" stroke-opacity="0.034" stroke-width="1.067"/>
<rect x="293.2" y="320.102" width="53.35" height="53.35" stroke="white" stroke-opacity="0.034" stroke-width="1.067"/>
<rect x="346.55" y="320.102" width="53.35" height="53.35" stroke="white" stroke-opacity="0.034" stroke-width="1.067"/>
<rect x="399.9" y="320.102" width="53.35" height="53.35" stroke="white" stroke-opacity="0.034" stroke-width="1.067"/>
<rect x="453.25" y="320.102" width="53.35" height="53.35" stroke="white" stroke-opacity="0.034" stroke-width="1.067"/>
<rect x="506.6" y="320.102" width="53.35" height="53.35" stroke="white" stroke-opacity="0.034" stroke-width="1.067"/>
<rect x="559.95" y="320.102" width="53.35" height="53.35" stroke="white" stroke-opacity="0.034" stroke-width="1.067"/>
<rect x="613.3" y="320.102" width="53.35" height="53.35" stroke="white" stroke-opacity="0.034" stroke-width="1.067"/>
<rect x="666.649" y="320.102" width="53.35" height="53.35" stroke="white" stroke-opacity="0.034" stroke-width="1.067"/>
<rect x="720" y="320.102" width="53.35" height="53.35" stroke="white" stroke-opacity="0.034" stroke-width="1.067"/>
<rect x="773.35" y="320.102" width="53.35" height="53.35" stroke="white" stroke-opacity="0.034" stroke-width="1.067"/>
<rect x="826.7" y="320.102" width="53.35" height="53.35" stroke="white" stroke-opacity="0.034" stroke-width="1.067"/>
<rect x="880.05" y="320.102" width="53.35" height="53.35" stroke="white" stroke-opacity="0.034" stroke-width="1.067"/>
<rect x="933.399" y="320.102" width="53.35" height="53.35" stroke="white" stroke-opacity="0.034" stroke-width="1.067"/>
<rect x="986.75" y="320.102" width="53.35" height="53.35" stroke="white" stroke-opacity="0.034" stroke-width="1.067"/>
<rect x="1040.1" y="320.102" width="53.35" height="53.35" stroke="white" stroke-opacity="0.034" stroke-width="1.067"/>
<rect x="1093.45" y="320.102" width="53.35" height="53.35" stroke="white" stroke-opacity="0.034" stroke-width="1.067"/>
<rect x="1146.8" y="320.102" width="53.35" height="53.35" fill="white" fill-opacity="0.056" stroke="white" stroke-opacity="0.034" stroke-width="1.067"/>
<rect x="1200.15" y="320.102" width="53.35" height="53.35" stroke="white" stroke-opacity="0.034" stroke-width="1.067"/>
<rect x="1253.5" y="320.102" width="53.35" height="53.35" stroke="white" stroke-opacity="0.034" stroke-width="1.067"/>
<rect x="1306.85" y="320.102" width="53.35" height="53.35" stroke="white" stroke-opacity="0.034" stroke-width="1.067"/>
<rect x="1360.2" y="320.102" width="53.35" height="53.35" stroke="white" stroke-opacity="0.034" stroke-width="1.067"/>
<rect x="1413.55" y="320.102" width="53.35" height="53.35" stroke="white" stroke-opacity="0.034" stroke-width="1.067"/>
<rect x="-26.9004" y="373.453" width="53.35" height="53.35" stroke="white" stroke-opacity="0.034" stroke-width="1.067"/>
<rect x="26.4502" y="373.453" width="53.35" height="53.35" stroke="white" stroke-opacity="0.034" stroke-width="1.067"/>
<rect x="79.7998" y="373.453" width="53.35" height="53.35" stroke="white" stroke-opacity="0.034" stroke-width="1.067"/>
<rect x="133.15" y="373.453" width="53.35" height="53.35" stroke="white" stroke-opacity="0.034" stroke-width="1.067"/>
<rect x="186.5" y="373.453" width="53.35" height="53.35" stroke="white" stroke-opacity="0.034" stroke-width="1.067"/>
<rect x="239.85" y="373.453" width="53.35" height="53.35" stroke="white" stroke-opacity="0.034" stroke-width="1.067"/>
<rect x="293.2" y="373.453" width="53.35" height="53.35" stroke="white" stroke-opacity="0.034" stroke-width="1.067"/>
<rect x="346.55" y="373.453" width="53.35" height="53.35" stroke="white" stroke-opacity="0.034" stroke-width="1.067"/>
<rect x="399.9" y="373.453" width="53.35" height="53.35" stroke="white" stroke-opacity="0.034" stroke-width="1.067"/>
<rect x="453.25" y="373.453" width="53.35" height="53.35" fill="white" fill-opacity="0.056" stroke="white" stroke-opacity="0.034" stroke-width="1.067"/>
<rect x="506.6" y="373.453" width="53.35" height="53.35" stroke="white" stroke-opacity="0.034" stroke-width="1.067"/>
<rect x="559.95" y="373.453" width="53.35" height="53.35" stroke="white" stroke-opacity="0.034" stroke-width="1.067"/>
<rect x="613.3" y="373.453" width="53.35" height="53.35" stroke="white" stroke-opacity="0.034" stroke-width="1.067"/>
<rect x="666.649" y="373.453" width="53.35" height="53.35" stroke="white" stroke-opacity="0.034" stroke-width="1.067"/>
<rect x="720" y="373.453" width="53.35" height="53.35" stroke="white" stroke-opacity="0.034" stroke-width="1.067"/>
<rect x="773.35" y="373.453" width="53.35" height="53.35" stroke="white" stroke-opacity="0.034" stroke-width="1.067"/>
<rect x="826.7" y="373.453" width="53.35" height="53.35" stroke="white" stroke-opacity="0.034" stroke-width="1.067"/>
<rect x="880.05" y="373.453" width="53.35" height="53.35" stroke="white" stroke-opacity="0.034" stroke-width="1.067"/>
<rect x="933.399" y="373.453" width="53.35" height="53.35" stroke="white" stroke-opacity="0.034" stroke-width="1.067"/>
<rect x="986.75" y="373.453" width="53.35" height="53.35" stroke="white" stroke-opacity="0.034" stroke-width="1.067"/>
<rect x="1040.1" y="373.453" width="53.35" height="53.35" stroke="white" stroke-opacity="0.034" stroke-width="1.067"/>
<rect x="1093.45" y="373.453" width="53.35" height="53.35" stroke="white" stroke-opacity="0.034" stroke-width="1.067"/>
<rect x="1146.8" y="373.453" width="53.35" height="53.35" stroke="white" stroke-opacity="0.034" stroke-width="1.067"/>
<rect x="1200.15" y="373.453" width="53.35" height="53.35" stroke="white" stroke-opacity="0.034" stroke-width="1.067"/>
<rect x="1253.5" y="373.453" width="53.35" height="53.35" stroke="white" stroke-opacity="0.034" stroke-width="1.067"/>
<rect x="1306.85" y="373.453" width="53.35" height="53.35" stroke="white" stroke-opacity="0.034" stroke-width="1.067"/>
<rect x="1360.2" y="373.453" width="53.35" height="53.35" stroke="white" stroke-opacity="0.034" stroke-width="1.067"/>
<rect x="1413.55" y="373.453" width="53.35" height="53.35" stroke="white" stroke-opacity="0.034" stroke-width="1.067"/>
<rect x="-26.9004" y="426.797" width="53.35" height="53.35" stroke="white" stroke-opacity="0.034" stroke-width="1.067"/>
<rect x="26.4502" y="426.797" width="53.35" height="53.35" stroke="white" stroke-opacity="0.034" stroke-width="1.067"/>
<rect x="79.7998" y="426.797" width="53.35" height="53.35" fill="white" fill-opacity="0.056" stroke="white" stroke-opacity="0.034" stroke-width="1.067"/>
<rect x="133.15" y="426.797" width="53.35" height="53.35" stroke="white" stroke-opacity="0.034" stroke-width="1.067"/>
<rect x="186.5" y="426.797" width="53.35" height="53.35" stroke="white" stroke-opacity="0.034" stroke-width="1.067"/>
<rect x="239.85" y="426.797" width="53.35" height="53.35" stroke="white" stroke-opacity="0.034" stroke-width="1.067"/>
<rect x="293.2" y="426.797" width="53.35" height="53.35" fill="white" fill-opacity="0.056" stroke="white" stroke-opacity="0.034" stroke-width="1.067"/>
<rect x="346.55" y="426.797" width="53.35" height="53.35" stroke="white" stroke-opacity="0.034" stroke-width="1.067"/>
<rect x="399.9" y="426.797" width="53.35" height="53.35" stroke="white" stroke-opacity="0.034" stroke-width="1.067"/>
<rect x="453.25" y="426.797" width="53.35" height="53.35" stroke="white" stroke-opacity="0.034" stroke-width="1.067"/>
<rect x="506.6" y="426.797" width="53.35" height="53.35" stroke="white" stroke-opacity="0.034" stroke-width="1.067"/>
<rect x="559.95" y="426.797" width="53.35" height="53.35" stroke="white" stroke-opacity="0.034" stroke-width="1.067"/>
<rect x="613.3" y="426.797" width="53.35" height="53.35" stroke="white" stroke-opacity="0.034" stroke-width="1.067"/>
<rect x="666.649" y="426.797" width="53.35" height="53.35" stroke="white" stroke-opacity="0.034" stroke-width="1.067"/>
<rect x="720" y="426.797" width="53.35" height="53.35" stroke="white" stroke-opacity="0.034" stroke-width="1.067"/>
<rect x="773.35" y="426.797" width="53.35" height="53.35" stroke="white" stroke-opacity="0.034" stroke-width="1.067"/>
<rect x="826.7" y="426.797" width="53.35" height="53.35" stroke="white" stroke-opacity="0.034" stroke-width="1.067"/>
<rect x="880.05" y="426.797" width="53.35" height="53.35" stroke="white" stroke-opacity="0.034" stroke-width="1.067"/>
<rect x="933.399" y="426.797" width="53.35" height="53.35" stroke="white" stroke-opacity="0.034" stroke-width="1.067"/>
<rect x="986.75" y="426.797" width="53.35" height="53.35" fill="white" fill-opacity="0.056" stroke="white" stroke-opacity="0.034" stroke-width="1.067"/>
<rect x="1040.1" y="426.797" width="53.35" height="53.35" stroke="white" stroke-opacity="0.034" stroke-width="1.067"/>
<rect x="1093.45" y="426.797" width="53.35" height="53.35" stroke="white" stroke-opacity="0.034" stroke-width="1.067"/>
<rect x="1146.8" y="426.797" width="53.35" height="53.35" stroke="white" stroke-opacity="0.034" stroke-width="1.067"/>
<rect x="1200.15" y="426.797" width="53.35" height="53.35" stroke="white" stroke-opacity="0.034" stroke-width="1.067"/>
<rect x="1253.5" y="426.797" width="53.35" height="53.35" stroke="white" stroke-opacity="0.034" stroke-width="1.067"/>
<rect x="1306.85" y="426.797" width="53.35" height="53.35" stroke="white" stroke-opacity="0.034" stroke-width="1.067"/>
<rect x="1360.2" y="426.797" width="53.35" height="53.35" stroke="white" stroke-opacity="0.034" stroke-width="1.067"/>
<rect x="1413.55" y="426.797" width="53.35" height="53.35" stroke="white" stroke-opacity="0.034" stroke-width="1.067"/>
<rect x="-26.9004" y="480.148" width="53.35" height="53.35" stroke="white" stroke-opacity="0.034" stroke-width="1.067"/>
<rect x="26.4502" y="480.148" width="53.35" height="53.35" stroke="white" stroke-opacity="0.034" stroke-width="1.067"/>
<rect x="79.7998" y="480.148" width="53.35" height="53.35" stroke="white" stroke-opacity="0.034" stroke-width="1.067"/>
<rect x="133.15" y="480.148" width="53.35" height="53.35" stroke="white" stroke-opacity="0.034" stroke-width="1.067"/>
<rect x="186.5" y="480.148" width="53.35" height="53.35" stroke="white" stroke-opacity="0.034" stroke-width="1.067"/>
<rect x="239.85" y="480.148" width="53.35" height="53.35" stroke="white" stroke-opacity="0.034" stroke-width="1.067"/>
<rect x="293.2" y="480.148" width="53.35" height="53.35" stroke="white" stroke-opacity="0.034" stroke-width="1.067"/>
<rect x="346.55" y="480.148" width="53.35" height="53.35" stroke="white" stroke-opacity="0.034" stroke-width="1.067"/>
<rect x="399.9" y="480.148" width="53.35" height="53.35" stroke="white" stroke-opacity="0.034" stroke-width="1.067"/>
<rect x="453.25" y="480.148" width="53.35" height="53.35" stroke="white" stroke-opacity="0.034" stroke-width="1.067"/>
<rect x="506.6" y="480.148" width="53.35" height="53.35" stroke="white" stroke-opacity="0.034" stroke-width="1.067"/>
<rect x="559.95" y="480.148" width="53.35" height="53.35" stroke="white" stroke-opacity="0.034" stroke-width="1.067"/>
<rect x="613.3" y="480.148" width="53.35" height="53.35" stroke="white" stroke-opacity="0.034" stroke-width="1.067"/>
<rect x="666.649" y="480.148" width="53.35" height="53.35" stroke="white" stroke-opacity="0.034" stroke-width="1.067"/>
<rect x="720" y="480.148" width="53.35" height="53.35" stroke="white" stroke-opacity="0.034" stroke-width="1.067"/>
<rect x="773.35" y="480.148" width="53.35" height="53.35" stroke="white" stroke-opacity="0.034" stroke-width="1.067"/>
<rect x="826.7" y="480.148" width="53.35" height="53.35" stroke="white" stroke-opacity="0.034" stroke-width="1.067"/>
<rect x="880.05" y="480.148" width="53.35" height="53.35" stroke="white" stroke-opacity="0.034" stroke-width="1.067"/>
<rect x="933.399" y="480.148" width="53.35" height="53.35" stroke="white" stroke-opacity="0.034" stroke-width="1.067"/>
<rect x="986.75" y="480.148" width="53.35" height="53.35" stroke="white" stroke-opacity="0.034" stroke-width="1.067"/>
<rect x="1040.1" y="480.148" width="53.35" height="53.35" stroke="white" stroke-opacity="0.034" stroke-width="1.067"/>
<rect x="1093.45" y="480.148" width="53.35" height="53.35" stroke="white" stroke-opacity="0.034" stroke-width="1.067"/>
<rect x="1146.8" y="480.148" width="53.35" height="53.35" stroke="white" stroke-opacity="0.034" stroke-width="1.067"/>
<rect x="1200.15" y="480.148" width="53.35" height="53.35" stroke="white" stroke-opacity="0.034" stroke-width="1.067"/>
<rect x="1253.5" y="480.148" width="53.35" height="53.35" stroke="white" stroke-opacity="0.034" stroke-width="1.067"/>
<rect x="1306.85" y="480.148" width="53.35" height="53.35" stroke="white" stroke-opacity="0.034" stroke-width="1.067"/>
<rect x="1360.2" y="480.148" width="53.35" height="53.35" stroke="white" stroke-opacity="0.034" stroke-width="1.067"/>
<rect x="1413.55" y="480.148" width="53.35" height="53.35" stroke="white" stroke-opacity="0.034" stroke-width="1.067"/>
<rect x="-26.9004" y="533.5" width="53.35" height="53.35" stroke="white" stroke-opacity="0.034" stroke-width="1.067"/>
<rect x="26.4502" y="533.5" width="53.35" height="53.35" stroke="white" stroke-opacity="0.034" stroke-width="1.067"/>
<rect x="79.7998" y="533.5" width="53.35" height="53.35" stroke="white" stroke-opacity="0.034" stroke-width="1.067"/>
<rect x="133.15" y="533.5" width="53.35" height="53.35" stroke="white" stroke-opacity="0.034" stroke-width="1.067"/>
<rect x="186.5" y="533.5" width="53.35" height="53.35" stroke="white" stroke-opacity="0.034" stroke-width="1.067"/>
<rect x="239.85" y="533.5" width="53.35" height="53.35" stroke="white" stroke-opacity="0.034" stroke-width="1.067"/>
<rect x="293.2" y="533.5" width="53.35" height="53.35" stroke="white" stroke-opacity="0.034" stroke-width="1.067"/>
<rect x="346.55" y="533.5" width="53.35" height="53.35" stroke="white" stroke-opacity="0.034" stroke-width="1.067"/>
<rect x="399.9" y="533.5" width="53.35" height="53.35" stroke="white" stroke-opacity="0.034" stroke-width="1.067"/>
<rect x="453.25" y="533.5" width="53.35" height="53.35" stroke="white" stroke-opacity="0.034" stroke-width="1.067"/>
<rect x="506.6" y="533.5" width="53.35" height="53.35" stroke="white" stroke-opacity="0.034" stroke-width="1.067"/>
<rect x="559.95" y="533.5" width="53.35" height="53.35" stroke="white" stroke-opacity="0.034" stroke-width="1.067"/>
<rect x="613.3" y="533.5" width="53.35" height="53.35" stroke="white" stroke-opacity="0.034" stroke-width="1.067"/>
<rect x="666.649" y="533.5" width="53.35" height="53.35" stroke="white" stroke-opacity="0.034" stroke-width="1.067"/>
<rect x="720" y="533.5" width="53.35" height="53.35" stroke="white" stroke-opacity="0.034" stroke-width="1.067"/>
<rect x="773.35" y="533.5" width="53.35" height="53.35" stroke="white" stroke-opacity="0.034" stroke-width="1.067"/>
<rect x="826.7" y="533.5" width="53.35" height="53.35" stroke="white" stroke-opacity="0.034" stroke-width="1.067"/>
<rect x="880.05" y="533.5" width="53.35" height="53.35" stroke="white" stroke-opacity="0.034" stroke-width="1.067"/>
<rect x="933.399" y="533.5" width="53.35" height="53.35" stroke="white" stroke-opacity="0.034" stroke-width="1.067"/>
<rect x="986.75" y="533.5" width="53.35" height="53.35" stroke="white" stroke-opacity="0.034" stroke-width="1.067"/>
<rect x="1040.1" y="533.5" width="53.35" height="53.35" stroke="white" stroke-opacity="0.034" stroke-width="1.067"/>
<rect x="1093.45" y="533.5" width="53.35" height="53.35" stroke="white" stroke-opacity="0.034" stroke-width="1.067"/>
<rect x="1146.8" y="533.5" width="53.35" height="53.35" stroke="white" stroke-opacity="0.034" stroke-width="1.067"/>
<rect x="1200.15" y="533.5" width="53.35" height="53.35" stroke="white" stroke-opacity="0.034" stroke-width="1.067"/>
<rect x="1253.5" y="533.5" width="53.35" height="53.35" stroke="white" stroke-opacity="0.034" stroke-width="1.067"/>
<rect x="1306.85" y="533.5" width="53.35" height="53.35" stroke="white" stroke-opacity="0.034" stroke-width="1.067"/>
<rect x="1360.2" y="533.5" width="53.35" height="53.35" stroke="white" stroke-opacity="0.034" stroke-width="1.067"/>
<rect x="1413.55" y="533.5" width="53.35" height="53.35" stroke="white" stroke-opacity="0.034" stroke-width="1.067"/>
<rect x="-26.9004" y="586.852" width="53.35" height="53.35" stroke="white" stroke-opacity="0.034" stroke-width="1.067"/>
<rect x="26.4502" y="586.852" width="53.35" height="53.35" stroke="white" stroke-opacity="0.034" stroke-width="1.067"/>
<rect x="79.7998" y="586.852" width="53.35" height="53.35" stroke="white" stroke-opacity="0.034" stroke-width="1.067"/>
<rect x="133.15" y="586.852" width="53.35" height="53.35" stroke="white" stroke-opacity="0.034" stroke-width="1.067"/>
<rect x="186.5" y="586.852" width="53.35" height="53.35" stroke="white" stroke-opacity="0.034" stroke-width="1.067"/>
<rect x="239.85" y="586.852" width="53.35" height="53.35" stroke="white" stroke-opacity="0.034" stroke-width="1.067"/>
<rect x="293.2" y="586.852" width="53.35" height="53.35" stroke="white" stroke-opacity="0.034" stroke-width="1.067"/>
<rect x="346.55" y="586.852" width="53.35" height="53.35" stroke="white" stroke-opacity="0.034" stroke-width="1.067"/>
<rect x="399.9" y="586.852" width="53.35" height="53.35" stroke="white" stroke-opacity="0.034" stroke-width="1.067"/>
<rect x="453.25" y="586.852" width="53.35" height="53.35" stroke="white" stroke-opacity="0.034" stroke-width="1.067"/>
<rect x="506.6" y="586.852" width="53.35" height="53.35" stroke="white" stroke-opacity="0.034" stroke-width="1.067"/>
<rect x="559.95" y="586.852" width="53.35" height="53.35" stroke="white" stroke-opacity="0.034" stroke-width="1.067"/>
<rect x="613.3" y="586.852" width="53.35" height="53.35" stroke="white" stroke-opacity="0.034" stroke-width="1.067"/>
<rect x="666.649" y="586.852" width="53.35" height="53.35" stroke="white" stroke-opacity="0.034" stroke-width="1.067"/>
<rect x="720" y="586.852" width="53.35" height="53.35" stroke="white" stroke-opacity="0.034" stroke-width="1.067"/>
<rect x="773.35" y="586.852" width="53.35" height="53.35" stroke="white" stroke-opacity="0.034" stroke-width="1.067"/>
<rect x="826.7" y="586.852" width="53.35" height="53.35" stroke="white" stroke-opacity="0.034" stroke-width="1.067"/>
<rect x="880.05" y="586.852" width="53.35" height="53.35" stroke="white" stroke-opacity="0.034" stroke-width="1.067"/>
<rect x="933.399" y="586.852" width="53.35" height="53.35" stroke="white" stroke-opacity="0.034" stroke-width="1.067"/>
<rect x="986.75" y="586.852" width="53.35" height="53.35" stroke="white" stroke-opacity="0.034" stroke-width="1.067"/>
<rect x="1040.1" y="586.852" width="53.35" height="53.35" stroke="white" stroke-opacity="0.034" stroke-width="1.067"/>
<rect x="1093.45" y="586.852" width="53.35" height="53.35" stroke="white" stroke-opacity="0.034" stroke-width="1.067"/>
<rect x="1146.8" y="586.852" width="53.35" height="53.35" stroke="white" stroke-opacity="0.034" stroke-width="1.067"/>
<rect x="1200.15" y="586.852" width="53.35" height="53.35" stroke="white" stroke-opacity="0.034" stroke-width="1.067"/>
<rect x="1253.5" y="586.852" width="53.35" height="53.35" stroke="white" stroke-opacity="0.034" stroke-width="1.067"/>
<rect x="1306.85" y="586.852" width="53.35" height="53.35" stroke="white" stroke-opacity="0.034" stroke-width="1.067"/>
<rect x="1360.2" y="586.852" width="53.35" height="53.35" stroke="white" stroke-opacity="0.034" stroke-width="1.067"/>
<rect x="1413.55" y="586.852" width="53.35" height="53.35" stroke="white" stroke-opacity="0.034" stroke-width="1.067"/>
<rect x="-26.9004" y="640.203" width="53.35" height="53.35" stroke="white" stroke-opacity="0.034" stroke-width="1.067"/>
<rect x="26.4502" y="640.203" width="53.35" height="53.35" stroke="white" stroke-opacity="0.034" stroke-width="1.067"/>
<rect x="79.7998" y="640.203" width="53.35" height="53.35" stroke="white" stroke-opacity="0.034" stroke-width="1.067"/>
<rect x="133.15" y="640.203" width="53.35" height="53.35" stroke="white" stroke-opacity="0.034" stroke-width="1.067"/>
<rect x="186.5" y="640.203" width="53.35" height="53.35" stroke="white" stroke-opacity="0.034" stroke-width="1.067"/>
<rect x="239.85" y="640.203" width="53.35" height="53.35" stroke="white" stroke-opacity="0.034" stroke-width="1.067"/>
<rect x="293.2" y="640.203" width="53.35" height="53.35" stroke="white" stroke-opacity="0.034" stroke-width="1.067"/>
<rect x="346.55" y="640.203" width="53.35" height="53.35" stroke="white" stroke-opacity="0.034" stroke-width="1.067"/>
<rect x="399.9" y="640.203" width="53.35" height="53.35" stroke="white" stroke-opacity="0.034" stroke-width="1.067"/>
<rect x="453.25" y="640.203" width="53.35" height="53.35" stroke="white" stroke-opacity="0.034" stroke-width="1.067"/>
<rect x="506.6" y="640.203" width="53.35" height="53.35" stroke="white" stroke-opacity="0.034" stroke-width="1.067"/>
<rect x="559.95" y="640.203" width="53.35" height="53.35" stroke="white" stroke-opacity="0.034" stroke-width="1.067"/>
<rect x="613.3" y="640.203" width="53.35" height="53.35" stroke="white" stroke-opacity="0.034" stroke-width="1.067"/>
<rect x="666.649" y="640.203" width="53.35" height="53.35" stroke="white" stroke-opacity="0.034" stroke-width="1.067"/>
<rect x="720" y="640.203" width="53.35" height="53.35" stroke="white" stroke-opacity="0.034" stroke-width="1.067"/>
<rect x="773.35" y="640.203" width="53.35" height="53.35" stroke="white" stroke-opacity="0.034" stroke-width="1.067"/>
<rect x="826.7" y="640.203" width="53.35" height="53.35" stroke="white" stroke-opacity="0.034" stroke-width="1.067"/>
<rect x="880.05" y="640.203" width="53.35" height="53.35" stroke="white" stroke-opacity="0.034" stroke-width="1.067"/>
<rect x="933.399" y="640.203" width="53.35" height="53.35" stroke="white" stroke-opacity="0.034" stroke-width="1.067"/>
<rect x="986.75" y="640.203" width="53.35" height="53.35" stroke="white" stroke-opacity="0.034" stroke-width="1.067"/>
<rect x="1040.1" y="640.203" width="53.35" height="53.35" stroke="white" stroke-opacity="0.034" stroke-width="1.067"/>
<rect x="1093.45" y="640.203" width="53.35" height="53.35" stroke="white" stroke-opacity="0.034" stroke-width="1.067"/>
<rect x="1146.8" y="640.203" width="53.35" height="53.35" stroke="white" stroke-opacity="0.034" stroke-width="1.067"/>
<rect x="1200.15" y="640.203" width="53.35" height="53.35" stroke="white" stroke-opacity="0.034" stroke-width="1.067"/>
<rect x="1253.5" y="640.203" width="53.35" height="53.35" stroke="white" stroke-opacity="0.034" stroke-width="1.067"/>
<rect x="1306.85" y="640.203" width="53.35" height="53.35" stroke="white" stroke-opacity="0.034" stroke-width="1.067"/>
<rect x="1360.2" y="640.203" width="53.35" height="53.35" stroke="white" stroke-opacity="0.034" stroke-width="1.067"/>
<rect x="1413.55" y="640.203" width="53.35" height="53.35" stroke="white" stroke-opacity="0.034" stroke-width="1.067"/>
<rect x="-26.9004" y="693.547" width="53.35" height="53.35" stroke="white" stroke-opacity="0.034" stroke-width="1.067"/>
<rect x="26.4502" y="693.547" width="53.35" height="53.35" stroke="white" stroke-opacity="0.034" stroke-width="1.067"/>
<rect x="79.7998" y="693.547" width="53.35" height="53.35" stroke="white" stroke-opacity="0.034" stroke-width="1.067"/>
<rect x="133.15" y="693.547" width="53.35" height="53.35" stroke="white" stroke-opacity="0.034" stroke-width="1.067"/>
<rect x="186.5" y="693.547" width="53.35" height="53.35" stroke="white" stroke-opacity="0.034" stroke-width="1.067"/>
<rect x="239.85" y="693.547" width="53.35" height="53.35" stroke="white" stroke-opacity="0.034" stroke-width="1.067"/>
<rect x="293.2" y="693.547" width="53.35" height="53.35" stroke="white" stroke-opacity="0.034" stroke-width="1.067"/>
<rect x="346.55" y="693.547" width="53.35" height="53.35" stroke="white" stroke-opacity="0.034" stroke-width="1.067"/>
<rect x="399.9" y="693.547" width="53.35" height="53.35" stroke="white" stroke-opacity="0.034" stroke-width="1.067"/>
<rect x="453.25" y="693.547" width="53.35" height="53.35" stroke="white" stroke-opacity="0.034" stroke-width="1.067"/>
<rect x="506.6" y="693.547" width="53.35" height="53.35" stroke="white" stroke-opacity="0.034" stroke-width="1.067"/>
<rect x="559.95" y="693.547" width="53.35" height="53.35" stroke="white" stroke-opacity="0.034" stroke-width="1.067"/>
<rect x="613.3" y="693.547" width="53.35" height="53.35" stroke="white" stroke-opacity="0.034" stroke-width="1.067"/>
<rect x="666.649" y="693.547" width="53.35" height="53.35" stroke="white" stroke-opacity="0.034" stroke-width="1.067"/>
<rect x="720" y="693.547" width="53.35" height="53.35" stroke="white" stroke-opacity="0.034" stroke-width="1.067"/>
<rect x="773.35" y="693.547" width="53.35" height="53.35" stroke="white" stroke-opacity="0.034" stroke-width="1.067"/>
<rect x="826.7" y="693.547" width="53.35" height="53.35" stroke="white" stroke-opacity="0.034" stroke-width="1.067"/>
<rect x="880.05" y="693.547" width="53.35" height="53.35" stroke="white" stroke-opacity="0.034" stroke-width="1.067"/>
<rect x="933.399" y="693.547" width="53.35" height="53.35" stroke="white" stroke-opacity="0.034" stroke-width="1.067"/>
<rect x="986.75" y="693.547" width="53.35" height="53.35" stroke="white" stroke-opacity="0.034" stroke-width="1.067"/>
<rect x="1040.1" y="693.547" width="53.35" height="53.35" stroke="white" stroke-opacity="0.034" stroke-width="1.067"/>
<rect x="1093.45" y="693.547" width="53.35" height="53.35" stroke="white" stroke-opacity="0.034" stroke-width="1.067"/>
<rect x="1146.8" y="693.547" width="53.35" height="53.35" stroke="white" stroke-opacity="0.034" stroke-width="1.067"/>
<rect x="1200.15" y="693.547" width="53.35" height="53.35" stroke="white" stroke-opacity="0.034" stroke-width="1.067"/>
<rect x="1253.5" y="693.547" width="53.35" height="53.35" stroke="white" stroke-opacity="0.034" stroke-width="1.067"/>
<rect x="1306.85" y="693.547" width="53.35" height="53.35" stroke="white" stroke-opacity="0.034" stroke-width="1.067"/>
<rect x="1360.2" y="693.547" width="53.35" height="53.35" stroke="white" stroke-opacity="0.034" stroke-width="1.067"/>
<rect x="1413.55" y="693.547" width="53.35" height="53.35" stroke="white" stroke-opacity="0.034" stroke-width="1.067"/>
<g filter="url(#filter0_f_3897_53376)">
<rect x="-240" y="-197" width="1920" height="731" fill="url(#paint0_radial_3897_53376)"/>
</g>
<rect x="-239" width="1919" height="800" fill="url(#paint1_radial_3897_53376)"/>
</g>
<defs>
<filter id="filter0_f_3897_53376" x="-670.2" y="-627.2" width="2780.4" height="1591.4" filterUnits="userSpaceOnUse" color-interpolation-filters="sRGB">
<feFlood flood-opacity="0" result="BackgroundImageFix"/>
<feBlend mode="normal" in="SourceGraphic" in2="BackgroundImageFix" result="shape"/>
<feGaussianBlur stdDeviation="215.1" result="effect1_foregroundBlur_3897_53376"/>
</filter>
<radialGradient id="paint0_radial_3897_53376" cx="0" cy="0" r="1" gradientUnits="userSpaceOnUse" gradientTransform="translate(720 -321.556) rotate(90) scale(855.556 1554.86)">
<stop offset="0.015625" stop-color="white" stop-opacity="0.086"/>
<stop offset="0.150527" stop-color="white" stop-opacity="0.386"/>
<stop offset="0.77944" stop-color="white" stop-opacity="0"/>
</radialGradient>
<radialGradient id="paint1_radial_3897_53376" cx="0" cy="0" r="1" gradientUnits="userSpaceOnUse" gradientTransform="translate(720.5 233.258) rotate(90) scale(566.742 1359.47)">
<stop stop-color="#121314" stop-opacity="0.012"/>
<stop offset="0.833333" stop-color="#121314" stop-opacity="0.91"/>
</radialGradient>
<clipPath id="clip0_3897_53376">
<rect width="1920" height="780" fill="white" transform="translate(-240)"/>
</clipPath>
</defs>
</svg>
