<svg xmlns="http://www.w3.org/2000/svg" width="1408" height="720" fill="none" xmlns:v="https://vecta.io/nano"><style><![CDATA[.B{color-interpolation-filters:sRGB}.C{flood-opacity:0}.D{stroke:#3bf5ff}.E{stroke-width:3.5}.F{stroke-linejoin:round}.G{fill:#3bf5ff}.H{fill-opacity:.034}.I{fill-opacity:.439}.J{stroke-linecap:round}.K{fill:#eaebeb}]]></style><g clip-path="url(#N)"><g fill="#121314"><path d="M237.715 603.288c-5.567-257.125 199.092-470.83 456.203-476.382 257.125-5.567 470.832 199.092 476.382 456.203 5.57 257.125-199.091 470.831-456.203 476.381-257.125 5.57-470.83-199.09-476.382-456.202zm926.855-20.067c-5.49-253.952-216.575-456.079-470.527-450.595-253.938 5.497-456.078 216.571-450.595 470.523 5.497 253.938 216.572 456.081 470.51 450.581 253.952-5.48 456.082-216.571 450.582-470.509h.03zm-917.436 19.855c-5.455-251.92 195.071-461.324 446.991-466.78S1155.45 331.367 1160.9 583.287c5.46 251.92-195.065 461.323-447 466.763-251.92 5.46-461.324-195.067-466.78-446.988l.014.014zm910.886-19.72c-5.42-250.333-213.492-449.607-463.84-444.193s-449.607 213.496-444.179 463.83c5.414 250.348 213.496 449.607 463.83 444.177 250.347-5.41 449.609-213.494 444.179-463.827l.01.013z"/><path d="M926.801 826.052c-3.939-.376-7.126.724-9.575 3.285-3.229 3.367-4.314 8.934-3.257 16.727l1.573 1.517c-.557-5.984.459-10.34 3.076-13.067 2.324-2.436 5.26-3.34 8.795-2.756 3.117.529 5.956 2.004 8.489 4.426l1.308 1.336-14.696 15.364c2.491 2.212 5.177 3.451 8.044 3.674 3.09.195 5.762-.891 8.016-3.229 2.937-3.076 4.05-7 3.368-11.801-.654-4.468-2.547-8.197-5.692-11.203-2.63-2.519-5.775-3.939-9.422-4.273h-.027zm13.652 18.635c.139 2.31-.529 4.23-2.004 5.761-1.489 1.545-3.326 2.241-5.483 2.06-1.879-.181-3.73-.974-5.539-2.366l10.771-11.245c1.364 1.754 2.116 3.702 2.241 5.804l.014-.014zm2.421-38.466c1.545-1.545 2.965-2.241 4.245-2.101 1.058.139 2.435 1.015 4.119 2.616 2.825 2.714 5.066 6.123 6.736 10.243 2.032 5.065 1.837 8.851-.557 11.328-1.461 1.545-3.117 1.447-4.954-.306l-14.71-14.098c-.751-.724-.807-1.42-.195-2.115l-1.141-1.086-7.932 8.267 1.141 1.085c1.308-1.308 2.491-1.962 3.59-1.976 1.086-.028 2.283.612 3.619 1.893l12.469 11.94c3.437 3.298 6.443 3.605 9.032.933 1.656-1.74 2.491-4.523 2.519-8.364.028-2.116-.293-5.108-.933-8.977l7.835 7.501.975-.974 3.395-8.628-1.197-1.141c-.542 1.35-1.002 2.226-1.363 2.616-.988 1.044-2.283.807-3.869-.696l-12.163-11.634c-1.336-1.28-2.018-2.463-2.06-3.535s.557-2.282 1.809-3.646l-1.155-1.1-10.368 10.842 1.141 1.085-.028.028zm-456.287 48.333c.293-1.1.209-2.714-.208-4.857l-1.197-4.843c-.613-2.45-.947-4.092-.988-4.941-.056-1.865.459-3.381 1.586-4.564s2.436-1.74 3.939-1.712c1.475.028 2.825.598 4.035 1.753 1.698 1.643 2.408 3.605 2.088 5.957-.237 2.045-1.169 4.008-2.783 5.9l1.628 1.545 6.318-6.596c-1.322-3.076-2.811-5.428-4.523-7.056a12.67 12.67 0 0 0-7.779-3.577c-3.285-.362-5.929.501-7.961 2.617-1.433 1.517-1.99 3.632-1.642 6.346.028.473.557 2.727 1.601 6.777.556 2.199.849 3.716.904 4.523.139 1.837-.292 3.243-1.238 4.245-.794.821-1.698 1.252-2.742 1.266s-1.976-.362-2.797-1.155c-1.462-1.406-2.032-3.173-1.768-5.302.265-1.879 1.1-3.605 2.547-5.136l-1.726-1.642-5.97 6.249c1.058 2.227 2.31 4.036 3.744 5.413 1.948 1.865 4.161 3.048 6.582 3.521 2.812.529 5.094-.139 6.875-2.004.71-.737 1.197-1.642 1.475-2.755v.028zm-11.05-19.539c2.519-2.631 3.939-5.776 4.273-9.422.362-3.924-.724-7.125-3.284-9.575-3.368-3.228-8.949-4.3-16.742-3.242l-1.503 1.558c5.984-.556 10.34.46 13.068 3.076 2.421 2.338 3.34 5.261 2.755 8.795-.515 3.132-1.99 5.971-4.425 8.489l-1.35 1.323-15.35-14.71c-2.213 2.491-3.466 5.163-3.661 8.03-.208 3.103.877 5.775 3.229 8.016 3.076 2.936 7 4.049 11.801 3.367 4.468-.654 8.211-2.56 11.231-5.691l-.042-.014zm-20.123 2.226c-1.545-1.489-2.255-3.312-2.06-5.483.195-1.865.988-3.716 2.38-5.525l11.231 10.758c-1.754 1.364-3.702 2.115-5.79 2.254-2.31.139-4.216-.515-5.761-2.004zm447.255-498.44c-1.28 1.336-2.449 2.031-3.521 2.073s-2.296-.57-3.646-1.809l-1.086 1.141 10.828 10.382 1.085-1.141c-1.559-1.559-2.254-2.978-2.101-4.245.139-1.057 1.002-2.421 2.616-4.119 2.714-2.825 6.123-5.066 10.229-6.722 5.065-2.032 8.851-1.837 11.342.543 1.531 1.475 1.433 3.131-.32 4.94l-14.084 14.724c-.724.752-1.419.807-2.115.223l-1.086 1.141 8.281 7.946 1.099-1.155c-1.308-1.308-1.962-2.491-1.976-3.59-.014-1.072.612-2.282 1.893-3.618l11.94-12.47c3.298-3.437 3.605-6.443.919-9.018-1.726-1.67-4.509-2.505-8.35-2.533-2.116-.028-5.108.293-8.977.933l7.502-7.835-.975-.975-8.628-3.395-1.141 1.197c1.364.556 2.226 1.002 2.616 1.363 1.044 1.016.821 2.297-.682 3.855l-11.648 12.177-.014-.013zm38.744 11.022c-.236 1.071-.904 2.797-1.99 5.135l-9.742 21.125 1.42 1.364 10.674-4.745a54.34 54.34 0 0 1 2.491-.988l2.477-.919c1.364-.501 3.02-1.072 4.968-1.712l-8.948 19.553 1.42 1.364 20.513-8.934c2.686-1.155 4.69-1.907 5.984-2.199 2.575-.627 4.606-.432 6.068.612l1.085-1.141-10.201-9.784-1.099 1.156c2.324 2.212 2.588 4.258.821 6.109-1.601 1.684-4.161 3.298-7.654 4.843l-9.839 4.356 8.92-19.525c.279-.613.529-1.03.724-1.225.445-.445 1.002-.362 1.684.292l1.085-1.141-7.737-7.403-1.1 1.155c2.213 2.212 2.408 4.244.626 6.109-1.823 1.907-4.62 3.674-8.391 5.33l-8.879 3.897 9.06-19.664c.194-.418.403-.738.612-.975.473-.473 1.002-.417 1.628.153l1.127-1.127-7.64-7.306-1.085 1.141c1.127 1.183 1.419 2.895.904 5.107l.014-.013zm-478.735 38.716c.362-3.257-.501-5.929-2.616-7.933-1.503-1.447-3.618-2.004-6.36-1.656-.473.028-2.714.571-6.763 1.587-2.227.556-3.73.863-4.537.918-1.837.139-3.229-.278-4.245-1.238-.821-.794-1.238-1.712-1.266-2.742s.362-1.976 1.155-2.797c1.406-1.461 3.173-2.06 5.302-1.768 1.893.251 3.591 1.114 5.135 2.547l1.657-1.712-6.235-5.984c-2.227 1.058-4.036 2.31-5.428 3.758-1.865 1.948-3.034 4.147-3.521 6.582-.528 2.812.14 5.094 2.004 6.875.71.71 1.643 1.197 2.742 1.461 1.099.293 2.742.209 4.857-.208l4.843-1.197c2.449-.612 4.078-.933 4.94-.96 1.879-.07 3.382.459 4.551 1.572 1.183 1.127 1.74 2.436 1.726 3.925-.042 1.489-.64 2.839-1.768 4.022-1.628 1.684-3.618 2.393-5.942 2.101-2.032-.25-4.022-1.183-5.915-2.797l-1.544 1.628 6.596 6.318c3.09-1.308 5.428-2.811 7.042-4.509 2.087-2.171 3.27-4.773 3.59-7.793zm-4.592-22.128l21.126 9.742 1.363-1.42-4.745-10.674c-.251-.528-.585-1.363-.988-2.491l-.905-2.463a183.02 183.02 0 0 1-1.726-4.982l19.553 8.948 1.364-1.419-8.92-20.5c-1.169-2.699-1.907-4.689-2.199-5.984-.64-2.588-.432-4.606.598-6.081l-1.113-1.114-9.811 10.229 1.155 1.1c2.199-2.311 4.258-2.589 6.109-.822 1.684 1.601 3.298 4.162 4.857 7.669l4.356 9.839-19.511-8.935c-.613-.278-1.016-.515-1.239-.71-.445-.445-.362-1.002.292-1.684l-1.155-1.099-7.403 7.738 1.155 1.099c2.199-2.199 4.23-2.421 6.109-.626 1.907 1.823 3.674 4.62 5.33 8.392l3.911 8.892-19.692-9.059c-.418-.195-.738-.404-.947-.613-.487-.459-.417-1.002.153-1.628l-1.155-1.099-7.292 7.626 1.141 1.086c1.197-1.114 2.895-1.42 5.108-.905 1.085.25 2.797.905 5.135 1.99l-.014-.042zM830.288 816.13c1.962 3.242 6.207 4.286 9.436 2.31 3.256-1.976 4.286-6.207 2.324-9.45s-6.207-4.286-9.45-2.296a6.9 6.9 0 0 0-2.324 9.45l.014-.014zm-115.481 269.26l17.16-131.638 8.224-.71 2.06 18.927 6.207-.668-2.074-18.941c8.392-.988 16.673-2.254 24.87-3.827l3.701 18.676 6.124-1.196-3.702-18.677a372.56 372.56 0 0 0 24.452-5.942l5.302 18.245 5.998-1.74-5.33-18.273c8.072-2.421 16.004-5.149 23.825-8.099l6.903 17.758 5.817-2.255-6.903-17.758c7.808-3.131 15.504-6.513 23.019-10.159l8.433 17.118 5.609-2.742-8.448-17.131a375.14 375.14 0 0 0 22.044-12.136l9.923 16.353 5.344-3.229-9.937-16.366a367.19 367.19 0 0 0 20.903-14l11.356 15.475 5.038-3.674-11.342-15.489c6.722-5.024 13.263-10.285 19.595-15.754l12.65 14.459 4.69-4.105-12.692-14.473c6.262-5.595 12.316-11.398 18.161-17.41l39.843 38.173 4.31-4.509-25.95-24.841-13.889-13.304a368.59 368.59 0 0 0 16.589-18.899l14.988 12.038 3.902-4.871-14.979-12.024c5.191-6.583 10.173-13.346 14.909-20.277l15.94 10.66 3.47-5.191-15.96-10.674a365.84 365.84 0 0 0 13.09-21.473l16.79 9.213 2.99-5.47-16.79-9.212a367.11 367.11 0 0 0 11.18-22.532l17.48 7.682 2.5-5.705-17.45-7.682c3.31-7.682 6.36-15.518 9.15-23.45l18.03 6.123 2.01-5.9-18.05-6.138a357.8 357.8 0 0 0 7.07-24.159l18.49 4.523 1.49-6.054-18.47-4.523c1.92-8.127 3.54-16.366 4.9-24.688l18.82 2.895.96-6.166-18.83-2.908c1.19-8.239 2.1-16.603 2.74-25.008l19.01 1.252.4-6.221-19.01-1.252c.16-2.742.27-5.497.35-8.253l130.78-22.837-131.64-17.159-.7-8.239 18.93-2.06-.68-6.193-18.94 2.074c-.99-8.392-2.27-16.686-3.82-24.883l18.69-3.716c-.37-2.046-.79-4.078-1.21-6.109l-18.67 3.701c-1.72-8.252-3.69-16.407-5.96-24.465l18.26-5.316-1.76-5.984-18.27 5.33c-2.42-8.072-5.13-16.018-8.1-23.826l17.76-6.902-2.25-5.818-17.76 6.903a355.85 355.85 0 0 0-10.15-23.032l17.12-8.434-2.76-5.594-17.13 8.447c-3.78-7.515-7.85-14.863-12.13-22.044l16.36-9.908-3.24-5.331-16.38 9.923c-4.44-7.139-9.1-14.111-13.999-20.903l15.489-11.342-3.69-5.024-15.486 11.342c-5.024-6.722-10.285-13.262-15.768-19.608l14.445-12.665-4.105-4.69-14.459 12.679a357.29 357.29 0 0 0-17.41-18.162l10.103-10.549 3.201-3.34 24.786-25.871-4.509-4.314-38.09 39.788c-6.11-5.748-12.4-11.286-18.885-16.603l12.038-14.988-4.857-3.911-12.024 14.975c-6.569-5.205-13.346-10.173-20.277-14.905l10.66-15.949-5.191-3.465-10.66 15.949c-7-4.607-14.167-8.963-21.487-13.082l9.213-16.783-5.47-2.993-9.199 16.77a368.46 368.46 0 0 0-22.545-11.189l7.696-17.465-5.706-2.505-7.682 17.451c-7.682-3.312-15.503-6.374-23.449-9.143l6.137-18.05-5.901-2.004-6.123 18.036c-7.946-2.63-15.99-4.996-24.159-7.07l4.536-18.481-6.053-1.489-4.523 18.467c-8.128-1.92-16.366-3.535-24.688-4.898l2.908-18.802-6.165-.96-2.895 18.815c-8.266-1.197-16.588-2.115-25.022-2.727l1.253-19.011-6.221-.403-1.253 19.01-8.252-.348-22.838-130.775-17.159 131.638-8.239.696-2.073-18.941-6.193.682 2.074 18.941c-8.392.988-16.687 2.268-24.884 3.813l-3.701-18.676-6.11 1.21 3.716 18.663c-8.253 1.711-16.408 3.688-24.452 5.97l-5.316-18.259-5.998 1.74 5.33 18.272c-8.058 2.436-16.018 5.136-23.825 8.1l-6.903-17.758c-1.948.724-3.869 1.503-5.803 2.269l6.902 17.757a358.57 358.57 0 0 0-23.032 10.146l-8.447-17.104-5.581 2.742 8.434 17.117c-7.501 3.799-14.849 7.835-22.044 12.135l-9.923-16.352-5.33 3.243 9.937 16.366c-7.14 4.439-14.112 9.102-20.889 14.014l-11.356-15.475-5.038 3.674 11.342 15.461c-6.708 5.038-13.263 10.285-19.609 15.768l-12.664-14.446-4.69 4.106 12.678 14.459a357.38 357.38 0 0 0-18.147 17.396l-13.889-13.304-26.163-25.05-4.315 4.509 26.164 25.05 13.875 13.318a369.42 369.42 0 0 0-16.589 18.899l-15.002-12.052-3.897 4.871 14.974 12.024c-5.204 6.569-10.159 13.332-14.904 20.277l-15.949-10.661a209.58 209.58 0 0 0-3.451 5.177l15.948 10.661c-4.606 7-8.962 14.167-13.081 21.487l-16.784-9.213-3.02 5.469 16.784 9.213a353.75 353.75 0 0 0-11.162 22.545l-17.493-7.696-2.505 5.706 17.48 7.682c-3.313 7.682-6.36 15.49-9.158 23.436l-18.05-6.137-2.004 5.9 18.05 6.138c-2.616 7.932-4.996 15.99-7.055 24.145l-18.496-4.523-1.489 6.054 18.468 4.523c-1.921 8.127-3.535 16.366-4.899 24.688l-18.801-2.908-.961 6.165 18.843 2.894c-1.196 8.267-2.115 16.589-2.741 25.009l-19.01-1.253-.432 6.221 19.01 1.252-.347 8.253-130.762 22.851 131.638 17.16.696 8.238-18.94 2.074.668 6.207 18.954-2.06a354.11 354.11 0 0 0 3.827 24.869l-18.676 3.702 1.211 6.109 18.662-3.715c1.726 8.266 3.702 16.421 5.97 24.451l-18.258 5.316 1.739 5.999 18.273-5.33c2.421 8.071 5.149 16.004 8.099 23.825l-17.757 6.903 2.254 5.817 17.758-6.903c3.131 7.807 6.499 15.489 10.159 23.018l-17.118 8.434 2.742 5.58 17.131-8.447c3.8 7.501 7.836 14.849 12.136 22.044l-16.352 9.923 3.214 5.33 16.366-9.937c4.44 7.14 9.102 14.112 14.001 20.903l-15.462 11.342 3.674 5.038 15.49-11.342c5.024 6.722 10.27 13.249 15.767 19.609l-14.459 12.65 4.105 4.69 14.46-12.678c5.58 6.248 11.397 12.316 17.382 18.161l-3.549 3.716-9.742 10.187-23.255 24.284 4.509 4.315 23.227-24.285 13.333-13.917c6.095 5.762 12.399 11.287 18.885 16.603l-12.038 14.988 4.856 3.911 12.025-14.975c6.568 5.205 13.346 10.174 20.262 14.891l-10.66 15.949 5.191 3.465 10.66-15.948c6.986 4.592 14.167 8.962 21.474 13.095l-9.213 16.784 5.455 3.006 9.213-16.784c7.362 3.966 14.863 7.71 22.531 11.175L548.6 940.42l5.706 2.533 7.696-17.466c7.682 3.312 15.503 6.346 23.45 9.143l-6.124 18.036 5.887 2.018 6.137-18.05a365 365 0 0 0 24.16 7.07l-4.537 18.481 6.054 1.49 4.523-18.468c8.141 1.907 16.366 3.535 24.688 4.899l-2.909 18.801 6.165.961 2.909-18.83c8.252 1.211 16.589 2.116 25.008 2.742l-1.252 19.01 6.207.417 1.252-19.01 8.253.348 22.851 130.765.083.08zm17.758-136.245l6.179-47.428c16.7-1.864 33.011-5.01 48.792-9.435l13.054 44.784c-21.863 6.165-44.617 10.215-68.011 12.093l-.014-.014zm123.316-224.963l-2.63-3.41c20.151-23.853 34.666-52.563 41.555-84.029l4.453-.779c-6.958 33.094-22.127 63.293-43.378 88.218zm48.138-89.053l5.887-1.016c-7.042 37.046-23.854 70.753-47.762 98.224l-3.466-4.495c22.434-26.08 38.327-57.838 45.327-92.699l.014-.014zm-54.999 80.132l-47.818-62.18 86.367-15.085c-6.777 28.821-20.165 55.152-38.549 77.265zm-78.546-56.808l121.604 116.455-125.306-88.037 3.702-28.418zm60.134 76.027c-21.292 19.317-47.024 33.832-75.512 41.862l11.328-86.952 64.184 45.09zm5.692 3.994l3.535 2.478c-23.978 22.308-53.482 38.785-86.27 47.163l.571-4.467c31.132-8.253 59.188-24.006 82.15-45.188l.014.014zm7.293 5.122l4.648 3.256c-26.414 25.078-59.355 43.323-96.081 51.965l.779-5.928c34.528-8.503 65.59-25.76 90.654-49.293zm6.527 4.578l52.744 37.047-39.315-51.089c24.494-28.028 41.681-62.527 48.736-100.45l83.306-14.557c-11.259 137.26-118.042 248.747-254.676 265.948l10.939-83.862c37.575-8.684 71.295-27.346 98.252-53.023l.014-.014zm150.05-129.843l7.42-1.294c-10.454 145.221-123.611 263.388-268.234 280.116l.975-7.46c139.682-17.02 248.886-131.067 259.849-271.348l-.01-.014zM806.56 935.298l-13.054-44.784c24.076-7.292 46.886-17.437 68.067-30.046l24.187 39.886c-24.618 14.682-51.172 26.511-79.2 34.944zm207.54-166.652a358.24 358.24 0 0 1-123.01 128.465l-24.187-39.885c44.116-27.472 80.787-65.757 106.324-111.028l40.873 22.448zm34.51-86.117a352.96 352.96 0 0 1-31.49 80.648l-40.887-22.434c11.662-21.71 20.833-44.937 27.057-69.305l45.3 11.091h.02zm1.51-6.04l-45.3-11.091c3.74-15.963 6.16-32.384 7.32-49.154l47.12-8.239c-.84 23.436-3.91 46.357-9.13 68.47l-.01.014zm129.53-91.794l-408.897 71.42.612-4.62.167-1.308-.237.014c12.776-15.503 20.263-35.46 19.804-57.1l388.551-8.406zm-121.32-18.092l-47.43-6.179c-1.87-16.7-5.01-33.01-9.44-48.792l44.79-13.054c6.18 21.877 10.23 44.631 12.08 68.025zM833.392 443.287l-3.41 2.63c-23.853-20.151-52.563-34.666-84.015-41.569l-.779-4.453c33.107 6.972 63.307 22.141 88.218 43.378l-.014.014zm-89.053-48.138l-1.03-5.873c37.046 7.042 70.752 23.854 98.224 47.763l-4.495 3.465c-26.066-22.42-57.838-38.327-92.699-45.327v-.028zm80.118 55.013l-62.166 47.832-15.085-86.367c28.793 6.777 55.151 20.165 77.251 38.535zm59.661-43.072l-88.037 125.306-28.418-3.702L884.118 407.09zm-40.428 61.47c19.316 21.292 33.832 47.024 41.861 75.512l-86.937-11.342 45.09-64.184-.014.014zm3.98-5.678l2.477-3.535c22.309 23.979 38.772 53.496 47.164 86.242l-4.481-.585c-8.253-31.131-24.006-59.187-45.174-82.136l.014.014zm5.122-7.292l3.256-4.649c25.064 26.4 43.323 59.355 51.951 96.067l-5.928-.779c-8.503-34.527-25.76-65.589-49.293-90.653l.014.014zm4.578-6.527l37.06-52.759-51.088 39.315c-28.028-24.493-62.528-41.68-100.451-48.736l-14.557-83.306c137.247 11.273 248.748 118.042 265.949 254.676l-83.862-10.938c-8.698-37.589-27.347-71.324-53.037-98.266l-.014.014zM727.541 298.999l-1.294-7.418c145.207 10.438 263.374 123.622 280.083 268.231l-7.455-.974c-17.02-139.682-131.067-248.887-271.348-259.853l.014.014zm316.969 193.609l-44.786 13.054c-7.292-24.076-17.438-46.886-30.032-68.053l39.888-24.187c14.68 24.619 26.51 51.172 34.94 79.2l-.01-.014zm-38.2-84.516l-39.875 24.173c-27.485-44.13-65.756-80.786-111.027-106.323l22.448-40.874c52.424 29.49 96.735 71.908 128.464 123.01l-.01.014zM872.386 282.048l-22.433 40.888c-21.697-11.677-44.937-20.834-69.306-27.055l11.092-45.298c28.376 7.222 55.416 17.869 80.647 31.493v-.028zm-86.701-32.982l-11.105 45.312c-15.949-3.729-32.371-6.179-49.154-7.32l-8.225-47.108c23.436.835 46.357 3.911 68.47 9.13l.014-.014zm-91.78-129.551l71.42 408.901-4.62-.613-1.308-.167.013.237c-15.489-12.762-35.459-20.263-57.1-19.804l-8.405-388.554zm-26.442 185.371l-10.939 83.862c-37.575 8.684-71.295 27.346-98.238 53.036l-52.758-37.06 39.315 51.088c-24.494 28.028-41.681 62.528-48.723 100.465l-83.319 14.543c11.259-137.261 118.041-248.747 254.676-265.948l-.014.014zM408.222 571.641l-7.417 1.294c10.437-145.207 123.608-263.387 268.216-280.101l-.974 7.459c-139.682 17.02-248.886 131.068-259.839 271.334l.014.014zm163.87-120.143l-3.535-2.477c23.978-22.309 53.482-38.786 86.269-47.164l-.584 4.481c-31.132 8.253-59.188 24.007-82.136 45.174l-.014-.014zm81.19-37.853l-11.342 86.937-64.17-45.076c21.278-19.33 47.024-33.831 75.498-41.847l.014-.014zm-88.483 32.732l-4.648-3.257c26.4-25.064 59.355-43.323 96.067-51.951l-.779 5.929c-34.528 8.503-65.59 25.759-90.654 49.293l.014-.014zm-18.565 11.272l3.438 4.495c-22.42 26.066-38.313 57.824-45.313 92.686l-5.901 1.029c7.042-37.046 23.854-70.752 47.762-98.224l.014.014zm6.277 8.141l2.616 3.424c-20.151 23.853-34.666 52.563-41.569 84.015l-4.439.766c6.944-33.108 22.127-63.294 43.392-88.205zm6.861 8.921l47.818 62.152-86.368 15.086c6.792-28.808 20.18-55.138 38.564-77.252l-.014.014zM516.3 415.05l125.319 88.051-3.701 28.418-121.605-116.455-.013-.014zm159.513-174.209l-6.179 47.428c-16.7 1.865-33.011 5.01-48.792 9.436l-13.04-44.798c21.877-6.179 44.631-10.229 68.011-12.066zm-73.995 13.847l13.054 44.784c-24.076 7.292-46.886 17.438-68.067 30.046l-24.173-39.871a352.17 352.17 0 0 1 79.2-34.945l-.014-.014zm-207.54 166.653c29.489-52.425 71.907-96.735 123.01-128.466l24.201 39.872c-44.13 27.485-80.759 65.756-106.324 111.027l-40.873-22.42-.014-.013zm-34.5 86.102a352.48 352.48 0 0 1 31.494-80.647l40.873 22.448c-11.676 21.696-20.805 44.937-27.054 69.305l-45.299-11.092-.014-.014zm-1.503 6.04l45.299 11.092c-3.757 15.948-6.179 32.37-7.32 49.153l-47.122 8.239c.849-23.45 3.911-46.356 9.129-68.47l.014-.014zm-129.564 91.795l408.887-71.435-.599 4.634-.181 1.295h.223c-12.762 15.489-20.263 35.459-19.804 57.1l-388.554 8.406h.028zm403.153 11.175c-.195-.64-.362-1.281-.543-1.907-.139-.529-.278-1.085-.403-1.628-.154-.599-.293-1.183-.432-1.795l-.376-1.823-.32-1.712c-.111-.668-.195-1.336-.292-2.018l-.209-1.573c-.097-.793-.153-1.572-.236-2.379-.042-.432-.098-.849-.126-1.295-.083-1.224-.153-2.463-.18-3.715-.39-17.814 5.455-34.319 15.517-47.443.695-.918 1.433-1.823 2.185-2.713a76.74 76.74 0 0 1 6.735-7.042 75.12 75.12 0 0 1 18.871-12.692c.195-.084.39-.195.599-.292l2.282-1.002 1.002-.418 2.088-.807c.403-.153.835-.306 1.252-.445.654-.237 1.308-.446 1.99-.655l1.461-.459 1.879-.543a35.58 35.58 0 0 1 1.642-.417l1.81-.418c.612-.139 1.224-.25 1.837-.361l1.711-.32c.668-.112 1.35-.209 2.032-.307a69.54 69.54 0 0 1 1.559-.222c.793-.098 1.586-.167 2.38-.237.431-.042.848-.097 1.28-.111 1.225-.084 2.477-.139 3.73-.167 17.813-.39 34.318 5.455 47.442 15.517.932.71 1.823 1.433 2.713 2.185 2.491 2.101 4.857 4.356 7.056 6.749 5.108 5.581 9.394 11.927 12.664 18.844l.293.598 1.002 2.282.417 1.002.821 2.102a34.75 34.75 0 0 1 .446 1.252c.236.654.445 1.309.668 1.977l.459 1.461.529 1.865.431 1.656.417 1.781.376 1.823c.098.571.209 1.127.32 1.684.112.668.195 1.364.307 2.032l.222 1.559c.098.793.167 1.586.237 2.379.042.432.097.849.111 1.281a81.21 81.21 0 0 1 .167 3.729 74.96 74.96 0 0 1-15.503 47.428 68.58 68.58 0 0 1-2.199 2.728c-2.087 2.505-4.342 4.843-6.736 7.042a76.1 76.1 0 0 1-18.843 12.664c-.209.098-.417.223-.626.32-.738.348-1.503.668-2.255.974l-1.016.432-2.087.807c-.431.153-.849.32-1.28.445-.654.237-1.309.446-1.963.654-.501.167-1.002.307-1.489.46-.612.195-1.252.362-1.865.529l-1.67.417a42.08 42.08 0 0 1-1.781.418c-.612.139-1.225.25-1.823.375l-1.698.306c-.668.112-1.35.209-2.032.307l-1.558.222c-.78.084-1.587.167-2.394.223-.431.042-.849.097-1.28.111-1.225.084-2.478.14-3.716.181-17.813.39-34.305-5.441-47.428-15.503a70.31 70.31 0 0 1-2.7-2.171 77.16 77.16 0 0 1-7.07-6.764c-5.121-5.566-9.407-11.94-12.692-18.871-.083-.194-.181-.375-.264-.57-.362-.752-.682-1.517-1.016-2.296l-.404-.988-.821-2.102c-.139-.417-.292-.821-.445-1.252l-.654-1.991c-.167-.473-.32-.96-.446-1.447l-.069.07zm-217.769 15.252l83.876 10.953c8.684 37.575 27.333 71.309 53.023 98.252l-37.074 52.744 51.102-39.301c28.028 24.494 62.528 41.681 100.451 48.737l14.543 83.319c-137.247-11.273-248.748-118.041-265.949-254.676l.028-.028zM680.837 890.96l1.294 7.417c-145.193-10.451-263.374-123.622-280.102-268.244l7.46.974c17.02 139.682 131.053 248.9 271.348 259.853zM560.708 727.104l-2.464 3.521c-22.308-23.978-38.785-53.481-47.163-86.269l4.481.584c8.266 31.146 24.006 59.188 45.16 82.151l-.014.013zm-37.868-81.203l86.938 11.342-45.076 64.17c-19.317-21.293-33.846-47.039-41.862-75.512zm32.732 88.482l-3.256 4.648c-25.064-26.4-43.323-59.355-51.951-96.067l5.928.779c8.504 34.528 25.746 65.576 49.293 90.654l-.014-.014zm11.273 18.565l4.509-3.452c26.066 22.42 57.824 38.313 92.699 45.327l1.016 5.887c-37.046-7.042-70.752-23.853-98.224-47.762zm8.155-6.263l3.41-2.63c23.853 20.151 52.549 34.68 84.029 41.583l.779 4.426c-33.108-6.973-63.307-22.142-88.218-43.379zm8.921-6.861l62.166-47.831 15.085 86.367c-28.793-6.778-55.152-20.166-77.265-38.55l.014.014zm-59.661 43.045l88.051-125.32 28.418 3.702-116.455 121.604-.014.014zm-174.223-159.5l47.442 6.193c1.865 16.7 4.996 32.997 9.449 48.778l-44.77 13.04c-6.179-21.877-10.243-44.617-12.094-68.011h-.027zm13.861 73.982l44.77-13.04c7.292 24.076 17.423 46.899 30.018 68.066l-39.871 24.174c-14.682-24.619-26.498-51.186-34.931-79.214l.014.014zm38.187 84.53l39.871-24.174c27.486 44.13 65.771 80.773 111.028 106.324l-22.448 40.873c-52.424-29.489-96.721-71.921-128.451-123.023zm133.921 126.043l22.433-40.887c21.696 11.676 44.937 20.833 69.292 27.068l-11.092 45.299a352.87 352.87 0 0 1-80.647-31.494l.014.014zm86.673 32.983l11.105-45.313c15.949 3.73 32.371 6.179 49.154 7.32l8.239 47.122c-23.45-.849-46.357-3.91-68.47-9.129h-.028zm20.374-279.336l4.62.584 1.294.181-.013-.236c15.489 12.761 35.459 20.262 57.1 19.803l8.405 388.557-71.434-408.889h.028zm-150.565 61.832a6.86 6.86 0 0 0-9.435-2.311c-3.257 1.977-4.301 6.193-2.325 9.45s6.207 4.286 9.464 2.31c3.242-1.962 4.272-6.193 2.296-9.449zm83.25 91.349c-1.823 3.326-.613 7.515 2.714 9.338a6.87 6.87 0 0 0 9.338-2.714c1.823-3.326.612-7.515-2.714-9.338s-7.515-.612-9.338 2.714zM927.65 459.444c-1.977-3.256-6.207-4.286-9.45-2.324-3.256 1.977-4.272 6.193-2.31 9.436s6.207 4.286 9.449 2.324c3.257-1.976 4.287-6.207 2.324-9.449l-.013.013zm-440.506 16.408c1.823-3.326.612-7.515-2.714-9.338s-7.501-.598-9.324 2.728-.626 7.501 2.714 9.338c3.326 1.823 7.501.598 9.352-2.728h-.028zm90.946-101.995c-1.976-3.257-6.193-4.273-9.45-2.324-3.242 1.962-4.286 6.206-2.31 9.435 1.962 3.243 6.207 4.287 9.45 2.324 3.256-1.976 4.286-6.207 2.31-9.435zm254.564 1.364c1.823-3.327.612-7.515-2.714-9.339s-7.515-.612-9.324 2.728c-1.823 3.326-.612 7.515 2.714 9.338s7.515.613 9.338-2.714l-.014-.013zm100.632 345.51c1.823-3.326.612-7.515-2.714-9.339s-7.515-.612-9.338 2.714-.612 7.515 2.714 9.338 7.515.613 9.338-2.713zm-200.971-126.35c-.334-15.531-13.207-27.847-28.738-27.513s-27.848 13.206-27.514 28.738 13.207 27.847 28.738 27.513 27.848-13.207 27.514-28.738zm-27.291 38.647c20.972-.46 37.673-17.883 37.213-38.856s-17.883-37.672-38.869-37.227c-20.973.459-37.673 17.883-37.227 38.869.459 20.973 17.883 37.673 38.855 37.214h.028zm-34.36-37.311c-.404-18.495 14.306-33.873 32.815-34.263 18.496-.404 33.86 14.32 34.263 32.816s-14.32 33.859-32.815 34.262-33.86-14.32-34.263-32.815zm42.654-516.129c0 1.893-.264 3.215-.779 3.98-.626.932-1.809 1.419-3.563 1.447-2.212.042-5.97-.905-11.23-2.853l-17.188-6.36 30.687-11.259a2.55 2.55 0 0 1 .682-.153c.682-.014 1.043.459 1.085 1.392l1.587-.028-.251-11.662-1.586.028c-.126 3.688-2.505 5.595-7.167 5.692-3.647.084-7.515-.64-11.593-2.157l-13.959-5.219 30.687-11.119c.264-.097.487-.153.654-.153.71-.014 1.072.376 1.113 1.197l1.587-.028-.251-11.495-1.586.028c-.042.793-.376 1.573-1.002 2.366-1.128 1.406-3.869 2.895-8.211 4.453L670.511 49.5l.041 1.907 17.215 6.36c3.368 1.253 7 2.909 10.897 4.968l-27.639 10.159.056 1.976 33.233 12.469c6.124 2.282 9.227 4.634 9.324 7.014l1.587-.028-.32-14.821-1.587.028v.056zm495.542 496.659c.3-2.797 3.68-4.703 10.14-5.733 2.85-.46 7.12-.752 12.81-.877l12.26-.264-37.81 29.266.04 1.545 22.28-.487c12.84-.278 19.47 1.6 19.93 5.595l1.58-.042-.31-14.39-1.59.028c-.33 4.008-7.23 6.151-20.69 6.443l-9.78.209 31.67-24.66-.24-10.814-1.58.028c0 1.865-.35 3.159-1.03 3.897-.69.737-1.95 1.113-3.77 1.155l-11.37.236c-14.53.307-22.15-1.517-22.84-5.497l-1.59.028.31 14.307 1.58-.028v.055zM706.791 1133.15c-7.055-.93-10.66-5.06-10.813-12.45l-.069-3.5 18.954-.41.585 12.08 2.31-.06-.084-3.23c-.125-6.16 3.452-9.35 10.786-9.5 1.878-.05 4.035.05 6.443.26l.056 2.51c.167 7.43-2.867 11.24-9.116 11.48l.056 2.39 12.581-.28-.042-1.54c-1.113-.03-1.67-.75-1.698-2.17l-.515-23.54-1.586.03c0 1.95-.362 3.29-1.072 4-.724.72-2.06 1.08-4.05 1.12l-28.501.62c-1.99.04-3.368-.28-4.133-.94-.752-.67-1.155-1.99-1.225-3.95l-1.587.03.529 24.02c.028.81-.459 1.24-1.419 1.28l.042 1.65 13.624 2.41-.056-2.34v.03zM181.7 610.149c2.241-3.494 3.786-5.734 4.621-6.681 2.226-2.616 4.453-3.924 6.693-3.966 1.796-.041 3.299.543 4.509 1.782 1.128 1.21 1.712 2.713 1.74 4.55.056 2.505-.932 4.551-2.978 6.152-1.809 1.447-4.022 2.268-6.624 2.477l.041 2.407 10.354-.222c1.058-3.285 1.545-5.887 1.503-7.849-.069-3.577-1.21-6.806-3.368-9.659-2.421-3.145-5.344-4.703-8.795-4.62-1.197.028-2.366.334-3.451.863-1.267.626-2.269 1.405-3.048 2.352-1.141 1.391-2.616 3.507-4.425 6.346-2.158 3.382-3.633 5.525-4.44 6.471-2.032 2.255-4.272 3.41-6.666 3.465-2.31.056-4.147-.64-5.567-2.087-1.405-1.434-2.143-3.312-2.199-5.65-.055-2.951 1.142-5.372 3.619-7.293 2.24-1.767 4.885-2.686 7.918-2.741l-.055-2.338-11.857.25c-1.322 3.605-1.949 6.847-1.879 9.728.083 3.813 1.406 7.251 3.966 10.368 2.728 3.34 5.929 4.982 9.631 4.899 2.421-.056 4.55-1.044 6.429-2.979.932-.932 2.366-2.95 4.314-6.039l.014.014zm135.116-190.403l-1.587-.946-.779-3.229c-1.768-7.696-2.95-11.384-5.845-13.137-1.962-1.155-4.328-1.266-6.026 1.6-1.03 1.754-1.002 3.73-.779 5.066l-2.338-.25c-.334-2.004-.042-4.384 1.266-6.611 2.449-4.147 6.332-4.217 9.102-2.588 3.548 2.101 4.912 6.387 6.415 12.761l.515 2.38.042.042 5.135-8.67 2.171 1.28-7.278 12.316-.014-.014zm-4.498-30.849l-.042.042-.153 4.439-2.282-.668.237-5.553 1.308-2.226 19.274 11.397-1.489 2.519-16.839-9.964-.014.014zm20.209-18.234c6.555 3.883 8.74 8.434 6.207 12.72-2.227 3.758-7.265 4.231-13.68.515-6.472-3.827-8.378-8.712-6.068-12.636 2.394-4.064 7.39-4.245 13.527-.612l.014.013zm-5.887 10.647c5.01 2.95 8.782 3.103 10.173.737 1.587-2.672-.779-5.789-5.692-8.698-4.759-2.811-8.586-3.437-10.173-.737-1.35 2.296.459 5.58 5.706 8.684l-.014.014zm1.085-25.465c2.199 1.308 2.268 3.41 1.419 4.871-.96 1.628-2.894 2.171-4.773 1.044-2.018-1.183-2.408-3.187-1.434-4.857 1.016-1.712 2.951-2.143 4.788-1.058zm-2.756 4.787c1.308.78 2.742.599 3.382-.459.612-1.03.111-2.393-1.252-3.201-1.016-.598-2.603-.849-3.354.432-.766 1.294.097 2.547 1.238 3.215l-.014.013zm135.426-114.048l-.905-1.628.974-3.173c2.38-7.529 3.243-11.314 1.643-14.278-1.1-1.99-3.076-3.299-5.998-1.684-1.782.974-2.756 2.7-3.243 3.966l-1.879-1.406c.724-1.892 2.185-3.799 4.454-5.065 4.216-2.324 7.598-.418 9.157 2.393 2.004 3.619.988 8.002-.947 14.251l-.765 2.324.042.042 8.795-4.843 1.225 2.199-12.511 6.916-.042-.014zm23.686-13.075l-2.95-5.344-9.101 5.038-.975-1.753 1.837-17.341 2.867-1.586 6.736 12.191 2.742-1.517 1.155 2.074-2.742 1.517 2.95 5.344-2.505 1.391-.014-.014zm-4.105-7.417l-3.618-6.541-1.601-3.131-.069.069-.042 3.772-1.113 9.324.041.042 6.402-3.535zm18.868-13.808c3.688 6.666 3.242 11.704-1.1 14.098-3.841 2.115-8.405-.028-12.052-6.486-3.632-6.582-2.797-11.759 1.183-13.958 4.12-2.282 8.517.111 11.969 6.346zm-10.48 6.165c2.812 5.094 5.985 7.125 8.392 5.803 2.714-1.489 2.269-5.385-.501-10.382-2.658-4.829-5.636-7.306-8.392-5.803-2.31 1.281-2.435 5.052.501 10.382zm13.879-21.393c1.253 2.254.223 4.091-1.238 4.913-1.643.918-3.577.403-4.649-1.531-1.127-2.046-.445-3.98 1.239-4.913 1.754-.974 3.632-.348 4.662 1.517l-.014.014zm-4.801 2.742c.724 1.336 2.06 1.92 3.145 1.308 1.058-.585 1.294-2.018.543-3.382-.571-1.044-1.809-2.06-3.118-1.336s-1.21 2.241-.57 3.41zm390.305 10.267c.501.891 1.851 2.602 3.688 3.604 3.423 1.837 5.664.237 6.513-1.419 1.461-2.77-.39-5.288-2.978-6.68l-1.489-.793 1.085-2.004 1.489.793c1.935 1.044 4.941 1.378 6.193-.96.849-1.573.599-3.521-1.851-4.829-1.572-.849-3.465-.961-4.634-.822l.348-2.324c1.447-.195 3.855.126 5.97 1.267 3.883 2.101 4.398 5.344 3.104 7.751-1.086 2.032-3.243 3.104-6.138 2.686l-.041.042c2.171 1.809 3.159 4.69 1.683 7.445-1.697 3.146-5.65 4.593-10.367 2.046-2.213-1.183-3.772-2.936-4.412-4.105l1.837-1.67v-.028zm31.814 8.104c-3.618 6.707-8.086 9.059-12.469 6.707-3.855-2.073-4.509-7.097-1.058-13.638 3.563-6.624 8.378-8.712 12.372-6.555 4.161 2.241 4.523 7.223 1.141 13.499l.014-.013zm-10.869-5.47c-2.756 5.122-2.756 8.879-.334 10.187 2.728 1.475 5.748-1.016 8.461-6.04 2.617-4.843 3.09-8.711.334-10.187-2.338-1.252-5.566.668-8.461 6.04zm26.439 13.854c-3.618 6.708-8.086 9.06-12.469 6.708-3.855-2.074-4.509-7.098-1.058-13.638 3.577-6.611 8.378-8.712 12.372-6.555 4.161 2.24 4.523 7.223 1.141 13.499l.014-.014zm-10.869-5.469c-2.769 5.135-2.755 8.879-.334 10.187 2.728 1.475 5.748-1.016 8.461-6.04 2.617-4.843 3.09-8.712.334-10.187-2.338-1.253-5.566.668-8.461 6.04zm25.498.09c-1.211 2.269-3.326 2.408-4.815 1.615-1.656-.905-2.269-2.798-1.225-4.732 1.113-2.06 3.089-2.533 4.787-1.614 1.754.946 2.255 2.866 1.253 4.731zm-4.899-2.56c-.724 1.336-.487 2.769.599 3.354 1.071.57 2.393 0 3.131-1.378.556-1.03.751-2.644-.557-3.34-1.322-.71-2.533.195-3.173 1.364zM1058.1 354.175c-.05 1.03.18 3.187 1.23 5.01 1.93 3.382 4.67 3.201 6.27 2.241 2.7-1.587 2.48-4.704 1.02-7.251l-.83-1.475 1.99-1.127.83 1.475c1.09 1.92 3.47 3.771 5.78 2.463 1.55-.89 2.38-2.658.98-5.079-.89-1.559-2.43-2.658-3.5-3.146l1.53-1.781c1.32.599 3.2 2.143 4.4 4.231 2.18 3.827.9 6.861-1.47 8.225-2 1.141-4.39.918-6.62-.975l-.04.042c.87 2.658.19 5.622-2.53 7.181-3.12 1.781-7.23.905-9.89-3.757-1.23-2.185-1.65-4.495-1.57-5.804l2.45-.445-.03-.028zm8.76 15.35c-.06 1.03.18 3.187 1.22 5.01 1.93 3.382 4.68 3.201 6.28 2.241 2.7-1.587 2.47-4.704 1.01-7.251l-.83-1.475 1.97-1.141.84 1.475c1.08 1.92 3.46 3.771 5.77 2.463 1.56-.891 2.37-2.672.99-5.079-.89-1.559-2.43-2.659-3.5-3.146l1.53-1.781c1.32.598 3.2 2.143 4.39 4.231 2.19 3.827.91 6.861-1.46 8.224-2 1.142-4.4.919-6.62-.974l-.04.042c.87 2.658.19 5.622-2.54 7.181-3.11 1.781-7.22.905-9.88-3.757-1.24-2.185-1.65-4.496-1.57-5.804l2.45-.445-.01-.014zm22.71 23.713c-6.61 3.771-11.67 3.396-14.13-.905-2.16-3.799-.08-8.405 6.32-12.135 6.53-3.716 11.73-2.964 13.99.988 2.33 4.092.02 8.517-6.18 12.052zm-6.34-10.396c-5.05 2.881-7.02 6.082-5.66 8.475 1.53 2.7 5.41 2.185 10.38-.64 4.79-2.727 7.23-5.747 5.67-8.475-1.31-2.31-5.08-2.38-10.39.64zm21.59 13.566c-2.23 1.28-4.09.278-4.93-1.169-.93-1.628-.46-3.577 1.45-4.676 2.02-1.155 3.97-.515 4.93 1.169.98 1.74.4 3.632-1.45 4.676zm-2.78-4.759c-1.33.765-1.9 2.087-1.27 3.159.6 1.043 2.03 1.28 3.39.501 1.03-.585 2.04-1.837 1.3-3.132s-2.26-1.169-3.41-.514l-.01-.014z"/></g><g fill="#be93e4"><path d="M493.258 806.199c-116.859-116.859-116.859-306.989 0-423.847s307.002-116.873 423.861-.014 116.861 306.988 0 423.847-306.989 116.858-423.847 0l-.014.014zm421.245-421.245c-115.412-115.411-303.218-115.425-418.643 0s-115.411 303.203.014 418.628 303.217 115.426 418.629.014 115.427-303.217 0-418.642zM497.539 801.908c-114.493-114.493-114.507-300.795 0-415.302s300.795-114.479 415.288.014 114.503 300.796 0 415.302-300.796 114.507-415.302 0l.014-.014zm413.98-413.98c-113.783-113.783-298.903-113.783-412.686 0s-113.783 298.903 0 412.686 298.903 113.783 412.686 0 113.781-298.903 0-412.686z"/></g><path d="M912.079 603.331c-1.991 1.572-2.993 3.493-2.993 5.775.014 2.992 1.977 6.068 5.929 9.213h1.392c-2.923-2.533-4.384-4.996-4.384-7.446 0-2.171.96-3.882 2.853-5.191 1.684-1.127 3.646-1.725 5.914-1.711a28.37 28.37 0 0 1 1.211.041v13.667c2.143-.084 3.925-.696 5.358-1.879 1.531-1.28 2.282-2.978 2.282-5.066 0-2.727-1.238-5.052-3.688-6.972-2.282-1.781-4.829-2.658-7.626-2.672-2.338 0-4.439.738-6.262 2.199l.014.042zm14.626 2.574c1.086 1.002 1.628 2.185 1.642 3.563 0 1.392-.543 2.519-1.628 3.382-.96.765-2.157 1.21-3.618 1.363l-.014-10.006c1.405.209 2.616.78 3.618 1.698zm-15.976-18.927c.041-1.405.375-2.351 1.043-2.852.543-.404 1.587-.613 3.062-.613 2.505 0 5.066.585 7.668 1.768 3.187 1.461 4.788 3.284 4.787 5.511 0 1.363-.807 2.059-2.421 2.059l-13.096-.014c-.668 0-1.016-.292-1.029-.89l-1.016.014v7.375h1.029c.042-1.182.293-2.017.78-2.505s1.322-.737 2.519-.737l11.091-.014c3.062 0 4.593-1.197 4.607-3.577-.014-1.544-.849-3.214-2.547-4.996-.932-.988-2.408-2.24-4.426-3.757h6.959v-.891l-2.255-5.511h-1.057c.348.877.528 1.475.528 1.837 0 .919-.695 1.392-2.101 1.406h-10.827c-1.197 0-2.032-.251-2.533-.724-.487-.487-.751-1.308-.779-2.505h-1.03v9.63l1.016.014.028-.028zM720.445 812.192c-.361-.64-1.113-1.363-2.254-2.171-.084-.083-1.002-.64-2.714-1.711-1.364-.863-2.254-1.475-2.644-1.865-.849-.849-1.294-1.768-1.294-2.825s.362-1.893 1.057-2.533 1.587-.974 2.645-.974c1.503 0 2.713.598 3.618 1.837.793 1.043 1.239 2.38 1.336 3.98h1.447v-5.873c-1.99-.849-3.715-1.266-5.232-1.28-1.935-.014-3.66.598-5.205 1.809-1.684 1.294-2.533 2.867-2.533 4.759 0 1.336.696 2.561 2.06 3.674.208.209 1.475 1.03 3.743 2.436 1.239.765 2.046 1.35 2.436 1.684.876.793 1.308 1.642 1.308 2.533 0 .723-.237 1.322-.71 1.795s-1.072.71-1.809.724c-1.308 0-2.352-.571-3.173-1.67-.71-.989-1.1-2.158-1.1-3.521h-1.53l.014 5.552c1.475.557 2.852.849 4.147.835 1.725 0 3.27-.431 4.62-1.28 1.531-1.002 2.31-2.31 2.31-3.98.014-.654-.181-1.294-.543-1.935zm-13.805-4.147a9.76 9.76 0 0 0-2.199-6.262c-1.572-1.99-3.507-2.978-5.775-2.992-3.006 0-6.068 1.976-9.213 5.928v1.392c2.533-2.923 5.024-4.384 7.445-4.384 2.171 0 3.883.96 5.191 2.853 1.155 1.684 1.726 3.646 1.712 5.915a27.12 27.12 0 0 1-.042 1.21h-13.666c.084 2.144.696 3.925 1.865 5.344 1.28 1.531 2.978 2.283 5.052 2.297 2.727 0 5.052-1.239 6.972-3.688 1.781-2.283 2.672-4.843 2.672-7.627l-.014.014zm-8.364 9.979c-1.378-.014-2.519-.543-3.396-1.643-.737-.96-1.196-2.171-1.363-3.618h9.992c-.209 1.406-.779 2.616-1.698 3.618-1.002 1.086-2.185 1.629-3.563 1.643h.028zm-13.944-430.11c0 1.197-.237 2.018-.71 2.519-.487.487-1.308.751-2.505.779l-.014 1.016h9.63v-1.002c-1.419-.028-2.352-.376-2.853-1.044-.403-.542-.598-1.572-.612-3.061 0-2.505.585-5.066 1.767-7.668 1.448-3.201 3.285-4.788 5.511-4.788 1.364 0 2.06.807 2.046 2.436v13.081c0 .668-.292 1.016-.89 1.03l-.014 1.016h7.376v-1.03c-1.197-.028-2.018-.292-2.505-.779s-.724-1.336-.738-2.519v-11.106c0-3.061-1.197-4.592-3.577-4.606-1.531 0-3.214.849-4.996 2.547-.988.932-2.24 2.407-3.757 4.425v-6.958h-.891l-5.511 2.254v1.058c.877-.348 1.475-.529 1.809-.529.947 0 1.392.696 1.406 2.102v10.827h.028zm22.879-12.108c.362.613.821 1.684 1.35 3.271l4.884 14.125h1.281l2.839-6.958a17.43 17.43 0 0 1 .723-1.559l.738-1.517c.417-.835.918-1.837 1.559-3.006l4.536 13.054 1.267-.014 5.553-13.262c.737-1.74 1.322-2.965 1.795-3.688.918-1.448 1.948-2.255 3.089-2.422l.014-1.016-9.087-.014v1.03c2.059 0 3.103.821 3.089 2.477 0 1.503-.459 3.382-1.391 5.651l-2.631 6.387-4.537-13.026c-.139-.417-.208-.71-.222-.89 0-.418.306-.613.918-.613v-1.03h-6.875v1.03c2.018.042 3.006.891 3.006 2.561s-.514 3.771-1.53 6.207l-2.394 5.761-4.537-13.165c-.097-.292-.153-.515-.139-.724 0-.417.278-.64.821-.654v-1.029l-6.777.013.014 1.016c1.043.042 1.934.71 2.685 1.963l-.041.041zM502.245 606.545c-1.28-1.67-2.866-2.533-4.745-2.519-1.336 0-2.575.682-3.688 2.046-.209.209-1.002 1.475-2.435 3.744-.78 1.252-1.337 2.059-1.698 2.449-.794.877-1.615 1.308-2.505 1.308-.724 0-1.336-.25-1.809-.723s-.71-1.072-.724-1.81c0-1.308.556-2.365 1.67-3.173 1.002-.723 2.171-1.085 3.521-1.099v-1.531l-5.553-.014c-.557 1.475-.835 2.867-.849 4.161 0 1.726.431 3.271 1.28 4.621 1.002 1.531 2.324 2.324 3.981 2.31.64 0 1.294-.181 1.92-.529.64-.362 1.364-1.113 2.171-2.254a210.44 210.44 0 0 0 1.712-2.714c.863-1.364 1.475-2.255 1.865-2.644.849-.849 1.767-1.295 2.825-1.295 1.044.014 1.892.362 2.533 1.058.654.71.96 1.6.96 2.658 0 1.503-.612 2.728-1.823 3.632-1.058.78-2.38 1.239-3.98 1.336v1.448h5.872c.849-1.99 1.267-3.716 1.267-5.219.014-1.935-.612-3.674-1.795-5.219l.027-.028zm-11.982-8.224l14.14-4.871-.014-1.267-6.945-2.853c-.362-.139-.877-.375-1.572-.709l-1.517-.738-3.02-1.545 13.054-4.537-.014-1.266-13.263-5.553c-1.753-.723-2.964-1.322-3.688-1.795-1.447-.919-2.254-1.948-2.421-3.09l-1.016-.013-.014 9.087h1.03c0-2.06.835-3.089 2.477-3.089 1.503 0 3.382.459 5.65 1.391l6.388 2.631-13.026 4.536c-.418.14-.71.209-.891.223-.404-.014-.612-.306-.612-.918l-1.016.013v6.875l1.016-.014c.042-1.99.89-3.006 2.56-3.006 1.698 0 3.758.501 6.207 1.531l5.762 2.394-13.165 4.537c-.279.083-.515.153-.724.139-.418 0-.64-.278-.654-.821l-1.016.014.014 6.777 1.016.014c.055-1.058.723-1.948 1.962-2.686.612-.362 1.712-.821 3.27-1.35l.042-.041zm372.62 43.294a4.43 4.43 0 0 0 5.414-3.131c.64-2.366-.78-4.787-3.132-5.413s-4.773.765-5.413 3.131c-.627 2.352.765 4.773 3.131 5.413zm66.063 176.283l-50.546-68.72 3.507-3.981 9.38 7.877 2.588-3.061-9.379-7.877c3.451-4.175 6.735-8.462 9.853-12.831l10.02 7.014 2.31-3.285-10.02-7.014c3.075-4.467 5.97-9.004 8.698-13.624l10.563 6.109 2.004-3.479-10.591-6.109c2.658-4.718 5.149-9.492 7.445-14.349l11.092 5.164 1.684-3.633-11.106-5.177c2.227-4.926 4.287-9.908 6.179-14.946l11.523 4.203 1.378-3.772-11.523-4.203c1.809-5.093 3.396-10.242 4.829-15.433l11.871 3.187 1.044-3.883-11.899-3.187c1.336-5.233 2.505-10.493 3.479-15.782l12.136 2.144.709-3.939-12.149-2.157a230.06 230.06 0 0 0 2.102-16.018l12.302 1.085.348-3.994-12.316-1.071c.417-5.372.654-10.758.695-16.144h35.46v-4.008h-23.102-12.358c-.041-5.385-.278-10.771-.695-16.143l12.316-1.072-.348-3.994-12.289 1.072c-.514-5.358-1.21-10.702-2.101-16.018l12.135-2.143-.695-3.953-12.136 2.143c-.974-5.288-2.129-10.562-3.479-15.781l11.899-3.187-1.03-3.869-11.885 3.173c-1.419-5.177-3.034-10.326-4.829-15.434l11.523-4.202-1.364-3.758-11.523 4.203c-1.879-5.052-3.938-10.034-6.179-14.947l11.106-5.177-1.684-3.632-11.106 5.177c-2.296-4.857-4.801-9.644-7.445-14.348l10.59-6.109-1.99-3.466-10.59 6.11c-2.728-4.621-5.637-9.171-8.698-13.625l10.02-7.014-2.296-3.27-10.034 7.028c-3.104-4.356-6.388-8.642-9.853-12.831l9.379-7.877-2.574-3.076-9.38 7.877c-1.141-1.336-2.324-2.658-3.507-3.98l50.545-68.721-68.72 50.546-3.98-3.507 7.876-9.38c-1.015-.877-2.031-1.726-3.075-2.575l-7.877 9.38a227.45 227.45 0 0 0-12.831-9.853l7.028-10.034-3.271-2.296-7.014 10.02c-4.467-3.076-9.004-5.97-13.624-8.698l6.109-10.591-3.479-2.004-6.109 10.591c-4.718-2.658-9.492-5.149-14.348-7.446l5.177-11.105-3.619-1.698-5.177 11.106c-4.912-2.241-9.909-4.287-14.946-6.179l4.202-11.523-3.757-1.364-4.203 11.523c-5.093-1.809-10.243-3.396-15.433-4.829l3.186-11.871-3.868-1.03-3.187 11.899a239 239 0 0 0-15.782-3.48l2.143-12.135-3.952-.696-2.143 12.136a230.06 230.06 0 0 0-16.018-2.102l1.071-12.288-3.994-.348-1.071 12.316c-5.372-.417-10.758-.654-16.144-.696v-9.38-2.978-23.018h-4.008v35.376c-5.386.042-10.771.279-16.143.696l-1.072-12.316-3.994.348 1.086 12.302c-5.358.515-10.702 1.211-16.032 2.088l-2.13-12.15-3.952.696 2.143 12.136c-5.288.974-10.563 2.129-15.781 3.479l-3.173-11.885-3.869 1.03 3.187 11.871a235.32 235.32 0 0 0-15.434 4.829l-4.203-11.523-3.757 1.364 4.189 11.509c-5.038 1.865-10.034 3.938-14.947 6.179l-5.177-11.106-3.632 1.684 5.177 11.106c-4.857 2.296-9.631 4.787-14.362 7.459l-6.11-10.591-3.479 2.004 6.11 10.591c-4.621 2.728-9.171 5.636-13.625 8.698l-7.014-10.02-3.27 2.296 7.014 10.02a226.04 226.04 0 0 0-12.831 9.853l-7.877-9.38-3.076 2.575 7.863 9.366c-1.336 1.141-2.658 2.324-3.98 3.507l-68.721-50.546 50.546 68.721-3.521 3.994-9.366-7.863c-.877 1.016-1.726 2.032-2.575 3.076l9.38 7.877c-3.465 4.189-6.736 8.461-9.853 12.831l-10.02-7.014-2.31 3.284 10.02 7.014a234.82 234.82 0 0 0-8.712 13.639l-10.591-6.11-2.004 3.479 10.591 6.11a226.1 226.1 0 0 0-7.445 14.348l-11.092-5.163-1.684 3.632 11.105 5.177a225.55 225.55 0 0 0-6.179 14.947l-11.509-4.189-1.363 3.757 11.523 4.203c-1.81 5.094-3.396 10.243-4.83 15.434l-11.87-3.187-1.03 3.869 11.898 3.187c-1.336 5.232-2.505 10.493-3.479 15.781l-12.149-2.129-.696 3.952 12.136 2.143c-.877 5.303-1.587 10.661-2.088 16.032l-12.288-1.071-.348 3.994 12.316 1.071c-.418 5.372-.654 10.758-.696 16.144h-12.358l-23.283.014v4.008l23.283-.014h12.358c.042 5.386.279 10.771.696 16.143l-12.316 1.072.348 3.994 12.288-1.072c.501 5.372 1.211 10.702 2.088 16.032l-12.136 2.144.71 3.938 12.135-2.143a227.8 227.8 0 0 0 3.48 15.781l-11.885 3.173 1.029 3.869 11.871-3.187c1.434 5.191 3.034 10.326 4.829 15.434l-11.523 4.203 1.364 3.757 11.523-4.203a217.04 217.04 0 0 0 6.179 14.947l-11.105 5.177 1.684 3.632 11.105-5.177c2.31 4.843 4.788 9.631 7.446 14.348l-10.591 6.11 2.004 3.479 10.591-6.109c2.727 4.62 5.636 9.171 8.698 13.624l-10.02 7.014 2.296 3.298 10.034-7.028c3.117 4.37 6.388 8.643 9.853 12.832l-9.38 7.876a130.23 130.23 0 0 0 2.575 3.076l9.379-7.877 3.507 3.98-50.545 68.721 68.721-50.546 3.98 3.507-7.877 9.38 3.062 2.589 7.877-9.38a225.38 225.38 0 0 0 12.817 9.839l-7.014 10.02 3.27 2.296 7.014-10.02a231.08 231.08 0 0 0 13.625 8.698l-6.11 10.591 3.479 2.004 6.11-10.591c4.704 2.672 9.491 5.15 14.348 7.446l-5.191 11.091 3.632 1.712 5.177-11.105a243.25 243.25 0 0 0 14.933 6.165l-4.203 11.523 3.758 1.364 4.202-11.523c5.094 1.781 10.243 3.395 15.434 4.829l-3.173 11.884a120.93 120.93 0 0 0 3.869 1.03l3.173-11.885c5.233 1.336 10.493 2.505 15.782 3.48l-2.144 12.135 3.939.71 2.143-12.136a230.06 230.06 0 0 0 16.018 2.102l-1.072 12.288c1.336.139 2.659.237 3.995.348l1.071-12.316c5.372.417 10.758.654 16.144.696v3.312l-.001 9.046v21.598h4.009l-.014-21.584v-12.386c5.385-.042 10.757-.265 16.143-.696l1.072 12.316 3.994-.348-1.086-12.302c5.358-.515 10.716-1.225 16.018-2.101l2.143 12.135c1.323-.209 2.645-.445 3.953-.696l-2.129-12.149c5.288-.974 10.562-2.129 15.781-3.479l3.173 11.885 3.869-1.03-3.173-11.885c5.191-1.434 10.326-3.034 15.434-4.829l4.202 11.523 3.772-1.35-4.203-11.523c5.038-1.865 10.02-3.953 14.947-6.179l5.163 11.091 3.632-1.684-5.177-11.105a237.18 237.18 0 0 0 14.348-7.446l6.109 10.591 3.48-2.004-6.11-10.59c4.621-2.728 9.171-5.637 13.639-8.712l7.014 10.02 3.298-2.297-7.028-10.034c4.37-3.117 8.642-6.387 12.817-9.839l7.877 9.38 3.076-2.574-7.877-9.38c1.336-1.141 2.658-2.324 3.994-3.521l68.721 50.545zm-52.299-71.114l-18.217-24.758c6.93-8.294 13.095-16.992 18.453-26.052l25.955 14.988c-7.404 12.581-16.171 24.577-26.205 35.836l.014-.014zm-42.753-159.235l-2.727-.417c-1.253-20.041-7.265-39.802-18.064-57.476l1.726-2.339c11.481 18.468 17.855 39.204 19.065 60.232zm-17.228-62.709l2.282-3.089c13.193 20.318 20.388 43.434 21.487 66.8l-3.604-.543c-1.169-22.072-7.919-43.879-20.165-63.168zm10.075 61.623l-49.822-7.598 33.373-45.396c9.658 16.394 15.155 34.555 16.449 52.994zm-61.693 8.559h108.189l-97.278 14.835-10.911-14.835zm61.693 8.559c-1.294 18.44-6.791 36.601-16.435 52.981l-33.387-45.382 49.822-7.599zm4.412-.682l2.728-.417c-1.225 21.014-7.585 41.764-19.066 60.231l-1.712-2.324c10.771-17.674 16.797-37.45 18.05-57.49zm5.664-.877l3.604-.542c-1.113 23.38-8.294 46.481-21.501 66.814l-2.282-3.09c12.233-19.302 18.982-41.11 20.165-63.168l.014-.014zm5.066-.751l40.943-6.235-40.957-6.248c-1.1-23.895-8.448-47.554-22.03-68.29l32.203-43.782c55.764 68.707 55.764 167.905 0 236.612l-32.203-43.782c13.582-20.736 20.944-44.38 22.03-68.289l.014.014zm11.926-126.962l2.867-3.897c59.689 72.047 59.689 177.174 0 249.22l-2.867-3.896c57.254-69.973 57.268-171.44 0-241.427zm51.019 233.16l-25.955-14.988c7.933-14.084 14.014-28.933 18.245-44.186l28.947 7.766c-4.899 17.758-11.969 35.042-21.223 51.422l-.014-.014zm22.267-169.589a229.98 229.98 0 0 1 0 114.284l-28.947-7.765c8.266-32.371 8.266-66.411 0-98.781l28.933-7.752.014.014zm-22.267-55.305a226.6 226.6 0 0 1 21.223 51.423l-28.947 7.765c-4.231-15.253-10.312-30.102-18.245-44.186l25.955-14.988.014-.014zm-1.99-3.465l-25.955 14.988c-5.358-9.059-11.537-17.771-18.453-26.052l18.217-24.758c10.034 11.259 18.787 23.241 26.205 35.836l-.014-.014zm19.33-100.186L764.144 593.812l-1.767-2.408-.488-.682-.111.111c-.96-12.873-6.346-25.467-16.185-35.306l176.589-176.589-.014-.014zm-64.351 45.535l-24.758 18.217c-8.294-6.93-16.992-13.096-26.052-18.453l14.989-25.955c12.58 7.404 24.577 16.171 35.835 26.205l-.014-.014zm-159.221 42.738l-.403 2.742c-20.026 1.239-39.802 7.264-57.462 18.05l-2.338-1.726c18.467-11.481 39.217-17.869 60.217-19.08l-.014.014zm-62.708 17.229l-3.09-2.282c20.318-13.193 43.434-20.388 66.814-21.501l-.543 3.604c-22.071 1.169-43.879 7.919-63.167 20.165l-.014.014zm61.623-10.075l-7.599 49.821-45.382-33.386c16.38-9.644 34.555-15.155 52.981-16.435zm8.559-46.496l14.835 97.278-14.835 10.91V427.855zm8.558 46.496c18.44 1.294 36.601 6.791 52.981 16.435l-45.382 33.386-7.599-49.821zm-.682-4.412l-.417-2.728c21.014 1.225 41.764 7.585 60.231 19.066l-2.338 1.726c-17.674-10.772-37.45-16.798-57.462-18.05l-.014-.014zm-.849-5.664l-.542-3.605c23.38 1.114 46.482 8.295 66.8 21.488l-3.09 2.282c-19.288-12.247-41.096-18.996-63.168-20.165zm-.779-5.066l-6.248-40.957-6.249 40.957c-23.909 1.086-47.553 8.448-68.275 22.016l-43.782-32.203c68.706-55.764 167.905-55.764 236.611 0l-43.782 32.203c-20.735-13.582-44.38-20.944-68.289-22.03l.014.014zm-126.962-11.926l-3.897-2.867c72.033-59.675 177.174-59.689 249.221 0l-3.897 2.867c-69.973-57.254-171.44-57.268-241.427 0zm233.16-51.019l-14.988 25.955c-14.084-7.933-28.933-14.015-44.185-18.245l7.765-28.947c17.758 4.899 35.042 11.968 51.422 21.223l-.014.014zm-55.291-22.253l-7.751 28.933a199.82 199.82 0 0 0-98.781 0l-7.752-28.933a229.98 229.98 0 0 1 114.284 0zm-118.166 1.016l7.765 28.947c-15.253 4.23-30.116 10.298-44.185 18.245l-14.989-25.955c16.38-9.255 33.651-16.338 51.423-21.223l-.014-.014zm-54.902 23.227l14.989 25.955c-9.06 5.358-17.772 11.509-26.066 18.439l-24.758-18.217c11.258-10.034 23.241-18.787 35.835-26.205v.028zm-100.186-19.33l214.888 158.024-2.408 1.767-.668.501.112.112c-12.873.96-25.468 6.346-35.307 16.185L489.999 378.924h-.028zm70.126 97.792l32.19 43.796c-13.583 20.736-20.931 44.367-22.017 68.276l-40.957 6.248 40.957 6.249c1.086 23.909 8.448 47.553 22.03 68.289l-32.203 43.782c-55.764-68.707-55.764-167.905 0-236.612v-.028zm-1.767 239.02l-2.867 3.896c-59.703-72.032-59.689-177.173-.014-249.206l2.867 3.897c-57.253 69.973-57.267 171.44 0 241.427l.014-.014zm22.656-128.591l-2.728.418c1.211-21 7.585-41.764 19.066-60.232l1.726 2.338c-10.771 17.675-16.797 37.45-18.05 57.463l-.014.013zm20.875-53.662l33.372 45.396-49.807 7.585c1.28-18.426 6.791-36.601 16.435-52.981zm-26.539 54.511l-3.604.543c1.099-23.366 8.294-46.482 21.487-66.8l2.268 3.103c-12.246 19.289-18.982 41.11-20.165 63.168l.014-.014zm-3.604 13.486l3.59.556c1.183 22.058 7.933 43.866 20.165 63.168l-2.282 3.09c-13.193-20.319-20.374-43.448-21.487-66.8l.014-.014zm6.54 1.002l2.742.431c1.239 20.026 7.265 39.802 18.05 57.462l-1.712 2.324c-11.495-18.453-17.855-39.203-19.066-60.231l-.014.014zm7.154 1.085l49.821 7.599-33.386 45.382c-9.658-16.394-15.141-34.569-16.435-52.981zm-46.51-8.545l97.292-14.849 10.91 14.835-108.202.014zm-3.396-151.747l18.203 24.771c-6.916 8.281-13.095 16.993-18.439 26.066l-25.955-14.988c7.418-12.595 16.171-24.577 26.205-35.836l-.014-.013zm-28.195 39.3l25.955 14.989c-7.933 14.083-14.014 28.932-18.245 44.185l-28.947-7.765c4.899-17.758 11.969-35.043 21.223-51.423l.014.014zm-22.239 169.589c-9.616-37.45-9.602-76.848 0-114.284l28.947 7.738a199.82 199.82 0 0 0 0 98.781l-28.933 7.751-.014.014zm22.253 55.291c-9.268-16.366-16.338-33.65-21.223-51.422l28.933-7.752c4.231 15.253 10.312 30.102 18.245 44.186l-25.955 14.988zm1.99 3.466l25.955-14.989c5.344 9.074 11.509 17.772 18.439 26.066l-18.216 24.758c-10.034-11.259-18.774-23.255-26.192-35.849l.014.014zm-19.344 100.2l158.024-214.888 1.781 2.422.488.681.111-.111c.974 12.859 6.346 25.468 16.185 35.307L489.971 811.121zM682.063 637.12c-.376-.208-.737-.431-1.085-.64l-.919-.584c-.32-.209-.668-.418-.988-.654-.334-.223-.64-.446-.988-.682l-.905-.654-1.029-.808-.794-.626-1.169-1.002c-.208-.181-.431-.348-.626-.543-.584-.528-1.169-1.085-1.726-1.642-8.099-8.099-12.719-18.342-13.888-28.919a40 40 0 0 1-.195-2.226c-.139-2.088-.139-4.175 0-6.263.32-4.857 1.35-9.672 3.117-14.278.042-.126.097-.265.153-.404.195-.501.404-.988.612-1.475.098-.209.181-.432.279-.64a37.4 37.4 0 0 1 .612-1.309c.111-.25.265-.514.376-.765a24.13 24.13 0 0 1 .626-1.183c.153-.292.32-.57.473-.863.209-.375.418-.723.641-1.085l.584-.919c.223-.334.417-.668.654-.988.223-.334.459-.654.682-.988l.654-.904c.265-.348.529-.696.807-1.03l.627-.794c.32-.403.668-.779 1.002-1.169.194-.194.361-.417.542-.626a48.86 48.86 0 0 1 1.656-1.739c8.1-8.1 18.343-12.72 28.919-13.889.752-.084 1.489-.153 2.227-.195a49.56 49.56 0 0 1 6.262 0c4.843.306 9.659 1.364 14.251 3.117.139.056.265.098.404.153.501.195.988.404 1.475.613.209.097.431.181.64.278.445.195.877.404 1.308.612l.766.376c.403.209.793.404 1.183.626.292.153.57.32.862.473l1.072.627c.306.195.626.375.932.57.334.223.668.418.989.654.334.223.654.46.988.682l.89.64 1.058.808.793.626 1.169 1.002c.195.195.418.362.626.543.585.528 1.169 1.085 1.74 1.656 8.1 8.099 12.72 18.342 13.889 28.891.083.751.153 1.489.195 2.227a47.07 47.07 0 0 1 0 6.262c-.306 4.843-1.364 9.658-3.118 14.251-.055.139-.097.292-.153.431-.195.501-.389.974-.612 1.447-.097.209-.181.432-.292.655-.209.431-.404.876-.599 1.294-.125.264-.264.515-.389.779a30.73 30.73 0 0 1-.613 1.169c-.153.292-.334.585-.487.877-.195.362-.417.724-.626 1.071l-.598.933-.655.988c-.222.334-.459.654-.681.988l-.641.891c-.264.348-.528.696-.821 1.044l-.626.793-1.002 1.169-.543.626c-.529.585-1.085 1.169-1.642 1.726-8.099 8.099-18.342 12.72-28.919 13.889-.751.083-1.475.139-2.226.194a49.42 49.42 0 0 1-6.277.014c-4.857-.32-9.672-1.35-14.278-3.117-.126-.042-.251-.084-.39-.139-.501-.195-.988-.404-1.475-.613l-.613-.278a28.67 28.67 0 0 1-1.322-.626c-.236-.125-.501-.251-.765-.376l-1.183-.626c-.292-.153-.571-.32-.863-.473l-.014.069zm-94.299 103.875l43.782-32.204c20.735 13.583 44.38 20.945 68.289 22.031l6.248 40.956 6.249-40.957c23.909-1.085 47.553-8.447 68.289-22.03l43.782 32.204c-68.706 55.764-167.919 55.778-236.612 0h-.027zm239.019 1.767l3.897 2.867c-72.033 59.675-177.174 59.689-249.207-.014l3.897-2.867c69.973 57.253 171.44 57.267 241.427 0l-.014.014zm-128.59-22.656l.417 2.727c-21.014-1.224-41.778-7.598-60.231-19.066l2.324-1.711c17.674 10.771 37.45 16.797 57.476 18.064l.014-.014zm-53.649-20.862l45.396-33.372 7.599 49.822c-18.44-1.294-36.601-6.791-52.995-16.45zm54.525 26.526l.557 3.59c-23.38-1.113-46.482-8.294-66.8-21.487l3.089-2.283c19.289 12.247 41.096 18.997 63.168 20.166l-.014.014zm13.458 3.604l.557-3.59c22.057-1.183 43.865-7.933 63.167-20.166l3.09 2.283c-20.318 13.193-43.448 20.374-66.814 21.501v-.028zm1.002-6.541l.417-2.727c20.027-1.239 39.802-7.265 57.476-18.036l2.324 1.711c-18.467 11.482-39.217 17.869-60.231 19.066l.014-.014zm1.099-7.139l7.599-49.822 45.396 33.372a121.14 121.14 0 0 1-52.995 16.45zm-8.559 46.496l-14.821-97.292 14.835-10.911-.014 108.203zm-151.747 3.395l24.758-18.217c8.28 6.917 16.992 13.096 26.066 18.44l-14.989 25.955c-12.58-7.404-24.591-16.158-35.835-26.178zm39.314 28.182l14.989-25.955c14.083 7.933 28.933 14.014 44.185 18.245l-7.765 28.947c-17.758-4.899-35.042-11.969-51.409-21.237zm55.292 22.253l7.751-28.933c32.37 8.266 66.411 8.266 98.781 0l7.738 28.946c-37.436 9.603-76.848 9.603-114.284.001l.014-.014zm118.166-1.016l-7.765-28.947c15.252-4.231 30.115-10.299 44.185-18.245l14.989 25.955c-16.38 9.254-33.665 16.324-51.423 21.223l.014.014zm54.888-23.213l-14.989-25.955c9.06-5.358 17.772-11.509 26.053-18.454l24.771 18.203c-11.258 10.034-23.255 18.774-35.835 26.206zM707.294 653.083l2.422-1.782.682-.487-.112-.111c12.873-.96 25.454-6.36 35.293-16.199l176.589 176.589-214.874-158.01zm-42.404 95.621c-2.352-.626-4.773.766-5.4 3.118-.64 2.366.766 4.773 3.118 5.399 2.366.641 4.773-.765 5.413-3.131.627-2.352-.765-4.773-3.131-5.413v.027zm79.242 5.4c.626 2.352 3.061 3.758 5.413 3.131a4.43 4.43 0 0 0 3.132-5.413c-.627-2.352-3.062-3.758-5.414-3.131s-3.758 3.061-3.131 5.413zm5.413-321.295a4.43 4.43 0 0 0-5.413 3.131 4.43 4.43 0 0 0 3.131 5.414c2.366.64 4.773-.765 5.414-3.131s-.766-4.774-3.132-5.414zM552.401 636.188c-.626-2.352-3.061-3.758-5.413-3.131s-3.758 3.061-3.132 5.413 3.048 3.772 5.414 3.131 3.758-3.061 3.131-5.413zm-3.131-87.745a4.43 4.43 0 0 0-5.414 3.131 4.43 4.43 0 0 0 3.132 5.414 4.43 4.43 0 0 0 5.413-3.131 4.43 4.43 0 0 0-3.131-5.414zm118.751-112.516c-.626-2.352-3.061-3.758-5.413-3.132s-3.758 3.062-3.132 5.414 3.062 3.757 5.414 3.131 3.757-3.062 3.131-5.413zm200.262 115.619c-.627-2.351-3.062-3.757-5.4-3.117-2.352.626-3.758 3.062-3.131 5.414s3.061 3.757 5.413 3.131 3.758-3.062 3.132-5.414l-.014-.014zm-149.424 30.687c-7.056-7.056-18.509-7.07-25.565-.014s-7.056 18.495.014 25.565 18.495 7.056 25.551 0a18.07 18.07 0 0 0 0-25.551zm4.495 30.074c9.533-9.533 9.533-25.036 0-34.569s-25.036-9.533-34.569 0-9.519 25.05 0 34.569 25.036 9.533 34.569 0zm-32.523-2.046c-8.406-8.406-8.406-22.072 0-30.478s22.072-8.405 30.477 0 8.406 22.072 0 30.478-22.072 8.406-30.477 0zM481.245 351.772c.849.877 1.308 1.615 1.406 2.185.125.71-.209 1.461-1.002 2.255-1.002 1.002-3.173 2.226-6.485 3.674l-10.8 4.676 9.227-18.857c.083-.167.167-.279.264-.376.307-.306.696-.251 1.128.153l.723-.724-5.302-5.302-.724.724c1.587 1.753 1.322 3.715-.793 5.831-1.656 1.656-3.771 3.047-6.346 4.147l-8.795 3.785 9.296-18.787c.084-.167.167-.279.251-.362.32-.32.668-.306 1.043.069l.724-.723-5.233-5.233-.723.724c.334.389.515.904.57 1.544.098 1.156-.501 3.062-1.823 5.72l-9.839 19.943.863.863 10.813-4.69c2.116-.919 4.551-1.768 7.265-2.533l-8.322 17.006.904.905 20.959-8.99c3.855-1.657 6.346-1.949 7.445-.877l.724-.724-6.736-6.736-.724.724.042-.014zm450.72 10.257c-1.099-1.434-.389-3.813 2.158-7.167 1.113-1.475 2.964-3.521 5.552-6.11l5.567-5.566-4.537 30.394.696.696 10.131-10.132c5.831-5.831 9.756-7.918 11.746-6.262l.724-.724-6.541-6.541-.724.724c1.615 2.004-.612 6.067-6.735 12.191l-4.454 4.453 3.744-25.509-4.913-4.913-.723.724c.834.863 1.252 1.614 1.252 2.254s-.404 1.378-1.239 2.213l-5.163 5.163c-6.596 6.597-10.938 9.13-13.04 7.585l-.723.724 6.499 6.499.723-.724v.028zm14.502 481.601c-3.688 2.714-7.209 2.394-10.563-.96l-1.587-1.586 8.615-8.615 5.65 5.344 1.044-1.044-1.461-1.461c-2.812-2.811-2.561-5.873.765-9.199.863-.863 1.893-1.781 3.103-2.741l1.142 1.141c3.381 3.382 3.66 6.499.862 9.38l1.1 1.099 5.72-5.72-.696-.696c-.529.474-1.1.404-1.754-.25l-10.688-10.688-.723.724c.876.904 1.294 1.684 1.28 2.338s-.473 1.419-1.378 2.324l-12.956 12.956c-.905.905-1.684 1.378-2.324 1.406s-1.42-.418-2.325-1.295l-.723.724 10.924 10.925c.362.362.334.779-.083 1.224l.751.752 7.39-4.941-1.057-1.057-.028-.084zm-476.133-9.366c-.514-2.63-.779-4.342-.835-5.149-.111-2.199.321-3.799 1.336-4.815.822-.821 1.768-1.211 2.881-1.183 1.058.056 2.004.501 2.839 1.336 1.141 1.141 1.587 2.533 1.35 4.189-.195 1.475-.863 2.839-1.976 4.092l1.099 1.099 4.704-4.704c-.96-1.99-1.892-3.423-2.783-4.314-1.628-1.628-3.591-2.616-5.859-2.992-2.519-.376-4.565.195-6.137 1.767a5.11 5.11 0 0 0-1.211 1.935c-.32.849-.431 1.656-.376 2.435.098 1.155.348 2.797.766 4.913.515 2.519.779 4.175.821 4.968.055 1.948-.473 3.479-1.559 4.565s-2.213 1.544-3.507 1.503-2.477-.585-3.535-1.643c-1.336-1.336-1.865-3.006-1.572-4.996.264-1.823 1.085-3.423 2.449-4.787l-1.058-1.058-5.385 5.386c.988 2.269 2.143 4.036 3.451 5.344 1.726 1.726 3.883 2.742 6.443 3.048 2.756.334 4.969-.32 6.652-2.004 1.1-1.1 1.643-2.505 1.67-4.231.014-.849-.222-2.421-.681-4.718l.013.014z" class="G"/><g fill="#be93e4"><path d="M965.783 514.778c-.181.626-.376 2.018-.028 3.312.668 2.422 2.421 2.728 3.562 2.394 1.935-.571 2.283-2.533 1.782-4.342l-.292-1.044 1.419-.39.292 1.044c.39 1.364 1.559 2.895 3.201 2.45 1.113-.307 1.893-1.281 1.42-3.006-.307-1.114-1.1-2.046-1.684-2.519l1.224-.863c.738.57 1.656 1.823 2.074 3.326.751 2.728-.515 4.411-2.213 4.885-1.433.403-2.881-.126-3.966-1.656l-.028.027c.111 1.782-.779 3.535-2.728 4.064-2.212.626-4.634-.571-5.566-3.897-.432-1.544-.32-3.047-.056-3.868l1.587.111v-.028zm10.411 18.343c-4.704 1.308-7.807.292-8.656-2.783-.751-2.7 1.267-5.247 5.845-6.569 4.662-1.294 7.766 0 8.545 2.811.807 2.923-1.336 5.316-5.734 6.541zm-2.296-7.473c-3.618 1.002-5.344 2.672-4.871 4.397.529 1.921 3.02 2.213 6.569 1.225 3.423-.946 5.413-2.435 4.871-4.398-.446-1.642-2.798-2.268-6.569-1.224zm11.385 12.139c-1.586.445-2.588-.474-2.881-1.517-.334-1.169.279-2.31 1.643-2.672 1.433-.404 2.56.306 2.88 1.489.348 1.238-.32 2.324-1.642 2.7zm-.988-3.41c-.946.251-1.503 1.002-1.294 1.767.209.738 1.058 1.114 2.032.835.737-.208 1.558-.835 1.308-1.753s-1.225-1.086-2.032-.863l-.014.014zm-4.747 133.889c.111-.39.222-.891.264-1.434.251-3.089-1.531-5.204-3.757-6.095l-.014.069c.723.891 1.141 2.227.765 3.772-.612 2.477-2.839 3.757-5.567 3.089-2.56-.64-4.481-2.978-3.757-5.873.737-2.992 3.549-4.355 7.181-3.451 2.741.682 4.662 2.213 5.706 3.925.849 1.433 1.169 3.173.946 4.982-.056.584-.153 1.044-.237 1.405l-1.544-.375.014-.014zm-7.933-2.561c2.004.501 3.479-.334 3.911-2.073.278-1.142-.167-2.366-1.044-3.132-.181-.181-.445-.334-.793-.431-2.311-.529-4.273.097-4.76 2.087-.403 1.629.668 3.062 2.672 3.563l.014-.014zm-.652 13.518c-4.746-1.183-6.931-3.591-6.166-6.694.682-2.714 3.688-3.938 8.337-2.825 4.676 1.169 6.749 3.827 6.053 6.666-.737 2.936-3.771 3.966-8.224 2.853zm1.683-7.64c-3.632-.905-5.97-.293-6.401 1.419-.487 1.935 1.531 3.424 5.107 4.3 3.438.849 5.915.543 6.402-1.419.403-1.656-1.308-3.368-5.108-4.3zm3.922 16.162c-1.6-.403-2.018-1.684-1.767-2.741.292-1.183 1.363-1.865 2.741-1.517 1.447.362 2.06 1.531 1.768 2.714-.307 1.252-1.42 1.864-2.756 1.53l.014.014zm.807-3.451c-.96-.237-1.795.125-1.99.904-.195.752.376 1.49 1.35 1.74.738.181 1.753.056 1.99-.877s-.529-1.558-1.35-1.767zM448.4 685.85l-1.169.279-1.795-1.155c-4.245-2.77-6.43-3.981-8.559-3.493-1.42.334-2.575 1.322-2.088 3.423.293 1.267 1.197 2.171 1.893 2.7l-1.197.918c-1.044-.793-1.962-2.017-2.352-3.632-.709-3.02 1.072-4.773 3.076-5.246 2.588-.613 5.121.779 8.656 3.061l1.294.877.028-.028-1.461-6.276 1.572-.376 2.102 8.948z"/><path d="M432.604 673.537l.028.027 1.864 2.144-1.363.695-2.352-2.685-.39-1.615 14.014-3.27.431 1.823-12.246 2.867.014.014zm1.281-17.453c4.76-1.114 7.808.041 8.531 3.131.641 2.728-1.489 5.191-6.123 6.318-4.69 1.099-7.752-.32-8.434-3.173-.695-2.95 1.545-5.247 6.013-6.29l.013.014zm2.004 7.57c3.647-.863 5.456-2.449 5.052-4.189-.459-1.934-2.922-2.338-6.513-1.503-3.451.808-5.511 2.227-5.052 4.189.39 1.67 2.7 2.394 6.513 1.503zm-10.812-12.31c1.601-.376 2.575.57 2.825 1.628.279 1.169-.376 2.296-1.753 2.616-1.462.348-2.533-.417-2.811-1.614-.279-1.253.417-2.31 1.753-2.616l-.014-.014zm.849 3.437c.946-.223 1.545-.932 1.364-1.726-.167-.751-1.016-1.155-2.004-.918-.738.181-1.587.751-1.364 1.698.209.932 1.169 1.141 2.004.946zm12.148-113.102l-1.141-.362-.96-1.907c-2.241-4.551-3.521-6.694-5.595-7.348-1.406-.431-2.895-.167-3.535 1.893-.389 1.252-.083 2.477.251 3.284l-1.489.181c-.501-1.197-.682-2.742-.181-4.328.918-2.95 3.34-3.563 5.302-2.964 2.533.779 4.022 3.27 5.901 7.042l.668 1.419.027.028 1.935-6.193 1.545.487-2.742 8.781.014-.013zm5.19-16.603l-3.73-1.169-1.99 6.388-1.224-.39-6.861-8.865.626-2.018 8.545 2.672.598-1.934 1.461.459-.598 1.935 3.73 1.169-.557 1.753zm-5.205-1.614l-4.578-1.434-2.13-.737-.014.069 1.67 1.782 3.619 4.815.028.028 1.419-4.509-.014-.014zm2.618-14.806c4.662 1.461 6.708 4.008 5.761 7.042-.848 2.686-3.91 3.715-8.475 2.352-4.606-1.434-6.527-4.217-5.65-7.014.905-2.909 3.994-3.744 8.364-2.38zm-2.101 7.529c3.562 1.113 5.942.654 6.471-1.044.598-1.907-1.336-3.507-4.843-4.592-3.382-1.044-5.859-.877-6.471 1.043-.515 1.629 1.113 3.424 4.843 4.593zm-3.089-16.089c1.573.487 1.921 1.81 1.6 2.825-.347 1.156-1.475 1.782-2.839 1.364-1.419-.445-1.976-1.642-1.6-2.825.39-1.224 1.531-1.781 2.839-1.364zm-1.002 3.396c.932.292 1.809-.028 2.046-.793.236-.738-.292-1.517-1.253-1.809-.723-.223-1.753-.14-2.045.765-.279.918.431 1.573 1.252 1.837zm185.706-168.693c.627.181 2.004.39 3.313.028 2.421-.668 2.741-2.408 2.393-3.563-.556-1.948-2.533-2.282-4.342-1.781l-1.044.292-.389-1.419 1.044-.293c1.377-.375 2.894-1.558 2.449-3.2-.306-1.114-1.28-1.893-3.006-1.42-1.113.306-2.046 1.099-2.519 1.684l-.863-1.225c.585-.723 1.851-1.656 3.34-2.059 2.728-.752 4.426.528 4.885 2.212.403 1.434-.125 2.881-1.656 3.967l.028.028c1.781-.112 3.534.779 4.063 2.727.613 2.227-.584 4.648-3.91 5.553-1.559.417-3.062.306-3.869.056l.111-1.587h-.028zm18.37-10.386c1.294 4.718.264 7.808-2.811 8.657-2.7.751-5.247-1.295-6.555-5.859-1.28-4.649.014-7.78 2.839-8.545 2.922-.807 5.316 1.336 6.527 5.747zm-7.473 2.297c.988 3.604 2.672 5.344 4.369 4.87 1.921-.528 2.213-3.019 1.253-6.568-.932-3.41-2.435-5.414-4.384-4.885-1.642.445-2.282 2.783-1.252 6.569l.014.014zm18.424-5.32c1.294 4.718.264 7.807-2.811 8.656-2.714.738-5.247-1.294-6.555-5.859-1.28-4.648.014-7.779 2.839-8.545 2.923-.807 5.316 1.336 6.527 5.748zm-7.473 2.296c.988 3.605 2.672 5.344 4.37 4.871 1.92-.529 2.212-3.02 1.252-6.569-.946-3.423-2.435-5.413-4.384-4.884-1.642.445-2.282 2.783-1.252 6.568l.014.014zm11.874-11.28c.431 1.601-.474 2.589-1.517 2.881-1.155.32-2.297-.292-2.672-1.642-.39-1.448.32-2.547 1.517-2.881 1.238-.348 2.324.32 2.699 1.642h-.027zm-3.41.988c.25.947 1.002 1.503 1.767 1.295.738-.209 1.114-1.058.849-2.046-.195-.724-.821-1.545-1.753-1.308-.919.25-1.086 1.224-.863 2.031v.028zm112.794 12.552c.431.487 1.503 1.392 2.797 1.767 2.407.71 3.604-.598 3.924-1.753.543-1.934-.946-3.284-2.755-3.813l-1.03-.306.417-1.392 1.03.306c1.35.404 3.285.223 3.772-1.433.32-1.1-.084-2.283-1.796-2.798a5.28 5.28 0 0 0-3.02.098l-.083-1.503c.877-.32 2.435-.432 3.925 0 2.727.807 3.479 2.783 2.964 4.467-.418 1.42-1.628 2.38-3.521 2.491l-.028.028c1.614.863 2.616 2.533 2.046 4.467-.654 2.213-2.937 3.633-6.263 2.644-1.544-.459-2.769-1.349-3.312-2.004l.932-1.294.001.028zm10.896 3.245c.431.487 1.503 1.391 2.797 1.767 2.407.71 3.604-.598 3.91-1.74.543-1.934-.946-3.284-2.755-3.813l-1.03-.306.418-1.392 1.029.307c1.35.403 3.285.222 3.772-1.434.32-1.099-.084-2.282-1.795-2.797-1.1-.32-2.311-.139-3.02.097l-.084-1.503c.877-.32 2.436-.431 3.925 0 2.727.807 3.479 2.784 2.978 4.454-.418 1.419-1.628 2.379-3.521 2.491l-.028.028c1.614.862 2.617 2.532 2.046 4.467-.654 2.213-2.95 3.618-6.263 2.644-1.544-.459-2.769-1.35-3.312-2.004l.933-1.294v.028zm21.07.921c-1.392 4.704-3.897 6.763-6.945 5.859-2.7-.807-3.771-3.855-2.463-8.448 1.378-4.634 4.133-6.582 6.917-5.747 2.908.849 3.799 3.938 2.491 8.336zm-7.557-2.018c-1.058 3.59-.571 5.942 1.141 6.457 1.907.571 3.479-1.391 4.523-4.912 1.002-3.396.793-5.887-1.141-6.458-1.628-.487-3.41 1.155-4.523 4.913zm16.046-3.303c-.473 1.587-1.781 1.949-2.811 1.642-1.155-.348-1.795-1.461-1.392-2.811.432-1.433 1.614-2.004 2.797-1.656 1.225.362 1.796 1.517 1.406 2.825zm-3.41-.96c-.278.946.056 1.809.808 2.032s1.516-.32 1.795-1.267c.222-.723.125-1.767-.807-2.031-.919-.279-1.573.459-1.81 1.28l.014-.014z"/></g><g filter="url(#A)"><ellipse cx="704.001" cy="1076.42" rx="905.061" ry="612.588" fill="#1f2021"/></g><g filter="url(#B)"><g filter="url(#C)"><use href="#O" fill="#fff" class="H"/><use href="#O" fill="url(#J)" class="I"/><path d="M211.714 590.286c2.363 0 4.286-1.923 4.286-4.286s-1.923-4.286-4.286-4.286c-.883.003-1.744.279-2.464.791s-1.265 1.233-1.559 2.066h-8.242l10.428-10.428a4.26 4.26 0 0 0 1.837.428 4.29 4.29 0 0 0 4.286-4.285c0-2.363-1.923-4.286-4.286-4.286-.883.003-1.744.279-2.464.79s-1.265 1.234-1.559 2.067h-23.382c-.294-.833-.838-1.555-1.559-2.067s-1.581-.787-2.464-.79c-2.363 0-4.286 1.923-4.286 4.286a4.29 4.29 0 0 0 4.286 4.285 4.23 4.23 0 0 0 1.835-.428l10.429 10.428h-8.243c-.293-.833-.837-1.554-1.557-2.066s-1.581-.788-2.464-.791c-2.363 0-4.286 1.923-4.286 4.286s1.923 4.286 4.286 4.286c.883-.003 1.744-.279 2.464-.791s1.265-1.233 1.559-2.066h8.242l-10.428 10.428c-.573-.277-1.201-.424-1.837-.428a4.29 4.29 0 0 0-4.286 4.285c0 2.363 1.923 4.286 4.286 4.286.883-.003 1.744-.279 2.464-.79s1.265-1.234 1.559-2.067h23.382c.294.833.838 1.555 1.559 2.067s1.581.787 2.464.79c2.363 0 4.286-1.923 4.286-4.286a4.29 4.29 0 0 0-4.286-4.285c-.66 0-1.277.162-1.835.428l-10.429-10.428h8.243c.293.833.837 1.554 1.557 2.066s1.581.788 2.464.791zm0-5.715c.379 0 .743.151 1.01.419a1.43 1.43 0 0 1 0 2.02c-.267.268-.631.419-1.01.419a1.43 1.43 0 0 1-1.01-.419c-.268-.268-.418-.631-.418-1.01s.15-.742.418-1.01a1.43 1.43 0 0 1 1.01-.419zm-27.405-12.857h23.382a3.95 3.95 0 0 0 .168.407l-11.858 11.858-11.858-11.858c.062-.131.117-.267.166-.407zm27.405-2.857c.379 0 .743.151 1.01.419s.419.631.419 1.01a1.43 1.43 0 0 1-.419 1.01c-.267.268-.631.418-1.01.418s-.742-.15-1.01-.418-.418-.631-.418-1.01.15-.743.418-1.01a1.43 1.43 0 0 1 1.01-.419zm-32.857 1.429c0-.379.151-.743.419-1.01s.631-.419 1.01-.419a1.43 1.43 0 0 1 1.01.419c.268.267.418.631.418 1.01s-.15.742-.418 1.01-.631.418-1.01.418-.743-.15-1.01-.418a1.43 1.43 0 0 1-.419-1.01zm1.429 17.143c-.379 0-.743-.151-1.01-.419a1.43 1.43 0 0 1 0-2.02c.267-.268.631-.419 1.01-.419a1.43 1.43 0 0 1 1.01.419c.268.268.418.631.418 1.01s-.15.742-.418 1.01a1.43 1.43 0 0 1-1.01.419zm27.405 12.857h-23.382a4.14 4.14 0 0 0-.168-.407L196 588.021l11.857 11.858a4.39 4.39 0 0 0-.166.407zm-27.405 2.857c-.379 0-.743-.151-1.01-.419s-.419-.631-.419-1.01a1.43 1.43 0 0 1 .419-1.01c.267-.268.631-.418 1.01-.418s.742.15 1.01.418.418.631.418 1.01-.15.743-.418 1.01a1.43 1.43 0 0 1-1.01.419zm32.857-1.429c0 .379-.151.743-.419 1.01s-.631.419-1.01.419a1.43 1.43 0 0 1-1.01-.419c-.268-.267-.418-.631-.418-1.01s.15-.742.418-1.01.631-.418 1.01-.418.743.15 1.01.418a1.43 1.43 0 0 1 .419 1.01z" class="G"/></g></g><path d="M140.249 690l9.056-22.496h3.552L161.881 690h-4.64l-6.976-18.464h1.6L144.793 690h-4.544zm4.8-4.192v-3.648h12.096v3.648h-12.096zm24.912 11.04c-1.643 0-3.094-.299-4.352-.896-1.259-.576-2.262-1.397-3.008-2.464l2.656-2.656c.597.704 1.258 1.237 1.984 1.6.746.384 1.642.576 2.688.576 1.301 0 2.325-.331 3.072-.992.768-.661 1.152-1.579 1.152-2.752v-3.872l.704-3.392-.672-3.392v-4.064h4.16V689.2c0 1.536-.363 2.869-1.088 4-.704 1.152-1.686 2.048-2.944 2.688s-2.71.96-4.352.96zm-.192-7.264c-1.387 0-2.635-.331-3.744-.992a7.32 7.32 0 0 1-2.624-2.784c-.619-1.173-.928-2.485-.928-3.936s.309-2.752.928-3.904c.64-1.152 1.514-2.059 2.624-2.72 1.109-.683 2.357-1.024 3.744-1.024 1.152 0 2.165.224 3.04.672.896.448 1.6 1.067 2.112 1.856.512.768.789 1.675.832 2.72v4.864c-.043 1.024-.331 1.941-.864 2.752-.512.789-1.216 1.408-2.112 1.856-.875.427-1.878.64-3.008.64zm.832-3.808c.768 0 1.429-.16 1.984-.48.576-.341 1.024-.8 1.344-1.376.32-.597.48-1.269.48-2.016 0-.768-.16-1.44-.48-2.016s-.768-1.024-1.344-1.344c-.555-.341-1.216-.512-1.984-.512s-1.44.171-2.016.512c-.576.32-1.024.779-1.344 1.376-.32.576-.48 1.237-.48 1.984 0 .725.16 1.387.48 1.984.32.576.768 1.035 1.344 1.376s1.248.512 2.016.512zm18.819 4.544c-1.621 0-3.061-.341-4.32-1.024a8.12 8.12 0 0 1-3.008-2.88c-.725-1.216-1.088-2.603-1.088-4.16 0-1.536.352-2.901 1.056-4.096.725-1.216 1.707-2.176 2.944-2.88 1.237-.725 2.613-1.088 4.128-1.088 1.493 0 2.805.341 3.936 1.024a6.95 6.95 0 0 1 2.688 2.752c.661 1.152.992 2.464.992 3.936a6.07 6.07 0 0 1-.064.864 6.42 6.42 0 0 1-.16.96l-12.992.032v-3.136l11.04-.032-1.696 1.312c-.043-.917-.213-1.685-.512-2.304-.277-.619-.693-1.088-1.248-1.408-.533-.341-1.195-.512-1.984-.512-.832 0-1.557.192-2.176.576-.619.363-1.099.885-1.44 1.568-.32.661-.48 1.451-.48 2.368 0 .939.171 1.76.512 2.464.363.683.875 1.216 1.536 1.6.661.363 1.429.544 2.304.544.789 0 1.504-.128 2.144-.384a4.66 4.66 0 0 0 1.664-1.216l2.464 2.464a7.13 7.13 0 0 1-2.752 1.984c-1.067.448-2.229.672-3.488.672zm20.32-.32v-8.864c0-.917-.288-1.664-.864-2.24s-1.322-.864-2.24-.864c-.597 0-1.13.128-1.6.384s-.842.619-1.12 1.088c-.256.469-.384 1.013-.384 1.632l-1.632-.832c0-1.216.256-2.272.768-3.168.534-.917 1.259-1.632 2.176-2.144.939-.512 1.995-.768 3.168-.768 1.131 0 2.144.288 3.04.864.896.555 1.6 1.291 2.112 2.208a5.77 5.77 0 0 1 .768 2.912V690h-4.192zm-10.4 0v-15.456h4.192V690h-4.192zm20.054 0v-21.888h4.192V690h-4.192zm-3.616-11.776v-3.68h11.424v3.68h-11.424zM229.559 690v-15.456h4.224V690h-4.224zm2.112-17.952c-.683 0-1.248-.224-1.696-.672-.448-.469-.672-1.045-.672-1.728 0-.661.224-1.227.672-1.696s1.013-.704 1.696-.704c.704 0 1.269.235 1.696.704.448.469.672 1.035.672 1.696 0 .683-.224 1.259-.672 1.728-.427.448-.992.672-1.696.672zm13.122 18.272c-1.579 0-2.998-.352-4.256-1.056a7.87 7.87 0 0 1-2.976-2.88c-.726-1.216-1.088-2.581-1.088-4.096 0-1.536.362-2.912 1.088-4.128a7.87 7.87 0 0 1 2.976-2.88c1.28-.725 2.698-1.088 4.256-1.088 1.216 0 2.336.224 3.36.672a7.65 7.65 0 0 1 2.656 1.92l-2.688 2.72a3.99 3.99 0 0 0-1.472-1.024c-.555-.235-1.174-.352-1.856-.352-.768 0-1.462.181-2.08.544a3.87 3.87 0 0 0-1.44 1.44c-.342.597-.512 1.312-.512 2.144 0 .811.17 1.536.512 2.176a4.13 4.13 0 0 0 1.44 1.472c.618.341 1.312.512 2.08.512.704 0 1.333-.117 1.888-.352a4.15 4.15 0 0 0 1.472-1.088l2.72 2.72c-.79.853-1.696 1.504-2.72 1.952s-2.144.672-3.36.672zM108.07 730v-22.496h4.352V730h-4.352zm3.2-9.216v-3.872h11.328v3.872H111.27zm0-9.44v-3.84h11.872v3.84H111.27zm21.584 18.976c-1.557 0-2.965-.352-4.224-1.056a8.46 8.46 0 0 1-2.976-2.912c-.725-1.237-1.088-2.613-1.088-4.128s.363-2.869 1.088-4.064c.726-1.216 1.718-2.176 2.976-2.88 1.259-.725 2.656-1.088 4.192-1.088 1.579 0 2.987.363 4.224 1.088a7.87 7.87 0 0 1 2.976 2.88c.726 1.195 1.088 2.549 1.088 4.064s-.362 2.891-1.088 4.128c-.725 1.216-1.717 2.187-2.976 2.912-1.237.704-2.634 1.056-4.192 1.056zm-.032-3.904c.79 0 1.483-.171 2.08-.512.619-.363 1.088-.853 1.408-1.472.342-.64.512-1.365.512-2.176s-.17-1.525-.512-2.144-.81-1.099-1.408-1.44c-.597-.363-1.29-.544-2.08-.544-.768 0-1.45.181-2.048.544a3.66 3.66 0 0 0-1.408 1.44c-.341.619-.512 1.333-.512 2.144s.171 1.536.512 2.176c.342.619.811 1.109 1.408 1.472.598.341 1.28.512 2.048.512zm17.579 3.904c-1.365 0-2.581-.288-3.648-.864-1.045-.576-1.867-1.376-2.464-2.4s-.896-2.208-.896-3.552v-8.96h4.224v8.864c0 .64.107 1.195.32 1.664a2.23 2.23 0 0 0 .96 1.024c.427.235.928.352 1.504.352.875 0 1.557-.267 2.048-.8s.736-1.28.736-2.24v-8.864h4.192v8.96c0 1.365-.299 2.56-.896 3.584-.576 1.024-1.397 1.824-2.464 2.4-1.045.555-2.251.832-3.616.832zm20.714-.32v-8.864c0-.917-.288-1.664-.864-2.24s-1.322-.864-2.24-.864c-.597 0-1.13.128-1.6.384s-.842.619-1.12 1.088c-.256.469-.384 1.013-.384 1.632l-1.632-.832c0-1.216.256-2.272.768-3.168.534-.917 1.259-1.632 2.176-2.144.939-.512 1.995-.768 3.168-.768 1.131 0 2.144.288 3.04.864.896.555 1.6 1.291 2.112 2.208a5.77 5.77 0 0 1 .768 2.912V730h-4.192zm-10.4 0v-15.456h4.192V730h-4.192zm24.497.32c-1.429 0-2.709-.352-3.84-1.056s-2.027-1.664-2.688-2.88c-.64-1.216-.96-2.581-.96-4.096 0-1.536.32-2.912.96-4.128.661-1.216 1.547-2.176 2.656-2.88 1.131-.704 2.421-1.056 3.872-1.056 1.109 0 2.101.224 2.976.672.896.448 1.611 1.077 2.144 1.888.555.789.853 1.685.896 2.688v5.504c-.043 1.003-.331 1.909-.864 2.72s-1.248 1.451-2.144 1.92-1.899.704-3.008.704zm.704-3.872c.789 0 1.472-.171 2.048-.512a3.66 3.66 0 0 0 1.376-1.472c.341-.64.512-1.376.512-2.208 0-.811-.171-1.525-.512-2.144-.32-.64-.779-1.131-1.376-1.472-.576-.363-1.248-.544-2.016-.544-.789 0-1.483.181-2.08.544a3.97 3.97 0 0 0-1.376 1.472c-.32.619-.48 1.333-.48 2.144 0 .832.16 1.568.48 2.208a3.89 3.89 0 0 0 1.408 1.472c.597.341 1.269.512 2.016.512zm7.872 3.552h-4.16v-4.16l.672-3.776-.704-3.712v-11.488h4.192V730zm10.173.32c-1.408 0-2.678-.352-3.808-1.056s-2.016-1.664-2.656-2.88-.96-2.581-.96-4.096c0-1.536.32-2.912.96-4.128s1.525-2.176 2.656-2.88 2.4-1.056 3.808-1.056c1.109 0 2.101.224 2.976.672s1.568 1.077 2.08 1.888c.533.789.821 1.685.864 2.688v5.568c-.043 1.024-.331 1.931-.864 2.72-.512.789-1.206 1.419-2.08 1.888-.875.448-1.867.672-2.976.672zm.768-3.872c1.173 0 2.122-.384 2.848-1.152.725-.789 1.088-1.803 1.088-3.04 0-.811-.171-1.525-.512-2.144-.32-.64-.779-1.131-1.376-1.472-.576-.363-1.259-.544-2.048-.544-.768 0-1.451.181-2.048.544-.576.341-1.035.832-1.376 1.472-.32.619-.48 1.333-.48 2.144 0 .832.16 1.568.48 2.208a3.97 3.97 0 0 0 1.376 1.472c.597.341 1.28.512 2.048.512zm3.712 3.552v-4.16l.672-3.776-.672-3.712v-3.808h4.16V730h-4.16zm10.14 0v-21.888h4.192V730h-4.192zm-3.616-11.776v-3.68h11.424v3.68h-11.424zM228.747 730v-15.456h4.224V730h-4.224zm2.112-17.952c-.683 0-1.248-.224-1.696-.672-.448-.469-.672-1.045-.672-1.728 0-.661.224-1.227.672-1.696s1.013-.704 1.696-.704c.704 0 1.269.235 1.696.704.448.469.672 1.035.672 1.696 0 .683-.224 1.259-.672 1.728-.427.448-.992.672-1.696.672zm13.089 18.272c-1.557 0-2.965-.352-4.224-1.056a8.46 8.46 0 0 1-2.976-2.912c-.725-1.237-1.088-2.613-1.088-4.128s.363-2.869 1.088-4.064a7.87 7.87 0 0 1 2.976-2.88c1.259-.725 2.656-1.088 4.192-1.088 1.579 0 2.987.363 4.224 1.088a7.87 7.87 0 0 1 2.976 2.88c.725 1.195 1.088 2.549 1.088 4.064s-.363 2.891-1.088 4.128c-.725 1.216-1.717 2.187-2.976 2.912-1.237.704-2.635 1.056-4.192 1.056zm-.032-3.904c.789 0 1.483-.171 2.08-.512.619-.363 1.088-.853 1.408-1.472.341-.64.512-1.365.512-2.176s-.171-1.525-.512-2.144-.811-1.099-1.408-1.44c-.597-.363-1.291-.544-2.08-.544-.768 0-1.451.181-2.048.544-.597.341-1.067.821-1.408 1.44s-.512 1.333-.512 2.144.171 1.536.512 2.176a3.89 3.89 0 0 0 1.408 1.472c.597.341 1.28.512 2.048.512zM265.303 730v-8.864c0-.917-.288-1.664-.864-2.24s-1.323-.864-2.24-.864c-.597 0-1.131.128-1.6.384a2.89 2.89 0 0 0-1.12 1.088c-.256.469-.384 1.013-.384 1.632l-1.632-.832c0-1.216.256-2.272.768-3.168a5.68 5.68 0 0 1 2.176-2.144c.939-.512 1.995-.768 3.168-.768 1.131 0 2.144.288 3.04.864.896.555 1.6 1.291 2.112 2.208a5.77 5.77 0 0 1 .768 2.912V730h-4.192zm-10.4 0v-15.456h4.192V730h-4.192zm23.281.352c-.875 0-1.739-.117-2.592-.352a10.11 10.11 0 0 1-2.304-.96c-.704-.427-1.312-.939-1.824-1.536l2.496-2.528c.533.597 1.152 1.045 1.856 1.344s1.482.448 2.336.448c.682 0 1.194-.096 1.536-.288.362-.192.544-.48.544-.864 0-.427-.192-.757-.576-.992-.363-.235-.843-.427-1.44-.576l-1.888-.544c-.64-.213-1.259-.48-1.856-.8-.598-.341-1.088-.8-1.472-1.376-.363-.597-.544-1.365-.544-2.304 0-.981.234-1.835.704-2.56.49-.725 1.184-1.291 2.08-1.696s1.952-.608 3.168-.608c1.28 0 2.432.224 3.456.672a6.35 6.35 0 0 1 2.592 2.016l-2.528 2.528c-.47-.576-1.003-.992-1.6-1.248-.576-.256-1.206-.384-1.888-.384-.619 0-1.099.096-1.44.288-.32.192-.48.459-.48.8 0 .384.181.683.544.896.384.213.874.405 1.472.576l1.856.544c.661.192 1.28.469 1.856.832a4.24 4.24 0 0 1 1.44 1.44c.384.597.576 1.365.576 2.304 0 1.515-.544 2.72-1.632 3.616-1.088.875-2.571 1.312-4.448 1.312z" class="K"/><g filter="url(#D)"><g filter="url(#E)"><use href="#P" fill="#fff" class="H"/><use href="#P" fill="url(#K)" class="I"/><path d="M700.553 66.889h-11.111V78m20-28.889h11.111V38m-32.037 13.34c1.246-3.084 3.332-5.756 6.021-7.713s5.873-3.12 9.19-3.358a17.78 17.78 0 0 1 16.635 8.789m1.12 15.602a17.78 17.78 0 0 1-15.212 11.073 17.78 17.78 0 0 1-16.637-8.791" class="D E F J"/></g></g><path d="M642.236 162.32c-1.643 0-3.168-.288-4.576-.864a11.88 11.88 0 0 1-3.712-2.464c-1.045-1.067-1.856-2.304-2.432-3.712-.555-1.408-.832-2.923-.832-4.544s.277-3.136.832-4.544c.576-1.408 1.387-2.635 2.432-3.68 1.067-1.045 2.293-1.867 3.68-2.464 1.408-.597 2.944-.896 4.608-.896 1.792 0 3.371.299 4.736.896 1.365.576 2.571 1.376 3.616 2.4l-2.944 2.944c-.619-.683-1.376-1.216-2.272-1.6s-1.941-.576-3.136-.576c-1.045 0-2.005.181-2.88.544-.853.341-1.6.853-2.24 1.536-.64.661-1.131 1.461-1.472 2.4-.341.917-.512 1.931-.512 3.04 0 1.131.171 2.155.512 3.072s.832 1.717 1.472 2.4c.64.661 1.387 1.173 2.24 1.536.875.363 1.835.544 2.88.544 1.259 0 2.336-.192 3.232-.576.917-.384 1.685-.928 2.304-1.632l2.944 2.944c-1.045 1.045-2.261 1.856-3.648 2.432s-2.997.864-4.832.864zm17.915 0c-1.557 0-2.965-.352-4.224-1.056a8.46 8.46 0 0 1-2.976-2.912c-.725-1.237-1.088-2.613-1.088-4.128s.363-2.869 1.088-4.064c.726-1.216 1.718-2.176 2.976-2.88 1.259-.725 2.656-1.088 4.192-1.088 1.579 0 2.987.363 4.224 1.088a7.87 7.87 0 0 1 2.976 2.88c.726 1.195 1.088 2.549 1.088 4.064s-.362 2.891-1.088 4.128c-.725 1.216-1.717 2.187-2.976 2.912-1.237.704-2.634 1.056-4.192 1.056zm-.032-3.904c.79 0 1.483-.171 2.08-.512.619-.363 1.088-.853 1.408-1.472.342-.64.512-1.365.512-2.176s-.17-1.525-.512-2.144-.81-1.099-1.408-1.44c-.597-.363-1.29-.544-2.08-.544-.768 0-1.45.181-2.048.544a3.66 3.66 0 0 0-1.408 1.44c-.341.619-.512 1.333-.512 2.144s.171 1.536.512 2.176c.342.619.811 1.109 1.408 1.472.598.341 1.28.512 2.048.512zM681.506 162v-8.864c0-.917-.288-1.664-.864-2.24s-1.323-.864-2.24-.864c-.597 0-1.131.128-1.6.384a2.89 2.89 0 0 0-1.12 1.088c-.256.469-.384 1.013-.384 1.632l-1.632-.832c0-1.216.256-2.272.768-3.168a5.68 5.68 0 0 1 2.176-2.144c.939-.512 1.995-.768 3.168-.768 1.131 0 2.144.288 3.04.864.896.555 1.6 1.291 2.112 2.208a5.77 5.77 0 0 1 .768 2.912V162h-4.192zm-10.4 0v-15.456h4.192V162h-4.192zm20.053 0v-21.888h4.192V162h-4.192zm-3.616-11.776v-3.68h11.424v3.68h-11.424zM701.325 162v-15.456h4.224V162h-4.224zm2.112-17.952c-.683 0-1.248-.224-1.696-.672-.448-.469-.672-1.045-.672-1.728 0-.661.224-1.227.672-1.696s1.013-.704 1.696-.704c.704 0 1.269.235 1.696.704.448.469.672 1.035.672 1.696 0 .683-.224 1.259-.672 1.728-.427.448-.992.672-1.696.672zM719.662 162v-8.864c0-.917-.288-1.664-.864-2.24s-1.322-.864-2.24-.864c-.597 0-1.13.128-1.6.384s-.842.619-1.12 1.088c-.256.469-.384 1.013-.384 1.632l-1.632-.832c0-1.216.256-2.272.768-3.168.534-.917 1.259-1.632 2.176-2.144.939-.512 1.995-.768 3.168-.768 1.131 0 2.144.288 3.04.864.896.555 1.6 1.291 2.112 2.208a5.77 5.77 0 0 1 .768 2.912V162h-4.192zm-10.4 0v-15.456h4.192V162h-4.192zm24.561.32c-1.365 0-2.581-.288-3.648-.864-1.045-.576-1.867-1.376-2.464-2.4s-.896-2.208-.896-3.552v-8.96h4.224v8.864c0 .64.107 1.195.32 1.664a2.23 2.23 0 0 0 .96 1.024c.427.235.928.352 1.504.352.875 0 1.557-.267 2.048-.8s.736-1.28.736-2.24v-8.864h4.192v8.96c0 1.365-.299 2.56-.896 3.584-.576 1.024-1.397 1.824-2.464 2.4-1.045.555-2.251.832-3.616.832zm10.314-.32v-15.456h4.224V162h-4.224zm2.112-17.952c-.682 0-1.248-.224-1.696-.672-.448-.469-.672-1.045-.672-1.728 0-.661.224-1.227.672-1.696s1.014-.704 1.696-.704c.704 0 1.27.235 1.696.704.448.469.672 1.035.672 1.696 0 .683-.224 1.259-.672 1.728-.426.448-.992.672-1.696.672zM754.347 162v-21.888h4.192V162h-4.192zm-3.616-11.776v-3.68h11.424v3.68h-11.424zm18.645 11.904l-6.464-15.584h4.544l4.288 11.904h-1.536l4.448-11.904h4.576l-6.88 15.584h-2.976zm-4.288 6.336l4.704-9.952 2.56 3.616-2.816 6.336h-4.448z" class="K"/><g filter="url(#F)"><g filter="url(#G)"><use href="#Q" fill="#fff" class="H"/><use href="#Q" fill="url(#L)" class="I"/><path d="M1232.18 575.52c2.31 4.003 3.24 8.656 2.63 13.238-.6 4.581-2.7 8.836-5.97 12.104a20.96 20.96 0 0 1-12.1 5.969c-4.58.604-9.23-.322-13.24-2.633a21.01 21.01 0 0 1-8.9-10.147 21.09 21.09 0 0 1-.88-13.467c1.2-4.464 3.83-8.409 7.5-11.222a21 21 0 0 1 12.78-4.339" class="D E F J"/><path d="M1214 565.023v17.995" class="D E F J"/><path d="M1217 586.023a3.01 3.01 0 0 1-.88 2.12 3 3 0 0 1-2.12.879c-.39 0-.78-.078-1.15-.229-.36-.15-.69-.371-.97-.65s-.5-.609-.65-.973-.23-.754-.23-1.147a3.01 3.01 0 0 1 .88-2.121c.56-.563 1.32-.879 2.12-.879a3 3 0 0 1 2.12.879 3.01 3.01 0 0 1 .88 2.121z" class="D E F"/><path d="M1224.39 580.022c1.32 2.287 1.85 4.946 1.51 7.564-.35 2.618-1.55 5.049-3.41 6.917a12.01 12.01 0 0 1-6.92 3.411c-2.62.344-5.28-.184-7.57-1.505-2.28-1.32-4.07-3.358-5.08-5.798s-1.19-5.145-.51-7.696c.69-2.551 2.19-4.805 4.29-6.413 2.09-1.607 4.66-2.479 7.3-2.479" class="D E F J"/></g></g><path d="M1148.24 690v-22.496h4.35V690h-4.35zm3.2 0v-3.84h12.45V690h-12.45zm0-9.632v-3.712h11.33v3.712h-11.33zm0-9.024v-3.84h12.29v3.84h-12.29zM1172.07 690l-6.82-15.456h4.61l4.9 12.736h-2.28l4.93-12.736h4.45L1175.08 690h-3.01zm18.52.32c-1.56 0-2.97-.352-4.23-1.056-1.23-.725-2.22-1.696-2.97-2.912-.73-1.237-1.09-2.613-1.09-4.128s.36-2.869 1.09-4.064c.72-1.216 1.72-2.176 2.97-2.88 1.26-.725 2.66-1.088 4.2-1.088 1.58 0 2.98.363 4.22 1.088a7.91 7.91 0 0 1 2.98 2.88c.72 1.195 1.08 2.549 1.08 4.064s-.36 2.891-1.08 4.128c-.73 1.216-1.72 2.187-2.98 2.912-1.24.704-2.63 1.056-4.19 1.056zm-.03-3.904c.79 0 1.48-.171 2.08-.512.62-.363 1.08-.853 1.4-1.472.35-.64.52-1.365.52-2.176s-.17-1.525-.52-2.144c-.34-.619-.81-1.099-1.4-1.44-.6-.363-1.29-.544-2.08-.544-.77 0-1.45.181-2.05.544a3.63 3.63 0 0 0-1.41 1.44c-.34.619-.51 1.333-.51 2.144s.17 1.536.51 2.176c.34.619.81 1.109 1.41 1.472.6.341 1.28.512 2.05.512zm10.98 3.584v-23.136h4.2V690h-4.2zm14.5.32c-1.36 0-2.58-.288-3.65-.864-1.04-.576-1.86-1.376-2.46-2.4s-.9-2.208-.9-3.552v-8.96h4.23v8.864c0 .64.1 1.195.32 1.664a2.2 2.2 0 0 0 .96 1.024c.42.235.93.352 1.5.352.88 0 1.56-.267 2.05-.8s.74-1.28.74-2.24v-8.864h4.19v8.96c0 1.365-.3 2.56-.9 3.584-.57 1.024-1.4 1.824-2.46 2.4-1.05.555-2.25.832-3.62.832zm12.59-.32v-21.888h4.19V690h-4.19zm-3.62-11.776v-3.68h11.43v3.68h-11.43zM1238.79 690v-15.456h4.23V690h-4.23zm2.12-17.952c-.69 0-1.25-.224-1.7-.672-.45-.469-.67-1.045-.67-1.728 0-.661.22-1.227.67-1.696s1.01-.704 1.7-.704c.7 0 1.26.235 1.69.704.45.469.67 1.035.67 1.696 0 .683-.22 1.259-.67 1.728-.43.448-.99.672-1.69.672zM1254 690.32c-1.56 0-2.97-.352-4.23-1.056a8.36 8.36 0 0 1-2.97-2.912c-.73-1.237-1.09-2.613-1.09-4.128s.36-2.869 1.09-4.064c.72-1.216 1.71-2.176 2.97-2.88 1.26-.725 2.66-1.088 4.19-1.088 1.58 0 2.99.363 4.23 1.088 1.26.704 2.25 1.664 2.97 2.88.73 1.195 1.09 2.549 1.09 4.064s-.36 2.891-1.09 4.128a8.05 8.05 0 0 1-2.97 2.912c-1.24.704-2.64 1.056-4.19 1.056zm-.04-3.904c.79 0 1.49-.171 2.08-.512a3.59 3.59 0 0 0 1.41-1.472c.34-.64.51-1.365.51-2.176s-.17-1.525-.51-2.144a3.63 3.63 0 0 0-1.41-1.44c-.59-.363-1.29-.544-2.08-.544-.76 0-1.45.181-2.04.544a3.63 3.63 0 0 0-1.41 1.44c-.34.619-.51 1.333-.51 2.144s.17 1.536.51 2.176c.34.619.81 1.109 1.41 1.472.59.341 1.28.512 2.04.512zm21.39 3.584v-8.864c0-.917-.29-1.664-.86-2.24-.58-.576-1.33-.864-2.24-.864-.6 0-1.13.128-1.6.384s-.85.619-1.12 1.088c-.26.469-.39 1.013-.39 1.632l-1.63-.832c0-1.216.26-2.272.77-3.168a5.69 5.69 0 0 1 2.17-2.144c.94-.512 2-.768 3.17-.768 1.13 0 2.15.288 3.04.864.9.555 1.6 1.291 2.11 2.208.52.896.77 1.867.77 2.912V690h-4.19zm-10.4 0v-15.456h4.19V690h-4.19z" class="K"/><g filter="url(#H)"><g filter="url(#I)"><rect x="629" y="513" width="150" height="150" rx="75" fill="#fff" class="H"/><rect x="629" y="513" width="150" height="150" rx="75" fill="url(#M)" class="I"/><path d="M654.182 610l16.98-42.18h6.66l16.92 42.18h-8.7l-13.08-34.62h3L662.702 610h-8.52zm9-7.86v-6.84h22.68v6.84h-22.68zm53.64 8.46c-3 0-5.82-.54-8.46-1.62-2.6-1.12-4.9-2.68-6.9-4.68a22.47 22.47 0 0 1-4.62-6.9c-1.08-2.64-1.62-5.48-1.62-8.52 0-3.08.56-5.92 1.68-8.52 1.12-2.64 2.68-4.94 4.68-6.9 2-2 4.34-3.54 7.02-4.62 2.68-1.12 5.58-1.68 8.7-1.68 3.48 0 6.68.66 9.6 1.98 2.92 1.28 5.34 3.1 7.26 5.46l-5.52 5.52a13.17 13.17 0 0 0-4.92-3.96c-1.96-.92-4.12-1.38-6.48-1.38-2.68 0-5.06.6-7.14 1.8-2.04 1.16-3.64 2.8-4.8 4.92-1.16 2.08-1.74 4.52-1.74 7.32s.56 5.28 1.68 7.44c1.16 2.12 2.72 3.78 4.68 4.98 2 1.2 4.28 1.8 6.84 1.8 2.64 0 4.9-.48 6.78-1.44a10.23 10.23 0 0 0 4.32-4.32c1-1.92 1.5-4.26 1.5-7.02l5.34 3.66-18.42-.18v-7.08h21.48v1.14c0 5.04-.9 9.26-2.7 12.66-1.8 3.36-4.28 5.9-7.44 7.62-3.12 1.68-6.72 2.52-10.8 2.52zm27.199-.6v-42.18h8.16V610h-8.16z" class="G"/></g></g><g class="G"><path d="M197.659 516.135a1 1 0 0 0 1.408.138l6.953-5.715a1 1 0 0 0-1.27-1.545l-6.181 5.08-5.079-6.181a1 1 0 1 0-1.545 1.27l5.714 6.953zM629.802 64.026a1 1 0 0 0-.206-1.399l-7.222-5.37a1 1 0 0 0-1.193 1.605l6.42 4.773-4.774 6.42a1 1 0 0 0 1.605 1.193l5.37-7.222zm147.601-1.399a1 1 0 0 0-.206 1.399l5.37 7.222a1 1 0 0 0 1.605-1.193l-4.773-6.42 6.42-4.773a1 1 0 0 0-1.193-1.605l-7.223 5.37zm430.527 453.646c.43.35 1.06.289 1.41-.138l5.71-6.953c.36-.427.29-1.057-.13-1.408-.43-.35-1.06-.289-1.41.138l-5.08 6.181-6.18-5.08c-.43-.35-1.06-.289-1.41.138s-.29 1.057.14 1.407l6.95 5.715zM198.432 515.5l.995.097C222.084 283.916 400.841 98.005 629.145 64.419L629 63.43l-.146-.989C399.646 96.159 220.183 282.803 197.436 515.403l.996.097zM778 63.43l-.146.989c228.306 33.586 407.066 219.497 429.716 451.178l1-.097.99-.097c-22.74-232.6-202.21-419.244-431.415-452.963l-.145.989zM254.293 587.793a1 1 0 0 0 0 1.414l6.364 6.364a1 1 0 0 0 1.414-1.414l-5.657-5.657 5.657-5.657a1 1 0 0 0-1.414-1.414l-6.364 6.364zm348.414 1.414a1 1 0 0 0 0-1.414l-6.364-6.364a1 1 0 0 0-1.414 1.414l5.657 5.657-5.657 5.657a1 1 0 0 0 1.414 1.414l6.364-6.364zM255 588.5v1h347v-1-1H255v1zm549.293-.707a1 1 0 0 0 0 1.414l6.364 6.364a1 1 0 0 0 1.414-1.414l-5.657-5.657 5.657-5.657a1 1 0 0 0-1.414-1.414l-6.364 6.364zm348.417 1.414a1 1 0 0 0 0-1.414l-6.37-6.364c-.39-.391-1.02-.391-1.41 0a1 1 0 0 0 0 1.414l5.66 5.657-5.66 5.657a1 1 0 0 0 0 1.414c.39.391 1.02.391 1.41 0l6.37-6.364zM805 588.5v1h347v-1-1H805v1z"/></g></g><defs><filter id="A" x="-393.9" y="270.988" width="2195.8" height="1610.85" filterUnits="userSpaceOnUse" class="B"><feFlood class="C"/><feBlend in="SourceGraphic"/><feGaussianBlur stdDeviation="96.42"/></filter><filter id="B" x="105.5" y="496" width="180" height="180" filterUnits="userSpaceOnUse" class="B"><feFlood result="A" class="C"/><feColorMatrix in="SourceAlpha" values="0 0 0 0 0 0 0 0 0 0 0 0 0 0 0 0 0 0 127 0" result="B"/><feOffset dy="6"/><feGaussianBlur stdDeviation="6"/><feComposite in2="B" operator="out"/><feColorMatrix values="0 0 0 0 1 0 0 0 0 1 0 0 0 0 1 0 0 0 0.08 0"/><feBlend in2="A"/><feBlend in="SourceGraphic"/></filter><filter id="C" x="155.5" y="546" width="80" height="80.5" filterUnits="userSpaceOnUse" class="B"><feFlood class="C"/><feBlend in="SourceGraphic" result="B"/><feColorMatrix in="SourceAlpha" values="0 0 0 0 0 0 0 0 0 0 0 0 0 0 0 0 0 0 127 0" result="C"/><feMorphology radius="1.5" in="SourceAlpha" result="D"/><feOffset/><feGaussianBlur stdDeviation=".75"/><feComposite in2="C" operator="arithmetic" k2="-1" k3="1"/><feColorMatrix values="0 0 0 0 0.968627 0 0 0 0 0.968627 0 0 0 0 0.972549 0 0 0 0.124 0"/><feBlend in2="B" result="D"/><feColorMatrix in="SourceAlpha" values="0 0 0 0 0 0 0 0 0 0 0 0 0 0 0 0 0 0 127 0" result="C"/><feMorphology radius="0.5" in="SourceAlpha"/><feOffset dy="0.5"/><feComposite in2="C" operator="arithmetic" k2="-1" k3="1"/><feColorMatrix values="0 0 0 0 1 0 0 0 0 1 0 0 0 0 1 0 0 0 0.124 0"/><feBlend in2="D"/></filter><filter id="D" x="614.5" y="-32" width="180" height="180" filterUnits="userSpaceOnUse" class="B"><feFlood result="A" class="C"/><feColorMatrix in="SourceAlpha" values="0 0 0 0 0 0 0 0 0 0 0 0 0 0 0 0 0 0 127 0" result="B"/><feOffset dy="6"/><feGaussianBlur stdDeviation="6"/><feComposite in2="B" operator="out"/><feColorMatrix values="0 0 0 0 1 0 0 0 0 1 0 0 0 0 1 0 0 0 0.08 0"/><feBlend in2="A"/><feBlend in="SourceGraphic"/></filter><filter id="E" x="664.5" y="18" width="80" height="80.5" filterUnits="userSpaceOnUse" class="B"><feFlood class="C"/><feBlend in="SourceGraphic" result="B"/><feColorMatrix in="SourceAlpha" values="0 0 0 0 0 0 0 0 0 0 0 0 0 0 0 0 0 0 127 0" result="C"/><feMorphology radius="1.5" in="SourceAlpha" result="D"/><feOffset/><feGaussianBlur stdDeviation=".75"/><feComposite in2="C" operator="arithmetic" k2="-1" k3="1"/><feColorMatrix values="0 0 0 0 0.968627 0 0 0 0 0.968627 0 0 0 0 0.972549 0 0 0 0.124 0"/><feBlend in2="B" result="D"/><feColorMatrix in="SourceAlpha" values="0 0 0 0 0 0 0 0 0 0 0 0 0 0 0 0 0 0 127 0" result="C"/><feMorphology radius="0.5" in="SourceAlpha"/><feOffset dy="0.5"/><feComposite in2="C" operator="arithmetic" k2="-1" k3="1"/><feColorMatrix values="0 0 0 0 1 0 0 0 0 1 0 0 0 0 1 0 0 0 0.124 0"/><feBlend in2="D"/></filter><filter id="F" x="1123.5" y="496" width="180" height="180" filterUnits="userSpaceOnUse" class="B"><feFlood result="A" class="C"/><feColorMatrix in="SourceAlpha" values="0 0 0 0 0 0 0 0 0 0 0 0 0 0 0 0 0 0 127 0" result="B"/><feOffset dy="6"/><feGaussianBlur stdDeviation="6"/><feComposite in2="B" operator="out"/><feColorMatrix values="0 0 0 0 1 0 0 0 0 1 0 0 0 0 1 0 0 0 0.08 0"/><feBlend in2="A"/><feBlend in="SourceGraphic"/></filter><filter id="G" x="1173.5" y="546" width="80" height="80.5" filterUnits="userSpaceOnUse" class="B"><feFlood class="C"/><feBlend in="SourceGraphic" result="B"/><feColorMatrix in="SourceAlpha" values="0 0 0 0 0 0 0 0 0 0 0 0 0 0 0 0 0 0 127 0" result="C"/><feMorphology radius="1.5" in="SourceAlpha" result="D"/><feOffset/><feGaussianBlur stdDeviation=".75"/><feComposite in2="C" operator="arithmetic" k2="-1" k3="1"/><feColorMatrix values="0 0 0 0 0.968627 0 0 0 0 0.968627 0 0 0 0 0.972549 0 0 0 0.124 0"/><feBlend in2="B" result="D"/><feColorMatrix in="SourceAlpha" values="0 0 0 0 0 0 0 0 0 0 0 0 0 0 0 0 0 0 127 0" result="C"/><feMorphology radius="0.5" in="SourceAlpha"/><feOffset dy="0.5"/><feComposite in2="C" operator="arithmetic" k2="-1" k3="1"/><feColorMatrix values="0 0 0 0 1 0 0 0 0 1 0 0 0 0 1 0 0 0 0.124 0"/><feBlend in2="D"/></filter><filter id="H" x="566.5" y="450.5" width="275" height="275" filterUnits="userSpaceOnUse" class="B"><feFlood result="A" class="C"/><feColorMatrix in="SourceAlpha" values="0 0 0 0 0 0 0 0 0 0 0 0 0 0 0 0 0 0 127 0" result="B"/><feOffset dy="15"/><feGaussianBlur stdDeviation="15"/><feComposite in2="B" operator="out"/><feColorMatrix values="0 0 0 0 0.231373 0 0 0 0 0.960784 0 0 0 0 1 0 0 0 0.5 0"/><feBlend in2="A" result="C"/><feColorMatrix in="SourceAlpha" values="0 0 0 0 0 0 0 0 0 0 0 0 0 0 0 0 0 0 127 0" result="B"/><feOffset dy="3.75"/><feGaussianBlur stdDeviation="3.125"/><feComposite in2="B" operator="out"/><feColorMatrix values="0 0 0 0 0.231373 0 0 0 0 0.960784 0 0 0 0 1 0 0 0 0.5 0"/><feBlend in2="C"/><feBlend in="SourceGraphic"/></filter><filter id="I" x="629" y="513" width="150" height="152.5" filterUnits="userSpaceOnUse" class="B"><feFlood class="C"/><feBlend in="SourceGraphic" result="B"/><feColorMatrix in="SourceAlpha" values="0 0 0 0 0 0 0 0 0 0 0 0 0 0 0 0 0 0 127 0" result="C"/><feMorphology radius="1.25" in="SourceAlpha" result="D"/><feOffset/><feGaussianBlur stdDeviation="6.25"/><feComposite in2="C" operator="arithmetic" k2="-1" k3="1"/><feColorMatrix values="0 0 0 0 0.027451 0 0 0 0 0.952941 0 0 0 0 1 0 0 0 0.33 0"/><feBlend in2="B" result="D"/><feColorMatrix in="SourceAlpha" values="0 0 0 0 0 0 0 0 0 0 0 0 0 0 0 0 0 0 127 0" result="C"/><feMorphology radius="2.5" in="SourceAlpha" result="E"/><feOffset dy="2.5"/><feGaussianBlur stdDeviation="3.125"/><feComposite in2="C" operator="arithmetic" k2="-1" k3="1"/><feColorMatrix values="0 0 0 0 0.231373 0 0 0 0 0.960784 0 0 0 0 1 0 0 0 0.5 0"/><feBlend in2="D" result="E"/><feColorMatrix in="SourceAlpha" values="0 0 0 0 0 0 0 0 0 0 0 0 0 0 0 0 0 0 127 0" result="C"/><feMorphology radius="1.875" in="SourceAlpha"/><feOffset/><feComposite in2="C" operator="arithmetic" k2="-1" k3="1"/><feColorMatrix values="0 0 0 0 0.027451 0 0 0 0 0.952941 0 0 0 0 1 0 0 0 0.33 0"/><feBlend in2="E"/></filter><radialGradient id="J" cx="0" cy="0" r="1" gradientTransform="matrix(4.255647627037053e-15,-69.5,52.977,3.2439056739214665e-15,195.5,626)" href="#R"><stop stop-color="#fff" stop-opacity=".176"/><stop offset="1" stop-color="#121314" stop-opacity=".439"/></radialGradient><radialGradient id="K" cx="0" cy="0" r="1" gradientTransform="matrix(4.255647627037053e-15,-69.5,52.977,3.2439056739214665e-15,704.5,98)" href="#R"><stop stop-color="#fff" stop-opacity=".176"/><stop offset="1" stop-color="#121314" stop-opacity=".439"/></radialGradient><radialGradient id="L" cx="0" cy="0" r="1" gradientTransform="matrix(4.255647627037053e-15,-69.5,52.977,3.2439056739214665e-15,1213.5,626)" href="#R"><stop stop-color="#fff" stop-opacity=".176"/><stop offset="1" stop-color="#121314" stop-opacity=".439"/></radialGradient><radialGradient id="M" cx="0" cy="0" r="1" gradientTransform="translate(704 663) rotate(-90) scale(130.312 99.332)" href="#R"><stop stop-color="#3bf5ff" stop-opacity=".2"/><stop offset="1" stop-color="#3bf5ff" stop-opacity=".6"/></radialGradient><clipPath id="N"><path fill="#fff" d="M0 0h1408v720H0z"/></clipPath><path id="O" d="M155.5 570c0-13.255 10.745-24 24-24h32c13.255 0 24 10.745 24 24v32c0 13.255-10.745 24-24 24h-32c-13.255 0-24-10.745-24-24v-32z"/><path id="P" d="M664.5 42c0-13.255 10.745-24 24-24h32c13.255 0 24 10.745 24 24v32c0 13.255-10.745 24-24 24h-32c-13.255 0-24-10.745-24-24V42z"/><path id="Q" d="M1173.5 570c0-13.255 10.75-24 24-24h32c13.25 0 24 10.745 24 24v32c0 13.255-10.75 24-24 24h-32c-13.25 0-24-10.745-24-24v-32z"/><linearGradient id="R" gradientUnits="userSpaceOnUse"/></defs></svg>