<svg width="67" height="72" viewBox="0 0 67 72" fill="none" xmlns="http://www.w3.org/2000/svg">
<g style="mix-blend-mode:plus-lighter" filter="url(#filter0_f_3928_29477)">
<path d="M33.4727 24.7188C39.5079 24.7188 44.4011 29.6112 44.4014 35.6465C44.4014 41.6819 39.5081 46.5752 33.4727 46.5752C27.4374 46.5749 22.5449 41.6818 22.5449 35.6465C22.5452 29.6114 27.4376 24.719 33.4727 24.7188ZM39.002 31.96C38.7753 31.3199 38.0727 30.9852 37.4326 31.2119C36.4495 31.5601 35.5167 32.2207 34.7061 32.9316C33.8827 33.6538 33.1149 34.4911 32.4639 35.2715C32.0281 35.7938 31.6378 36.299 31.3115 36.7402C31.0262 36.4192 30.741 36.1757 30.4658 35.9922C30.1541 35.7844 29.8666 35.6625 29.626 35.5938C29.5068 35.5597 29.4013 35.5392 29.3125 35.5273C29.2682 35.5214 29.2277 35.5179 29.1924 35.5156C29.1747 35.5145 29.1579 35.5132 29.1426 35.5127H29.1025C29.1015 35.5186 29.1006 35.5977 29.1006 36.6562V35.5127C28.4217 35.5127 27.8713 36.0624 27.8711 36.7412C27.8711 37.374 28.3492 37.8949 28.9639 37.9629C28.97 37.9653 28.9791 37.9689 28.9893 37.9736C29.0142 37.9852 29.0522 38.0052 29.1016 38.0381C29.2954 38.1673 29.7132 38.5308 30.1865 39.4775C30.3847 39.8737 30.7813 40.1326 31.2236 40.1553C31.6658 40.1778 32.0856 39.9605 32.3232 39.5869C32.3234 39.5867 32.3246 39.5858 32.3252 39.585C32.3264 39.5832 32.3284 39.5803 32.3311 39.5762C32.3366 39.5676 32.3446 39.5534 32.3564 39.5352C32.3802 39.4986 32.4171 39.4437 32.4648 39.3721C32.5603 39.2287 32.7013 39.0201 32.8809 38.7656C33.2411 38.2553 33.7516 37.5659 34.3516 36.8467C34.954 36.1246 35.632 35.39 36.3271 34.7803C37.0351 34.1594 37.6942 33.7275 38.2539 33.5293C38.8937 33.3025 39.2286 32.5999 39.002 31.96ZM29.0986 37.9707H29.0645C29.0604 37.9706 29.0565 37.9699 29.0527 37.9697C29.0679 37.9703 29.0834 37.9707 29.0986 37.9707Z" fill="#3BF5FF"/>
<path d="M53.1424 33.8683V27.5234C53.1424 23.9389 53.1424 22.1466 52.2592 20.9774C51.3759 19.808 49.3789 19.2404 45.3849 18.105C42.6561 17.3293 40.2506 16.3948 38.3287 15.5417C35.7084 14.3785 34.3983 13.7969 33.4716 13.7969C32.5449 13.7969 31.2348 14.3785 28.6144 15.5417C26.6926 16.3948 24.2872 17.3293 21.5584 18.105C17.5643 19.2404 15.5673 19.808 14.684 20.9774C13.8008 22.1466 13.8008 23.9389 13.8008 27.5234V33.8683C13.8008 46.163 24.8662 53.5395 30.3986 56.4593C31.7255 57.1596 32.3888 57.5098 33.4716 57.5098C34.5543 57.5098 35.2177 57.1596 36.5446 56.4593C42.0769 53.5395 53.1424 46.163 53.1424 33.8683Z" stroke="#3BF5FF" stroke-width="2.45885" stroke-linecap="round"/>
</g>
<g style="mix-blend-mode:plus-lighter" filter="url(#filter1_f_3928_29477)">
<path d="M33.4727 24.7188C39.5079 24.7188 44.4011 29.6112 44.4014 35.6465C44.4014 41.6819 39.5081 46.5752 33.4727 46.5752C27.4374 46.5749 22.5449 41.6818 22.5449 35.6465C22.5452 29.6114 27.4376 24.719 33.4727 24.7188ZM39.002 31.96C38.7753 31.3199 38.0727 30.9852 37.4326 31.2119C36.4495 31.5601 35.5167 32.2207 34.7061 32.9316C33.8827 33.6538 33.1149 34.4911 32.4639 35.2715C32.0281 35.7938 31.6378 36.299 31.3115 36.7402C31.0262 36.4192 30.741 36.1757 30.4658 35.9922C30.1541 35.7844 29.8666 35.6625 29.626 35.5938C29.5068 35.5597 29.4013 35.5392 29.3125 35.5273C29.2682 35.5214 29.2277 35.5179 29.1924 35.5156C29.1747 35.5145 29.1579 35.5132 29.1426 35.5127H29.1025C29.1015 35.5186 29.1006 35.5977 29.1006 36.6562V35.5127C28.4217 35.5127 27.8713 36.0624 27.8711 36.7412C27.8711 37.374 28.3492 37.8949 28.9639 37.9629C28.97 37.9653 28.9791 37.9689 28.9893 37.9736C29.0142 37.9852 29.0522 38.0052 29.1016 38.0381C29.2954 38.1673 29.7132 38.5308 30.1865 39.4775C30.3847 39.8737 30.7813 40.1326 31.2236 40.1553C31.6658 40.1778 32.0856 39.9605 32.3232 39.5869C32.3234 39.5867 32.3246 39.5858 32.3252 39.585C32.3264 39.5832 32.3284 39.5803 32.3311 39.5762C32.3366 39.5676 32.3446 39.5534 32.3564 39.5352C32.3802 39.4986 32.4171 39.4437 32.4648 39.3721C32.5603 39.2287 32.7013 39.0201 32.8809 38.7656C33.2411 38.2553 33.7516 37.5659 34.3516 36.8467C34.954 36.1246 35.632 35.39 36.3271 34.7803C37.0351 34.1594 37.6942 33.7275 38.2539 33.5293C38.8937 33.3025 39.2286 32.5999 39.002 31.96ZM29.0986 37.9707H29.0645C29.0604 37.9706 29.0565 37.9699 29.0527 37.9697C29.0679 37.9703 29.0834 37.9707 29.0986 37.9707Z" fill="#3BF5FF"/>
<path d="M53.1424 33.8683V27.5234C53.1424 23.9389 53.1424 22.1466 52.2592 20.9774C51.3759 19.808 49.3789 19.2404 45.3849 18.105C42.6561 17.3293 40.2506 16.3948 38.3287 15.5417C35.7084 14.3785 34.3983 13.7969 33.4716 13.7969C32.5449 13.7969 31.2348 14.3785 28.6144 15.5417C26.6926 16.3948 24.2872 17.3293 21.5584 18.105C17.5643 19.2404 15.5673 19.808 14.684 20.9774C13.8008 22.1466 13.8008 23.9389 13.8008 27.5234V33.8683C13.8008 46.163 24.8662 53.5395 30.3986 56.4593C31.7255 57.1596 32.3888 57.5098 33.4716 57.5098C34.5543 57.5098 35.2177 57.1596 36.5446 56.4593C42.0769 53.5395 53.1424 46.163 53.1424 33.8683Z" stroke="#3BF5FF" stroke-width="2.45885" stroke-linecap="round"/>
</g>
<g style="mix-blend-mode:plus-lighter" filter="url(#filter2_f_3928_29477)">
<path d="M33.4727 24.7188C39.5079 24.7188 44.4011 29.6112 44.4014 35.6465C44.4014 41.6819 39.5081 46.5752 33.4727 46.5752C27.4374 46.5749 22.5449 41.6818 22.5449 35.6465C22.5452 29.6114 27.4376 24.719 33.4727 24.7188Z" fill="#3BF5FF"/>
<path d="M53.1424 33.8683V27.5234C53.1424 23.9389 53.1424 22.1466 52.2592 20.9774C51.3759 19.808 49.3789 19.2404 45.3849 18.105C42.6561 17.3293 40.2506 16.3948 38.3287 15.5417C35.7084 14.3785 34.3983 13.7969 33.4716 13.7969C32.5449 13.7969 31.2348 14.3785 28.6144 15.5417C26.6926 16.3948 24.2872 17.3293 21.5584 18.105C17.5643 19.2404 15.5673 19.808 14.684 20.9774C13.8008 22.1466 13.8008 23.9389 13.8008 27.5234V33.8683C13.8008 46.163 24.8662 53.5395 30.3986 56.4593C31.7255 57.1596 32.3888 57.5098 33.4716 57.5098C34.5543 57.5098 35.2177 57.1596 36.5446 56.4593C42.0769 53.5395 53.1424 46.163 53.1424 33.8683Z" stroke="#3BF5FF" stroke-width="1.25719" stroke-linecap="round"/>
</g>
<path d="M53.1424 33.8683V27.5234C53.1424 23.9389 53.1424 22.1466 52.2592 20.9774C51.3759 19.808 49.3789 19.2404 45.3849 18.105C42.6561 17.3293 40.2506 16.3948 38.3287 15.5417C35.7084 14.3785 34.3983 13.7969 33.4716 13.7969C32.5449 13.7969 31.2348 14.3785 28.6144 15.5417C26.6926 16.3948 24.2872 17.3293 21.5584 18.105C17.5643 19.2404 15.5673 19.808 14.684 20.9774C13.8008 22.1466 13.8008 23.9389 13.8008 27.5234V33.8683C13.8008 46.163 24.8662 53.5395 30.3986 56.4593C31.7255 57.1596 32.3888 57.5098 33.4716 57.5098C34.5543 57.5098 35.2177 57.1596 36.5446 56.4593C42.0769 53.5395 53.1424 46.163 53.1424 33.8683Z" fill="#012527"/>
<path d="M21.3228 26.6018C21.103 26.6018 20.896 26.5618 20.7018 26.4819C20.5105 26.4019 20.3435 26.292 20.2008 26.1521C20.058 26.0094 19.9452 25.8438 19.8624 25.6553C19.7825 25.464 19.7425 25.2585 19.7425 25.0386C19.7425 24.8188 19.7839 24.6146 19.8667 24.4262C19.9495 24.2378 20.0637 24.0736 20.2093 23.9337C20.3578 23.7909 20.5305 23.681 20.7275 23.6039C20.9245 23.524 21.1358 23.484 21.3614 23.484C21.6212 23.484 21.8567 23.5311 22.068 23.6253C22.2821 23.7196 22.4592 23.8495 22.5991 24.0151L22.1408 24.4733C22.0437 24.3477 21.9295 24.2535 21.7982 24.1907C21.6669 24.1278 21.5184 24.0964 21.3528 24.0964C21.1758 24.0964 21.0173 24.1364 20.8774 24.2164C20.7375 24.2934 20.6276 24.4034 20.5477 24.5461C20.4706 24.686 20.432 24.8502 20.432 25.0386C20.432 25.2271 20.4706 25.3927 20.5477 25.5354C20.6247 25.6782 20.7304 25.7895 20.8646 25.8695C20.9988 25.9494 21.1529 25.9894 21.3271 25.9894C21.5041 25.9894 21.654 25.9565 21.7768 25.8909C21.9024 25.8224 21.9981 25.7253 22.0637 25.5997C22.1322 25.4712 22.1665 25.3156 22.1665 25.1328L22.6119 25.4326L21.2629 25.4112V24.8416H22.8517V24.9401C22.8517 25.3027 22.7861 25.6082 22.6547 25.8566C22.5262 26.1022 22.3464 26.2877 22.1151 26.4134C21.8867 26.539 21.6226 26.6018 21.3228 26.6018ZM24.21 26.6018C24.0187 26.6018 23.8488 26.5633 23.7004 26.4862C23.5548 26.4062 23.4406 26.2977 23.3578 26.1607C23.275 26.0208 23.2336 25.8609 23.2336 25.681V24.4733H23.8888V25.6725C23.8888 25.7438 23.9002 25.8052 23.9231 25.8566C23.9488 25.908 23.9859 25.948 24.0344 25.9765C24.083 26.0051 24.1415 26.0194 24.21 26.0194C24.3071 26.0194 24.3842 25.9894 24.4413 25.9294C24.4984 25.8666 24.5269 25.781 24.5269 25.6725V24.4733H25.1822V25.6767C25.1822 25.8595 25.1408 26.0208 25.058 26.1607C24.9752 26.2977 24.861 26.4062 24.7154 26.4862C24.5697 26.5633 24.4013 26.6018 24.21 26.6018ZM26.5486 26.5975C26.3573 26.5975 26.186 26.5504 26.0347 26.4562C25.8862 26.362 25.7677 26.2335 25.6792 26.0707C25.5936 25.908 25.5507 25.7224 25.5507 25.514C25.5507 25.3056 25.5936 25.12 25.6792 24.9573C25.7677 24.7945 25.8862 24.666 26.0347 24.5718C26.186 24.4776 26.3573 24.4305 26.5486 24.4305C26.6885 24.4305 26.8141 24.4576 26.9255 24.5119C27.0397 24.5661 27.1325 24.6418 27.2039 24.7388C27.2752 24.8331 27.3152 24.9415 27.3238 25.0643V25.9637C27.3152 26.0864 27.2752 26.1964 27.2039 26.2934C27.1353 26.3877 27.044 26.4619 26.9298 26.5161C26.8156 26.5704 26.6885 26.5975 26.5486 26.5975ZM26.6814 26.0065C26.8213 26.0065 26.934 25.9608 27.0197 25.8695C27.1054 25.7752 27.1482 25.6568 27.1482 25.514C27.1482 25.4169 27.1282 25.3313 27.0882 25.257C27.0511 25.1828 26.9969 25.1257 26.9255 25.0857C26.857 25.0429 26.777 25.0215 26.6857 25.0215C26.5943 25.0215 26.5129 25.0429 26.4415 25.0857C26.373 25.1257 26.3173 25.1828 26.2745 25.257C26.2345 25.3313 26.2146 25.4169 26.2146 25.514C26.2146 25.6082 26.2345 25.6924 26.2745 25.7667C26.3145 25.8409 26.3702 25.8994 26.4415 25.9423C26.5129 25.9851 26.5929 26.0065 26.6814 26.0065ZM27.1225 26.5547V25.9937L27.221 25.4883L27.1225 24.9829V24.4733H27.7649V26.5547H27.1225ZM28.3119 26.5547V24.4733H28.9671V26.5547H28.3119ZM28.9671 25.4112L28.6931 25.1971C28.7473 24.9544 28.8387 24.766 28.9671 24.6318C29.0956 24.4976 29.2741 24.4305 29.5025 24.4305C29.6024 24.4305 29.6895 24.4462 29.7637 24.4776C29.8408 24.5061 29.9079 24.5518 29.965 24.6146L29.5753 25.1071C29.5467 25.0757 29.511 25.0515 29.4682 25.0343C29.4254 25.0172 29.3769 25.0086 29.3226 25.0086C29.2141 25.0086 29.127 25.0429 29.0614 25.1114C28.9985 25.1771 28.9671 25.277 28.9671 25.4112ZM31.0532 26.5975C30.8562 26.5975 30.6806 26.5504 30.5264 26.4562C30.3751 26.362 30.2552 26.2335 30.1667 26.0707C30.081 25.908 30.0382 25.7224 30.0382 25.514C30.0382 25.3056 30.081 25.12 30.1667 24.9573C30.2552 24.7945 30.3751 24.666 30.5264 24.5718C30.6806 24.4776 30.8562 24.4305 31.0532 24.4305C31.1959 24.4305 31.3244 24.4576 31.4386 24.5119C31.5557 24.5661 31.6513 24.6418 31.7255 24.7388C31.8026 24.8331 31.8455 24.9415 31.854 25.0643V25.9423C31.8455 26.065 31.8041 26.1764 31.7298 26.2763C31.6556 26.3734 31.56 26.4519 31.4429 26.5119C31.3258 26.569 31.1959 26.5975 31.0532 26.5975ZM31.1688 26.0065C31.263 26.0065 31.3444 25.9865 31.4129 25.9465C31.4814 25.9037 31.5357 25.8452 31.5757 25.771C31.6156 25.6967 31.6356 25.6111 31.6356 25.514C31.6356 25.4169 31.6156 25.3327 31.5757 25.2613C31.5385 25.1871 31.4843 25.1286 31.4129 25.0857C31.3444 25.0429 31.2644 25.0215 31.1731 25.0215C31.0817 25.0215 31.0003 25.0429 30.929 25.0857C30.8604 25.1286 30.8048 25.1871 30.7619 25.2613C30.722 25.3356 30.702 25.4198 30.702 25.514C30.702 25.6082 30.722 25.6924 30.7619 25.7667C30.8019 25.8409 30.8576 25.8994 30.929 25.9423C31.0003 25.9851 31.0803 26.0065 31.1688 26.0065ZM32.2523 26.5547H31.6099V25.9937L31.7084 25.4883L31.5971 24.9829V23.4455H32.2523V26.5547ZM32.7993 26.5547V24.4733H33.4546V26.5547H32.7993ZM33.1291 24.1864C33.0263 24.1864 32.9407 24.1521 32.8721 24.0836C32.8065 24.0122 32.7736 23.9266 32.7736 23.8266C32.7736 23.7238 32.8065 23.6382 32.8721 23.5697C32.9407 23.5011 33.0263 23.4669 33.1291 23.4669C33.2319 23.4669 33.3161 23.5011 33.3818 23.5697C33.4474 23.6382 33.4803 23.7238 33.4803 23.8266C33.4803 23.9266 33.4474 24.0122 33.3818 24.0836C33.3161 24.1521 33.2319 24.1864 33.1291 24.1864ZM34.871 26.5975C34.6797 26.5975 34.5084 26.5504 34.3571 26.4562C34.2086 26.362 34.0902 26.2335 34.0016 26.0707C33.916 25.908 33.8732 25.7224 33.8732 25.514C33.8732 25.3056 33.916 25.12 34.0016 24.9573C34.0902 24.7945 34.2086 24.666 34.3571 24.5718C34.5084 24.4776 34.6797 24.4305 34.871 24.4305C35.0109 24.4305 35.1366 24.4576 35.2479 24.5119C35.3621 24.5661 35.4549 24.6418 35.5263 24.7388C35.5977 24.8331 35.6376 24.9415 35.6462 25.0643V25.9637C35.6376 26.0864 35.5977 26.1964 35.5263 26.2934C35.4578 26.3877 35.3664 26.4619 35.2522 26.5161C35.138 26.5704 35.0109 26.5975 34.871 26.5975ZM35.0038 26.0065C35.1437 26.0065 35.2565 25.9608 35.3421 25.8695C35.4278 25.7752 35.4706 25.6568 35.4706 25.514C35.4706 25.4169 35.4506 25.3313 35.4106 25.257C35.3735 25.1828 35.3193 25.1257 35.2479 25.0857C35.1794 25.0429 35.0994 25.0215 35.0081 25.0215C34.9167 25.0215 34.8353 25.0429 34.764 25.0857C34.6954 25.1257 34.6398 25.1828 34.5969 25.257C34.557 25.3313 34.537 25.4169 34.537 25.514C34.537 25.6082 34.557 25.6924 34.5969 25.7667C34.6369 25.8409 34.6926 25.8994 34.764 25.9423C34.8353 25.9851 34.9153 26.0065 35.0038 26.0065ZM35.4449 26.5547V25.9937L35.5434 25.4883L35.4449 24.9829V24.4733H36.0873V26.5547H35.4449ZM38.0091 26.5547V25.3684C38.0091 25.2599 37.9748 25.1728 37.9063 25.1071C37.8406 25.0386 37.7564 25.0044 37.6536 25.0044C37.5822 25.0044 37.5194 25.0201 37.4652 25.0515C37.4109 25.08 37.3681 25.1228 37.3367 25.18C37.3053 25.2342 37.2896 25.297 37.2896 25.3684L37.0369 25.2442C37.0369 25.0815 37.0726 24.9387 37.144 24.8159C37.2153 24.6932 37.3138 24.5989 37.4395 24.5333C37.5679 24.4647 37.7121 24.4305 37.872 24.4305C38.0262 24.4305 38.1618 24.4676 38.2789 24.5418C38.3988 24.6132 38.493 24.7089 38.5615 24.8288C38.63 24.9487 38.6643 25.08 38.6643 25.2228V26.5547H38.0091ZM36.6343 26.5547V24.4733H37.2896V26.5547H36.6343ZM19.6697 31.5547L20.8689 28.5311H21.477L22.6633 31.5547H21.9524L21.0444 29.045H21.2886L20.3678 31.5547H19.6697ZM20.3507 31.0065V30.4583H21.9995V31.0065H20.3507ZM23.8159 32.4883C23.5875 32.4883 23.3862 32.4483 23.212 32.3684C23.0407 32.2913 22.9051 32.1814 22.8052 32.0386L23.2077 31.6361C23.282 31.7246 23.3648 31.7917 23.4561 31.8373C23.5503 31.883 23.6631 31.9059 23.7945 31.9059C23.9572 31.9059 24.0842 31.8659 24.1756 31.786C24.2698 31.706 24.3169 31.5932 24.3169 31.4476V30.9166L24.4283 30.4626L24.3298 30.0086V29.4733H24.9722V31.4305C24.9722 31.6446 24.9222 31.8302 24.8223 31.9872C24.7224 32.1443 24.5853 32.267 24.4112 32.3555C24.237 32.4441 24.0386 32.4883 23.8159 32.4883ZM23.7859 31.4904C23.5946 31.4904 23.4247 31.4448 23.2762 31.3534C23.1278 31.262 23.0107 31.1378 22.9251 30.9808C22.8394 30.8238 22.7966 30.6496 22.7966 30.4583C22.7966 30.2642 22.8394 30.09 22.9251 29.9358C23.0107 29.7788 23.1278 29.656 23.2762 29.5675C23.4247 29.4762 23.5946 29.4305 23.7859 29.4305C23.9286 29.4305 24.0557 29.4576 24.167 29.5119C24.2812 29.5632 24.3726 29.6375 24.4411 29.7346C24.5125 29.8288 24.5525 29.9387 24.561 30.0643V30.8566C24.5525 30.9794 24.5125 31.0893 24.4411 31.1864C24.3726 31.2806 24.2812 31.3548 24.167 31.4091C24.0528 31.4633 23.9258 31.4904 23.7859 31.4904ZM23.9101 30.908C24.0014 30.908 24.08 30.888 24.1456 30.848C24.2142 30.8081 24.2655 30.7553 24.2998 30.6896C24.3369 30.6211 24.3555 30.544 24.3555 30.4583C24.3555 30.3727 24.3369 30.2956 24.2998 30.2271C24.2655 30.1585 24.2142 30.1043 24.1456 30.0643C24.08 30.0243 24.0014 30.0044 23.9101 30.0044C23.8216 30.0044 23.7431 30.0243 23.6745 30.0643C23.606 30.1043 23.5532 30.1585 23.5161 30.2271C23.479 30.2956 23.4604 30.3727 23.4604 30.4583C23.4604 30.5383 23.479 30.6139 23.5161 30.6853C23.5532 30.7538 23.6046 30.8081 23.6703 30.848C23.7388 30.888 23.8187 30.908 23.9101 30.908ZM26.5481 31.6018C26.3226 31.6018 26.1213 31.5561 25.9443 31.4648C25.7701 31.3705 25.6331 31.2406 25.5331 31.075C25.4332 30.9094 25.3833 30.7224 25.3833 30.514C25.3833 30.3056 25.4318 30.12 25.5289 29.9573C25.6288 29.7917 25.763 29.6617 25.9314 29.5675C26.0999 29.4733 26.2898 29.4262 26.501 29.4262C26.7066 29.4262 26.8879 29.4705 27.0449 29.559C27.202 29.6475 27.3247 29.7702 27.4132 29.9273C27.5046 30.0843 27.5503 30.2642 27.5503 30.4669C27.5503 30.504 27.5474 30.544 27.5417 30.5868C27.5389 30.6268 27.5317 30.6739 27.5203 30.7281L25.7259 30.7324V30.2827L27.2419 30.2785L26.9593 30.4669C26.9564 30.347 26.9379 30.2485 26.9036 30.1714C26.8693 30.0914 26.8179 30.0315 26.7494 29.9915C26.6838 29.9487 26.6024 29.9273 26.5053 29.9273C26.4025 29.9273 26.3126 29.9515 26.2355 30.0001C26.1613 30.0458 26.1027 30.1114 26.0599 30.1971C26.0199 30.2827 26 30.3869 26 30.5097C26 30.6325 26.0214 30.7381 26.0642 30.8266C26.1099 30.9123 26.1727 30.9794 26.2526 31.0279C26.3354 31.0736 26.4325 31.0964 26.5439 31.0964C26.6466 31.0964 26.7394 31.0793 26.8222 31.0451C26.905 31.0079 26.9778 30.9537 27.0406 30.8823L27.4004 31.2421C27.2976 31.362 27.1734 31.4519 27.0278 31.5119C26.8822 31.5718 26.7223 31.6018 26.5481 31.6018ZM29.327 31.5547V30.3684C29.327 30.2599 29.2927 30.1728 29.2242 30.1071C29.1585 30.0386 29.0743 30.0044 28.9715 30.0044C28.9001 30.0044 28.8373 30.0201 28.7831 30.0515C28.7288 30.08 28.686 30.1228 28.6546 30.18C28.6232 30.2342 28.6075 30.297 28.6075 30.3684L28.3548 30.2442C28.3548 30.0815 28.3905 29.9387 28.4619 29.8159C28.5332 29.6932 28.6317 29.5989 28.7574 29.5333C28.8858 29.4647 29.03 29.4305 29.1899 29.4305C29.3441 29.4305 29.4797 29.4676 29.5968 29.5418C29.7167 29.6132 29.8109 29.7089 29.8794 29.8288C29.9479 29.9487 29.9822 30.08 29.9822 30.2228V31.5547H29.327ZM27.9522 31.5547V29.4733H28.6075V31.5547H27.9522ZM30.7591 31.5547V28.6125H31.4144V31.5547H30.7591ZM30.288 30.0301V29.4733H31.8854V30.0301H30.288ZM32.976 31.6061C32.8532 31.6061 32.7319 31.5904 32.612 31.559C32.4949 31.5276 32.385 31.4833 32.2822 31.4262C32.1823 31.3663 32.0966 31.2977 32.0253 31.2206L32.3979 30.8438C32.4664 30.918 32.5478 30.9765 32.642 31.0194C32.7362 31.0593 32.839 31.0793 32.9503 31.0793C33.0274 31.0793 33.0859 31.0679 33.1259 31.0451C33.1687 31.0222 33.1902 30.9908 33.1902 30.9508C33.1902 30.8994 33.1645 30.8609 33.1131 30.8352C33.0645 30.8066 33.0017 30.7824 32.9246 30.7624C32.8475 30.7396 32.7662 30.7153 32.6805 30.6896C32.5949 30.6639 32.5135 30.6282 32.4364 30.5825C32.3593 30.5368 32.2965 30.474 32.248 30.3941C32.1994 30.3113 32.1752 30.2071 32.1752 30.0815C32.1752 29.9473 32.2094 29.8316 32.2779 29.7346C32.3465 29.6346 32.4435 29.5561 32.5692 29.499C32.6948 29.4419 32.8418 29.4134 33.0103 29.4134C33.1873 29.4134 33.35 29.4448 33.4985 29.5076C33.6498 29.5675 33.7726 29.6575 33.8668 29.7774L33.4942 30.1543C33.4286 30.0772 33.3543 30.0229 33.2715 29.9915C33.1916 29.9601 33.1131 29.9444 33.036 29.9444C32.9617 29.9444 32.9061 29.9558 32.869 29.9787C32.8318 29.9987 32.8133 30.0286 32.8133 30.0686C32.8133 30.1114 32.8375 30.1457 32.8861 30.1714C32.9346 30.1971 32.9974 30.2199 33.0745 30.2399C33.1516 30.2599 33.233 30.2842 33.3186 30.3127C33.4043 30.3413 33.4857 30.3798 33.5627 30.4283C33.6398 30.4769 33.7026 30.5426 33.7512 30.6253C33.7997 30.7053 33.824 30.8109 33.824 30.9423C33.824 31.145 33.7469 31.3063 33.5927 31.4262C33.4414 31.5461 33.2358 31.6061 32.976 31.6061ZM20.5091 37.0986C20.3464 36.9587 20.2079 36.7902 20.0937 36.5932C19.9795 36.3962 19.8924 36.1807 19.8325 35.9465C19.7725 35.7124 19.7425 35.4669 19.7425 35.2099C19.7425 34.953 19.7725 34.7074 19.8325 34.4733C19.8924 34.2392 19.9795 34.0236 20.0937 33.8266C20.2079 33.6296 20.3464 33.4612 20.5091 33.3213L20.8689 33.6682C20.6861 33.8452 20.5462 34.0636 20.4492 34.3234C20.3521 34.5832 20.3035 34.8787 20.3035 35.2099C20.3035 35.5383 20.3521 35.8338 20.4492 36.0964C20.5462 36.3563 20.6861 36.5761 20.8689 36.756L20.5091 37.0986ZM21.3081 36.5547V33.5311H21.7792L21.9805 34.135V36.5547H21.3081ZM23.3938 36.5547L21.6122 34.272L21.7792 33.5311L23.5608 35.8138L23.3938 36.5547ZM23.3938 36.5547L23.2139 35.9508V33.5311H23.8863V36.5547H23.3938ZM24.3286 36.5547L25.5278 33.5311H26.1359L27.3222 36.5547H26.6113L25.7033 34.045H25.9475L25.0267 36.5547H24.3286ZM25.0096 36.0065V35.4583H26.6584V36.0065H25.0096ZM28.2723 35.4283L27.1075 33.5311H27.8869L28.782 35.0643H28.2809L29.176 33.5311H29.9383L28.7649 35.4283H28.2723ZM28.191 36.5547V35.12H28.8634V36.5547H28.191ZM29.7236 36.5547L30.9227 33.5311H31.5309L32.7172 36.5547H32.0063L31.0983 34.045H31.3424L30.4217 36.5547H29.7236ZM30.4045 36.0065V35.4583H32.0534V36.0065H30.4045ZM33.6367 35.3084V34.8116H34.2748C34.409 34.8116 34.5118 34.7774 34.5832 34.7089C34.6574 34.6403 34.6945 34.5475 34.6945 34.4305C34.6945 34.322 34.6588 34.2321 34.5874 34.1607C34.5161 34.0893 34.4133 34.0536 34.2791 34.0536H33.6367V33.5311H34.3562C34.556 33.5311 34.7316 33.5697 34.8829 33.6468C35.0343 33.721 35.1527 33.8252 35.2384 33.9594C35.3241 34.0936 35.3669 34.2478 35.3669 34.4219C35.3669 34.5989 35.3241 34.7545 35.2384 34.8887C35.1527 35.0201 35.0328 35.1228 34.8787 35.1971C34.7245 35.2713 34.5432 35.3084 34.3348 35.3084H33.6367ZM33.1228 36.5547V33.5311H33.7951V36.5547H33.1228ZM34.7673 36.5547L33.8251 35.2528L34.4418 35.0857L35.5639 36.5547H34.7673ZM36.135 37.0986L35.7752 36.756C35.9579 36.5761 36.0978 36.3563 36.1949 36.0964C36.292 35.8338 36.3405 35.5383 36.3405 35.2099C36.3405 34.8787 36.292 34.5832 36.1949 34.3234C36.0978 34.0636 35.9579 33.8452 35.7752 33.6682L36.135 33.3213C36.2977 33.4612 36.4362 33.6296 36.5504 33.8266C36.6646 34.0236 36.7517 34.2392 36.8116 34.4733C36.8716 34.7074 36.9015 34.953 36.9015 35.2099C36.9015 35.4669 36.8716 35.7124 36.8116 35.9465C36.7517 36.1807 36.6646 36.3962 36.5504 36.5932C36.4362 36.7902 36.2977 36.9587 36.135 37.0986Z" fill="#EAEBEB"/>
<g style="mix-blend-mode:plus-lighter" filter="url(#filter3_f_3928_29477)">
<path d="M45.7344 27.1797C46.7286 27.1799 47.5342 27.9861 47.5342 28.9805C47.5341 29.9747 46.7286 30.7811 45.7344 30.7812C44.74 30.7812 43.9337 29.9748 43.9336 28.9805C43.9336 27.986 44.7399 27.1797 45.7344 27.1797ZM46.6445 28.3691C46.6071 28.2638 46.4911 28.2088 46.3857 28.2461C46.2238 28.3035 46.07 28.4122 45.9365 28.5293C45.8009 28.6483 45.6746 28.7865 45.5674 28.915C45.4956 29.0011 45.4307 29.0845 45.377 29.1572C45.3301 29.1045 45.2835 29.0644 45.2383 29.0342C45.1869 28.9999 45.1393 28.9791 45.0996 28.9678C45.08 28.9622 45.0625 28.959 45.0479 28.957C45.0406 28.9561 45.0341 28.9555 45.0283 28.9551H45.0137H45.0127C44.901 28.9553 44.8106 29.0455 44.8105 29.1572C44.8106 29.2614 44.8891 29.347 44.9902 29.3584C44.9912 29.3588 44.9934 29.3596 44.9951 29.3604C44.9992 29.3623 45.0058 29.3658 45.0137 29.3711C45.0458 29.3926 45.1147 29.453 45.1924 29.6084C45.2251 29.6734 45.2906 29.716 45.3633 29.7197C45.4179 29.7224 45.4704 29.7029 45.5098 29.667L45.5439 29.626L45.5449 29.624C45.5458 29.6226 45.5479 29.6202 45.5498 29.6172C45.5537 29.6112 45.5597 29.6023 45.5674 29.5908C45.5831 29.5672 45.6061 29.5322 45.6357 29.4902C45.695 29.4062 45.7793 29.2931 45.8779 29.1748C45.9772 29.0558 46.0895 28.9344 46.2041 28.834C46.3207 28.7318 46.4293 28.6606 46.5215 28.6279C46.6268 28.5905 46.6819 28.4745 46.6445 28.3691Z" fill="#3BF5FF"/>
<path d="M48.9744 28.6821V27.6367C48.9744 27.0461 48.9744 26.7508 48.8289 26.5581C48.6833 26.3654 48.3543 26.2719 47.6962 26.0848C47.2466 25.957 46.8502 25.8031 46.5336 25.6625C46.1018 25.4708 45.886 25.375 45.7333 25.375C45.5806 25.375 45.3647 25.4708 44.933 25.6625C44.6163 25.8031 44.22 25.957 43.7704 26.0848C43.1123 26.2719 42.7832 26.3654 42.6377 26.5581C42.4922 26.7508 42.4922 27.0461 42.4922 27.6367V28.6821C42.4922 30.7079 44.3154 31.9233 45.227 32.4044C45.4456 32.5197 45.5549 32.5774 45.7333 32.5774C45.9117 32.5774 46.021 32.5197 46.2396 32.4044C47.1512 31.9233 48.9744 30.7079 48.9744 28.6821Z" stroke="#3BF5FF" stroke-width="0.405137" stroke-linecap="round"/>
</g>
<g style="mix-blend-mode:plus-lighter" filter="url(#filter4_f_3928_29477)">
<path d="M45.7344 27.1797C46.7286 27.1799 47.5342 27.9861 47.5342 28.9805C47.5341 29.9747 46.7286 30.7811 45.7344 30.7812C44.74 30.7812 43.9337 29.9748 43.9336 28.9805C43.9336 27.986 44.7399 27.1797 45.7344 27.1797ZM46.6445 28.3691C46.6071 28.2638 46.4911 28.2088 46.3857 28.2461C46.2238 28.3035 46.07 28.4122 45.9365 28.5293C45.8009 28.6483 45.6746 28.7865 45.5674 28.915C45.4956 29.0011 45.4307 29.0845 45.377 29.1572C45.3301 29.1045 45.2835 29.0644 45.2383 29.0342C45.1869 28.9999 45.1393 28.9791 45.0996 28.9678C45.08 28.9622 45.0625 28.959 45.0479 28.957C45.0406 28.9561 45.0341 28.9555 45.0283 28.9551H45.0137H45.0127C44.901 28.9553 44.8106 29.0455 44.8105 29.1572C44.8106 29.2614 44.8891 29.347 44.9902 29.3584C44.9912 29.3588 44.9934 29.3596 44.9951 29.3604C44.9992 29.3623 45.0058 29.3658 45.0137 29.3711C45.0458 29.3926 45.1147 29.453 45.1924 29.6084C45.2251 29.6734 45.2906 29.716 45.3633 29.7197C45.4179 29.7224 45.4704 29.7029 45.5098 29.667L45.5439 29.626L45.5449 29.624C45.5458 29.6226 45.5479 29.6202 45.5498 29.6172C45.5537 29.6112 45.5597 29.6023 45.5674 29.5908C45.5831 29.5672 45.6061 29.5322 45.6357 29.4902C45.695 29.4062 45.7793 29.2931 45.8779 29.1748C45.9772 29.0558 46.0895 28.9344 46.2041 28.834C46.3207 28.7318 46.4293 28.6606 46.5215 28.6279C46.6268 28.5905 46.6819 28.4745 46.6445 28.3691Z" fill="#3BF5FF"/>
<path d="M48.9744 28.6821V27.6367C48.9744 27.0461 48.9744 26.7508 48.8289 26.5581C48.6833 26.3654 48.3543 26.2719 47.6962 26.0848C47.2466 25.957 46.8502 25.8031 46.5336 25.6625C46.1018 25.4708 45.886 25.375 45.7333 25.375C45.5806 25.375 45.3647 25.4708 44.933 25.6625C44.6163 25.8031 44.22 25.957 43.7704 26.0848C43.1123 26.2719 42.7832 26.3654 42.6377 26.5581C42.4922 26.7508 42.4922 27.0461 42.4922 27.6367V28.6821C42.4922 30.7079 44.3154 31.9233 45.227 32.4044C45.4456 32.5197 45.5549 32.5774 45.7333 32.5774C45.9117 32.5774 46.021 32.5197 46.2396 32.4044C47.1512 31.9233 48.9744 30.7079 48.9744 28.6821Z" stroke="#3BF5FF" stroke-width="0.405137" stroke-linecap="round"/>
</g>
<g style="mix-blend-mode:plus-lighter" filter="url(#filter5_f_3928_29477)">
<path d="M45.7344 27.1797C46.7286 27.1799 47.5342 27.9861 47.5342 28.9805C47.5341 29.9747 46.7286 30.7811 45.7344 30.7812C44.74 30.7812 43.9337 29.9748 43.9336 28.9805C43.9336 27.986 44.7399 27.1797 45.7344 27.1797ZM46.6445 28.3691C46.6071 28.2638 46.4911 28.2088 46.3857 28.2461C46.2238 28.3035 46.07 28.4122 45.9365 28.5293C45.8009 28.6483 45.6746 28.7865 45.5674 28.915C45.4956 29.0011 45.4307 29.0845 45.377 29.1572C45.3301 29.1045 45.2835 29.0644 45.2383 29.0342C45.1869 28.9999 45.1393 28.9791 45.0996 28.9678C45.08 28.9622 45.0625 28.959 45.0479 28.957C45.0406 28.9561 45.0341 28.9555 45.0283 28.9551H45.0137H45.0127C44.901 28.9553 44.8106 29.0455 44.8105 29.1572C44.8106 29.2614 44.8891 29.347 44.9902 29.3584C44.9912 29.3588 44.9934 29.3596 44.9951 29.3604C44.9992 29.3623 45.0058 29.3658 45.0137 29.3711C45.0458 29.3926 45.1147 29.453 45.1924 29.6084C45.2251 29.6734 45.2906 29.716 45.3633 29.7197C45.4179 29.7224 45.4704 29.7029 45.5098 29.667L45.5439 29.626L45.5449 29.624C45.5458 29.6226 45.5479 29.6202 45.5498 29.6172C45.5537 29.6112 45.5597 29.6023 45.5674 29.5908C45.5831 29.5672 45.6061 29.5322 45.6357 29.4902C45.695 29.4062 45.7793 29.2931 45.8779 29.1748C45.9772 29.0558 46.0895 28.9344 46.2041 28.834C46.3207 28.7318 46.4293 28.6606 46.5215 28.6279C46.6268 28.5905 46.6819 28.4745 46.6445 28.3691Z" fill="#3BF5FF"/>
<path d="M48.9744 28.6821V27.6367C48.9744 27.0461 48.9744 26.7508 48.8289 26.5581C48.6833 26.3654 48.3543 26.2719 47.6962 26.0848C47.2466 25.957 46.8502 25.8031 46.5336 25.6625C46.1018 25.4708 45.886 25.375 45.7333 25.375C45.5806 25.375 45.3647 25.4708 44.933 25.6625C44.6163 25.8031 44.22 25.957 43.7704 26.0848C43.1123 26.2719 42.7832 26.3654 42.6377 26.5581C42.4922 26.7508 42.4922 27.0461 42.4922 27.6367V28.6821C42.4922 30.7079 44.3154 31.9233 45.227 32.4044C45.4456 32.5197 45.5549 32.5774 45.7333 32.5774C45.9117 32.5774 46.021 32.5197 46.2396 32.4044C47.1512 31.9233 48.9744 30.7079 48.9744 28.6821Z" stroke="#3BF5FF" stroke-width="0.405137" stroke-linecap="round"/>
</g>
<path d="M45.7344 27.1797C46.7286 27.1799 47.5342 27.9861 47.5342 28.9805C47.5341 29.9747 46.7286 30.7811 45.7344 30.7812C44.74 30.7812 43.9337 29.9748 43.9336 28.9805C43.9336 27.986 44.7399 27.1797 45.7344 27.1797ZM46.6445 28.3691C46.6071 28.2638 46.4911 28.2088 46.3857 28.2461C46.2238 28.3035 46.07 28.4122 45.9365 28.5293C45.8009 28.6483 45.6746 28.7865 45.5674 28.915C45.4956 29.0011 45.4307 29.0845 45.377 29.1572C45.3301 29.1045 45.2835 29.0644 45.2383 29.0342C45.1869 28.9999 45.1393 28.9791 45.0996 28.9678C45.08 28.9622 45.0625 28.959 45.0479 28.957C45.0406 28.9561 45.0341 28.9555 45.0283 28.9551H45.0137H45.0127C44.901 28.9553 44.8106 29.0455 44.8105 29.1572C44.8106 29.2614 44.8891 29.347 44.9902 29.3584C44.9912 29.3588 44.9934 29.3596 44.9951 29.3604C44.9992 29.3623 45.0058 29.3658 45.0137 29.3711C45.0458 29.3926 45.1147 29.453 45.1924 29.6084C45.2251 29.6734 45.2906 29.716 45.3633 29.7197C45.4179 29.7224 45.4704 29.7029 45.5098 29.667L45.5439 29.626L45.5449 29.624C45.5458 29.6226 45.5479 29.6202 45.5498 29.6172C45.5537 29.6112 45.5597 29.6023 45.5674 29.5908C45.5831 29.5672 45.6061 29.5322 45.6357 29.4902C45.695 29.4062 45.7793 29.2931 45.8779 29.1748C45.9772 29.0558 46.0895 28.9344 46.2041 28.834C46.3207 28.7318 46.4293 28.6606 46.5215 28.6279C46.6268 28.5905 46.6819 28.4745 46.6445 28.3691Z" fill="#003A3D"/>
<path d="M48.9744 28.6821V27.6367C48.9744 27.0461 48.9744 26.7508 48.8289 26.5581C48.6833 26.3654 48.3543 26.2719 47.6962 26.0848C47.2466 25.957 46.8502 25.8031 46.5336 25.6625C46.1018 25.4708 45.886 25.375 45.7333 25.375C45.5806 25.375 45.3647 25.4708 44.933 25.6625C44.6163 25.8031 44.22 25.957 43.7704 26.0848C43.1123 26.2719 42.7832 26.3654 42.6377 26.5581C42.4922 26.7508 42.4922 27.0461 42.4922 27.6367V28.6821C42.4922 30.7079 44.3154 31.9233 45.227 32.4044C45.4456 32.5197 45.5549 32.5774 45.7333 32.5774C45.9117 32.5774 46.021 32.5197 46.2396 32.4044C47.1512 31.9233 48.9744 30.7079 48.9744 28.6821Z" stroke="#003A3D" stroke-width="0.405137" stroke-linecap="round"/>
<path d="M19.8814 41.3906V39.7828H20.0991V41.3906H19.8814ZM20.0296 41.3906V41.1914H20.9517V41.3906H20.0296ZM20.0296 40.6632V40.4732H20.8752V40.6632H20.0296ZM20.0296 39.9821V39.7828H20.9401V39.9821H20.0296ZM21.4262 41.3906V39.8292H21.6347V41.3906H21.4262ZM21.1552 40.4802V40.2902H21.9058V40.4802H21.1552ZM22.9348 41.3906V40.7489C22.9348 40.6655 22.9085 40.5968 22.856 40.5427C22.8035 40.4887 22.7355 40.4616 22.6521 40.4616C22.5965 40.4616 22.5471 40.474 22.5039 40.4987C22.4606 40.5234 22.4267 40.5574 22.4019 40.6006C22.3772 40.6439 22.3649 40.6933 22.3649 40.7489L22.2792 40.7003C22.2792 40.6169 22.2977 40.5427 22.3348 40.4779C22.3718 40.413 22.4236 40.362 22.49 40.3249C22.5564 40.2863 22.6313 40.267 22.7147 40.267C22.7981 40.267 22.8715 40.2856 22.9348 40.3226C22.9997 40.3597 23.0506 40.4114 23.0877 40.4779C23.1248 40.5443 23.1433 40.6207 23.1433 40.7072V41.3906H22.9348ZM22.1564 41.3906V39.7365H22.3649V41.3906H22.1564ZM23.4742 41.3906V40.2902H23.6827V41.3906H23.4742ZM23.5785 40.0701C23.5399 40.0701 23.5082 40.0578 23.4835 40.033C23.4588 40.0068 23.4464 39.9744 23.4464 39.9357C23.4464 39.8987 23.4588 39.8678 23.4835 39.8431C23.5082 39.8168 23.5399 39.8037 23.5785 39.8037C23.6171 39.8037 23.6488 39.8168 23.6735 39.8431C23.6982 39.8678 23.7105 39.8987 23.7105 39.9357C23.7105 39.9744 23.6982 40.0068 23.6735 40.033C23.6488 40.0578 23.6171 40.0701 23.5785 40.0701ZM24.5391 41.4138C24.4309 41.4138 24.3329 41.3883 24.2448 41.3373C24.1583 41.2864 24.0896 41.2176 24.0386 41.1312C23.9892 41.0431 23.9645 40.9458 23.9645 40.8393C23.9645 40.7311 23.9892 40.6338 24.0386 40.5474C24.0896 40.4609 24.1583 40.3929 24.2448 40.3435C24.3329 40.2925 24.4309 40.267 24.5391 40.267C24.624 40.267 24.7028 40.2832 24.7754 40.3157C24.8479 40.3466 24.9105 40.3921 24.963 40.4524L24.824 40.5914C24.79 40.5512 24.7483 40.5211 24.6989 40.501C24.651 40.4794 24.5977 40.4686 24.5391 40.4686C24.4696 40.4686 24.4078 40.4848 24.3537 40.5172C24.2997 40.5481 24.2572 40.5914 24.2263 40.647C24.1954 40.7026 24.18 40.7667 24.18 40.8393C24.18 40.9118 24.1954 40.9759 24.2263 41.0315C24.2572 41.0871 24.2997 41.1312 24.3537 41.1636C24.4078 41.196 24.4696 41.2122 24.5391 41.2122C24.5977 41.2122 24.651 41.2022 24.6989 41.1821C24.7483 41.1605 24.7908 41.1296 24.8263 41.0895L24.963 41.2285C24.912 41.2871 24.8495 41.3327 24.7754 41.3651C24.7028 41.3976 24.624 41.4138 24.5391 41.4138ZM25.5659 41.4138C25.5042 41.4138 25.4455 41.4061 25.3899 41.3906C25.3358 41.3736 25.2856 41.3505 25.2393 41.3211C25.193 41.2902 25.1528 41.2539 25.1188 41.2122L25.2532 41.0779C25.2933 41.1273 25.3397 41.1644 25.3922 41.1891C25.4447 41.2122 25.5034 41.2238 25.5683 41.2238C25.6331 41.2238 25.6833 41.213 25.7188 41.1914C25.7544 41.1682 25.7721 41.1366 25.7721 41.0964C25.7721 41.0562 25.7575 41.0254 25.7281 41.0037C25.7003 40.9806 25.664 40.962 25.6192 40.9481C25.5744 40.9327 25.5266 40.918 25.4756 40.9041C25.4262 40.8887 25.3791 40.8694 25.3343 40.8462C25.2895 40.823 25.2524 40.7914 25.2231 40.7512C25.1953 40.7111 25.1814 40.6578 25.1814 40.5914C25.1814 40.525 25.1976 40.4678 25.23 40.4199C25.2625 40.3705 25.3072 40.3327 25.3644 40.3064C25.4231 40.2802 25.4934 40.267 25.5752 40.267C25.6617 40.267 25.7381 40.2825 25.8046 40.3134C25.8725 40.3427 25.9281 40.3875 25.9714 40.4477L25.837 40.5821C25.8061 40.5419 25.7675 40.5111 25.7212 40.4894C25.6764 40.4678 25.6254 40.457 25.5683 40.457C25.508 40.457 25.4617 40.4678 25.4293 40.4894C25.3984 40.5095 25.3829 40.5381 25.3829 40.5752C25.3829 40.6122 25.3968 40.6408 25.4246 40.6609C25.4524 40.6809 25.4887 40.6979 25.5335 40.7118C25.5798 40.7257 25.6277 40.7404 25.6771 40.7559C25.7266 40.7698 25.7737 40.7891 25.8185 40.8138C25.8633 40.8385 25.8995 40.8717 25.9273 40.9134C25.9567 40.9551 25.9714 41.0099 25.9714 41.0779C25.9714 41.1814 25.9343 41.2632 25.8602 41.3234C25.7876 41.3837 25.6895 41.4138 25.5659 41.4138ZM26.2627 41.6455L26.4063 41.3698L26.4805 41.3512C26.4728 41.3682 26.4627 41.3821 26.4504 41.3929C26.4395 41.4038 26.4256 41.4092 26.4087 41.4092C26.3762 41.4092 26.3461 41.396 26.3183 41.3698C26.292 41.342 26.2789 41.308 26.2789 41.2678C26.2789 41.2231 26.2936 41.186 26.3229 41.1566C26.3523 41.1258 26.3893 41.1103 26.4341 41.1103C26.4743 41.1103 26.5098 41.1258 26.5407 41.1566C26.5716 41.186 26.587 41.2231 26.587 41.2678C26.587 41.2848 26.5832 41.3057 26.5755 41.3304C26.5693 41.3536 26.5562 41.3837 26.5361 41.4207L26.3832 41.7103L26.2627 41.6455ZM27.9664 41.4138C27.8583 41.4138 27.7602 41.3883 27.6722 41.3373C27.5857 41.2864 27.517 41.2176 27.466 41.1312C27.4166 41.0431 27.3919 40.9458 27.3919 40.8393C27.3919 40.7311 27.4166 40.6338 27.466 40.5474C27.517 40.4609 27.5857 40.3929 27.6722 40.3435C27.7602 40.2925 27.8583 40.267 27.9664 40.267C28.0513 40.267 28.1301 40.2832 28.2027 40.3157C28.2753 40.3466 28.3378 40.3921 28.3903 40.4524L28.2513 40.5914C28.2174 40.5512 28.1757 40.5211 28.1262 40.501C28.0784 40.4794 28.0251 40.4686 27.9664 40.4686C27.8969 40.4686 27.8351 40.4848 27.7811 40.5172C27.727 40.5481 27.6845 40.5914 27.6536 40.647C27.6227 40.7026 27.6073 40.7667 27.6073 40.8393C27.6073 40.9118 27.6227 40.9759 27.6536 41.0315C27.6845 41.0871 27.727 41.1312 27.7811 41.1636C27.8351 41.196 27.8969 41.2122 27.9664 41.2122C28.0251 41.2122 28.0784 41.2022 28.1262 41.1821C28.1757 41.1605 28.2181 41.1296 28.2537 41.0895L28.3903 41.2285C28.3394 41.2871 28.2768 41.3327 28.2027 41.3651C28.1301 41.3976 28.0513 41.4138 27.9664 41.4138ZM29.1236 41.4138C29.0154 41.4138 28.9181 41.3883 28.8317 41.3373C28.7452 41.2864 28.6764 41.2176 28.6255 41.1312C28.5745 41.0431 28.549 40.945 28.549 40.8369C28.549 40.7304 28.5745 40.6346 28.6255 40.5497C28.6764 40.4632 28.7452 40.3944 28.8317 40.3435C28.9181 40.2925 29.0154 40.267 29.1236 40.267C29.2301 40.267 29.3267 40.2925 29.4131 40.3435C29.5012 40.3929 29.5707 40.4609 29.6216 40.5474C29.6726 40.6338 29.6981 40.7304 29.6981 40.8369C29.6981 40.945 29.6726 41.0431 29.6216 41.1312C29.5707 41.2176 29.5012 41.2864 29.4131 41.3373C29.3267 41.3883 29.2301 41.4138 29.1236 41.4138ZM29.1236 41.2122C29.1931 41.2122 29.2548 41.196 29.3089 41.1636C29.3629 41.1312 29.4054 41.0871 29.4363 41.0315C29.4672 40.9744 29.4826 40.9095 29.4826 40.8369C29.4826 40.7659 29.4664 40.7026 29.434 40.647C29.4031 40.5914 29.3606 40.5481 29.3066 40.5172C29.2541 40.4848 29.1931 40.4686 29.1236 40.4686C29.0541 40.4686 28.9923 40.4848 28.9382 40.5172C28.8842 40.5481 28.8417 40.5914 28.8108 40.647C28.7799 40.7026 28.7645 40.7659 28.7645 40.8369C28.7645 40.9095 28.7799 40.9744 28.8108 41.0315C28.8417 41.0871 28.8842 41.1312 28.9382 41.1636C28.9923 41.196 29.0541 41.2122 29.1236 41.2122ZM29.9794 41.3906V40.2902H30.1879V41.3906H29.9794ZM30.723 41.3906V40.7257C30.723 40.6439 30.6975 40.5798 30.6466 40.5335C30.5971 40.4856 30.5346 40.4616 30.4589 40.4616C30.4079 40.4616 30.3624 40.4724 30.3222 40.4941C30.2821 40.5157 30.2496 40.5458 30.2249 40.5844C30.2002 40.623 30.1879 40.6694 30.1879 40.7234L30.1021 40.6817C30.1021 40.5983 30.1199 40.5257 30.1554 40.464C30.1925 40.4022 30.2427 40.3543 30.306 40.3203C30.3693 40.2848 30.4404 40.267 30.5191 40.267C30.5964 40.267 30.6659 40.284 30.7276 40.318C30.791 40.352 30.8404 40.3999 30.8759 40.4616C30.913 40.5234 30.9315 40.5968 30.9315 40.6817V41.3906H30.723ZM31.4667 41.3906V40.7257C31.4667 40.6439 31.4412 40.5798 31.3902 40.5335C31.3408 40.4856 31.279 40.4616 31.2049 40.4616C31.1539 40.4616 31.1076 40.4724 31.0659 40.4941C31.0257 40.5157 30.9933 40.5458 30.9686 40.5844C30.9439 40.623 30.9315 40.6694 30.9315 40.7234L30.8134 40.6817C30.818 40.5968 30.8404 40.5242 30.8805 40.464C30.9222 40.4022 30.9755 40.3543 31.0404 40.3203C31.1053 40.2848 31.1763 40.267 31.2535 40.267C31.3338 40.267 31.4057 40.284 31.469 40.318C31.5323 40.352 31.5825 40.3999 31.6196 40.4616C31.6582 40.5234 31.6775 40.5975 31.6775 40.684V41.3906H31.4667ZM32.5867 41.4138C32.5033 41.4138 32.4276 41.3968 32.3597 41.3628C32.2933 41.3273 32.24 41.2787 32.1998 41.2169C32.1597 41.1551 32.1373 41.0848 32.1326 41.0061V40.6748C32.1373 40.5945 32.1597 40.5242 32.1998 40.464C32.2415 40.4022 32.2956 40.3543 32.362 40.3203C32.43 40.2848 32.5049 40.267 32.5867 40.267C32.6871 40.267 32.7775 40.2925 32.8578 40.3435C32.9396 40.3944 33.0037 40.4632 33.0501 40.5497C33.0964 40.6362 33.1196 40.7335 33.1196 40.8416C33.1196 40.9497 33.0964 41.047 33.0501 41.1335C33.0037 41.22 32.9396 41.2887 32.8578 41.3397C32.7775 41.3891 32.6871 41.4138 32.5867 41.4138ZM32.0075 41.8516V40.2902H32.216V40.5798L32.1767 40.8462L32.216 41.1149V41.8516H32.0075ZM32.552 41.2169C32.6215 41.2169 32.6825 41.2007 32.735 41.1682C32.7875 41.1358 32.8292 41.0918 32.8601 41.0362C32.891 40.979 32.9064 40.9134 32.9064 40.8393C32.9064 40.7667 32.891 40.7018 32.8601 40.6447C32.8292 40.5875 32.7875 40.5435 32.735 40.5126C32.6825 40.4802 32.6222 40.464 32.5543 40.464C32.4848 40.464 32.4238 40.4802 32.3713 40.5126C32.3188 40.5435 32.2778 40.5875 32.2485 40.6447C32.2191 40.7018 32.2045 40.7674 32.2045 40.8416C32.2045 40.9142 32.2184 40.979 32.2462 41.0362C32.2755 41.0918 32.3164 41.1358 32.3689 41.1682C32.423 41.2007 32.484 41.2169 32.552 41.2169ZM33.4023 41.3906V39.7365H33.6108V41.3906H33.4023ZM33.9645 41.3906V40.2902H34.173V41.3906H33.9645ZM34.0687 40.0701C34.0301 40.0701 33.9984 40.0578 33.9737 40.033C33.949 40.0068 33.9367 39.9744 33.9367 39.9357C33.9367 39.8987 33.949 39.8678 33.9737 39.8431C33.9984 39.8168 34.0301 39.8037 34.0687 39.8037C34.1073 39.8037 34.139 39.8168 34.1637 39.8431C34.1884 39.8678 34.2008 39.8987 34.2008 39.9357C34.2008 39.9744 34.1884 40.0068 34.1637 40.033C34.139 40.0578 34.1073 40.0701 34.0687 40.0701ZM34.9945 41.4138C34.8942 41.4138 34.803 41.3891 34.7212 41.3397C34.6393 41.2887 34.5745 41.22 34.5266 41.1335C34.4802 41.047 34.4571 40.9497 34.4571 40.8416C34.4571 40.7335 34.4802 40.6362 34.5266 40.5497C34.5745 40.4632 34.6385 40.3944 34.7189 40.3435C34.8007 40.2925 34.8926 40.267 34.9945 40.267C35.0779 40.267 35.1521 40.2848 35.2169 40.3203C35.2834 40.3543 35.3366 40.4022 35.3768 40.464C35.417 40.5242 35.4393 40.5945 35.444 40.6748V41.0061C35.4393 41.0848 35.417 41.1551 35.3768 41.2169C35.3382 41.2787 35.2857 41.3273 35.2193 41.3628C35.1544 41.3968 35.0795 41.4138 34.9945 41.4138ZM35.0293 41.2169C35.1328 41.2169 35.2162 41.1821 35.2795 41.1126C35.3428 41.0416 35.3745 40.9512 35.3745 40.8416C35.3745 40.7659 35.3598 40.7003 35.3305 40.6447C35.3027 40.5875 35.2625 40.5435 35.21 40.5126C35.1575 40.4802 35.0965 40.464 35.027 40.464C34.9575 40.464 34.8957 40.4802 34.8416 40.5126C34.7891 40.545 34.7474 40.5898 34.7165 40.647C34.6872 40.7026 34.6725 40.7667 34.6725 40.8393C34.6725 40.9134 34.6872 40.979 34.7165 41.0362C34.7474 41.0918 34.7899 41.1358 34.844 41.1682C34.898 41.2007 34.9598 41.2169 35.0293 41.2169ZM35.3606 41.3906V41.0941L35.4 40.8254L35.3606 40.5589V40.2902H35.5714V41.3906H35.3606ZM36.6997 41.3906V40.7489C36.6997 40.6655 36.6734 40.5968 36.6209 40.5427C36.5684 40.4887 36.5005 40.4616 36.4171 40.4616C36.3615 40.4616 36.312 40.474 36.2688 40.4987C36.2256 40.5234 36.1916 40.5574 36.1669 40.6006C36.1422 40.6439 36.1298 40.6933 36.1298 40.7489L36.0441 40.7003C36.0441 40.6169 36.0626 40.5427 36.0997 40.4779C36.1367 40.413 36.1885 40.362 36.2549 40.3249C36.3213 40.2863 36.3962 40.267 36.4796 40.267C36.563 40.267 36.6364 40.2879 36.6997 40.3296C36.7646 40.3713 36.8155 40.4261 36.8526 40.4941C36.8897 40.5605 36.9082 40.6315 36.9082 40.7072V41.3906H36.6997ZM35.9213 41.3906V40.2902H36.1298V41.3906H35.9213ZM37.7395 41.4138C37.6314 41.4138 37.5334 41.3883 37.4453 41.3373C37.3588 41.2864 37.2901 41.2176 37.2391 41.1312C37.1897 41.0431 37.165 40.9458 37.165 40.8393C37.165 40.7311 37.1897 40.6338 37.2391 40.5474C37.2901 40.4609 37.3588 40.3929 37.4453 40.3435C37.5334 40.2925 37.6314 40.267 37.7395 40.267C37.8245 40.267 37.9033 40.2832 37.9758 40.3157C38.0484 40.3466 38.111 40.3921 38.1635 40.4524L38.0245 40.5914C37.9905 40.5512 37.9488 40.5211 37.8994 40.501C37.8515 40.4794 37.7982 40.4686 37.7395 40.4686C37.67 40.4686 37.6083 40.4848 37.5542 40.5172C37.5002 40.5481 37.4577 40.5914 37.4268 40.647C37.3959 40.7026 37.3805 40.7667 37.3805 40.8393C37.3805 40.9118 37.3959 40.9759 37.4268 41.0315C37.4577 41.0871 37.5002 41.1312 37.5542 41.1636C37.6083 41.196 37.67 41.2122 37.7395 41.2122C37.7982 41.2122 37.8515 41.2022 37.8994 41.1821C37.9488 41.1605 37.9913 41.1296 38.0268 41.0895L38.1635 41.2285C38.1125 41.2871 38.05 41.3327 37.9758 41.3651C37.9033 41.3976 37.8245 41.4138 37.7395 41.4138ZM38.9037 41.4138C38.794 41.4138 38.6952 41.3891 38.6071 41.3397C38.5191 41.2887 38.4496 41.22 38.3986 41.1335C38.3477 41.047 38.3222 40.9489 38.3222 40.8393C38.3222 40.7311 38.3469 40.6338 38.3963 40.5474C38.4473 40.4609 38.5152 40.3929 38.6002 40.3435C38.6867 40.2925 38.7832 40.267 38.8898 40.267C38.9917 40.267 39.0813 40.2902 39.1585 40.3365C39.2373 40.3829 39.2983 40.447 39.3415 40.5288C39.3863 40.6107 39.4087 40.7033 39.4087 40.8068C39.4087 40.8223 39.4079 40.8393 39.4064 40.8578C39.4048 40.8748 39.4018 40.8949 39.3971 40.918H38.4681V40.7443H39.2859L39.2095 40.8115C39.2095 40.7373 39.1963 40.6748 39.1701 40.6238C39.1438 40.5713 39.1068 40.5311 39.0589 40.5033C39.011 40.474 38.9531 40.4593 38.8851 40.4593C38.8141 40.4593 38.7515 40.4748 38.6975 40.5057C38.6434 40.5365 38.6017 40.5798 38.5724 40.6354C38.543 40.691 38.5284 40.7566 38.5284 40.8323C38.5284 40.9095 38.5438 40.9775 38.5747 41.0362C38.6056 41.0933 38.6496 41.1381 38.7067 41.1705C38.7639 41.2014 38.8295 41.2169 38.9037 41.2169C38.9654 41.2169 39.0218 41.2061 39.0728 41.1844C39.1253 41.1628 39.1701 41.1304 39.2072 41.0871L39.3415 41.2238C39.289 41.2856 39.2241 41.3327 39.1469 41.3651C39.0712 41.3976 38.9902 41.4138 38.9037 41.4138ZM39.694 41.6455L39.8376 41.3698L39.9117 41.3512C39.904 41.3682 39.894 41.3821 39.8816 41.3929C39.8708 41.4038 39.8569 41.4092 39.8399 41.4092C39.8075 41.4092 39.7774 41.396 39.7496 41.3698C39.7233 41.342 39.7102 41.308 39.7102 41.2678C39.7102 41.2231 39.7249 41.186 39.7542 41.1566C39.7835 41.1258 39.8206 41.1103 39.8654 41.1103C39.9056 41.1103 39.9411 41.1258 39.972 41.1566C40.0029 41.186 40.0183 41.2231 40.0183 41.2678C40.0183 41.2848 40.0144 41.3057 40.0067 41.3304C40.0005 41.3536 39.9874 41.3837 39.9673 41.4207L39.8144 41.7103L39.694 41.6455ZM20.3123 44.4138C20.2119 44.4138 20.1208 44.3891 20.0389 44.3397C19.9571 44.2887 19.8922 44.22 19.8443 44.1335C19.798 44.047 19.7748 43.9497 19.7748 43.8416C19.7748 43.7335 19.798 43.6362 19.8443 43.5497C19.8922 43.4632 19.9563 43.3944 20.0366 43.3435C20.1184 43.2925 20.2103 43.267 20.3123 43.267C20.3957 43.267 20.4698 43.2848 20.5347 43.3203C20.6011 43.3543 20.6544 43.4022 20.6945 43.464C20.7347 43.5242 20.7571 43.5945 20.7617 43.6748V44.0061C20.7571 44.0848 20.7347 44.1551 20.6945 44.2169C20.6559 44.2787 20.6034 44.3273 20.537 44.3628C20.4721 44.3968 20.3972 44.4138 20.3123 44.4138ZM20.347 44.2169C20.4505 44.2169 20.5339 44.1821 20.5972 44.1126C20.6606 44.0416 20.6922 43.9512 20.6922 43.8416C20.6922 43.7659 20.6775 43.7003 20.6482 43.6447C20.6204 43.5875 20.5802 43.5435 20.5277 43.5126C20.4752 43.4802 20.4142 43.464 20.3447 43.464C20.2752 43.464 20.2134 43.4802 20.1594 43.5126C20.1069 43.545 20.0652 43.5898 20.0343 43.647C20.0049 43.7026 19.9903 43.7667 19.9903 43.8393C19.9903 43.9134 20.0049 43.979 20.0343 44.0362C20.0652 44.0918 20.1076 44.1358 20.1617 44.1682C20.2157 44.2007 20.2775 44.2169 20.347 44.2169ZM20.6783 44.3906V44.0941L20.7177 43.8254L20.6783 43.5589V43.2902H20.8891V44.3906H20.6783ZM21.6815 44.4138C21.5919 44.4138 21.5108 44.3937 21.4383 44.3536C21.3672 44.3119 21.3116 44.2547 21.2715 44.1821C21.2313 44.1095 21.2112 44.0254 21.2112 43.9296V43.2902H21.4197V43.9203C21.4197 43.9806 21.4298 44.0331 21.4498 44.0779C21.4715 44.1211 21.5024 44.1543 21.5425 44.1775C21.5827 44.2007 21.6298 44.2122 21.6838 44.2122C21.7657 44.2122 21.8298 44.1868 21.8761 44.1358C21.9224 44.0833 21.9456 44.0115 21.9456 43.9203V43.2902H22.1541V43.9296C22.1541 44.0254 22.134 44.1095 22.0939 44.1821C22.0537 44.2547 21.9981 44.3119 21.9271 44.3536C21.8576 44.3937 21.7757 44.4138 21.6815 44.4138ZM22.9456 44.4138C22.8436 44.4138 22.7525 44.3891 22.6722 44.3397C22.5919 44.2887 22.5278 44.22 22.4799 44.1335C22.4336 44.047 22.4104 43.9497 22.4104 43.8416C22.4104 43.7335 22.4336 43.6362 22.4799 43.5497C22.5278 43.4632 22.5919 43.3944 22.6722 43.3435C22.7525 43.2925 22.8436 43.267 22.9456 43.267C23.0274 43.267 23.1015 43.2848 23.168 43.3203C23.2344 43.3543 23.2877 43.4022 23.3278 43.464C23.3695 43.5242 23.3927 43.5945 23.3973 43.6748V44.0061C23.3927 44.0848 23.3703 44.1551 23.3301 44.2169C23.29 44.2787 23.2367 44.3273 23.1703 44.3628C23.1039 44.3968 23.029 44.4138 22.9456 44.4138ZM22.9803 44.2169C23.0498 44.2169 23.11 44.2007 23.161 44.1682C23.2135 44.1358 23.2544 44.0918 23.2838 44.0362C23.3131 43.979 23.3278 43.9142 23.3278 43.8416C23.3278 43.7659 23.3124 43.7003 23.2815 43.6447C23.2521 43.5891 23.2112 43.545 23.1587 43.5126C23.1077 43.4802 23.0475 43.464 22.978 43.464C22.9085 43.464 22.8475 43.4802 22.795 43.5126C22.7425 43.545 22.7008 43.5898 22.6699 43.647C22.6405 43.7026 22.6259 43.7667 22.6259 43.8393C22.6259 43.9134 22.6405 43.979 22.6699 44.0362C22.7008 44.0918 22.7425 44.1358 22.795 44.1682C22.849 44.2007 22.9108 44.2169 22.9803 44.2169ZM23.5247 44.3906H23.3139V44.0941L23.3533 43.8254L23.3139 43.5589V42.7365H23.5247V44.3906ZM23.8769 44.3906V43.2902H24.0854V44.3906H23.8769ZM23.9812 43.0701C23.9426 43.0701 23.9109 43.0578 23.8862 43.033C23.8615 43.0068 23.8491 42.9744 23.8491 42.9357C23.8491 42.8987 23.8615 42.8678 23.8862 42.8431C23.9109 42.8168 23.9426 42.8037 23.9812 42.8037C24.0198 42.8037 24.0515 42.8168 24.0762 42.8431C24.1009 42.8678 24.1132 42.8987 24.1132 42.9357C24.1132 42.9744 24.1009 43.0068 24.0762 43.033C24.0515 43.0578 24.0198 43.0701 23.9812 43.0701ZM24.6082 44.3906V42.8292H24.8167V44.3906H24.6082ZM24.3371 43.4802V43.2902H25.0877V43.4802H24.3371ZM26.2163 44.4138C26.1546 44.4138 26.0959 44.4061 26.0403 44.3906C25.9862 44.3736 25.936 44.3505 25.8897 44.3211C25.8433 44.2902 25.8032 44.2539 25.7692 44.2122L25.9036 44.0779C25.9437 44.1273 25.9901 44.1644 26.0426 44.1891C26.0951 44.2122 26.1538 44.2238 26.2187 44.2238C26.2835 44.2238 26.3337 44.213 26.3692 44.1914C26.4048 44.1682 26.4225 44.1366 26.4225 44.0964C26.4225 44.0562 26.4078 44.0254 26.3785 44.0037C26.3507 43.9806 26.3144 43.962 26.2696 43.9481C26.2248 43.9327 26.177 43.918 26.126 43.9041C26.0766 43.8887 26.0295 43.8694 25.9847 43.8462C25.9399 43.823 25.9028 43.7914 25.8735 43.7512C25.8457 43.7111 25.8318 43.6578 25.8318 43.5914C25.8318 43.525 25.848 43.4678 25.8804 43.4199C25.9128 43.3705 25.9576 43.3327 26.0148 43.3064C26.0735 43.2802 26.1437 43.267 26.2256 43.267C26.3121 43.267 26.3885 43.2825 26.455 43.3134C26.5229 43.3427 26.5785 43.3875 26.6218 43.4477L26.4874 43.5821C26.4565 43.5419 26.4179 43.5111 26.3716 43.4894C26.3268 43.4678 26.2758 43.457 26.2187 43.457C26.1584 43.457 26.1121 43.4678 26.0796 43.4894C26.0488 43.5095 26.0333 43.5381 26.0333 43.5752C26.0333 43.6122 26.0472 43.6408 26.075 43.6609C26.1028 43.6809 26.1391 43.6979 26.1839 43.7118C26.2302 43.7257 26.2781 43.7404 26.3275 43.7559C26.377 43.7698 26.4241 43.7891 26.4689 43.8138C26.5136 43.8385 26.5499 43.8717 26.5777 43.9134C26.6071 43.9551 26.6218 44.0099 26.6218 44.0779C26.6218 44.1814 26.5847 44.2632 26.5106 44.3234C26.438 44.3837 26.3399 44.4138 26.2163 44.4138ZM27.6799 44.3906V43.7489C27.6799 43.6655 27.6537 43.5968 27.6012 43.5427C27.5486 43.4887 27.4807 43.4616 27.3973 43.4616C27.3417 43.4616 27.2923 43.474 27.249 43.4987C27.2058 43.5234 27.1718 43.5574 27.1471 43.6006C27.1224 43.6439 27.11 43.6933 27.11 43.7489L27.0243 43.7003C27.0243 43.6169 27.0428 43.5427 27.0799 43.4779C27.117 43.413 27.1687 43.362 27.2351 43.3249C27.3015 43.2863 27.3764 43.267 27.4598 43.267C27.5432 43.267 27.6166 43.2856 27.6799 43.3226C27.7448 43.3597 27.7958 43.4114 27.8328 43.4779C27.8699 43.5443 27.8884 43.6207 27.8884 43.7072V44.3906H27.6799ZM26.9015 44.3906V42.7365H27.11V44.3906H26.9015ZM28.2194 44.3906V43.2902H28.4279V44.3906H28.2194ZM28.3236 43.0701C28.285 43.0701 28.2533 43.0578 28.2286 43.033C28.2039 43.0068 28.1916 42.9744 28.1916 42.9357C28.1916 42.8987 28.2039 42.8678 28.2286 42.8431C28.2533 42.8168 28.285 42.8037 28.3236 42.8037C28.3622 42.8037 28.3939 42.8168 28.4186 42.8431C28.4433 42.8678 28.4557 42.8987 28.4557 42.9357C28.4557 42.9744 28.4433 43.0068 28.4186 43.033C28.3939 43.0578 28.3622 43.0701 28.3236 43.0701ZM29.2911 44.4138C29.1815 44.4138 29.0826 44.3891 28.9946 44.3397C28.9066 44.2887 28.8371 44.22 28.7861 44.1335C28.7351 44.047 28.7096 43.9489 28.7096 43.8393C28.7096 43.7311 28.7344 43.6338 28.7838 43.5474C28.8347 43.4609 28.9027 43.3929 28.9877 43.3435C29.0741 43.2925 29.1707 43.267 29.2772 43.267C29.3792 43.267 29.4687 43.2902 29.546 43.3365C29.6247 43.3829 29.6857 43.447 29.729 43.5288C29.7738 43.6107 29.7962 43.7033 29.7962 43.8068C29.7962 43.8223 29.7954 43.8393 29.7939 43.8578C29.7923 43.8748 29.7892 43.8949 29.7846 43.918H28.8556V43.7443H29.6734L29.5969 43.8115C29.5969 43.7373 29.5838 43.6748 29.5576 43.6238C29.5313 43.5713 29.4942 43.5311 29.4464 43.5033C29.3985 43.474 29.3406 43.4593 29.2726 43.4593C29.2016 43.4593 29.139 43.4748 29.085 43.5057C29.0309 43.5365 28.9892 43.5798 28.9599 43.6354C28.9305 43.691 28.9158 43.7566 28.9158 43.8323C28.9158 43.9095 28.9313 43.9775 28.9622 44.0362C28.9931 44.0933 29.0371 44.1381 29.0942 44.1705C29.1514 44.2014 29.217 44.2169 29.2911 44.2169C29.3529 44.2169 29.4093 44.2061 29.4603 44.1844C29.5128 44.1628 29.5576 44.1304 29.5946 44.0871L29.729 44.2238C29.6765 44.2856 29.6116 44.3327 29.5344 44.3651C29.4587 44.3976 29.3776 44.4138 29.2911 44.4138ZM30.0699 44.3906V42.7365H30.2784V44.3906H30.0699ZM31.0954 44.4138C30.9935 44.4138 30.9023 44.3891 30.822 44.3397C30.7417 44.2887 30.6776 44.22 30.6297 44.1335C30.5834 44.047 30.5602 43.9497 30.5602 43.8416C30.5602 43.7335 30.5834 43.6362 30.6297 43.5497C30.6776 43.4632 30.7417 43.3944 30.822 43.3435C30.9023 43.2925 30.9935 43.267 31.0954 43.267C31.1773 43.267 31.2514 43.2848 31.3178 43.3203C31.3842 43.3543 31.4375 43.4022 31.4777 43.464C31.5194 43.5242 31.5425 43.5945 31.5472 43.6748V44.0061C31.5425 44.0848 31.5201 44.1551 31.48 44.2169C31.4398 44.2787 31.3865 44.3273 31.3201 44.3628C31.2537 44.3968 31.1788 44.4138 31.0954 44.4138ZM31.1302 44.2169C31.1997 44.2169 31.2599 44.2007 31.3109 44.1682C31.3634 44.1358 31.4043 44.0918 31.4336 44.0362C31.463 43.979 31.4777 43.9142 31.4777 43.8416C31.4777 43.7659 31.4622 43.7003 31.4313 43.6447C31.402 43.5891 31.361 43.545 31.3085 43.5126C31.2576 43.4802 31.1973 43.464 31.1278 43.464C31.0583 43.464 30.9973 43.4802 30.9448 43.5126C30.8923 43.545 30.8506 43.5898 30.8197 43.647C30.7904 43.7026 30.7757 43.7667 30.7757 43.8393C30.7757 43.9134 30.7904 43.979 30.8197 44.0362C30.8506 44.0918 30.8923 44.1358 30.9448 44.1682C30.9989 44.2007 31.0607 44.2169 31.1302 44.2169ZM31.6746 44.3906H31.4638V44.0941L31.5031 43.8254L31.4638 43.5589V42.7365H31.6746V44.3906ZM32.2075 44.4138C32.1642 44.4138 32.1279 44.3991 32.0986 44.3698C32.0708 44.3389 32.0569 44.3026 32.0569 44.2609C32.0569 44.2176 32.0708 44.1821 32.0986 44.1543C32.1279 44.125 32.1642 44.1103 32.2075 44.1103C32.2507 44.1103 32.2862 44.125 32.3141 44.1543C32.3434 44.1821 32.3581 44.2176 32.3581 44.2609C32.3581 44.3026 32.3434 44.3389 32.3141 44.3698C32.2862 44.3991 32.2507 44.4138 32.2075 44.4138Z" fill="#EAEBEB"/>
<defs>
<filter id="filter0_f_3928_29477" x="-5.32778" y="-3.15005" width="77.5989" height="77.597" filterUnits="userSpaceOnUse" color-interpolation-filters="sRGB">
<feFlood flood-opacity="0" result="BackgroundImageFix"/>
<feBlend mode="normal" in="SourceGraphic" in2="BackgroundImageFix" result="shape"/>
<feGaussianBlur stdDeviation="6.28596" result="effect1_foregroundBlur_3928_29477"/>
</filter>
<filter id="filter1_f_3928_29477" x="0.95818" y="3.13591" width="65.027" height="65.025" filterUnits="userSpaceOnUse" color-interpolation-filters="sRGB">
<feFlood flood-opacity="0" result="BackgroundImageFix"/>
<feBlend mode="normal" in="SourceGraphic" in2="BackgroundImageFix" result="shape"/>
<feGaussianBlur stdDeviation="3.14298" result="effect1_foregroundBlur_3928_29477"/>
</filter>
<filter id="filter2_f_3928_29477" x="4.72976" y="6.90749" width="57.4838" height="57.4819" filterUnits="userSpaceOnUse" color-interpolation-filters="sRGB">
<feFlood flood-opacity="0" result="BackgroundImageFix"/>
<feBlend mode="normal" in="SourceGraphic" in2="BackgroundImageFix" result="shape"/>
<feGaussianBlur stdDeviation="1.25719" result="effect1_foregroundBlur_3928_29477"/>
</filter>
<filter id="filter3_f_3928_29477" x="38.7132" y="21.9553" width="14.0444" height="14.0424" filterUnits="userSpaceOnUse" color-interpolation-filters="sRGB">
<feFlood flood-opacity="0" result="BackgroundImageFix"/>
<feBlend mode="normal" in="SourceGraphic" in2="BackgroundImageFix" result="shape"/>
<feGaussianBlur stdDeviation="1.35046" result="effect1_foregroundBlur_3928_29477"/>
</filter>
<filter id="filter4_f_3928_29477" x="40.0636" y="23.3058" width="11.3435" height="11.3415" filterUnits="userSpaceOnUse" color-interpolation-filters="sRGB">
<feFlood flood-opacity="0" result="BackgroundImageFix"/>
<feBlend mode="normal" in="SourceGraphic" in2="BackgroundImageFix" result="shape"/>
<feGaussianBlur stdDeviation="0.675228" result="effect1_foregroundBlur_3928_29477"/>
</filter>
<filter id="filter5_f_3928_29477" x="40.8739" y="24.1161" width="9.72294" height="9.72099" filterUnits="userSpaceOnUse" color-interpolation-filters="sRGB">
<feFlood flood-opacity="0" result="BackgroundImageFix"/>
<feBlend mode="normal" in="SourceGraphic" in2="BackgroundImageFix" result="shape"/>
<feGaussianBlur stdDeviation="0.270091" result="effect1_foregroundBlur_3928_29477"/>
</filter>
</defs>
</svg>
