<svg width="887" height="433" viewBox="0 0 887 433" fill="none" xmlns="http://www.w3.org/2000/svg">
<path d="M410.951 0.515625C521.752 -4.90017 630.391 32.5112 714.364 105.001C794.883 174.509 846.805 271.162 860.479 376.329L886.347 374.733L846.886 425.398L801.496 379.969L824.797 378.53C811.78 282.973 764.323 195.237 691.062 131.994C614.021 65.4874 514.348 31.1641 412.692 36.1328C311.036 41.1016 215.186 84.9823 144.997 158.686C74.8085 232.389 35.6592 330.267 35.6592 432.044H0C9.69811e-06 321.111 42.6709 214.428 119.174 134.094C195.677 53.7599 300.15 5.93143 410.951 0.515625Z" fill="url(#paint0_linear_3927_18676)"/>
<defs>
<linearGradient id="paint0_linear_3927_18676" x1="579.948" y1="15.6084" x2="224.867" y2="566.488" gradientUnits="userSpaceOnUse">
<stop offset="0.388198" stop-color="#3BF5FF"/>
<stop offset="0.963721" stop-color="#3BF5FF" stop-opacity="0"/>
</linearGradient>
</defs>
</svg>
