<svg width="48" height="48" viewBox="0 0 48 48" fill="none" xmlns="http://www.w3.org/2000/svg">
<path d="M24 26L34 35M24 26L14 35M24 26V16" stroke="#3BF5FF" stroke-width="3"/>
<path d="M36.383 32.8912C37.4162 32.297 37.9328 32 38.5 32C39.0672 32 39.5838 32.297 40.617 32.8912L41.883 33.6194C42.9162 34.2136 43.4328 34.5106 43.7164 35C44 35.4894 44 36.0836 44 37.2718V38.7282C44 39.9164 44 40.5106 43.7164 41C43.4328 41.4894 42.9162 41.7864 41.883 42.3806L40.617 43.1088C39.5838 43.703 39.0672 44 38.5 44C37.9328 44 37.4162 43.703 36.383 43.1088L35.117 42.3806C34.0838 41.7864 33.5672 41.4894 33.2836 41C33 40.5106 33 39.9164 33 38.7282V37.2718C33 36.0836 33 35.4894 33.2836 35C33.5672 34.5106 34.0838 34.2136 35.117 33.6194L36.383 32.8912Z" stroke="#3BF5FF" stroke-width="3"/>
<path d="M7.38304 32.8912C8.4162 32.297 8.93276 32 9.5 32C10.0672 32 10.5838 32.297 11.617 32.8912L12.883 33.6194C13.9162 34.2136 14.4328 34.5106 14.7164 35C15 35.4894 15 36.0836 15 37.2718V38.7282C15 39.9164 15 40.5106 14.7164 41C14.4328 41.4894 13.9162 41.7864 12.883 42.3806L11.617 43.1088C10.5838 43.703 10.0672 44 9.5 44C8.93276 44 8.4162 43.703 7.38304 43.1088L6.11696 42.3806C5.0838 41.7864 4.56724 41.4894 4.28362 41C4 40.5106 4 39.9164 4 38.7282V37.2718C4 36.0836 4 35.4894 4.28362 35C4.56724 34.5106 5.0838 34.2136 6.11696 33.6194L7.38304 32.8912Z" stroke="#3BF5FF" stroke-width="3"/>
<path d="M21.883 4.89126C22.9162 4.29708 23.4328 4 24 4C24.5672 4 25.0838 4.29708 26.117 4.89126L27.383 5.6194C28.4162 6.21358 28.9328 6.51066 29.2164 7C29.5 7.48934 29.5 8.0835 29.5 9.27186V10.7281C29.5 11.9165 29.5 12.5107 29.2164 13C28.9328 13.4893 28.4162 13.7864 27.383 14.3806L26.117 15.1087C25.0838 15.7029 24.5672 16 24 16C23.4328 16 22.9162 15.7029 21.883 15.1087L20.617 14.3806C19.5838 13.7864 19.0672 13.4893 18.7836 13C18.5 12.5107 18.5 11.9165 18.5 10.7281V9.27186C18.5 8.0835 18.5 7.48934 18.7836 7C19.0672 6.51066 19.5838 6.21358 20.617 5.6194L21.883 4.89126Z" stroke="#3BF5FF" stroke-width="3"/>
</svg>
