<svg width="96" height="96" viewBox="0 0 96 96" fill="none" xmlns="http://www.w3.org/2000/svg">
<path d="M48 46C49.982 46 51.8248 45.206 55.51 43.618L58.1692 42.472C64.7232 39.6481 68 38.2361 68 36C68 33.7639 64.7232 32.3519 58.1692 29.5279L55.51 28.382C51.8248 26.794 49.982 26 48 26C46.018 26 44.1752 26.794 40.49 28.382L37.8307 29.5279C31.2769 32.3519 28 33.7639 28 36C28 38.2361 31.2769 39.6481 37.8307 42.472L40.49 43.618C44.1752 45.206 46.018 46 48 46ZM48 46V70" stroke="#8C5CEB" stroke-width="4.8" stroke-linejoin="round"/>
<path d="M68 36V60C68 62.236 64.7232 63.648 58.1692 66.472L55.51 67.618C51.8248 69.206 49.982 70 48 70C46.018 70 44.1752 69.206 40.49 67.618L37.8307 66.472C31.2769 63.648 28 62.236 28 60V36" stroke="#8C5CEB" stroke-width="4.8" stroke-linejoin="round"/>
<path d="M36.577 10.0078C25.949 10.2508 19.7412 11.2661 15.4997 15.5075C11.2582 19.749 10.243 25.9568 10 36.5849M59.4228 10.0078C70.0512 10.2508 76.2588 11.2661 80.5004 15.5075C84.7416 19.749 85.7568 25.9568 86 36.5849M59.4228 86.0078C70.0512 85.7646 76.2588 84.7494 80.5004 80.5082C84.7416 76.2666 85.7568 70.059 86 59.4306M36.577 86.0078C25.949 85.7646 19.7412 84.7494 15.4997 80.5082C11.2582 76.2666 10.243 70.059 10 59.4306" stroke="#8C5CEB" stroke-width="4.8" stroke-linecap="round" stroke-linejoin="round"/>
</svg>
