<svg xmlns="http://www.w3.org/2000/svg" width="56" height="56" fill="#3bf5ff" xmlns:v="https://vecta.io/nano"><path d="M25.269 3.498c-.227.025-.496.067-.589.109s-.546.118-1.009.177-.992.151-1.177.21c-.185.067-.555.16-.824.21s-.589.151-.715.219-.303.118-.395.118a1.04 1.04 0 0 0-.378.109c-.117.059-.395.16-.631.227-.227.059-.555.185-.715.269s-.32.151-.362.151-.277.092-.53.21-.496.21-.538.21c-.05 0-.084.034-.084.076s-.143.126-.311.185c-.177.05-.336.126-.362.16s-.21.143-.42.244c-.395.185-.706.362-.925.505l-.807.513c-.084 0-.832.547-.9.647a.24.24 0 0 1-.185.109.24.24 0 0 0-.185.109c-.034.059-.177.177-.303.252-.135.084-.311.219-.395.294l-.505.437c-.462.378-2.396 2.312-2.775 2.775l-.437.505c-.076.084-.21.261-.294.395-.076.126-.193.269-.252.303a.24.24 0 0 0-.109.185c0 .067-.05.151-.101.185-.109.067-.656.816-.656.9 0 .034-.177.319-.513.807-.143.219-.32.53-.505.925-.101.21-.21.395-.244.42s-.109.185-.16.353c-.059.177-.143.32-.185.32s-.076.034-.076.084c0 .042-.092.286-.21.538s-.21.488-.21.53-.067.202-.151.362a3.86 3.86 0 0 0-.269.715c-.059.227-.143.462-.177.505-.034.05-.109.277-.168.505-.05.235-.126.454-.16.505-.034.042-.109.311-.168.589a6.43 6.43 0 0 1-.21.841c-.059.185-.151.715-.21 1.177s-.143.933-.202 1.043c-.135.286-.135 6.29 0 6.575.059.109.143.58.202 1.043s.151.992.21 1.177a6.48 6.48 0 0 1 .21.824c.05.269.151.589.219.715s.118.294.118.378.067.311.16.505a4.2 4.2 0 0 1 .219.647 1.92 1.92 0 0 0 .168.471c.059.093.16.328.219.521s.126.353.151.353c.034 0 .109.168.168.378s.143.378.177.378c.042 0 .118.143.177.311.05.177.126.336.16.362s.143.21.244.42a7.65 7.65 0 0 0 .505.925l.513.807c0 .084.547.832.656.9a.26.26 0 0 1 .101.185.24.24 0 0 0 .109.185c.059.034.177.177.252.303.084.135.219.311.294.395l.437.505c.37.454 2.304 2.388 2.741 2.75l.622.53c.16.135.361.278.437.303.084.025.151.084.151.126s.092.118.21.16.21.118.21.168c0 .042.042.084.093.084.042 0 .227.109.395.244s.395.269.505.303c.101.025.185.084.185.126s.076.101.168.126.219.101.277.16c.118.118.412.286.984.563.21.101.395.21.42.244s.185.109.362.16c.168.059.311.143.311.185s.034.076.084.076c.042 0 .286.093.538.21s.488.21.53.21.202.067.362.16a3.96 3.96 0 0 0 .74.261c.235.05.454.135.479.168s.244.118.479.168c.244.059.488.135.53.168.05.034.311.109.589.168a8.17 8.17 0 0 1 .841.21c.185.059.732.151 1.219.21s.933.151 1.001.202c.168.134 6.407.126 6.575 0 .067-.05.286-.118.488-.143.555-.067.79-.378.748-.984-.025-.361-.084-.521-.236-.673-.202-.202-.252-.21-1.127-.193-.496.008-.959.059-1.017.109-.135.118-4.095.126-4.305.008-.084-.042-.58-.126-1.11-.177l-1.093-.16c-.076-.042-.513-.143-.975-.227l-.883-.202c-.025-.025-.21-.101-.42-.16s-.488-.151-.631-.219c-.135-.059-.395-.135-.563-.168-.177-.034-.32-.093-.32-.126s-.227-.126-.505-.21-.504-.176-.504-.21-.168-.109-.378-.168-.378-.135-.378-.177c0-.034-.143-.109-.311-.168-.177-.05-.336-.126-.362-.168-.025-.034-.303-.202-.614-.361l-.673-.387c-.177-.151-.74-.505-.799-.505-.034-.008-.193-.118-.353-.252-.16-.143-.336-.252-.395-.252s-.109-.034-.109-.076c0-.034-.235-.252-.521-.471l-.706-.58c-.101-.101-.42-.387-.723-.639a10.42 10.42 0 0 1-.917-.908l-.631-.715a15.89 15.89 0 0 1-.664-.79c-.219-.294-.437-.53-.471-.53-.042 0-.076-.05-.076-.109s-.109-.236-.252-.395c-.135-.16-.244-.345-.252-.404 0-.059-.05-.126-.118-.151s-.143-.134-.168-.244a.77.77 0 0 0-.16-.311c-.143-.143-.942-1.564-1.017-1.816-.034-.101-.093-.185-.135-.185-.034 0-.118-.168-.177-.378s-.135-.378-.168-.378c-.025 0-.118-.227-.202-.505s-.177-.505-.21-.505-.092-.143-.126-.319c-.034-.168-.126-.462-.21-.648a3.67 3.67 0 0 1-.21-.631c-.033-.16-.092-.311-.118-.336-.034-.025-.126-.42-.21-.883s-.185-.883-.219-.925c-.042-.05-.118-.538-.168-1.093l-.177-1.152c-.092-.185-.101-4.213-.008-4.322.042-.042.118-.547.177-1.127s.135-1.085.177-1.135c.034-.042.135-.462.219-.925s.177-.858.21-.883c.025-.025.084-.177.118-.336a3.76 3.76 0 0 1 .21-.631 3.48 3.48 0 0 0 .21-.656c.034-.168.092-.311.126-.311s.126-.227.21-.504.177-.505.21-.505.109-.168.168-.378.135-.378.177-.378c.034 0 .109-.143.168-.319.05-.168.126-.328.16-.353a7.25 7.25 0 0 0 .378-.631l.37-.631a1.9 1.9 0 0 0 .177-.294c.067-.143.177-.286.227-.319.059-.034.109-.109.109-.168.008-.059.118-.235.252-.395.143-.16.252-.336.252-.395s.034-.109.076-.109c.034 0 .252-.235.471-.53l.58-.698a18.46 18.46 0 0 0 .639-.715 9.36 9.36 0 0 1 1.001-1.001l.715-.639c.101-.092.412-.353.706-.58.286-.219.521-.437.521-.471 0-.042.05-.076.109-.076s.235-.109.395-.252c.16-.135.336-.244.395-.252.059 0 .134-.05.168-.109.034-.05.185-.16.319-.227.143-.067.269-.151.294-.177s.311-.193.631-.37l.631-.378c.025-.034.185-.109.362-.16.168-.059.311-.135.311-.168 0-.042.168-.118.378-.177s.378-.135.378-.168.227-.126.504-.21.505-.177.505-.21.143-.093.32-.126c.168-.034.462-.126.648-.21a3.69 3.69 0 0 1 .631-.21c.16-.034.311-.092.336-.118.025-.034.42-.126.883-.21s.883-.185.925-.219c.05-.042.538-.109 1.093-.168.555-.05 1.085-.135 1.169-.185.227-.118 4.28-.118 4.322.008.017.05.168.092.336.092.446 0 1.808.185 1.909.252.05.034.462.135.925.219l.883.202c.025.034.227.101.454.16s.513.151.631.219a2.71 2.71 0 0 0 .538.168c.168.034.311.093.311.126s.227.126.505.21.505.177.505.202c0 .034.168.109.378.168s.378.143.378.177c0 .042.143.118.32.177.168.05.328.126.353.16a7.4 7.4 0 0 0 .631.378c.328.177.639.378.698.437s.202.135.311.16.219.101.244.168.093.118.151.118c.059.008.244.118.404.252.16.143.336.252.395.252s.109.034.109.076c0 .034.235.252.53.471l.698.58c.101.101.42.387.715.639.513.429.748.689 1.665 1.757l.58.656c.101.109.185.235.185.277 0 .05.076.126.168.185s.168.151.168.193c0 .05.109.219.252.378.135.16.244.345.252.404 0 .059.05.126.118.151s.143.134.168.244a.77.77 0 0 0 .16.311c.059.059.261.37.437.698l.378.631c.034.025.109.185.16.353.059.177.135.319.168.319.042 0 .118.168.177.378s.135.378.168.378.126.227.21.505.177.504.21.504.093.143.126.311a2.71 2.71 0 0 0 .168.538 3.4 3.4 0 0 1 .219.631c.059.227.126.429.16.454.025.025.118.42.202.883s.185.883.219.925c.042.05.118.555.177 1.135s.134 1.085.177 1.127c.101.126.084 4.204-.017 4.305-.05.05-.101.505-.109 1.009-.017.874-.008.925.193 1.127.151.151.311.21.673.236.605.042.916-.193.984-.748.025-.202.092-.42.143-.488.126-.168.134-6.407 0-6.575-.051-.067-.143-.513-.202-1.001s-.151-1.034-.21-1.219a8.17 8.17 0 0 1-.21-.841c-.059-.277-.135-.547-.168-.589-.034-.05-.109-.303-.168-.572-.059-.261-.143-.479-.177-.479s-.109-.202-.16-.446c-.059-.235-.177-.572-.261-.731-.093-.16-.16-.32-.16-.362s-.093-.277-.21-.53-.21-.496-.21-.538c0-.05-.034-.084-.076-.084s-.126-.143-.185-.32c-.051-.168-.126-.328-.16-.353s-.143-.21-.244-.42c-.185-.395-.362-.706-.505-.925l-.513-.824c0-.034-.109-.193-.252-.353-.135-.16-.244-.345-.252-.404 0-.05-.042-.101-.084-.101-.05 0-.126-.092-.168-.21s-.118-.21-.16-.21-.101-.067-.126-.151c-.025-.076-.168-.277-.303-.437l-.53-.622c-.362-.437-2.296-2.371-2.75-2.741l-.505-.437c-.084-.076-.261-.21-.395-.294-.126-.076-.269-.193-.303-.252a.24.24 0 0 0-.185-.109.24.24 0 0 1-.185-.109c-.067-.101-.816-.647-.9-.647-.034 0-.32-.177-.807-.513a7.65 7.65 0 0 0-.925-.505c-.21-.101-.395-.21-.42-.244s-.185-.109-.353-.16c-.176-.059-.319-.143-.319-.185s-.034-.076-.084-.076c-.042 0-.286-.092-.538-.21s-.488-.21-.53-.21-.202-.067-.362-.16a3.96 3.96 0 0 0-.74-.261c-.236-.05-.454-.135-.479-.168s-.244-.118-.479-.168c-.244-.059-.479-.135-.53-.168-.042-.034-.311-.109-.589-.168a6.43 6.43 0 0 1-.841-.21c-.185-.059-.715-.151-1.177-.21-.462-.05-.916-.143-1.009-.193-.168-.093-5.104-.168-6.054-.093zm2.016 6.301l-.21.219v7.256 7.265l-.294.05c-.16.034-.294.093-.294.135s-.126.109-.269.16c-.336.109-1.303 1.085-1.379 1.387-.025.118-.084.219-.126.219-.034 0-.092.134-.126.294l-.05.294h-5.079-5.07l-.219.21c-.177.185-.21.294-.21.715s.034.53.21.715l.219.21h5.07 5.079l.05.294c.034.16.092.294.126.294.042 0 .093.084.126.193.042.177.134.311.547.774.269.303.589.538 1.034.774.42.227.505.235 1.581.235 1.085 0 1.152-.008 1.589-.235.488-.261.589-.328.925-.656.328-.319.488-.538.74-1.026.227-.412.235-.496.235-1.572s-.008-1.16-.235-1.581c-.235-.446-.471-.765-.774-1.034-.462-.412-.597-.505-.773-.547-.109-.034-.193-.084-.193-.126 0-.034-.135-.093-.294-.126l-.294-.05v-7.265-7.256l-.21-.219c-.185-.177-.294-.21-.715-.21s-.53.034-.715.21zm1.547 16.817c.647.547.723.689.723 1.396 0 .446-.034.673-.126.765l-.261.286c-.37.437-.521.496-1.169.496s-.799-.059-1.169-.496l-.261-.286c-.092-.092-.126-.319-.126-.765 0-.639.034-.74.429-1.135.429-.42.555-.471 1.211-.446.395.017.597.067.748.185zm9.782 7.526a1.87 1.87 0 0 0-.429.375c-.163.223-.184.699-.184 7.459 0 7.966-.031 7.54.644 7.875.347.172.889.203.889.051 0-.061.051-.101.112-.101.153 0 .828-.324.991-.466a.8.8 0 0 1 .327-.193c.113-.03.204-.101.204-.152 0-.041.112-.111.245-.142.143-.03.317-.122.388-.193.072-.061.317-.213.542-.324l.46-.253c.031-.03.163-.111.307-.182l1.012-.598c.031-.051.255-.172.501-.274.235-.111.429-.223.429-.264 0-.051.112-.111.245-.142a.93.93 0 0 0 .388-.192c.143-.142.491-.345 1.175-.679.235-.111.439-.243.46-.284s.194-.152.388-.253c.49-.243.838-.446 1.053-.598.194-.142.664-.395 1.165-.628.174-.091.347-.203.378-.253.031-.041.306-.213.613-.365.828-.416 1.083-.74 1.083-1.368 0-.608-.255-.943-1.022-1.338l-1.533-.892c-.031-.03-.215-.132-.409-.233-.623-.314-1.175-.628-1.226-.699-.031-.041-.174-.122-.307-.183a6.77 6.77 0 0 1-.715-.405c-.255-.162-.623-.365-.818-.456s-.378-.193-.409-.243c-.051-.081-.266-.203-1.022-.588-.194-.101-.378-.213-.409-.243-.031-.041-.245-.162-.48-.284-.235-.111-.45-.253-.48-.304-.041-.051-.204-.122-.368-.162-.174-.041-.306-.111-.306-.162 0-.061-.133-.152-.307-.203-.163-.061-.307-.152-.307-.193 0-.051-.204-.162-.46-.264-.256-.091-.46-.203-.46-.243s-.153-.132-.327-.213c-.184-.071-.358-.162-.388-.203-.112-.152-.93-.497-1.145-.486-.133.01-.347.071-.49.142z"/></svg>