<svg width="56" height="56" viewBox="0 0 56 56" fill="none" xmlns="http://www.w3.org/2000/svg">
<path d="M25.2686 3.49773C25.0416 3.52296 24.7725 3.565 24.68 3.60704C24.5875 3.64908 24.1335 3.72476 23.671 3.78362C23.2085 3.84248 22.6788 3.93497 22.4938 3.99383C22.3088 4.0611 21.9389 4.15359 21.6698 4.20404C21.4007 4.25449 21.0812 4.35539 20.9551 4.42266C20.829 4.48993 20.6524 4.54037 20.5599 4.54037C20.4674 4.54037 20.2992 4.59082 20.1815 4.64968C20.0638 4.70854 19.7863 4.80944 19.5509 4.87671C19.3239 4.93557 18.9959 5.0617 18.8362 5.14578C18.6764 5.22986 18.5167 5.29713 18.4746 5.29713C18.4326 5.29713 18.1971 5.38962 17.9449 5.50734C17.6926 5.62506 17.4488 5.71755 17.4067 5.71755C17.3563 5.71755 17.3227 5.75119 17.3227 5.79323C17.3227 5.83527 17.1797 5.91935 17.0115 5.97821C16.835 6.02866 16.6752 6.10434 16.65 6.13797C16.6248 6.1716 16.4398 6.28091 16.2296 6.38182C15.8344 6.5668 15.5233 6.74338 15.3046 6.88632C14.817 7.22266 14.5311 7.39923 14.4974 7.39923C14.4134 7.39923 13.665 7.94578 13.5977 8.04668C13.5641 8.10554 13.48 8.15599 13.4128 8.15599C13.3455 8.15599 13.2614 8.20644 13.2278 8.2653C13.1941 8.32416 13.0512 8.44188 12.9251 8.51755C12.7905 8.60163 12.614 8.73617 12.5299 8.81184C12.4458 8.88752 12.2188 9.08932 12.0254 9.24908C11.5629 9.62746 9.62897 11.5614 9.25059 12.0239C9.09083 12.2173 8.88903 12.4443 8.81335 12.5284C8.73768 12.6124 8.60314 12.789 8.51906 12.9236C8.44338 13.0497 8.32566 13.1926 8.26681 13.2263C8.20795 13.2599 8.1575 13.344 8.1575 13.4112C8.1575 13.4785 8.10705 13.5626 8.0566 13.5962C7.94729 13.6635 7.40074 14.4118 7.40074 14.4959C7.40074 14.5296 7.22416 14.8154 6.88783 15.3031C6.74488 15.5218 6.56831 15.8329 6.38332 16.2281C6.28242 16.4383 6.17311 16.6233 6.13948 16.6485C6.10584 16.6737 6.03017 16.8335 5.97972 17.0016C5.92086 17.1782 5.83678 17.3212 5.79473 17.3212C5.75269 17.3212 5.71906 17.3548 5.71906 17.4052C5.71906 17.4473 5.62657 17.6911 5.50885 17.9434C5.39113 18.1956 5.29864 18.4311 5.29864 18.4731C5.29864 18.5151 5.23137 18.6749 5.14729 18.8347C5.0632 18.9944 4.93708 19.3139 4.87822 19.5494C4.81936 19.7764 4.73527 20.0118 4.70164 20.0539C4.66801 20.1043 4.59233 20.3314 4.53347 20.5584C4.48302 20.7938 4.40735 21.0124 4.37371 21.0629C4.34008 21.1049 4.2644 21.374 4.20554 21.6515C4.15509 21.929 4.0626 22.3073 3.99533 22.4923C3.93648 22.6773 3.84398 23.207 3.78512 23.6695C3.72627 24.132 3.64218 24.6028 3.58332 24.7121C3.44879 24.998 3.44879 31.0016 3.58332 31.2875C3.64218 31.3968 3.72627 31.8677 3.78512 32.3302C3.84398 32.7926 3.93648 33.3224 3.99533 33.5073C4.0626 33.6923 4.15509 34.0623 4.20554 34.3314C4.256 34.6004 4.3569 34.92 4.42416 35.0461C4.49143 35.1722 4.54188 35.3404 4.54188 35.4245C4.54188 35.5085 4.60915 35.7356 4.70164 35.929C4.78573 36.1224 4.88663 36.4167 4.92026 36.5764C4.95389 36.7362 5.02957 36.9464 5.08843 37.0473C5.14729 37.1398 5.24819 37.3752 5.30705 37.5686C5.36591 37.762 5.43317 37.9218 5.4584 37.9218C5.49203 37.9218 5.56771 38.0899 5.62657 38.3001C5.68542 38.5103 5.76951 38.6785 5.80314 38.6785C5.84518 38.6785 5.92086 38.8215 5.97972 38.9896C6.03017 39.1662 6.10584 39.326 6.13948 39.3512C6.17311 39.3764 6.28242 39.5614 6.38332 39.7716C6.56831 40.1668 6.74488 40.4779 6.88783 40.6965C7.22416 41.1842 7.40074 41.4701 7.40074 41.5037C7.40074 41.5878 7.94729 42.3362 8.0566 42.4034C8.10705 42.4371 8.1575 42.5212 8.1575 42.5884C8.1575 42.6557 8.20795 42.7398 8.26681 42.7734C8.32566 42.807 8.44338 42.95 8.51906 43.0761C8.60314 43.2106 8.73768 43.3872 8.81335 43.4713C8.88903 43.5554 9.09083 43.7824 9.25059 43.9758C9.62056 44.4299 11.5545 46.3638 11.9917 46.7254C12.1767 46.8767 12.4542 47.1121 12.614 47.2551C12.7737 47.3896 12.9755 47.5326 13.0512 47.5578C13.1353 47.583 13.2025 47.6419 13.2025 47.6839C13.2025 47.726 13.295 47.8016 13.4128 47.8437C13.5305 47.8857 13.623 47.9614 13.623 48.0118C13.623 48.0539 13.665 48.0959 13.7155 48.0959C13.7575 48.0959 13.9425 48.2052 14.1106 48.3398C14.2788 48.4743 14.5058 48.6088 14.6152 48.6425C14.7161 48.6677 14.8001 48.7266 14.8001 48.7686C14.8001 48.8106 14.8758 48.8695 14.9683 48.8947C15.0608 48.92 15.1869 48.9956 15.2458 49.0545C15.3635 49.1722 15.6578 49.3404 16.2296 49.6179C16.4398 49.7188 16.6248 49.8281 16.65 49.8617C16.6752 49.8953 16.835 49.971 17.0115 50.0215C17.1797 50.0803 17.3227 50.1644 17.3227 50.2064C17.3227 50.2485 17.3563 50.2821 17.4067 50.2821C17.4488 50.2821 17.6926 50.3746 17.9449 50.4923C18.1971 50.61 18.4326 50.7025 18.4746 50.7025C18.5167 50.7025 18.6764 50.7698 18.8362 50.8623C18.9959 50.9464 19.3323 51.0641 19.5761 51.123C19.8116 51.1734 20.0302 51.2575 20.0554 51.2911C20.0806 51.3248 20.2992 51.4088 20.5347 51.4593C20.7785 51.5182 21.0224 51.5938 21.0644 51.6275C21.1149 51.6611 21.3755 51.7368 21.653 51.7956C21.9305 51.8461 22.3088 51.947 22.4938 52.0058C22.6788 52.0647 23.2254 52.1572 23.7131 52.2161C24.2007 52.2749 24.6464 52.3674 24.7137 52.4179C24.8818 52.5524 31.1209 52.544 31.289 52.4179C31.3563 52.3674 31.5749 52.3001 31.7767 52.2749C32.3317 52.2076 32.5671 51.8965 32.5251 51.2911C32.4998 50.9296 32.441 50.7698 32.2896 50.6185C32.0878 50.4167 32.0374 50.4082 31.1629 50.4251C30.6668 50.4335 30.2043 50.4839 30.1455 50.5344C30.0109 50.6521 26.0506 50.6605 25.8404 50.5428C25.7563 50.5007 25.2602 50.4167 24.7305 50.3662C24.2007 50.3157 23.7131 50.2401 23.6374 50.2064C23.5617 50.1644 23.1245 50.0635 22.662 49.9794C22.1995 49.8953 21.8043 49.8028 21.7791 49.7776C21.7539 49.7524 21.5689 49.6767 21.3587 49.6179C21.1485 49.559 20.871 49.4665 20.7281 49.3992C20.5935 49.3404 20.3329 49.2647 20.1647 49.2311C19.9881 49.1974 19.8452 49.1386 19.8452 49.1049C19.8452 49.0713 19.6182 48.9788 19.3407 48.8947C19.0632 48.8106 18.8362 48.7182 18.8362 48.6845C18.8362 48.6509 18.668 48.5752 18.4578 48.5164C18.2476 48.4575 18.0794 48.3818 18.0794 48.3398C18.0794 48.3061 17.9365 48.2305 17.7683 48.1716C17.5917 48.1212 17.432 48.0455 17.4067 48.0034C17.3815 47.9698 17.104 47.8016 16.7929 47.6419C16.4734 47.4737 16.1707 47.2971 16.1203 47.2551C15.9437 47.1037 15.3803 46.7506 15.3215 46.7506C15.2878 46.7422 15.1281 46.6329 14.9683 46.4983C14.8085 46.3554 14.632 46.2461 14.5731 46.2461C14.5143 46.2461 14.4638 46.2124 14.4638 46.1704C14.4638 46.1368 14.2284 45.9182 13.9425 45.6995C13.6482 45.4725 13.3371 45.2118 13.2362 45.1194C13.1353 45.0185 12.8158 44.7326 12.5131 44.4803C12.2188 44.2281 11.8067 43.816 11.5965 43.5722C11.3947 43.3284 11.1088 43.0004 10.9659 42.8575C10.823 42.7061 10.5287 42.353 10.3016 42.0671C10.083 41.7728 9.8644 41.5374 9.83077 41.5374C9.78873 41.5374 9.75509 41.4869 9.75509 41.4281C9.75509 41.3692 9.64578 41.1926 9.50284 41.0329C9.36831 40.8731 9.259 40.6881 9.25059 40.6293C9.25059 40.5704 9.20014 40.5031 9.13287 40.4779C9.0656 40.4527 8.98993 40.3434 8.9647 40.2341C8.93948 40.1248 8.8638 39.9818 8.80494 39.923C8.662 39.78 7.8632 38.359 7.78753 38.1067C7.75389 38.0058 7.69503 37.9218 7.65299 37.9218C7.61936 37.9218 7.53527 37.7536 7.47642 37.5434C7.41756 37.3332 7.34188 37.165 7.30825 37.165C7.28302 37.165 7.19053 36.938 7.10645 36.6605C7.02236 36.383 6.92987 36.156 6.89624 36.156C6.8626 36.156 6.80374 36.013 6.77011 35.8365C6.73648 35.6683 6.64398 35.374 6.5599 35.189C6.47582 35.004 6.38332 34.7182 6.34969 34.5584C6.31606 34.3986 6.2572 34.2473 6.23197 34.2221C6.19834 34.1968 6.10584 33.8016 6.02176 33.3392C5.93768 32.8767 5.83678 32.4563 5.80314 32.4142C5.7611 32.3638 5.68542 31.8761 5.63497 31.3212C5.57612 30.7662 5.50044 30.2449 5.4584 30.1692C5.36591 29.9842 5.3575 25.9566 5.44999 25.8473C5.49203 25.8052 5.56771 25.3007 5.62657 24.7206C5.68542 24.1404 5.7611 23.6359 5.80314 23.5854C5.83678 23.5434 5.93768 23.123 6.02176 22.6605C6.10584 22.198 6.19834 21.8028 6.23197 21.7776C6.2572 21.7524 6.31606 21.601 6.34969 21.4413C6.38332 21.2815 6.47582 20.9956 6.5599 20.8106C6.64398 20.6257 6.73648 20.3314 6.77011 20.1548C6.80374 19.9866 6.8626 19.8437 6.89624 19.8437C6.92987 19.8437 7.02236 19.6166 7.10645 19.3392C7.19053 19.0617 7.28302 18.8347 7.31666 18.8347C7.35029 18.8347 7.42597 18.6665 7.48482 18.4563C7.54368 18.2461 7.61936 18.0779 7.6614 18.0779C7.69503 18.0779 7.77071 17.935 7.82957 17.7584C7.88002 17.5902 7.95569 17.4305 7.98933 17.4052C8.01455 17.38 8.19113 17.0941 8.36771 16.7746C8.54428 16.4467 8.71245 16.1692 8.73768 16.144C8.7629 16.1188 8.84699 15.9842 8.91425 15.8497C8.98152 15.7067 9.09083 15.5638 9.14128 15.5302C9.20014 15.4965 9.25059 15.4209 9.25059 15.362C9.259 15.3031 9.36831 15.1266 9.50284 14.9668C9.64578 14.807 9.75509 14.6305 9.75509 14.5716C9.75509 14.5127 9.78873 14.4623 9.83077 14.4623C9.8644 14.4623 10.083 14.2269 10.3016 13.9326C10.5287 13.6467 10.7893 13.3356 10.8818 13.2347C10.9827 13.1338 11.2686 12.8142 11.5209 12.52C11.7731 12.2173 12.2188 11.7716 12.5215 11.5194C12.8158 11.2671 13.1353 10.9812 13.2362 10.8803C13.3371 10.7878 13.6482 10.5272 13.9425 10.3001C14.2284 10.0815 14.4638 9.8629 14.4638 9.82926C14.4638 9.78722 14.5143 9.75359 14.5731 9.75359C14.632 9.75359 14.8085 9.64428 14.9683 9.50134C15.1281 9.3668 15.3046 9.25749 15.3635 9.24908C15.4224 9.24908 15.498 9.19863 15.5317 9.13977C15.5653 9.08932 15.7167 8.98001 15.8512 8.91275C15.9941 8.84548 16.1203 8.76139 16.1455 8.73617C16.1707 8.71095 16.4566 8.54278 16.7761 8.3662C17.104 8.18962 17.3815 8.01305 17.4067 7.98782C17.432 7.95419 17.5917 7.87851 17.7683 7.82806C17.9365 7.7692 18.0794 7.69353 18.0794 7.65989C18.0794 7.61785 18.2476 7.54218 18.4578 7.48332C18.668 7.42446 18.8362 7.34878 18.8362 7.31515C18.8362 7.28152 19.0632 7.18902 19.3407 7.10494C19.6182 7.02085 19.8452 6.92836 19.8452 6.89473C19.8452 6.8611 19.9881 6.80223 20.1647 6.7686C20.3329 6.73497 20.6272 6.64248 20.8122 6.55839C20.9971 6.47431 21.283 6.38182 21.4428 6.34818C21.6025 6.31455 21.7539 6.25569 21.7791 6.23046C21.8043 6.19683 22.1995 6.10434 22.662 6.02025C23.1245 5.93617 23.5449 5.83527 23.5869 5.80164C23.6374 5.75959 24.1251 5.69233 24.68 5.63347C25.235 5.58302 25.7647 5.49893 25.8488 5.44848C26.0758 5.33076 30.1287 5.33076 30.1707 5.45689C30.1875 5.50734 30.3389 5.54938 30.507 5.54938C30.9527 5.54938 32.3149 5.73437 32.4158 5.80164C32.4662 5.83527 32.8782 5.93617 33.3407 6.02025C33.8031 6.10434 34.1983 6.19683 34.2236 6.22206C34.2488 6.25569 34.4506 6.32296 34.6776 6.38182C34.9046 6.44067 35.1905 6.53316 35.3082 6.60043C35.4344 6.65929 35.6698 6.73497 35.8464 6.7686C36.0146 6.80223 36.1575 6.8611 36.1575 6.89473C36.1575 6.92836 36.3845 7.02085 36.662 7.10494C36.9395 7.18902 37.1665 7.28152 37.1665 7.30674C37.1665 7.34037 37.3347 7.41605 37.5449 7.47491C37.7551 7.53377 37.9233 7.61785 37.9233 7.65149C37.9233 7.69353 38.0662 7.7692 38.2428 7.82806C38.4109 7.87851 38.5707 7.95419 38.5959 7.98782C38.6212 8.01305 38.907 8.18962 39.2266 8.3662C39.5545 8.54278 39.8656 8.74458 39.9245 8.80344C39.9833 8.8623 40.1263 8.93797 40.2356 8.9632C40.3449 8.98842 40.4542 9.0641 40.4794 9.13137C40.5046 9.19863 40.5719 9.24908 40.6308 9.24908C40.6896 9.25749 40.8746 9.3668 41.0344 9.50134C41.1941 9.64428 41.3707 9.75359 41.4296 9.75359C41.4884 9.75359 41.5389 9.78722 41.5389 9.82926C41.5389 9.8629 41.7743 10.0815 42.0686 10.3001C42.3545 10.5272 42.6656 10.7878 42.7665 10.8803C42.8674 10.9812 43.1869 11.2671 43.4812 11.5194C43.9941 11.9482 44.2296 12.2088 45.1461 13.2767C45.3563 13.529 45.617 13.8233 45.7263 13.9326C45.8272 14.0419 45.9112 14.168 45.9112 14.21C45.9112 14.2605 45.9869 14.3362 46.0794 14.395C46.1719 14.4539 46.2476 14.5464 46.2476 14.5884C46.2476 14.6389 46.3569 14.807 46.4998 14.9668C46.6344 15.1266 46.7437 15.3115 46.7521 15.3704C46.7521 15.4293 46.8025 15.4965 46.8698 15.5218C46.9371 15.547 47.0127 15.6563 47.038 15.7656C47.0632 15.8749 47.1389 16.0179 47.1977 16.0767C47.2566 16.1356 47.4584 16.4467 47.635 16.7746C47.8115 17.0941 47.9881 17.38 48.0133 17.4052C48.047 17.4305 48.1227 17.5902 48.1731 17.7584C48.232 17.935 48.3076 18.0779 48.3413 18.0779C48.3833 18.0779 48.459 18.2461 48.5179 18.4563C48.5767 18.6665 48.6524 18.8347 48.686 18.8347C48.7197 18.8347 48.8121 19.0617 48.8962 19.3392C48.9803 19.6166 49.0728 19.8437 49.1064 19.8437C49.1401 19.8437 49.1989 19.9866 49.2326 20.1548C49.2662 20.3314 49.3419 20.5668 49.4007 20.6929C49.468 20.8106 49.5605 21.0965 49.6194 21.3236C49.6782 21.5506 49.7455 21.7524 49.7791 21.7776C49.8043 21.8028 49.8968 22.198 49.9809 22.6605C50.065 23.123 50.1659 23.5434 50.1995 23.5854C50.2416 23.6359 50.3173 24.1404 50.3761 24.7206C50.435 25.3007 50.5106 25.8052 50.5527 25.8473C50.6536 25.9734 50.6368 30.0515 50.5359 30.1524C50.4854 30.2028 50.435 30.6569 50.4266 31.1614C50.4097 32.0359 50.4182 32.0863 50.62 32.2881C50.7713 32.4395 50.9311 32.4983 51.2926 32.5236C51.898 32.5656 52.2091 32.3302 52.2764 31.7752C52.3016 31.5734 52.3689 31.3548 52.4194 31.2875C52.5455 31.1194 52.5539 24.8803 52.4194 24.7121C52.3689 24.6449 52.2764 24.1992 52.2176 23.7115C52.1587 23.2239 52.0662 22.6773 52.0073 22.4923C51.9485 22.3073 51.8476 21.929 51.7971 21.6515C51.7383 21.374 51.6626 21.1049 51.629 21.0629C51.5953 21.0124 51.5197 20.7602 51.4608 20.4911C51.4019 20.2305 51.3179 20.0118 51.2842 20.0118C51.2506 20.0118 51.1749 19.81 51.1245 19.5662C51.0656 19.3308 50.9479 18.9944 50.8638 18.8347C50.7713 18.6749 50.704 18.5151 50.704 18.4731C50.704 18.4311 50.6115 18.1956 50.4938 17.9434C50.3761 17.6911 50.2836 17.4473 50.2836 17.4052C50.2836 17.3548 50.25 17.3212 50.2079 17.3212C50.1659 17.3212 50.0818 17.1782 50.023 17.0016C49.9725 16.8335 49.8968 16.6737 49.8632 16.6485C49.8296 16.6233 49.7203 16.4383 49.6194 16.2281C49.4344 15.8329 49.2578 15.5218 49.1148 15.3031C48.7533 14.7818 48.6019 14.5296 48.6019 14.4791C48.6019 14.4455 48.4926 14.2857 48.3497 14.126C48.2151 13.9662 48.1058 13.7812 48.0974 13.7224C48.0974 13.6719 48.0554 13.6215 48.0133 13.6215C47.9629 13.6215 47.8872 13.529 47.8452 13.4112C47.8031 13.2935 47.7275 13.201 47.6854 13.201C47.6434 13.201 47.5845 13.1338 47.5593 13.0497C47.5341 12.974 47.3911 12.7722 47.2566 12.6124C47.1136 12.4527 46.8782 12.1752 46.7269 11.9902C46.3653 11.553 44.4314 9.61905 43.9773 9.24908C43.7839 9.08932 43.5569 8.88752 43.4728 8.81184C43.3887 8.73617 43.2121 8.60163 43.0776 8.51755C42.9515 8.44188 42.8085 8.32416 42.7749 8.2653C42.7413 8.20644 42.6572 8.15599 42.5899 8.15599C42.5227 8.15599 42.4386 8.10554 42.4049 8.04668C42.3377 7.94578 41.5893 7.39923 41.5052 7.39923C41.4716 7.39923 41.1857 7.22266 40.698 6.88632C40.4794 6.74338 40.1683 6.5668 39.7731 6.38182C39.5629 6.28091 39.3779 6.1716 39.3527 6.13797C39.3275 6.10434 39.1677 6.02866 38.9995 5.97821C38.823 5.91935 38.68 5.83527 38.68 5.79323C38.68 5.75119 38.6464 5.71755 38.5959 5.71755C38.5539 5.71755 38.31 5.62506 38.0578 5.50734C37.8055 5.38962 37.5701 5.29713 37.5281 5.29713C37.486 5.29713 37.3263 5.22986 37.1665 5.13737C37.0067 5.05329 36.6704 4.93557 36.4266 4.87671C36.1911 4.82626 35.9725 4.74218 35.9473 4.70854C35.9221 4.67491 35.7034 4.59082 35.468 4.54037C35.2242 4.48151 34.9887 4.40584 34.9383 4.37221C34.8962 4.33857 34.6272 4.2629 34.3497 4.20404C34.0722 4.15359 33.6938 4.0611 33.5088 3.99383C33.3239 3.93497 32.7941 3.84248 32.3317 3.78362C31.8692 3.73317 31.4152 3.64067 31.3227 3.59023C31.1545 3.49773 26.2188 3.42205 25.2686 3.49773Z" fill="#3BF5FF"/>
<path d="M27.2853 9.7985L27.0751 10.0171V17.2736V24.5384L26.7808 24.5889C26.6211 24.6225 26.4865 24.6814 26.4865 24.7234C26.4865 24.7655 26.3604 24.8327 26.2175 24.8832C25.8811 24.9925 24.9142 25.9679 24.8385 26.2706C24.8133 26.3883 24.7544 26.4892 24.7124 26.4892C24.6787 26.4892 24.6199 26.6237 24.5862 26.7835L24.5358 27.0778H19.4571H14.3868L14.1682 27.288C13.9916 27.473 13.958 27.5823 13.958 28.0027C13.958 28.4231 13.9916 28.5324 14.1682 28.7174L14.3868 28.9276H19.4571H24.5358L24.5862 29.2219C24.6199 29.3817 24.6787 29.5162 24.7124 29.5162C24.7544 29.5162 24.8049 29.6003 24.8385 29.7096C24.8805 29.8862 24.973 30.0207 25.385 30.4832C25.6541 30.7859 25.9736 31.0213 26.4193 31.2568C26.8397 31.4838 26.9238 31.4922 28 31.4922C29.0847 31.4922 29.152 31.4838 29.5892 31.2568C30.0769 30.9961 30.1778 30.9288 30.5142 30.6009C30.8421 30.2814 31.0019 30.0628 31.2541 29.5751C31.4811 29.1631 31.4895 29.079 31.4895 28.0027C31.4895 26.9264 31.4811 26.8423 31.2541 26.4219C31.0187 25.9763 30.7832 25.6568 30.4805 25.3877C30.0181 24.9757 29.8835 24.8832 29.707 24.8411C29.5976 24.8075 29.5136 24.7571 29.5136 24.715C29.5136 24.6814 29.379 24.6225 29.2193 24.5889L28.925 24.5384V17.2736V10.0171L28.7148 9.7985C28.5298 9.62192 28.4205 9.58829 28 9.58829C27.5796 9.58829 27.4703 9.62192 27.2853 9.7985ZM28.8325 26.6153C29.4799 27.1619 29.5556 27.3048 29.5556 28.0111C29.5556 28.4568 29.522 28.6838 29.4295 28.7763C29.3622 28.8519 29.2445 28.9781 29.1688 29.0622C28.7988 29.4994 28.6475 29.5583 28 29.5583C27.3526 29.5583 27.2013 29.4994 26.8313 29.0622C26.7556 28.9781 26.6379 28.8519 26.5706 28.7763C26.4781 28.6838 26.4445 28.4568 26.4445 28.0111C26.4445 27.3721 26.4781 27.2712 26.8733 26.876C27.3022 26.4556 27.4283 26.4051 28.0841 26.4303C28.4793 26.4471 28.6811 26.4976 28.8325 26.6153Z" fill="#3BF5FF"/>
<path d="M38.6143 34.1421C38.4815 34.2232 38.2873 34.3853 38.1851 34.5171C38.0216 34.7401 38.0012 35.2164 38.0012 41.9764C38.0012 49.9424 37.9705 49.5167 38.645 49.8512C38.9924 50.0234 39.534 50.0539 39.534 49.9018C39.534 49.841 39.5851 49.8005 39.6464 49.8005C39.7997 49.8005 40.4741 49.4762 40.6376 49.3343C40.699 49.2633 40.8522 49.1721 40.9646 49.1417C41.0771 49.1113 41.169 49.0404 41.169 48.9897C41.169 48.9492 41.2814 48.8782 41.4143 48.8478C41.5573 48.8174 41.7311 48.7262 41.8026 48.6552C41.8741 48.5944 42.1194 48.4424 42.3442 48.3309C42.569 48.2194 42.7734 48.108 42.804 48.0776C42.8347 48.0471 42.9675 47.9661 43.1106 47.8951C43.7033 47.5809 44.0712 47.3681 44.1223 47.2972C44.1529 47.2465 44.3777 47.1249 44.623 47.0235C44.858 46.912 45.0522 46.8006 45.0522 46.76C45.0522 46.7093 45.1646 46.6485 45.2974 46.6181C45.4405 46.5877 45.6142 46.4965 45.6857 46.4256C45.8288 46.2837 46.1762 46.081 46.8609 45.7465C47.0959 45.635 47.3003 45.5033 47.3208 45.4628C47.3412 45.4222 47.5149 45.3107 47.7091 45.2094C48.1996 44.9661 48.547 44.7635 48.7616 44.6114C48.9558 44.4695 49.4258 44.2162 49.9266 43.9831C50.1003 43.8919 50.274 43.7804 50.3047 43.7297C50.3353 43.6892 50.6112 43.5169 50.9178 43.3648C51.7455 42.9493 52.001 42.625 52.001 41.9966C52.001 41.3885 51.7455 41.0541 50.9791 40.6588C50.3762 40.3446 49.5076 39.8379 49.4463 39.767C49.4156 39.7366 49.2317 39.6352 49.0375 39.5339C48.4142 39.2197 47.8624 38.9055 47.8113 38.8346C47.7806 38.794 47.6375 38.7129 47.5047 38.6521C47.3616 38.5913 47.0448 38.4089 46.7894 38.2467C46.5339 38.0846 46.166 37.8819 45.9719 37.7907C45.7777 37.6994 45.5938 37.5981 45.5631 37.5474C45.512 37.4663 45.2974 37.3447 44.5412 36.9596C44.3471 36.8583 44.1631 36.7468 44.1325 36.7164C44.1018 36.6758 43.8872 36.5542 43.6522 36.4326C43.4172 36.3211 43.2026 36.1792 43.1719 36.1285C43.131 36.0779 42.9675 36.0069 42.804 35.9664C42.6303 35.9258 42.4975 35.8549 42.4975 35.8042C42.4975 35.7434 42.3646 35.6522 42.1909 35.6015C42.0274 35.5407 41.8843 35.4495 41.8843 35.409C41.8843 35.3583 41.68 35.2468 41.4245 35.1455C41.169 35.0542 40.9646 34.9428 40.9646 34.9022C40.9646 34.8617 40.8114 34.7705 40.6376 34.6894C40.4537 34.6184 40.28 34.5272 40.2493 34.4867C40.1369 34.3347 39.3194 33.9901 39.1048 34.0002C38.972 34.0104 38.7574 34.0712 38.6143 34.1421Z" fill="#3BF5FF"/>
</svg>
