<svg width="48" height="48" viewBox="0 0 48 48" fill="none" xmlns="http://www.w3.org/2000/svg">
<path d="M35 38H44M44 38L39 33M44 38L39 43M24 4L19 9L24 14" stroke="#3BF5FF" stroke-width="3" stroke-linecap="round" stroke-linejoin="round"/>
<path d="M21 9C24.9782 9 28.7936 10.5804 31.6066 13.3934C34.4196 16.2064 36 20.0218 36 24C36 27.9782 34.4196 31.7936 31.6066 34.6066C28.7936 37.4196 24.9782 39 21 39H4" stroke="#3BF5FF" stroke-width="3" stroke-linecap="round" stroke-linejoin="round"/>
<path d="M13.512 11C11.2281 12.3158 9.33119 14.2102 8.01241 16.4925C6.69363 18.7747 5.99953 21.3641 6 24C6 27.376 7.116 30.492 9 33" stroke="#3BF5FF" stroke-width="3" stroke-linecap="round" stroke-linejoin="round"/>
</svg>
