<svg width="25" height="25" viewBox="0 0 25 25" fill="none" xmlns="http://www.w3.org/2000/svg">
<path d="M11.9226 5.2873C11.9226 4.33531 11.1508 3.56349 10.1988 3.56349C9.24679 3.56349 8.47503 4.33531 8.47499 5.2873C8.47499 5.69531 8.14423 6.02607 7.73621 6.02607C6.5122 6.02607 5.51993 7.0184 5.51988 8.2424C5.51988 8.66369 5.63662 9.0559 5.83925 9.39C5.9646 9.59685 5.9808 9.85196 5.88254 10.073C5.78426 10.2939 5.58419 10.4526 5.34673 10.4982C4.32341 10.6939 3.54988 11.595 3.54982 12.6751C3.54982 13.755 4.32333 14.6562 5.34673 14.8519C5.58414 14.8974 5.78422 15.0563 5.88254 15.2771C5.98082 15.4982 5.96473 15.7542 5.83925 15.9611C5.63677 16.295 5.51991 16.6865 5.51988 17.1077C5.51988 18.3317 6.51218 19.324 7.73621 19.324C8.14418 19.324 8.47491 19.6549 8.47499 20.0628C8.47499 21.0148 9.24677 21.7866 10.1988 21.7866C11.1508 21.7866 11.9226 21.0148 11.9226 20.0628C11.9227 19.6549 12.2534 19.324 12.6614 19.324C13.0693 19.324 13.4001 19.6549 13.4002 20.0628C13.4002 21.0148 14.1719 21.7866 15.124 21.7866C16.076 21.7866 16.8478 21.0148 16.8478 20.0628C16.8478 19.6548 17.1786 19.324 17.5866 19.324C18.8106 19.324 19.8029 18.3317 19.8029 17.1077C19.8029 16.6865 19.686 16.295 19.4835 15.9611C19.358 15.7542 19.3419 15.4982 19.4402 15.2771C19.5385 15.0563 19.7386 14.8975 19.976 14.8519C20.9994 14.6562 21.7729 13.755 21.7729 12.6751C21.7729 11.595 20.9993 10.6939 19.976 10.4982C19.7386 10.4526 19.5385 10.2939 19.4402 10.073C19.342 9.852 19.3582 9.59684 19.4835 9.39C19.6861 9.0559 19.8029 8.66371 19.8029 8.2424C19.8029 7.01834 18.8106 6.02607 17.5866 6.02607C17.1785 6.02607 16.8478 5.69531 16.8478 5.2873C16.8478 4.33526 16.076 3.56349 15.124 3.56349C14.172 3.56349 13.4002 4.33527 13.4002 5.2873C13.4002 5.69531 13.0694 6.02607 12.6614 6.02607C12.2534 6.02607 11.9226 5.69531 11.9226 5.2873ZM21.2804 8.2424C21.2804 8.61974 21.2215 8.98382 21.1159 9.32748C22.3763 9.91552 23.2505 11.192 23.2505 12.6751C23.2505 14.1579 22.3761 15.4335 21.1159 16.0217C21.2217 16.3656 21.2804 16.73 21.2804 17.1077C21.2804 18.9203 19.9745 20.4264 18.2522 20.74C17.9414 22.1827 16.6596 23.2642 15.124 23.2642C14.1334 23.2642 13.2486 22.8136 12.6614 22.1069C12.0742 22.8136 11.1894 23.2642 10.1988 23.2642C8.66306 23.2642 7.38029 22.1828 7.06958 20.74C5.34785 20.4261 4.04233 18.92 4.04233 17.1077C4.04235 16.7301 4.10018 16.3655 4.20586 16.0217C2.94612 15.4334 2.07227 14.1576 2.07227 12.6751C2.07232 11.1923 2.9459 9.91566 4.20586 9.32748C4.10037 8.98393 4.04233 8.61961 4.04233 8.2424C4.04238 6.43001 5.34778 4.92299 7.06958 4.60913C7.38072 3.16686 8.66347 2.08594 10.1988 2.08594C11.1891 2.08594 12.0742 2.5359 12.6614 3.2422C13.2486 2.53587 14.1336 2.08594 15.124 2.08594C16.6592 2.08594 17.941 3.1669 18.2522 4.60913C19.9745 4.92262 21.2804 6.42964 21.2804 8.2424Z" fill="#E58FB1"/>
<path d="M15.3711 15.1334V9.22315C15.3711 8.81514 15.7018 8.48438 16.1098 8.48438C16.5179 8.48438 16.8486 8.81514 16.8486 9.22315V15.1334C16.8486 15.5414 16.5179 15.8721 16.1098 15.8721C15.7018 15.8721 15.3711 15.5414 15.3711 15.1334ZM10.6922 8.48438C11.3043 8.48438 11.8482 8.87614 12.0418 9.4569H12.0408L13.856 14.8996C13.985 15.2867 13.7756 15.7056 13.3885 15.8346C13.0014 15.9636 12.5825 15.7542 12.4535 15.3671L11.9648 13.9021H9.41951L8.93084 15.3671C8.80181 15.7542 8.3829 15.9636 7.99582 15.8346C7.60875 15.7056 7.39929 15.2867 7.52832 14.8996L9.34351 9.4569L9.38295 9.35013C9.60436 8.82854 10.1183 8.48438 10.6922 8.48438ZM9.91202 12.4245H11.4723L10.6922 10.0831L9.91202 12.4245Z" fill="#E58FB1"/>
</svg>
