<svg width="48" height="48" viewBox="0 0 48 48" fill="none" xmlns="http://www.w3.org/2000/svg">
<path d="M32.9625 38.7716L29.6471 35.4562L27.8422 37.2611L32.9625 42.3814L43.2031 32.1408L41.3982 30.3359L32.9625 38.7716ZM24.0019 32.8961L21.2638 31.5993C20.17 31.0783 19.2458 30.2586 18.5978 29.2348C17.9498 28.2111 17.6045 27.025 17.6016 25.8134V17.5351H30.4023V25.8147C30.3994 27.0263 30.054 28.2124 29.406 29.2361C28.7581 30.2599 27.8338 31.0796 26.74 31.6006L24.0019 32.8961ZM20.1617 20.0953V25.8147C20.1637 26.5413 20.3711 27.2526 20.76 27.8664C21.1489 28.4802 21.7034 28.9715 22.3596 29.2837L24.0019 30.062L25.6443 29.285C26.3007 28.9727 26.8553 28.4812 27.2442 27.8671C27.6332 27.2531 27.8404 26.5415 27.8422 25.8147V20.0953H20.1617ZM8.79462 26.0553C9.16063 25.8079 9.45639 25.47 9.65315 25.0745C9.84991 24.679 9.94096 24.2392 9.91746 23.7981C9.89397 23.3569 9.75672 22.9294 9.51905 22.557C9.28139 22.1846 8.95141 21.88 8.5612 21.6729C8.17098 21.4658 7.73381 21.3632 7.2922 21.375C6.85058 21.3869 6.41955 21.5128 6.04101 21.7406C5.66248 21.9684 5.34932 22.2902 5.13199 22.6748C4.91467 23.0594 4.80056 23.4938 4.80078 23.9355C4.80078 24.9455 5.38962 25.8096 6.23959 26.2269C6.66468 29.5985 8.04303 32.7789 10.2128 35.3944C12.3825 38.0099 15.2535 39.952 18.4886 40.9926L19.2746 38.5553C16.5266 37.6726 14.0844 36.0304 12.2302 33.8185C10.376 31.6066 9.18407 28.9152 8.79462 26.0553ZM41.7656 21.6442C41.3405 18.2725 39.9621 15.0922 37.7924 12.4767C35.6226 9.86115 32.7516 7.91906 29.5165 6.8785L28.7305 9.31577C31.4785 10.1985 33.9207 11.8407 35.775 14.0526C37.6292 16.2645 38.8198 18.9558 39.2092 21.8157C38.8432 22.0631 38.5475 22.401 38.3507 22.7965C38.154 23.1921 38.0629 23.6318 38.0864 24.073C38.1099 24.5141 38.2472 24.9417 38.4848 25.3141C38.7225 25.6865 39.0525 25.991 39.4427 26.1982C39.8329 26.4053 40.2701 26.5079 40.7117 26.496C41.1533 26.4842 41.5843 26.3582 41.9629 26.1305C42.3414 25.9027 42.6545 25.5809 42.8719 25.1962C43.0892 24.8116 43.2033 24.3773 43.2031 23.9355C43.2028 23.4572 43.0678 22.9885 42.8136 22.5833C42.5593 22.1781 42.1962 21.8526 41.7656 21.6442ZM24.0019 4.73438C22.992 4.73438 22.1279 5.32321 21.7106 6.17318C18.3391 6.59817 15.1589 7.97633 12.5434 10.1458C9.92785 12.3153 7.98567 15.1861 6.94491 18.421L9.38218 19.2095C10.2647 16.4613 11.9068 14.0188 14.1187 12.1643C16.3306 10.3099 19.0221 9.11905 21.8821 8.72949C22.1297 9.09527 22.4677 9.39077 22.8632 9.58729C23.2587 9.78381 23.6984 9.87466 24.1394 9.85101C24.5805 9.82735 25.0079 9.69 25.3802 9.4523C25.7524 9.2146 26.0568 8.88464 26.2639 8.49449C26.4709 8.10434 26.5734 7.66726 26.5616 7.22575C26.5497 6.78424 26.4238 6.3533 26.1961 5.97483C25.9685 5.59636 25.6468 5.28323 25.2623 5.06587C24.8778 4.8485 24.4436 4.73431 24.0019 4.73438Z" fill="#3BF5FF"/>
</svg>
