<svg width="96" height="96" viewBox="0 0 96 96" fill="none" xmlns="http://www.w3.org/2000/svg">
<path d="M28 38C31.3137 38 34 35.3137 34 32C34 28.6863 31.3137 26 28 26C24.6863 26 22 28.6863 22 32C22 35.3137 24.6863 38 28 38Z" stroke="#BE37D2" stroke-width="4.8" stroke-linecap="round" stroke-linejoin="round"/>
<path d="M83.9908 44C84 45.8804 84 47.8772 84 50C84 67.9132 84 76.87 78.4352 82.4352C72.87 88 63.9132 88 46 88C28.0866 88 19.13 88 13.565 82.4352C8 76.87 8 67.9132 8 50C8 32.0866 8 23.13 13.565 17.565C19.13 12 28.0866 12 46 12C48.1228 12 50.1196 12 52 12.0092" stroke="#BE37D2" stroke-width="4.8" stroke-linecap="round"/>
<path d="M74 8L75.0316 10.7881C76.3844 14.4441 77.0608 16.2721 78.3944 17.6056C79.728 18.9391 81.556 19.6155 85.212 20.9683L88 22L85.212 23.0317C81.556 24.3845 79.728 25.061 78.3944 26.3944C77.0608 27.7279 76.3844 29.5559 75.0316 33.2119L74 36L72.9684 33.2119C71.6156 29.5559 70.9392 27.7279 69.6056 26.3944C68.272 25.061 66.444 24.3845 62.788 23.0317L60 22L62.788 20.9683C66.444 19.6155 68.272 18.9391 69.6056 17.6056C70.9392 16.2721 71.6156 14.4441 72.9684 10.7881L74 8Z" stroke="#BE37D2" stroke-width="4.8" stroke-linejoin="round"/>
<path d="M18 85.9998C35.4898 65.0998 55.0964 37.536 83.99 56.1694" stroke="#BE37D2" stroke-width="4.8"/>
</svg>
