<svg width="48" height="48" viewBox="0 0 48 48" fill="none" xmlns="http://www.w3.org/2000/svg">
<path d="M23.9961 4C18.2961 4 14.6021 8.038 10.2321 9.51C8.4561 10.11 7.5661 10.408 7.2081 10.83C6.8481 11.25 6.7421 11.868 6.5321 13.1C4.2781 26.292 9.2041 38.488 20.9501 43.236C22.2121 43.746 22.8441 44 24.0021 44C25.1601 44 25.7941 43.744 27.0561 43.234C38.8021 38.488 43.7221 26.292 41.4681 13.1C41.2561 11.868 41.1521 11.25 40.7921 10.828C40.4321 10.406 39.5441 10.108 37.7681 9.51C33.3961 8.038 29.6961 4 23.9961 4Z" stroke="#3BF5FF" stroke-width="2.35294" stroke-linecap="round" stroke-linejoin="round"/>
<path d="M20.9037 13V16.958M13.9297 20H18.0337M29.9757 20H34.0797M29.9757 25.948H34.0797M13.9297 25.948H18.0337M20.9037 29.038V32.998M26.9537 29.038V32.998M26.9337 13V16.958M20.0337 28.936H27.9757C28.5061 28.936 29.0148 28.7253 29.3899 28.3502C29.765 27.9751 29.9757 27.4664 29.9757 26.936V18.958C29.9757 18.4276 29.765 17.9189 29.3899 17.5438C29.0148 17.1687 28.5061 16.958 27.9757 16.958H20.0337C19.5033 16.958 18.9945 17.1687 18.6195 17.5438C18.2444 17.9189 18.0337 18.4276 18.0337 18.958V26.936C18.0337 27.4664 18.2444 27.9751 18.6195 28.3502C18.9945 28.7253 19.5033 28.936 20.0337 28.936Z" stroke="#3BF5FF" stroke-width="2.35294" stroke-linecap="round" stroke-linejoin="round"/>
</svg>
