<svg width="36" height="36" viewBox="0 0 36 36" fill="none" xmlns="http://www.w3.org/2000/svg">
<path d="M17.5158 13.008C17.5677 12.9265 17.6393 12.8594 17.724 12.813C17.8087 12.7665 17.9037 12.7422 18.0003 12.7422C18.0969 12.7422 18.1919 12.7665 18.2766 12.813C18.3613 12.8594 18.4329 12.9265 18.4848 13.008L19.1388 14.0355C19.86 15.1714 20.8229 16.1342 21.9588 16.8555L22.9848 17.508C23.0662 17.5599 23.1333 17.6315 23.1797 17.7162C23.2262 17.8008 23.2506 17.8959 23.2506 17.9925C23.2506 18.0891 23.2262 18.1841 23.1797 18.2688C23.1333 18.3535 23.0662 18.4251 22.9848 18.477L21.9573 19.131C20.8214 19.8522 19.8585 20.8151 19.1373 21.951L18.4848 22.977C18.4329 23.0584 18.3613 23.1255 18.2766 23.1719C18.1919 23.2184 18.0969 23.2427 18.0003 23.2427C17.9037 23.2427 17.8087 23.2184 17.724 23.1719C17.6393 23.1255 17.5677 23.0584 17.5158 22.977L16.8618 21.9495C16.1406 20.8136 15.1777 19.8507 14.0418 19.1295L13.0158 18.477C12.9343 18.4251 12.8673 18.3535 12.8208 18.2688C12.7744 18.1841 12.75 18.0891 12.75 17.9925C12.75 17.8959 12.7744 17.8008 12.8208 17.7162C12.8673 17.6315 12.9343 17.5599 13.0158 17.508L14.0433 16.8555C15.1792 16.1342 16.1421 15.1714 16.8633 14.0355L17.5158 13.008Z" stroke="#3BF5FF" stroke-width="2.25" stroke-linejoin="round"/>
<path d="M5.86022 7.92426C10.3062 8.24526 13.1742 3.74376 18.0402 3.74376C22.8312 3.64776 25.1757 7.98426 30.0882 7.98426C32.7222 21.3898 27.2427 29.8093 18.0792 32.2423C9.58472 30.2233 3.20222 21.7183 5.86022 7.92426Z" stroke="#3BF5FF" stroke-width="2.25" stroke-linejoin="round"/>
</svg>
