<svg width="48" height="48" viewBox="0 0 48 48" fill="none" xmlns="http://www.w3.org/2000/svg">
<path d="M30.002 38C32.402 30.644 35.054 27.99 42.002 26C35.054 24.01 32.402 21.356 30.002 14C27.602 21.356 24.95 24.01 18.002 26C24.95 27.99 27.602 30.644 30.002 38ZM14.002 20C15.202 16.32 16.528 14.994 20.002 14C16.528 13.006 15.202 11.68 14.002 8C12.802 11.68 11.476 13.006 8.00195 14C11.476 14.994 12.802 16.32 14.002 20ZM17.002 40C17.602 38.16 18.264 37.498 20.002 37C18.264 36.502 17.602 35.84 17.002 34C16.402 35.84 15.74 36.502 14.002 37C15.74 37.498 16.402 38.16 17.002 40Z" stroke="#3BF5FF" stroke-width="2.35294" stroke-linejoin="round"/>
</svg>
