<svg width="24" height="24" viewBox="0 0 24 24" fill="none" xmlns="http://www.w3.org/2000/svg">
<path d="M12.0001 2.25C13.1846 2.25 14.0829 2.94612 14.9113 3.96484C15.7343 4.97721 16.6196 6.47501 17.7443 8.37109L19.6691 11.6162C20.8402 13.5908 21.765 15.1444 22.2765 16.3945C22.7901 17.6499 22.9751 18.8058 22.3761 19.8633C21.7765 20.9217 20.6904 21.3543 19.3517 21.5537C18.019 21.7522 16.2147 21.75 13.9249 21.75H10.0753C7.78556 21.75 5.98127 21.7522 4.64856 21.5537C3.30979 21.3543 2.22374 20.9217 1.62414 19.8633C1.02513 18.8058 1.21013 17.6499 1.72375 16.3945C2.23527 15.1444 3.15996 13.5908 4.33117 11.6162L6.25598 8.37109C7.38062 6.47501 8.26589 4.97721 9.08899 3.96484C9.91729 2.94612 10.8156 2.25 12.0001 2.25ZM12.0001 3.75C11.4978 3.75 10.9838 4.01241 10.253 4.91113C9.51695 5.8165 8.69631 7.19641 7.54602 9.13574L5.62121 12.3809C4.42412 14.3991 3.57181 15.8401 3.11242 16.9629C2.65526 18.0803 2.67488 18.6756 2.92883 19.124C3.18237 19.5716 3.68066 19.8932 4.87024 20.0703C6.06601 20.2483 7.73489 20.25 10.0753 20.25H13.9249C16.2654 20.25 17.9342 20.2483 19.13 20.0703C20.3196 19.8932 20.8179 19.5716 21.0714 19.124C21.3254 18.6756 21.345 18.0802 20.8878 16.9629C20.4284 15.8401 19.5761 14.3991 18.379 12.3809L16.4542 9.13574C15.3039 7.1964 14.4833 5.8165 13.7472 4.91113C13.0164 4.01241 12.5024 3.75 12.0001 3.75Z" fill="#F3AEAF"/>
<path d="M11.25 13.5V9C11.25 8.58579 11.5858 8.25 12 8.25C12.4142 8.25 12.75 8.58579 12.75 9V13.5C12.75 13.9142 12.4142 14.25 12 14.25C11.5858 14.25 11.25 13.9142 11.25 13.5Z" fill="#F3AEAF"/>
<path d="M11.1016 17.0039V16.9941C11.1016 16.4971 11.5049 16.0938 12.002 16.0938C12.499 16.0938 12.9023 16.4971 12.9023 16.9941V17.0039C12.9023 17.501 12.499 17.9043 12.002 17.9043C11.5049 17.9043 11.1016 17.501 11.1016 17.0039Z" fill="#F3AEAF"/>
</svg>
