<svg width="59" height="58" viewBox="0 0 59 58" fill="none" xmlns="http://www.w3.org/2000/svg">
<path d="M58.6192 0.296875L49.6635 0.134306L54.0005 7.97146L58.6192 0.296875ZM2.82268 56.7411C3.03184 56.3672 2.89829 55.8946 2.5244 55.6854C2.15051 55.4763 1.67785 55.6098 1.4687 55.9837L2.14569 56.3624L2.82268 56.7411ZM3.57723 52.3396C3.35732 52.7072 3.47709 53.1836 3.84476 53.4035C4.21242 53.6234 4.68875 53.5036 4.90866 53.136L4.24295 52.7378L3.57723 52.3396ZM5.99079 51.3562C6.21601 50.9918 6.10316 50.5138 5.73872 50.2886C5.37429 50.0633 4.89627 50.1762 4.67105 50.5406L5.33092 50.9484L5.99079 51.3562ZM6.9363 46.9913C6.70061 47.3491 6.79956 47.8302 7.15731 48.0659C7.51506 48.3016 7.99615 48.2026 8.23184 47.8449L7.58407 47.4181L6.9363 46.9913ZM9.39024 46.114C9.63109 45.7597 9.53912 45.2772 9.18482 45.0364C8.83052 44.7955 8.34805 44.8875 8.1072 45.2418L8.74872 45.6779L9.39024 46.114ZM10.5244 41.7945C10.2734 42.1417 10.3513 42.6266 10.6985 42.8776C11.0457 43.1286 11.5306 43.0507 11.7816 42.7035L11.153 42.249L10.5244 41.7945ZM13.0142 41.0244C13.2702 40.6809 13.1993 40.1949 12.8557 39.9389C12.5122 39.6829 12.0262 39.7538 11.7702 40.0973L12.3922 40.5609L13.0142 41.0244ZM14.3349 36.7581C14.069 37.0941 14.1258 37.5819 14.4618 37.8478C14.7978 38.1136 15.2856 38.0568 15.5515 37.7208L14.9432 37.2395L14.3349 36.7581ZM16.8556 36.0969C17.1263 35.7648 17.0765 35.2762 16.7445 35.0055C16.4124 34.7349 15.9238 34.7846 15.6531 35.1167L16.2544 35.6068L16.8556 36.0969ZM18.3601 31.892C18.08 32.2161 18.1156 32.7059 18.4397 32.9861C18.7638 33.2663 19.2537 33.2307 19.5338 32.9066L18.947 32.3993L18.3601 31.892ZM20.9073 31.3407C21.1921 31.0207 21.1636 30.5304 20.8436 30.2455C20.5236 29.9607 20.0332 29.9892 19.7484 30.3093L20.3279 30.825L20.9073 31.3407ZM22.5928 27.205C22.2989 27.5166 22.3132 28.0076 22.6249 28.3015C22.9365 28.5955 23.4274 28.5812 23.7214 28.2695L23.1571 27.7372L22.5928 27.205ZM25.1615 26.7648C25.4599 26.4574 25.4527 25.9663 25.1453 25.6679C24.838 25.3694 24.3469 25.3767 24.0484 25.684L24.6049 26.2244L25.1615 26.7648ZM27.0249 22.7061C26.7177 23.0047 26.7107 23.4958 27.0093 23.803C27.3079 24.1102 27.799 24.1172 28.1062 23.8186L27.5656 23.2624L27.0249 22.7061ZM29.6102 22.3778C29.9218 22.0837 29.9359 21.5928 29.6417 21.2813C29.3476 20.9697 28.8567 20.9556 28.5452 21.2498L29.0777 21.8138L29.6102 22.3778ZM31.6482 18.4039C31.3283 18.6889 31.3 19.1792 31.5849 19.4991C31.8699 19.819 32.3602 19.8473 32.6801 19.5624L32.1642 18.9831L31.6482 18.4039ZM34.2454 18.1883C34.5694 17.908 34.6048 17.4181 34.3245 17.0941C34.0442 16.7701 33.5543 16.7347 33.2303 17.015L33.7379 17.6016L34.2454 18.1883ZM36.4542 14.3068C36.1222 14.5775 36.0726 15.0662 36.3433 15.3982C36.6141 15.7302 37.1028 15.7798 37.4348 15.509L36.9445 14.9079L36.4542 14.3068ZM39.0583 14.2044C39.3942 13.9385 39.4509 13.4506 39.185 13.1147C38.919 12.7788 38.4312 12.7221 38.0953 12.988L38.5768 13.5962L39.0583 14.2044ZM41.4342 10.4228C41.0907 10.6788 41.0198 11.1648 41.2758 11.5083C41.5319 11.8518 42.0179 11.9227 42.3614 11.6667L41.8978 11.0447L41.4342 10.4228ZM44.0403 10.434C44.3875 10.183 44.4654 9.6981 44.2144 9.35092C43.9634 9.00375 43.4785 8.92579 43.1313 9.17681L43.5858 9.80543L44.0403 10.434ZM46.5789 6.75982C46.2245 7.00061 46.1325 7.48306 46.3733 7.83741C46.6141 8.19175 47.0965 8.2838 47.4509 8.04301L47.0149 7.40142L46.5789 6.75982ZM49.1819 6.88504C49.5398 6.64945 49.6389 6.16839 49.4033 5.81057C49.1677 5.45275 48.6866 5.35367 48.3288 5.58926L48.7554 6.23715L49.1819 6.88504ZM51.8791 3.32532C51.5145 3.55036 51.4014 4.02832 51.6265 4.39287C51.8515 4.75742 52.3295 4.87052 52.694 4.64548L52.2866 3.9854L51.8791 3.32532ZM54.4743 3.56443C54.8421 3.34475 54.9622 2.8685 54.7425 2.5007C54.5228 2.13289 54.0465 2.01282 53.6787 2.2325L54.0765 2.89847L54.4743 3.56443ZM57.3247 0.126649C56.9506 0.335461 56.8167 0.80799 57.0255 1.18207C57.2343 1.55615 57.7068 1.69013 58.0809 1.48132L57.7028 0.803984L57.3247 0.126649ZM1.6377 57.2784L2.31742 57.6521C2.48477 57.3478 2.6532 57.0441 2.82268 56.7411L2.14569 56.3624L1.4687 55.9837C1.29738 56.29 1.12714 56.5969 0.957972 56.9046L1.6377 57.2784ZM4.24295 52.7378L4.90866 53.136C5.2652 52.5399 5.62592 51.9466 5.99079 51.3562L5.33092 50.9484L4.67105 50.5406C4.30224 51.1374 3.93762 51.7371 3.57723 52.3396L4.24295 52.7378ZM7.58407 47.4181L8.23184 47.8449C8.61391 47.2649 9.00006 46.688 9.39024 46.114L8.74872 45.6779L8.1072 45.2418C7.71281 45.8219 7.32249 46.4051 6.9363 46.9913L7.58407 47.4181ZM11.153 42.249L11.7816 42.7035C12.1885 42.1407 12.5994 41.581 13.0142 41.0244L12.3922 40.5609L11.7702 40.0973C11.3509 40.6599 10.9356 41.2256 10.5244 41.7945L11.153 42.249ZM14.9432 37.2395L15.5515 37.7208C15.9823 37.1763 16.4171 36.635 16.8556 36.0969L16.2544 35.6068L15.6531 35.1167C15.2098 35.6606 14.7704 36.2077 14.3349 36.7581L14.9432 37.2395ZM18.947 32.3993L19.5338 32.9066C19.9879 32.3812 20.4458 31.8593 20.9073 31.3407L20.3279 30.825L19.7484 30.3093C19.2819 30.8334 18.8191 31.361 18.3601 31.892L18.947 32.3993ZM23.1571 27.7372L23.7214 28.2695C24.1978 27.7644 24.6779 27.2629 25.1615 26.7648L24.6049 26.2244L24.0484 25.684C23.5596 26.1875 23.0744 26.6945 22.5928 27.205L23.1571 27.7372ZM27.5656 23.2624L28.1062 23.8186C28.6041 23.3347 29.1054 22.8544 29.6102 22.3778L29.0777 21.8138L28.5452 21.2498C28.0349 21.7315 27.5281 22.217 27.0249 22.7061L27.5656 23.2624ZM32.1642 18.9831L32.6801 19.5624C33.1985 19.1006 33.7203 18.6425 34.2454 18.1883L33.7379 17.6016L33.2303 17.015C32.6996 17.4742 32.1722 17.9371 31.6482 18.4039L32.1642 18.9831ZM36.9445 14.9079L37.4348 15.509C37.9727 15.0703 38.5139 14.6354 39.0583 14.2044L38.5768 13.5962L38.0953 12.988C37.545 13.4237 36.998 13.8633 36.4542 14.3068L36.9445 14.9079ZM41.8978 11.0447L42.3614 11.6667C42.9179 11.2518 43.4776 10.8409 44.0403 10.434L43.5858 9.80543L43.1313 9.17681C42.5625 9.58808 41.9967 10.0034 41.4342 10.4228L41.8978 11.0447ZM47.0149 7.40142L47.4509 8.04301C48.0249 7.65291 48.602 7.26691 49.1819 6.88504L48.7554 6.23715L48.3288 5.58926C47.7425 5.97528 47.1592 6.36548 46.5789 6.75982L47.0149 7.40142ZM52.2866 3.9854L52.694 4.64548C53.2846 4.28091 53.878 3.92055 54.4743 3.56443L54.0765 2.89847L53.6787 2.2325C53.076 2.59249 52.4761 2.95678 51.8791 3.32532L52.2866 3.9854Z" fill="#FFB381"/>
</svg>
