<svg width="58" height="59" viewBox="0 0 58 59" fill="none" xmlns="http://www.w3.org/2000/svg">
<path d="M0.637695 0.71875L0.483599 9.6746L8.31664 5.33013L0.637695 0.71875ZM0.468703 2.01337C0.677855 2.38726 1.15051 2.52081 1.5244 2.31166C1.89829 2.1025 2.03184 1.62985 1.82268 1.25596L1.14569 1.63467L0.468703 2.01337ZM3.90866 4.86114C3.68875 4.49348 3.21242 4.3737 2.84476 4.59362C2.47709 4.81353 2.35732 5.28986 2.57723 5.65752L3.24295 5.25933L3.90866 4.86114ZM3.67105 7.45647C3.89627 7.82091 4.37429 7.93376 4.73872 7.70854C5.10316 7.48331 5.21601 7.0053 4.99079 6.64086L4.33092 7.04867L3.67105 7.45647ZM7.23184 10.1522C6.99615 9.79449 6.51506 9.69554 6.15731 9.93124C5.79956 10.1669 5.70061 10.648 5.9363 11.0058L6.58407 10.579L7.23184 10.1522ZM7.1072 12.7553C7.34805 13.1096 7.83052 13.2016 8.18482 12.9607C8.53913 12.7199 8.63109 12.2374 8.39024 11.8831L7.74872 12.3192L7.1072 12.7553ZM10.7816 15.2936C10.5306 14.9464 10.0457 14.8685 9.69849 15.1195C9.35131 15.3705 9.27335 15.8554 9.52436 16.2026L10.153 15.7481L10.7816 15.2936ZM10.7702 17.8998C11.0262 18.2433 11.5122 18.3142 11.8557 18.0582C12.1993 17.8022 12.2702 17.3162 12.0142 16.9727L11.3922 17.4362L10.7702 17.8998ZM14.5515 20.2763C14.2856 19.9403 13.7978 19.8835 13.4618 20.1493C13.1259 20.4152 13.069 20.903 13.3349 21.239L13.9432 20.7576L14.5515 20.2763ZM14.6531 22.8804C14.9238 23.2125 15.4124 23.2622 15.7445 22.9916C16.0765 22.7209 16.1263 22.2323 15.8557 21.9002L15.2544 22.3903L14.6531 22.8804ZM18.5338 25.0906C18.2537 24.7664 17.7638 24.7308 17.4397 25.011C17.1156 25.2912 17.08 25.781 17.3602 26.1051L17.947 25.5978L18.5338 25.0906ZM18.7484 27.6878C19.0332 28.0079 19.5236 28.0364 19.8436 27.7516C20.1636 27.4667 20.1921 26.9764 19.9073 26.6564L19.3279 27.1721L18.7484 27.6878ZM22.7214 29.7276C22.4274 29.4159 21.9365 29.4016 21.6249 29.6956C21.3132 29.9895 21.2989 30.4805 21.5928 30.7921L22.1571 30.2599L22.7214 29.7276ZM23.0484 32.3131C23.3469 32.6204 23.838 32.6277 24.1453 32.3292C24.4527 32.0308 24.4599 31.5397 24.1615 31.2323L23.6049 31.7727L23.0484 32.3131ZM27.1062 34.1785C26.799 33.8799 26.3079 33.8869 26.0093 34.1941C25.7107 34.5013 25.7177 34.9924 26.0249 35.291L26.5656 34.7347L27.1062 34.1785ZM27.5452 36.7473C27.8567 37.0415 28.3476 37.0274 28.6417 36.7159C28.9359 36.4043 28.9218 35.9134 28.6102 35.6193L28.0777 36.1833L27.5452 36.7473ZM31.6801 38.4347C31.3602 38.1498 30.8699 38.1781 30.5849 38.498C30.3 38.8179 30.3283 39.3082 30.6482 39.5932L31.1642 39.014L31.6801 38.4347ZM32.2303 40.9821C32.5543 41.2624 33.0442 41.227 33.3245 40.903C33.6048 40.579 33.5694 40.0891 33.2454 39.8088L32.7379 40.3955L32.2303 40.9821ZM36.4348 42.4881C36.1028 42.2173 35.6141 42.2669 35.3434 42.5989C35.0726 42.9309 35.1222 43.4196 35.4542 43.6903L35.9445 43.0892L36.4348 42.4881ZM37.0953 45.0091C37.4312 45.275 37.919 45.2183 38.185 44.8824C38.4509 44.5465 38.3942 44.0586 38.0583 43.7927L37.5768 44.4009L37.0953 45.0091ZM41.3614 46.3305C41.0179 46.0744 40.5319 46.1453 40.2758 46.4888C40.0198 46.8323 40.0907 47.3183 40.4342 47.5743L40.8978 46.9524L41.3614 46.3305ZM42.1313 48.8203C42.4785 49.0713 42.9634 48.9934 43.2144 48.6462C43.4654 48.299 43.3875 47.8141 43.0403 47.5631L42.5858 48.1917L42.1313 48.8203ZM46.4509 49.9541C46.0965 49.7133 45.6141 49.8054 45.3733 50.1597C45.1325 50.514 45.2245 50.9965 45.5789 51.2373L46.0149 50.5957L46.4509 49.9541ZM47.3288 52.4078C47.6866 52.6434 48.1677 52.5444 48.4033 52.1865C48.6389 51.8287 48.5398 51.3477 48.1819 51.1121L47.7554 51.76L47.3288 52.4078ZM51.694 53.3516C51.3295 53.1266 50.8515 53.2397 50.6265 53.6042C50.4014 53.9688 50.5145 54.4467 50.8791 54.6718L51.2866 54.0117L51.694 53.3516ZM52.6787 55.7646C53.0465 55.9843 53.5228 55.8642 53.7425 55.4964C53.9621 55.1286 53.8421 54.6524 53.4743 54.4327L53.0765 55.0986L52.6787 55.7646ZM57.0809 56.5158C56.7068 56.307 56.2343 56.441 56.0255 56.815C55.8167 57.1891 55.9506 57.6616 56.3247 57.8705L56.7028 57.1931L57.0809 56.5158ZM3.24295 5.25933L2.57723 5.65752C2.93762 6.26004 3.30224 6.8597 3.67105 7.45647L4.33092 7.04867L4.99079 6.64086C4.62592 6.05047 4.2652 5.45722 3.90866 4.86114L3.24295 5.25933ZM6.58407 10.579L5.9363 11.0058C6.32249 11.592 6.71281 12.1752 7.1072 12.7553L7.74872 12.3192L8.39024 11.8831C8.00006 11.3091 7.61391 10.7322 7.23184 10.1522L6.58407 10.579ZM10.153 15.7481L9.52436 16.2026C9.93565 16.7715 10.351 17.3372 10.7702 17.8998L11.3922 17.4362L12.0142 16.9727C11.5994 16.4161 11.1885 15.8564 10.7816 15.2936L10.153 15.7481ZM13.9432 20.7576L13.3349 21.239C13.7704 21.7894 14.2098 22.3365 14.6531 22.8804L15.2544 22.3903L15.8557 21.9002C15.4171 21.3621 14.9824 20.8208 14.5515 20.2763L13.9432 20.7576ZM17.947 25.5978L17.3602 26.1051C17.8191 26.6361 18.2819 27.1637 18.7484 27.6878L19.3279 27.1721L19.9073 26.6564C19.4458 26.1378 18.9879 25.6159 18.5338 25.0906L17.947 25.5978ZM22.1571 30.2599L21.5928 30.7921C22.0744 31.3026 22.5596 31.8096 23.0484 32.3131L23.6049 31.7727L24.1615 31.2323C23.6779 30.7342 23.1978 30.2327 22.7214 29.7276L22.1571 30.2599ZM26.5656 34.7347L26.0249 35.291C26.5281 35.7801 27.0349 36.2656 27.5452 36.7473L28.0777 36.1833L28.6102 35.6193C28.1054 35.1427 27.6041 34.6624 27.1062 34.1785L26.5656 34.7347ZM31.1642 39.014L30.6482 39.5932C31.1722 40.06 31.6996 40.5229 32.2303 40.9821L32.7379 40.3955L33.2454 39.8088C32.7203 39.3546 32.1985 38.8965 31.6801 38.4347L31.1642 39.014ZM35.9445 43.0892L35.4542 43.6903C35.998 44.1338 36.545 44.5734 37.0953 45.0091L37.5768 44.4009L38.0583 43.7927C37.5139 43.3617 36.9727 42.9268 36.4348 42.4881L35.9445 43.0892ZM40.8978 46.9524L40.4342 47.5743C40.9967 47.9937 41.5625 48.409 42.1313 48.8203L42.5858 48.1917L43.0403 47.5631C42.4776 47.1562 41.9179 46.7453 41.3614 46.3305L40.8978 46.9524ZM46.0149 50.5957L45.5789 51.2373C46.1592 51.6316 46.7425 52.0218 47.3288 52.4078L47.7554 51.76L48.1819 51.1121C47.602 50.7302 47.0249 50.3442 46.4509 49.9541L46.0149 50.5957ZM51.2866 54.0117L50.8791 54.6718C51.4761 55.0403 52.076 55.4046 52.6787 55.7646L53.0765 55.0986L53.4743 54.4327C52.878 54.0766 52.2846 53.7162 51.694 53.3516L51.2866 54.0117ZM56.7028 57.1931L56.3247 57.8705C56.6312 58.0415 56.9383 58.2115 57.2461 58.3803L57.6192 57.7002L57.9923 57.0201C57.6878 56.8531 57.384 56.685 57.0809 56.5158L56.7028 57.1931Z" fill="#92CEAC"/>
</svg>
