<svg xmlns="http://www.w3.org/2000/svg" width="24" height="24" viewBox="0 0 24 24" fill="none">
  <path d="M20 11.25C20.4142 11.25 20.75 11.5858 20.75 12C20.75 12.4142 20.4142 12.75 20 12.75H4C3.58579 12.75 3.25 12.4142 3.25 12C3.25 11.5858 3.58579 11.25 4 11.25H20Z" fill="#121314"/>
  <path d="M14.4697 6.46967C14.7626 6.17678 15.2373 6.17678 15.5302 6.46967L20.5302 11.4697C20.8231 11.7626 20.8231 12.2373 20.5302 12.5302L15.5302 17.5302C15.2373 17.8231 14.7625 17.8231 14.4697 17.5302C14.1768 17.2373 14.1768 16.7626 14.4697 16.4697L18.9394 11.9999L14.4697 7.53022C14.1768 7.23732 14.1768 6.76256 14.4697 6.46967Z" fill="#121314"/>
</svg>