<svg width="26" height="26" viewBox="0 0 26 26" fill="none" xmlns="http://www.w3.org/2000/svg">
<path d="M21.6663 12.1875C22.1151 12.1875 22.4788 12.5513 22.4788 13C22.4788 13.4487 22.1151 13.8125 21.6663 13.8125H4.33301C3.88428 13.8125 3.52051 13.4487 3.52051 13C3.52051 12.5513 3.88428 12.1875 4.33301 12.1875H21.6663Z" fill="#3BF5FF"/>
<path d="M15.6755 7.01141C15.9928 6.69411 16.5071 6.69411 16.8244 7.01141L22.2411 12.4281C22.5584 12.7454 22.5584 13.2597 22.2411 13.577L16.8244 18.9937C16.5071 19.3109 15.9928 19.3109 15.6755 18.9937C15.3582 18.6764 15.3582 18.162 15.6755 17.8447L20.5177 13.0025L15.6755 8.16034C15.3582 7.84304 15.3582 7.32871 15.6755 7.01141Z" fill="#3BF5FF"/>
</svg>
