<svg width="58" height="59" viewBox="0 0 58 59" fill="none" xmlns="http://www.w3.org/2000/svg">
<path d="M57.6953 58.2784L57.8494 49.3225L50.0164 53.667L57.6953 58.2784ZM1.25213 2.48132C1.62621 2.69013 2.09874 2.55615 2.30755 2.18207C2.51637 1.80799 2.38239 1.33546 2.00831 1.12665L1.63022 1.80398L1.25213 2.48132ZM5.65431 3.2325C5.2865 3.01281 4.81025 3.13289 4.59057 3.5007C4.37089 3.8685 4.49097 4.34475 4.85877 4.56443L5.25654 3.89846L5.65431 3.2325ZM6.63901 5.64547C7.00356 5.87051 7.48151 5.75742 7.70655 5.39286C7.93159 5.02831 7.81849 4.55036 7.45394 4.32532L7.04647 4.9854L6.63901 5.64547ZM11.0043 6.58926C10.6464 6.35367 10.1654 6.45275 9.92978 6.81057C9.69419 7.16839 9.79327 7.64945 10.1511 7.88504L10.5777 7.23715L11.0043 6.58926ZM11.8822 9.04301C12.2365 9.2838 12.719 9.19175 12.9598 8.83741C13.2006 8.48306 13.1085 8.00061 12.7542 7.75982L12.3182 8.40142L11.8822 9.04301ZM16.2018 10.1768C15.8546 9.9258 15.3697 10.0037 15.1186 10.3509C14.8676 10.6981 14.9456 11.183 15.2928 11.434L15.7473 10.8054L16.2018 10.1768ZM16.9717 12.6667C17.3152 12.9227 17.8012 12.8518 18.0572 12.5083C18.3133 12.1648 18.2424 11.6788 17.8989 11.4228L17.4353 12.0447L16.9717 12.6667ZM21.2378 13.988C20.9019 13.7221 20.414 13.7788 20.1481 14.1147C19.8822 14.4506 19.9389 14.9385 20.2748 15.2044L20.7563 14.5962L21.2378 13.988ZM21.8983 16.509C22.2303 16.7798 22.7189 16.7302 22.9897 16.3982C23.2605 16.0662 23.2108 15.5775 22.8788 15.3068L22.3886 15.9079L21.8983 16.509ZM26.1027 18.015C25.7787 17.7347 25.2888 17.7701 25.0085 18.0941C24.7283 18.4181 24.7637 18.908 25.0877 19.1883L25.5952 18.6016L26.1027 18.015ZM26.6529 20.5624C26.9728 20.8473 27.4632 20.819 27.7481 20.4991C28.0331 20.1792 28.0048 19.6889 27.6849 19.4039L27.1689 19.9831L26.6529 20.5624ZM30.7879 22.2498C30.4764 21.9556 29.9854 21.9697 29.6913 22.2813C29.3972 22.5928 29.4113 23.0837 29.7228 23.3778L30.2553 22.8138L30.7879 22.2498ZM31.2268 24.8186C31.5341 25.1172 32.0252 25.1102 32.3238 24.803C32.6223 24.4958 32.6154 24.0047 32.3081 23.7061L31.7675 24.2624L31.2268 24.8186ZM35.2846 26.684C34.9862 26.3767 34.4951 26.3694 34.1877 26.6679C33.8804 26.9663 33.8731 27.4574 34.1716 27.7648L34.7281 27.2244L35.2846 26.684ZM35.6116 29.2695C35.9056 29.5812 36.3965 29.5955 36.7082 29.3015C37.0198 29.0076 37.0342 28.5166 36.7402 28.205L36.1759 28.7373L35.6116 29.2695ZM39.5846 31.3093C39.2998 30.9893 38.8095 30.9607 38.4895 31.2455C38.1694 31.5304 38.1409 32.0207 38.4257 32.3407L39.0052 31.825L39.5846 31.3093ZM39.7992 33.9066C40.0794 34.2307 40.5692 34.2663 40.8933 33.9861C41.2174 33.7059 41.2531 33.2161 40.9729 32.892L40.386 33.3993L39.7992 33.9066ZM43.68 36.1167C43.4093 35.7846 42.9207 35.7349 42.5886 36.0056C42.2565 36.2762 42.2067 36.7649 42.4774 37.0969L43.0787 36.6068L43.68 36.1167ZM43.7816 38.7208C44.0474 39.0568 44.5353 39.1136 44.8712 38.8478C45.2072 38.5819 45.264 38.0941 44.9982 37.7581L44.3899 38.2395L43.7816 38.7208ZM47.5628 41.0973C47.3068 40.7538 46.8208 40.6829 46.4773 40.9389C46.1338 41.1949 46.0629 41.6809 46.3189 42.0244L46.9408 41.5609L47.5628 41.0973ZM47.5514 43.7035C47.8024 44.0507 48.2874 44.1286 48.6346 43.8776C48.9817 43.6266 49.0597 43.1417 48.8087 42.7945L48.1801 43.249L47.5514 43.7035ZM51.2258 46.2418C50.985 45.8875 50.5025 45.7955 50.1482 46.0364C49.7939 46.2772 49.702 46.7597 49.9428 47.114L50.5843 46.6779L51.2258 46.2418ZM51.1012 48.8449C51.3369 49.2026 51.818 49.3016 52.1757 49.0659C52.5335 48.8302 52.6324 48.3491 52.3967 47.9913L51.749 48.4181L51.1012 48.8449ZM54.662 51.5406C54.4368 51.1762 53.9588 51.0633 53.5943 51.2886C53.2299 51.5138 53.117 51.9918 53.3423 52.3562L54.0021 51.9484L54.662 51.5406ZM54.4244 54.136C54.6443 54.5036 55.1206 54.6234 55.4883 54.4035C55.856 54.1836 55.9757 53.7072 55.7558 53.3396L55.0901 53.7378L54.4244 54.136ZM57.8643 56.9837C57.6552 56.6098 57.1825 56.4763 56.8086 56.6854C56.4347 56.8946 56.3012 57.3672 56.5104 57.7411L57.1873 57.3624L57.8643 56.9837ZM0.713867 1.29688L0.340759 1.97697C0.645224 2.144 0.949017 2.31212 1.25213 2.48132L1.63022 1.80398L2.00831 1.12665C1.70188 0.9556 1.39477 0.785645 1.08698 0.616785L0.713867 1.29688ZM5.25654 3.89846L4.85877 4.56443C5.455 4.92054 6.04842 5.2809 6.63901 5.64547L7.04647 4.9854L7.45394 4.32532C6.85693 3.95678 6.25703 3.59249 5.65431 3.2325L5.25654 3.89846ZM10.5777 7.23715L10.1511 7.88504C10.7311 8.26691 11.3081 8.65291 11.8822 9.04301L12.3182 8.40142L12.7542 7.75982C12.1739 7.36548 11.5905 6.97528 11.0043 6.58926L10.5777 7.23715ZM15.7473 10.8054L15.2928 11.434C15.8555 11.8409 16.4151 12.2518 16.9717 12.6667L17.4353 12.0447L17.8989 11.4228C17.3363 11.0034 16.7706 10.5881 16.2018 10.1768L15.7473 10.8054ZM20.7563 14.5962L20.2748 15.2044C20.8192 15.6354 21.3603 16.0703 21.8983 16.509L22.3886 15.9079L22.8788 15.3068C22.3351 14.8633 21.788 14.4237 21.2378 13.988L20.7563 14.5962ZM25.5952 18.6016L25.0877 19.1883C25.6128 19.6425 26.1345 20.1006 26.6529 20.5624L27.1689 19.9831L27.6849 19.4039C27.1609 18.9371 26.6335 18.4742 26.1027 18.015L25.5952 18.6016ZM30.2553 22.8138L29.7228 23.3778C30.2276 23.8545 30.729 24.3347 31.2268 24.8186L31.7675 24.2624L32.3081 23.7061C31.8049 23.217 31.2981 22.7315 30.7879 22.2498L30.2553 22.8138ZM34.7281 27.2244L34.1716 27.7648C34.6552 28.2629 35.1352 28.7644 35.6116 29.2695L36.1759 28.7373L36.7402 28.205C36.2587 27.6945 35.7734 27.1875 35.2846 26.684L34.7281 27.2244ZM39.0052 31.825L38.4257 32.3407C38.8873 32.8593 39.3451 33.3812 39.7992 33.9066L40.386 33.3993L40.9729 32.892C40.5139 32.361 40.0511 31.8334 39.5846 31.3093L39.0052 31.825ZM43.0787 36.6068L42.4774 37.0969C42.916 37.635 43.3507 38.1763 43.7816 38.7208L44.3899 38.2395L44.9982 37.7581C44.5627 37.2077 44.1232 36.6606 43.68 36.1167L43.0787 36.6068ZM46.9408 41.5609L46.3189 42.0244C46.7337 42.581 47.1445 43.1407 47.5514 43.7035L48.1801 43.249L48.8087 42.7945C48.3974 42.2256 47.9821 41.6599 47.5628 41.0973L46.9408 41.5609ZM50.5843 46.6779L49.9428 47.114C50.333 47.688 50.7191 48.2649 51.1012 48.8449L51.749 48.4181L52.3967 47.9913C52.0106 47.4051 51.6202 46.8219 51.2258 46.2418L50.5843 46.6779ZM54.0021 51.9484L53.3423 52.3562C53.7071 52.9466 54.0678 53.5399 54.4244 54.136L55.0901 53.7378L55.7558 53.3396C55.3954 52.7371 55.0308 52.1374 54.662 51.5406L54.0021 51.9484Z" fill="#F3AEAF"/>
</svg>
