<svg width="48" height="48" viewBox="0 0 48 48" fill="none" xmlns="http://www.w3.org/2000/svg">
<path d="M19.5534 32.8889H8.44229V44M28.4423 15.1111H39.5534V4M7.51562 17.34C8.76184 14.2565 10.848 11.5845 13.537 9.62748C16.226 7.67048 19.4101 6.507 22.7274 6.26928C26.0446 6.03156 29.3621 6.72911 32.3027 8.28268C35.2433 9.83625 37.6891 12.1835 39.3623 15.0578M40.4823 30.66C39.2363 33.744 37.1502 36.4166 34.4609 38.3741C31.7717 40.3315 28.5872 41.4952 25.2695 41.733C21.9519 41.9707 18.634 41.2729 15.6931 39.7189C12.7523 38.1649 10.3064 35.8171 8.6334 32.9422" stroke="#3BF5FF" stroke-width="3.5" stroke-linecap="round" stroke-linejoin="round"/>
</svg>
