<svg width="59" height="58" viewBox="0 0 59 58" fill="none" xmlns="http://www.w3.org/2000/svg">
<path d="M0.713867 57.7002L9.66957 57.8628L5.33251 50.0257L0.713867 57.7002ZM2.00831 57.8705C2.38239 57.6616 2.51637 57.1891 2.30755 56.815C2.09874 56.441 1.62621 56.307 1.25213 56.5158L1.63022 57.1931L2.00831 57.8705ZM4.85877 54.4327C4.49097 54.6524 4.37089 55.1286 4.59057 55.4964C4.81025 55.8642 5.2865 55.9843 5.65431 55.7646L5.25654 55.0986L4.85877 54.4327ZM7.45394 54.6718C7.81849 54.4467 7.93159 53.9688 7.70655 53.6042C7.48151 53.2397 7.00356 53.1266 6.63901 53.3516L7.04647 54.0117L7.45394 54.6718ZM10.1511 51.1121C9.79327 51.3477 9.69419 51.8287 9.92978 52.1865C10.1654 52.5444 10.6464 52.6434 11.0043 52.4078L10.5777 51.76L10.1511 51.1121ZM12.7542 51.2373C13.1085 50.9965 13.2006 50.514 12.9598 50.1597C12.719 49.8054 12.2365 49.7133 11.8822 49.9541L12.3182 50.5957L12.7542 51.2373ZM15.2928 47.5631C14.9456 47.8141 14.8676 48.299 15.1186 48.6462C15.3697 48.9934 15.8546 49.0713 16.2018 48.8203L15.7473 48.1917L15.2928 47.5631ZM17.8989 47.5743C18.2424 47.3183 18.3133 46.8323 18.0572 46.4888C17.8012 46.1453 17.3152 46.0744 16.9717 46.3305L17.4353 46.9524L17.8989 47.5743ZM20.2748 43.7927C19.9389 44.0586 19.8821 44.5465 20.1481 44.8824C20.414 45.2183 20.9019 45.275 21.2378 45.0091L20.7563 44.4009L20.2748 43.7927ZM22.8788 43.6903C23.2108 43.4196 23.2605 42.9309 22.9897 42.5989C22.7189 42.2669 22.2303 42.2173 21.8983 42.4881L22.3886 43.0892L22.8788 43.6903ZM25.0877 39.8088C24.7637 40.0891 24.7282 40.579 25.0085 40.903C25.2888 41.227 25.7787 41.2624 26.1027 40.9821L25.5952 40.3955L25.0877 39.8088ZM27.6849 39.5932C28.0048 39.3082 28.0331 38.8179 27.7481 38.498C27.4632 38.1781 26.9728 38.1498 26.6529 38.4347L27.1689 39.014L27.6849 39.5932ZM29.7228 35.6193C29.4113 35.9134 29.3972 36.4043 29.6913 36.7159C29.9854 37.0274 30.4764 37.0415 30.7879 36.7473L30.2553 36.1833L29.7228 35.6193ZM32.3081 35.291C32.6154 34.9924 32.6223 34.5013 32.3238 34.1941C32.0252 33.8869 31.5341 33.8799 31.2268 34.1785L31.7675 34.7347L32.3081 35.291ZM34.1716 31.2323C33.8731 31.5397 33.8804 32.0308 34.1877 32.3292C34.4951 32.6277 34.9862 32.6204 35.2846 32.3131L34.7281 31.7727L34.1716 31.2323ZM36.7402 30.7921C37.0342 30.4805 37.0198 29.9895 36.7082 29.6956C36.3965 29.4016 35.9056 29.4159 35.6116 29.7276L36.1759 30.2599L36.7402 30.7921ZM38.4257 26.6564C38.1409 26.9764 38.1694 27.4667 38.4895 27.7516C38.8095 28.0364 39.2998 28.0079 39.5846 27.6878L39.0052 27.1721L38.4257 26.6564ZM40.9729 26.1051C41.2531 25.781 41.2174 25.2912 40.8933 25.011C40.5692 24.7308 40.0794 24.7664 39.7992 25.0906L40.386 25.5978L40.9729 26.1051ZM42.4774 21.9002C42.2067 22.2323 42.2565 22.7209 42.5886 22.9916C42.9206 23.2622 43.4093 23.2125 43.6799 22.8804L43.0787 22.3903L42.4774 21.9002ZM44.9982 21.239C45.264 20.903 45.2072 20.4152 44.8712 20.1493C44.5353 19.8835 44.0474 19.9403 43.7816 20.2763L44.3899 20.7576L44.9982 21.239ZM46.3189 16.9727C46.0629 17.3162 46.1338 17.8022 46.4773 18.0582C46.8208 18.3142 47.3068 18.2433 47.5628 17.8998L46.9408 17.4362L46.3189 16.9727ZM48.8087 16.2026C49.0597 15.8554 48.9817 15.3705 48.6346 15.1195C48.2874 14.8685 47.8024 14.9464 47.5514 15.2936L48.1801 15.7481L48.8087 16.2026ZM49.9428 11.8831C49.702 12.2374 49.7939 12.7199 50.1482 12.9607C50.5025 13.2016 50.985 13.1096 51.2258 12.7553L50.5843 12.3192L49.9428 11.8831ZM52.3967 11.0058C52.6324 10.648 52.5335 10.1669 52.1757 9.93124C51.818 9.69554 51.3369 9.79449 51.1012 10.1522L51.749 10.579L52.3967 11.0058ZM53.3423 6.64087C53.117 7.0053 53.2299 7.48332 53.5943 7.70854C53.9588 7.93376 54.4368 7.82091 54.662 7.45647L54.0021 7.04867L53.3423 6.64087ZM55.7558 5.65752C55.9757 5.28986 55.856 4.81353 55.4883 4.59362C55.1206 4.3737 54.6443 4.49348 54.4244 4.86114L55.0901 5.25933L55.7558 5.65752ZM56.5104 1.25597C56.3012 1.62986 56.4348 2.10251 56.8086 2.31166C57.1825 2.52081 57.6552 2.38727 57.8643 2.01337L57.1873 1.63467L56.5104 1.25597ZM5.25654 55.0986L5.65431 55.7646C6.25703 55.4046 6.85693 55.0403 7.45394 54.6718L7.04647 54.0117L6.63901 53.3516C6.04842 53.7162 5.455 54.0766 4.85877 54.4327L5.25654 55.0986ZM10.5777 51.76L11.0043 52.4078C11.5905 52.0218 12.1739 51.6316 12.7542 51.2373L12.3182 50.5957L11.8822 49.9541C11.3081 50.3442 10.7311 50.7302 10.1511 51.1121L10.5777 51.76ZM15.7473 48.1917L16.2018 48.8203C16.7706 48.409 17.3363 47.9937 17.8989 47.5743L17.4353 46.9524L16.9717 46.3305C16.4151 46.7453 15.8555 47.1562 15.2928 47.5631L15.7473 48.1917ZM20.7563 44.4009L21.2378 45.0091C21.788 44.5734 22.3351 44.1338 22.8788 43.6903L22.3886 43.0892L21.8983 42.4881C21.3603 42.9268 20.8191 43.3617 20.2748 43.7927L20.7563 44.4009ZM25.5952 40.3955L26.1027 40.9821C26.6335 40.523 27.1609 40.06 27.6849 39.5932L27.1689 39.014L26.6529 38.4347C26.1345 38.8965 25.6128 39.3546 25.0877 39.8088L25.5952 40.3955ZM30.2553 36.1833L30.7879 36.7473C31.2981 36.2656 31.8049 35.7801 32.3081 35.291L31.7675 34.7347L31.2268 34.1785C30.729 34.6624 30.2276 35.1427 29.7228 35.6193L30.2553 36.1833ZM34.7281 31.7727L35.2846 32.3131C35.7734 31.8096 36.2587 31.3026 36.7402 30.7921L36.1759 30.2599L35.6116 29.7276C35.1352 30.2327 34.6552 30.7342 34.1716 31.2323L34.7281 31.7727ZM39.0052 27.1721L39.5846 27.6878C40.0511 27.1637 40.5139 26.6361 40.9729 26.1051L40.386 25.5978L39.7992 25.0906C39.3451 25.6159 38.8873 26.1378 38.4257 26.6564L39.0052 27.1721ZM43.0787 22.3903L43.6799 22.8804C44.1232 22.3365 44.5627 21.7894 44.9982 21.239L44.3899 20.7576L43.7816 20.2763C43.3507 20.8208 42.916 21.3621 42.4774 21.9002L43.0787 22.3903ZM46.9408 17.4362L47.5628 17.8998C47.9821 17.3372 48.3974 16.7715 48.8087 16.2026L48.1801 15.7481L47.5514 15.2936C47.1445 15.8564 46.7337 16.4161 46.3189 16.9727L46.9408 17.4362ZM50.5843 12.3192L51.2258 12.7553C51.6202 12.1752 52.0106 11.592 52.3967 11.0058L51.749 10.579L51.1012 10.1522C50.7191 10.7322 50.333 11.3091 49.9428 11.8831L50.5843 12.3192ZM54.0021 7.04867L54.662 7.45647C55.0308 6.8597 55.3954 6.26004 55.7558 5.65752L55.0901 5.25933L54.4244 4.86114C54.0678 5.45722 53.7071 6.05047 53.3423 6.64087L54.0021 7.04867ZM57.1873 1.63467L57.8643 2.01337C58.0357 1.70711 58.2059 1.40016 58.3751 1.09253L57.6953 0.71875L57.0156 0.344974C56.8483 0.649317 56.6798 0.952983 56.5104 1.25597L57.1873 1.63467Z" fill="#96C7F2"/>
</svg>
