<svg width="48" height="48" viewBox="0 0 48 48" fill="none" xmlns="http://www.w3.org/2000/svg">
<path d="M32 44V43C32 40.79 33.864 39 35.844 38.02C37.77 37.07 39.388 35.5 39.594 33.66L40 30L44 28L39 20.5C39.0011 16.3829 37.4629 12.4141 34.6875 9.37298C31.9121 6.3319 28.1001 4.43829 24 4.064M13 33.992V44M13 33.992C10.9262 32.5282 9.21567 30.6083 8 28.38M13 33.992C14.5 35.052 16.188 35.866 18 36.378M11 20V24M17 20V24M11 4V8M17 4V8M8 11H4M8 17H4M24 11H20M24 17H20M16 8H12C10.114 8 9.172 8 8.586 8.586C8 9.172 8 10.114 8 12V16C8 17.886 8 18.828 8.586 19.414C9.172 20 10.114 20 12 20H16C17.886 20 18.828 20 19.414 19.414C20 18.828 20 17.886 20 16V12C20 10.114 20 9.172 19.414 8.586C18.828 8 17.886 8 16 8Z" stroke="#3BF5FF" stroke-width="3" stroke-linecap="round" stroke-linejoin="round"/>
</svg>
