<svg width="48" height="48" viewBox="0 0 48 48" fill="none" xmlns="http://www.w3.org/2000/svg">
<path d="M32 43.9964V42.9964C32 40.7864 33.864 38.9964 35.844 38.0184C37.77 37.0664 39.388 35.4984 39.594 33.6584L40 29.9964L44 27.9964L39 20.4964C39.0007 17.7656 38.3236 15.0773 37.0294 12.6726C35.7352 10.2678 33.8644 8.22196 31.5847 6.71838C29.3051 5.21481 26.6879 4.30055 23.9678 4.05761C21.2478 3.81467 18.51 4.25065 16 5.32644M13 33.9884V43.9964M13 33.9884C10.2514 32.0516 8.15843 29.323 7 26.1664M13 33.9884C14.5 35.0484 16.188 35.8624 18 36.3764" stroke="#3BF5FF" stroke-width="3" stroke-linecap="round" stroke-linejoin="round"/>
<path d="M5.5 6.5L12 11H20M5.5 17.5H20M7 6.5C7 6.69698 6.9612 6.89204 6.88582 7.07403C6.81044 7.25601 6.69995 7.42137 6.56066 7.56066C6.42137 7.69995 6.25601 7.81044 6.07403 7.88582C5.89204 7.9612 5.69698 8 5.5 8C5.30302 8 5.10796 7.9612 4.92597 7.88582C4.74399 7.81044 4.57863 7.69995 4.43934 7.56066C4.30005 7.42137 4.18956 7.25601 4.11418 7.07403C4.0388 6.89204 4 6.69698 4 6.5C4 6.10218 4.15804 5.72064 4.43934 5.43934C4.72064 5.15804 5.10218 5 5.5 5C5.89782 5 6.27936 5.15804 6.56066 5.43934C6.84196 5.72064 7 6.10218 7 6.5ZM7 17.5C7 17.697 6.9612 17.892 6.88582 18.074C6.81044 18.256 6.69995 18.4214 6.56066 18.5607C6.42137 18.6999 6.25601 18.8104 6.07403 18.8858C5.89204 18.9612 5.69698 19 5.5 19C5.30302 19 5.10796 18.9612 4.92597 18.8858C4.74399 18.8104 4.57863 18.6999 4.43934 18.5607C4.30005 18.4214 4.18956 18.256 4.11418 18.074C4.0388 17.892 4 17.697 4 17.5C4 17.1022 4.15804 16.7206 4.43934 16.4393C4.72064 16.158 5.10218 16 5.5 16C5.89782 16 6.27936 16.158 6.56066 16.4393C6.84196 16.7206 7 17.1022 7 17.5Z" stroke="#3BF5FF" stroke-width="3" stroke-linecap="round" stroke-linejoin="round"/>
</svg>
