<svg xmlns="http://www.w3.org/2000/svg" width="94" height="56" fill="none" xmlns:v="https://vecta.io/nano"><g clip-path="url(#A)"><use href="#B" fill="#97a2b3"/><g fill-rule="evenodd" fill="#f90"><use href="#C"/><use href="#D"/></g><use href="#B" fill="#97a2b3"/><g fill-rule="evenodd" fill="#f90"><use href="#C"/><use href="#D"/></g></g><defs><clipPath id="A"><path fill="#fff" d="M0 0h94v56H0z"/></clipPath><path id="B" d="M26.469 20.3a12.64 12.64 0 0 0 .312 2.8c.234.7.546 1.4 1.015 2.256.156.233.234.467.234.7 0 .311-.156.622-.624.933l-1.952 1.322c-.312.155-.546.311-.781.311-.312 0-.625-.156-.937-.467-.468-.467-.781-.933-1.093-1.478s-.625-1.089-.937-1.867c-2.42 2.878-5.465 4.278-9.213 4.278-2.654 0-4.684-.778-6.246-2.256s-2.342-3.5-2.342-5.989c0-2.645.937-4.822 2.811-6.378s4.45-2.411 7.651-2.411c1.093 0 2.186.078 3.279.233 1.171.156 2.342.389 3.591.7v-2.255c0-2.333-.468-4.044-1.483-4.978s-2.654-1.4-5.075-1.4c-1.093 0-2.186.156-3.357.389-1.171.311-2.264.622-3.357 1.089-.468.156-.859.311-1.093.389-.234 0-.39.078-.468.078-.468 0-.625-.311-.625-.933V3.811c0-.467.078-.856.234-1.089s.468-.467.859-.622c1.093-.544 2.42-1.011 3.904-1.4C12.338.311 13.9.078 15.617.078c3.747 0 6.402.856 8.198 2.489 1.718 1.711 2.576 4.2 2.576 7.7l.078 10.033zm-12.648 4.744a9.55 9.55 0 0 0 3.201-.544c1.093-.389 2.108-1.089 2.967-2.022.468-.622.859-1.244 1.093-2.022.156-.778.312-1.633.312-2.722v-1.322c-.937-.233-1.874-.389-2.889-.544s-1.952-.156-2.967-.156c-2.108 0-3.591.389-4.684 1.244-1.015.856-1.562 2.022-1.562 3.578 0 1.478.39 2.567 1.171 3.267.781.933 1.874 1.244 3.357 1.244zm25.062 3.422c-.547 0-.937-.078-1.171-.311-.234-.155-.468-.622-.625-1.244L29.748 2.8c-.156-.622-.312-1.011-.312-1.244 0-.467.234-.778.781-.778h3.045c.625 0 1.015.078 1.249.311.234.156.468.622.625 1.244l5.231 20.611 4.84-20.611c.156-.622.312-1.011.625-1.244.234-.156.703-.311 1.249-.311h2.498c.625 0 1.015.078 1.249.311.234.156.468.622.625 1.244l4.919 20.844 5.387-20.844c.156-.622.39-1.011.625-1.244.234-.156.625-.311 1.249-.311h2.889c.468 0 .781.233.781.778 0 .156 0 .311-.078.467 0 .156-.078.467-.234.778l-7.573 24.111c-.156.622-.39 1.011-.625 1.244-.234.156-.625.311-1.171.311h-2.654c-.625 0-1.015-.078-1.249-.311s-.468-.622-.625-1.244l-4.84-20.067-4.841 20.067c-.156.622-.312 1.011-.624 1.244-.234.233-.703.311-1.249.311h-2.654zm40.208.778c-1.64 0-3.279-.156-4.841-.544s-2.811-.778-3.591-1.244c-.469-.311-.859-.622-.937-.855s-.234-.622-.234-.856v-1.556c0-.622.234-.933.703-.933.156 0 .39 0 .547.078s.468.155.781.311c1.093.467 2.186.855 3.435 1.089s2.498.389 3.748.389c1.952 0 3.513-.311 4.528-1.011 1.093-.7 1.64-1.711 1.64-2.956 0-.855-.312-1.556-.859-2.178s-1.64-1.089-3.123-1.633l-4.528-1.4c-2.264-.7-3.982-1.789-4.997-3.189S69.8 9.878 69.8 8.245c0-1.322.312-2.489.859-3.422s1.327-1.867 2.264-2.567 2.03-1.244 3.279-1.633 2.577-.544 3.904-.544c.703 0 1.405 0 2.108.156.703.078 1.405.233 2.03.311l1.796.467c.547.156 1.015.389 1.327.544.468.233.781.467.937.778a1.94 1.94 0 0 1 .312 1.011v1.478c0 .622-.234 1.011-.703 1.011-.234 0-.625-.156-1.171-.389C84.946 4.667 82.994 4.2 80.73 4.2c-1.796 0-3.201.311-4.138.856s-1.483 1.478-1.483 2.8c0 .856.312 1.633.937 2.178.625.622 1.796 1.167 3.435 1.711l4.45 1.4c2.264.7 3.904 1.711 4.84 2.956s1.405 2.722 1.405 4.356c0 1.322-.312 2.567-.781 3.578-.546 1.089-1.327 2.022-2.264 2.722-.937.778-2.108 1.322-3.435 1.711-1.562.622-3.045.778-4.606.778z"/><path id="C" d="M85.03 44.416c-10.306 7.544-25.296 11.589-38.1 11.589-18.035 0-34.274-6.611-46.532-17.656-.937-.856-.078-2.022 1.093-1.4 13.272 7.7 29.59 12.289 46.532 12.289 11.399 0 23.969-2.333 35.523-7.233 1.639-.7 3.123 1.167 1.483 2.411z"/><path id="D" d="M89.243 39.593c-1.327-1.711-8.666-.778-12.023-.389-1.015.156-1.171-.778-.234-1.4 5.856-4.122 15.537-2.956 16.63-1.555s-.312 11.044-5.777 15.633c-.859.7-1.64.311-1.249-.622 1.249-3.111 3.982-10.033 2.655-11.667z"/></defs></svg>