<svg width="59" height="56" viewBox="0 0 59 56" fill="none" xmlns="http://www.w3.org/2000/svg">
<g clip-path="url(#clip0_3952_77889)">
<path d="M19.6632 0H37.1272L19.0227 54.0982C18.6518 55.2529 17.573 56 16.393 56H2.77238C1.22153 56 0.0078125 54.7435 0.0078125 53.2153C0.0078125 52.9096 0.0415268 52.604 0.14267 52.3323L17.0335 1.90176C17.4044 0.781079 18.4832 0 19.6632 0Z" fill="#789FCC"/>
<path d="M45.0621 36.2656H17.3827C16.6747 36.2656 16.1016 36.8429 16.1016 37.5561C16.1016 37.9297 16.2364 38.2693 16.5061 38.507L34.3073 55.2153C34.813 55.6907 35.521 55.9624 36.229 55.9624H51.9061L45.0621 36.2656Z" fill="#6CBAF5"/>
<path d="M19.665 0C18.4513 0 17.3724 0.781079 17.0353 1.93572L0.178113 52.2304C-0.327602 53.6907 0.414113 55.2868 1.86383 55.7962C2.16726 55.8981 2.47068 55.966 2.80783 55.966H16.7318C17.777 55.7623 18.6535 55.0152 19.0244 53.9964L22.3958 44.0121L34.3981 55.3548C34.9038 55.7623 35.5444 56 36.185 56H51.7947L44.9507 36.2693H24.9918L37.1964 0H19.665Z" fill="url(#paint0_linear_3952_77889)"/>
<path d="M41.9891 1.90176C41.6182 0.74712 40.5394 0 39.3594 0H19.9062C21.0862 0 22.1651 0.78108 22.536 1.90176L39.3931 52.2984C39.8988 53.7587 39.0897 55.3548 37.64 55.8302C37.3702 55.9321 37.0668 55.966 36.7634 55.966H56.2165C57.7674 55.966 58.9811 54.7095 58.9811 53.1813C58.9811 52.8757 58.9474 52.5701 58.8462 52.2984L41.9891 1.90176Z" fill="url(#paint1_linear_3952_77889)"/>
</g>
<defs>
<linearGradient id="paint0_linear_3952_77889" x1="31.7029" y1="29.2916" x2="27.503" y2="30.7015" gradientUnits="userSpaceOnUse">
<stop stop-opacity="0.3"/>
<stop offset="0.071" stop-opacity="0.2"/>
<stop offset="0.321" stop-opacity="0.1"/>
<stop offset="0.623" stop-opacity="0.05"/>
<stop offset="1" stop-opacity="0"/>
</linearGradient>
<linearGradient id="paint1_linear_3952_77889" x1="29.5323" y1="2.52717" x2="49.6884" y2="55.838" gradientUnits="userSpaceOnUse">
<stop stop-color="#3BC9F3"/>
<stop offset="1" stop-color="#2892DF"/>
</linearGradient>
<clipPath id="clip0_3952_77889">
<rect width="59" height="56" fill="white"/>
</clipPath>
</defs>
</svg>
