<svg width="157" height="28" viewBox="0 0 157 28" fill="none" xmlns="http://www.w3.org/2000/svg">
<path d="M151.122 15.7471C154.852 16.4052 156.826 18.2332 156.826 21.2312C156.826 24.8872 153.755 27.0809 148.856 27.0809C143.518 27.0809 140.264 24.5216 140.154 20.3171H144.505C144.761 22.2914 146.15 23.4614 148.746 23.4614C150.867 23.4614 152.146 22.6936 152.146 21.2312C152.146 20.0978 151.378 19.4763 149.514 19.1472L146.662 18.6719C142.64 17.9407 140.593 16.1492 140.593 13.261C140.593 9.82425 143.408 7.48438 148.124 7.48438C152.841 7.48438 155.985 9.82425 156.241 13.8459H151.781C151.598 12.091 150.318 10.9942 148.088 10.9942C146.041 10.9942 145.09 11.8716 145.09 13.0781C145.09 14.1384 145.858 14.7599 148.015 15.1621L151.122 15.7471Z" fill="white"/>
<path d="M127.475 27.0846C123.343 27.0846 120.784 24.3426 120.784 19.736V8H125.464V18.8585C125.464 21.7102 126.561 23.0264 128.645 23.0264C131.058 23.0264 132.886 21.2349 132.886 17.2133V8H137.565V26.4997H133.324V23.7211C132.191 25.9878 130.144 27.0846 127.475 27.0846Z" fill="white"/>
<path d="M109.859 27.0836C107.081 27.0836 104.887 25.8771 103.498 23.7201V26.4987H99.2568V0.90625H103.937V10.1926C105.289 8.40117 107.337 7.41404 109.859 7.41404C114.759 7.41404 118.195 11.1432 118.195 17.2488C118.195 23.3179 114.759 27.0836 109.859 27.0836ZM108.689 23.0985C111.578 23.0985 113.442 20.7952 113.442 17.2488C113.442 13.7025 111.578 11.3626 108.689 11.3626C105.765 11.3626 103.79 13.7025 103.79 17.2488C103.79 20.7952 105.765 23.0985 108.689 23.0985Z" fill="white"/>
<path d="M84.8955 27.0993C80.8373 27.0993 78.3877 24.6863 78.3877 21.3227C78.3877 18.0688 80.6179 15.9849 84.8589 15.6558L89.1731 15.3633C90.0505 15.2902 90.5624 14.888 90.5624 13.8644C90.5624 11.9998 89.1365 11.1589 87.0891 11.1589C84.7492 11.1589 83.5427 12.2557 83.2868 13.974H78.7899C79.2286 9.84269 82.0438 7.42969 87.1257 7.42969C92.171 7.42969 95.169 9.84269 95.169 14.8515V22.5658H96.668V26.5143H94.8034C92.6098 26.5143 91.4398 25.3809 91.2936 23.2604C90.1236 25.9293 87.7106 27.0993 84.8955 27.0993ZM85.8461 23.3701C88.6247 23.3701 90.5989 21.469 90.5989 18.9828V18.2516L85.8461 18.6172C83.8352 18.7635 83.0675 19.7506 83.0675 21.0668C83.0675 22.5292 84.0911 23.3701 85.8461 23.3701Z" fill="white"/>
<path d="M71.1199 15.6558C71.1199 12.8041 69.9866 11.4879 67.7198 11.4879C65.124 11.4879 63.296 13.2794 63.296 17.301V26.5143H58.6162V8.01466H62.8572V10.7201C64.0272 8.56307 66.0746 7.42969 68.8532 7.42969C73.2039 7.42969 75.7997 10.1717 75.7997 14.7784V26.5143H71.1199V15.6558Z" fill="white"/>
<path d="M45.2422 12.6798C45.2422 9.64523 46.8874 8 50.0316 8H56.0276V11.9485H49.9219V26.4997H45.2422V12.6798Z" fill="white"/>
<path d="M30.8808 27.0993C26.8226 27.0993 24.373 24.6863 24.373 21.3227C24.373 18.0688 26.6032 15.9849 30.8443 15.6558L35.1584 15.3633C36.0359 15.2902 36.5477 14.888 36.5477 13.8644C36.5477 11.9998 35.1219 11.1589 33.0745 11.1589C30.7346 11.1589 29.5281 12.2557 29.2722 13.974H24.7752C25.2139 9.84269 28.0291 7.42969 33.111 7.42969C38.1564 7.42969 41.1544 9.84269 41.1544 14.8515V22.5658H42.6533V26.5143H40.7888C38.5951 26.5143 37.4252 25.3809 37.2789 23.2604C36.109 25.9293 33.696 27.0993 30.8808 27.0993ZM31.8314 23.3701C34.61 23.3701 36.5843 21.469 36.5843 18.9828V18.2516L31.8314 18.6172C29.8206 18.7635 29.0528 19.7506 29.0528 21.0668C29.0528 22.5292 30.0765 23.3701 31.8314 23.3701Z" fill="white"/>
<path d="M0.466797 26.4987V0.90625H13.4092C17.7965 0.90625 20.7945 3.31925 20.7945 7.15811C20.7945 10.2292 18.8568 11.8379 17.1384 12.496C19.9902 13.6293 21.6719 15.8595 21.6719 19.15C21.6719 23.7201 18.4181 26.4987 13.5921 26.4987H0.466797ZM12.7512 22.2576C15.2007 22.2576 16.6266 21.0511 16.6266 18.9672C16.6266 16.8101 15.2007 15.5305 12.7512 15.5305H5.40248V22.2576H12.7512ZM12.349 11.3991C14.6157 11.3991 15.9685 10.2292 15.9685 8.21837C15.9685 6.2441 14.6157 5.14728 12.349 5.14728H5.40248V11.3991H12.349Z" fill="white"/>
</svg>
