<svg width="16" height="16" viewBox="0 0 16 16" fill="none" xmlns="http://www.w3.org/2000/svg">
<path d="M8.78837 7.21473L7.99929 5.78125L7.21155 7.21473L5.77539 8.00381L7.21155 8.79155L7.99929 10.225L8.78837 8.79155L10.2218 8.00381L8.78837 7.21473ZM8.78837 7.21473L7.99929 5.78125L7.21155 7.21473L5.77539 8.00381L7.21155 8.79155L7.99929 10.225L8.78837 8.79155L10.2218 8.00381L8.78837 7.21473ZM8.78837 7.21473L7.99929 5.78125L7.21155 7.21473L5.77539 8.00381L7.21155 8.79155L7.99929 10.225L8.78837 8.79155L10.2218 8.00381L8.78837 7.21473Z" fill="#00C1CC"/>
<path d="M15.9084 7.2692C15.7383 6.55648 15.319 5.92414 14.7215 5.49008C14.5594 5.36951 14.3825 5.26635 14.195 5.18061C14.1856 5.17525 14.1749 5.16989 14.1655 5.16587L13.6685 4.94348L11.8625 4.13297H11.8612V4.13029L10.2147 3.39345L9.44707 3.04915L9.35597 3.00762L8.84018 2.77719L8.82143 2.76915C8.29627 2.53337 7.6934 2.53337 7.16824 2.76915L7.16154 2.77183L6.5426 3.04915L5.80175 3.3814L6.05094 2.8281L6.28002 2.32036C6.3671 2.1194 6.48768 1.93988 6.6337 1.78716C6.9847 1.4174 7.48039 1.20037 8.00555 1.20037C8.53071 1.20037 9.01702 1.41472 9.36802 1.7818C9.51673 1.93586 9.63998 2.11672 9.73108 2.32036L9.83558 2.55212L11.4847 3.29164L11.052 2.32571H11.0507L10.8189 1.80725H10.8176C10.7305 1.61567 10.626 1.43616 10.5054 1.27137C10.07 0.673868 9.43635 0.255882 8.72497 0.0857406C8.52134 0.0361718 8.311 0.00803818 8.09665 0.0013397C8.06718 0 8.03637 0 8.00555 0C7.76039 0 7.51924 0.0281336 7.28748 0.0844009C6.56806 0.253203 5.93304 0.676547 5.50032 1.27941C5.38109 1.44285 5.27793 1.61835 5.19353 1.80725H5.19219L4.95506 2.33375L4.14857 4.12225L4.14455 4.12493L3.40637 5.77141L3.06073 6.53638L2.77806 7.16604V7.17006C2.65748 7.43398 2.5972 7.71665 2.5972 8.00067C2.5972 8.28469 2.65748 8.56736 2.77672 8.83128L2.78073 8.842L3.06073 9.46362L3.39298 10.2005L2.84102 9.95261L2.31452 9.71548L2.28371 9.70075C2.09749 9.61635 1.93003 9.50381 1.78668 9.36582C1.46783 9.06707 1.26152 8.65846 1.20927 8.2177C1.19855 8.14268 1.19453 8.06632 1.19453 7.98995C1.19453 7.90823 1.19989 7.82919 1.21061 7.75015C1.26554 7.31742 1.46783 6.92087 1.77998 6.62212C1.93271 6.4761 2.11357 6.35418 2.31452 6.26308L2.56638 6.14921L3.30724 4.50004L2.33863 4.9341L1.82285 5.16587L1.78266 5.18329C1.60046 5.27037 1.42898 5.37218 1.26956 5.48874C0.670712 5.92146 0.250047 6.55514 0.0799058 7.2692C0.0490928 7.39379 0.0276577 7.52106 0.012921 7.64967V7.65235C0.00756221 7.76756 0.00488281 7.88412 0.00488281 8.00067C0.00488281 8.10785 0.00756221 8.21502 0.0115813 8.32086C0.0115813 8.32354 0.0115813 8.32622 0.0115813 8.33024C0.0249783 8.45751 0.0464134 8.58344 0.0758867 8.70669C0.246028 9.42745 0.670712 10.0625 1.27492 10.4965C1.43032 10.6104 1.59912 10.7095 1.77864 10.7926L1.80678 10.8047L2.34533 11.0471L4.13651 11.855H4.13785L4.13919 11.8603L5.79237 12.6012L5.89687 12.6494L6.63236 12.979L7.16288 13.2175C7.4268 13.3367 7.71082 13.397 7.99484 13.397C8.27885 13.397 8.56019 13.3367 8.82411 13.2188L8.83215 13.2148L9.45644 12.9334L10.2214 12.5891L9.96419 13.1625L9.72974 13.681C9.63998 13.8819 9.51807 14.0601 9.3707 14.2128C9.02104 14.5826 8.53071 14.801 8.00421 14.801C7.47771 14.801 6.97667 14.5813 6.62834 14.2075C6.50107 14.0749 6.3939 13.9235 6.31218 13.7547L6.27868 13.681L6.17151 13.4425L4.51832 12.7003L4.94569 13.6475L5.18147 14.1713C5.18549 14.1794 5.18817 14.1874 5.19219 14.1941C5.27659 14.3816 5.37975 14.5558 5.4963 14.7179C5.93036 15.3221 6.56538 15.7455 7.28614 15.9156C7.5179 15.9719 7.75905 16 8.00421 16C8.03503 16 8.06584 16 8.09531 15.9987C8.30966 15.992 8.52 15.9638 8.72363 15.9143C9.43769 15.7441 10.0714 15.3235 10.5054 14.7246C10.626 14.5612 10.7305 14.383 10.8162 14.1941C10.8203 14.1874 10.8229 14.1794 10.827 14.1713L11.0587 13.6555L11.478 12.7191L11.8692 11.8469L12.6114 10.1924L12.9437 9.4529L13.2156 8.84602L13.225 8.82726C13.4595 8.30076 13.4608 7.70058 13.225 7.17542L13.2183 7.15934L12.9437 6.54844L12.5994 5.77945L13.1741 6.03801L13.6738 6.26308C13.8761 6.35418 14.057 6.47744 14.211 6.62748C14.5781 6.97714 14.7938 7.46613 14.7938 7.98995C14.7938 8.51377 14.5754 9.01214 14.2057 9.3618C14.065 9.49711 13.9016 9.61099 13.718 9.69405C13.7033 9.70209 13.6885 9.70878 13.6738 9.71548L13.4487 9.8173L12.7092 11.4678L13.6591 11.0404L14.1641 10.8127L14.207 10.7926C14.3879 10.7082 14.5567 10.6091 14.7134 10.4952C15.3163 10.0611 15.7396 9.42611 15.9098 8.70669C15.9647 8.47492 15.9928 8.23512 15.9928 7.98995C15.9928 7.74479 15.9634 7.5023 15.9071 7.2692H15.9084ZM12.1318 8.35435L10.969 10.9333L8.34852 12.1149L7.99484 12.2743L7.63982 12.1149L5.0475 10.9467L3.87929 8.35435L3.71986 8.00067L3.87929 7.64565L5.05956 5.02654H5.0609L7.65187 3.85699L7.99484 3.70292L8.33512 3.85565L8.34182 3.85967L10.8913 5.00779L10.9556 5.03726L12.1305 7.64565L12.2899 8.00067L12.1305 8.35435H12.1318Z" fill="#00C1CC"/>
</svg>
