<svg width="40" height="40" viewBox="0 0 40 40" fill="none" xmlns="http://www.w3.org/2000/svg">
<path d="M21.9612 18.029L19.9885 14.4453L18.0191 18.029L14.4287 20.0017L18.0191 21.9711L19.9885 25.5547L21.9612 21.9711L25.5448 20.0017L21.9612 18.029ZM21.9612 18.029L19.9885 14.4453L18.0191 18.029L14.4287 20.0017L18.0191 21.9711L19.9885 25.5547L21.9612 21.9711L25.5448 20.0017L21.9612 18.029ZM21.9612 18.029L19.9885 14.4453L18.0191 18.029L14.4287 20.0017L18.0191 21.9711L19.9885 25.5547L21.9612 21.9711L25.5448 20.0017L21.9612 18.029Z" fill="white"/>
<path d="M39.7589 18.173C39.3335 16.3912 38.2852 14.8103 36.7914 13.7252C36.3862 13.4238 35.9441 13.1659 35.4752 12.9515C35.4517 12.9381 35.4249 12.9247 35.4015 12.9147L34.1589 12.3587L29.6441 10.3324H29.6408V10.3257L25.5246 8.48363L23.6055 7.62288L23.3777 7.51905L22.0883 6.94298L22.0414 6.92288C20.7285 6.33342 19.2213 6.33342 17.9084 6.92288L17.8917 6.92958L16.3443 7.62288L14.4922 8.45349L15.1151 7.07025L15.6879 5.80089C15.9056 5.2985 16.207 4.8497 16.5721 4.46789C17.4496 3.5435 18.6888 3.00092 20.0017 3.00092C21.3146 3.00092 22.5304 3.5368 23.4079 4.45449C23.7796 4.83965 24.0877 5.2918 24.3155 5.80089L24.5767 6.38031L28.6997 8.22909L27.6179 5.81428H27.6145L27.0351 4.51813H27.0317C26.814 4.03919 26.5528 3.59039 26.2514 3.17843C25.1629 1.68467 23.5787 0.639705 21.8002 0.214351C21.2911 0.0904295 20.7653 0.0200955 20.2294 0.00334924C20.1557 0 20.0787 0 20.0017 0C19.3888 0 18.7859 0.0703341 18.2065 0.211002C16.4079 0.633007 14.8204 1.69137 13.7386 3.19853C13.4405 3.60713 13.1826 4.04588 12.9716 4.51813H12.9683L12.3755 5.83438L10.3592 10.3056L10.3492 10.3123L8.50373 14.4285L7.63962 16.341L6.93293 17.9151V17.9251C6.6315 18.5849 6.48078 19.2916 6.48078 20.0017C6.48078 20.7117 6.6315 21.4184 6.92958 22.0782L6.93963 22.105L7.63962 23.659L8.47023 25.5011L7.09035 24.8815L5.77409 24.2887L5.69706 24.2519C5.23152 24.0409 4.81286 23.7595 4.45449 23.4146C3.65737 22.6677 3.14159 21.6462 3.01097 20.5443C2.98417 20.3567 2.97413 20.1658 2.97413 19.9749C2.97413 19.7706 2.98752 19.573 3.01432 19.3754C3.15164 18.2936 3.65737 17.3022 4.43775 16.5553C4.81956 16.1902 5.27171 15.8855 5.77409 15.6577L6.40375 15.373L8.25588 11.2501L5.83438 12.3353L4.54492 12.9147L4.44444 12.9582C3.98895 13.1759 3.56024 13.4305 3.16168 13.7218C1.66457 14.8037 0.612911 16.3878 0.187558 18.173C0.110525 18.4845 0.0569371 18.8026 0.0200955 19.1242V19.1309C0.00669848 19.4189 0 19.7103 0 20.0017C0 20.2696 0.00669848 20.5376 0.0167462 20.8021C0.0167462 20.8088 0.0167462 20.8155 0.0167462 20.8256C0.0502386 21.1438 0.103827 21.4586 0.17751 21.7667C0.602864 23.5686 1.66457 25.1562 3.17508 26.2413C3.56359 26.526 3.9856 26.7738 4.4344 26.9815L4.50473 27.0116L5.85113 27.6179L10.3291 29.6374H10.3324L10.3358 29.6508L14.4687 31.503L14.73 31.6235L16.5687 32.4475L17.895 33.0436C18.5548 33.3417 19.2648 33.4924 19.9749 33.4924C20.6849 33.4924 21.3883 33.3417 22.0481 33.047L22.0682 33.0369L23.6289 32.3336L25.5413 31.4728L24.8983 32.9063L24.3121 34.2025C24.0877 34.7048 23.783 35.1503 23.4146 35.5321C22.5404 36.4565 21.3146 37.0024 19.9983 37.0024C18.6821 37.0024 17.4295 36.4532 16.5587 35.5187C16.2405 35.1871 15.9725 34.8087 15.7682 34.3867L15.6845 34.2025L15.4166 33.6063L11.2836 31.7508L12.352 34.1187L12.9415 35.4283C12.9515 35.4484 12.9582 35.4685 12.9683 35.4852C13.1793 35.9541 13.4372 36.3895 13.7285 36.7948C14.8137 38.3053 16.4012 39.3636 18.2031 39.789C18.7825 39.9297 19.3854 40 19.9983 40C20.0754 40 20.1524 40 20.2261 39.9967C20.762 39.9799 21.2878 39.9096 21.7969 39.7856C23.582 39.3603 25.1662 38.3086 26.2514 36.8115C26.5528 36.4029 26.814 35.9575 27.0284 35.4852C27.0384 35.4685 27.0451 35.4484 27.0552 35.4283L27.6346 34.1388L28.6829 31.7977L29.6609 29.6173L31.5164 25.481L32.347 23.6323L33.0269 22.115L33.0503 22.0682C33.6364 20.7519 33.6398 19.2514 33.0503 17.9385L33.0336 17.8983L32.347 16.3711L31.4862 14.4486L32.9231 15.095L34.1723 15.6577C34.6781 15.8855 35.1302 16.1936 35.5154 16.5687C36.4331 17.4429 36.9723 18.6653 36.9723 19.9749C36.9723 21.2844 36.4264 22.5304 35.502 23.4045C35.1503 23.7428 34.7417 24.0275 34.2828 24.2351C34.246 24.2552 34.2092 24.272 34.1723 24.2887L33.6096 24.5432L31.7609 28.6695L34.1355 27.6011L35.3981 27.0317L35.5053 26.9815C35.9575 26.7705 36.3795 26.5226 36.7713 26.238C38.2785 25.1528 39.3368 23.5653 39.7622 21.7667C39.8995 21.1873 39.9699 20.5878 39.9699 19.9749C39.9699 19.362 39.8962 18.7558 39.7555 18.173H39.7589ZM30.3173 20.8859L27.4102 27.3332L20.8591 30.2872L19.9749 30.6858L19.0873 30.2872L12.6065 27.3667L9.68601 20.8859L9.28745 20.0017L9.68601 19.1141L12.6367 12.5664H12.64L19.1175 9.64247L19.9749 9.25731L20.8256 9.63912L20.8423 9.64917L27.2159 12.5195L27.3767 12.5932L30.314 19.1141L30.7125 20.0017L30.314 20.8859H30.3173Z" fill="white"/>
</svg>
