<svg width="24" height="25" viewBox="0 0 24 25" fill="none" xmlns="http://www.w3.org/2000/svg">
<path d="M18.1618 4.14383C18.1618 3.93663 18.0761 3.75675 17.9569 3.64362C17.8441 3.53657 17.7074 3.49126 17.5558 3.51761C15.5107 3.87436 14.3154 5.06132 13.6157 6.1822C13.2636 6.74627 13.0406 7.29015 12.9058 7.69246C12.8386 7.89293 12.7943 8.05674 12.7672 8.1667C12.7575 8.20642 12.7496 8.239 12.7442 8.26385V19.1925C13.7223 17.911 15.3169 16.6577 17.8348 16.3779C18.0558 16.3531 18.1618 16.1893 18.1618 16.0749V4.14383ZM19.6394 16.0749C19.6394 17.0475 18.8574 17.7512 17.9973 17.8468C15.7402 18.0978 14.4401 19.2828 13.6859 20.4123C13.3044 20.9836 13.0636 21.542 12.9183 21.9572C12.8459 22.164 12.7973 22.3328 12.7682 22.4468C12.7537 22.5037 12.7442 22.5468 12.7384 22.5738C12.7355 22.5871 12.7336 22.5965 12.7326 22.6017L12.7316 22.6026L12.7326 22.6036C12.6642 22.9797 12.3197 23.242 11.939 23.2077C11.5583 23.1733 11.2666 22.8541 11.2666 22.4718V8.18882C11.2666 8.14559 11.2706 8.10249 11.2781 8.05992L12.0054 8.18882C11.3078 8.06488 11.2793 8.05952 11.2781 8.05896V8.058L11.2791 8.05607C11.2793 8.05475 11.2788 8.05304 11.2791 8.05126C11.2798 8.0473 11.2818 8.04195 11.283 8.03587C11.2854 8.02341 11.2882 8.00576 11.2926 7.98489C11.3013 7.9432 11.3143 7.88481 11.332 7.8127C11.3676 7.66832 11.423 7.46647 11.5042 7.22399C11.6664 6.73967 11.9357 6.08407 12.3632 5.39918C13.2234 4.02143 14.7406 2.50899 17.3019 2.06218C18.6464 1.8278 19.6394 2.96474 19.6394 4.14383V16.0749Z" fill="#EBBC00"/>
<path d="M5.43695 4.99315C8.03882 4.98968 10.5525 5.93074 12.4928 7.63947C12.6518 7.7797 12.7429 7.98151 12.7429 8.19355V22.4765C12.7429 22.7668 12.5727 23.0304 12.3081 23.1499C12.0436 23.2693 11.7333 23.2224 11.5155 23.0306C9.84785 21.5622 7.68289 20.7496 5.43791 20.7527H5.43695C4.6784 20.7527 4.0732 20.7529 3.61694 20.7239C3.19593 20.6971 2.73937 20.6415 2.39142 20.4189C2.26914 20.3407 2.14721 20.2536 2.03069 20.1371C1.91417 20.0205 1.82706 19.8986 1.74884 19.7764C1.53757 19.4461 1.47408 19.0555 1.44486 18.6845C1.41485 18.303 1.41504 17.8132 1.41504 17.2195V9.08335C1.41504 8.40331 1.41306 7.80751 1.492 7.31337C1.57726 6.77979 1.76313 6.31253 2.15863 5.89546C2.93335 5.07852 3.80484 5.06345 4.85593 5.00758C5.04805 4.99737 5.24145 4.99317 5.43598 4.99315L5.43695 4.99219V4.99315ZM2.89259 17.2195C2.89259 17.8383 2.89324 18.2584 2.91761 18.5681C2.94272 18.8873 2.98737 18.9701 2.9936 18.9799L3.07536 19.0924C3.08418 19.1012 3.10615 19.1218 3.18791 19.1742C3.1983 19.1778 3.31437 19.224 3.71121 19.2492C4.10908 19.2745 4.65749 19.2752 5.43695 19.2752C7.51954 19.2724 9.54469 19.8763 11.2654 20.9932V8.53696C9.63419 7.2023 7.57259 6.46675 5.43791 6.46974H5.43695C5.26813 6.46974 5.10022 6.47436 4.93385 6.48321C3.77185 6.54498 3.53653 6.58923 3.23024 6.91223C3.08539 7.06508 3.00113 7.23434 2.95127 7.54616C2.8951 7.89771 2.89259 8.35703 2.89259 9.08335V17.2195Z" fill="#EBBC00"/>
<path d="M21.1168 17.2206V9.08441C21.1168 8.35809 21.1143 7.89877 21.0581 7.54722C21.0082 7.23539 20.924 7.06613 20.7791 6.91329C20.6364 6.76278 20.456 6.6642 20.1577 6.59681C19.8334 6.52359 19.4324 6.49925 18.861 6.46887C18.4537 6.4471 18.141 6.09899 18.1626 5.69162C18.1844 5.28429 18.5325 4.97159 18.9399 4.99325C19.4751 5.0217 20.0117 5.04944 20.4828 5.15582C20.9798 5.26804 21.453 5.47717 21.8507 5.89652C22.2462 6.31359 22.4321 6.78086 22.5174 7.31443C22.5963 7.80857 22.5943 8.40434 22.5943 9.08441V17.2206C22.5943 17.8143 22.5945 18.3041 22.5645 18.6856C22.5353 19.0566 22.4717 19.4472 22.2605 19.7774C22.1823 19.8995 22.0952 20.0216 21.9787 20.1381C21.8621 20.2547 21.7403 20.3417 21.6179 20.42C21.27 20.6426 20.8134 20.6981 20.3924 20.7249C19.9362 20.754 19.331 20.7538 18.5724 20.7538H18.5715C16.3264 20.7507 14.1615 21.5633 12.4939 23.0317C12.1878 23.3012 11.7208 23.2721 11.4511 22.9663C11.1816 22.6602 11.2107 22.1932 11.5165 21.9235C13.4568 20.2148 15.9705 19.2728 18.5724 19.2762L19.5786 19.2734C19.863 19.2701 20.1001 19.2629 20.2991 19.2503C20.6966 19.2249 20.8116 19.1786 20.8214 19.1752C20.9032 19.1229 20.9252 19.1023 20.934 19.0935C20.9429 19.0846 20.9635 19.0625 21.0158 18.9809L21.0465 18.8915C21.0616 18.8297 21.0792 18.729 21.0918 18.5692C21.1161 18.2595 21.1168 17.8394 21.1168 17.2206Z" fill="#EBBC00"/>
</svg>
