<svg width="25" height="25" viewBox="0 0 25 25" fill="none" xmlns="http://www.w3.org/2000/svg">
<path d="M19.2603 11.5316C19.2603 7.10527 15.6713 3.51661 11.2434 3.51661C6.81564 3.51673 3.22657 7.10534 3.22657 11.5316C3.2266 13.0215 3.63253 14.4145 4.33955 15.6083C4.66135 16.1516 4.93927 16.6419 5.12834 17.1715C5.32322 17.7175 5.41597 18.279 5.41597 18.977V22.4737C5.4158 22.8814 5.0849 23.2123 4.67719 23.2125C4.26928 23.2125 3.93858 22.8816 3.93842 22.4737V18.977C3.93842 18.4229 3.86656 18.0324 3.73641 17.6678C3.60035 17.2867 3.3916 16.9065 3.06882 16.3615C2.2304 14.946 1.74904 13.2938 1.74902 11.5316C1.74902 6.28895 5.99997 2.03918 11.2434 2.03906C16.487 2.03906 20.7379 6.28888 20.7379 11.5316C20.7379 12.1416 20.7408 12.3495 20.7542 12.4396C20.7895 12.6767 20.8991 12.8901 21.0909 13.2621L22.8455 16.6635C22.936 16.8391 22.952 17.0443 22.8907 17.2321C22.8293 17.4197 22.695 17.5747 22.5184 17.663L21.14 18.3527C20.9288 18.4583 20.8143 18.5157 20.7331 18.5663C20.6981 18.5881 20.6809 18.6023 20.6725 18.6096C20.6657 18.6154 20.6626 18.6179 20.6609 18.6201V18.6211C20.6587 18.6238 20.6485 18.636 20.6301 18.699C20.6054 18.7838 20.5824 18.8991 20.5407 19.1204V19.1213L20.533 19.1617C20.4447 19.6304 20.3441 20.1723 20.1886 20.6826C20.0335 21.1916 19.8075 21.7273 19.4373 22.1678C19.1739 22.4812 18.8473 22.7367 18.4792 22.9162C18.1382 23.0824 17.7842 23.15 17.3999 23.1817C17.0266 23.2125 16.5725 23.2125 16.0262 23.2125C15.5334 23.2125 14.9837 23.2243 14.4563 23.2115C12.7959 23.1711 11.5994 21.7782 11.5994 20.217C11.5995 19.8091 11.9302 19.4782 12.3381 19.4782C12.7461 19.4782 13.0768 19.8091 13.0769 20.217C13.0769 21.0474 13.7026 21.7147 14.4919 21.734C14.9979 21.7462 15.4855 21.7349 16.0262 21.7349C16.5966 21.7349 16.9801 21.7336 17.2787 21.709C17.5662 21.6853 17.7187 21.6429 17.8318 21.5878L17.9646 21.5146C18.0931 21.4344 18.2081 21.3339 18.3061 21.2174C18.4936 20.9943 18.6463 20.6726 18.7745 20.2516C18.9024 19.832 18.9902 19.3708 19.0814 18.8866L19.0891 18.8462L19.141 18.5711C19.1988 18.289 19.283 17.9944 19.4825 17.7303C19.7493 17.3772 20.1385 17.2017 20.4801 17.031L21.1881 16.6761L19.7778 13.9393C19.6185 13.6302 19.3716 13.1851 19.293 12.657C19.2588 12.4271 19.2603 12.0634 19.2603 11.5316Z" fill="#0091FF"/>
<path d="M10.1253 8.97698C10.1252 8.46912 9.86989 8.02268 9.48083 7.76012C8.91385 7.37756 8.22755 7.49923 7.73105 7.96212C7.24098 8.41909 7.06257 9.09235 7.43188 9.72153C7.55614 9.9331 7.56743 10.1927 7.4617 10.4141C7.35597 10.6355 7.14738 10.7904 6.90473 10.8268C6.40425 10.9019 6.14864 11.298 6.18424 11.7936C6.21965 12.2862 6.52573 12.6399 7.03845 12.6401C7.3403 12.6401 7.61007 12.4905 7.7753 12.2543C8.0092 11.9201 8.46932 11.8387 8.80362 12.0725C9.13791 12.3064 9.21921 12.7665 8.98543 13.1008C8.55721 13.713 7.84562 14.1176 7.03845 14.1176C5.57416 14.1174 4.78789 12.9753 4.71053 11.8994C4.65101 11.0704 5.00321 10.1405 5.83024 9.65996C5.57418 8.58507 6.00929 7.54633 6.72293 6.8809C7.43847 6.21377 8.51624 5.84604 9.56644 6.17579C10.2613 5.17639 11.4589 4.84894 12.4965 5.04742C13.5238 5.24399 14.5052 5.97628 14.7956 7.14254C15.4875 7.16942 16.0536 7.45839 16.4424 7.91306C16.8372 8.37487 17.0167 8.96491 17.0167 9.52721C17.0167 10.0897 16.8374 10.6804 16.4424 11.1423C16.1673 11.4641 15.8024 11.7002 15.3679 11.8224C15.2799 12.303 15.0924 12.7681 14.7869 13.1576C14.3311 13.7389 13.6417 14.1176 12.7774 14.1176C12.3829 14.1176 12.1157 14.2751 11.9299 14.512C11.7295 14.7677 11.6029 15.1484 11.6029 15.5798C11.6029 15.9878 11.2721 16.3186 10.8641 16.3186C10.4563 16.3184 10.1253 15.9877 10.1253 15.5798C10.1253 14.8825 10.3268 14.1626 10.7679 13.6001C11.2238 13.019 11.9132 12.6401 12.7774 12.6401C13.1718 12.64 13.4382 12.4825 13.6239 12.2457C13.7261 12.1154 13.8086 11.9528 13.8654 11.7676C13.5817 11.6621 13.3229 11.5054 13.1026 11.3068C12.7995 11.0337 12.7755 10.5662 13.0487 10.2631C13.3219 9.9603 13.7884 9.9362 14.0914 10.2092C14.2515 10.3535 14.4602 10.4391 14.6898 10.4391C15.0084 10.4391 15.199 10.3237 15.3199 10.1823C15.4541 10.0253 15.5392 9.78992 15.5392 9.52721C15.5391 9.26473 15.4539 9.03005 15.3199 8.87309C15.199 8.73172 15.0084 8.61529 14.6898 8.61529C14.5836 8.61532 14.4833 8.63416 14.3906 8.66723C14.1592 8.74992 13.9016 8.71192 13.7038 8.56623C13.506 8.42056 13.3935 8.18637 13.4037 7.94096C13.437 7.14677 12.9076 6.62984 12.2195 6.49804C11.6796 6.39473 11.1469 6.54859 10.817 6.97324C11.3042 7.49827 11.6028 8.20276 11.6029 8.97698C11.6029 9.38499 11.2721 9.71575 10.8641 9.71575C10.4563 9.71555 10.1253 9.38486 10.1253 8.97698Z" fill="#0091FF"/>
</svg>
