<svg width="48" height="48" viewBox="0 0 48 48" fill="none" xmlns="http://www.w3.org/2000/svg">
<path d="M31.8851 44.5V36.6148H38.1933C39.0298 36.6148 39.8321 36.2825 40.4236 35.691C41.0151 35.0994 41.3474 34.2972 41.3474 33.4607V20.8443C41.3468 17.7613 40.5246 14.7341 38.9654 12.0744C37.4062 9.41464 35.1664 7.2185 32.4765 5.71202C29.7866 4.20553 26.7438 3.44314 23.6613 3.5033C20.5789 3.56347 17.5681 4.44404 14.939 6.05435C12.31 7.66466 10.1575 9.94653 8.70333 12.6651C7.24913 15.3836 6.54569 18.4406 6.66544 21.5213C6.78518 24.602 7.72378 27.5951 9.38461 30.1926C11.0454 32.7901 13.3685 34.898 16.1146 36.2994V44.5" stroke="#3BF5FF" stroke-width="3" stroke-linecap="round" stroke-linejoin="round"/>
<path d="M19.2676 12.3632C17.1949 13.5619 15.6071 15.4483 14.7798 17.6951C13.9525 19.942 13.9378 22.4076 14.7383 24.6642C15.1168 25.7208 16.2523 26.2507 17.3373 25.9637C22.8159 24.5128 28.3924 20.5859 31.783 17.5265C32.6819 16.7159 32.8649 15.3596 32.0669 14.4512C30.5011 12.6811 28.3718 11.5064 26.0394 11.1259C23.707 10.7454 21.3147 11.1825 19.2676 12.3632Z" stroke="#3BF5FF" stroke-width="3" stroke-linecap="round" stroke-linejoin="round"/>
</svg>
