<svg width="16" height="16" viewBox="0 0 16 16" fill="none" xmlns="http://www.w3.org/2000/svg">
<path d="M4.76923 11.2308L5.96923 10.0308M5.69231 8H4.30769M11.2308 4.76923L10.0308 5.96923M10.3077 8H11.6923M7.53846 7.53846H10.3077M12.2426 12.2426C11.1174 13.3679 9.5913 14 8 14C6.4087 14 4.88258 13.3679 3.75736 12.2426C2.63214 11.1174 2 9.5913 2 8C2 6.4087 2.63214 4.88258 3.75736 3.75736M12.2426 12.2426C13.3679 11.1174 14 9.5913 14 8C14 6.4087 13.3679 4.88258 12.2426 3.75736C11.1174 2.63214 9.5913 2 8 2C6.4087 2 4.88258 2.63214 3.75736 3.75736M12.2426 12.2426L3.75736 3.75736" stroke="white" stroke-linecap="round" stroke-linejoin="round"/>
<path d="M5.97202 5.97041C6.21724 5.51971 6.60568 5.16358 7.07593 4.95832C7.54618 4.75306 8.07143 4.71038 8.56865 4.83702C9.06588 4.96365 9.50671 5.25238 9.82149 5.65758C10.1363 6.06277 10.307 6.56132 10.3068 7.07441V8.92057C10.307 9.30623 10.2105 9.6858 10.0262 10.0246M5.69141 7.99749V8.92057C5.6914 9.27656 5.77376 9.62772 5.93204 9.94659C6.09031 10.2655 6.32021 10.5434 6.60375 10.7586C6.88729 10.9739 7.21679 11.1206 7.56647 11.1874C7.91614 11.2541 8.27652 11.239 8.61941 11.1433" stroke="white" stroke-linecap="round" stroke-linejoin="round"/>
</svg>
