<svg width="48" height="48" viewBox="0 0 48 48" fill="none" xmlns="http://www.w3.org/2000/svg">
<g clip-path="url(#clip0_4518_56033)">
<path d="M23.997 12V9H28.497C28.8948 9 29.2764 8.84196 29.5577 8.56066C29.839 8.27936 29.997 7.89782 29.997 7.5V4.5C29.997 4.10218 29.839 3.72064 29.5577 3.43934C29.2764 3.15804 28.8948 3 28.497 3H22.497C22.0992 3 21.7176 3.15804 21.4363 3.43934C21.155 3.72064 20.997 4.10218 20.997 4.5V12C20.997 12.126 21.013 12.248 21.045 12.366C19.4315 12.7753 17.9208 13.5159 16.609 14.5406C15.2971 15.5652 14.2128 16.8516 13.425 18.318C14.439 18.546 15.402 18.878 16.314 19.314C17.3355 17.6373 18.8772 16.3406 20.7042 15.6216C22.5312 14.9026 24.5431 14.8008 26.4334 15.3317C28.3236 15.8625 29.9884 16.9969 31.1739 18.5619C32.3595 20.1269 33.0008 22.0366 33 24V28.5C33 28.8978 33.158 29.2794 33.4393 29.5607C33.7206 29.842 34.1022 30 34.5 30H40.5C40.8978 30 41.2793 30.158 41.5607 30.4393C41.842 30.7206 42 31.1022 42 31.5V42H28.497V35.25C28.497 34.6533 28.2599 34.081 27.838 33.659C27.416 33.2371 26.8437 33 26.247 33H23.913C23.8001 34.0228 23.5706 35.0293 23.229 36H25.497V40.137L28.677 43.317C29.169 43.809 29.523 44.385 29.739 45H43.497C43.8948 45 44.2763 44.842 44.5577 44.5607C44.839 44.2794 44.997 43.8978 44.997 43.5V31.5C44.997 30.3065 44.5229 29.1619 43.679 28.318C42.8351 27.4741 41.6905 27 40.497 27H35.997V24C35.997 20.8174 34.7327 17.7652 32.4823 15.5147C30.2318 13.2643 27.1796 12 23.997 12ZM35.997 34.5C35.997 34.1022 35.839 33.7206 35.5577 33.4393C35.2763 33.158 34.8948 33 34.497 33C34.0992 33 33.7176 33.158 33.4363 33.4393C33.155 33.7206 32.997 34.1022 32.997 34.5V37.5C32.997 37.8978 33.155 38.2794 33.4363 38.5607C33.7176 38.842 34.0992 39 34.497 39C34.8948 39 35.2763 38.842 35.5577 38.5607C35.839 38.2794 35.997 37.8978 35.997 37.5V34.5ZM28.497 21C28.8948 21 29.2764 21.158 29.5577 21.4393C29.839 21.7206 29.997 22.1022 29.997 22.5V25.5C29.997 25.8978 29.839 26.2794 29.5577 26.5607C29.2764 26.842 28.8948 27 28.497 27C28.0992 27 27.7176 26.842 27.4363 26.5607C27.155 26.2794 26.997 25.8978 26.997 25.5V22.5C26.997 22.1022 27.155 21.7206 27.4363 21.4393C27.7176 21.158 28.0992 21 28.497 21ZM10.497 42C12.855 42 15.033 41.22 16.785 39.909L24.435 47.559C24.5743 47.6985 24.7396 47.8091 24.9217 47.8847C25.1037 47.9602 25.2988 47.9992 25.4959 47.9993C25.693 47.9995 25.8882 47.9608 26.0704 47.8855C26.2525 47.8102 26.418 47.6998 26.5575 47.5605C26.697 47.4212 26.8076 47.2559 26.8832 47.0738C26.9587 46.8918 26.9977 46.6967 26.9978 46.4996C26.998 46.3025 26.9593 46.1073 26.884 45.9251C26.8087 45.743 26.6983 45.5775 26.559 45.438L18.909 37.788C20.325 35.8943 21.0604 33.5781 20.9961 31.2145C20.9318 28.8508 20.0716 26.578 18.5547 24.7641C17.0378 22.9502 14.953 21.7014 12.638 21.22C10.323 20.7385 7.91323 21.0525 5.79891 22.1112C3.68459 23.1699 1.9895 24.9112 0.988104 27.0532C-0.0132885 29.1953 -0.262354 31.6126 0.281237 33.9139C0.824827 36.2151 2.12925 38.2655 3.98329 39.733C5.83733 41.2005 8.13244 41.9993 10.497 42ZM10.497 39C8.50787 39 6.60022 38.2098 5.19369 36.8033C3.78717 35.3968 2.997 33.4891 2.997 31.5C2.997 29.5109 3.78717 27.6032 5.19369 26.1967C6.60022 24.7902 8.50787 24 10.497 24C12.4861 24 14.3938 24.7902 15.8003 26.1967C17.2068 27.6032 17.997 29.5109 17.997 31.5C17.997 33.4891 17.2068 35.3968 15.8003 36.8033C14.3938 38.2098 12.4861 39 10.497 39Z" fill="#3BF5FF"/>
</g>
<defs>
<clipPath id="clip0_4518_56033">
<rect width="48" height="48" fill="white"/>
</clipPath>
</defs>
</svg>
