<svg width="85" height="84" viewBox="0 0 85 84" fill="none" xmlns="http://www.w3.org/2000/svg">
<path d="M15.9381 15.571V69.2037H24.8769V73.6731H11.4688V11.1016H74.0403V37.9179H69.5709V15.571H15.9381ZM73.5166 56.1447L78.5097 61.6267V69.2037H74.0403V63.3726L70.5137 59.4618C69.6757 59.9274 68.7795 60.1835 67.8251 60.23L65.1015 63.3377V69.2037H60.6321V61.6616L63.1462 58.7984C63.0298 58.7286 62.9367 58.6588 62.8668 58.5889C62.797 58.5191 62.7039 58.426 62.5875 58.3096L53.928 49.6152L47.2239 56.3542V73.6731H51.6933V78.1425H29.3463V73.6731H33.8157V53.5608C33.8157 52.6763 33.9787 51.8266 34.3046 51.0119C34.6305 50.1972 35.1193 49.4639 35.7711 48.8121L49.1793 35.4039C49.8078 34.7754 50.5294 34.2982 51.3442 33.9723C52.1589 33.6464 53.0202 33.4718 53.928 33.4486C54.8126 33.4486 55.6623 33.6115 56.477 33.9374C57.2917 34.2633 58.025 34.7521 58.6768 35.4039L72.085 48.8121C72.7135 49.4406 73.1907 50.1622 73.5166 50.977C73.8425 51.7917 74.017 52.653 74.0403 53.5608C74.0403 54.492 73.8657 55.3533 73.5166 56.1447ZM43.418 47.5202C44.8379 48.1952 45.8854 49.2428 46.5605 50.6627L55.4993 41.7239C55.9416 41.2816 56.1627 40.7579 56.1627 40.1526C56.1627 39.5474 55.9416 39.0237 55.4993 38.5814C55.057 38.1391 54.5333 37.9179 53.928 37.9179C53.3228 37.9179 52.799 38.1391 52.3568 38.5814L43.418 47.5202ZM38.2851 73.6731H42.7545V53.5608C42.7545 52.9556 42.5334 52.4319 42.0911 51.9896C41.6488 51.5473 41.1251 51.3261 40.5198 51.3261C39.9146 51.3261 39.3908 51.5473 38.9486 51.9896C38.5063 52.4319 38.2851 52.9556 38.2851 53.5608V73.6731ZM67.3362 55.7955C67.9415 55.7955 68.4652 55.5744 68.9075 55.1321C69.3498 54.6898 69.5709 54.1661 69.5709 53.5608C69.5709 52.9556 69.3498 52.4319 68.9075 51.9896L59.9687 43.0508C59.6428 43.7724 59.2238 44.3776 58.7117 44.8665C58.1996 45.3553 57.6525 45.8907 57.0706 46.4727L65.765 55.1321C66.2072 55.5744 66.731 55.7955 67.3362 55.7955Z" fill="#946800" stroke="#946800" stroke-width="1.57127" stroke-linejoin="round"/>
</svg>
