<svg width="24" height="24" viewBox="0 0 24 24" fill="none" xmlns="http://www.w3.org/2000/svg">
<path d="M11.9993 18.6667C11.9993 18.995 11.9347 19.3201 11.809 19.6234C11.6834 19.9267 11.4993 20.2023 11.2671 20.4344C11.035 20.6666 10.7594 20.8507 10.4561 20.9764C10.1527 21.102 9.82765 21.1667 9.49935 21.1667C8.83631 21.1667 8.20042 20.9033 7.73158 20.4344C7.26274 19.9656 6.99935 19.3297 6.99935 18.6667M11.9993 18.6667C11.9993 18.3384 11.9347 18.0133 11.809 17.71C11.6834 17.4066 11.4993 17.131 11.2671 16.8989C11.035 16.6668 10.7594 16.4826 10.4561 16.357C10.1527 16.2313 9.82765 16.1667 9.49935 16.1667M11.9993 18.6667H22.8327M9.49935 16.1667C8.83631 16.1667 8.20042 16.4301 7.73158 16.8989C7.26274 17.3677 6.99935 18.0036 6.99935 18.6667M9.49935 16.1667V2M6.99935 18.6667H1.16602M22.8327 18.6667L19.4993 15.3333M22.8327 18.6667L19.4993 22M9.49935 2L16.9993 6.16667L9.49935 10.3333V2Z" stroke="#3BF5FF" stroke-width="2" stroke-linecap="round" stroke-linejoin="round"/>
</svg>
