<svg width="20" height="20" viewBox="0 0 20 20" fill="none" xmlns="http://www.w3.org/2000/svg">
<path d="M14.558 4.55806C14.8021 4.31398 15.1977 4.31398 15.4418 4.55806C15.6859 4.80214 15.6859 5.19777 15.4418 5.44185L10.8829 9.99995L15.441 14.5581C15.6851 14.8021 15.6851 15.1978 15.441 15.4418C15.1969 15.6859 14.8013 15.6859 14.5572 15.4418L9.99911 10.8837L5.44264 15.441C5.19856 15.6851 4.80292 15.6851 4.55885 15.441C4.31477 15.197 4.31477 14.8013 4.55885 14.5572L9.11532 9.99995L4.55803 5.44266C4.31397 5.1986 4.31401 4.80295 4.55803 4.55887C4.80211 4.31479 5.19774 4.31479 5.44182 4.55887L9.99911 9.11616L14.558 4.55806Z" fill="#9D9FA0"/>
</svg>
