<svg width="48" height="48" viewBox="0 0 48 48" fill="none" xmlns="http://www.w3.org/2000/svg">
<path d="M39.7143 28.2857C42.0771 28.2857 44 26.3629 44 24C44 21.6371 42.0771 19.7143 39.7143 19.7143C38.8308 19.7169 37.9698 19.993 37.2495 20.5045C36.5292 21.0161 35.9849 21.7381 35.6914 22.5714H27.4486L37.8771 12.1429C38.4371 12.4086 39.0543 12.5714 39.7143 12.5714C42.0771 12.5714 44 10.6486 44 8.28571C44 5.92286 42.0771 4 39.7143 4C38.8308 4.00262 37.9698 4.27868 37.2495 4.79025C36.5292 5.30183 35.9849 6.02384 35.6914 6.85714H12.3086C12.0151 6.02384 11.4708 5.30183 10.7505 4.79025C10.0302 4.27868 9.16919 4.00262 8.28571 4C5.92286 4 4 5.92286 4 8.28571C4 10.6486 5.92286 12.5714 8.28571 12.5714C8.94571 12.5714 9.56286 12.41 10.1214 12.1429L20.55 22.5714H12.3071C12.0137 21.7384 11.4697 21.0165 10.7496 20.5049C10.0296 19.9934 9.16895 19.7172 8.28571 19.7143C5.92286 19.7143 4 21.6371 4 24C4 26.3629 5.92286 28.2857 8.28571 28.2857C9.16919 28.2831 10.0302 28.007 10.7505 27.4955C11.4708 26.9839 12.0151 26.2619 12.3086 25.4286H20.5514L10.1229 35.8571C9.54991 35.5796 8.92233 35.4332 8.28571 35.4286C5.92286 35.4286 4 37.3514 4 39.7143C4 42.0771 5.92286 44 8.28571 44C9.16919 43.9974 10.0302 43.7213 10.7505 43.2097C11.4708 42.6982 12.0151 41.9762 12.3086 41.1429H35.6914C35.9849 41.9762 36.5292 42.6982 37.2495 43.2097C37.9698 43.7213 38.8308 43.9974 39.7143 44C42.0771 44 44 42.0771 44 39.7143C44 37.3514 42.0771 35.4286 39.7143 35.4286C39.0543 35.4286 38.4371 35.5914 37.8786 35.8571L27.45 25.4286H35.6929C35.9863 26.2616 36.5303 26.9835 37.2504 27.4951C37.9704 28.0066 38.8311 28.2828 39.7143 28.2857ZM39.7143 22.5714C40.0932 22.5714 40.4565 22.7219 40.7244 22.9898C40.9923 23.2578 41.1429 23.6211 41.1429 24C41.1429 24.3789 40.9923 24.7422 40.7244 25.0102C40.4565 25.2781 40.0932 25.4286 39.7143 25.4286C39.3354 25.4286 38.972 25.2781 38.7041 25.0102C38.4362 24.7422 38.2857 24.3789 38.2857 24C38.2857 23.6211 38.4362 23.2578 38.7041 22.9898C38.972 22.7219 39.3354 22.5714 39.7143 22.5714ZM12.3086 9.71429H35.6914C35.74 9.85429 35.7957 9.99 35.8586 10.1214L24.0014 21.9786L12.1429 10.1214C12.2048 9.99 12.26 9.85429 12.3086 9.71429ZM39.7143 6.85714C40.0932 6.85714 40.4565 7.00765 40.7244 7.27556C40.9923 7.54347 41.1429 7.90683 41.1429 8.28571C41.1429 8.6646 40.9923 9.02796 40.7244 9.29587C40.4565 9.56378 40.0932 9.71429 39.7143 9.71429C39.3354 9.71429 38.972 9.56378 38.7041 9.29587C38.4362 9.02796 38.2857 8.6646 38.2857 8.28571C38.2857 7.90683 38.4362 7.54347 38.7041 7.27556C38.972 7.00765 39.3354 6.85714 39.7143 6.85714ZM6.85714 8.28571C6.85714 7.90683 7.00765 7.54347 7.27556 7.27556C7.54347 7.00765 7.90683 6.85714 8.28571 6.85714C8.6646 6.85714 9.02796 7.00765 9.29587 7.27556C9.56378 7.54347 9.71429 7.90683 9.71429 8.28571C9.71429 8.6646 9.56378 9.02796 9.29587 9.29587C9.02796 9.56378 8.6646 9.71429 8.28571 9.71429C7.90683 9.71429 7.54347 9.56378 7.27556 9.29587C7.00765 9.02796 6.85714 8.6646 6.85714 8.28571ZM8.28571 25.4286C7.90683 25.4286 7.54347 25.2781 7.27556 25.0102C7.00765 24.7422 6.85714 24.3789 6.85714 24C6.85714 23.6211 7.00765 23.2578 7.27556 22.9898C7.54347 22.7219 7.90683 22.5714 8.28571 22.5714C8.6646 22.5714 9.02796 22.7219 9.29587 22.9898C9.56378 23.2578 9.71429 23.6211 9.71429 24C9.71429 24.3789 9.56378 24.7422 9.29587 25.0102C9.02796 25.2781 8.6646 25.4286 8.28571 25.4286ZM35.6914 38.2857H12.3086C12.2599 38.1472 12.2041 38.0113 12.1414 37.8786L24 26.0214L35.8571 37.8786C35.795 38.0114 35.7397 38.1473 35.6914 38.2857ZM8.28571 41.1429C7.90683 41.1429 7.54347 40.9923 7.27556 40.7244C7.00765 40.4565 6.85714 40.0932 6.85714 39.7143C6.85714 39.3354 7.00765 38.972 7.27556 38.7041C7.54347 38.4362 7.90683 38.2857 8.28571 38.2857C8.6646 38.2857 9.02796 38.4362 9.29587 38.7041C9.56378 38.972 9.71429 39.3354 9.71429 39.7143C9.71429 40.0932 9.56378 40.4565 9.29587 40.7244C9.02796 40.9923 8.6646 41.1429 8.28571 41.1429ZM41.1429 39.7143C41.1429 40.0932 40.9923 40.4565 40.7244 40.7244C40.4565 40.9923 40.0932 41.1429 39.7143 41.1429C39.3354 41.1429 38.972 40.9923 38.7041 40.7244C38.4362 40.4565 38.2857 40.0932 38.2857 39.7143C38.2857 39.3354 38.4362 38.972 38.7041 38.7041C38.972 38.4362 39.3354 38.2857 39.7143 38.2857C40.0932 38.2857 40.4565 38.4362 40.7244 38.7041C40.9923 38.972 41.1429 39.3354 41.1429 39.7143Z" fill="#3BF5FF"/>
</svg>
