<svg width="24" height="24" viewBox="0 0 24 24" fill="none" xmlns="http://www.w3.org/2000/svg">
<path d="M7.425 9.47188L11.15 3.39688C11.25 3.23022 11.375 3.10922 11.525 3.03388C11.675 2.95855 11.8333 2.92122 12 2.92188C12.1667 2.92255 12.325 2.96022 12.475 3.03488C12.625 3.10955 12.75 3.23022 12.85 3.39688L16.575 9.47188C16.675 9.63855 16.725 9.81355 16.725 9.99688C16.725 10.1802 16.6833 10.3469 16.6 10.4969C16.5167 10.6469 16.4 10.7679 16.25 10.8599C16.1 10.9519 15.925 10.9976 15.725 10.9969H8.275C8.075 10.9969 7.9 10.9512 7.75 10.8599C7.6 10.7686 7.48333 10.6476 7.4 10.4969C7.31667 10.3462 7.275 10.1796 7.275 9.99688C7.275 9.81422 7.325 9.63922 7.425 9.47188ZM17.5 21.9969C16.25 21.9969 15.1877 21.5595 14.313 20.6849C13.4383 19.8102 13.0007 18.7476 13 17.4969C12.9993 16.2462 13.437 15.1839 14.313 14.3099C15.189 13.4359 16.2513 12.9982 17.5 12.9969C18.7487 12.9956 19.8113 13.4332 20.688 14.3099C21.5647 15.1866 22.002 16.2489 22 17.4969C21.998 18.7449 21.5607 19.8076 20.688 20.6849C19.8153 21.5622 18.7527 21.9995 17.5 21.9969ZM3 20.4969V14.4969C3 14.2135 3.096 13.9762 3.288 13.7849C3.48 13.5935 3.71733 13.4976 4 13.4969H10C10.2833 13.4969 10.521 13.5929 10.713 13.7849C10.905 13.9769 11.0007 14.2142 11 14.4969V20.4969C11 20.7802 10.904 21.0179 10.712 21.2099C10.52 21.4019 10.2827 21.4976 10 21.4969H4C3.71667 21.4969 3.47933 21.4009 3.288 21.2089C3.09667 21.0169 3.00067 20.7796 3 20.4969ZM17.5 19.9969C18.2 19.9969 18.7917 19.7552 19.275 19.2719C19.7583 18.7885 20 18.1969 20 17.4969C20 16.7969 19.7583 16.2052 19.275 15.7219C18.7917 15.2386 18.2 14.9969 17.5 14.9969C16.8 14.9969 16.2083 15.2386 15.725 15.7219C15.2417 16.2052 15 16.7969 15 17.4969C15 18.1969 15.2417 18.7885 15.725 19.2719C16.2083 19.7552 16.8 19.9969 17.5 19.9969ZM5 19.4969H9V15.4969H5V19.4969ZM10.05 8.99688H13.95L12 5.84688L10.05 8.99688Z" fill="#3BF5FF"/>
</svg>
