<svg width="48" height="48" viewBox="0 0 48 48" fill="none" xmlns="http://www.w3.org/2000/svg">
<path d="M22.215 11.1525C22.7384 12.0541 23 12.505 23 13C23 13.495 22.7384 13.9459 22.215 14.8475L19.7161 19.1525C19.1927 20.0542 18.931 20.505 18.5 20.7524C18.069 21 17.5456 21 16.4989 21H11.5011C10.4544 21 9.93102 21 9.5 20.7524C9.06898 20.505 8.80728 20.0542 8.28392 19.1525L5.78506 14.8475C5.26168 13.9459 5 13.495 5 13C5 12.505 5.26168 12.0541 5.78506 11.1525L8.28392 6.84752C8.80728 5.94586 9.06898 5.49504 9.5 5.24752C9.93102 5 10.4544 5 11.5011 5H16.4989C17.5456 5 18.069 5 18.5 5.24752C18.931 5.49504 19.1927 5.94586 19.7161 6.84752L22.215 11.1525Z" stroke="#3BF5FF" stroke-width="2.5" stroke-linecap="round" stroke-linejoin="round"/>
<path d="M42.215 23.1602C42.7384 24.062 43 24.5128 43 25.0078C43 25.5028 42.7384 25.9536 42.215 26.8554L39.716 31.1602C39.1928 32.062 38.931 32.5128 38.5 32.7602C38.069 33.0078 37.5456 33.0078 36.4988 33.0078H31.5012C30.4544 33.0078 29.931 33.0078 29.5 32.7602C29.069 32.5128 28.8072 32.062 28.284 31.1602L25.785 26.8554C25.2616 25.9536 25 25.5028 25 25.0078C25 24.5128 25.2616 24.062 25.785 23.1602L28.284 18.8553C28.8072 17.9537 29.069 17.5029 29.5 17.2553C29.931 17.0078 30.4544 17.0078 31.5012 17.0078H36.4988C37.5456 17.0078 38.069 17.0078 38.5 17.2553C38.931 17.5029 39.1928 17.9537 39.716 18.8553L42.215 23.1602Z" stroke="#3BF5FF" stroke-width="2.5" stroke-linecap="round" stroke-linejoin="round"/>
<path d="M22.215 33.1602C22.7384 34.062 23 34.5128 23 35.0078C23 35.5028 22.7384 35.9536 22.215 36.8554L19.7161 41.1602C19.1927 42.062 18.931 42.5128 18.5 42.7602C18.069 43.0078 17.5456 43.0078 16.4989 43.0078H11.5011C10.4544 43.0078 9.93102 43.0078 9.5 42.7602C9.06898 42.5128 8.80728 42.062 8.28392 41.1602L5.78506 36.8554C5.26168 35.9536 5 35.5028 5 35.0078C5 34.5128 5.26168 34.062 5.78506 33.1602L8.28392 28.8554C8.80728 27.9536 9.06898 27.5028 9.5 27.2554C9.93102 27.0078 10.4544 27.0078 11.5011 27.0078H16.4989C17.5456 27.0078 18.069 27.0078 18.5 27.2554C18.931 27.5028 19.1927 27.9536 19.7161 28.8554L22.215 33.1602Z" stroke="#3BF5FF" stroke-width="2.5" stroke-linecap="round" stroke-linejoin="round"/>
</svg>
