<svg width="56" height="56" viewBox="0 0 56 56" fill="none" xmlns="http://www.w3.org/2000/svg">
<path d="M47.834 24.5V45.5C47.834 46.5871 47.834 47.1308 47.6564 47.5596C47.4196 48.1313 46.9653 48.5856 46.3936 48.8224C45.9648 49 45.4211 49 44.334 49C43.2469 49 42.7032 49 42.2744 48.8224C41.7027 48.5856 41.2484 48.1313 41.0115 47.5596C40.834 47.1308 40.834 46.5871 40.834 45.5V24.5C40.834 23.4129 40.834 22.8692 41.0115 22.4404C41.2484 21.8687 41.7027 21.4144 42.2744 21.1776C42.7032 21 43.2469 21 44.334 21C45.4211 21 45.9648 21 46.3936 21.1776C46.9653 21.4144 47.4196 21.8687 47.6564 22.4404C47.834 22.8692 47.834 23.4129 47.834 24.5Z" stroke="#3BF5FF" stroke-width="2" stroke-linejoin="round"/>
<path d="M38.501 7H45.501V14" stroke="#3BF5FF" stroke-width="2" stroke-linecap="round" stroke-linejoin="round"/>
<path d="M44.3343 8.16406C44.3343 8.16406 35.001 19.8307 10.501 27.9974" stroke="#3BF5FF" stroke-width="2" stroke-linecap="round" stroke-linejoin="round"/>
<path d="M31.501 32.6641V45.4974C31.501 46.5845 31.501 47.1282 31.3234 47.557C31.0866 48.1287 30.6323 48.583 30.0606 48.8198C29.6317 48.9974 29.0881 48.9974 28.001 48.9974C26.9139 48.9974 26.3702 48.9974 25.9413 48.8198C25.3697 48.583 24.9154 48.1287 24.6785 47.557C24.501 47.1282 24.501 46.5845 24.501 45.4974V32.6641C24.501 31.577 24.501 31.0333 24.6785 30.6044C24.9154 30.0328 25.3697 29.5785 25.9413 29.3416C26.3702 29.1641 26.9139 29.1641 28.001 29.1641C29.0881 29.1641 29.6317 29.1641 30.0606 29.3416C30.6323 29.5785 31.0866 30.0328 31.3234 30.6044C31.501 31.0333 31.501 31.577 31.501 32.6641Z" stroke="#3BF5FF" stroke-width="2" stroke-linejoin="round"/>
<path d="M15.168 38.5V45.5C15.168 46.5871 15.168 47.1308 14.9904 47.5596C14.7535 48.1313 14.2993 48.5856 13.7276 48.8224C13.2988 49 12.7552 49 11.668 49C10.5808 49 10.0372 49 9.60838 48.8224C9.03665 48.5856 8.58239 48.1313 8.34558 47.5596C8.16797 47.1308 8.16797 46.5871 8.16797 45.5V38.5C8.16797 37.4129 8.16797 36.8692 8.34558 36.4404C8.58239 35.8687 9.03665 35.4144 9.60838 35.1776C10.0372 35 10.5808 35 11.668 35C12.7552 35 13.2988 35 13.7276 35.1776C14.2993 35.4144 14.7535 35.8687 14.9904 36.4404C15.168 36.8692 15.168 37.4129 15.168 38.5Z" stroke="#3BF5FF" stroke-width="2" stroke-linejoin="round"/>
</svg>
