<svg width="64" height="64" viewBox="0 0 64 64" fill="none" xmlns="http://www.w3.org/2000/svg">
<path d="M32.0131 28H32.0371M42.6677 28H42.6917M21.3584 28H21.3823" stroke="#3BF5FF" stroke-width="4" stroke-linecap="round" stroke-linejoin="round"/>
<path d="M8 28.4031C8 26.5532 8.0323 24.7474 8.09382 23.0038C8.29477 17.3075 8.39526 14.4593 10.7122 12.125C13.0291 9.79067 15.9577 9.66537 21.8149 9.41478C25.0284 9.27729 28.4502 9.20312 32 9.20312C35.5498 9.20312 38.9715 9.27729 42.1851 9.41478C48.0423 9.66537 50.971 9.79067 53.2878 12.125C55.6047 14.4593 55.7053 17.3075 55.9062 23.0038C55.9676 24.7474 56 26.5532 56 28.4031C56 30.253 55.9676 32.0588 55.9062 33.8024C55.7053 39.4988 55.6047 42.3469 53.2878 44.6814C50.971 47.0156 48.0423 47.1409 42.1849 47.3914C40.4235 47.4668 38.5995 47.5232 36.7263 47.5587C34.9477 47.5923 34.0582 47.6094 33.2768 47.907C32.4954 48.2046 31.838 48.7683 30.5228 49.8958L25.2921 54.3812C24.9746 54.6534 24.5701 54.8031 24.1518 54.8031C23.1843 54.8031 22.4 54.0188 22.4 53.0514V47.4157C22.2042 47.4078 22.0092 47.3998 21.8149 47.3914C15.9577 47.1409 13.0291 47.0156 10.7122 44.6811C8.39526 42.3469 8.29477 39.4988 8.09382 33.8024C8.0323 32.0588 8 30.253 8 28.4031Z" stroke="#3BF5FF" stroke-width="2" stroke-linecap="round" stroke-linejoin="round"/>
</svg>
