<svg width="48" height="48" viewBox="0 0 48 48" fill="none" xmlns="http://www.w3.org/2000/svg">
<mask id="mask0_4660_43766" style="mask-type:luminance" maskUnits="userSpaceOnUse" x="2" y="2" width="44" height="44">
<path d="M23.9922 44.0039C26.6191 44.0072 29.2208 43.4913 31.6477 42.486C34.0747 41.4807 36.279 40.0058 38.1342 38.1459C39.994 36.2907 41.469 34.0864 42.4743 31.6594C43.4796 29.2325 43.9954 26.6308 43.9922 24.0039C43.9954 21.377 43.4796 18.7753 42.4743 16.3484C41.469 13.9215 39.994 11.7171 38.1342 9.86192C36.279 8.00208 34.0747 6.52714 31.6477 5.52184C29.2208 4.51653 26.6191 4.00068 23.9922 4.00392C21.3653 4.00068 18.7636 4.51653 16.3367 5.52184C13.9098 6.52714 11.7054 8.00208 9.8502 9.86192C7.99036 11.7171 6.51542 13.9215 5.51012 16.3484C4.50481 18.7753 3.98896 21.377 3.9922 24.0039C3.98896 26.6308 4.50481 29.2325 5.51012 31.6594C6.51542 34.0864 7.99036 36.2907 9.8502 38.1459C11.7054 40.0058 13.9098 41.4807 16.3367 42.486C18.7636 43.4913 21.3653 44.0072 23.9922 44.0039Z" fill="#121314" stroke="white" stroke-width="2.5" stroke-linejoin="round"/>
<path d="M15.9922 24L21.9922 30L33.9922 18" fill="#121314"/>
<path d="M15.9922 24L21.9922 30L33.9922 18" stroke="white" stroke-width="2.5" stroke-linecap="round" stroke-linejoin="round"/>
</mask>
<g mask="url(#mask0_4660_43766)">
<path d="M0 0H48V48H0V0Z" fill="#92CEAC"/>
</g>
</svg>
