<svg width="24" height="24" viewBox="0 0 24 24" fill="none" xmlns="http://www.w3.org/2000/svg">
<path d="M1.25 12C1.25 6.06294 6.06294 1.25 12 1.25C13.9568 1.25 15.794 1.77338 17.376 2.68848C17.7342 2.89587 17.8564 3.3545 17.6494 3.71289C17.442 4.07144 16.9826 4.19471 16.624 3.9873C15.2642 3.20078 13.686 2.75 12 2.75C6.89136 2.75 2.75 6.89136 2.75 12C2.75 17.1086 6.89137 21.25 12 21.25C17.1086 21.25 21.25 17.1086 21.25 12C21.25 11.3656 21.1866 10.7467 21.0654 10.1494C20.9831 9.74361 21.2447 9.34719 21.6504 9.26465C22.0562 9.18231 22.4527 9.44479 22.5352 9.85059C22.6761 10.5455 22.75 11.2647 22.75 12C22.75 17.937 17.937 22.75 12 22.75C6.06293 22.75 1.25 17.937 1.25 12Z" fill="#92CEAC"/>
<path d="M21.7393 4.29699C22.1276 4.15299 22.5591 4.35107 22.7031 4.73937C22.8471 5.12769 22.649 5.55917 22.2607 5.70324C21.1578 6.11248 19.9682 6.95545 18.7822 8.04504C17.6047 9.1269 16.4728 10.4119 15.4834 11.6544C14.4954 12.8952 13.658 14.0816 13.0674 14.9581C12.7725 15.3958 12.5403 15.7557 12.3818 16.005C12.3026 16.1296 12.2417 16.2268 12.2012 16.2921C12.181 16.3246 12.1653 16.349 12.1553 16.3653C12.1503 16.3735 12.1469 16.38 12.1445 16.3839C12.1434 16.3858 12.1421 16.3869 12.1416 16.3878V16.3888C12.0038 16.6159 11.7559 16.7536 11.4902 16.7501C11.2246 16.7467 10.9804 16.6028 10.8486 16.3722C9.88686 14.6891 9.08043 13.909 8.57031 13.5519C8.31634 13.3741 8.13367 13.3001 8.03809 13.2696C7.98992 13.2543 7.96146 13.2491 7.95508 13.2482C7.95626 13.2483 7.95871 13.2489 7.96191 13.2491C7.96554 13.2494 7.97042 13.2499 7.97656 13.2501H7.99805C7.99814 13.2501 7.99893 13.2502 7.99902 13.2491C7.58526 13.2486 7.25 12.914 7.25 12.5001C7.25 12.0859 7.58579 11.7501 8 11.7501V12.3234C8.00013 11.7501 8.00116 11.7501 8.00195 11.7501H8.01465C8.01998 11.7502 8.02613 11.7509 8.03223 11.7511C8.04435 11.7515 8.05818 11.7519 8.07324 11.753C8.10355 11.7553 8.14008 11.7594 8.18164 11.7657C8.26502 11.7785 8.36974 11.8007 8.49316 11.84C8.74128 11.9189 9.05878 12.0638 9.42969 12.3234C10.0141 12.7325 10.7251 13.4241 11.5098 14.5919C11.6052 14.447 11.7104 14.2892 11.8242 14.1202C12.4303 13.2208 13.2913 12.0008 14.3105 10.7208C15.3284 9.44259 16.5132 8.09202 17.7676 6.93957C19.0135 5.79494 20.3717 4.80438 21.7393 4.29699Z" fill="#92CEAC"/>
</svg>
