<svg width="85" height="84" viewBox="0 0 85 84" fill="none" xmlns="http://www.w3.org/2000/svg">
<path d="M14.9375 42.0041C14.9375 28.8368 14.9375 22.2514 19.0298 18.1626C23.1221 14.0738 29.704 14.0703 42.8712 14.0703C56.0385 14.0703 62.6239 14.0703 66.7127 18.1626C70.8015 22.2549 70.805 28.8368 70.805 42.0041C70.805 55.1713 70.805 61.7567 66.7127 65.8455C62.6204 69.9343 56.0385 69.9378 42.8712 69.9378C29.704 69.9378 23.1186 69.9378 19.0298 65.8455C14.941 61.7532 14.9375 55.1713 14.9375 42.0041Z" stroke="#4074CD" stroke-width="6.28509" stroke-linejoin="round"/>
<path d="M27.968 56.9159C30.524 59.4719 34.6407 59.4719 42.8707 59.4719C45.6292 59.4719 47.9232 59.4719 49.8541 59.3741L60.2315 48.9967C60.3293 47.0658 60.3293 44.7717 60.3293 42.0133C60.3293 33.7833 60.3293 29.6666 57.7733 27.1106C55.2174 24.5547 51.1007 24.5547 42.8707 24.5547C34.6407 24.5547 30.524 24.5547 27.968 27.1106C25.4121 29.6666 25.4121 33.7833 25.4121 42.0133C25.4121 50.2433 25.4121 54.36 27.968 56.9159Z" stroke="#4074CD" stroke-width="6.28509" stroke-linejoin="round"/>
<path d="M28.9034 7.09375V14.0772M56.8372 7.09375V14.0772M42.8703 7.09375V14.0772M28.9034 69.9447V76.9281M42.8703 69.9447V76.9281M56.8372 69.9447V76.9281M77.7875 55.9778H70.804M14.9366 28.0441H7.95312M14.9366 55.9778H7.95312M14.9366 42.0109H7.95312M77.7875 28.0441H70.804M77.7875 42.0109H70.804" stroke="#4074CD" stroke-width="6.28509" stroke-linecap="round" stroke-linejoin="round"/>
</svg>
