<svg width="25" height="24" viewBox="0 0 25 24" fill="none" xmlns="http://www.w3.org/2000/svg">
<path d="M4.33398 12C4.33398 8.22876 4.33398 6.34315 5.50555 5.17157C6.67713 4 8.56274 4 12.334 4C16.1052 4 17.9909 4 19.1624 5.17157C20.334 6.34315 20.334 8.22876 20.334 12C20.334 15.7712 20.334 17.6569 19.1624 18.8284C17.9909 20 16.1052 20 12.334 20C8.56274 20 6.67713 20 5.50555 18.8284C4.33398 17.6569 4.33398 15.7712 4.33398 12Z" stroke="#DB3BFF" stroke-width="1.5" stroke-linejoin="round"/>
<path d="M8.06621 16.2678C8.79845 17 9.97696 17 12.334 17C13.1238 17 13.7813 17 14.334 16.9724L17.3064 14C17.334 13.4473 17.334 12.7898 17.334 12C17.334 9.64298 17.334 8.46447 16.6018 7.73223C15.8695 7 14.691 7 12.334 7C9.97696 7 8.79845 7 8.06621 7.73223C7.33398 8.46447 7.33398 9.64298 7.33398 12C7.33398 14.357 7.33398 15.5355 8.06621 16.2678Z" stroke="#DB3BFF" stroke-width="1.5" stroke-linejoin="round"/>
<path d="M8.33398 2V4M16.334 2V4M12.334 2V4M8.33398 20V22M12.334 20V22M16.334 20V22M22.334 16H20.334M4.33398 8H2.33398M4.33398 16H2.33398M4.33398 12H2.33398M22.334 8H20.334M22.334 12H20.334" stroke="#DB3BFF" stroke-width="1.5" stroke-linecap="round" stroke-linejoin="round"/>
</svg>
