<svg width="49" height="49" viewBox="0 0 49 49" fill="none" xmlns="http://www.w3.org/2000/svg">
<path d="M8.39453 24.3984C8.39453 16.8564 8.39453 13.0844 10.7385 10.7424C13.0825 8.40044 16.8525 8.39844 24.3945 8.39844C31.9365 8.39844 35.7085 8.39844 38.0505 10.7424C40.3925 13.0864 40.3945 16.8564 40.3945 24.3984C40.3945 31.9404 40.3945 35.7124 38.0505 38.0544C35.7065 40.3964 31.9365 40.3984 24.3945 40.3984C16.8525 40.3984 13.0805 40.3984 10.7385 38.0544C8.39653 35.7104 8.39453 31.9404 8.39453 24.3984Z" stroke="#3BF5FF" stroke-width="2.35294" stroke-linecap="round" stroke-linejoin="round"/>
<path d="M16.3984 4.39844V8.39844M32.3984 4.39844V8.39844M24.3984 4.39844V8.39844M16.3984 40.3984V44.3984M24.3984 40.3984V44.3984M32.3984 40.3984V44.3984M44.3984 32.3984H40.3984M8.39844 16.3984H4.39844M8.39844 32.3984H4.39844M8.39844 24.3984H4.39844M44.3984 16.3984H40.3984M44.3984 24.3984H40.3984M15.8624 32.9344C17.3264 34.3984 19.6844 34.3984 24.3984 34.3984C25.9784 34.3984 27.2924 34.3984 28.3984 34.3424L34.3424 28.3984C34.3984 27.2924 34.3984 25.9784 34.3984 24.3984C34.3984 19.6844 34.3984 17.3264 32.9344 15.8624C31.4704 14.3984 29.1124 14.3984 24.3984 14.3984C19.6844 14.3984 17.3264 14.3984 15.8624 15.8624C14.3984 17.3264 14.3984 19.6844 14.3984 24.3984C14.3984 29.1124 14.3984 31.4704 15.8624 32.9344Z" stroke="#3BF5FF" stroke-width="2.35294" stroke-linecap="round" stroke-linejoin="round"/>
</svg>
