<svg width="48" height="48" viewBox="0 0 48 48" fill="none" xmlns="http://www.w3.org/2000/svg">
<path d="M45.2703 29.9308L41.2367 25.8972C40.9846 25.6451 40.6426 25.5035 40.2861 25.5035C39.9296 25.5035 39.5877 25.6451 39.3355 25.8972L26.8407 38.392V44.3267H32.7755L45.2703 31.832C45.5224 31.5798 45.664 31.2379 45.664 30.8814C45.664 30.5248 45.5224 30.1829 45.2703 29.9308ZM35.3019 37.998L31.6622 41.6377H29.5298V39.5052L33.1695 35.8656L36.2525 32.7825L38.3849 34.915L35.3019 37.998ZM40.2861 33.0138L38.1537 30.8814L40.2861 28.7489L42.4185 30.8814L40.2861 33.0138ZM29.5298 29.5368V26.8478H24.1517V17.436H37.597V20.1251H40.2861V10.7133C40.2861 8.48944 38.4764 6.67969 36.2525 6.67969H9.36174C7.13787 6.67969 5.32812 8.48944 5.32812 10.7133V37.6041C5.32812 39.8279 7.13787 41.6377 9.36174 41.6377H24.1517V29.5368H29.5298ZM21.4626 26.8478H8.0172V17.436H21.4626V26.8478ZM9.36174 9.36876H36.2525C36.6091 9.36876 36.9511 9.51042 37.2032 9.76257C37.4554 10.0147 37.597 10.3567 37.597 10.7133V14.7469H8.0172V10.7133C8.0172 10.3567 8.15886 10.0147 8.41101 9.76257C8.66316 9.51042 9.00514 9.36876 9.36174 9.36876ZM21.4626 38.9486H9.36174C9.00514 38.9486 8.66316 38.8069 8.41101 38.5548C8.15886 38.3026 8.0172 37.9607 8.0172 37.6041V29.5368H21.4626V38.9486Z" fill="#3BF5FF"/>
</svg>
