<svg width="18" height="18" viewBox="0 0 18 18" fill="none" xmlns="http://www.w3.org/2000/svg">
<path d="M15.9375 9C15.9375 5.16852 12.8315 2.0625 9 2.0625C5.16852 2.0625 2.0625 5.16852 2.0625 9C2.0625 12.8315 5.16852 15.9375 9 15.9375C12.8315 15.9375 15.9375 12.8315 15.9375 9ZM17.0625 9C17.0625 13.4528 13.4528 17.0625 9 17.0625C4.5472 17.0625 0.9375 13.4528 0.9375 9C0.9375 4.5472 4.5472 0.9375 9 0.9375C13.4528 0.9375 17.0625 4.5472 17.0625 9Z" fill="#C3C5C6"/>
<path d="M11.6622 7.42511C11.9106 7.23877 12.2631 7.28884 12.4495 7.53717C12.6359 7.78562 12.5858 8.13808 12.3375 8.32452L9.33746 10.5745C9.13746 10.7245 8.86217 10.7245 8.66217 10.5745L5.66217 8.32452C5.41384 8.13808 5.36377 7.78562 5.55011 7.53717C5.73655 7.28884 6.08901 7.23877 6.33746 7.42511L8.99981 9.42169L11.6622 7.42511Z" fill="#C3C5C6"/>
</svg>
