<svg xmlns="http://www.w3.org/2000/svg" width="26" height="26" viewBox="0 0 26 26" fill="none">
  <path d="M23.0221 12.9974C23.0221 7.46304 18.5356 2.97656 13.0013 2.97656C7.46695 2.97656 2.98047 7.46304 2.98047 12.9974C2.98047 18.5317 7.46695 23.0182 13.0013 23.0182C18.5356 23.0182 23.0221 18.5317 23.0221 12.9974ZM24.6471 12.9974C24.6471 19.4292 19.4331 24.6432 13.0013 24.6432C6.56948 24.6432 1.35547 19.4292 1.35547 12.9974C1.35547 6.56558 6.56948 1.35156 13.0013 1.35156C19.4331 1.35156 24.6471 6.56557 24.6471 12.9974Z" fill="#3BF5FF"/>
  <path d="M12.1861 8.66406C12.1861 8.21533 12.5499 7.85156 12.9986 7.85156C13.4473 7.85158 13.8111 8.21534 13.8111 8.66406V15.3693L16.2158 12.9646C16.5331 12.6475 17.0474 12.6474 17.3647 12.9646C17.682 13.2819 17.6819 13.7962 17.3647 14.1135L13.573 17.9052C13.4207 18.0576 13.2141 18.1432 12.9986 18.1432C12.7831 18.1432 12.5765 18.0576 12.4241 17.9052L8.63245 14.1135C8.31526 13.7962 8.31519 13.2819 8.63245 12.9646C8.94973 12.6474 9.46411 12.6474 9.78138 12.9646L12.1861 15.3693V8.66406Z" fill="#3BF5FF"/>
</svg>