<svg width="26" height="26" viewBox="0 0 26 26" fill="none" xmlns="http://www.w3.org/2000/svg" version="1.1" xmlns:xlink="http://www.w3.org/1999/xlink" transform="matrix(6.123233995736766e-17,1,1,-6.123233995736766e-17,0,0)">
  <path d="M23.0212 12.9974C23.0212 7.46304 18.5346 2.97656 13.0003 2.97656C7.46597 2.97656 2.97949 7.46304 2.97949 12.9974C2.97949 18.5317 7.46597 23.0182 13.0003 23.0182C18.5346 23.0182 23.0212 18.5317 23.0212 12.9974ZM24.6462 12.9974C24.6462 19.4292 19.4321 24.6432 13.0003 24.6432C6.5685 24.6432 1.35449 19.4292 1.35449 12.9974C1.35449 6.56558 6.56851 1.35156 13.0003 1.35156C19.4321 1.35156 24.6462 6.56557 24.6462 12.9974Z" fill="#121314"></path>
  <path d="M12.9675 8.63637C13.2848 8.3191 13.7991 8.31915 14.1165 8.63637L17.9081 12.428C18.0605 12.5804 18.1462 12.787 18.1462 13.0025C18.1462 13.218 18.0605 13.4246 17.9081 13.577L14.1165 17.3686C13.7991 17.6858 13.2848 17.6859 12.9675 17.3686C12.6503 17.0514 12.6503 16.537 12.9675 16.2197L15.3722 13.815H8.66699C8.21826 13.815 7.85449 13.4512 7.85449 13.0025C7.85454 12.5538 8.21829 12.19 8.66699 12.19H15.3722L12.9675 9.7853C12.6503 9.46802 12.6503 8.95365 12.9675 8.63637Z" fill="#121314"></path>
</svg>