<svg width="40" height="40" viewBox="0 0 40 40" fill="none" xmlns="http://www.w3.org/2000/svg">
<path d="M35.4154 20.0026C35.4154 11.4882 28.513 4.58594 19.9987 4.58594C11.4843 4.58594 4.58203 11.4882 4.58203 20.0026C4.58203 28.5169 11.4843 35.4193 19.9987 35.4193C28.513 35.4193 35.4154 28.5169 35.4154 20.0026ZM37.9154 20.0026C37.9154 29.8976 29.8937 37.9193 19.9987 37.9193C10.1036 37.9193 2.08203 29.8976 2.08203 20.0026C2.08203 10.1075 10.1036 2.08594 19.9987 2.08594C29.8937 2.08594 37.9154 10.1075 37.9154 20.0026Z" fill="#3BF5FF"/>
<path d="M19.9482 13.2801C20.4364 12.792 21.2277 12.7921 21.7158 13.2801L27.5492 19.1135C27.7836 19.3479 27.9154 19.6657 27.9154 19.9972C27.9154 20.3287 27.7836 20.6466 27.5492 20.881L21.7158 26.7144C21.2277 27.2024 20.4363 27.2025 19.9482 26.7144C19.4602 26.2262 19.4603 25.4349 19.9482 24.9468L23.6478 21.2472H13.332C12.6417 21.2472 12.082 20.6876 12.082 19.9972C12.0821 19.3069 12.6417 18.7472 13.332 18.7472H23.6478L19.9482 15.0477C19.4603 14.5596 19.4603 13.7682 19.9482 13.2801Z" fill="#3BF5FF"/>
</svg>
