<svg width="38" height="38" viewBox="0 0 38 38" fill="none" xmlns="http://www.w3.org/2000/svg">
<mask id="mask0_3957_90819" style="mask-type:luminance" maskUnits="userSpaceOnUse" x="2" y="2" width="34" height="34">
<path d="M19.0013 34.8307C21.081 34.8333 23.1406 34.4249 25.0619 33.6291C26.9833 32.8332 28.7284 31.6655 30.1971 30.1932C31.6694 28.7245 32.8371 26.9793 33.633 25.058C34.4288 23.1367 34.8372 21.077 34.8346 18.9974C34.8372 16.9178 34.4288 14.8581 33.633 12.9368C32.8371 11.0155 31.6694 9.27034 30.1971 7.80166C28.7284 6.32929 26.9833 5.16162 25.0619 4.36576C23.1406 3.56989 21.081 3.16151 19.0013 3.16407C16.9217 3.16151 14.862 3.56989 12.9407 4.36576C11.0194 5.16162 9.27424 6.32929 7.80556 7.80166C6.33319 9.27034 5.16553 11.0155 4.36966 12.9368C3.5738 14.8581 3.16542 16.9178 3.16798 18.9974C3.16542 21.077 3.5738 23.1367 4.36966 25.058C5.16553 26.9793 6.33319 28.7245 7.80556 30.1932C9.27424 31.6655 11.0194 32.8332 12.9407 33.6291C14.862 34.4249 16.9217 34.8333 19.0013 34.8307Z" fill="#121314" stroke="white" stroke-width="1.72727" stroke-linejoin="round"/>
<path d="M12.668 19L17.418 23.75L26.918 14.25" fill="#121314"/>
<path d="M12.668 19L17.418 23.75L26.918 14.25" stroke="white" stroke-width="1.72727" stroke-linecap="round" stroke-linejoin="round"/>
</mask>
<g mask="url(#mask0_3957_90819)">
<path d="M37.6045 0.395508V37.6045H0.395508V0.395508H37.6045Z" fill="#3BF5FF" stroke="#3BF5FF" stroke-width="0.791667"/>
</g>
</svg>
