<svg width="32" height="32" viewBox="0 0 32 32" fill="none" xmlns="http://www.w3.org/2000/svg">
<path d="M15.9989 1.66406C17.1535 1.66406 18.1863 2.0329 19.3006 2.6582C20.3919 3.2706 21.6442 4.17843 23.2235 5.32031L25.1434 6.70801C26.4119 7.6252 27.4237 8.35531 28.1844 9.03027C28.961 9.71936 29.5424 10.4065 29.911 11.2705C30.2803 12.1365 30.3697 13.0245 30.3202 14.0479C30.2718 15.0474 30.0846 16.2565 29.8524 17.7676L29.451 20.3789C29.1214 22.5234 28.8612 24.2283 28.4774 25.5527C28.0849 26.9071 27.532 27.9828 26.5438 28.8047C25.5596 29.6231 24.387 29.9872 22.9549 30.1611C21.5478 30.332 19.7689 30.3311 17.5174 30.3311H14.4803C12.229 30.3311 10.4499 30.332 9.04281 30.1611C7.61083 29.9872 6.43806 29.6232 5.45394 28.8047C4.46576 27.9827 3.91285 26.9071 3.52035 25.5527C3.13657 24.2283 2.87725 22.5234 2.54769 20.3789L2.14633 17.7676C1.91412 16.2565 1.72695 15.0474 1.67855 14.0479C1.62903 13.0245 1.71837 12.1365 2.08773 11.2705C2.45633 10.4065 3.03769 9.71932 3.8143 9.03027C4.57501 8.35538 5.58595 7.62509 6.85433 6.70801L8.77426 5.32031C10.3536 4.1784 11.6058 3.27063 12.6971 2.6582C13.8115 2.03284 14.8442 1.66413 15.9989 1.66406ZM15.9989 3.66406C15.3097 3.66413 14.621 3.87246 13.6766 4.40234C12.7087 4.94547 11.5631 5.77226 9.94613 6.94141L8.02621 8.3291C6.72557 9.26951 5.81013 9.9331 5.14144 10.5264C4.48867 11.1055 4.13806 11.5622 3.92758 12.0557C3.71792 12.5472 3.63463 13.1039 3.67562 13.9512C3.71781 14.8225 3.8844 15.9119 4.12289 17.4639L4.52426 20.0752C4.86195 22.2727 5.1021 23.8257 5.44125 24.9961C5.77162 26.1361 6.16448 26.7935 6.73324 27.2666C7.30616 27.7431 8.05062 28.0259 9.28402 28.1758C10.5426 28.3287 12.1789 28.3311 14.4803 28.3311H17.5174C19.8189 28.3311 21.4551 28.3286 22.7137 28.1758C23.9474 28.0259 24.6925 27.7432 25.2655 27.2666C25.8341 26.7935 26.2262 26.1358 26.5565 24.9961C26.8956 23.8257 27.1367 22.2727 27.4745 20.0752L27.8758 17.4639C28.1143 15.9119 28.2799 14.8225 28.3221 13.9512C28.3631 13.104 28.2808 12.5472 28.0711 12.0557C27.8606 11.5622 27.51 11.1055 26.8573 10.5264C26.1885 9.93303 25.2724 9.26968 23.9715 8.3291L22.0516 6.94141C20.4346 5.77229 19.2899 4.94546 18.3221 4.40234C17.3775 3.87227 16.6882 3.66406 15.9989 3.66406Z" fill="#12A594"/>
<path d="M15 21.3359V18.3359H12C11.4477 18.3359 11 17.8882 11 17.3359C11 16.7837 11.4477 16.3359 12 16.3359H15V13.3359C15 12.7837 15.4477 12.3359 16 12.3359C16.5523 12.3359 17 12.7837 17 13.3359V16.3359H20C20.5523 16.3359 21 16.7837 21 17.3359C21 17.8882 20.5523 18.3359 20 18.3359H17V21.3359C17 21.8882 16.5523 22.3359 16 22.3359C15.4477 22.3359 15 21.8882 15 21.3359Z" fill="#12A594"/>
</svg>
