<svg width="16" height="16" viewBox="0 0 16 16" fill="none" xmlns="http://www.w3.org/2000/svg">
<path d="M5.99805 12.4H2.79805C2.58587 12.4 2.38239 12.3157 2.23236 12.1657C2.08233 12.0157 1.99805 11.8122 1.99805 11.6V2.8C1.99805 2.58783 2.08233 2.38434 2.23236 2.23431C2.38239 2.08429 2.58587 2 2.79805 2H10.798C11.0102 2 11.2137 2.08429 11.3637 2.23431C11.5138 2.38434 11.598 2.58783 11.598 2.8V6.4M5.99805 4.4H9.19805M4.39805 6.8H9.19805M4.39805 9.2H8.39805M13.6679 9.53067L9.60018 13.6L7.60018 14L8.00018 12L12.07 7.93067C12.2816 7.71914 12.5685 7.6003 12.8676 7.6003C13.1668 7.6003 13.4537 7.71914 13.6652 7.93067L13.67 7.93493C13.7747 8.03983 13.8577 8.16432 13.9143 8.3013C13.9708 8.43827 13.9998 8.58505 13.9996 8.73324C13.9994 8.88143 13.97 9.02813 13.9131 9.16496C13.8562 9.30178 13.7729 9.42605 13.6679 9.53067Z" stroke="white" stroke-linecap="round" stroke-linejoin="round"/>
</svg>
