<svg width="48" height="48" viewBox="0 0 48 48" fill="none" xmlns="http://www.w3.org/2000/svg">
<path d="M12 6H6V12M36 6H42V12M12 42H6V36M36 42H42V36M25.03 35.382L33.03 30.582C33.3258 30.4043 33.5706 30.153 33.7406 29.8527C33.9106 29.5523 33.9999 29.2131 34 28.868V21.132C33.9999 20.7869 33.9106 20.4477 33.7406 20.1473C33.5706 19.847 33.3258 19.5957 33.03 19.418L25.03 14.618C24.7189 14.4311 24.3629 14.3324 24 14.3324C23.6371 14.3324 23.2811 14.4311 22.97 14.618L14.97 19.418C14.6742 19.5957 14.4294 19.847 14.2594 20.1473C14.0894 20.4477 14.0001 20.7869 14 21.132V28.868C14.0003 29.2133 14.0899 29.5526 14.2603 29.853C14.4306 30.1534 14.6758 30.4045 14.972 30.582L22.972 35.382C23.2826 35.5681 23.6379 35.6664 24 35.6664C24.3621 35.6664 24.7174 35.5681 25.028 35.382" stroke="#3BF5FF" stroke-width="2.35294" stroke-linecap="round" stroke-linejoin="round"/>
<path d="M14.9961 21L23.9961 26M23.9961 26C23.9961 26 31.5241 21.9 32.9961 21M23.9961 26V35" stroke="#3BF5FF" stroke-width="2.35294" stroke-linecap="round" stroke-linejoin="round"/>
</svg>
