<svg width="56" height="56" viewBox="0 0 56 56" fill="none" xmlns="http://www.w3.org/2000/svg">
<path fill-rule="evenodd" clip-rule="evenodd" d="M7.87469 5.68734C7.87469 5.10722 7.64424 4.55086 7.23403 4.14066C6.82382 3.73045 6.26746 3.5 5.68734 3.5C5.10722 3.5 4.55086 3.73045 4.14066 4.14066C3.73045 4.55086 3.5 5.10722 3.5 5.68734L3.5 15.8366C3.5 16.4167 3.73045 16.9731 4.14066 17.3833C4.55086 17.7935 5.10722 18.024 5.68734 18.024C6.26746 18.024 6.82382 17.7935 7.23403 17.3833C7.64424 16.9731 7.87469 16.4167 7.87469 15.8366V5.68734ZM7.87469 22.9236C7.87469 22.3435 7.64424 21.7871 7.23403 21.3769C6.82382 20.9667 6.26746 20.7363 5.68734 20.7363C5.10722 20.7363 4.55086 20.9667 4.14066 21.3769C3.73045 21.7871 3.5 22.3435 3.5 22.9236L3.5 33.0729C3.5 33.653 3.73045 34.2094 4.14066 34.6196C4.55086 35.0298 5.10722 35.2602 5.68734 35.2602C6.26746 35.2602 6.82382 35.0298 7.23403 34.6196C7.64424 34.2094 7.87469 33.653 7.87469 33.0729V22.9236ZM5.68734 37.9725C6.89476 37.9725 7.87469 38.9525 7.87469 40.1634V50.3092C7.87469 50.8893 7.64424 51.4456 7.23403 51.8558C6.82382 52.266 6.26746 52.4965 5.68734 52.4965C5.10722 52.4965 4.55086 52.266 4.14066 51.8558C3.73045 51.4456 3.5 50.8893 3.5 50.3092V40.1599C3.5 38.956 4.47993 37.9725 5.68734 37.9725ZM31.953 5.69084C31.953 5.11072 31.7225 4.55436 31.3123 4.14416C30.9021 3.73395 30.3457 3.5035 29.7656 3.5035C29.1855 3.5035 28.6291 3.73395 28.2189 4.14416C27.8087 4.55436 27.5783 5.11072 27.5783 5.69084V15.8401C27.5783 16.4202 27.8087 16.9766 28.2189 17.3868C28.6291 17.797 29.1855 18.0275 29.7656 18.0275C30.3457 18.0275 30.9021 17.797 31.3123 17.3868C31.7225 16.9766 31.953 16.4202 31.953 15.8401V5.69084ZM37.6506 3.5C38.858 3.5 39.8379 4.47993 39.8379 5.68734V15.8366C39.8379 16.4167 39.6075 16.9731 39.1972 17.3833C38.787 17.7935 38.2307 18.024 37.6506 18.024C37.0704 18.024 36.5141 17.7935 36.1039 17.3833C35.6937 16.9731 35.4632 16.4167 35.4632 15.8366V5.68734C35.4632 4.47993 36.4431 3.5 37.6506 3.5ZM16.0921 22.9236C16.0921 22.3435 15.8616 21.7871 15.4514 21.3769C15.0412 20.9667 14.4849 20.7363 13.9048 20.7363C13.3246 20.7363 12.7683 20.9667 12.3581 21.3769C11.9479 21.7871 11.7174 22.3435 11.7174 22.9236V33.0729C11.7174 33.653 11.9479 34.2094 12.3581 34.6196C12.7683 35.0298 13.3246 35.2602 13.9048 35.2602C14.4849 35.2602 15.0412 35.0298 15.4514 34.6196C15.8616 34.2094 16.0921 33.653 16.0921 33.0729V22.9236ZM11.7769 9.79955C11.7769 8.12881 12.4406 6.52649 13.622 5.3451C14.8034 4.1637 16.4057 3.5 18.0765 3.5C19.7472 3.5 21.3495 4.1637 22.5309 5.3451C23.7123 6.52649 24.376 8.12881 24.376 9.79955V11.6614C24.376 13.3322 23.7123 14.9345 22.5309 16.1159C21.3495 17.2973 19.7472 17.961 18.0765 17.961C16.4057 17.961 14.8034 17.2973 13.622 16.1159C12.4406 14.9345 11.7769 13.3322 11.7769 11.6614V9.79955ZM18.0765 7.87469C17.566 7.87469 17.0764 8.07749 16.7154 8.43847C16.3544 8.79945 16.1516 9.28904 16.1516 9.79955V11.6614C16.1516 12.1719 16.3544 12.6615 16.7154 13.0225C17.0764 13.3835 17.566 13.5863 18.0765 13.5863C18.587 13.5863 19.0766 13.3835 19.4375 13.0225C19.7985 12.6615 20.0013 12.1719 20.0013 11.6614V9.79605C20.0004 9.28615 19.7972 8.79745 19.4363 8.43723C19.0754 8.077 18.5864 7.87469 18.0765 7.87469ZM25.6114 20.7363C23.9407 20.7363 22.3384 21.4 21.157 22.5814C19.9756 23.7628 19.3119 25.3651 19.3119 27.0358V28.8977C19.3119 30.5684 19.9756 32.1707 21.157 33.3521C22.3384 34.5335 23.9407 35.1972 25.6114 35.1972C27.2822 35.1972 28.8845 34.5335 30.0659 33.3521C31.2473 32.1707 31.911 30.5684 31.911 28.8977V27.0358C31.911 26.2085 31.748 25.3894 31.4314 24.6251C31.1149 23.8608 30.6508 23.1663 30.0659 22.5814C29.4809 21.9964 28.7865 21.5324 28.0222 21.2158C27.2579 20.8992 26.4387 20.7363 25.6114 20.7363ZM23.6866 27.0358C23.6866 26.5253 23.8894 26.0357 24.2503 25.6747C24.6113 25.3138 25.1009 25.111 25.6114 25.111C26.1219 25.111 26.6115 25.3138 26.9725 25.6747C27.3335 26.0357 27.5363 26.5253 27.5363 27.0358V28.8977C27.5363 29.4082 27.3335 29.8978 26.9725 30.2588C26.6115 30.6198 26.1219 30.8225 25.6114 30.8225C25.1009 30.8225 24.6113 30.6198 24.2503 30.2588C23.8894 29.8978 23.6866 29.4082 23.6866 28.8977V27.0358ZM11.7769 44.3351C11.7769 42.6643 12.4406 41.062 13.622 39.8806C14.8034 38.6992 16.4057 38.0355 18.0765 38.0355C19.7472 38.0355 21.3495 38.6992 22.5309 39.8806C23.7123 41.062 24.376 42.6643 24.376 44.3351V46.2005C24.376 47.8712 23.7123 49.4735 22.5309 50.6549C21.3495 51.8363 19.7472 52.5 18.0765 52.5C16.4057 52.5 14.8034 51.8363 13.622 50.6549C12.4406 49.4735 11.7769 47.8712 11.7769 46.2005V44.3351ZM18.0765 42.4102C17.566 42.4102 17.0764 42.613 16.7154 42.974C16.3544 43.335 16.1516 43.8246 16.1516 44.3351V46.2005C16.1516 46.4532 16.2014 46.7035 16.2981 46.9371C16.3949 47.1706 16.5366 47.3828 16.7154 47.5615C16.8941 47.7403 17.1063 47.8821 17.3398 47.9788C17.5734 48.0755 17.8237 48.1253 18.0765 48.1253C18.3292 48.1253 18.5795 48.0755 18.8131 47.9788C19.0466 47.8821 19.2588 47.7403 19.4375 47.5615C19.6163 47.3828 19.7581 47.1706 19.8548 46.9371C19.9515 46.7035 20.0013 46.4532 20.0013 46.2005V44.3351C20.0013 43.8246 19.7985 43.335 19.4375 42.974C19.0766 42.613 18.587 42.4102 18.0765 42.4102ZM34.1228 36.8596V34.1228C34.1228 32.0344 34.9524 30.0315 36.4292 28.5547C37.9059 27.078 39.9088 26.2484 41.9973 26.2484C44.0857 26.2484 46.0886 27.078 47.5653 28.5547C49.0421 30.0315 49.8717 32.0344 49.8717 34.1228V36.8596C50.6228 37.0535 51.2882 37.4915 51.7633 38.1047C52.2384 38.718 52.4963 39.4716 52.4965 40.2474V48.9967C52.4965 49.9249 52.1278 50.8151 51.4714 51.4714C50.8151 52.1278 49.9249 52.4965 48.9967 52.4965H34.9978C34.0696 52.4965 33.1794 52.1278 32.5231 51.4714C31.8667 50.8151 31.498 49.9249 31.498 48.9967V40.2474C31.4982 39.4716 31.7561 38.718 32.2312 38.1047C32.7063 37.4915 33.3717 37.0535 34.1228 36.8596ZM45.497 36.7476H38.4975V34.1228C38.4975 33.1946 38.8662 32.3044 39.5226 31.6481C40.1789 30.9918 41.0691 30.6231 41.9973 30.6231C42.9254 30.6231 43.8156 30.9918 44.4719 31.6481C45.1283 32.3044 45.497 33.1946 45.497 34.1228V36.7476Z" fill="#C6BBBB"/>
</svg>
