<svg width="48" height="48" viewBox="0 0 48 48" fill="none" xmlns="http://www.w3.org/2000/svg">
<path d="M44.5734 12.5691H46.8534V14.8491H44.5734V12.5691ZM39.9984 14.8491H44.5734V17.1441H39.9984V14.8491ZM39.9984 10.2891H44.5734V12.5691H39.9984V10.2891ZM35.4234 35.4291V37.7091H30.8634V40.0041H26.2884V42.2841H21.7134V40.0041H17.1384V37.7091H12.5784V35.4291H8.00344V33.1341H1.14844V35.4291H3.42844V37.7091H8.00344V40.0041H12.5784V42.2841H17.1384V44.5641H21.7134V46.8591H26.2884V44.5641H30.8634V42.2841H35.4234V40.0041H39.9984V37.7091H44.5734V35.4291H46.8534V33.1341H39.9984V35.4291H35.4234Z" fill="#3BF5FF"/>
<path d="M35.4234 28.5762V30.8562H30.8634V33.1362H26.2884V35.4313H21.7134V33.1362H17.1384V30.8562H12.5784V28.5762H8.00344V26.2812H1.14844V28.5762H3.42844V30.8562H8.00344V33.1362H12.5784V35.4313H17.1384V37.7112H21.7134V40.0062H26.2884V37.7112H30.8634V35.4313H35.4234V33.1362H39.9984V30.8562H44.5734V28.5762H46.8534V26.2812H39.9984V28.5762H35.4234Z" fill="#3BF5FF"/>
<path d="M35.4234 21.7172V23.9972H30.8634V26.2772H26.2884V28.5722H21.7134V26.2772H17.1384V23.9972H12.5784V21.7172H8.00344V19.4222H1.14844V21.7172H3.42844V23.9972H8.00344V26.2772H12.5784V28.5722H17.1384V30.8522H21.7134V33.1322H26.2884V30.8522H30.8634V28.5722H35.4234V26.2772H39.9984V23.9972H44.5734V21.7172H46.8534V19.4222H39.9984V21.7172H35.4234ZM35.4234 17.1422H39.9984V19.4222H35.4234V17.1422ZM35.4234 7.99219H39.9984V10.2872H35.4234V7.99219Z" fill="#3BF5FF"/>
<path d="M30.8634 19.4256H35.4234V21.7206H30.8634V19.4256ZM30.8634 5.71562H35.4234V7.99562H30.8634V5.71562ZM26.2884 21.7206H30.8634V24.0006H26.2884V21.7206ZM26.2884 3.43563H30.8634V5.71562H26.2884V3.43563ZM21.7134 24.0006H26.2884V26.2806H21.7134V24.0006ZM21.7134 1.14062H26.2884V3.43563H21.7134V1.14062ZM17.1384 21.7206H21.7134V24.0006H17.1384V21.7206ZM17.1384 3.43563H21.7134V5.71562H17.1384V3.43563ZM12.5784 19.4256H17.1384V21.7206H12.5784V19.4256ZM12.5784 5.71562H17.1384V7.99562H12.5784V5.71562ZM8.00344 17.1456H12.5784V19.4256H8.00344V17.1456ZM8.00344 7.99562H12.5784V10.2906H8.00344V7.99562ZM3.42844 14.8506H8.00344V17.1456H3.42844V14.8506ZM3.42844 10.2906H8.00344V12.5706H3.42844V10.2906ZM1.14844 12.5706H3.42844V14.8506H1.14844V12.5706Z" fill="#3BF5FF"/>
</svg>
