<svg width="25" height="25" viewBox="0 0 25 25" fill="none" xmlns="http://www.w3.org/2000/svg">
<path d="M19.584 22.5469V21.5469C19.584 20.5986 19.5836 19.9374 19.5371 19.4248C19.503 19.0481 19.4464 18.7932 19.3682 18.5986L19.2822 18.4219C19.1095 18.1229 18.8709 17.868 18.585 17.6768L18.459 17.5986C18.2441 17.4745 17.9583 17.3893 17.4561 17.3438C17.0135 17.3036 16.4602 17.2987 15.707 17.2979L12.9336 20.9971C12.7919 21.1857 12.5699 21.2969 12.334 21.2969C12.098 21.2969 11.876 21.1857 11.7344 20.9971L8.95996 17.2979C8.20726 17.2988 7.65426 17.3037 7.21191 17.3438C6.83519 17.3779 6.58026 17.4344 6.38574 17.5127L6.20898 17.5986C5.90969 17.7714 5.6552 18.0107 5.46387 18.2969L5.38574 18.4219C5.26166 18.6368 5.17638 18.9225 5.13086 19.4248C5.08441 19.9374 5.08398 20.5986 5.08398 21.5469V22.5469C5.08398 22.9611 4.7482 23.2969 4.33398 23.2969C3.91977 23.2969 3.58398 22.9611 3.58398 22.5469V21.5469C3.58398 20.6261 3.58368 19.8851 3.6377 19.2891C3.69265 18.6829 3.80822 18.153 4.08594 17.6719L4.2168 17.4629C4.53565 16.986 4.96026 16.5878 5.45898 16.2998L5.6416 16.2021C6.07363 15.993 6.54572 15.8987 7.07617 15.8506C7.67221 15.7966 8.41317 15.7969 9.33398 15.7969C9.56992 15.7969 9.79194 15.908 9.93359 16.0967L12.334 19.2969L14.7344 16.0967L14.791 16.0293C14.9317 15.8817 15.1276 15.7969 15.334 15.7969C16.2548 15.7969 16.9958 15.7966 17.5918 15.8506C18.198 15.9056 18.7278 16.0219 19.209 16.2998L19.418 16.4297C19.895 16.7486 20.294 17.1731 20.582 17.6719L20.6787 17.8545C20.8878 18.2865 20.9822 18.7586 21.0303 19.2891C21.0843 19.8851 21.084 20.6261 21.084 21.5469V22.5469C21.084 22.9611 20.7482 23.2969 20.334 23.2969C19.9198 23.2969 19.584 22.9611 19.584 22.5469Z" fill="#3BA0FF"/>
<path d="M15.5215 9.29688H9.14653V10.5469C9.14678 12.3528 10.585 13.7969 12.334 13.7969C14.083 13.7969 15.5213 12.3528 15.5215 10.5469V9.29688ZM8.81156 3.29688C8.35308 3.29688 7.98711 3.74244 8.10746 4.23145L8.98442 7.79688H15.6836L16.5606 4.23145C16.6809 3.74244 16.3149 3.29688 15.8565 3.29688H8.81156ZM17.0215 10.5469C17.0213 13.1588 14.9337 15.2969 12.334 15.2969C9.7343 15.2969 7.64678 13.1588 7.64653 10.5469V8.6377L6.65043 4.58984C6.30488 3.18546 7.34891 1.79688 8.81156 1.79688H15.8565C17.319 1.79688 18.3632 3.18543 18.0176 4.58984L17.0215 8.6377V10.5469Z" fill="#3BA0FF"/>
<path d="M11.584 6.54688V6.29688H11.334C10.9199 6.29688 10.5841 5.96098 10.584 5.54688C10.584 5.13266 10.9198 4.79688 11.334 4.79688H11.584V4.54688C11.584 4.13266 11.9198 3.79688 12.334 3.79688C12.7481 3.79698 13.084 4.13273 13.084 4.54688V4.79688H13.333C13.7472 4.79688 14.083 5.13266 14.083 5.54688C14.0829 5.96098 13.7471 6.29688 13.333 6.29688H13.084V6.54688C13.0837 6.9608 12.7479 7.29677 12.334 7.29688C11.9199 7.29688 11.5842 6.96087 11.584 6.54688Z" fill="#3BA0FF"/>
</svg>
