<svg width="25" height="24" viewBox="0 0 25 24" fill="none" xmlns="http://www.w3.org/2000/svg">
<path d="M19.583 22V21C19.583 20.0517 19.5826 19.3905 19.5361 18.8779C19.502 18.5012 19.4455 18.2463 19.3672 18.0518L19.2812 17.875C19.1086 17.576 18.87 17.3211 18.584 17.1299L18.458 17.0518C18.2431 16.9277 17.9574 16.8424 17.4551 16.7969C17.0125 16.7568 16.4593 16.7519 15.7061 16.751L12.9326 20.4502C12.791 20.6389 12.5689 20.75 12.333 20.75C12.0971 20.75 11.875 20.6389 11.7334 20.4502L8.95898 16.751C8.20628 16.7519 7.65329 16.7568 7.21094 16.7969C6.83421 16.831 6.57928 16.8875 6.38477 16.9658L6.20801 17.0518C5.90872 17.2246 5.65422 17.4638 5.46289 17.75L5.38477 17.875C5.26068 18.0899 5.17541 18.3756 5.12988 18.8779C5.08343 19.3905 5.08301 20.0517 5.08301 21V22C5.08301 22.4142 4.74722 22.75 4.33301 22.75C3.91879 22.75 3.58301 22.4142 3.58301 22V21C3.58301 20.0792 3.5827 19.3382 3.63672 18.7422C3.69168 18.136 3.80724 17.6061 4.08496 17.125L4.21582 16.916C4.53467 16.4391 4.95929 16.0409 5.45801 15.7529L5.64062 15.6553C6.07266 15.4461 6.54475 15.3518 7.0752 15.3037C7.67124 15.2497 8.4122 15.25 9.33301 15.25C9.56895 15.25 9.79097 15.3611 9.93262 15.5498L12.333 18.75L14.7334 15.5498L14.79 15.4824C14.9307 15.3349 15.1266 15.25 15.333 15.25C16.2538 15.25 16.9948 15.2497 17.5908 15.3037C18.1971 15.3587 18.7268 15.4751 19.208 15.7529L19.417 15.8828C19.894 16.2017 20.2931 16.6263 20.5811 17.125L20.6777 17.3076C20.8868 17.7397 20.9812 18.2117 21.0293 18.7422C21.0833 19.3382 21.083 20.0792 21.083 21V22C21.083 22.4142 20.7472 22.75 20.333 22.75C19.9188 22.75 19.583 22.4142 19.583 22Z" fill="#3BF5FF"/>
<path d="M15.5205 8.75H9.14555V10C9.1458 11.8059 10.584 13.25 12.333 13.25C14.0821 13.25 15.5203 11.8059 15.5205 10V8.75ZM8.81059 2.75C8.35211 2.75 7.98614 3.19556 8.10649 3.68457L8.98344 7.25H15.6827L16.5596 3.68457C16.68 3.19556 16.3139 2.75 15.8555 2.75H8.81059ZM17.0205 10C17.0203 12.6119 14.9327 14.75 12.333 14.75C9.73332 14.75 7.64581 12.6119 7.64555 10V8.09082L6.64946 4.04297C6.3039 2.63858 7.34793 1.25 8.81059 1.25H15.8555C17.3181 1.25 18.3622 2.63856 18.0166 4.04297L17.0205 8.09082V10Z" fill="#3BF5FF"/>
<path d="M11.583 6V5.75H11.333C10.9189 5.75 10.5831 5.4141 10.583 5C10.583 4.58579 10.9188 4.25 11.333 4.25H11.583V4C11.583 3.58579 11.9188 3.25 12.333 3.25C12.7471 3.25011 13.083 3.58585 13.083 4V4.25H13.332C13.7462 4.25 14.082 4.58579 14.082 5C14.0819 5.4141 13.7462 5.75 13.332 5.75H13.083V6C13.0827 6.41393 12.747 6.74989 12.333 6.75C11.919 6.75 11.5833 6.41399 11.583 6Z" fill="#3BF5FF"/>
</svg>
