<svg width="48" height="48" viewBox="0 0 48 48" fill="none" xmlns="http://www.w3.org/2000/svg">
<path d="M12 12H15V18H12V12ZM12 21H15V27H12V21ZM21 12H24V18H21V12ZM21 21H24V27H21V21ZM12 30H15V36H12V30ZM21 30H24V36H21V30Z" fill="#3BF5FF"/>
<path d="M45 21C45 20.2044 44.6839 19.4413 44.1213 18.8787C43.5587 18.3161 42.7957 18 42 18H33V6C33 5.20435 32.6839 4.44129 32.1213 3.87868C31.5587 3.31607 30.7956 3 30 3H6C5.20435 3 4.44129 3.31607 3.87868 3.87868C3.31607 4.44129 3 5.20435 3 6V45H45V21ZM6 6H30V42H6V6ZM33 42V21H42V42H33Z" fill="#3BF5FF"/>
</svg>
