<svg width="161" height="28" viewBox="0 0 161 28" fill="none" xmlns="http://www.w3.org/2000/svg">
<g style="mix-blend-mode:luminosity" clip-path="url(#clip0_3917_48606)">
<path d="M9.26293 26.6822H4.24382V13.9841H0.824707V9.84988H4.24369V6.90808C4.24369 3.42204 5.75591 0.921875 10.7614 0.921875C11.8201 0.921875 13.4822 1.13843 13.4822 1.13843V4.97729H11.7365C9.95771 4.97729 9.2632 5.5264 9.2632 7.04447V9.84988H13.4156L13.0458 13.9841H9.26307L9.26293 26.6822ZM20.7794 9.51949C20.7063 9.51949 20.631 9.5222 20.5566 9.52409C15.9026 9.52409 13.7732 13.0769 13.7732 18.1202C13.7732 24.4734 16.5353 27.0162 20.5929 27.0162C22.9145 27.0162 24.4398 26.0245 25.3668 24.1739V26.6839H30.1407V9.85163H25.3668V12.4402C24.6099 10.7748 23.042 9.53923 20.7794 9.51949ZM21.9933 13.4969C23.948 13.4969 25.1212 14.8806 25.1212 17.2342L25.1257 19.6382C25.1257 21.2245 24.1567 23.0804 21.9933 23.0804C18.6673 23.0804 18.7561 19.4357 18.7561 18.2217C18.7561 14.1383 20.5282 13.4969 21.9933 13.4969ZM32.0687 18.2687C32.0687 16.2232 31.9722 9.53044 40.5642 9.53044C44.0131 9.53044 45.4533 10.6434 45.4533 10.6434L44.2958 14.2869C44.2958 14.2869 42.8575 13.4831 40.9833 13.4831C38.5829 13.4831 37.0513 14.8954 37.0513 17.3801L37.0539 19.1618C37.0539 21.5493 38.5318 23.1431 40.9883 23.1431C42.6956 23.1431 44.2693 22.3318 44.2693 22.3318L45.4238 25.8992C45.4238 25.8992 44.107 27.0192 40.5883 27.0192C32.4074 27.0192 32.0688 21.0144 32.0688 18.2687H32.0687ZM73.4444 9.52409C78.0985 9.52409 80.2614 13.0769 80.2614 18.1202C80.2614 24.4734 77.4992 27.0162 73.4416 27.0162C71.12 27.0162 69.4039 26.0246 68.4768 24.1739V26.6839L63.763 26.682V1.43367L68.7678 0.990682V12.2122C69.4902 10.2489 71.8639 9.52409 73.4444 9.52409ZM72.0412 13.4969C70.0865 13.4969 68.7678 14.8806 68.7678 17.2342L68.7632 19.6382C68.7602 21.2245 69.6764 23.0804 72.0412 23.0804C75.3672 23.0804 75.2784 19.4357 75.2784 18.2217C75.2784 14.1383 73.5064 13.4969 72.0412 13.4969ZM54.1371 9.53801C48.8584 9.53801 46.0716 12.4589 46.0716 17.6495V18.6139C46.0716 25.3509 49.9851 27.0854 54.6509 27.0854C59.1859 27.0854 61.2387 25.7981 61.2387 25.7981L60.3022 22.3699C60.3022 22.3699 57.8875 23.4125 55.2509 23.4125C52.5177 23.4125 51.3422 22.7055 51.0409 20.0398H61.6388V17.2895C61.6388 11.659 58.5112 9.53788 54.137 9.53788L54.1371 9.53801ZM54.2643 12.9708C56.0916 12.9708 57.2756 14.1079 57.2106 16.7452H51.0501C51.1569 13.9695 52.4338 12.9708 54.2643 12.9708ZM90.2409 9.5149C84.82 9.5149 81.9662 12.6151 81.9662 18.1709C81.9662 25.7937 86.8856 27.0208 90.2499 27.0208C95.1751 27.0208 98.4519 24.3297 98.4519 18.2401C98.4519 11.9019 94.7676 9.5149 90.2409 9.5149ZM90.1727 13.5107C92.5563 13.5107 93.5008 15.3212 93.5008 17.382V19.1538C93.5008 21.6503 92.1792 23.0943 90.1636 23.0943C88.2786 23.0943 86.9538 21.7436 86.9538 19.1538V17.382C86.9538 14.62 88.5302 13.5107 90.1727 13.5107ZM108.422 9.5149C103.002 9.5149 100.148 12.6151 100.148 18.1709C100.148 25.7937 105.067 27.0208 108.431 27.0208C113.357 27.0208 116.633 24.3297 116.633 18.2401C116.633 11.9019 112.949 9.5149 108.422 9.5149ZM108.354 13.5107C110.738 13.5107 111.682 15.3212 111.682 17.382V19.1538C111.682 21.6503 110.361 23.0943 108.345 23.0943C106.46 23.0943 105.135 21.7436 105.135 19.1538V17.382C105.135 14.62 106.712 13.5107 108.354 13.5107ZM118.525 26.6822V1.43367L123.544 0.990682V17.9138L128.524 9.84988H133.825L128.63 18.2017L134.025 26.6822H128.709L123.544 18.4478V26.6822H118.525Z" fill="#1877F2"/>
</g>
<defs>
<clipPath id="clip0_3917_48606">
<rect width="160" height="27" fill="white" transform="translate(0.757324 0.5)"/>
</clipPath>
</defs>
</svg>
