<svg width="48" height="48" viewBox="0 0 48 48" fill="none" xmlns="http://www.w3.org/2000/svg">
<path d="M19.1126 36.2226L7.53619 27.8994M12.8728 23.1476L22.0156 29.926M12.6897 22.2303L22.6644 12.5152M21.1427 5.47193L4.90342 20.8881M31.6347 15.7897L27.546 11.6121M4.00391 23.5565C4.00391 24.7352 4.47214 25.8656 5.3056 26.699C6.13905 27.5325 7.26947 28.0007 8.44815 28.0007C9.62684 28.0007 10.7573 27.5325 11.5907 26.699C12.4242 25.8656 12.8924 24.7352 12.8924 23.5565C12.8924 22.3778 12.4242 21.2474 11.5907 20.4139C10.7573 19.5805 9.62684 19.1122 8.44815 19.1122C7.26947 19.1122 6.13905 19.5805 5.3056 20.4139C4.47214 21.2474 4.00391 22.3778 4.00391 23.5565ZM19.9996 8.44425C19.9996 9.62293 20.4679 10.7533 21.3013 11.5868C22.1348 12.4203 23.2652 12.8885 24.4439 12.8885C25.6226 12.8885 26.753 12.4203 27.5864 11.5868C28.4199 10.7533 28.8881 9.62293 28.8881 8.44425C28.8881 7.26556 28.4199 6.13515 27.5864 5.30169C26.753 4.46823 25.6226 4 24.4439 4C23.2652 4 22.1348 4.46823 21.3013 5.30169C20.4679 6.13515 19.9996 7.26556 19.9996 8.44425ZM30.6676 18.2234C30.6676 19.1663 31.0422 20.0706 31.709 20.7374C32.3757 21.4042 33.2801 21.7788 34.223 21.7788C35.166 21.7788 36.0703 21.4042 36.7371 20.7374C37.4038 20.0706 37.7784 19.1663 37.7784 18.2234C37.7784 17.2804 37.4038 16.3761 36.7371 15.7093C36.0703 15.0426 35.166 14.668 34.223 14.668C33.2801 14.668 32.3757 15.0426 31.709 15.7093C31.0422 16.3761 30.6676 17.2804 30.6676 18.2234Z" stroke="#3BF5FF" stroke-width="2.35294" stroke-linecap="round" stroke-linejoin="round"/>
<path d="M37.6922 17.4185C38.4624 17.2749 39.2547 17.3027 40.013 17.5C40.7712 17.6973 41.4766 18.0592 42.0791 18.5601C42.6816 19.0609 43.1663 19.6883 43.4988 20.3977C43.8314 21.1071 44.0035 21.881 44.003 22.6645M38.6699 27.9976C37.8864 27.9979 37.1125 27.8255 36.4032 27.4928C35.6938 27.16 35.0665 26.6751 34.5659 26.0724C34.0652 25.4698 33.7035 24.7642 33.5064 24.0059C33.3094 23.2476 33.2818 22.4552 33.4257 21.685M4.44922 43.9969H43.5586M19.1152 43.9969V34.6622C19.1152 33.2478 19.6771 31.8913 20.6773 30.8911C21.6774 29.891 23.0339 29.3291 24.4483 29.3291C25.8628 29.3291 27.2193 29.891 28.2194 30.8911C29.2196 31.8913 29.7814 33.2478 29.7814 34.6622V43.9951" stroke="#3BF5FF" stroke-width="2.35294" stroke-linecap="round" stroke-linejoin="round"/>
</svg>
