<svg width="24" height="24" viewBox="0 0 24 24" fill="none" xmlns="http://www.w3.org/2000/svg">
<path d="M17.7657 2.25C18.5589 2.25 19.2311 2.24836 19.7588 2.32032C20.3051 2.3948 20.8277 2.56275 21.2276 3.00293C21.6184 3.43316 21.7337 3.94964 21.7481 4.4795C21.7593 4.89356 21.4327 5.23877 21.0186 5.25C20.6048 5.26096 20.2604 4.93433 20.2491 4.52051C20.2421 4.2655 20.2031 4.14138 20.1602 4.06934L20.1172 4.01172C20.0562 3.94453 19.9398 3.85901 19.5557 3.80664C19.1531 3.75179 18.6025 3.75 17.7657 3.75H6.23442C5.39762 3.75 4.84701 3.75179 4.44438 3.80664C4.06028 3.85901 3.94392 3.9445 3.88285 4.01172C3.82532 4.07511 3.7557 4.18718 3.75004 4.55274C3.74404 4.94234 3.81006 5.46852 3.9141 6.27735C3.93942 6.47409 3.96764 6.58063 4.00102 6.66114C4.03289 6.73785 4.08485 6.82757 4.20121 6.96582C5.15951 8.10441 6.88867 10.0974 9.30668 11.9053C9.71948 12.2139 9.96554 12.6954 10.0069 13.2002L10.211 15.5566C10.4072 17.7068 10.5763 19.2325 10.6778 20.0898C10.681 20.1165 10.6918 20.1473 10.712 20.1777C10.7327 20.2089 10.7569 20.2308 10.7764 20.2422C10.7801 20.2444 10.7835 20.2459 10.7862 20.2471C10.7879 20.246 10.7906 20.2458 10.793 20.2441C11.0515 20.0614 11.3614 19.8755 11.6465 19.7022C11.9433 19.5217 12.2307 19.3447 12.4922 19.1553C13.0457 18.7544 13.3193 18.4136 13.377 18.1064L13.4434 17.7305C13.5153 17.3023 13.6028 16.71 13.7002 15.9092C13.7503 15.4982 14.1242 15.2061 14.5352 15.2559C14.9464 15.3059 15.2395 15.6796 15.1895 16.0908C15.0566 17.1832 14.9397 17.913 14.8516 18.3828C14.6802 19.2969 13.9734 19.9345 13.3721 20.3701C13.0561 20.599 12.7217 20.8045 12.4258 20.9844C12.1183 21.1713 11.8643 21.3237 11.6592 21.4688C11.1143 21.8541 10.4884 21.81 10.0215 21.5381C9.57903 21.2803 9.25184 20.8088 9.18754 20.2656C9.05017 19.1052 8.79284 16.7563 8.51176 13.3223C8.50266 13.2123 8.4502 13.1378 8.40825 13.1064C5.84963 11.1934 4.03206 9.094 3.05375 7.93164C2.87044 7.71384 2.72318 7.4946 2.61625 7.23731C2.51097 6.98387 2.46048 6.73048 2.4268 6.46875C2.32865 5.70577 2.24292 5.05251 2.25102 4.5293C2.25949 3.98232 2.36919 3.44695 2.7725 3.00293C3.17236 2.56278 3.69501 2.3948 4.24125 2.32032C4.76897 2.24837 5.44117 2.25 6.23442 2.25H17.7657Z" fill="#F7F8F8"/>
<path d="M20.4697 6.46967C20.7626 6.17678 21.2373 6.17678 21.5302 6.46967C21.8231 6.76256 21.8231 7.23732 21.5302 7.53022L19.0605 9.99994L21.5302 12.4697C21.8231 12.7626 21.8231 13.2373 21.5302 13.5302C21.2373 13.8231 20.7626 13.8231 20.4697 13.5302L17.9999 11.0605L15.5302 13.5302C15.2373 13.8231 14.7626 13.8231 14.4697 13.5302C14.1768 13.2373 14.1768 12.7626 14.4697 12.4697L16.9394 9.99994L14.4697 7.53022C14.1768 7.23732 14.1768 6.76256 14.4697 6.46967C14.7626 6.17678 15.2373 6.17678 15.5302 6.46967L17.9999 8.9394L20.4697 6.46967Z" fill="#F7F8F8"/>
</svg>
