<svg width="16" height="16" viewBox="0 0 16 16" fill="none" xmlns="http://www.w3.org/2000/svg">
<path d="M2.99932 3.33594C2.13065 3.32127 1.71398 3.49194 1.48265 4.09727C1.34265 4.4646 1.33398 4.8666 1.33398 5.25994V12.0026C1.40598 12.4253 1.52598 12.7059 1.82865 12.9359C2.32265 13.3093 2.97865 13.3606 3.58865 13.4713C4.92465 13.7133 6.08665 14.1233 7.99665 14.6693M7.99665 14.6693C9.76532 14.1219 11.03 13.7426 12.2153 13.5239C13.1627 13.3486 14.3687 13.2306 14.582 12.2906C14.638 12.0433 14.6633 11.7339 14.6587 11.3359V6.17994C14.6587 5.17727 14.8107 3.8326 13.896 3.4226C13.6667 3.3206 13.378 3.3026 12.9933 3.33594M7.99665 14.6693V10.0026M7.99598 8.0026C8.87969 8.00207 9.72703 7.65065 10.3517 7.02559C10.9764 6.40052 11.3273 5.55298 11.3273 4.66927C11.3273 2.82794 9.83598 1.33594 7.99598 1.33594M7.99598 8.0026C7.11228 8.00207 6.26494 7.65065 5.64025 7.02559C5.01557 6.40052 4.66465 5.55298 4.66465 4.66927C4.66465 2.82794 6.15598 1.33594 7.99598 1.33594M7.99598 8.0026C8.73198 8.0026 9.32865 6.50927 9.32865 4.66927C9.32865 2.82794 8.73198 1.33594 7.99532 1.33594M7.99598 1.33594C7.25998 1.33594 6.66332 2.82794 6.66332 4.66927C6.66332 6.50927 7.25998 8.0026 7.99532 8.0026" stroke="white" stroke-linecap="round" stroke-linejoin="round"/>
</svg>
