<svg width="48" height="48" viewBox="0 0 48 48" fill="none" xmlns="http://www.w3.org/2000/svg">
<path d="M12 8C12 10.2091 10.2091 12 8 12C5.79086 12 4 10.2091 4 8C4 5.79086 5.79086 4 8 4C10.2091 4 12 5.79086 12 8Z" stroke="#3BF5FF" stroke-width="2.5"/>
<path d="M44 8C44 10.2091 42.2092 12 40 12C37.7908 12 36 10.2091 36 8C36 5.79086 37.7908 4 40 4C42.2092 4 44 5.79086 44 8Z" stroke="#3BF5FF" stroke-width="2.5"/>
<path d="M44 40C44 42.2092 42.2092 44 40 44C37.7908 44 36 42.2092 36 40C36 37.7908 37.7908 36 40 36C42.2092 36 44 37.7908 44 40Z" stroke="#3BF5FF" stroke-width="2.5"/>
<path d="M12 40C12 42.2092 10.2091 44 8 44C5.79086 44 4 42.2092 4 40C4 37.7908 5.79086 36 8 36C10.2091 36 12 37.7908 12 40Z" stroke="#3BF5FF" stroke-width="2.5"/>
<path d="M40 12V36M36 40H12M36 8H12M8 12V36" stroke="#3BF5FF" stroke-width="2.5" stroke-linecap="round" stroke-linejoin="round"/>
<path d="M21.2994 16.9609L19.1221 18.0264C16.374 19.3713 15 20.0436 15 21C15 21.9564 16.374 22.6288 19.1221 23.9736L21.2994 25.039C22.6084 25.6796 23.263 26 24 26C24.737 26 25.3916 25.6796 26.7006 25.039L28.8778 23.9736C31.626 22.6288 33 21.9564 33 21C33 20.0436 31.626 19.3713 28.8778 18.0264L26.7006 16.9609C25.3916 16.3203 24.737 16 24 16C23.263 16 22.6084 16.3203 21.2994 16.9609Z" stroke="#3BF5FF" stroke-width="2.5" stroke-linecap="round" stroke-linejoin="round"/>
<path d="M33 27C33 27.9564 31.626 28.6288 28.8778 29.9736L26.7006 31.039C25.3916 31.6796 24.737 32 24 32C23.263 32 22.6084 31.6796 21.2994 31.039L19.1221 29.9736C16.374 28.6288 15 27.9564 15 27" stroke="#3BF5FF" stroke-width="2.5" stroke-linecap="round" stroke-linejoin="round"/>
</svg>
