<svg width="48" height="48" viewBox="0 0 48 48" fill="none" xmlns="http://www.w3.org/2000/svg">
<path d="M46.0108 22.8013C46.0603 22.6243 46.1188 22.4518 46.1608 22.2718L46.1818 22.1638C46.6108 20.4341 46.6094 18.6257 46.1777 16.8966C45.7459 15.1676 44.897 13.5708 43.7053 12.2458C42.6073 10.768 41.1762 9.57021 39.5281 8.74971C37.8801 7.92921 36.0617 7.50919 34.2208 7.52381H34.1428C33.9928 7.52381 33.8248 7.53431 33.6658 7.53881H33.4843C30.3143 7.71583 27.1634 8.14417 24.0613 8.81981L17.3458 7.74731H17.2933C14.0947 7.19413 10.803 7.7219 7.93776 9.24731C6.32438 10.2214 4.93831 11.5298 3.87276 13.0843L3.81126 13.1668L3.77376 13.2193C2.36564 15.3082 1.59994 17.7636 1.57116 20.2826C1.54237 22.8015 2.25175 25.2738 3.61176 27.3943C3.58326 27.4453 3.56676 27.5023 3.53976 27.5548C3.40989 27.8149 3.2991 28.0841 3.20826 28.3603C3.16026 28.5103 3.12426 28.6693 3.08976 28.8253C3.06176 28.9523 3.03776 29.0793 3.01776 29.2063C2.99826 29.3651 2.98725 29.5248 2.98476 29.6848C2.98476 29.8138 2.96976 29.9398 2.97576 30.0673C2.98576 30.2353 3.00476 30.4023 3.03276 30.5683C3.05076 30.6868 3.05976 30.8053 3.08676 30.9223C3.13276 31.1073 3.19076 31.2883 3.26076 31.4653C3.29526 31.5598 3.31776 31.6573 3.35976 31.7503C3.48276 32.0253 3.63276 32.2843 3.80976 32.5273C4.48861 33.4989 5.48992 34.1983 6.63576 34.5013C6.59323 35.1409 6.69981 35.7816 6.94709 36.373C7.19438 36.9644 7.57561 37.4903 8.06076 37.9093C8.92041 38.6623 9.97458 39.1582 11.1028 39.3403C11.3353 40.0948 11.7433 40.7833 12.2923 41.3503C13.0414 42.1622 14.0536 42.6829 15.1498 42.8203C15.4108 43.7098 15.9058 44.5138 16.5838 45.1453C17.4193 45.9673 18.5383 46.4353 19.7098 46.4503C20.5711 46.4444 21.4169 46.2204 22.1683 45.7993C23.2843 46.4383 24.5923 46.6543 25.8553 46.4083C26.5183 46.2873 27.1465 46.0218 27.6953 45.6306C28.2442 45.2394 28.7001 44.7321 29.0308 44.1448C29.0623 44.0953 29.0803 44.0518 29.1088 44.0023C30.3838 44.2633 31.7113 44.0338 32.8258 43.3603C33.8059 42.807 34.552 41.9169 34.9258 40.8553C36.2668 40.8733 37.5658 40.3903 38.5663 39.4978C39.114 39.0182 39.5394 38.4149 39.807 37.7379C40.0747 37.0609 40.1769 36.3298 40.1053 35.6053C40.1053 35.5633 40.0948 35.5303 40.0918 35.4898C40.8746 35.2552 41.5788 34.8118 42.1288 34.2073C42.8397 33.4576 43.2975 32.5036 43.4374 31.4799C43.5774 30.4562 43.3924 29.4143 42.9088 28.5013C44.2578 26.9435 45.2782 25.1292 45.9088 23.1673C45.9448 23.0518 45.9748 22.9258 46.0108 22.8013ZM43.4428 20.2513C43.3675 21.0054 43.2018 21.7478 42.9493 22.4623L42.9013 22.6123C42.4024 23.9465 41.6834 25.1877 40.7743 26.2843C36.0688 22.1773 29.2243 16.1833 28.6618 15.6463C28.012 15.0246 27.1491 14.6747 26.2498 14.6683C25.9708 14.665 25.693 14.705 25.4263 14.7868C24.4753 15.0868 22.1383 15.8368 20.0983 16.5943C19.3183 16.8838 18.4273 16.1443 18.1558 15.5143C17.9758 15.1363 17.9458 14.7043 18.0688 14.3053C18.3133 13.8628 18.7243 13.5343 19.2103 13.3933C23.8246 11.7714 28.6456 10.8119 33.5293 10.5433H33.7108C33.8773 10.5433 34.0423 10.5313 34.1953 10.5283C35.3155 10.5107 36.4276 10.7215 37.4638 11.1478C39.001 11.8463 40.3501 12.9003 41.3998 14.2228C42.3398 15.2835 42.9961 16.5647 43.3078 17.9473L43.3213 18.0163C43.3948 18.3854 43.4404 18.7594 43.4578 19.1353C43.4623 19.2568 43.4698 19.4098 43.4698 19.5448C43.4698 19.7623 43.4698 19.9783 43.4443 20.1928L43.4428 20.2513ZM6.01026 30.2398C6.00126 30.1738 5.99776 30.1063 5.99976 30.0373C5.98354 29.8928 5.98354 29.7468 5.99976 29.6023C6.01761 29.5174 6.03913 29.4333 6.06426 29.3503C6.09526 29.2163 6.13826 29.0868 6.19326 28.9618C6.24326 28.8718 6.29976 28.7858 6.36276 28.7038C6.45276 28.5558 6.56026 28.4233 6.68526 28.3063L6.69426 28.2988L9.51576 25.9063C9.70322 25.7619 9.9173 25.656 10.1458 25.5944C10.3742 25.5329 10.6126 25.517 10.8472 25.5476C11.0818 25.5783 11.3081 25.6549 11.513 25.773C11.718 25.8912 11.8977 26.0486 12.0418 26.2363C12.1474 26.3896 12.216 26.5653 12.242 26.7496C12.268 26.9339 12.2508 27.1218 12.1918 27.2983L7.76676 31.6093C7.46135 31.6145 7.15979 31.5405 6.89142 31.3947C6.62305 31.2488 6.39701 31.0359 6.23526 30.7768C6.1221 30.6163 6.04531 30.433 6.01026 30.2398ZM9.78426 33.8323L14.6398 29.1013L14.6173 29.0788C14.8909 28.9441 15.1991 28.8959 15.5008 28.9408C15.8863 29.0458 16.2343 29.2618 16.4998 29.5618C16.7638 29.7868 16.9408 30.0958 17.0008 30.4378C17.0231 30.7843 16.9472 31.13 16.7818 31.4353L16.7428 31.5628L11.8363 36.3433C11.492 36.3585 11.1484 36.2994 10.829 36.17C10.5096 36.0406 10.2219 35.8439 9.98526 35.5933C9.79094 35.3477 9.66915 35.0526 9.63363 34.7415C9.59812 34.4303 9.65029 34.1154 9.78426 33.8323ZM13.9618 38.4598L19.0318 33.5263C19.3543 33.5908 19.6498 33.7558 19.8748 33.9973C20.1857 34.2696 20.4021 34.6336 20.4928 35.0368C20.5157 35.2103 20.5081 35.3864 20.4703 35.5573L16.0858 39.8248C15.7932 39.8788 15.4918 39.8576 15.2097 39.7632C14.9277 39.6687 14.6742 39.5041 14.4733 39.2848C14.2389 39.055 14.0634 38.772 13.9618 38.4598ZM18.6673 42.9778C18.3953 42.7388 18.181 42.4414 18.0403 42.1078L22.1818 38.0773C22.4773 38.1748 22.7473 38.3353 22.9738 38.5468C23.1853 38.7157 23.3449 38.9408 23.4343 39.1963C23.4852 39.3854 23.4852 39.5847 23.4343 39.7738C23.2477 40.3792 22.9354 40.9384 22.5178 41.4148L21.3838 42.7348H21.3928C21.3553 42.7588 21.3133 42.7693 21.2788 42.7963C20.8559 43.1824 20.3117 43.4089 19.7398 43.4368C19.336 43.4298 18.951 43.2651 18.6673 42.9778ZM25.3783 43.4383C25.1563 43.4733 24.9333 43.4833 24.7093 43.4683L24.8203 43.3393L24.8563 43.2958L24.8578 43.2973C25.3119 42.735 25.6967 42.1201 26.0038 41.4658L26.6668 42.1678C26.6118 42.3098 26.5468 42.4463 26.4718 42.5773C26.3649 42.7931 26.2113 42.9823 26.0222 43.1312C25.833 43.2802 25.6131 43.3851 25.3783 43.4383ZM34.9783 37.8508L32.3098 34.8943C32.0806 34.6262 31.7643 34.4475 31.4164 34.3897C31.0684 34.3318 30.7113 34.3986 30.4077 34.5781C30.1042 34.7577 29.8737 35.0385 29.7568 35.3713C29.6399 35.7041 29.6442 36.0674 29.7688 36.3973C29.8382 36.5844 29.9443 36.7557 30.0808 36.9013L32.2348 39.3013C32.2198 39.4553 32.1883 39.6053 32.1403 39.7513C32.0152 40.1761 31.7302 40.5359 31.3453 40.7548C30.8763 41.0624 30.3072 41.1784 29.7553 41.0788L27.9553 39.1678C27.7612 38.963 27.5129 38.8176 27.2393 38.7488C26.9656 38.68 26.6781 38.6906 26.4103 38.7793C26.3859 38.6338 26.3543 38.4897 26.3158 38.3473C26.0678 37.5636 25.6072 36.8642 24.9853 36.3268C24.5498 35.9285 24.0503 35.6065 23.5078 35.3743C23.5162 35.0953 23.4986 34.8161 23.4553 34.5403C23.2616 33.519 22.7484 32.5856 21.9898 31.8748C21.4382 31.3162 20.7562 30.9037 20.0053 30.6748C20.0133 30.4748 20.0058 30.2748 19.9828 30.0748C19.8422 29.0646 19.3593 28.1333 18.6148 27.4363C17.9366 26.7261 17.0652 26.2302 16.1083 26.0098C15.7828 25.9469 15.4508 25.9243 15.1198 25.9423C15.0023 25.385 14.7642 24.8602 14.4223 24.4048C14.0372 23.9047 13.5572 23.4855 13.0099 23.1711C12.4626 22.8567 11.8586 22.6534 11.2326 22.5727C10.6066 22.492 9.97088 22.5356 9.36174 22.701C8.7526 22.8663 8.18206 23.1502 7.68276 23.5363L7.63026 23.5783L5.77776 25.1383C4.9088 23.5566 4.49299 21.7658 4.57609 19.9631C4.65919 18.1603 5.23798 16.4154 6.24876 14.9203L6.28026 14.8753C7.10182 13.6509 8.17907 12.6192 9.43776 11.8513C11.7341 10.6551 14.3638 10.2587 16.9108 10.7248L17.6068 10.8358C16.5788 11.2996 15.7576 12.1257 15.2998 13.1563C15.0785 13.7219 14.9733 14.3263 14.9903 14.9334C15.0073 15.5405 15.1462 16.138 15.3988 16.6903C15.8481 17.7771 16.6861 18.6576 17.7493 19.1601C18.8125 19.6626 20.0248 19.7511 21.1498 19.4083C23.1298 18.6748 25.4008 17.9383 26.2498 17.6698C26.3173 17.6676 26.3844 17.6806 26.4462 17.7078C26.508 17.7351 26.5629 17.7759 26.6068 17.8273C27.3403 18.5173 36.1948 26.2678 39.8938 29.4913L40.1938 29.7478C40.4267 30.1251 40.5263 30.5696 40.4765 31.0102C40.4267 31.4508 40.2305 31.862 39.9193 32.1778C39.7055 32.4082 39.4248 32.5656 39.1168 32.6278L36.5173 29.9923C36.2343 29.723 35.8579 29.5741 35.4673 29.5772C35.0767 29.5802 34.7025 29.7348 34.4238 30.0085C34.1451 30.2822 33.9836 30.6534 33.9734 31.0439C33.9632 31.4343 34.1052 31.8135 34.3693 32.1013L36.8533 34.6183C36.8633 34.6633 36.8753 34.7078 36.8893 34.7518L36.9073 34.7983C37.0194 35.1186 37.0875 35.4527 37.1098 35.7913C37.1515 36.0485 37.1295 36.312 37.0455 36.5586C36.9616 36.8053 36.8183 37.0275 36.6283 37.2058C36.1798 37.6258 35.5873 37.8568 34.9738 37.8508H34.9783Z" fill="#3BF5FF"/>
</svg>
