<svg width="85" height="84" viewBox="0 0 85 84" fill="none" xmlns="http://www.w3.org/2000/svg">
<path d="M63.3184 69.9401L76.6707 56.5878C77.0637 56.1953 77.2847 55.6628 77.2852 55.1073V36.7688C77.2852 35.3797 76.7334 34.0475 75.7512 33.0653C74.7689 32.0831 73.4367 31.5312 72.0477 31.5312C70.6586 31.5313 69.3264 32.0831 68.3441 33.0653C67.3619 34.0475 66.8101 35.3797 66.8101 36.7688V52.4816" stroke="#009199" stroke-width="5.23758" stroke-linecap="round" stroke-linejoin="round"/>
<path d="M63.3187 55.9733L66.3145 52.9774C66.4726 52.8207 66.5978 52.634 66.6829 52.4284C66.7681 52.2228 66.8114 52.0023 66.8104 51.7797C66.8079 51.4662 66.7193 51.1593 66.5543 50.8927C66.3893 50.626 66.1541 50.4099 65.8746 50.2678L64.3278 49.4961C63.0173 48.8409 61.5339 48.6144 60.0876 48.8488C58.6413 49.0832 57.3054 49.7665 56.2689 50.802L53.1438 53.9271C51.8341 55.2365 51.098 57.0124 51.0976 58.8644V69.9401M21.418 69.9401L8.06571 56.5878C7.67271 56.1953 7.45166 55.6628 7.45117 55.1073V36.7688C7.45117 35.3797 8.00299 34.0475 8.98522 33.0653C9.96746 32.0831 11.2997 31.5313 12.6887 31.5312C14.0778 31.5313 15.41 32.0831 16.3923 33.0653C17.3745 34.0475 17.9263 35.3797 17.9263 36.7688V52.4816" stroke="#009199" stroke-width="5.23758" stroke-linecap="round" stroke-linejoin="round"/>
<path d="M21.4195 55.9709L18.4236 52.975C18.1107 52.6542 17.9332 52.2254 17.9277 51.7774C17.9277 51.1384 18.2909 50.5553 18.8635 50.2655L20.4103 49.4938C21.7208 48.8385 23.2042 48.6121 24.6505 48.8464C26.0968 49.0808 27.4327 49.7641 28.4692 50.7997L31.5943 53.9248C32.9041 55.2341 33.6401 57.0101 33.6405 58.8621V69.9378M48.1904 42.0041H36.5491V33.8579H28.4029V22.2165H36.5491V14.0703H48.1904V22.2165H56.3366V33.8579H48.1904V42.0041Z" stroke="#009199" stroke-width="5.23758" stroke-linecap="round" stroke-linejoin="round"/>
</svg>
