<svg width="48" height="48" viewBox="0 0 48 48" fill="none" xmlns="http://www.w3.org/2000/svg">
<path d="M44.0036 43.9989C43.1855 41.6615 41.6614 39.6361 39.642 38.2028C37.6226 36.7694 35.2077 35.999 32.7313 35.998C30.2549 35.999 27.84 36.7694 25.8206 38.2028C23.8012 39.6361 22.2771 41.6615 21.459 43.9989M26.4017 22.2188C27.5384 23.395 28.9003 24.3303 30.4063 24.9687C31.9123 25.6071 33.5314 25.9357 35.1671 25.9347C36.8251 25.9565 38.4702 25.642 40.0032 25.0102" stroke="#3BF5FF" stroke-width="2.35294" stroke-linecap="round" stroke-linejoin="round"/>
<path d="M32.5003 35.9993V44.0001M25.4062 25.9893C25.4063 27.9321 26.178 29.7953 27.5518 31.169C28.9255 32.5428 30.7887 33.3145 32.7315 33.3145C34.6743 33.3145 36.5375 32.5428 37.9112 31.169C39.2849 29.7953 40.0567 27.9321 40.0567 25.9893C40.0567 24.0465 39.2849 22.1833 37.9112 20.8096C36.5375 19.4358 34.6743 18.6641 32.7315 18.6641C30.7887 18.6641 28.9255 19.4358 27.5518 20.8096C26.178 22.1833 25.4063 24.0465 25.4062 25.9893Z" stroke="#3BF5FF" stroke-width="2.35294" stroke-linecap="round" stroke-linejoin="round"/>
<path d="M12.8724 40.6219C10.1802 38.819 7.96634 36.3891 6.42114 33.5412C4.87594 30.6933 4.04569 27.5127 4.00183 24.2729C3.95797 21.0331 4.7018 17.8312 6.16934 14.9425C7.63688 12.0538 9.7842 9.56491 12.4266 7.68982C15.069 5.81473 18.1273 4.60962 21.3385 4.17815C24.5497 3.74668 27.8177 4.10176 30.8613 5.21286C33.9049 6.32395 36.6331 8.1578 38.8111 10.5566C40.9891 12.9555 42.5517 15.8475 43.3646 18.984" stroke="#3BF5FF" stroke-width="2.35294" stroke-linecap="round" stroke-linejoin="round"/>
<path d="M16.8918 37.1583C14.7481 30.3574 14.2006 23.154 15.2916 16.1072C15.7494 12.0322 17.0773 8.10313 19.1854 4.58594M4.03711 22.6679H20.0033M7.07744 13.3335H40.93M5.67284 32.0022H20.0033M28.822 4.58594C30.4931 7.26456 31.6508 10.231 32.2357 13.3335" stroke="#3BF5FF" stroke-width="2.35294" stroke-linecap="round" stroke-linejoin="round"/>
</svg>
