<svg width="16" height="16" viewBox="0 0 16 16" fill="none" xmlns="http://www.w3.org/2000/svg">
<path d="M2.64655 11.5587C3.14171 11.5587 3.54311 11.1573 3.54311 10.6622C3.54311 10.167 3.14171 9.76562 2.64655 9.76562C2.1514 9.76562 1.75 10.167 1.75 10.6622C1.75 11.1573 2.1514 11.5587 2.64655 11.5587Z" fill="white"/>
<path d="M6.90464 14.248C6.22706 14.2469 5.55944 14.0847 4.95693 13.7747C4.35441 13.4647 3.83427 13.0159 3.43945 12.4652L4.16835 11.9434C4.47995 12.3784 4.89064 12.733 5.36645 12.9779C5.84226 13.2227 6.36953 13.3508 6.90464 13.3514C8.68385 13.3514 10.1582 11.9618 10.2609 10.1875L11.1561 10.2395C11.0261 12.4872 9.15813 14.248 6.90464 14.248Z" fill="white"/>
<path d="M13.4044 12.0119C13.8995 12.0119 14.3009 11.6105 14.3009 11.1153C14.3009 10.6202 13.8995 10.2188 13.4044 10.2188C12.9092 10.2188 12.5078 10.6202 12.5078 11.1153C12.5078 11.6105 12.9092 12.0119 13.4044 12.0119Z" fill="white"/>
<path d="M14.5898 9.35943L13.7273 9.11512C13.8118 8.81613 13.8545 8.50687 13.8542 8.19615C13.8542 6.34252 12.3461 4.83407 10.4921 4.83407C10.0146 4.83237 9.54245 4.93375 9.10779 5.13128L8.73841 4.31452C9.28913 4.06445 9.88723 3.93587 10.4921 3.93752C12.8401 3.93752 14.7507 5.84807 14.7507 8.19615C14.7507 8.59064 14.6969 8.98243 14.5898 9.35943ZM10.0052 7.3377L8.66041 5.99287C8.49141 5.82432 8.26592 5.73063 8.02654 5.73063C7.78716 5.73063 7.56168 5.82387 7.39268 5.99332L6.04785 7.33815C5.87302 7.51298 5.78516 7.7425 5.78516 7.97201C5.78516 8.20153 5.87302 8.43105 6.04785 8.60588L7.39268 9.95071C7.56168 10.1202 7.78716 10.2134 8.02654 10.2134C8.26592 10.2134 8.49141 10.1202 8.66041 9.95071L10.0052 8.60588C10.1801 8.43105 10.2679 8.20153 10.2679 7.97201C10.2679 7.7425 10.1801 7.51298 10.0052 7.33815M8.02654 9.31685L6.68171 7.97201L8.02654 6.62718L9.37138 7.97201L8.02654 9.31685Z" fill="white"/>
<path d="M8.02546 3.04311C8.52061 3.04311 8.92202 2.64171 8.92202 2.14655C8.92202 1.6514 8.52061 1.25 8.02546 1.25C7.53031 1.25 7.12891 1.6514 7.12891 2.14655C7.12891 2.64171 7.53031 3.04311 8.02546 3.04311Z" fill="white"/>
<path d="M4.45181 9.71205C3.77084 9.34896 3.20146 8.80747 2.80466 8.14557C2.40785 7.48368 2.19857 6.72631 2.19922 5.95459C2.19922 3.7011 3.96005 1.83357 6.20772 1.70312L6.25972 2.59834C5.52845 2.642 4.83143 2.92325 4.27464 3.39933C3.71785 3.87541 3.33175 4.52028 3.17503 5.23589C3.01831 5.95151 3.09955 6.69872 3.40639 7.36394C3.71323 8.02916 4.2289 8.57599 4.87499 8.92129L4.45181 9.71205Z" fill="white"/>
</svg>
