<svg width="48" height="48" viewBox="0 0 48 48" fill="none" xmlns="http://www.w3.org/2000/svg">
<path d="M30 27V36.75C30 39.6 31.65 42.3 34.35 43.5L37.5 45L40.65 43.5C43.2 42.3 45 39.6 45 36.75V27H30ZM42 36.75C42 38.55 40.95 40.05 39.45 40.8L37.5 41.7L35.55 40.8C34.05 40.05 33 38.4 33 36.75V30H42V36.75ZM24 30C20.7 30 18 27.3 18 24C18 20.7 20.7 18 24 18C27.3 18 30 20.7 30 24H27C27 22.35 25.65 21 24 21C22.35 21 21 22.35 21 24C21 25.65 22.35 27 24 27V30Z" fill="#3BF5FF"/>
<path d="M24 37.5C16.5 37.5 10.5 31.5 10.5 24C10.5 16.5 16.5 10.5 24 10.5C31.5 10.5 37.5 16.5 37.5 24H34.5C34.5 18.15 29.85 13.5 24 13.5C18.15 13.5 13.5 18.15 13.5 24C13.5 29.85 18.15 34.5 24 34.5V37.5Z" fill="#3BF5FF"/>
<path d="M24 45C12.45 45 3 35.55 3 24C3 12.45 12.45 3 24 3C35.55 3 45 12.45 45 24H42C42 14.1 33.9 6 24 6C14.1 6 6 14.1 6 24C6 33.9 14.1 42 24 42V45Z" fill="#3BF5FF"/>
</svg>
