<svg width="56" height="56" viewBox="0 0 56 56" fill="none" xmlns="http://www.w3.org/2000/svg">
<path d="M45.5 28.77C45.5 37.45 37.31 42.245 30.7125 46.095C29.7675 46.655 28.84 47.18 28 47.705C27.1425 47.18 26.2325 46.6375 25.2875 46.095C18.7075 42.245 10.5 37.45 10.5 28.77V7H47.25V3.5H10.5C8.575 3.5 7 5.075 7 7V28.77C7 39.4625 16.5375 45.045 23.52 49.1225C24.78 49.8575 25.9875 50.5575 27.055 51.2575L28 51.87L28.945 51.2575C30.0125 50.575 31.22 49.875 32.48 49.1225C39.445 45.045 49 39.4625 49 28.77V22.435C51.03 21.7175 52.5 19.7925 52.5 17.5C52.5 14.6125 50.1375 12.25 47.25 12.25C44.3625 12.25 42 14.6125 42 17.5C42 19.775 43.47 21.7 45.5 22.435V28.77ZM47.25 19.25C46.2875 19.25 45.5 18.4625 45.5 17.5C45.5 16.5375 46.2875 15.75 47.25 15.75C48.2125 15.75 49 16.5375 49 17.5C49 18.4625 48.2125 19.25 47.25 19.25ZM36.75 15.75H22.75V12.25H36.75V15.75ZM36.75 36.75H22.75V33.25H36.75V36.75ZM26.25 22.75H40.25V26.2325H26.25V22.75ZM16.9925 30.9925L14.525 28.525L18.5325 24.5175L14.525 20.51L16.9925 18.0425L23.485 24.535L16.9925 31.0275V30.9925Z" fill="#C6BBBB"/>
</svg>
