<svg width="48" height="48" viewBox="0 0 48 48" fill="none" xmlns="http://www.w3.org/2000/svg">
<path d="M36.0022 27.4297C38.2411 27.4297 40.1474 28.8611 40.8537 30.8583H24.0022V30.0011H12.0022C11.3633 30.0011 10.7472 30.239 10.274 30.6684C9.8009 31.0978 9.50457 31.688 9.4428 32.324L9.4308 32.5725V33.7983C9.4308 38.3823 15.2405 42.0011 24.0022 42.0011V41.144H36.8097C33.7411 43.2748 29.2497 44.5725 24.0022 44.5725C14.0765 44.5725 6.85938 40.172 6.85938 33.7983V32.5725C6.85937 31.2086 7.40121 29.9005 8.36568 28.936C9.33016 27.9715 10.6383 27.4297 12.0022 27.4297H36.0022ZM41.1451 32.5725V33.7983C41.1451 34.2554 41.1051 34.704 41.0251 35.144H24.0022V32.5725H41.1451ZM40.5091 36.8583H24.0022V39.4297H38.8034C39.5354 38.6394 40.1114 37.7771 40.5091 36.8583ZM34.2091 12.4297C34.3167 13.2835 34.3167 14.1473 34.2091 15.0011H24.0022V12.4297H34.2091ZM33.8439 10.7154C33.5663 9.80721 33.1642 8.94184 32.6491 8.14397H24.0022V10.7154H33.8439ZM24.0022 3.42969C26.8359 3.42969 29.4022 4.57654 31.2622 6.42969H24.0022V6.00112C21.9563 6.00112 19.9941 6.81387 18.5474 8.26058C17.1007 9.70729 16.2879 11.6694 16.2879 13.7154C16.2879 15.7614 17.1007 17.7235 18.5474 19.1702C19.9941 20.6169 21.9563 21.4297 24.0022 21.4297V21.0011H31.2622C30.0646 22.1946 28.5912 23.0744 26.9725 23.5628C25.3538 24.0511 23.6397 24.1329 21.9819 23.8008C20.324 23.4688 18.7736 22.7332 17.4678 21.6592C16.162 20.5851 15.1411 19.2057 14.4955 17.6431C13.8499 16.0805 13.5994 14.3828 13.7663 12.7003C13.9331 11.0178 14.5122 9.40234 15.4522 7.99697C16.3922 6.59159 17.6641 5.43961 19.1554 4.64297C20.6468 3.84633 22.3115 3.42961 24.0022 3.42969ZM32.6491 19.2868H24.0022V16.7154H33.8422C33.5651 17.6235 33.1636 18.4889 32.6491 19.2868Z" fill="#3BF5FF"/>
</svg>
