<svg width="32" height="32" viewBox="0 0 32 32" fill="none" xmlns="http://www.w3.org/2000/svg">
<path d="M3.33301 16.0026C3.33301 10.0315 3.33301 7.04592 5.18799 5.19092C7.04299 3.33594 10.0286 3.33594 15.9997 3.33594C21.9707 3.33594 24.9563 3.33594 26.8114 5.19092C28.6663 7.04592 28.6663 10.0315 28.6663 16.0026C28.6663 21.9737 28.6663 24.9593 26.8114 26.8143C24.9563 28.6693 21.9707 28.6693 15.9997 28.6693C10.0286 28.6693 7.04299 28.6693 5.18799 26.8143C3.33301 24.9593 3.33301 21.9737 3.33301 16.0026Z" stroke="#CACED5" stroke-width="2" stroke-linejoin="round"/>
<path d="M22 16C22 19.3137 19.3137 22 16 22C12.6863 22 10 19.3137 10 16C10 12.6863 12.6863 10 16 10C19.3137 10 22 12.6863 22 16Z" stroke="#CACED5" stroke-width="2"/>
<path d="M23.344 8.66406H23.332" stroke="#CACED5" stroke-width="2.66667" stroke-linecap="round" stroke-linejoin="round"/>
</svg>
