<svg width="26" height="26" viewBox="0 0 26 26" fill="none" xmlns="http://www.w3.org/2000/svg">
<path d="M17.0625 21.1276C17.0625 20.2318 16.7573 19.4909 16.1982 19.1165C15.2855 18.5054 14.1859 18.1484 13 18.1484C11.8141 18.1484 10.7145 18.5054 9.80184 19.1165C9.24271 19.4909 8.9375 20.2318 8.9375 21.1276C8.9375 21.5763 8.57373 21.9401 8.125 21.9401C7.67627 21.9401 7.3125 21.5763 7.3125 21.1276C7.3125 19.9314 7.7191 18.556 8.89836 17.7665C10.0707 16.9816 11.4828 16.5234 13 16.5234C14.5172 16.5234 15.9293 16.9816 17.1016 17.7665C18.2809 18.556 18.6875 19.9314 18.6875 21.1276C18.6875 21.5763 18.3237 21.9401 17.875 21.9401C17.4263 21.9401 17.0625 21.5763 17.0625 21.1276Z" fill="#3BF5FF"/>
<path d="M14.8962 11.9193C14.8962 10.8722 14.0474 10.0234 13.0003 10.0234C11.9533 10.0234 11.1045 10.8722 11.1045 11.9193C11.1045 12.9663 11.9533 13.8151 13.0003 13.8151C14.0474 13.8151 14.8962 12.9663 14.8962 11.9193ZM16.5212 11.9193C16.5212 13.8638 14.9448 15.4401 13.0003 15.4401C11.0558 15.4401 9.47949 13.8638 9.47949 11.9193C9.47949 9.97477 11.0558 8.39844 13.0003 8.39844C14.9448 8.39844 16.5212 9.97477 16.5212 11.9193Z" fill="#3BF5FF"/>
<path d="M22.4788 15.7057V15.601C22.4787 14.7488 22.2169 14.048 21.7161 13.6702C20.9194 13.0694 19.9715 12.7266 18.958 12.7266C18.5093 12.7266 18.1455 12.3628 18.1455 11.9141C18.1455 11.4653 18.5093 11.1016 18.958 11.1016C20.3497 11.1016 21.6369 11.5755 22.6947 12.3732C23.7652 13.1808 24.1037 14.4848 24.1038 15.601V15.7057C24.1038 16.1545 23.7401 16.5182 23.2913 16.5182C22.8426 16.5182 22.4788 16.1545 22.4788 15.7057Z" fill="#3BF5FF"/>
<path d="M20.3128 7.04167C20.3128 6.29378 19.7065 5.6875 18.9587 5.6875C18.2108 5.6875 17.6045 6.29378 17.6045 7.04167C17.6045 7.78955 18.2108 8.39583 18.9587 8.39583C19.7065 8.39583 20.3128 7.78955 20.3128 7.04167ZM21.9378 7.04167C21.9378 8.68701 20.604 10.0208 18.9587 10.0208C17.3133 10.0208 15.9795 8.68701 15.9795 7.04167C15.9795 5.39632 17.3133 4.0625 18.9587 4.0625C20.604 4.0625 21.9378 5.39632 21.9378 7.04167Z" fill="#3BF5FF"/>
<path d="M1.89551 15.7057V15.601C1.89561 14.4848 2.23408 13.1808 3.30469 12.3732C4.36248 11.5754 5.64958 11.1016 7.04134 11.1016C7.49007 11.1016 7.85384 11.4653 7.85384 11.9141C7.85384 12.3628 7.49007 12.7266 7.04134 12.7266C6.02783 12.7266 5.07994 13.0694 4.28328 13.6702C3.78242 14.048 3.52061 14.7488 3.52051 15.601V15.7057C3.52051 16.1545 3.15674 16.5182 2.70801 16.5182C2.25928 16.5182 1.89551 16.1545 1.89551 15.7057Z" fill="#3BF5FF"/>
<path d="M8.39583 7.04167C8.39583 6.29378 7.78955 5.6875 7.04167 5.6875C6.29378 5.6875 5.6875 6.29378 5.6875 7.04167C5.6875 7.78955 6.29378 8.39583 7.04167 8.39583C7.78955 8.39583 8.39583 7.78955 8.39583 7.04167ZM10.0208 7.04167C10.0208 8.68701 8.68701 10.0208 7.04167 10.0208C5.39632 10.0208 4.0625 8.68701 4.0625 7.04167C4.0625 5.39632 5.39632 4.0625 7.04167 4.0625C8.68701 4.0625 10.0208 5.39632 10.0208 7.04167Z" fill="#3BF5FF"/>
</svg>
