<svg width="40" height="40" viewBox="0 0 40 40" fill="none" xmlns="http://www.w3.org/2000/svg">
<path d="M24.1663 11.6641H15.833C10.3539 11.6641 7.61431 11.6641 5.77039 13.1773C5.43282 13.4544 5.12331 13.7639 4.84627 14.1014C3.33301 15.9454 3.33301 18.6849 3.33301 24.1641C3.33301 29.6432 3.33301 32.3827 4.84627 34.2267C5.12331 34.5642 5.43282 34.8737 5.77039 35.1507C7.61431 36.6641 10.3539 36.6641 15.833 36.6641H24.1663C29.6455 36.6641 32.385 36.6641 34.229 35.1507C34.5665 34.8737 34.876 34.5642 35.153 34.2267C36.6663 32.3827 36.6663 29.6432 36.6663 24.1641C36.6663 18.6849 36.6663 15.9454 35.153 14.1014C34.876 13.7639 34.5665 13.4544 34.229 13.1773C32.385 11.6641 29.6455 11.6641 24.1663 11.6641Z" stroke="#3BF5FF" stroke-width="2" stroke-linecap="round"/>
<path d="M20 11.6693V8.33594C20 7.41547 20.7462 6.66927 21.6667 6.66927C22.5872 6.66927 23.3333 5.92307 23.3333 5.0026V3.33594" stroke="#3BF5FF" stroke-width="2" stroke-linecap="round" stroke-linejoin="round"/>
<path d="M11.667 20H13.3337" stroke="#3BF5FF" stroke-width="2" stroke-linecap="round" stroke-linejoin="round"/>
<path d="M19.167 20H20.8337" stroke="#3BF5FF" stroke-width="2" stroke-linecap="round" stroke-linejoin="round"/>
<path d="M26.667 20H28.3337" stroke="#3BF5FF" stroke-width="2" stroke-linecap="round" stroke-linejoin="round"/>
<path d="M11.667 28.3359H28.3337" stroke="#3BF5FF" stroke-width="2" stroke-linecap="round" stroke-linejoin="round"/>
</svg>
