<svg width="160" height="16" viewBox="0 0 160 16" fill="none" xmlns="http://www.w3.org/2000/svg">
<g style="mix-blend-mode:luminosity" clip-path="url(#clip0_3917_48731)">
<path d="M121.278 4.59122C121.278 2.30002 122.472 1.1125 124.667 1.1125H128.708C131.167 1.1125 133.083 2.98458 133.083 5.38755C133.083 6.68683 132.542 7.76258 131.653 8.44714L132.861 10.3891C133.194 10.906 133.333 11.4648 133.333 12.0516C133.333 13.784 131.972 15.1252 130.278 15.1252C129.222 15.1252 128.194 14.5943 127.611 13.6024L127.278 13.0156C126.875 14.245 125.778 15.1112 124.375 15.1112C122.667 15.1112 121.264 13.6582 121.264 11.9119V4.59122H121.278ZM120.347 12.4288C120.347 13.9376 119.153 15.1391 117.694 15.1112H112.861C110.653 15.1112 109.444 13.9376 109.444 11.6325V4.60519C109.444 2.32796 110.639 1.12647 112.861 1.12647H117.694C119.153 1.12647 120.347 2.32796 120.347 3.8368C120.347 5.20593 119.514 6.18388 118.319 6.42139C118.875 6.77066 119.167 7.35743 119.167 8.13979C119.167 8.92215 118.847 9.50892 118.319 9.85819C119.5 10.0817 120.347 11.1016 120.347 12.4288ZM105.694 11.9678C105.694 13.7001 104.25 15.1112 102.333 15.1112C100.528 15.1112 99.0695 13.6862 99.0695 11.9678V7.13389C97.5139 7.0361 96.2361 5.75079 96.2361 4.13018C96.2361 2.42575 97.5833 1.12647 99.2222 1.12647H105.528C107.181 1.12647 108.514 2.45369 108.514 4.13018C108.514 5.76476 107.236 7.06404 105.681 7.13389V11.9678H105.694ZM83.9445 4.59122C83.9445 2.30002 85.1528 1.1125 87.3333 1.1125H91.375C93.8333 1.1125 95.75 2.98458 95.75 5.38755C95.75 6.68683 95.2083 7.76258 94.3194 8.44714L95.5278 10.3891C95.8611 10.906 96 11.4648 96 12.0516C96 13.784 94.6389 15.1252 92.9445 15.1252C91.8889 15.1252 90.8611 14.5943 90.2778 13.6024L89.9444 13.0156C89.5417 14.245 88.4445 15.1112 87.0417 15.1112C85.3333 15.1112 83.9306 13.6582 83.9306 11.9119V4.59122H83.9445ZM76.2778 12.4567C75.4861 14.1053 74.375 14.8877 73.0139 14.8877C70.5695 14.8877 68.8056 12.6384 69.9028 10.1097L72.7639 3.43165C73.4722 1.79707 74.5278 0.888971 76.2917 0.888971C78.0833 0.888971 79.125 1.79707 79.8333 3.43165L82.6945 10.1097C83.7639 12.6384 82.0139 14.8877 79.5556 14.8877C78.1806 14.8877 77.0556 14.0913 76.2778 12.4567ZM68.125 11.9678C68.125 13.7001 66.6667 15.1112 64.7778 15.1112C62.9722 15.1112 61.5 13.6862 61.5 11.9678V7.13389C59.9444 7.0361 58.6667 5.75079 58.6667 4.13018C58.6667 2.42575 60.0139 1.12647 61.6667 1.12647H67.9583C69.6111 1.12647 70.9583 2.45369 70.9583 4.13018C70.9583 5.76476 69.6806 7.06404 68.125 7.13389V11.9678ZM58.6667 10.5707C58.6667 13.3509 56.5278 15.1112 52.9306 15.1112C49.2639 15.1112 47.5417 13.8538 47.5417 11.7862C47.5417 10.3611 48.6389 9.43907 50.1944 9.43907H50.2222L49.3889 8.67068C48.3472 7.7067 47.625 6.75668 47.625 5.34564C47.625 2.60737 49.625 0.875 53.0417 0.875C56.5278 0.875 58.1806 2.1184 58.1806 4.20004C58.1806 5.44343 57.3472 6.28168 56.0833 6.4633L56.9444 7.23169C57.9722 8.19567 58.6667 9.17362 58.6667 10.5707ZM46.8472 11.7442C46.8472 13.4626 45.4167 14.9016 43.6667 14.8737C42.6806 14.8737 41.6806 14.4127 41.0694 13.5325L40.4167 12.6104C40.1111 13.9516 38.9444 14.8877 37.4444 14.8877C35.7083 14.8877 34.3333 13.4906 34.3333 11.7722V4.00445C34.3194 2.28605 35.6806 0.888971 37.4306 0.888971C38.9583 0.888971 40.1389 1.88089 40.4306 3.25003L41.1528 2.23016C41.7639 1.39192 42.75 0.902941 43.7222 0.902941C45.4028 0.902941 46.8333 2.23016 46.8333 3.94856C46.8333 4.60519 46.6528 5.24784 46.25 5.77873L44.75 7.8464L46.25 9.91407C46.6528 10.4729 46.8472 11.1016 46.8472 11.7442ZM33.1528 11.0317C33.1528 13.281 31.2917 14.8737 28.2917 14.8737C24.2778 14.8737 21.3333 11.8839 21.3333 7.87434C21.3333 3.86474 24.2778 0.875 28.2917 0.875C31.2917 0.875 33.1528 2.46767 33.1528 4.71696C33.1528 6.2258 32.4167 7.24566 30.9444 7.87434C32.4167 8.517 33.1528 9.55083 33.1528 11.0317ZM16.8194 0.888971C18.6944 0.888971 20.1944 2.42575 20.1667 4.24195V11.5487C20.1667 13.3648 18.6944 14.9016 16.7917 14.9016C14.9444 14.9016 13.4444 13.3928 13.4444 11.5487V4.24195C13.4444 2.42575 14.9444 0.888971 16.8194 0.888971ZM12.5278 11.7442C12.5278 13.4626 11.0972 14.9016 9.33333 14.8737C8.34722 14.8737 7.34722 14.4127 6.73611 13.5325L6.08333 12.6104C5.77778 13.9516 4.61111 14.8877 3.11111 14.8877C1.375 14.8877 0 13.4906 0 11.7722V4.00445C0 2.28605 1.36111 0.888971 3.11111 0.888971C4.625 0.888971 5.81945 1.88089 6.09722 3.25003L6.84722 2.23016C7.45833 1.39192 8.43056 0.902941 9.41667 0.902941C11.0972 0.902941 12.5278 2.23016 12.5278 3.94856C12.5278 4.60519 12.3472 5.24784 11.9444 5.77873L10.4444 7.8464L11.9444 9.91407C12.3333 10.4729 12.5278 11.1016 12.5278 11.7442Z" fill="#05CE78"/>
</g>
<defs>
<clipPath id="clip0_3917_48731">
<rect width="160" height="14.2222" fill="white" transform="translate(0 0.890625)"/>
</clipPath>
</defs>
</svg>
