<svg xmlns="http://www.w3.org/2000/svg" width="329" height="56" fill="none" xmlns:v="https://vecta.io/nano"><g clip-path="url(#A)"><path d="M52.447 12.459c-.329-1.06-1.117-1.922-2.103-2.452L30.299.331C29.773.066 29.182 0 28.656 0s-1.117 0-1.643.133L6.968 9.875c-.986.464-1.709 1.325-1.972 2.452L.002 34.13c-.197 1.127.066 2.253.723 3.181l13.867 17.297c.789.795 1.906 1.325 3.023 1.392h22.148c1.183.133 2.3-.398 3.023-1.392l13.867-17.297c.657-.928.92-2.054.789-3.181l-4.995-21.671z" fill="#bacff9"/><path d="M49.287 33.268c-.066 0-.066 0-.066-.066s-.197-.066-.263-.066c-.263-.066-.526-.066-.789-.066-.132 0-.263 0-.394-.066h-.066c-.723-.066-1.512-.199-2.234-.398a.8.8 0 0 1-.46-.464c0-.066-.066-.066-.066-.066l-.526-.133c.263-1.922.131-3.91-.263-5.832-.46-1.922-1.249-3.777-2.3-5.434l.394-.398v-.066c0-.199.066-.464.197-.596.592-.464 1.183-.928 1.84-1.259l.394-.199.723-.398c.066-.066.131-.066.197-.132l.066-.066c.591-.464.723-1.259.263-1.856-.197-.265-.591-.464-.92-.464s-.657.133-.92.331l-.066.066c-.066.066-.131.133-.197.133-.197.199-.394.398-.526.596-.066.133-.197.199-.263.265-.526.53-1.052 1.06-1.643 1.458-.132.066-.263.133-.394.133-.066 0-.197 0-.263-.066l-.526.398-1.643-1.591c-2.432-1.922-5.455-3.115-8.544-3.446l-.066-.53-.066-.066c-.197-.133-.263-.331-.329-.53 0-.729 0-1.458.131-2.253v-.066c0-.133.066-.265.066-.398.066-.265.066-.53.131-.795v-.398c.066-.663-.46-1.325-1.117-1.325-.394 0-.789.133-1.052.398s-.394.596-.394.928v.331c0 .265.066.53.131.795.066.133.066.265.066.398v.066c.131.729.131 1.458.131 2.253-.066.199-.131.398-.329.53l-.066.066-.066.53c-.723.066-1.446.199-2.235.331-3.089.663-5.915 2.32-8.084 4.639l-.394-.265h-.066c-.066 0-.132.066-.263.066s-.329-.066-.394-.133c-.591-.464-1.117-.994-1.643-1.524-.066-.133-.197-.199-.263-.265-.197-.199-.329-.398-.526-.596-.066-.066-.132-.066-.197-.133l-.066-.066c-.263-.199-.591-.331-.92-.331-.394 0-.723.133-.986.464-.394.596-.263 1.392.263 1.856.066 0 .066.066.066.066s.131.133.197.133c.197.133.46.265.723.398l.394.199c.657.398 1.249.795 1.84 1.259.131.133.263.398.197.597v.066l.394.398c-.066.133-.131.199-.197.331-2.037 3.247-2.826 7.091-2.234 10.869l-.526.133c0 .066-.066.066-.066.066-.066.199-.263.331-.46.464a12.12 12.12 0 0 1-2.235.398H9.46c-.131 0-.263 0-.394.066-.263 0-.526.066-.789.066-.066 0-.131.066-.263.066-.066 0-.066 0-.131.066a1.29 1.29 0 0 0-1.052 1.524c.131.596.723.994 1.314.928.131 0 .197 0 .329-.066.066 0 .066 0 .066-.066s.131-.066.263-.066c.263-.066.526-.199.723-.265.131-.066.263-.133.394-.133h.066a10.98 10.98 0 0 1 2.103-.596h.066c.197 0 .394.066.526.199.066 0 .066.066.066.066l.591-.066c.986 3.049 2.826 5.766 5.389 7.754.591.464 1.117.861 1.774 1.193l-.263.53c0 .066.066.066.066.066.131.199.131.464.066.663-.263.663-.657 1.325-1.051 1.922v.066c-.066.133-.132.199-.263.331s-.263.398-.46.663c-.066.066-.066.133-.131.199 0 0 0 .066-.066.066-.329.663-.066 1.458.526 1.789a1.23 1.23 0 0 0 .526.133c.526 0 .986-.331 1.249-.795 0 0 0-.066.066-.066 0-.066.066-.133.131-.199.066-.265.197-.464.263-.729l.131-.398c.197-.729.526-1.392.854-2.054.131-.199.329-.331.526-.398.066 0 .066 0 .066-.066l.263-.53c1.84.729 3.746 1.06 5.718 1.06 1.183 0 2.366-.133 3.549-.398.723-.133 1.446-.398 2.103-.596l.263.464c.066 0 .066 0 .066.066.197.066.394.199.526.398.329.663.592 1.325.854 1.988v.066l.131.398c.066.265.131.53.263.729.066.066.066.133.131.199 0 0 0 .066.066.066.263.464.723.795 1.249.795.197 0 .329-.066.526-.133.263-.133.526-.398.592-.729s.066-.729-.066-1.06c0-.066-.066-.066-.066-.066 0-.066-.066-.133-.132-.199-.131-.265-.263-.464-.46-.663-.066-.133-.131-.199-.263-.331v-.066c-.46-.596-.789-1.259-1.051-1.922-.066-.199-.066-.464.066-.663 0-.066.066-.066.066-.066l-.197-.53c3.418-2.055 5.915-5.236 7.164-9.013l.526.066c.066 0 .066-.066.066-.066.131-.133.329-.199.526-.199h.066a10.98 10.98 0 0 1 2.103.596h.066c.132.066.263.133.394.133a3.18 3.18 0 0 0 .723.265c.066 0 .131.066.263.066.066 0 .066 0 .131.066.132.066.197.066.329.066a1.43 1.43 0 0 0 1.314-.928c-.197-.663-.657-1.193-1.314-1.325zm-18.928-2.054l-1.774.861-1.775-.861-.526-1.922 1.249-1.591h2.037l1.249 1.591-.46 1.922zm10.713-4.308c.329 1.392.394 2.783.263 4.175l-6.244-1.789c-.591-.133-.92-.729-.789-1.326.066-.199.131-.331.263-.464l4.929-4.506c.723 1.193 1.249 2.518 1.577 3.91zm-3.549-6.362l-5.323 3.844c-.46.265-1.117.199-1.446-.265-.131-.133-.197-.265-.197-.464l-.394-6.693c2.76.331 5.389 1.591 7.361 3.579zm-11.896-3.38l1.314-.265-.394 6.627c0 .596-.526 1.06-1.117 1.06-.197 0-.329-.066-.526-.133l-5.323-3.91c1.643-1.657 3.746-2.85 6.046-3.38zm-8.018 5.832l4.863 4.374a1.07 1.07 0 0 1 .131 1.524c-.131.199-.263.265-.526.331l-6.309 1.856c-.263-2.783.394-5.633 1.84-8.085zm-1.117 11.2l6.506-1.127c.526 0 1.052.331 1.117.861a.79.79 0 0 1-.066.663l-2.497 6.097c-2.3-1.524-4.14-3.844-5.06-6.495zm14.919 8.218c-.92.199-1.906.331-2.892.331-1.38 0-2.826-.265-4.14-.663l3.22-5.898c.329-.398.854-.53 1.314-.265.197.133.329.265.526.464l3.155 5.766c-.329.066-.723.133-1.183.265zm8.018-5.766c-.986 1.591-2.366 2.982-3.943 3.976l-2.563-6.163c-.132-.53.066-1.06.592-1.325.197-.066.394-.133.591-.133l6.572 1.127c-.329.928-.723 1.789-1.249 2.518z" fill="#515151"/><g fill="#326de5"><path d="M82.603 30.422l2.169-2.386 2.169-2.452 1.972-2.319 1.643-1.922h8.412l-4.929 5.633-5.258 5.501c1.052.994 2.037 1.988 2.957 3.115l2.957 3.711 2.629 3.844 1.972 3.513h-8.084l-1.774-2.717-2.037-3.049c-.723-.994-1.512-1.988-2.366-2.916-.723-.861-1.512-1.657-2.366-2.319v11.067H75.57V10.408l7.098-1.127v21.141m41.275 15.24c-1.512.398-3.089.729-4.667.928-1.971.331-4.009.464-5.98.464-1.84.066-3.615-.265-5.324-.861-1.314-.53-2.431-1.325-3.351-2.386a9.97 9.97 0 0 1-1.775-3.777c-.394-1.524-.526-3.181-.526-4.772V21.273h7.098v13.188c0 2.32.329 3.976.92 4.97s1.709 1.524 3.352 1.591l1.643-.066c.592-.066 1.052-.066 1.512-.199V21.273h7.098v24.388zm22.738-11.926c0-4.639-1.709-6.892-5.06-6.892-.723 0-1.446.066-2.169.265-.592.133-1.183.398-1.709.729v12.989l1.315.199c.525.066 1.117.066 1.774.066 1.709.133 3.352-.596 4.403-1.988.986-1.591 1.512-3.446 1.446-5.368zm7.23.265c0 1.856-.263 3.711-.921 5.501a11.21 11.21 0 0 1-2.497 4.175c-1.183 1.193-2.563 2.121-4.075 2.717-1.774.663-3.614.928-5.52.928-.855 0-1.775-.066-2.695-.133l-2.76-.265-2.563-.464c-.855-.133-1.578-.398-2.169-.663V10.408l7.098-1.127v12.592c.788-.331 1.643-.597 2.497-.795.92-.199 1.84-.265 2.761-.265 1.643 0 3.22.265 4.731.994a9.55 9.55 0 0 1 3.418 2.651c.986 1.259 1.709 2.651 2.103 4.175.394 1.657.657 3.513.592 5.368zm4.28.132c-.066-1.988.328-3.976.986-5.832.591-1.59 1.511-2.982 2.694-4.241 1.117-1.127 2.366-1.988 3.812-2.518 1.446-.596 2.957-.861 4.469-.861 3.549 0 6.375 1.127 8.412 3.314s3.089 5.434 3.089 9.676l-.066 1.392s-.065.928-.065 1.325H165.42c.131 1.392.854 2.651 2.037 3.446a8.43 8.43 0 0 0 4.864 1.326c1.248 0 2.563-.133 3.812-.331 1.051-.199 2.103-.53 3.088-.928l.986 5.832c-.46.265-.986.398-1.511.596-.723.199-1.446.398-2.169.464l-2.498.398-2.694.133a15.03 15.03 0 0 1-5.915-.994c-1.577-.596-2.957-1.524-4.14-2.717-1.118-1.193-1.906-2.651-2.432-4.175-.394-1.789-.657-3.579-.657-5.302zm16.627-2.717c0-.597-.131-1.193-.328-1.789-.132-.596-.461-1.06-.789-1.524-.394-.464-.854-.862-1.38-1.127-.657-.331-1.315-.464-2.038-.464s-1.38.133-2.037.464c-.526.265-1.051.596-1.446 1.06s-.723.994-.92 1.59a8.7 8.7 0 0 0-.394 1.789h9.332zm27.466-3.777l-2.235-.464c-.92-.199-1.84-.265-2.76-.265-.526 0-1.051.066-1.643.133l-1.38.265v19.285h-7.098V22.602c1.446-.53 2.957-.928 4.469-1.259a21.46 21.46 0 0 1 5.783-.596l1.381.066a7.4 7.4 0 0 1 1.643.199l1.643.265a5.42 5.42 0 0 1 1.38.398l-1.183 5.964zm4.985-5.501l4.666-.994c1.972-.331 4.009-.464 5.981-.464 1.774-.066 3.549.265 5.257.862 1.315.464 2.498 1.259 3.352 2.32s1.446 2.32 1.775 3.645c.394 1.524.525 3.115.525 4.705V46.46h-7.098V33.139c0-2.32-.328-3.91-.92-4.904-.591-.928-1.708-1.458-3.351-1.458l-1.643.066c-.592 0-1.052.066-1.512.133V46.46h-7.098l.066-24.322zm26.952 11.995c-.066-1.988.329-3.976.986-5.832.591-1.59 1.511-2.982 2.694-4.241 1.118-1.127 2.366-1.988 3.812-2.518 1.446-.596 2.958-.861 4.469-.861 3.549 0 6.375 1.127 8.412 3.314s3.089 5.434 3.089 9.676l-.065 1.392c0 .53-.066.928-.066 1.325H241.45c.132 1.392.855 2.651 2.038 3.446a8.43 8.43 0 0 0 4.863 1.326c1.249 0 2.563-.133 3.812-.331 1.051-.199 2.103-.53 3.089-.928l.986 5.832c-.461.265-.986.398-1.512.596-.723.199-1.446.398-2.169.464l-2.497.398-2.695.133a15.03 15.03 0 0 1-5.915-.994c-1.577-.596-2.957-1.524-4.14-2.717-1.117-1.193-1.906-2.651-2.432-4.175-.46-1.789-.723-3.579-.657-5.302zm16.627-2.717c0-.597-.131-1.193-.328-1.789a3.63 3.63 0 0 0-.789-1.59c-.394-.463-.854-.862-1.38-1.127a4.37 4.37 0 0 0-2.037-.464c-.723 0-1.381.133-2.038.464-.525.265-1.051.596-1.446 1.06s-.723.994-.92 1.591a8.77 8.77 0 0 0-.394 1.789l9.332.066zm12.09-16.438l7.098-1.127v7.422h8.544v5.964h-8.544v8.881c-.066 1.259.197 2.518.789 3.579.526.862 1.577 1.326 3.22 1.326.789 0 1.577-.066 2.3-.199.789-.133 1.512-.331 2.235-.596l.986 5.567c-.92.398-1.906.663-2.892.928a18.78 18.78 0 0 1-3.878.398c-1.643.066-3.286-.199-4.797-.795-1.183-.464-2.235-1.259-3.023-2.187-.789-.994-1.315-2.187-1.643-3.446a16.95 16.95 0 0 1-.395-4.44V14.978zm19.261 19.155c-.066-1.988.328-3.976.985-5.832.592-1.59 1.512-2.982 2.695-4.241 1.117-1.127 2.366-1.988 3.812-2.518 1.446-.596 2.957-.861 4.469-.861 3.549 0 6.375 1.127 8.412 3.314s3.089 5.434 3.089 9.676l-.066 1.392-.065 1.325h-16.102c.131 1.392.92 2.651 2.037 3.446a8.43 8.43 0 0 0 4.864 1.326c1.248 0 2.563-.133 3.811-.331 1.052-.199 2.103-.53 3.089-.928l.986 5.832c-.46.265-.986.398-1.511.596-.723.199-1.446.398-2.169.464l-2.498.398-2.694.133a15.03 15.03 0 0 1-5.915-.994c-1.577-.596-2.958-1.524-4.141-2.717-1.117-1.193-1.905-2.651-2.431-4.175-.395-1.789-.657-3.579-.657-5.302zm16.693-2.717c0-.597-.132-1.193-.329-1.789-.131-.596-.46-1.127-.789-1.59-.394-.464-.854-.862-1.38-1.127a4.37 4.37 0 0 0-2.037-.464 4.37 4.37 0 0 0-2.037.464c-.526.265-1.052.596-1.446 1.06s-.723.994-.92 1.591-.329 1.193-.395 1.789l9.333.066zm19.521 10.007c.921.066 1.906-.066 2.761-.398a1.48 1.48 0 0 0 .788-1.458c-.065-.663-.46-1.259-1.051-1.458-.986-.596-2.103-1.127-3.22-1.458-1.118-.398-2.104-.862-3.024-1.325-.854-.398-1.577-.928-2.3-1.59a6.31 6.31 0 0 1-1.446-2.253c-.394-.994-.526-2.054-.526-3.115-.065-2.187.921-4.308 2.629-5.633 1.775-1.392 4.141-2.054 7.164-2.054 1.446 0 2.957.133 4.403.398 1.118.199 2.235.464 3.352.862l-1.249 5.567c-.92-.331-1.774-.53-2.694-.795-1.052-.199-2.169-.331-3.221-.265-2.234 0-3.351.596-3.351 1.856 0 .265.065.53.131.795.132.265.329.464.592.663s.657.398 1.117.663 1.117.53 1.906.795a28.82 28.82 0 0 1 3.877 1.723c.92.464 1.709 1.06 2.366 1.856.592.596.986 1.392 1.249 2.187.263.928.394 1.856.394 2.784.132 2.253-.92 4.44-2.826 5.699-1.84 1.259-4.469 1.922-7.886 1.922-1.906.066-3.746-.133-5.587-.596-1.051-.265-2.037-.596-3.023-.928l1.183-5.832c1.183.464 2.432.861 3.681 1.127l3.811.265z"/></g></g><defs><clipPath id="A"><path fill="#fff" d="M0 0h329v56H0z"/></clipPath></defs></svg>