<svg width="329" height="56" viewBox="0 0 329 56" fill="none" xmlns="http://www.w3.org/2000/svg">
<g clip-path="url(#clip0_3952_77868)">
<path d="M52.447 12.4592C52.1184 11.3988 51.3297 10.5373 50.3439 10.0071L30.299 0.331361C29.7732 0.0662722 29.1817 0 28.6559 0C28.1302 0 27.5387 0 27.0129 0.132544L6.96798 9.87456C5.98216 10.3385 5.25923 11.2 4.99634 12.3266L0.00153594 34.1302C-0.195627 35.2568 0.0672571 36.3834 0.724468 37.3112L14.5916 54.6083C15.3803 55.4036 16.4975 55.9337 17.6148 56H39.7628C40.9458 56.1325 42.0631 55.6024 42.786 54.6083L56.6531 37.3112C57.3104 36.3834 57.5732 35.2568 57.4418 34.1302L52.447 12.4592Z" fill="#BACFF9"/>
<path d="M49.2868 33.2675C49.2211 33.2675 49.2211 33.2675 49.2211 33.2012C49.2211 33.1349 49.0239 33.1349 48.9582 33.1349C48.6953 33.0687 48.4324 33.0687 48.1696 33.0687C48.0381 33.0687 47.9067 33.0687 47.7752 33.0024H47.7095C46.9866 32.9361 46.1979 32.8036 45.475 32.6048C45.2778 32.5385 45.0807 32.3397 45.0149 32.1409C45.0149 32.0746 44.9492 32.0746 44.9492 32.0746L44.4235 31.942C44.6863 30.0202 44.5549 28.032 44.1606 26.1101C43.7005 24.1882 42.9119 22.3326 41.8603 20.6758L42.2547 20.2781V20.2119C42.2547 20.0131 42.3204 19.748 42.4518 19.6154C43.0433 19.1515 43.6348 18.6876 44.292 18.3563C44.4235 18.29 44.5549 18.2237 44.6863 18.1574C44.9492 18.0249 45.1464 17.8923 45.4093 17.7598C45.475 17.6935 45.5407 17.6935 45.6064 17.6273C45.6722 17.561 45.6722 17.561 45.6722 17.561C46.2636 17.0971 46.3951 16.3018 45.935 15.7054C45.7379 15.4403 45.3436 15.2415 45.0149 15.2415C44.6863 15.2415 44.3577 15.374 44.0948 15.5728L44.0291 15.6391C43.9634 15.7054 43.8977 15.7716 43.832 15.7716C43.6348 15.9705 43.4376 16.1693 43.3062 16.3681C43.2405 16.5006 43.109 16.5669 43.0433 16.6332C42.5175 17.1634 41.9918 17.6935 41.4003 18.0912C41.2688 18.1574 41.1374 18.2237 41.006 18.2237C40.9402 18.2237 40.8088 18.2237 40.7431 18.1574L40.2173 18.5551C39.6915 18.0249 39.1 17.4947 38.5743 16.9645C36.1426 15.0426 33.1194 13.8497 30.0305 13.5184L29.9648 12.9882L29.8991 12.9219C29.7019 12.7894 29.6362 12.5906 29.5705 12.3918C29.5705 11.6628 29.5705 10.9338 29.7019 10.1385V10.0722C29.7019 9.93968 29.7676 9.80714 29.7676 9.67459C29.8334 9.4095 29.8334 9.14442 29.8991 8.87933V8.48169C29.9648 7.81897 29.439 7.15625 28.7818 7.15625C28.3875 7.15625 27.9932 7.28879 27.7303 7.55388C27.4674 7.81897 27.336 8.15033 27.336 8.48169V8.81305C27.336 9.07814 27.4017 9.34323 27.4674 9.60832C27.5331 9.74087 27.5331 9.87341 27.5331 10.006V10.0722C27.6646 10.8012 27.6646 11.5302 27.6646 12.3255C27.5988 12.5243 27.5331 12.7231 27.336 12.8557L27.2702 12.9219L27.2045 13.4521C26.4816 13.5184 25.7587 13.6509 24.97 13.7835C21.8811 14.4462 19.0551 16.103 16.8863 18.4225L16.492 18.1574H16.4263C16.3605 18.1574 16.2948 18.2237 16.1634 18.2237C16.0319 18.2237 15.8348 18.1574 15.769 18.0912C15.1776 17.6273 14.6518 17.0971 14.126 16.5669C14.0603 16.4344 13.9289 16.3681 13.8631 16.3018C13.666 16.103 13.5345 15.9042 13.3374 15.7054C13.2716 15.6391 13.2059 15.6391 13.1402 15.5728C13.0745 15.5065 13.0745 15.5065 13.0745 15.5065C12.8116 15.3077 12.483 15.1752 12.1544 15.1752C11.7601 15.1752 11.4315 15.3077 11.1686 15.6391C10.7742 16.2355 10.9057 17.0308 11.4315 17.4947C11.4972 17.4947 11.4972 17.561 11.4972 17.561C11.4972 17.561 11.6286 17.6935 11.6943 17.6935C11.8915 17.8261 12.1544 17.9586 12.4173 18.0912C12.5487 18.1574 12.6802 18.2237 12.8116 18.29C13.4688 18.6876 14.0603 19.0852 14.6518 19.5491C14.7832 19.6817 14.9147 19.9468 14.849 20.1456V20.2119L15.2433 20.6095C15.1776 20.742 15.1118 20.8083 15.0461 20.9409C13.0088 24.1882 12.2201 28.032 12.8116 31.8095L12.2858 31.942C12.2858 32.0083 12.2201 32.0083 12.2201 32.0083C12.1544 32.2071 11.9572 32.3397 11.7601 32.4722C11.0371 32.671 10.3142 32.8036 9.52554 32.8699H9.45982C9.32838 32.8699 9.19693 32.8699 9.06549 32.9361C8.80261 32.9361 8.53972 33.0024 8.27684 33.0024C8.21112 33.0024 8.1454 33.0687 8.01395 33.0687C7.94823 33.0687 7.94823 33.0687 7.88251 33.1349C7.15958 33.2675 6.69953 33.9302 6.83097 34.6592C6.96242 35.2557 7.55391 35.6533 8.1454 35.587C8.27684 35.587 8.34256 35.587 8.474 35.5207C8.53972 35.5207 8.53972 35.5207 8.53972 35.4545C8.53972 35.3882 8.67117 35.3882 8.80261 35.3882C9.06549 35.3219 9.32838 35.1894 9.52554 35.1231C9.65698 35.0568 9.78842 34.9906 9.91987 34.9906H9.98559C10.6428 34.7255 11.3657 34.5267 12.0887 34.3941H12.1544C12.3515 34.3941 12.5487 34.4604 12.6802 34.5929C12.7459 34.5929 12.7459 34.6592 12.7459 34.6592L13.3374 34.5929C14.3232 37.6415 16.1634 40.3586 18.7265 42.3468C19.318 42.8107 19.8438 43.2083 20.501 43.5397L20.2381 44.0699C20.2381 44.1361 20.3038 44.1361 20.3038 44.1361C20.4352 44.3349 20.4352 44.6 20.3695 44.7989C20.1066 45.4616 19.7123 46.1243 19.318 46.7207V46.787C19.2523 46.9196 19.1865 46.9858 19.0551 47.1184C18.9237 47.2509 18.7922 47.516 18.5951 47.7811C18.5293 47.8474 18.5293 47.9136 18.4636 47.9799C18.4636 47.9799 18.4636 48.0462 18.3979 48.0462C18.0693 48.7089 18.3322 49.5042 18.9237 49.8355C19.0551 49.9018 19.2523 49.9681 19.4494 49.9681C19.9752 49.9681 20.4352 49.6367 20.6981 49.1728C20.6981 49.1728 20.6981 49.1065 20.7639 49.1065C20.7639 49.0403 20.8296 48.974 20.8953 48.9077C20.961 48.6426 21.0925 48.4438 21.1582 48.1787L21.2896 47.7811C21.4868 47.0521 21.8154 46.3894 22.144 45.7267C22.2754 45.5278 22.4726 45.3953 22.6698 45.329C22.7355 45.329 22.7355 45.329 22.7355 45.2628L22.9984 44.7326C24.8386 45.4616 26.7445 45.7929 28.7161 45.7929C29.8991 45.7929 31.0821 45.6604 32.265 45.3953C32.988 45.2628 33.7109 44.9977 34.3681 44.7989L34.631 45.2628C34.6967 45.2628 34.6967 45.2628 34.6967 45.329C34.8939 45.3953 35.0911 45.5278 35.2225 45.7267C35.5511 46.3894 35.814 47.0521 36.0769 47.7148V47.7811L36.2083 48.1787C36.274 48.4438 36.3398 48.7089 36.4712 48.9077C36.5369 48.974 36.5369 49.0403 36.6026 49.1065C36.6026 49.1065 36.6026 49.1728 36.6684 49.1728C36.9312 49.6367 37.3913 49.9681 37.9171 49.9681C38.1142 49.9681 38.2457 49.9018 38.4428 49.8355C38.7057 49.703 38.9686 49.4379 39.0343 49.1065C39.1 48.7752 39.1 48.3776 38.9686 48.0462C38.9686 47.9799 38.9029 47.9799 38.9029 47.9799C38.9029 47.9136 38.8372 47.8474 38.7714 47.7811C38.64 47.516 38.5086 47.3172 38.3114 47.1184C38.2457 46.9858 38.18 46.9196 38.0485 46.787V46.7207C37.5885 46.1243 37.2599 45.4616 36.997 44.7989C36.9312 44.6 36.9312 44.3349 37.0627 44.1361C37.0627 44.0699 37.1284 44.0699 37.1284 44.0699L36.9312 43.5397C40.3487 41.4852 42.8461 38.3042 44.0948 34.5267L44.6206 34.5929C44.6863 34.5929 44.6863 34.5267 44.6863 34.5267C44.8178 34.3941 45.0149 34.3278 45.2121 34.3278H45.2778C46.0008 34.4604 46.7237 34.6592 47.3809 34.9243H47.4466C47.5781 34.9906 47.7095 35.0568 47.841 35.0568C48.1038 35.1894 48.301 35.2557 48.5639 35.3219C48.6296 35.3219 48.6953 35.3882 48.8268 35.3882C48.8925 35.3882 48.8925 35.3882 48.9582 35.4545C49.0897 35.5207 49.1554 35.5207 49.2868 35.5207C49.8783 35.5207 50.4041 35.1231 50.6012 34.5929C50.4041 33.9302 49.944 33.4 49.2868 33.2675ZM30.3591 31.2131L28.5847 32.0746L26.8102 31.2131L26.2844 29.2912L27.5331 27.7006H29.5705L30.8192 29.2912L30.3591 31.2131ZM41.0717 26.9054C41.4003 28.2971 41.466 29.6888 41.3346 31.0805L35.0911 29.2912C34.4996 29.1586 34.171 28.5622 34.3024 27.9657C34.3681 27.7669 34.4338 27.6344 34.5653 27.5018L39.4944 22.9953C40.2173 24.1882 40.7431 25.5136 41.0717 26.9054ZM37.5227 20.5432L32.1993 24.387C31.7393 24.6521 31.0821 24.5858 30.7535 24.1219C30.622 23.9894 30.5563 23.8568 30.5563 23.658L30.162 16.9645C32.9223 17.2959 35.5511 18.5551 37.5227 20.5432ZM25.6272 17.1634L26.9416 16.8983L26.5473 23.5255C26.5473 24.1219 26.0215 24.5858 25.4301 24.5858C25.2329 24.5858 25.1014 24.5196 24.9043 24.4533L19.5809 20.5432C21.2239 18.8864 23.327 17.6935 25.6272 17.1634ZM17.6092 22.9953L22.4726 27.3693C22.9326 27.7669 22.9984 28.4296 22.604 28.8935C22.4726 29.0923 22.3412 29.1586 22.0783 29.2249L15.769 31.0805C15.5062 28.2971 16.1634 25.4474 17.6092 22.9953ZM16.492 34.1953L22.9984 33.0687C23.5241 33.0687 24.0499 33.4 24.1156 33.9302C24.1814 34.129 24.1814 34.3941 24.0499 34.5929L21.5525 40.69C19.2523 39.1657 17.4121 36.8462 16.492 34.1953ZM31.4107 42.4131C30.4906 42.6119 29.5048 42.7444 28.5189 42.7444C27.1388 42.7444 25.6929 42.4793 24.3785 42.0817L27.5989 36.1835C27.9275 35.7858 28.4532 35.6533 28.9133 35.9184C29.1104 36.0509 29.2419 36.1835 29.439 36.3823L32.5937 42.148C32.265 42.2142 31.8707 42.2805 31.4107 42.4131ZM39.4286 36.6474C38.4428 38.2379 37.0627 39.6296 35.4854 40.6237L32.9223 34.4604C32.7908 33.9302 32.988 33.4 33.5138 33.1349C33.7109 33.0687 33.9081 33.0024 34.1052 33.0024L40.6774 34.129C40.3487 35.0568 39.9544 35.9184 39.4286 36.6474Z" fill="#515151"/>
<path d="M82.6025 30.4221C83.3254 29.6268 83.9826 28.8315 84.7713 28.0363C85.4942 27.1747 86.2171 26.3795 86.9401 25.5842C87.663 24.7227 88.3202 23.9937 88.9117 23.2647C89.5032 22.5357 90.0947 21.873 90.5547 21.3428H98.967C97.2583 23.2647 95.6153 25.1866 94.038 26.9759C92.3949 28.7653 90.6862 30.6209 88.7803 32.4765C89.8318 33.4706 90.8176 34.4647 91.7377 35.5913C92.7235 36.7842 93.7094 37.9771 94.6952 39.3026C95.6153 40.5617 96.5354 41.8872 97.324 43.1463C98.1127 44.4055 98.7699 45.5984 99.2956 46.6588H91.2119C90.6862 45.7972 90.0947 44.9357 89.4375 43.9416C88.7803 42.9475 88.0573 41.9534 87.4001 40.8931C86.6772 39.899 85.8885 38.9049 85.0342 37.9771C84.3112 37.1156 83.5226 36.3203 82.6682 35.6576V46.725H75.5703V10.4079L82.6682 9.28125V30.4221" fill="#326DE5"/>
<path d="M123.943 45.6616C122.431 46.0592 120.854 46.3906 119.276 46.5894C117.305 46.9208 115.267 47.0533 113.296 47.0533C111.456 47.1196 109.681 46.7882 107.972 46.1918C106.658 45.6616 105.541 44.8663 104.621 43.806C103.766 42.6794 103.175 41.4202 102.846 40.0285C102.452 38.5042 102.32 36.8474 102.32 35.2569V21.2734H109.418V34.4616C109.418 36.7811 109.747 38.4379 110.338 39.432C110.93 40.4261 112.047 40.9563 113.69 41.0226C114.216 41.0226 114.742 41.0226 115.333 40.9563C115.925 40.89 116.385 40.89 116.845 40.7575V21.2734H123.943V45.6616Z" fill="#326DE5"/>
<path d="M146.681 33.7357C146.681 29.0966 144.972 26.8434 141.621 26.8434C140.898 26.8434 140.175 26.9097 139.452 27.1085C138.86 27.241 138.269 27.5061 137.743 27.8375V40.8268C138.072 40.8931 138.532 40.9594 139.058 41.0256C139.583 41.0919 140.175 41.0919 140.832 41.0919C142.541 41.2244 144.184 40.4955 145.235 39.1037C146.221 37.5132 146.747 35.6576 146.681 33.7357ZM153.911 34.0008C153.911 35.8564 153.648 37.712 152.99 39.5014C152.465 41.0919 151.61 42.4836 150.493 43.6765C149.31 44.8694 147.93 45.7972 146.418 46.3937C144.644 47.0564 142.804 47.3215 140.898 47.3215C140.043 47.3215 139.123 47.2552 138.203 47.1889C137.283 47.1227 136.363 46.9901 135.443 46.9239C134.588 46.7913 133.734 46.6588 132.88 46.4599C132.025 46.3274 131.302 46.0623 130.711 45.7972V10.4079L137.809 9.28125V21.873C138.597 21.5416 139.452 21.2765 140.306 21.0777C141.226 20.8789 142.146 20.8126 143.067 20.8126C144.71 20.8126 146.287 21.0777 147.798 21.8067C149.113 22.4031 150.296 23.331 151.216 24.4576C152.202 25.7168 152.925 27.1085 153.319 28.6327C153.713 30.2895 153.976 32.1452 153.911 34.0008Z" fill="#326DE5"/>
<path d="M158.191 34.1329C158.125 32.1448 158.519 30.1566 159.177 28.301C159.768 26.7105 160.688 25.3187 161.871 24.0596C162.988 22.9329 164.237 22.0714 165.683 21.5412C167.129 20.9448 168.64 20.6797 170.152 20.6797C173.701 20.6797 176.527 21.8063 178.564 23.9933C180.602 26.1803 181.653 29.4276 181.653 33.669C181.653 34.0667 181.653 34.5306 181.587 35.0608C181.522 35.5909 181.522 35.9886 181.522 36.3862H165.42C165.551 37.7779 166.274 39.0371 167.457 39.8323C168.903 40.7602 170.612 41.2241 172.321 41.1578C173.569 41.1578 174.884 41.0252 176.133 40.8264C177.184 40.6276 178.236 40.2963 179.221 39.8986L180.207 45.7306C179.747 45.9957 179.221 46.1282 178.696 46.327C177.973 46.5258 177.25 46.7247 176.527 46.7909C175.738 46.9235 174.95 47.056 174.029 47.1886C173.175 47.2548 172.255 47.3211 171.335 47.3211C169.298 47.3874 167.326 47.056 165.42 46.327C163.843 45.7306 162.463 44.8028 161.28 43.6099C160.162 42.417 159.374 40.959 158.848 39.4347C158.454 37.6454 158.191 35.856 158.191 34.1329ZM174.818 31.4158C174.818 30.8193 174.687 30.2229 174.49 29.6264C174.358 29.03 174.029 28.5661 173.701 28.1022C173.307 27.6383 172.847 27.2406 172.321 26.9755C171.664 26.6442 171.006 26.5116 170.283 26.5116C169.56 26.5116 168.903 26.6442 168.246 26.9755C167.72 27.2406 167.195 27.572 166.8 28.0359C166.406 28.4998 166.077 29.03 165.88 29.6264C165.683 30.2229 165.551 30.8193 165.486 31.4158H174.818Z" fill="#326DE5"/>
<path d="M202.284 27.6391C201.627 27.5066 200.904 27.3077 200.049 27.1752C199.129 26.9764 198.209 26.9101 197.289 26.9101C196.763 26.9101 196.238 26.9764 195.646 27.0427C195.186 27.1089 194.726 27.1752 194.266 27.3077V46.593H187.168V22.6024C188.614 22.0722 190.125 21.6746 191.637 21.3433C193.543 20.8793 195.515 20.6805 197.42 20.7468C197.881 20.7468 198.341 20.8131 198.801 20.8131C199.326 20.8131 199.852 20.8793 200.444 21.0119C200.969 21.0782 201.495 21.1444 202.087 21.277C202.547 21.3433 203.007 21.4758 203.467 21.6746L202.284 27.6391Z" fill="#326DE5"/>
<path d="M207.269 22.1382C208.78 21.7406 210.358 21.4092 211.935 21.1441C213.907 20.8128 215.944 20.6802 217.916 20.6802C219.69 20.614 221.465 20.9453 223.173 21.5418C224.488 22.0057 225.671 22.8009 226.525 23.8613C227.38 24.9217 227.971 26.1808 228.3 27.5063C228.694 29.0305 228.825 30.6211 228.825 32.2116V46.4601H221.727V33.1394C221.727 30.8199 221.399 29.2293 220.807 28.2353C220.216 27.3075 219.099 26.7773 217.456 26.7773C216.93 26.7773 216.404 26.7773 215.813 26.8435C215.221 26.8435 214.761 26.9098 214.301 26.9761V46.4601H207.203L207.269 22.1382Z" fill="#326DE5"/>
<path d="M234.221 34.1329C234.155 32.1448 234.55 30.1566 235.207 28.301C235.798 26.7105 236.718 25.3187 237.901 24.0596C239.019 22.9329 240.267 22.0714 241.713 21.5412C243.159 20.9448 244.671 20.6797 246.182 20.6797C249.731 20.6797 252.557 21.8063 254.594 23.9933C256.632 26.1803 257.683 29.4276 257.683 33.669C257.683 34.0667 257.683 34.5306 257.618 35.0608C257.618 35.5909 257.552 35.9886 257.552 36.3862H241.45C241.582 37.7779 242.305 39.0371 243.488 39.8323C244.933 40.7602 246.642 41.2241 248.351 41.1578C249.6 41.1578 250.914 41.0252 252.163 40.8264C253.214 40.6276 254.266 40.2963 255.252 39.8986L256.238 45.7306C255.777 45.9957 255.252 46.1282 254.726 46.327C254.003 46.5258 253.28 46.7247 252.557 46.7909C251.768 46.9235 250.98 47.056 250.06 47.1886C249.205 47.2548 248.285 47.3211 247.365 47.3211C245.328 47.3874 243.356 47.056 241.45 46.327C239.873 45.7306 238.493 44.8028 237.31 43.6099C236.193 42.417 235.404 40.959 234.878 39.4347C234.418 37.6454 234.155 35.856 234.221 34.1329ZM250.848 31.4158C250.848 30.8193 250.717 30.2229 250.52 29.6264C250.388 29.03 250.125 28.4998 249.731 28.0359C249.337 27.572 248.877 27.1744 248.351 26.9093C247.694 26.5779 247.037 26.4454 246.314 26.4454C245.591 26.4454 244.933 26.5779 244.276 26.9093C243.751 27.1744 243.225 27.5057 242.83 27.9696C242.436 28.4335 242.107 28.9637 241.91 29.5602C241.713 30.1566 241.582 30.7531 241.516 31.3495L250.848 31.4158Z" fill="#326DE5"/>
<path d="M262.938 14.9782L270.036 13.8516V21.274H278.58V27.2385H270.036V36.119C269.97 37.3782 270.233 38.6374 270.825 39.6977C271.351 40.5593 272.402 41.0232 274.045 41.0232C274.834 41.0232 275.622 40.9569 276.345 40.8243C277.134 40.6918 277.857 40.493 278.58 40.2279L279.566 45.7948C278.646 46.1924 277.66 46.4575 276.674 46.7226C275.425 46.9877 274.111 47.1202 272.796 47.1202C271.153 47.1865 269.51 46.9214 267.999 46.3249C266.816 45.861 265.764 45.0658 264.976 44.138C264.187 43.1439 263.661 41.951 263.333 40.6918C263.004 39.2338 262.873 37.7096 262.938 36.2516V14.9782Z" fill="#326DE5"/>
<path d="M282.199 34.1329C282.133 32.1448 282.527 30.1566 283.184 28.301C283.776 26.7105 284.696 25.3187 285.879 24.0596C286.996 22.9329 288.245 22.0714 289.691 21.5412C291.137 20.9448 292.648 20.6797 294.16 20.6797C297.709 20.6797 300.535 21.8063 302.572 23.9933C304.609 26.1803 305.661 29.4276 305.661 33.669C305.661 34.0667 305.661 34.5306 305.595 35.0608C305.595 35.5909 305.53 35.9886 305.53 36.3862H289.428C289.559 37.7779 290.348 39.0371 291.465 39.8323C292.911 40.7602 294.62 41.2241 296.329 41.1578C297.577 41.1578 298.892 41.0252 300.14 40.8264C301.192 40.6276 302.243 40.2963 303.229 39.8986L304.215 45.7306C303.755 45.9957 303.229 46.1282 302.704 46.327C301.981 46.5258 301.258 46.7247 300.535 46.7909C299.746 46.9235 298.957 47.056 298.037 47.1886C297.183 47.2548 296.263 47.3211 295.343 47.3211C293.305 47.3874 291.334 47.056 289.428 46.327C287.851 45.7306 286.47 44.8028 285.287 43.6099C284.17 42.417 283.382 40.959 282.856 39.4347C282.461 37.6454 282.199 35.856 282.199 34.1329ZM298.892 31.4158C298.892 30.8193 298.76 30.2229 298.563 29.6264C298.432 29.03 298.103 28.4998 297.774 28.0359C297.38 27.572 296.92 27.1744 296.394 26.9093C295.737 26.5779 295.08 26.4454 294.357 26.4454C293.634 26.4454 292.977 26.5779 292.32 26.9093C291.794 27.1744 291.268 27.5057 290.874 27.9696C290.479 28.4335 290.151 28.9637 289.954 29.5602C289.756 30.1566 289.625 30.7531 289.559 31.3495L298.892 31.4158Z" fill="#326DE5"/>
<path d="M318.413 41.4229C319.334 41.4892 320.319 41.3566 321.174 41.0252C321.7 40.7602 322.028 40.1637 321.962 39.5673C321.897 38.9045 321.502 38.3081 320.911 38.1093C319.925 37.5128 318.808 36.9826 317.691 36.6513C316.573 36.2537 315.587 35.7897 314.667 35.3258C313.813 34.9282 313.09 34.398 312.367 33.7353C311.71 33.0726 311.25 32.3436 310.921 31.4821C310.527 30.488 310.395 29.4276 310.395 28.3673C310.33 26.1803 311.316 24.0596 313.024 22.7341C314.799 21.3424 317.165 20.6797 320.188 20.6797C321.634 20.6797 323.145 20.8122 324.591 21.0773C325.709 21.2761 326.826 21.5412 327.943 21.9389L326.694 27.5057C325.774 27.1744 324.92 26.9755 324 26.7105C322.948 26.5116 321.831 26.3791 320.779 26.4454C318.545 26.4454 317.428 27.0418 317.428 28.301C317.428 28.5661 317.493 28.8312 317.559 29.0963C317.691 29.3613 317.888 29.5602 318.151 29.759C318.413 29.9578 318.808 30.1566 319.268 30.4217C319.728 30.6868 320.385 30.9519 321.174 31.217C322.488 31.6809 323.803 32.2773 325.051 32.94C325.971 33.4039 326.76 34.0004 327.417 34.7957C328.009 35.3921 328.403 36.1874 328.666 36.9826C328.929 37.9105 329.06 38.8383 329.06 39.7661C329.192 42.0193 328.14 44.2063 326.234 45.4655C324.394 46.7247 321.765 47.3874 318.348 47.3874C316.442 47.4537 314.602 47.2548 312.761 46.7909C311.71 46.5258 310.724 46.1945 309.738 45.8631L310.921 40.0312C312.104 40.4951 313.353 40.8927 314.602 41.1578C315.785 41.2903 317.033 41.4229 318.413 41.4229Z" fill="#326DE5"/>
</g>
<defs>
<clipPath id="clip0_3952_77868">
<rect width="329" height="56" fill="white"/>
</clipPath>
</defs>
</svg>
