<svg width="48" height="48" viewBox="0 0 48 48" fill="none" xmlns="http://www.w3.org/2000/svg">
<path d="M25.5037 5.5V9H29.4537C30.1557 9 30.8417 9.212 31.4217 9.606L34.8157 11.914C34.8997 11.97 34.9931 11.9987 35.0957 12H43.2997C43.6976 12 44.0791 12.158 44.3604 12.4393C44.6417 12.7206 44.7997 13.1022 44.7997 13.5C44.7997 13.8978 44.6417 14.2794 44.3604 14.5607C44.0791 14.842 43.6976 15 43.2997 15H40.1437L46.8757 30.36C47.0104 30.6671 47.0383 31.0105 46.9549 31.3354C46.8715 31.6602 46.6817 31.9477 46.4157 32.152C46.2157 32.3 46.0091 32.4373 45.7957 32.564C45.2894 32.8685 44.7613 33.1353 44.2157 33.362C42.4067 34.1185 40.4646 34.5054 38.5037 34.5C36.5434 34.5085 34.6015 34.1222 32.7937 33.364C32.2481 33.1366 31.72 32.8692 31.2137 32.564C31.001 32.442 30.796 32.3071 30.5997 32.16L30.5897 32.152C30.3238 31.9477 30.1339 31.6602 30.0506 31.3354C29.9672 31.0105 29.9951 30.6671 30.1297 30.36L36.8657 15H35.0937C34.3917 15 33.7057 14.788 33.1257 14.394L29.7317 12.086C29.6491 12.03 29.5516 12.0001 29.4517 12H25.5037V41H34.4777C34.8756 41 35.2571 41.158 35.5384 41.4393C35.8197 41.7206 35.9777 42.1022 35.9777 42.5C35.9777 42.8978 35.8197 43.2794 35.5384 43.5607C35.2571 43.842 34.8756 44 34.4777 44H13.5297C13.1319 44 12.7504 43.842 12.4691 43.5607C12.1878 43.2794 12.0297 42.8978 12.0297 42.5C12.0297 42.1022 12.1878 41.7206 12.4691 41.4393C12.7504 41.158 13.1319 41 13.5297 41H22.5037V12H18.5537C18.4539 12.0001 18.3564 12.03 18.2737 12.086L14.8817 14.394C14.3017 14.788 13.6157 15 12.9137 15H11.1417L17.8777 30.36C18.0081 30.6584 18.0378 30.9911 17.9624 31.3079C17.887 31.6247 17.7106 31.9083 17.4597 32.116C17.2997 32.246 17.1397 32.368 16.8397 32.562C16.3342 32.89 15.8047 33.1795 15.2557 33.428C13.4498 34.25 11.4879 34.673 9.50374 34.668C7.51956 34.673 5.55763 34.25 3.75174 33.428C3.20274 33.1795 2.67325 32.89 2.16774 32.562C1.95486 32.4245 1.74862 32.277 1.54974 32.12C1.30037 31.9104 1.12495 31.6262 1.04933 31.3093C0.97371 30.9924 1.0019 30.6596 1.12974 30.36L7.86374 15H4.70974C4.31192 15 3.93038 14.842 3.64908 14.5607C3.36778 14.2794 3.20974 13.8978 3.20974 13.5C3.20974 13.1022 3.36778 12.7206 3.64908 12.4393C3.93038 12.158 4.31192 12 4.70974 12H12.9137C13.0151 12 13.1091 11.9713 13.1957 11.914L16.5857 9.606C17.1657 9.21 17.8537 9 18.5557 9H22.5037V5.5C22.5037 5.10218 22.6618 4.72064 22.9431 4.43934C23.2244 4.15804 23.6059 4 24.0037 4C24.4016 4 24.7831 4.15804 25.0644 4.43934C25.3457 4.72064 25.5037 5.10218 25.5037 5.5ZM4.38974 30.396C5.9634 31.2351 7.72036 31.6714 9.50374 31.666C11.2871 31.6714 13.0441 31.2351 14.6177 30.396L9.50374 18.736L4.38974 30.396ZM33.4097 30.348C33.5737 30.428 33.7571 30.512 33.9597 30.6C35.0197 31.046 36.5697 31.5 38.5037 31.5C40.2668 31.5047 42.0082 31.1109 43.5977 30.348L38.5037 18.734L33.4097 30.348Z" fill="#3BF5FF"/>
</svg>
