<svg width="48" height="48" viewBox="0 0 48 48" fill="none" xmlns="http://www.w3.org/2000/svg">
<g clip-path="url(#clip0_4518_55554)">
<path d="M32.176 14.8268C31.487 13.9374 30.5493 13.2726 29.482 12.9168L26.726 12.0208C26.5144 11.9455 26.3313 11.8065 26.2018 11.623C26.0724 11.4395 26.0029 11.2204 26.0029 10.9958C26.0029 10.7712 26.0724 10.5521 26.2018 10.3686C26.3313 10.1851 26.5144 10.0461 26.726 9.97081L29.482 9.07481C30.2975 8.79319 31.0382 8.32947 31.6477 7.71887C32.2573 7.10827 32.7198 6.36682 33 5.55081L33.022 5.48281L33.918 2.72881C33.9925 2.51584 34.1313 2.33129 34.3153 2.20072C34.4993 2.07014 34.7194 2 34.945 2C35.1706 2 35.3907 2.07014 35.5747 2.20072C35.7587 2.33129 35.8975 2.51584 35.972 2.72881L36.866 5.48281C37.1455 6.3199 37.6161 7.08035 38.2407 7.70385C38.8652 8.32735 39.6264 8.79675 40.464 9.07481L43.218 9.97081L43.274 9.98481C43.4856 10.0601 43.6687 10.1991 43.7982 10.3826C43.9276 10.5661 43.9971 10.7852 43.9971 11.0098C43.9971 11.2344 43.9276 11.4535 43.7982 11.637C43.6687 11.8205 43.4856 11.9595 43.274 12.0348L40.518 12.9308C39.6808 13.2091 38.92 13.6787 38.2958 14.3021C37.6716 14.9256 37.2013 15.6859 36.922 16.5228L36.026 19.2768L36 19.3448C35.9136 19.5461 35.7684 19.7165 35.5836 19.834C35.3987 19.9514 35.1827 20.0103 34.9638 20.0029C34.7449 19.9956 34.5333 19.9223 34.3567 19.7928C34.1801 19.6632 34.0467 19.4834 33.974 19.2768L33.078 16.5228C32.8779 15.9099 32.5734 15.3361 32.178 14.8268M47.568 22.4288L46.036 21.9328C45.5711 21.7774 45.1488 21.516 44.8024 21.1692C44.456 20.8224 44.195 20.3998 44.04 19.9348L43.54 18.4068C43.4986 18.2887 43.4215 18.1863 43.3194 18.1139C43.2173 18.0415 43.0952 18.0026 42.97 18.0026C42.8448 18.0026 42.7227 18.0415 42.6206 18.1139C42.5185 18.1863 42.4414 18.2887 42.4 18.4068L41.904 19.9348C41.7519 20.3969 41.4951 20.8175 41.1538 21.1641C40.8124 21.5106 40.3957 21.7737 39.936 21.9328L38.406 22.4288C38.2879 22.4702 38.1855 22.5473 38.1131 22.6494C38.0407 22.7515 38.0018 22.8736 38.0018 22.9988C38.0018 23.124 38.0407 23.2461 38.1131 23.3482C38.1855 23.4503 38.2879 23.5274 38.406 23.5688L39.936 24.0668C40.4023 24.2223 40.8258 24.4844 41.173 24.8323C41.5202 25.1802 41.7814 25.6043 41.936 26.0708L42.432 27.5988C42.4734 27.717 42.5505 27.8193 42.6526 27.8917C42.7547 27.9641 42.8768 28.003 43.002 28.003C43.1272 28.003 43.2493 27.9641 43.3514 27.8917C43.4535 27.8193 43.5306 27.717 43.572 27.5988L44.07 26.0708C44.2252 25.6056 44.4865 25.1828 44.8332 24.8361C45.18 24.4893 45.6028 24.228 46.068 24.0728L47.598 23.5768C47.7161 23.5354 47.8185 23.4583 47.8909 23.3562C47.9633 23.2541 48.0022 23.132 48.0022 23.0068C48.0022 22.8816 47.9633 22.7595 47.8909 22.6574C47.8185 22.5553 47.7161 22.4782 47.598 22.4368L47.568 22.4288ZM21.968 4.27481C22.5606 4.06008 23.1916 3.97221 23.8203 4.0169C24.449 4.06159 25.0612 4.23784 25.6174 4.53424C26.1737 4.83063 26.6614 5.24057 27.0491 5.73748C27.4368 6.2344 27.7158 6.80721 27.868 7.41881L26.1 8.00281C25.6922 8.1475 25.318 8.37339 25 8.66681V8.50681C24.9996 8.26617 24.9413 8.02916 24.83 7.81579C24.7187 7.60242 24.5577 7.41896 24.3606 7.28089C24.1635 7.14282 23.9361 7.0542 23.6975 7.02251C23.459 6.99082 23.2163 7.01699 22.99 7.09881L9.31 12.0488C8.63387 12.2933 8.04943 12.74 7.63613 13.3283C7.22283 13.9166 7.00072 14.6179 7 15.3368V27.5008C7.0001 27.7416 7.05818 27.9789 7.16933 28.1925C7.28048 28.4061 7.44143 28.5899 7.63858 28.7282C7.83572 28.8665 8.06327 28.9553 8.30197 28.987C8.54068 29.0188 8.78353 28.9927 9.01 28.9108L10 28.5528V31.7428C9.32147 31.9827 8.5953 32.0564 7.88242 31.9576C7.16954 31.8588 6.49075 31.5905 5.903 31.1752C5.31526 30.7598 4.8357 30.2096 4.50458 29.5706C4.17345 28.9316 4.00042 28.2225 4 27.5028V15.3348C4.00001 13.9989 4.41166 12.6954 5.17892 11.6017C5.94619 10.5081 7.0318 9.67744 8.288 9.22281L21.968 4.27481ZM15.628 15.4648L24.32 12.3188C24.659 13.0641 25.2555 13.6621 26 14.0028L27.304 14.4308L16.65 18.2868C16.1665 18.4616 15.7487 18.7812 15.4534 19.2021C15.1581 19.623 14.9998 20.1247 15 20.6388V33.5028C15.0001 33.7436 15.0582 33.9809 15.1693 34.1945C15.2805 34.4081 15.4414 34.5919 15.6386 34.7302C15.8357 34.8685 16.0633 34.9573 16.302 34.989C16.5407 35.0208 16.7835 34.9947 17.01 34.9128L18 34.5528V37.7448C17.3212 37.9848 16.5946 38.0584 15.8814 37.9595C15.1682 37.8605 14.4892 37.5918 13.9014 37.176C13.3135 36.7602 12.8341 36.2094 12.5032 35.5699C12.1723 34.9304 11.9998 34.2208 12 33.5008V20.6368C11.9995 19.506 12.3476 18.4026 12.9968 17.4768C13.646 16.5509 14.5647 15.8497 15.628 15.4648ZM22.968 21.7028L31.6 18.5788L32.002 19.9988C32.178 20.5128 32.482 20.9608 32.872 21.3088L23.992 24.5228C23.7021 24.6276 23.4515 24.8192 23.2744 25.0715C23.0972 25.3238 23.0021 25.6245 23.002 25.9328V39.4988C23.0021 39.7396 23.0602 39.9769 23.1713 40.1905C23.2825 40.4041 23.4434 40.5879 23.6406 40.7262C23.8377 40.8645 24.0653 40.9533 24.304 40.985C24.5427 41.0168 24.7855 40.9907 25.012 40.9088L40.012 35.4808C40.3019 35.376 40.5525 35.1844 40.7296 34.9321C40.9068 34.6798 41.0019 34.3791 41.002 34.0708V29.1748C41.43 29.7268 42.026 30.1008 42.922 30.1008C43.344 30.1008 43.7 30.0168 44.002 29.8728V34.0728C44.0018 34.9974 43.7167 35.8994 43.1857 36.6563C42.6546 37.4131 41.9033 37.988 41.034 38.3028L26.034 43.7308C25.3544 43.9773 24.6254 44.0563 23.9087 43.9613C23.1921 43.8663 22.5088 43.6001 21.9169 43.1851C21.3249 42.7701 20.8417 42.2186 20.508 41.5773C20.1743 40.936 20.0001 40.2237 20 39.5008V25.9348C19.9998 25.0099 20.2847 24.1074 20.8157 23.3502C21.3468 22.5929 22.0983 22.0177 22.968 21.7028Z" fill="#3BF5FF"/>
</g>
<defs>
<clipPath id="clip0_4518_55554">
<rect width="48" height="48" fill="white"/>
</clipPath>
</defs>
</svg>
