<svg xmlns="http://www.w3.org/2000/svg" width="64" height="64" fill="#3bf5ff" xmlns:v="https://vecta.io/nano"><path d="M14.798 9.95c-.24.048-.442.125-.461.183-.019.048-.086.096-.154.096-.221 0-1.115.971-1.115 1.201 0 .058-.384.086-1.124.067C6.95 11.351 6.848 16 4.112 17.369c-.173.048-.183 29.924-.019 30.03.058.038.144.202.173.365.077.336.961 1.384 1.172 1.384.077 0 .135.038.135.077s.163.135.365.202c.192.067.442.154.548.202.106.038 1.547.125 3.2.182 1.662.067 3.085.154 3.171.202.086.038.903.154 1.797.24.903.096 1.682.202 1.73.24.058.038.48.125.961.192.471.067.932.154 1.009.202s.452.144.817.221c1.345.288 2.499.577 2.547.644.029.029.279.115.567.183s.634.183.769.25c.134.077.317.135.394.135s.259.058.404.134.509.211.807.298.634.211.749.288a2.16 2.16 0 0 0 .519.192c.163.038.308.096.308.144 0 .038.115.106.259.144.279.067.778.279 1.72.73.317.154.634.279.692.279.067 0 .115.038.115.086s.125.115.288.154c.154.038.307.096.336.144s.432.269.894.49c.461.231.894.471.961.529.269.269.798.24 1.076-.058.029-.029.394-.231.817-.432.423-.211.788-.404.817-.433s.288-.163.577-.307l1.922-.874c.183-.077.586-.26.884-.394s.577-.25.605-.25c.038 0 .202-.067.365-.144.288-.135.865-.346 1.893-.692a9.48 9.48 0 0 0 .721-.269 3.87 3.87 0 0 1 .702-.192c.221-.038.404-.096.404-.134s.375-.144.846-.24c.461-.096.884-.211.932-.25.058-.038.432-.134.846-.192.404-.067.74-.154.74-.192s.432-.125.961-.192.961-.154.961-.192.769-.144 1.711-.231c.932-.096 1.778-.211 1.864-.26.086-.038 1.518-.125 3.171-.192 1.653-.058 3.094-.144 3.2-.182a7.94 7.94 0 0 1 .557-.202c.192-.067.355-.163.355-.202s.058-.077.135-.077c.211 0 1.096-1.047 1.172-1.384.029-.163.115-.327.173-.365.144-.096.154-29.934.01-30.04-2.646-2.117-4.134-5.984-7.764-5.862-.836.019-1.221 0-1.221-.077 0-.202-.922-1.192-1.115-1.192-.067 0-.135-.038-.154-.096-.077-.231-1.172-.308-2.72-.202-.836.067-1.557.144-1.586.183-.029.048-.394.135-.817.192-.413.067-.788.154-.817.192-.029.048-.308.135-.625.202s-.759.211-.98.307-.471.183-.548.183-.202.058-.269.125c-.067.077-.298.192-.509.259s-.404.154-.432.183-.346.211-.721.394c-.682.346-1.192.653-1.538.922a1.94 1.94 0 0 1-.404.24c-.125.048-.221.125-.221.183 0 .048-.058.096-.115.096-.067 0-.24.096-.384.221a9.72 9.72 0 0 1-.519.413c-.5.356-2.056 1.758-2.479 2.239a27.09 27.09 0 0 1-.798.807c-.336.317-.605.615-.605.663s-.154.24-.336.432-.336.298-.336.25c0-.154-.577-.797-1.97-2.191-1.153-1.153-1.528-1.499-2.364-2.162l-.49-.404c-.106-.096-.279-.192-.375-.221-.106-.038-.183-.096-.183-.144s-.154-.163-.336-.25-.336-.192-.336-.231-.144-.125-.307-.202c-.173-.067-.336-.154-.365-.192-.077-.106-2.143-1.144-2.277-1.144-.067 0-.125-.038-.125-.086s-.211-.144-.48-.211c-.259-.067-.48-.154-.48-.192s-.336-.144-.74-.24c-.413-.096-.769-.202-.798-.24s-.394-.125-.817-.192-.788-.154-.817-.192c-.048-.067-2.633-.288-3.142-.269-.144.01-.461.048-.701.096zm2.787 2.287c.029.038.404.115.836.173.433.067.865.163.961.212.096.058.413.163.701.24.634.163 1.663.548 1.73.644.029.039.231.115.461.183.221.067.404.154.404.192 0 .048.163.144.365.231.49.221 1.095.557 1.249.701.067.067.163.125.202.125s.173.077.279.163c.115.096.365.279.557.413s.433.317.529.404c.096.096.221.173.269.173.058 0 .154.077.221.173s.192.221.279.269c.327.182 1.951 1.691 2.335 2.172a42.07 42.07 0 0 0 .625.711 14.83 14.83 0 0 1 .682.807c.134.173.317.394.413.49.087.106.163.221.163.259 0 .048.154.221.346.384.288.259.423.308.807.308s.519-.048.807-.308c.192-.163.346-.336.346-.384 0-.038.077-.154.173-.259.317-.346.692-.817.692-.884 0-.029.183-.259.413-.49l1.951-1.999.913-.769a19.06 19.06 0 0 1 1.297-1.009c.317-.211.625-.442.692-.5.067-.067.163-.125.211-.125s.144-.058.221-.135c.125-.135.327-.25 1.182-.682.202-.106.432-.25.5-.317.067-.058.173-.115.221-.115.058 0 .279-.086.509-.183a10.73 10.73 0 0 1 1.787-.644c.288-.077.605-.183.701-.24.096-.048.529-.144.961-.212.432-.058.807-.144.836-.182s.538-.077 1.124-.096c.98-.029 1.086-.01 1.22.163s.144 1.807.154 14.049l-.087 14.088c-.077.202-.182.25-.605.308-.279.038-.548.106-.605.144-.048.038-.394.125-.769.192-.365.067-.711.154-.769.192-.048.038-.356.115-.673.183a5.72 5.72 0 0 0-.961.298c-.211.096-.548.202-.74.24-.202.038-.365.106-.365.144s-.144.106-.307.134a2.39 2.39 0 0 0-.605.211c-.154.086-.49.211-.74.288-.26.077-.461.183-.461.221 0 .048-.192.135-.432.202s-.432.154-.432.202c0 .039-.135.096-.288.135-.163.038-.346.115-.413.173-.067.067-.461.288-.884.5s-.826.433-.894.5a.87.87 0 0 1-.365.183c-.125.029-.231.096-.231.144s-.115.134-.25.182a3.06 3.06 0 0 0-.557.336c-.173.135-.365.24-.423.24-.067 0-.115.048-.115.096 0 .058-.106.144-.24.192s-.24.135-.24.192c0 .048-.048.096-.096.096-.135 0-.874.529-1.316.932-.183.173-.356.317-.394.317-.029 0-.183.115-.327.26l-.269.259v-1.201c0-1.163-.01-1.201-.26-1.432-.202-.202-.346-.24-.798-.24s-.596.038-.798.24c-.25.231-.259.269-.259 1.432v1.201l-.269-.259c-.144-.144-.298-.26-.327-.26-.039 0-.211-.144-.394-.317-.442-.404-1.182-.932-1.317-.932-.048 0-.096-.048-.096-.096 0-.058-.106-.144-.24-.192s-.24-.134-.24-.192c0-.048-.048-.096-.096-.096-.087 0-.894-.5-1.201-.749a2.53 2.53 0 0 0-.404-.202c-.173-.067-.317-.163-.317-.202 0-.048-.144-.135-.327-.192s-.375-.163-.432-.231-.279-.182-.49-.25-.384-.163-.384-.202-.163-.125-.356-.192c-.202-.058-.413-.173-.49-.24-.067-.067-.269-.154-.452-.192-.183-.029-.336-.096-.336-.144 0-.038-.202-.144-.452-.221-.259-.077-.586-.202-.75-.288a2.27 2.27 0 0 0-.596-.211c-.173-.029-.317-.096-.317-.134s-.163-.106-.356-.144a3.97 3.97 0 0 1-.75-.24c-.212-.096-.644-.231-.961-.298s-.615-.144-.673-.183c-.048-.038-.394-.125-.769-.192-.365-.067-.711-.154-.769-.192-.048-.038-.327-.106-.605-.144-.423-.058-.529-.106-.605-.308-.048-.144-.086-5.718-.086-14.097V12.478l.202-.221c.192-.202.24-.211 1.22-.144.567.039 1.047.096 1.076.125zm-5.064 1.509l.26.058v13.492l.086 13.492c.048 0 .106.163.144.365.115.769 1.086 1.614 1.97 1.72.269.029.49.087.49.125s.336.125.75.192c.404.058.788.154.836.192.058.038.346.125.653.192.308.058.673.173.817.25a4.52 4.52 0 0 0 .759.24c.279.067.509.154.509.192s.144.106.317.134c.288.067 1.067.384 1.605.663.135.077.404.183.605.24.192.067.356.154.356.192s.173.135.384.202.384.154.384.192c0 .029.154.115.346.183a3.56 3.56 0 0 1 .682.356c.192.125.404.231.471.231.077 0 .134.038.134.087s.134.135.288.202c.163.067.288.154.288.183 0 .038.154.125.336.202s.336.163.336.202c0 .048.163.154.356.25.327.154.442.231.903.654.087.077.202.144.259.144s.144.058.183.125.202.202.346.288c.154.096.346.25.442.336s.365.317.586.5c.231.182.701.625 1.057.97.778.778.913.855 1.566.855.577 0 .75-.106 1.711-1.057a12.86 12.86 0 0 1 .865-.788l.711-.605a11.16 11.16 0 0 1 .673-.509c.211-.144.423-.317.461-.375.038-.067.134-.125.211-.125s.173-.058.211-.125.24-.202.442-.308c.192-.106.356-.221.356-.259 0-.048.048-.077.115-.077.058 0 .24-.106.404-.231a2.06 2.06 0 0 1 .519-.288c.115-.038.211-.106.211-.154 0-.038.163-.144.365-.231a27.4 27.4 0 0 0 1.268-.644c.5-.269 1.047-.538 1.201-.596a1.4 1.4 0 0 0 .432-.211c.077-.058.327-.163.557-.231.221-.058.404-.144.404-.192 0-.038.24-.135.529-.202s.529-.154.529-.192.163-.106.365-.144c.192-.029.538-.144.769-.24.221-.106.663-.231.98-.298.317-.058.577-.144.577-.183s.365-.125.817-.192.817-.154.817-.192.221-.096.49-.125c.913-.106 1.836-.951 1.97-1.797.038-.211.106-.413.144-.442.048-.029.086-5.968.086-13.434V13.804c3.251-.848 4.732 2.599 6.631 4.497v14.126l-.077 14.126c-.038 0-.125.144-.192.317-.154.432-.452.548-1.365.548-.413 0-.778.038-.807.077-.029.048-.846.115-1.807.144-2.191.077-4.497.259-4.497.375 0 .038-.144.077-.308.077-.5 0-2.191.221-2.191.288 0 .038-.432.125-.961.192s-.961.154-.961.192-.336.125-.74.183c-.413.067-.99.192-1.278.298a7.88 7.88 0 0 1-.932.24c-.231.038-.413.096-.413.135s-.279.125-.625.192-.625.163-.625.212-.058.086-.135.086c-.183 0-1.153.308-1.211.394-.029.029-.279.115-.548.183-.279.077-.509.163-.509.202 0 .029-.192.115-.432.183s-.432.163-.432.202c0 .048-.067.086-.144.086-.087 0-.442.135-.798.298l-1.172.548c-.288.135-.548.269-.577.298-.029.038-.384.231-.788.432-.413.202-.749.394-.749.432s-.135.115-.298.173c-.288.115-.711.019-.855-.183-.029-.038-.394-.24-.817-.461-.423-.211-.836-.432-.913-.48-.336-.212-2.21-1.057-2.345-1.057-.087 0-.154-.038-.154-.086 0-.038-.192-.135-.432-.202s-.433-.154-.433-.192-.24-.125-.528-.192-.529-.163-.529-.202-.298-.144-.673-.24c-.365-.096-.673-.202-.673-.24s-.279-.125-.625-.192-.625-.154-.625-.192c0-.029-.269-.115-.596-.183-.336-.058-.654-.154-.701-.192-.058-.048-.529-.154-1.057-.25s-.98-.202-1.009-.231c-.029-.038-.471-.125-.98-.192-.519-.077-.942-.163-.942-.202 0-.029-.509-.115-1.124-.183-.625-.058-1.22-.154-1.326-.192-.279-.115-2.402-.288-4.488-.355-.999-.029-1.807-.096-1.807-.144 0-.038-.365-.077-.817-.077-.971 0-1.211-.096-1.48-.596l-.202-.384V32.369l.183-14.28c1.836-1.836 3.246-4.869 6.189-4.344zm18.691 9.727l-.269.298v8.774 8.773l.24.24c.432.432 1.201.432 1.634 0l.24-.24v-8.773-8.774l-.288-.308c-.259-.259-.346-.298-.798-.288-.432.01-.538.048-.759.298z"/></svg>