<svg width="64" height="64" viewBox="0 0 64 64" fill="none" xmlns="http://www.w3.org/2000/svg">
<path d="M14.7984 9.95018C14.5582 9.99823 14.3564 10.0751 14.3372 10.1328C14.3179 10.1808 14.2507 10.2289 14.1834 10.2289C13.9624 10.2289 13.0687 11.1994 13.0687 11.4301C13.0687 11.4877 12.6843 11.5165 11.9444 11.4973C6.95051 11.3515 6.84867 16.0007 4.11253 17.3688C3.93956 17.4168 3.92995 47.2931 4.09331 47.3988C4.15097 47.4373 4.23745 47.6006 4.26628 47.764C4.34316 48.1003 5.22724 49.1478 5.43866 49.1478C5.51553 49.1478 5.57319 49.1862 5.57319 49.2247C5.57319 49.2631 5.73655 49.3592 5.93836 49.4265C6.13055 49.4937 6.3804 49.5802 6.4861 49.6283C6.59181 49.6667 8.03325 49.7532 9.6861 49.8108C11.3486 49.8781 12.7708 49.9646 12.8573 50.0126C12.9438 50.0511 13.7606 50.1664 14.6543 50.2529C15.5576 50.349 16.336 50.4547 16.384 50.4931C16.4417 50.5316 16.8645 50.6181 17.345 50.6853C17.8158 50.7526 18.2771 50.8391 18.354 50.8871C18.4308 50.9352 18.8056 51.0313 19.1708 51.1081C20.5161 51.3964 21.6693 51.6847 21.7173 51.752C21.7462 51.7808 21.996 51.8673 22.2843 51.9346C22.5726 52.0018 22.9185 52.1172 23.0531 52.1844C23.1876 52.2613 23.3702 52.319 23.4471 52.319C23.5239 52.319 23.7065 52.3766 23.8507 52.4535C23.9948 52.5304 24.36 52.6649 24.6579 52.7514C24.9558 52.8379 25.2921 52.9628 25.4074 53.0397C25.5227 53.1069 25.7534 53.1934 25.9263 53.2319C26.0897 53.2703 26.2339 53.328 26.2339 53.376C26.2339 53.4145 26.3492 53.4817 26.4933 53.5202C26.772 53.5874 27.2717 53.7988 28.2134 54.2505C28.5306 54.4042 28.8477 54.5292 28.9053 54.5292C28.9726 54.5292 29.0206 54.5676 29.0206 54.6157C29.0206 54.6637 29.1456 54.731 29.3089 54.7694C29.4627 54.8078 29.6164 54.8655 29.6453 54.9135C29.6741 54.9616 30.0777 55.1826 30.539 55.4036C31.0002 55.6343 31.4327 55.8745 31.4999 55.9322C31.769 56.2012 32.2975 56.1724 32.5762 55.8745C32.605 55.8457 32.9702 55.6439 33.393 55.4421C33.8158 55.2307 34.181 55.0385 34.2098 55.0096C34.2387 54.9808 34.4981 54.8463 34.7864 54.7021C35.7185 54.2697 36.3624 53.9718 36.7083 53.8277C36.8909 53.7508 37.2945 53.5682 37.5924 53.4337C37.8903 53.2991 38.169 53.1838 38.1978 53.1838C38.2363 53.1838 38.3996 53.1166 38.563 53.0397C38.8513 52.9051 39.4278 52.6937 40.4561 52.3478C40.6963 52.2709 41.023 52.146 41.1768 52.0787C41.3402 52.0114 41.6477 51.925 41.8783 51.8865C42.0993 51.8481 42.2819 51.7904 42.2819 51.752C42.2819 51.7135 42.6567 51.6078 43.1275 51.5117C43.5888 51.4157 44.0116 51.3003 44.0597 51.2619C44.1173 51.2235 44.4921 51.1274 44.9053 51.0697C45.3089 51.0024 45.6453 50.916 45.6453 50.8775C45.6453 50.8391 46.0777 50.7526 46.6062 50.6853C47.1348 50.6181 47.5672 50.5316 47.5672 50.4931C47.5672 50.4547 48.336 50.349 49.2777 50.2625C50.2098 50.1664 51.0555 50.0511 51.142 50.003C51.2284 49.9646 52.6603 49.8781 54.3131 49.8108C55.966 49.7532 57.4074 49.6667 57.5131 49.6283C57.6188 49.5802 57.8687 49.4937 58.0705 49.4265C58.2627 49.3592 58.426 49.2631 58.426 49.2247C58.426 49.1862 58.4837 49.1478 58.5606 49.1478C58.772 49.1478 59.6561 48.1003 59.733 47.764C59.7618 47.6006 59.8483 47.4373 59.9059 47.3988C60.0501 47.3027 60.0597 17.4649 59.9155 17.3592C57.2693 15.2422 55.782 11.3753 52.151 11.4973C51.3149 11.5165 50.9305 11.4973 50.9305 11.4205C50.9305 11.2186 50.008 10.2289 49.8158 10.2289C49.7486 10.2289 49.6813 10.1904 49.6621 10.1328C49.5852 9.90213 48.4897 9.82526 46.9426 9.93097C46.1065 9.99823 45.3858 10.0751 45.357 10.1135C45.3281 10.1616 44.963 10.2481 44.5402 10.3057C44.1269 10.373 43.7522 10.4595 43.7233 10.4979C43.6945 10.546 43.4158 10.6325 43.0987 10.6997C42.7816 10.767 42.3396 10.9111 42.1185 11.0072C41.8975 11.1033 41.6477 11.1898 41.5708 11.1898C41.4939 11.1898 41.369 11.2475 41.3017 11.3147C41.2345 11.3916 41.0038 11.5069 40.7924 11.5742C40.581 11.6415 40.3888 11.728 40.36 11.7568C40.3312 11.7856 40.014 11.9682 39.6393 12.1508C38.957 12.4967 38.4477 12.8042 38.1017 13.0733C37.996 13.1598 37.8134 13.2655 37.6981 13.3135C37.5732 13.3616 37.4771 13.4385 37.4771 13.4961C37.4771 13.5442 37.4194 13.5922 37.3618 13.5922C37.2945 13.5922 37.1215 13.6883 36.9774 13.8132C36.8333 13.9382 36.6026 14.1208 36.4585 14.2265C35.9588 14.582 34.402 15.985 33.9792 16.4655C33.8639 16.5904 33.5083 16.9556 33.1816 17.2727C32.8453 17.5898 32.5762 17.8877 32.5762 17.9358C32.5762 17.9838 32.4224 18.176 32.2399 18.3682C32.0573 18.5604 31.9035 18.6661 31.9035 18.618C31.9035 18.4643 31.3269 17.8205 29.9336 16.4271C28.7804 15.2739 28.4056 14.928 27.5696 14.2649C27.4062 14.1304 27.1852 13.9478 27.0795 13.8613C26.9738 13.7652 26.8008 13.6691 26.7047 13.6403C26.599 13.6018 26.5221 13.5442 26.5221 13.4961C26.5221 13.4481 26.3684 13.3328 26.1858 13.2463C26.0032 13.1598 25.8495 13.0541 25.8495 13.0156C25.8495 12.9772 25.7053 12.8907 25.542 12.8138C25.369 12.7466 25.2056 12.6601 25.1768 12.6217C25.0999 12.5159 23.0339 11.4781 22.8993 11.4781C22.8321 11.4781 22.7744 11.4397 22.7744 11.3916C22.7744 11.3436 22.563 11.2475 22.2939 11.1802C22.0345 11.1129 21.8134 11.0265 21.8134 10.988C21.8134 10.9496 21.4771 10.8439 21.0735 10.7478C20.6603 10.6517 20.3047 10.546 20.2759 10.5075C20.2471 10.4691 19.8819 10.3826 19.4591 10.3153C19.0363 10.2481 18.6711 10.1616 18.6423 10.1232C18.5942 10.0559 16.0092 9.83487 15.4999 9.85409C15.3558 9.8637 15.0387 9.90213 14.7984 9.95018ZM17.5852 12.2373C17.614 12.2757 17.9888 12.3526 18.4212 12.4102C18.8537 12.4775 19.2861 12.5736 19.3822 12.6217C19.4783 12.6793 19.7954 12.785 20.0837 12.8619C20.7179 13.0253 21.7462 13.4096 21.8134 13.5057C21.8423 13.5442 22.0441 13.6211 22.2747 13.6883C22.4957 13.7556 22.6783 13.8421 22.6783 13.8805C22.6783 13.9286 22.8417 14.0247 23.0435 14.1111C23.5336 14.3322 24.139 14.6685 24.2927 14.8126C24.36 14.8799 24.4561 14.9376 24.4945 14.9376C24.533 14.9376 24.6675 15.0144 24.7732 15.1009C24.8885 15.197 25.1384 15.3796 25.3305 15.5141C25.5227 15.6487 25.763 15.8313 25.8591 15.9178C25.9552 16.0138 26.0801 16.0907 26.1281 16.0907C26.1858 16.0907 26.2819 16.1676 26.3492 16.2637C26.4164 16.3598 26.5414 16.4847 26.6278 16.5328C26.9546 16.7153 28.5786 18.2241 28.963 18.7045C29.0591 18.8199 29.3474 19.1466 29.5876 19.4156C29.8278 19.6847 30.1354 20.0403 30.2699 20.2229C30.4044 20.3958 30.587 20.6168 30.6831 20.7129C30.7696 20.8186 30.8465 20.934 30.8465 20.9724C30.8465 21.0205 31.0002 21.1934 31.1924 21.3568C31.4807 21.6162 31.6152 21.6643 31.9996 21.6643C32.384 21.6643 32.5185 21.6162 32.8068 21.3568C32.999 21.1934 33.1528 21.0205 33.1528 20.9724C33.1528 20.934 33.2297 20.8186 33.3257 20.7129C33.6429 20.367 34.0176 19.8961 34.0176 19.8289C34.0176 19.8 34.2002 19.5694 34.4309 19.3388C35.4303 18.2817 36.2182 17.4745 36.3816 17.34C36.4873 17.2535 36.8909 16.9075 37.2945 16.5712C37.6981 16.2253 38.2843 15.7736 38.5918 15.5622C38.9089 15.3508 39.2164 15.1202 39.2837 15.0625C39.351 14.9952 39.4471 14.9376 39.4951 14.9376C39.5432 14.9376 39.6393 14.8799 39.7161 14.803C39.8411 14.6685 40.0429 14.5532 40.8981 14.1208C41.0999 14.015 41.3306 13.8709 41.3978 13.8036C41.4651 13.746 41.5708 13.6883 41.6188 13.6883C41.6765 13.6883 41.8975 13.6018 42.1281 13.5057C42.7047 13.2367 43.3005 13.0253 43.9155 12.8619C44.2038 12.785 44.5209 12.6793 44.617 12.6217C44.7131 12.5736 45.1456 12.4775 45.578 12.4102C46.0104 12.3526 46.3852 12.2661 46.414 12.2277C46.4429 12.1892 46.9522 12.1508 47.5384 12.1316C48.5185 12.1027 48.6242 12.122 48.7588 12.2949C48.8933 12.4679 48.9029 14.1015 48.9125 26.3442C48.9125 34.7238 48.8741 40.2877 48.826 40.4319C48.7492 40.6337 48.6435 40.6817 48.2206 40.7394C47.942 40.7778 47.6729 40.8451 47.6152 40.8835C47.5672 40.922 47.2212 41.0084 46.8465 41.0757C46.4813 41.143 46.1354 41.2295 46.0777 41.2679C46.0296 41.3063 45.7221 41.3832 45.405 41.4505C45.0879 41.5178 44.6555 41.6523 44.4441 41.7484C44.2327 41.8445 43.8963 41.9502 43.7041 41.9886C43.5023 42.0271 43.339 42.0943 43.339 42.1328C43.339 42.1712 43.1948 42.2385 43.0315 42.2673C42.8585 42.2961 42.5894 42.3922 42.426 42.4787C42.2723 42.5652 41.936 42.6901 41.6861 42.767C41.4266 42.8439 41.2248 42.9496 41.2248 42.988C41.2248 43.0361 41.0327 43.1226 40.7924 43.1898C40.5522 43.2571 40.36 43.3436 40.36 43.3916C40.36 43.4301 40.2254 43.4877 40.0717 43.5262C39.9083 43.5646 39.7257 43.6415 39.6585 43.6991C39.5912 43.7664 39.1972 43.9874 38.7744 44.1988C38.3516 44.4102 37.948 44.6313 37.8807 44.6985C37.8134 44.7658 37.6501 44.8523 37.5155 44.8811C37.3906 44.9099 37.2849 44.9772 37.2849 45.0253C37.2849 45.0733 37.1696 45.1598 37.0351 45.2078C36.9005 45.2655 36.6507 45.4096 36.4777 45.5442C36.3047 45.6787 36.1125 45.7844 36.0549 45.7844C35.9876 45.7844 35.9396 45.8325 35.9396 45.8805C35.9396 45.9382 35.8339 46.0247 35.6993 46.0727C35.5648 46.1208 35.4591 46.2072 35.4591 46.2649C35.4591 46.3129 35.411 46.361 35.363 46.361C35.2284 46.361 34.4885 46.8895 34.0465 47.2931C33.8639 47.4661 33.6909 47.6102 33.6525 47.6102C33.6236 47.6102 33.4699 47.7256 33.3257 47.8697L33.0567 48.1292V46.928C33.0567 45.7652 33.0471 45.7268 32.7972 45.4961C32.5954 45.2943 32.4513 45.2559 31.9996 45.2559C31.548 45.2559 31.4038 45.2943 31.202 45.4961C30.9522 45.7268 30.9426 45.7652 30.9426 46.928V48.1292L30.6735 47.8697C30.5294 47.7256 30.3756 47.6102 30.3468 47.6102C30.3083 47.6102 30.1354 47.4661 29.9528 47.2931C29.5107 46.8895 28.7708 46.361 28.6363 46.361C28.5882 46.361 28.5402 46.3129 28.5402 46.2649C28.5402 46.2072 28.4345 46.1208 28.2999 46.0727C28.1654 46.0247 28.0597 45.9382 28.0597 45.8805C28.0597 45.8325 28.0116 45.7844 27.9636 45.7844C27.8771 45.7844 27.0699 45.2847 26.7624 45.0349C26.7143 44.9964 26.5221 44.9003 26.3588 44.8331C26.1858 44.7658 26.0417 44.6697 26.0417 44.6313C26.0417 44.5832 25.8975 44.4967 25.7149 44.4391C25.5324 44.3814 25.3402 44.2757 25.2825 44.2084C25.2248 44.1412 25.0038 44.0259 24.7924 43.9586C24.581 43.8913 24.408 43.7952 24.408 43.7568C24.408 43.7184 24.2447 43.6319 24.0525 43.5646C23.8507 43.5069 23.6393 43.3916 23.5624 43.3244C23.4951 43.2571 23.2933 43.1706 23.1107 43.1322C22.9281 43.1033 22.7744 43.0361 22.7744 42.988C22.7744 42.9496 22.5726 42.8439 22.3227 42.767C22.0633 42.6901 21.7366 42.5652 21.5732 42.4787C21.4194 42.3922 21.1408 42.2961 20.9774 42.2673C20.8044 42.2385 20.6603 42.1712 20.6603 42.1328C20.6603 42.0943 20.4969 42.0271 20.3047 41.9886C20.1029 41.9502 19.7666 41.8445 19.5552 41.7484C19.3438 41.6523 18.9113 41.5178 18.5942 41.4505C18.2771 41.3832 17.9792 41.3063 17.9215 41.2679C17.8735 41.2295 17.5275 41.143 17.1528 41.0757C16.7876 41.0084 16.4417 40.922 16.384 40.8835C16.336 40.8451 16.0573 40.7778 15.7786 40.7394C15.3558 40.6817 15.2501 40.6337 15.1732 40.4319C15.1251 40.2877 15.0867 34.7141 15.0867 26.3346V12.4775L15.2885 12.2565C15.4807 12.0547 15.5287 12.0451 16.5089 12.1123C17.0759 12.1508 17.5564 12.2084 17.5852 12.2373ZM12.5209 13.746L12.7804 13.8036V27.2955C12.7804 34.9063 12.8188 40.7874 12.8669 40.7874C12.9149 40.7874 12.9726 40.9508 13.011 41.1526C13.1263 41.9214 14.0969 42.767 14.981 42.8727C15.2501 42.9015 15.4711 42.9592 15.4711 42.9976C15.4711 43.0361 15.8074 43.1226 16.2206 43.1898C16.6242 43.2475 17.0086 43.3436 17.0567 43.382C17.1143 43.4205 17.4026 43.5069 17.7101 43.5742C18.0176 43.6319 18.3828 43.7472 18.5269 43.8241C18.6711 43.8913 19.017 44.0066 19.2861 44.0643C19.5648 44.1316 19.7954 44.2181 19.7954 44.2565C19.7954 44.2949 19.9396 44.3622 20.1125 44.391C20.4008 44.4583 21.1792 44.7754 21.7173 45.0541C21.8519 45.131 22.1209 45.2367 22.3227 45.2943C22.5149 45.3616 22.6783 45.4481 22.6783 45.4865C22.6783 45.525 22.8513 45.6211 23.0627 45.6883C23.2741 45.7556 23.4471 45.8421 23.4471 45.8805C23.4471 45.9093 23.6008 45.9958 23.793 46.0631C23.9852 46.1304 24.2927 46.2937 24.4753 46.4187C24.6675 46.5436 24.8789 46.6493 24.9462 46.6493C25.023 46.6493 25.0807 46.6877 25.0807 46.7358C25.0807 46.7838 25.2152 46.8703 25.369 46.9376C25.5324 47.0048 25.6573 47.0913 25.6573 47.1202C25.6573 47.1586 25.811 47.2451 25.9936 47.322C26.1762 47.3988 26.3299 47.4853 26.3299 47.5238C26.3299 47.5718 26.4933 47.6775 26.6855 47.7736C27.0122 47.9274 27.1275 48.0042 27.5888 48.4271C27.6753 48.5039 27.7906 48.5712 27.8483 48.5712C27.9059 48.5712 27.9924 48.6289 28.0309 48.6961C28.0693 48.7634 28.2327 48.8979 28.3768 48.9844C28.5306 49.0805 28.7227 49.2343 28.8188 49.3208C28.9149 49.4072 29.184 49.6379 29.405 49.8205C29.6357 50.003 30.1065 50.4451 30.4621 50.791C31.2405 51.5694 31.375 51.6463 32.0284 51.6463C32.605 51.6463 32.778 51.5406 33.739 50.5892C33.9792 50.349 34.3636 49.9934 34.6038 49.8012C34.8345 49.609 35.1612 49.34 35.3149 49.1958C35.4783 49.0613 35.7762 48.8307 35.9876 48.6865C36.199 48.5424 36.4104 48.3694 36.4489 48.3117C36.4873 48.2445 36.5834 48.1868 36.6603 48.1868C36.7372 48.1868 36.8333 48.1292 36.8717 48.0619C36.9101 47.9946 37.1119 47.8601 37.3137 47.7544C37.5059 47.6487 37.6693 47.5334 37.6693 47.4949C37.6693 47.4469 37.7173 47.4181 37.7846 47.4181C37.8423 47.4181 38.0248 47.3123 38.1882 47.1874C38.3516 47.0625 38.5822 46.9376 38.7071 46.8991C38.8224 46.8607 38.9185 46.7934 38.9185 46.7454C38.9185 46.7069 39.0819 46.6012 39.2837 46.5147C39.4759 46.4283 40.0525 46.14 40.5522 45.8709C41.0519 45.6018 41.5996 45.3328 41.7534 45.2751C41.9167 45.2271 42.1089 45.131 42.1858 45.0637C42.2627 45.006 42.5125 44.9003 42.7432 44.8331C42.9642 44.7754 43.1468 44.6889 43.1468 44.6409C43.1468 44.6024 43.387 44.5063 43.6753 44.4391C43.9636 44.3718 44.2038 44.2853 44.2038 44.2469C44.2038 44.2084 44.3672 44.1412 44.569 44.1027C44.7612 44.0739 45.1071 43.9586 45.3378 43.8625C45.5588 43.7568 46.0008 43.6319 46.3179 43.5646C46.6351 43.5069 46.8945 43.4205 46.8945 43.382C46.8945 43.3436 47.2597 43.2571 47.7113 43.1898C48.163 43.1226 48.5281 43.0361 48.5281 42.9976C48.5281 42.9592 48.7492 42.9015 49.0182 42.8727C49.9311 42.767 50.8537 41.9214 50.9882 41.0757C51.0266 40.8643 51.0939 40.6625 51.1324 40.6337C51.1804 40.6048 51.2188 34.6661 51.2188 27.1994V13.8036C54.4695 12.9557 55.9509 16.4024 57.8495 18.3009V32.4271C57.8495 40.1916 57.811 46.5532 57.7726 46.5532C57.7342 46.5532 57.6477 46.6973 57.5804 46.8703C57.4267 47.3027 57.1287 47.4181 56.2158 47.4181C55.8026 47.4181 55.4375 47.4565 55.4086 47.4949C55.3798 47.543 54.563 47.6102 53.602 47.6391C51.411 47.716 49.1047 47.8985 49.1047 48.0138C49.1047 48.0523 48.9606 48.0907 48.7972 48.0907C48.2975 48.0907 46.6062 48.3117 46.6062 48.379C46.6062 48.4175 46.1738 48.5039 45.6453 48.5712C45.1167 48.6385 44.6843 48.725 44.6843 48.7634C44.6843 48.8018 44.348 48.8883 43.9444 48.946C43.5312 49.0132 42.9546 49.1382 42.6663 49.2439C42.378 49.34 41.9552 49.4457 41.7342 49.4841C41.5035 49.5226 41.3209 49.5802 41.3209 49.6187C41.3209 49.6571 41.0423 49.7436 40.6963 49.8108C40.3504 49.8781 40.0717 49.9742 40.0717 50.0223C40.0717 50.0703 40.014 50.1087 39.9372 50.1087C39.7546 50.1087 38.784 50.4163 38.7263 50.5027C38.6975 50.5316 38.4477 50.6181 38.1786 50.6853C37.8999 50.7622 37.6693 50.8487 37.6693 50.8871C37.6693 50.916 37.4771 51.0024 37.2369 51.0697C36.9966 51.137 36.8044 51.2331 36.8044 51.2715C36.8044 51.3196 36.7372 51.358 36.6603 51.358C36.5738 51.358 36.2182 51.4925 35.8627 51.6559C35.5071 51.8193 34.9786 52.0691 34.6903 52.2036C34.402 52.3382 34.1426 52.4727 34.1137 52.5015C34.0849 52.54 33.7294 52.7322 33.3257 52.934C32.9125 53.1358 32.5762 53.328 32.5762 53.3664C32.5762 53.4048 32.4417 53.4817 32.2783 53.5394C31.99 53.6547 31.5672 53.5586 31.423 53.3568C31.3942 53.3184 31.029 53.1166 30.6062 52.8955C30.1834 52.6841 29.7702 52.4631 29.6933 52.4151C29.357 52.2036 27.4831 51.358 27.3486 51.358C27.2621 51.358 27.1948 51.3196 27.1948 51.2715C27.1948 51.2331 27.0026 51.137 26.7624 51.0697C26.5221 51.0024 26.3299 50.916 26.3299 50.8775C26.3299 50.8391 26.0897 50.7526 25.8014 50.6853C25.5131 50.6181 25.2729 50.522 25.2729 50.4835C25.2729 50.4451 24.975 50.3394 24.6002 50.2433C24.2351 50.1472 23.9275 50.0415 23.9275 50.003C23.9275 49.9646 23.6489 49.8781 23.3029 49.8108C22.957 49.7436 22.6783 49.6571 22.6783 49.6187C22.6783 49.5898 22.4092 49.5033 22.0825 49.4361C21.7462 49.3784 21.429 49.2823 21.381 49.2439C21.3233 49.1958 20.8525 49.0901 20.3239 48.994C19.7954 48.8979 19.3438 48.7922 19.3149 48.7634C19.2861 48.725 18.8441 48.6385 18.3348 48.5712C17.8158 48.4943 17.393 48.4078 17.393 48.3694C17.393 48.3406 16.8837 48.2541 16.2687 48.1868C15.6441 48.1292 15.0483 48.0331 14.9426 47.9946C14.6639 47.8793 12.5402 47.7063 10.4549 47.6391C9.45547 47.6102 8.64827 47.543 8.64827 47.4949C8.64827 47.4565 8.2831 47.4181 7.83145 47.4181C6.86088 47.4181 6.62064 47.322 6.35157 46.8223L6.14977 46.4379V32.3694C6.14977 18.5508 6.14977 18.2913 6.33235 18.0895C8.16852 16.2533 9.57854 13.2206 12.5209 13.746Z" fill="#3BF5FF"/>
<path d="M31.2124 23.4732L30.9434 23.7711V32.5447V41.3182L31.1836 41.5585C31.616 41.9909 32.3848 41.9909 32.8172 41.5585L33.0575 41.3182V32.5447V23.7711L32.7692 23.4636C32.5097 23.2041 32.4232 23.1657 31.9716 23.1753C31.5392 23.1849 31.4334 23.2234 31.2124 23.4732Z" fill="#3BF5FF"/>
</svg>
