<svg width="48" height="48" viewBox="0 0 48 48" fill="none" xmlns="http://www.w3.org/2000/svg">
<path d="M23.6666 24.3334C25.7766 26.4432 28.5556 28.5874 28.5556 28.5874L32.365 24.7778C32.365 24.7778 30.221 21.9988 28.1112 19.8889C26.0012 17.779 23.2222 15.6349 23.2222 15.6349L19.4127 19.4444C19.4127 19.4444 21.5568 22.2234 23.6666 24.3334ZM23.6666 24.3334L17 31M33 24.1428L27.9206 29.2222M23.8572 15L18.7778 20.0794" stroke="#3BF5FF" stroke-width="3" stroke-linecap="round" stroke-linejoin="round"/>
<path d="M42 22.3666V16.5606C42 13.2806 42 11.6406 41.1918 10.5706C40.3836 9.50058 38.5562 8.98112 34.9014 7.9422C32.4044 7.2324 30.2032 6.37726 28.4446 5.59658C26.0468 4.5322 24.848 4 24 4C23.152 4 21.9532 4.5322 19.5554 5.59658C17.7968 6.37726 15.5957 7.23238 13.0987 7.9422C9.44386 8.98112 7.61644 9.50058 6.80822 10.5706C6 11.6406 6 13.2806 6 16.5606V22.3666C6 33.617 16.1255 40.367 21.188 43.0388C22.4022 43.6796 23.0092 44 24 44C24.9908 44 25.5978 43.6796 26.812 43.0388C31.8744 40.367 42 33.617 42 22.3666Z" stroke="#3BF5FF" stroke-width="3" stroke-linecap="round"/>
</svg>
