<svg width="64" height="64" viewBox="0 0 64 64" fill="none" xmlns="http://www.w3.org/2000/svg">
<path d="M18.6667 13.3333C18.6667 14.7478 18.1048 16.1044 17.1046 17.1046C16.1044 18.1048 14.7478 18.6667 13.3333 18.6667M18.6667 13.3333C18.6667 12.2785 18.3539 11.2474 17.7678 10.3703C17.1818 9.49323 16.3489 8.80965 15.3743 8.40598C14.3998 8.00231 13.3274 7.89669 12.2929 8.10248C11.2583 8.30827 10.308 8.81622 9.5621 9.5621C8.81622 10.308 8.30827 11.2583 8.10248 12.2929C7.89669 13.3274 8.00231 14.3998 8.40598 15.3743C8.80965 16.3489 9.49323 17.1818 10.3703 17.7678C11.2474 18.3539 12.2785 18.6667 13.3333 18.6667M18.6667 13.3333H26.6667M13.3333 18.6667V26.6667" stroke="#3BF5FF" stroke-width="4" stroke-linecap="round" stroke-linejoin="round"/>
<path d="M18.6667 50.6693C18.6667 49.2548 18.1048 47.8982 17.1046 46.898C16.1044 45.8978 14.7478 45.3359 13.3333 45.3359M18.6667 50.6693C18.6667 51.7241 18.3539 52.7553 17.7678 53.6323C17.1818 54.5094 16.3489 55.193 15.3743 55.5966C14.3998 56.0003 13.3274 56.1059 12.2929 55.9001C11.2583 55.6943 10.308 55.1864 9.5621 54.4405C8.81622 53.6946 8.30827 52.7443 8.10248 51.7098C7.89669 50.6752 8.00231 49.6028 8.40598 48.6283C8.80965 47.6538 9.49323 46.8208 10.3703 46.2348C11.2474 45.6487 12.2785 45.3359 13.3333 45.3359M18.6667 50.6693H26.6667M13.3333 45.3359V37.3359" stroke="#3BF5FF" stroke-width="4" stroke-linecap="round" stroke-linejoin="round"/>
<path d="M45.332 50.6693C45.332 49.2548 45.8939 47.8982 46.8941 46.898C47.8943 45.8978 49.2509 45.3359 50.6654 45.3359M45.332 50.6693C45.332 51.7241 45.6448 52.7553 46.2309 53.6323C46.8169 54.5094 47.6498 55.193 48.6244 55.5966C49.5989 56.0003 50.6713 56.1059 51.7058 55.9001C52.7404 55.6943 53.6907 55.1864 54.4366 54.4405C55.1825 53.6946 55.6904 52.7443 55.8962 51.7098C56.102 50.6752 55.9964 49.6028 55.5927 48.6283C55.1891 47.6538 54.5055 46.8208 53.6284 46.2348C52.7513 45.6487 51.7202 45.3359 50.6654 45.3359M45.332 50.6693H37.332M50.6654 45.3359V37.3359" stroke="#3BF5FF" stroke-width="4" stroke-linecap="round" stroke-linejoin="round"/>
<path d="M45.3346 13.3333C45.3346 14.7478 45.8965 16.1044 46.8967 17.1046C47.8969 18.1048 49.2535 18.6667 50.668 18.6667M45.3346 13.3333C45.3346 12.2785 45.6474 11.2474 46.2335 10.3703C46.8195 9.49323 47.6525 8.80965 48.627 8.40598C49.6015 8.00231 50.6739 7.89669 51.7085 8.10248C52.743 8.30827 53.6933 8.81622 54.4392 9.5621C55.1851 10.308 55.693 11.2583 55.8988 12.2929C56.1046 13.3274 55.999 14.3998 55.5953 15.3743C55.1917 16.3489 54.5081 17.1818 53.631 17.7678C52.754 18.3539 51.7228 18.6667 50.668 18.6667M45.3346 13.3333H37.3346M50.668 18.6667V26.6667M22.668 32H41.3346M32.0013 41.3333V22.6667" stroke="#3BF5FF" stroke-width="4" stroke-linecap="round" stroke-linejoin="round"/>
</svg>
