<svg width="20" height="21" viewBox="0 0 20 21" fill="none" xmlns="http://www.w3.org/2000/svg">
<path d="M1.87549 10.5C1.87549 8.74989 1.87455 7.3741 2.01872 6.3016C2.1653 5.21119 2.47193 4.34057 3.15641 3.65593C3.79009 3.02215 4.58385 2.71132 5.56527 2.55241C6.52851 2.39647 7.73845 2.37772 9.24854 2.375C9.59362 2.37449 9.87373 2.65408 9.87435 2.99919C9.8748 3.34409 9.59587 3.62417 9.25098 3.625C7.72039 3.62776 6.61297 3.64896 5.76546 3.78613C4.93638 3.92036 4.42489 4.15589 4.04102 4.53971C3.62738 4.95341 3.38528 5.51652 3.25732 6.46843C3.12699 7.43826 3.12549 8.71474 3.12549 10.5C3.12549 12.2853 3.12696 13.5618 3.25732 14.5316C3.3853 15.4833 3.62744 16.0458 4.04102 16.4595C4.45462 16.8731 5.01732 17.1152 5.96891 17.2432C6.93857 17.3735 8.2147 17.375 9.99967 17.375C11.7847 17.375 13.0608 17.3736 14.0304 17.2432C14.9821 17.1152 15.5448 16.8731 15.9583 16.4595C16.3422 16.0755 16.5777 15.5636 16.7119 14.7342C16.8491 13.8866 16.8703 12.7794 16.873 11.2487C16.8737 10.9036 17.1537 10.624 17.4989 10.6245C17.844 10.6251 18.1237 10.906 18.123 11.2511C18.1203 12.7613 18.1015 13.9711 17.9456 14.9344C17.7868 15.9159 17.4758 16.7095 16.8421 17.3433C16.1576 18.0279 15.2874 18.3351 14.1973 18.4818C13.1249 18.626 11.7494 18.625 9.99967 18.625C8.24988 18.625 6.87444 18.626 5.80208 18.4818C4.71172 18.3351 3.84098 18.028 3.15641 17.3433C2.47197 16.6586 2.16529 15.788 2.01872 14.6976C1.87457 13.6252 1.87549 12.2499 1.87549 10.5Z" fill="#EAEBEB"/>
<path d="M13.3505 2.4266C13.6441 2.42243 14.5014 2.41069 15.3411 2.45264C15.7593 2.47354 16.1905 2.50825 16.552 2.5682C16.732 2.59804 16.911 2.63636 17.0696 2.68865C17.1925 2.72919 17.3645 2.79723 17.5115 2.91977L17.5725 2.9751L17.6279 3.03695C17.7499 3.18396 17.8178 3.35523 17.8582 3.47803C17.9104 3.63678 17.9488 3.8162 17.9786 3.99643C18.0385 4.3583 18.0733 4.78957 18.0942 5.20818C18.1361 6.0492 18.1244 6.90825 18.1202 7.20199C18.1151 7.54697 17.8313 7.82293 17.4863 7.81804C17.1412 7.81314 16.8654 7.52915 16.8702 7.18409C16.8744 6.89082 16.8855 6.06713 16.8458 5.27003C16.8347 5.0474 16.8196 4.83211 16.8002 4.63445L9.651 11.826C9.40776 12.0707 9.01202 12.0722 8.76721 11.8293C8.52243 11.5859 8.52058 11.1895 8.76395 10.9447L15.9197 3.74659C15.7208 3.72696 15.5037 3.71224 15.2793 3.70102C14.4836 3.66126 13.6616 3.67243 13.3684 3.6766C13.0234 3.68151 12.7395 3.40562 12.7345 3.06055C12.7296 2.71541 13.0054 2.43151 13.3505 2.4266Z" fill="#EAEBEB"/>
</svg>
