<svg width="160" height="27" viewBox="0 0 160 27" fill="none" xmlns="http://www.w3.org/2000/svg">
<g style="mix-blend-mode:luminosity">
<path d="M0 2.93615H3.83188V22.7267H14.437V26.2067H0V2.93615ZM18.2149 2.93615C19.5102 2.93615 20.6166 3.91904 20.6166 5.2207C20.6166 6.52236 19.5372 7.55838 18.2149 7.55838C16.8927 7.55838 15.8133 6.52236 15.8133 5.2207C15.8133 3.9456 16.8657 2.93615 18.2149 2.93615ZM16.326 9.44446H19.996V26.2332H16.326V9.44446ZM22.1817 9.44446H25.8517V11.7556C26.9311 9.97575 28.7931 8.99286 31.2757 8.99286C35.2695 8.99286 37.7521 12.0478 37.7521 16.8825V26.2067H34.0822V17.2279C34.0822 14.0932 32.6789 12.3134 30.1693 12.3134C27.3899 12.3134 25.8787 14.1729 25.8787 17.5201V26.2067H22.1817V9.44446ZM39.6951 2.93615H43.365V17.6529L50.2192 9.44446H54.8337L47.5207 17.8388L54.8337 26.2067H50.2192L43.365 18.0248V26.2067H39.6951V2.93615ZM56.2909 5.16757H60.0418V9.44446H64.4134V12.4462H60.0418V21.0797C60.0418 22.1689 60.7164 22.8595 61.7959 22.8595H64.2515V26.2332H61.3101C58.1259 26.2332 56.3179 24.3737 56.3179 21.0797L56.2909 5.16757ZM66.2754 9.44446H69.6755V11.5165C70.593 9.92262 72.1042 8.99286 73.9661 8.99286C74.5328 8.99286 74.8297 9.01943 75.2614 9.15225V12.4994C75.0185 12.4462 74.6407 12.3666 73.8852 12.3666C71.1867 12.3666 69.7025 14.598 69.7025 18.4233V26.1801H66.0325V9.44446H66.2754ZM83.8697 8.99286C87.9174 8.99286 92.316 11.3837 92.316 18.2107V18.6889H79.1473C79.4441 21.6907 81.1981 23.3377 84.1665 23.3377C86.2983 23.3377 88.0793 22.222 88.4841 20.6547H92.235C91.8303 24.0018 88.2682 26.6583 84.1395 26.6583C78.8504 26.6583 75.5043 23.2846 75.5043 17.8123C75.5043 12.951 78.7155 8.99286 83.8697 8.99286ZM88.3762 15.7137C87.8634 13.6417 86.1904 12.34 83.8697 12.34C81.6299 12.34 80.0378 13.6682 79.4171 15.7137H88.3762ZM102.3 8.99286C106.348 8.99286 110.747 11.3837 110.747 18.2107V18.6889H97.5781C97.8749 21.6907 99.6289 23.3377 102.597 23.3377C104.729 23.3377 106.51 22.222 106.915 20.6547H110.639C110.261 24.0018 106.699 26.6583 102.57 26.6583C97.2812 26.6583 93.9351 23.2846 93.9351 17.8123C93.9351 12.951 97.1463 8.99286 102.3 8.99286ZM106.807 15.7137C106.294 13.6417 104.621 12.34 102.273 12.34C100.034 12.34 98.4416 13.6682 97.8209 15.7137H106.807ZM111.637 8.93973H118.195L113.526 4.58315L116.09 2.00639L120.542 6.46923V0.09375H124.401V6.46923L128.854 2.00639L131.417 4.58315L126.749 8.93973H133.306V12.5525H126.695L131.417 17.0153L128.854 19.539L122.458 13.2432L116.063 19.539L113.499 17.0153L118.195 12.5259H111.583V8.93973H111.637ZM120.569 17.6795H124.428V26.2332H120.569V17.6795Z" fill="#969696"/>
</g>
</svg>
