<svg width="360" height="360" viewBox="0 0 360 360" fill="none" xmlns="http://www.w3.org/2000/svg">
<path d="M197.659 162.261L179.905 130.008L162.181 162.261L129.867 180.015L162.181 197.74L179.905 229.993L197.659 197.74L229.912 180.015L197.659 162.261ZM197.659 162.261L179.905 130.008L162.181 162.261L129.867 180.015L162.181 197.74L179.905 229.993L197.659 197.74L229.912 180.015L197.659 162.261ZM197.659 162.261L179.905 130.008L162.181 162.261L129.867 180.015L162.181 197.74L179.905 229.993L197.659 197.74L229.912 180.015L197.659 162.261Z" fill="url(#paint0_linear_4519_70054)"/>
<path d="M357.83 163.557C354.001 147.521 344.567 133.293 331.123 123.527C327.475 120.814 323.497 118.493 319.277 116.564C319.066 116.443 318.824 116.323 318.613 116.232L307.43 111.228L266.797 92.9917H266.767V92.9314L229.721 76.3527L212.449 68.6059L210.399 67.6714L198.794 62.4868L198.372 62.306C186.556 57.0008 172.992 57.0008 161.176 62.306L161.025 62.3662L147.099 68.6059L130.43 76.0814L136.036 63.6323L141.191 52.208C143.15 47.6865 145.863 43.6473 149.148 40.211C157.046 31.8915 168.199 27.0083 180.015 27.0083C191.831 27.0083 202.773 31.8312 210.671 40.0904C214.017 43.5569 216.79 47.6262 218.839 52.208L221.191 57.4228L258.297 74.0618L248.561 52.3286H248.531L243.316 40.6632H243.286C241.326 36.3527 238.975 32.3135 236.262 28.6059C226.466 15.162 212.208 5.75735 196.202 1.92916C191.62 0.813866 186.888 0.180859 182.065 0.0301432C181.402 0 180.708 0 180.015 0C174.499 0 169.073 0.633007 163.858 1.89902C147.671 5.69706 133.384 15.2223 123.647 28.7867C120.965 32.4642 118.644 36.413 116.745 40.6632H116.714L111.379 52.5094L93.2329 92.7506L93.1424 92.8109L76.5335 129.857L68.7566 147.069L62.3964 161.236V161.326C59.6835 167.265 58.3271 173.625 58.3271 180.015C58.3271 186.405 59.6835 192.766 62.3662 198.704L62.4567 198.945L68.7566 212.931L76.2321 229.51L63.8131 223.934L51.9668 218.598L51.2735 218.267C47.0836 216.368 43.3158 213.836 40.0904 210.731C32.9164 204.009 28.2743 194.815 27.0987 184.898C26.8576 183.21 26.7671 181.492 26.7671 179.774C26.7671 177.935 26.8877 176.157 27.1289 174.378C28.3647 164.642 32.9164 155.72 39.9397 148.998C43.376 145.712 47.4454 142.969 51.9668 140.919L57.6338 138.357L74.3029 101.251L52.5094 111.017L40.9043 116.232L40 116.624C35.9005 118.583 32.0422 120.874 28.4552 123.497C14.9812 133.233 5.5162 147.491 1.68802 163.557C0.994725 166.36 0.512434 169.224 0.180859 172.118V172.178C0.0602864 174.77 0 177.393 0 180.015C0 182.427 0.0602864 184.838 0.150716 187.219C0.150716 187.28 0.150716 187.34 0.150716 187.43C0.452148 190.294 0.934438 193.127 1.59759 195.901C5.42577 212.118 14.9812 226.405 28.5757 236.172C32.0723 238.734 35.8704 240.965 39.9096 242.833L40.5426 243.105L52.6601 248.561L92.9616 266.737H92.9917L93.0219 266.858L130.219 283.527L132.57 284.612L149.118 292.027L161.055 297.393C166.993 300.075 173.384 301.432 179.774 301.432C186.164 301.432 192.494 300.075 198.433 297.423L198.613 297.332L212.66 291.002L229.872 283.255L224.084 296.157L218.809 307.822C216.79 312.344 214.047 316.353 210.731 319.789C202.864 328.108 191.831 333.022 179.985 333.022C168.139 333.022 156.865 328.078 149.028 319.668C146.164 316.684 143.753 313.278 141.914 309.48L141.161 307.822L138.749 302.457L101.552 285.757L111.168 307.069L116.473 318.855C116.564 319.035 116.624 319.216 116.714 319.367C118.613 323.587 120.934 327.506 123.557 331.153C133.323 344.748 147.611 354.273 163.828 358.101C169.043 359.367 174.469 360 179.985 360C180.678 360 181.372 360 182.035 359.97C186.858 359.819 191.59 359.186 196.172 358.071C212.238 354.243 226.496 344.778 236.262 331.304C238.975 327.626 241.326 323.617 243.255 319.367C243.346 319.216 243.406 319.035 243.497 318.855L248.711 307.249L258.146 286.179L266.948 266.556L283.647 229.329L291.123 212.69L297.242 199.035L297.453 198.613C302.728 186.767 302.758 173.263 297.453 161.447L297.302 161.085L291.123 147.34L283.376 130.038L296.307 135.855L307.551 140.919C312.102 142.969 316.172 145.742 319.638 149.118C327.898 156.986 332.751 167.988 332.751 179.774C332.751 191.56 327.837 202.773 319.518 210.641C316.353 213.685 312.675 216.247 308.546 218.116C308.214 218.297 307.882 218.448 307.551 218.598L302.487 220.889L285.848 258.026L307.219 248.41L318.583 243.286L319.548 242.833C323.617 240.934 327.415 238.704 330.942 236.142C344.506 226.375 354.032 212.087 357.86 195.901C359.096 190.686 359.729 185.29 359.729 179.774C359.729 174.258 359.066 168.802 357.8 163.557H357.83ZM272.856 187.973L246.692 245.998L187.732 272.585L179.774 276.172L171.786 272.585L113.459 246.3L87.1741 187.973L83.587 180.015L87.1741 172.027L113.73 113.097H113.76L172.057 86.7822L179.774 83.3158L187.43 86.7521L187.581 86.8425L244.943 112.675L246.39 113.338L272.826 172.027L276.413 180.015L272.826 187.973H272.856Z" fill="url(#paint1_linear_4519_70054)"/>
<defs>
<linearGradient id="paint0_linear_4519_70054" x1="133.863" y1="203.033" x2="222.66" y2="151.697" gradientUnits="userSpaceOnUse">
<stop stop-color="white"/>
<stop offset="0.33" stop-color="white" stop-opacity="0.25"/>
<stop offset="0.66" stop-color="white"/>
<stop offset="1" stop-color="white" stop-opacity="0.05"/>
</linearGradient>
<linearGradient id="paint1_linear_4519_70054" x1="14.3671" y1="262.931" x2="333.869" y2="78.467" gradientUnits="userSpaceOnUse">
<stop stop-color="white"/>
<stop offset="0.33" stop-color="white" stop-opacity="0.25"/>
<stop offset="0.66" stop-color="white"/>
<stop offset="1" stop-color="white" stop-opacity="0.05"/>
</linearGradient>
</defs>
</svg>
