<svg width="48" height="48" viewBox="0 0 48 48" fill="none" xmlns="http://www.w3.org/2000/svg">
<path d="M35.3811 29.115L38.9961 33H31.4961V36H38.9961L35.3811 39.885L37.4961 42L44.9961 34.5L37.4961 27L35.3811 29.115ZM19.4961 9C17.0518 9.0009 14.6537 9.66538 12.5575 10.9225C10.4614 12.1797 8.74585 13.9824 7.59401 16.1382C6.44218 18.2941 5.89725 20.7222 6.01738 23.1635C6.13751 25.6048 6.91818 27.9677 8.27609 30L10.7661 28.335C9.46523 26.3888 8.85201 24.0638 9.02384 21.7292C9.19568 19.3947 10.1427 17.1845 11.7145 15.4497C13.2863 13.715 15.3927 12.5553 17.6991 12.1548C20.0055 11.7543 22.3795 12.136 24.4441 13.2393C26.5087 14.3425 28.1455 16.104 29.0943 18.244C30.0431 20.384 30.2497 22.7796 29.6811 25.0504C29.1125 27.3212 27.8014 29.3369 25.956 30.7772C24.1107 32.2175 21.837 32.9999 19.4961 33H2.99609V36H19.4961C23.0765 36 26.5103 34.5777 29.042 32.0459C31.5738 29.5142 32.9961 26.0804 32.9961 22.5C32.9961 18.9196 31.5738 15.4858 29.042 12.9541C26.5103 10.4223 23.0765 9 19.4961 9Z" fill="#3BF5FF"/>
</svg>
