<svg width="32" height="32" viewBox="0 0 32 32" fill="none" xmlns="http://www.w3.org/2000/svg">
<path d="M8.52734 17.6641C9.06936 17.6641 9.60542 17.7866 10.0928 18.0225L12.8154 19.3398C13.0292 19.4432 13.2674 19.4971 13.5098 19.4971H14.8994C16.765 19.4971 18.334 20.9695 18.334 22.8535C18.3339 23.3741 17.9796 23.8005 17.5117 23.9297L14.124 24.8672C13.2835 25.0995 12.3834 25.0193 11.5986 24.6396L8.6875 23.2314C8.19057 22.9908 7.98315 22.3926 8.22363 21.8955C8.46416 21.3987 9.0616 21.1905 9.55859 21.4307L12.4697 22.8389C12.8155 23.0062 13.2169 23.0431 13.5918 22.9395L16.1699 22.2266C15.9351 21.8019 15.4681 21.4971 14.8994 21.4971H13.5098C12.968 21.4971 12.4319 21.3755 11.9443 21.1396L9.22168 19.8223C9.00762 19.7187 8.76954 19.6641 8.52734 19.6641H5.33398C4.7817 19.6641 4.33398 19.2163 4.33398 18.6641C4.33398 18.1118 4.7817 17.6641 5.33398 17.6641H8.52734Z" fill="#EBBC00"/>
<path d="M23.1586 19.1642C24.6663 18.6944 26.2812 19.2577 27.2055 20.5372C28.0343 21.6848 27.7141 23.3408 26.4701 24.0587L16.4496 29.8399C15.5763 30.3438 14.5405 30.4693 13.5746 30.1827L5.04824 27.6524C4.51893 27.4954 4.21664 26.9386 4.37343 26.4093C4.53051 25.8799 5.08723 25.5776 5.6166 25.7345L14.1439 28.2647C14.5799 28.3941 15.0482 28.3391 15.4496 28.1075L25.4711 22.3263C25.6593 22.2173 25.7387 21.923 25.5844 21.7091C25.1486 21.1056 24.4166 20.8667 23.7533 21.0733L23.7494 21.0743L17.6264 22.9562C17.0985 23.1183 16.5386 22.8219 16.3764 22.294C16.2142 21.7662 16.5107 21.2063 17.0385 21.044L23.1586 19.1651V19.1642Z" fill="#EBBC00"/>
<path d="M13.4999 2.69237C17.1663 0.575574 21.8548 1.83165 23.9716 5.49803C26.0882 9.16438 24.8311 13.853 21.1649 15.9697C17.4986 18.0861 12.8109 16.8292 10.6942 13.1631C8.5776 9.49673 9.8336 4.80911 13.4999 2.69237ZM13.0038 12.9844C14.7388 15.0448 17.7507 15.6309 20.1649 14.2373C22.5793 12.8433 23.5783 9.94117 22.661 7.40819L13.0038 12.9844ZM21.661 5.67674C19.926 3.61655 16.914 3.0302 14.4999 4.42381C12.0859 5.81754 11.0873 8.71925 12.0038 11.2519L21.661 5.67674Z" fill="#EBBC00"/>
</svg>
