<svg width="25" height="24" viewBox="0 0 25 24" fill="none" xmlns="http://www.w3.org/2000/svg">
<path d="M11.9552 10.1554C15.1838 8.29148 19.312 9.39771 21.176 12.6261C23.0399 15.8546 21.9338 19.9828 18.7052 21.8468C15.4767 23.7108 11.3485 22.6046 9.48454 19.3761C7.62059 16.1477 8.72679 12.0194 11.9552 10.1554ZM11.2052 19.2482C12.7925 21.2698 15.6646 21.8704 17.9552 20.548C20.2461 19.2254 21.1618 16.4375 20.2043 14.0519L11.2052 19.2482ZM19.4543 12.7531C17.8669 10.7324 14.9955 10.1321 12.7052 11.4543C10.4148 12.7767 9.49855 15.5642 10.4552 17.9494L19.4543 12.7531Z" fill="#BE93E4"/>
<path d="M15.0788 1.89198C17.3199 0.567697 20.1775 1.36146 21.4606 3.63612C22.4889 5.45916 22.2021 7.68824 20.8971 9.17713C20.6241 9.48861 20.15 9.51944 19.8385 9.24647C19.527 8.97345 19.4952 8.49937 19.7682 8.18788C20.6631 7.16685 20.8623 5.6281 20.154 4.37245C19.2753 2.81526 17.3455 2.2952 15.8424 3.18299L11.403 5.80506L12.4782 7.61756C12.6894 7.97384 12.5717 8.43463 12.2155 8.64588C11.8592 8.8571 11.3984 8.73942 11.1872 8.38319L10.111 6.56874L5.67252 9.19276C4.1587 10.0873 3.62722 12.0834 4.51139 13.6508C5.04004 14.5879 5.94891 15.1491 6.91471 15.2553C7.32639 15.3006 7.62306 15.6707 7.57779 16.0824C7.53247 16.4941 7.16234 16.7908 6.75064 16.7455C5.40536 16.5975 4.14399 15.8564 3.35611 14.6381L3.20475 14.3881C1.92715 12.1234 2.67846 9.21986 4.90885 7.90174L15.0788 1.89198Z" fill="#BE93E4"/>
</svg>
