<svg width="25" height="24" viewBox="0 0 25 24" fill="none" xmlns="http://www.w3.org/2000/svg">
<path d="M18.583 9V7.81836C18.583 6.96243 18.5825 6.35421 18.5527 5.875C18.5234 5.40186 18.4673 5.104 18.3779 4.86426C18.0486 3.98109 17.3519 3.28451 16.4688 2.95508C16.229 2.86566 15.9312 2.80966 15.458 2.78027C14.9788 2.75053 14.3706 2.75 13.5146 2.75C12.024 2.75 10.9401 2.75034 10.0801 2.80371C9.22593 2.85673 8.64179 2.96052 8.14844 3.14453C6.45035 3.77805 5.11106 5.11734 4.47754 6.81543C4.29353 7.30878 4.18974 7.89292 4.13672 8.74707C4.08335 9.60708 4.08301 10.691 4.08301 12.1816V14.7275C4.08301 16.2792 4.08364 17.3818 4.17773 18.2314C4.27021 19.0662 4.44563 19.5654 4.73145 19.9473C4.91718 20.1954 5.13763 20.4158 5.38574 20.6016C5.76763 20.8874 6.26683 21.0628 7.10156 21.1553C7.95122 21.2494 9.05382 21.25 10.6055 21.25H14.833C15.2472 21.25 15.583 21.5858 15.583 22C15.583 22.4142 15.2472 22.75 14.833 22.75H10.6055C9.08802 22.75 7.8879 22.7509 6.93652 22.6455C5.97067 22.5385 5.17005 22.3145 4.48633 21.8027C4.12371 21.5313 3.80173 21.2093 3.53027 20.8467C3.01846 20.163 2.7945 19.3623 2.6875 18.3965C2.58214 17.4451 2.58301 16.245 2.58301 14.7275V12.1816C2.58301 10.7097 2.58273 9.57152 2.63965 8.6543C2.69695 7.73123 2.81406 6.98184 3.07129 6.29199C3.85684 4.18584 5.51885 2.52383 7.625 1.73828C8.31485 1.48105 9.06424 1.36394 9.9873 1.30664C10.9045 1.24972 12.0427 1.25 13.5146 1.25C14.352 1.25 15.0143 1.2499 15.5508 1.2832C16.0931 1.31687 16.5568 1.38705 16.9932 1.5498C18.2837 2.03127 19.3018 3.04917 19.7832 4.33984C19.946 4.77622 20.0161 5.23988 20.0498 5.78223C20.0831 6.31868 20.083 6.98105 20.083 7.81836V9C20.083 9.41421 19.7472 9.75 19.333 9.75C18.9188 9.75 18.583 9.41421 18.583 9Z" fill="#D09E72"/>
<path d="M17.8818 11.2517C18.19 11.2308 18.4796 11.4011 18.6113 11.6805L20.2031 15.0564C20.3575 15.3838 20.4508 15.5795 20.5342 15.7185C20.6095 15.8441 20.6423 15.8629 20.6455 15.865C20.6459 15.8653 20.6681 15.8851 20.7969 15.8992C20.9452 15.9155 21.146 15.9168 21.4932 15.9168H22.333C22.7472 15.9168 23.083 16.2526 23.083 16.6668C23.0829 17.0809 22.7471 17.4168 22.333 17.4168H21.4932C21.1788 17.4168 20.8826 17.4177 20.6338 17.3904C20.3655 17.361 20.0887 17.2939 19.8232 17.1199C19.5605 16.9477 19.3869 16.7215 19.248 16.49C19.1171 16.2717 18.9882 15.9962 18.8467 15.6961L18.0723 14.0545L16.4482 19.2244C16.3557 19.519 16.0922 19.7268 15.7842 19.7478C15.476 19.7688 15.1864 19.5985 15.0547 19.3191L13.4629 15.9431C13.3085 15.6157 13.2153 15.4201 13.1318 15.281C13.0565 15.1554 13.0237 15.1366 13.0205 15.1346C13.0201 15.1343 12.9979 15.1145 12.8691 15.1004C12.7208 15.0841 12.52 15.0828 12.1729 15.0828H11.333C10.9188 15.0828 10.583 14.747 10.583 14.3328C10.5832 13.9187 10.9189 13.5828 11.333 13.5828H12.1729C12.4872 13.5828 12.7834 13.5819 13.0322 13.6092C13.3006 13.6386 13.5773 13.7057 13.8428 13.8797C14.1055 14.0519 14.2791 14.2781 14.418 14.5096C14.5489 14.7278 14.6778 15.0034 14.8193 15.3035L15.5928 16.9441L17.2178 11.7752L17.2598 11.6687C17.3765 11.4313 17.6122 11.2702 17.8818 11.2517Z" fill="#D09E72"/>
<path d="M2.58301 12C2.58301 9.745 4.41099 7.91717 6.66602 7.91699H7.77734C8.34221 7.91699 8.47778 7.91053 8.57031 7.88574C8.88663 7.80098 9.13398 7.55365 9.21875 7.2373C9.24354 7.14477 9.25 7.00921 9.25 6.44434V5.33301C9.25017 3.07799 11.078 1.25 13.333 1.25C13.7472 1.25 14.083 1.58579 14.083 2C14.083 2.41421 13.7472 2.75 13.333 2.75C11.9064 2.75 10.7502 3.90643 10.75 5.33301V6.44434C10.75 6.91254 10.7557 7.29372 10.667 7.625V7.62598C10.4434 8.45967 9.79181 9.11057 8.95801 9.33398C8.62673 9.42267 8.24555 9.41699 7.77734 9.41699H6.66602C5.23943 9.41717 4.08301 10.5734 4.08301 12C4.08301 12.4142 3.74722 12.75 3.33301 12.75C2.91879 12.75 2.58301 12.4142 2.58301 12Z" fill="#D09E72"/>
</svg>
