<svg width="16" height="16" viewBox="0 0 16 16" fill="none" xmlns="http://www.w3.org/2000/svg">
<path d="M5.11265 3.32812V4.58812M7.01265 3.32812V4.58812M8.91265 3.32812V4.58812M9.90065 7.99546H6.10065C5.76471 7.99546 5.44253 8.12891 5.20498 8.36646C4.96744 8.604 4.83398 8.92618 4.83398 9.26212V11.1621C4.83398 11.8621 5.40065 12.4288 6.10065 12.4288H9.90065C10.2366 12.4288 10.5588 12.2953 10.7963 12.0578C11.0339 11.8202 11.1673 11.4981 11.1673 11.1621V9.26212C11.1673 9.09578 11.1346 8.93107 11.0709 8.77739C11.0072 8.62371 10.9139 8.48408 10.7963 8.36646C10.6787 8.24884 10.5391 8.15553 10.3854 8.09188C10.2317 8.02822 10.067 7.99546 9.90065 7.99546Z" stroke="white" stroke-linecap="round" stroke-linejoin="round"/>
<path d="M12.1481 4.41968V6.50968H13.2247V11.7977C13.2131 12.4802 12.9313 13.1303 12.441 13.6052C11.9506 14.0801 11.2919 14.3412 10.6094 14.331H5.39072C4.70817 14.3412 4.04947 14.0801 3.55916 13.6052C3.06884 13.1303 2.78697 12.4802 2.77539 11.7977V4.19768C2.78697 3.51515 3.06884 2.8651 3.55916 2.39016C4.04947 1.91521 4.70817 1.65419 5.39072 1.66435H10.6094C11.2919 1.65419 11.9506 1.91521 12.441 2.39016C12.9313 2.8651 13.2131 3.51515 13.2247 4.19768V4.41968H12.1481Z" stroke="white" stroke-linecap="round" stroke-linejoin="round"/>
</svg>
