<svg width="16" height="16" viewBox="0 0 16 16" fill="none" xmlns="http://www.w3.org/2000/svg">
<path d="M8 14L6.8 10.4H2L3.2 14H8ZM8 14H10.4M8 8.6V8.3C8 7.1684 8 6.6032 7.6484 6.2516C7.2968 5.9 6.7316 5.9 5.6 5.9C4.4684 5.9 3.9032 5.9 3.5516 6.2516C3.2 6.6032 3.2 7.1684 3.2 8.3V8.6M9.2 11.3H12.8C13.1183 11.3 13.4235 11.4264 13.6485 11.6515C13.8736 11.8765 14 12.1817 14 12.5V12.8C14 13.1183 13.8736 13.4235 13.6485 13.6485C13.4235 13.8736 13.1183 14 12.8 14H12.2M12.2 8.6C12.2 8.91826 12.0736 9.22348 11.8485 9.44853C11.6235 9.67357 11.3183 9.8 11 9.8C10.6817 9.8 10.3765 9.67357 10.1515 9.44853C9.92643 9.22348 9.8 8.91826 9.8 8.6C9.8 8.28174 9.92643 7.97652 10.1515 7.75147C10.3765 7.52643 10.6817 7.4 11 7.4C11.3183 7.4 11.6235 7.52643 11.8485 7.75147C12.0736 7.97652 12.2 8.28174 12.2 8.6ZM6.8 3.2C6.8 3.51826 6.67357 3.82348 6.44853 4.04853C6.22348 4.27357 5.91826 4.4 5.6 4.4C5.28174 4.4 4.97652 4.27357 4.75147 4.04853C4.52643 3.82348 4.4 3.51826 4.4 3.2C4.4 2.88174 4.52643 2.57652 4.75147 2.35147C4.97652 2.12643 5.28174 2 5.6 2C5.91826 2 6.22348 2.12643 6.44853 2.35147C6.67357 2.57652 6.8 2.88174 6.8 3.2Z" stroke="white" stroke-linecap="round" stroke-linejoin="round"/>
</svg>
