<svg width="161" height="30" viewBox="0 0 161 30" fill="none" xmlns="http://www.w3.org/2000/svg">
<g style="mix-blend-mode:luminosity" clip-path="url(#clip0_3917_48612)">
<path d="M47.8211 17.2001L47.0264 19.4931H46.9602C46.8277 18.9761 46.5849 18.1893 46.1876 17.2451L41.9271 6.34198H37.7549V23.7195H40.5143V12.9962C40.5143 12.3218 40.5143 11.5575 40.4922 10.6133C40.4701 10.1412 40.426 9.78152 40.4039 9.51175H40.4701C40.6026 10.1862 40.7571 10.6807 40.8675 10.9955L45.9889 23.6745H47.9315L53.0087 10.8831C53.1191 10.5908 53.2295 10.0063 53.3399 9.51175H53.4061C53.3399 10.7931 53.2957 11.9397 53.2736 12.6366V23.6521H56.2096V6.29702H52.192L47.8211 17.2001ZM58.9911 11.1978H61.8608V23.6521H58.9911V11.1978ZM60.448 5.93733C59.9624 5.93733 59.565 6.11718 59.2339 6.4319C58.9028 6.74663 58.7262 7.15128 58.7262 7.64586C58.7262 8.11795 58.9028 8.5226 59.2339 8.83733C59.565 9.15206 59.9624 9.30942 60.448 9.30942C60.9337 9.30942 61.3531 9.12958 61.6622 8.83733C61.9933 8.5226 62.1699 8.11795 62.1699 7.64586C62.1699 7.17376 61.9933 6.76911 61.6622 6.4319C61.3752 6.11718 60.9558 5.93733 60.448 5.93733ZM72.0374 11.0854C71.5076 10.973 70.9558 10.9055 70.426 10.9055C69.1235 10.9055 67.9315 11.1978 66.9381 11.7823C65.9447 12.3668 65.15 13.1761 64.6423 14.1877C64.1125 15.2218 63.8476 16.4133 63.8476 17.7846C63.8476 18.9761 64.1125 20.0327 64.6202 20.9993C65.1279 21.9435 65.8344 22.7079 66.7836 23.2249C67.6887 23.742 68.7483 24.0117 69.9403 24.0117C71.309 24.0117 72.4789 23.7195 73.4061 23.18L73.4282 23.1575V20.4598L73.3178 20.5497C72.8984 20.8645 72.4127 21.1342 71.9271 21.2916C71.4193 21.4714 70.9558 21.5614 70.5584 21.5614C69.4105 21.5614 68.5054 21.2242 67.8653 20.4823C67.203 19.7629 66.8719 18.7738 66.8719 17.5373C66.8719 16.2559 67.203 15.2443 67.8873 14.5024C68.5717 13.7606 69.4767 13.3784 70.5805 13.3784C71.5076 13.3784 72.4569 13.6931 73.3178 14.3226L73.4282 14.4125V11.5575L73.4061 11.535C73.0308 11.3776 72.6114 11.1978 72.0374 11.0854ZM81.5076 10.9955C80.8012 10.9955 80.139 11.2203 79.565 11.6924C79.0794 12.097 78.7483 12.6815 78.4613 13.3784H78.4392V11.1978H75.5695V23.6521H78.4392V17.29C78.4392 16.211 78.66 15.3117 79.1456 14.6598C79.6313 13.9854 80.2494 13.6482 80.9999 13.6482C81.2648 13.6482 81.5297 13.7156 81.8608 13.7606C82.1699 13.8505 82.3906 13.9404 82.5452 14.0528L82.6555 14.1428V11.2203L82.5893 11.1978C82.3906 11.0629 81.9933 10.9955 81.5076 10.9955ZM89.3222 10.928C87.3134 10.928 85.7019 11.535 84.5761 12.7265C83.4282 13.918 82.8763 15.559 82.8763 17.6273C82.8763 19.5606 83.4502 21.1342 84.554 22.2807C85.6578 23.4048 87.1589 23.9893 89.0352 23.9893C90.9999 23.9893 92.5672 23.3823 93.6931 22.1683C94.841 20.9544 95.3929 19.3358 95.3929 17.335C95.3929 15.3567 94.863 13.7831 93.7814 12.6366C92.7438 11.49 91.2207 10.928 89.3222 10.928ZM91.618 20.5048C91.0882 21.2017 90.2494 21.5389 89.2118 21.5389C88.1743 21.5389 87.3355 21.2017 86.7394 20.4598C86.1434 19.7629 85.8564 18.7513 85.8564 17.4699C85.8564 16.1435 86.1655 15.1319 86.7394 14.4125C87.3355 13.6931 88.1522 13.3335 89.1898 13.3335C90.2052 13.3335 90.9999 13.6707 91.5739 14.3676C92.1478 15.0645 92.4569 16.0761 92.4569 17.4024C92.4127 18.7513 92.1699 19.8079 91.618 20.5048ZM101.795 16.3683C100.89 15.9862 100.316 15.6939 100.051 15.4466C99.8299 15.2218 99.7196 14.9071 99.7196 14.5024C99.7196 14.1652 99.852 13.828 100.183 13.6032C100.514 13.3784 100.89 13.266 101.441 13.266C101.927 13.266 102.435 13.3559 102.92 13.4908C103.406 13.6257 103.848 13.828 104.201 14.0978L104.311 14.1877V11.4451L104.245 11.4226C103.914 11.2877 103.472 11.1528 102.943 11.0404C102.413 10.9505 101.927 10.9055 101.53 10.9055C100.161 10.9055 99.0352 11.2428 98.1522 11.9846C97.2692 12.6815 96.8498 13.6257 96.8498 14.7273C96.8498 15.3117 96.9381 15.8288 97.1368 16.2559C97.3355 16.6831 97.6224 17.0877 98.0198 17.4249C98.4171 17.7397 98.9911 18.0993 99.7858 18.4366C100.448 18.7288 100.956 18.9536 101.265 19.1335C101.574 19.3133 101.773 19.5156 101.927 19.673C102.037 19.8528 102.104 20.0776 102.104 20.3699C102.104 21.2017 101.486 21.6063 100.227 21.6063C99.7416 21.6063 99.2339 21.5164 98.6379 21.3141C98.0419 21.1117 97.49 20.8195 97.0264 20.4823L96.916 20.3924V23.2474L96.9823 23.2699C97.4017 23.4722 97.9094 23.6071 98.5275 23.7645C99.1456 23.8769 99.6975 23.9668 100.183 23.9668C101.662 23.9668 102.876 23.6296 103.737 22.8877C104.62 22.1683 105.084 21.2466 105.084 20.0552C105.084 19.2234 104.863 18.4815 104.377 17.9195C103.737 17.38 102.943 16.818 101.795 16.3683ZM112.656 10.928C110.647 10.928 109.035 11.535 107.909 12.7265C106.784 13.918 106.21 15.559 106.21 17.6273C106.21 19.5606 106.784 21.1342 107.887 22.2807C108.991 23.4048 110.492 23.9893 112.369 23.9893C114.333 23.9893 115.901 23.3823 117.026 22.1683C118.174 20.9544 118.726 19.3358 118.726 17.335C118.726 15.3567 118.196 13.7831 117.115 12.6366C116.077 11.49 114.554 10.928 112.656 10.928ZM114.929 20.5048C114.399 21.2017 113.561 21.5389 112.523 21.5389C111.463 21.5389 110.647 21.2017 110.051 20.4598C109.455 19.7629 109.168 18.7513 109.168 17.4699C109.168 16.1435 109.477 15.1319 110.051 14.4125C110.647 13.6931 111.463 13.3335 112.501 13.3335C113.494 13.3335 114.311 13.6707 114.885 14.3676C115.459 15.0645 115.768 16.0761 115.768 17.4024C115.768 18.7513 115.481 19.8079 114.929 20.5048ZM134.068 13.6032V11.1978H131.177V7.51097L131.088 7.53345L128.351 8.36524L128.285 8.38772V11.1978H123.958V9.62415C123.958 8.90477 124.135 8.34276 124.444 7.98307C124.753 7.62338 125.216 7.44353 125.79 7.44353C126.188 7.44353 126.607 7.53345 127.071 7.73578L127.181 7.80322V5.26291L127.115 5.24043C126.717 5.10555 126.188 5.01562 125.503 5.01562C124.642 5.01562 123.892 5.21795 123.207 5.55516C122.523 5.93733 122.015 6.45438 121.64 7.15128C121.265 7.8257 121.066 8.59004 121.066 9.46679V11.1978H119.057V13.5807H121.066V23.6521H123.958V13.6032H128.285V20.0102C128.285 22.6404 129.499 23.9668 131.927 23.9668C132.324 23.9668 132.744 23.8993 133.141 23.8319C133.561 23.742 133.87 23.6296 134.046 23.5397L134.068 23.5172V21.1117L133.958 21.2017C133.781 21.3141 133.627 21.404 133.362 21.4714C133.141 21.5389 132.943 21.5614 132.788 21.5614C132.214 21.5614 131.817 21.4265 131.53 21.0893C131.265 20.7745 131.132 20.2575 131.132 19.4931V13.6032H134.068Z" fill="#737373"/>
<path d="M0.757324 0.5H14.2893V14.2806H0.757324V0.5Z" fill="#F25022"/>
<path d="M15.7017 0.5H29.2337V14.2806H15.7017V0.5Z" fill="#7FBA00"/>
<path d="M0.757324 15.7188H14.2893V29.4994H0.757324V15.7188Z" fill="#00A4EF"/>
<path d="M15.7017 15.7188H29.2337V29.4994H15.7017V15.7188Z" fill="#FFB900"/>
</g>
<defs>
<clipPath id="clip0_3917_48612">
<rect width="160" height="29" fill="white" transform="translate(0.757324 0.5)"/>
</clipPath>
</defs>
</svg>
