<svg width="16" height="16" viewBox="0 0 16 16" fill="none" xmlns="http://www.w3.org/2000/svg">
<path d="M8 14C11.3137 14 14 11.3137 14 8C14 4.68629 11.3137 2 8 2C4.68629 2 2 4.68629 2 8C2 11.3137 4.68629 14 8 14Z" stroke="white" stroke-linecap="round" stroke-linejoin="round"/>
<path d="M7.99923 13.8616C9.84874 13.8616 11.3481 11.2377 11.3481 8.00109C11.3481 4.76444 9.84874 2.14062 7.99923 2.14062C6.14972 2.14062 4.65039 4.76444 4.65039 8.00109C4.65039 11.2377 6.14972 13.8616 7.99923 13.8616Z" stroke="white" stroke-linecap="round" stroke-linejoin="round"/>
<path d="M8 2V14M14 8H2M13.3124 5.2093H2.71693M13.3124 10.7907H2.71693M11.2819 13.0233H4.71786M11.2819 2.97674H4.71786" stroke="white" stroke-linecap="round" stroke-linejoin="round"/>
</svg>
