<svg width="86" height="56" viewBox="0 0 86 56" fill="none" xmlns="http://www.w3.org/2000/svg">
<path d="M31.7079 16.6963V11.6667C32.2286 11.6148 32.6972 11.6148 33.2178 11.6148C47.1193 11.2 56.2308 23.5407 56.2308 23.5407C56.2308 23.5407 46.3904 37.0741 35.8211 37.0741C34.4153 37.0741 33.0616 36.8667 31.7079 36.4V21.1037C37.1227 21.7778 38.2161 24.1111 41.4442 29.5037L48.6813 23.437C48.6813 23.437 43.3706 16.5407 34.5195 16.5407C33.5823 16.5407 32.6451 16.5926 31.7079 16.6963ZM31.7079 0V7.51852L33.2178 7.41481C52.5341 6.74074 65.134 23.1778 65.134 23.1778C65.134 23.1778 50.6598 40.7556 35.6128 40.7556C34.3112 40.7556 33.0096 40.6519 31.7079 40.3926V45.0593C32.7492 45.163 33.8426 45.2667 34.936 45.2667C48.9416 45.2667 59.0944 38.1111 68.9348 29.7111C70.5488 31.0074 77.2132 34.1704 78.619 35.5185C69.2992 43.2963 47.5358 49.5704 35.1963 49.5704C33.9988 49.5704 32.9054 49.5185 31.76 49.363V56H85.023V0H31.7079ZM31.7079 36.4519V40.4444C18.7436 38.1111 15.1511 24.6815 15.1511 24.6815C15.1511 24.6815 21.3989 17.837 31.7079 16.6963V21.0519H31.6559C26.241 20.3778 21.9717 25.4593 21.9717 25.4593C21.9717 25.4593 24.4187 33.963 31.7079 36.4519ZM8.69495 24.1111C8.69495 24.1111 16.3486 12.8074 31.7079 11.6667V7.57037C14.6825 8.91852 0 23.2296 0 23.2296C0 23.2296 8.33049 47.237 31.7079 49.4148V45.0593C14.5263 42.9333 8.69495 24.1111 8.69495 24.1111Z" fill="#76B900"/>
</svg>
