<svg width="305" height="56" viewBox="0 0 305 56" fill="none" xmlns="http://www.w3.org/2000/svg">
<g clip-path="url(#clip0_3952_77908)">
<path d="M301.042 44.9009V44.0712H301.563C301.823 44.0712 302.24 44.1231 302.24 44.4342C302.24 44.7453 302.031 44.9009 301.667 44.9009H301.042ZM301.042 45.4712H301.406L302.24 46.9231H303.125L302.187 45.4194C302.656 45.4712 303.02 45.1083 303.073 44.6416V44.5379C303.073 43.7083 302.5 43.5009 301.563 43.5009H300.209V46.9749H300.99V45.4712M304.999 45.212C304.999 43.1379 303.385 41.9453 301.615 41.9453C299.845 41.9453 298.23 43.1379 298.23 45.212C298.23 47.2861 299.845 48.4786 301.615 48.4786C303.385 48.4786 304.999 47.2861 304.999 45.212ZM304.01 45.212C304.062 46.5083 303.021 47.649 301.719 47.7009H301.615C300.261 47.7527 299.064 46.6638 299.011 45.3157C298.959 43.9675 300.053 42.7749 301.406 42.7231C302.76 42.6712 303.958 43.7601 304.01 45.1083C304.01 45.1601 304.01 45.1601 304.01 45.212Z" fill="#C6BBBB"/>
<path d="M180.933 10.5753V47.3383H191.346V10.5753H180.933ZM98.9297 10.5234V47.3383H109.447V18.7679L117.621 18.8197C120.329 18.8197 122.203 19.4938 123.453 20.842C125.119 22.6049 125.743 25.4049 125.743 30.5901V47.3901H135.948V27.0123C135.948 12.4938 126.681 10.5234 117.569 10.5234C117.673 10.5234 98.9297 10.5234 98.9297 10.5234ZM197.75 10.5753V47.3383H214.671C223.679 47.3383 226.646 45.8345 229.77 42.516C232.009 40.1827 233.467 34.9975 233.467 29.3457C233.467 24.1605 232.27 19.5457 230.083 16.6938C226.282 11.5605 220.711 10.5753 212.381 10.5753C212.328 10.5753 197.75 10.5753 197.75 10.5753ZM208.059 18.5605H212.537C219.045 18.5605 223.262 21.4642 223.262 28.9827C223.262 36.5012 219.045 39.4568 212.537 39.4568H208.059V18.5605ZM165.938 10.5753L157.243 39.716L148.913 10.5753H137.666L149.537 47.3383H164.532L176.559 10.5753H165.938ZM238.309 47.3901H248.722V10.5753H238.309V47.3901ZM267.57 10.5753L253.044 47.3383H263.301L265.592 40.8049H282.825L285.012 47.2864H296.206L281.524 10.5753H267.57ZM274.286 17.316L280.638 34.479H267.83C267.778 34.479 274.286 17.316 274.286 17.316Z" fill="#C6BBBB"/>
<path d="M31.7079 16.6963V11.6667C32.2286 11.6148 32.6972 11.6148 33.2178 11.6148C47.1193 11.2 56.2308 23.5407 56.2308 23.5407C56.2308 23.5407 46.3904 37.0741 35.8211 37.0741C34.4153 37.0741 33.0616 36.8667 31.7079 36.4V21.1037C37.1227 21.7778 38.2161 24.1111 41.4442 29.5037L48.6813 23.437C48.6813 23.437 43.3706 16.5407 34.5195 16.5407C33.5823 16.5407 32.6451 16.5926 31.7079 16.6963ZM31.7079 0V7.51852L33.2178 7.41481C52.5341 6.74074 65.134 23.1778 65.134 23.1778C65.134 23.1778 50.6598 40.7556 35.6128 40.7556C34.3112 40.7556 33.0096 40.6519 31.7079 40.3926V45.0593C32.7492 45.163 33.8426 45.2667 34.936 45.2667C48.9416 45.2667 59.0944 38.1111 68.9348 29.7111C70.5488 31.0074 77.2132 34.1704 78.619 35.5185C69.2992 43.2963 47.5358 49.5704 35.1963 49.5704C33.9988 49.5704 32.9054 49.5185 31.76 49.363V56H85.023V0H31.7079ZM31.7079 36.4519V40.4444C18.7436 38.1111 15.1511 24.6815 15.1511 24.6815C15.1511 24.6815 21.3989 17.837 31.7079 16.6963V21.0519H31.6559C26.241 20.3778 21.9717 25.4593 21.9717 25.4593C21.9717 25.4593 24.4187 33.963 31.7079 36.4519ZM8.69495 24.1111C8.69495 24.1111 16.3486 12.8074 31.7079 11.6667V7.57037C14.6825 8.91852 0 23.2296 0 23.2296C0 23.2296 8.33049 47.237 31.7079 49.4148V45.0593C14.5263 42.9333 8.69495 24.1111 8.69495 24.1111Z" fill="#76B900"/>
</g>
<defs>
<clipPath id="clip0_3952_77908">
<rect width="305" height="56" fill="white"/>
</clipPath>
</defs>
</svg>
