<svg width="48" height="48" viewBox="0 0 48 48" fill="none" xmlns="http://www.w3.org/2000/svg">
<path d="M40.6826 12.9692C42.8403 16.2305 43.9945 20.0528 44.0026 23.9632C44.0107 27.8737 42.8722 31.7007 40.7281 34.9709C38.5839 38.2411 35.5281 40.8109 31.9387 42.3626C28.3493 43.9143 24.3837 44.3797 20.5326 43.7012M7.31862 35.0332C5.161 31.771 4.00721 27.9478 4.00003 24.0367C3.99286 20.1256 5.1326 16.2982 7.27823 13.0281C9.42386 9.75806 12.4812 7.18887 16.0719 5.63848C19.6627 4.08809 23.6292 3.62455 27.4806 4.30521" stroke="#3BF5FF" stroke-width="3.5" stroke-linecap="round" stroke-linejoin="round"/>
<path d="M24 30C27.3137 30 30 27.3137 30 24C30 20.6863 27.3137 18 24 18C20.6863 18 18 20.6863 18 24C18 27.3137 20.6863 30 24 30Z" stroke="#3BF5FF" stroke-width="3.5" stroke-linecap="round" stroke-linejoin="round"/>
<path d="M38 14C40.2091 14 42 12.2091 42 10C42 7.79086 40.2091 6 38 6C35.7909 6 34 7.79086 34 10C34 12.2091 35.7909 14 38 14Z" stroke="#3BF5FF" stroke-width="3.5" stroke-linecap="round" stroke-linejoin="round"/>
<path d="M10 42C12.2091 42 14 40.2091 14 38C14 35.7909 12.2091 34 10 34C7.79086 34 6 35.7909 6 38C6 40.2091 7.79086 42 10 42Z" stroke="#3BF5FF" stroke-width="3.5" stroke-linecap="round" stroke-linejoin="round"/>
</svg>
