<svg width="48" height="48" viewBox="0 0 48 48" fill="none" xmlns="http://www.w3.org/2000/svg">
<path d="M24.0254 1.9375C20.9523 1.9375 18.0226 2.57406 15.3594 3.71875C14.5923 2.72331 13.3912 2.08112 12.0372 2.08112C9.72003 2.08112 7.83903 3.95922 7.83903 6.27644C7.83903 7.05981 8.05691 7.79331 8.43059 8.42087C4.43328 12.4198 1.95312 17.9356 1.95312 24.0098C1.95312 36.1614 11.874 46.0148 24.0254 46.0148C36.1768 46.0146 46.0304 36.1614 46.0304 24.0098C46.0304 11.8582 36.1768 1.9375 24.0254 1.9375ZM24.0254 3.74809C35.23 3.74809 44.2842 12.805 44.2842 24.0097C44.2842 35.2144 35.2299 44.2685 24.0254 44.2685C12.8209 44.2685 3.69922 35.2144 3.69922 24.0097C3.69922 18.4252 5.96572 13.3749 9.62609 9.71284C10.3079 10.1922 11.1402 10.4717 12.0372 10.4717C14.3543 10.4717 16.2325 8.59347 16.2325 6.27634C16.2325 5.95262 16.1964 5.63847 16.127 5.33584C18.5561 4.3135 21.2266 3.74809 24.0254 3.74809ZM24.0137 8.60528C15.4543 8.60528 8.46294 15.5967 8.46294 24.1562C8.46294 32.7155 15.4544 39.663 24.0137 39.663C27.3062 39.663 30.3613 38.635 32.8731 36.8827C33.5415 37.2793 34.3215 37.5067 35.1553 37.5067C37.63 37.5067 39.6375 35.502 39.6375 33.0273C39.6375 31.8308 39.1683 30.743 38.4042 29.9394C39.124 28.1519 39.5204 26.2003 39.5204 24.1562C39.5204 15.5968 32.573 8.60528 24.0137 8.60528ZM24.0137 10.3983C31.6262 10.3983 37.7743 16.5437 37.7743 24.1562C37.7743 25.828 37.477 27.4303 36.9337 28.9112C36.3722 28.6687 35.7669 28.5441 35.1552 28.5449C32.6806 28.5449 30.6759 30.5524 30.6759 33.0271C30.6747 33.9812 30.9796 34.9106 31.5459 35.6786C29.3835 37.0927 26.7965 37.9139 24.0137 37.9139C16.4012 37.9139 10.2118 31.7686 10.2118 24.1561C10.2118 16.5436 16.4012 10.3983 24.0137 10.3983ZM23.9141 12.2382C23.2145 15.2373 21.8734 18.0612 19.8916 20.0429C17.9098 22.0247 15.3232 23.1285 12.3241 23.8281C15.3232 24.5277 18.1471 25.8659 20.1288 27.8477C22.1107 29.8295 23.2145 32.4193 23.9141 35.418C24.6137 32.4193 25.7144 29.8295 27.6963 27.8477C29.6782 25.866 32.5021 24.5278 35.501 23.8282C32.4789 23.1318 29.9271 22.0367 27.9335 20.0431C25.9402 18.0497 24.6104 15.2606 23.9142 12.2384L23.9141 12.2382ZM23.9229 20.3536C25.8446 20.3536 27.4033 21.9123 27.4033 23.834C27.4033 25.7555 25.8447 27.3144 23.923 27.3144C22.0014 27.3144 20.4425 25.7555 20.4425 23.8339C20.4425 21.9121 22.0016 20.3534 23.9231 20.3534L23.9229 20.3536Z" fill="#3BF5FF"/>
</svg>
