<svg width="48" height="48" viewBox="0 0 48 48" fill="none" xmlns="http://www.w3.org/2000/svg">
<path d="M24.2852 3.02344C22.4252 3.02157 20.631 3.71086 19.2507 4.9575C17.8704 6.20414 17.0025 7.91919 16.8156 9.7697C16.6287 11.6202 17.136 13.4742 18.2391 14.9717C19.3423 16.4691 20.9624 17.5033 22.7852 17.8734V21.0234H16.3862C14.1212 21.0234 12.2852 22.8594 12.2852 25.1244V30.1734C10.4641 30.5452 8.84594 31.5798 7.74438 33.0768C6.64282 34.5738 6.13634 36.4265 6.32315 38.2757C6.50996 40.1249 7.37674 41.8389 8.75544 43.0854C10.1341 44.3318 11.9266 45.0219 13.7852 45.0219C15.6438 45.0219 17.4362 44.3318 18.8149 43.0854C20.1936 41.8389 21.0604 40.1249 21.2472 38.2757C21.434 36.4265 20.9275 34.5738 19.826 33.0768C18.7244 31.5798 17.1062 30.5452 15.2852 30.1734V25.1244C15.2852 24.5154 15.7772 24.0234 16.3862 24.0234H32.1872C32.7932 24.0234 33.2852 24.5154 33.2852 25.1244V30.1734C31.4641 30.5452 29.8459 31.5798 28.7444 33.0768C27.6428 34.5738 27.1363 36.4265 27.3232 38.2757C27.51 40.1249 28.3767 41.8389 29.7554 43.0854C31.1341 44.3318 32.9266 45.0219 34.7852 45.0219C36.6438 45.0219 38.4362 44.3318 39.8149 43.0854C41.1936 41.8389 42.0604 40.1249 42.2472 38.2757C42.434 36.4265 41.9275 34.5738 40.826 33.0768C39.7244 31.5798 38.1062 30.5452 36.2852 30.1734V25.1244C36.2852 22.8594 34.4492 21.0234 32.1872 21.0234H25.7822V17.8734C27.6046 17.5034 29.2246 16.4694 30.3278 14.9723C31.4309 13.4751 31.9384 11.6215 31.7519 9.77119C31.5654 7.9209 30.6981 6.2059 29.3183 4.95902C27.9386 3.71214 26.1448 3.02232 24.2852 3.02344ZM19.7852 10.5234C19.7852 9.32997 20.2593 8.18538 21.1032 7.34146C21.9471 6.49755 23.0917 6.02344 24.2852 6.02344C25.4786 6.02344 26.6232 6.49755 27.4672 7.34146C28.3111 8.18538 28.7852 9.32997 28.7852 10.5234C28.7852 11.7169 28.3111 12.8615 27.4672 13.7054C26.6232 14.5493 25.4786 15.0234 24.2852 15.0234C23.0917 15.0234 21.9471 14.5493 21.1032 13.7054C20.2593 12.8615 19.7852 11.7169 19.7852 10.5234ZM9.28517 37.5234C9.28517 36.33 9.75928 35.1854 10.6032 34.3415C11.4471 33.4975 12.5917 33.0234 13.7852 33.0234C14.9786 33.0234 16.1232 33.4975 16.9672 34.3415C17.8111 35.1854 18.2852 36.33 18.2852 37.5234C18.2852 38.7169 17.8111 39.8615 16.9672 40.7054C16.1232 41.5493 14.9786 42.0234 13.7852 42.0234C12.5917 42.0234 11.4471 41.5493 10.6032 40.7054C9.75928 39.8615 9.28517 38.7169 9.28517 37.5234ZM34.7852 33.0234C35.3761 33.0234 35.9613 33.1398 36.5072 33.366C37.0532 33.5921 37.5493 33.9236 37.9672 34.3415C38.385 34.7593 38.7165 35.2554 38.9426 35.8014C39.1688 36.3473 39.2852 36.9325 39.2852 37.5234C39.2852 38.1144 39.1688 38.6996 38.9426 39.2455C38.7165 39.7915 38.385 40.2876 37.9672 40.7054C37.5493 41.1233 37.0532 41.4548 36.5072 41.6809C35.9613 41.907 35.3761 42.0234 34.7852 42.0234C33.5917 42.0234 32.4471 41.5493 31.6032 40.7054C30.7593 39.8615 30.2852 38.7169 30.2852 37.5234C30.2852 36.33 30.7593 35.1854 31.6032 34.3415C32.4471 33.4975 33.5917 33.0234 34.7852 33.0234Z" fill="#3BF5FF"/>
</svg>
