<svg width="48" height="48" viewBox="0 0 48 48" fill="none" xmlns="http://www.w3.org/2000/svg">
<path fill-rule="evenodd" clip-rule="evenodd" d="M27.3344 13.9872C26.6796 14.4411 25.941 14.7602 25.1616 14.9256C24.3822 15.091 23.5777 15.0996 22.7949 14.9508C22.0122 14.8019 21.267 14.4987 20.6027 14.0588C19.9384 13.6188 19.3684 13.051 18.926 12.3884C18.4835 11.7258 18.1774 10.9817 18.0256 10.1995C17.8738 9.41738 17.8793 8.61282 18.0418 7.83281C18.2043 7.0528 18.5205 6.31297 18.972 5.65648C19.4234 4.99999 20.0012 4.43999 20.6714 4.00917C21.9946 3.13515 23.6101 2.82054 25.1646 3.13412C26.7192 3.44769 28.0863 4.36395 28.9673 5.6826C29.8482 7.00125 30.1713 8.61504 29.8659 10.1712C29.5605 11.7274 28.6514 13.0993 27.3374 13.9872H27.3344ZM25.6694 6.50517C25.3427 6.27014 24.972 6.10324 24.5795 6.01443C24.1869 5.92562 23.7805 5.9167 23.3844 5.9882C22.9884 6.05971 22.6108 6.21017 22.274 6.43065C21.9373 6.65112 21.6484 6.93709 21.4245 7.27153C21.2006 7.60597 21.0463 7.98204 20.9708 8.37736C20.8952 8.77267 20.9 9.17914 20.9848 9.57258C21.0696 9.96601 21.2327 10.3384 21.4644 10.6675C21.6961 10.9965 21.9916 11.2757 22.3334 11.4882C22.9937 11.8893 23.7834 12.0202 24.5378 11.8536C25.2923 11.687 25.9534 11.2357 26.3834 10.5938C26.8134 9.9519 26.9791 9.16883 26.8461 8.40774C26.7131 7.64664 26.2916 6.9662 25.6694 6.50817V6.50517ZM33.4994 6.59517C34.3646 6.01317 35.4057 5.75108 36.4434 5.85403C37.4811 5.95698 38.4504 6.41851 39.1844 7.15917C39.7074 7.68642 40.0931 8.33395 40.3076 9.04497C40.5221 9.756 40.5588 10.5088 40.4146 11.2373C40.2704 11.9659 39.9496 12.6479 39.4804 13.2236C39.0112 13.7992 38.4079 14.251 37.7234 14.5392C36.9015 14.8837 35.9953 14.9747 35.1213 14.8004C34.2473 14.6261 33.4453 14.1946 32.8184 13.5612C32.3469 13.0872 31.9859 12.5149 31.7614 11.8852C31.5369 11.2554 31.4544 10.5839 31.5197 9.91851C31.5851 9.25315 31.7967 8.61047 32.1395 8.03646C32.4822 7.46245 32.9476 6.97131 33.5024 6.59817L33.4994 6.59517ZM34.9394 11.4252C35.221 11.7056 35.6026 11.8627 36.0001 11.8619C36.1969 11.8615 36.3917 11.8223 36.5734 11.7466C36.755 11.6709 36.92 11.5601 37.0589 11.4207C37.1978 11.2812 37.3078 11.1158 37.3827 10.9338C37.4577 10.7518 37.496 10.5568 37.4956 10.36C37.4952 10.1632 37.456 9.96837 37.3803 9.7867C37.3046 9.60503 37.1938 9.44004 37.0544 9.30117C36.7767 9.01782 36.3981 8.85602 36.0014 8.85117C35.8036 8.85117 35.6078 8.89026 35.4253 8.96621C35.2427 9.04215 35.0769 9.15344 34.9375 9.29369C34.7981 9.43393 34.6878 9.60035 34.613 9.78338C34.5381 9.96641 34.5002 10.1624 34.5014 10.3602C34.5002 10.5583 34.5384 10.7547 34.6135 10.938C34.6887 11.1213 34.7995 11.2849 34.9394 11.4252ZM9.57138 37.4592H15.0014V40.4742H9.57138C8.62102 40.4646 7.713 40.0796 7.04538 39.4032C6.71244 39.0675 6.44889 38.6695 6.26976 38.232C6.09063 37.7945 5.99943 37.3259 6.00138 36.8532V31.4232C5.59757 31.4091 5.20075 31.3137 4.83473 31.1425C4.46872 30.9714 4.14105 30.7281 3.87138 30.4272C3.5842 30.138 3.35894 29.7933 3.20936 29.4142C3.05978 29.0351 2.98902 28.6295 3.00138 28.2222V21.6762C3.01038 20.2602 3.57138 18.9072 4.56138 17.9022C5.54838 16.9092 6.88338 16.3422 8.28138 16.3332H13.8014C13.056 17.2193 12.4951 18.2454 12.1514 19.3512H8.28138C7.67263 19.3692 7.09351 19.618 6.66138 20.0472C6.23806 20.4838 6.00135 21.068 6.00138 21.6762V28.3722H9.00138V36.8502C8.99407 36.9319 9.00361 37.0143 9.02941 37.0922C9.05521 37.1701 9.09672 37.2419 9.15138 37.3032C9.27198 37.3964 9.41903 37.4489 9.57138 37.4532V37.4592ZM31.4714 17.9052C30.98 17.4102 30.3959 17.0168 29.7525 16.7476C29.109 16.4784 28.4189 16.3386 27.7214 16.3362H20.2814C18.8832 16.349 17.5464 16.9128 16.5614 17.9052C15.5714 18.9102 15.0104 20.2632 15.0014 21.6792V31.2132C14.9971 32.0318 15.3088 32.8205 15.8714 33.4152C16.141 33.7161 16.4687 33.9594 16.8347 34.1305C17.2008 34.3017 17.5976 34.3971 18.0014 34.4112V41.3802C17.9982 41.8559 18.0894 42.3275 18.2696 42.7678C18.4499 43.208 18.7156 43.6082 19.0514 43.9452C19.5914 44.4492 20.2724 44.7762 21.0014 44.8812H27.0014C27.8452 44.7704 28.6183 44.3516 29.1721 43.7054C29.7258 43.0591 30.0212 42.231 30.0014 41.3802V34.4082C30.4052 34.3941 30.802 34.2987 31.168 34.1275C31.534 33.9564 31.8617 33.7131 32.1314 33.4122C32.4182 33.1233 32.6432 32.7792 32.7928 32.4006C32.9424 32.0221 33.0133 31.617 33.0014 31.2102V21.6762C33.0035 20.2667 32.4544 18.9153 31.4714 17.9052ZM30.0014 31.3602H27.0014V41.3802C26.9991 41.5384 26.9344 41.6894 26.8214 41.8002C26.7702 41.8608 26.7056 41.9086 26.6327 41.9398C26.5598 41.9711 26.4806 41.9849 26.4014 41.9802H21.5714C21.4146 41.9729 21.2662 41.9073 21.1552 41.7963C21.0442 41.6854 20.9787 41.5369 20.9714 41.3802V31.3602H18.0014V21.6762C18.0014 21.0672 18.2384 20.4822 18.6614 20.0472C19.0935 19.618 19.6726 19.3692 20.2814 19.3512H27.7214C28.1757 19.3599 28.6176 19.5008 28.9931 19.7565C29.3687 20.0122 29.6617 20.3717 29.8364 20.7912C29.9467 21.0731 30.0027 21.3734 30.0014 21.6762V31.3602ZM38.4314 40.4712H33.0014V37.4562H38.4014C38.5537 37.4519 38.7008 37.3994 38.8214 37.3062C38.8818 37.2471 38.9291 37.176 38.9601 37.0974C38.9911 37.0188 39.0052 36.9346 39.0014 36.8502V28.3722H42.0014V21.6762C42.0014 21.068 41.7647 20.4838 41.3414 20.0472C40.9092 19.618 40.3301 19.3692 39.7214 19.3512H35.8514C35.5077 18.2454 34.9467 17.2193 34.2014 16.3332H39.7214C41.1196 16.346 42.4563 16.9098 43.4414 17.9022C44.4314 18.9072 44.9924 20.2602 45.0014 21.6762V28.2222C45.0014 29.0412 44.6924 29.8272 44.1344 30.4212C43.5764 31.0182 42.8144 31.3752 42.0014 31.4202V36.8502C42.0014 37.8072 41.6264 38.7222 40.9574 39.4002C40.2898 40.0766 39.3817 40.4616 38.4314 40.4712ZM12.0014 5.83317C11.1083 5.83052 10.2349 6.09544 9.49379 6.5938C8.75267 7.09215 8.17783 7.80107 7.84338 8.62917C7.50565 9.45623 7.4183 10.3643 7.59217 11.2405C7.76603 12.1168 8.19346 12.9227 8.82138 13.5582C9.45008 14.1923 10.2535 14.6245 11.1291 14.7998C12.0047 14.975 12.9126 14.8853 13.7369 14.5421C14.5612 14.1988 15.2645 13.6176 15.7569 12.8727C16.2493 12.1278 16.5085 11.2531 16.5014 10.3602C16.5014 9.16017 16.0274 8.00817 15.1814 7.15917C14.7644 6.7401 14.2689 6.4073 13.7233 6.17978C13.1777 5.95226 12.5926 5.83448 12.0014 5.83317ZM12.0014 11.8692C11.8036 11.8692 11.6078 11.8301 11.4253 11.7541C11.2427 11.6782 11.0769 11.5669 10.9375 11.4267C10.7981 11.2864 10.6878 11.12 10.613 10.937C10.5381 10.7539 10.5002 10.5579 10.5014 10.3602C10.5022 9.96175 10.6602 9.57974 10.941 9.29718C11.2219 9.01461 11.603 8.85433 12.0014 8.85117C12.3983 8.85892 12.7767 9.02067 13.0566 9.30225C13.3365 9.58382 13.496 9.96318 13.5014 10.3602C13.5006 10.7586 13.3426 11.1406 13.0617 11.4232C12.7808 11.7057 12.3998 11.866 12.0014 11.8692Z" fill="#3BF5FF"/>
</svg>
