<svg width="48" height="48" viewBox="0 0 48 48" fill="none" xmlns="http://www.w3.org/2000/svg">
<path d="M13 18.0078H11M21 18.0078H19M13 12.0078H11M21 12.0078H19" stroke="#3BF5FF" stroke-width="3" stroke-linecap="round"/>
<path d="M37 30H35M37 22H35" stroke="#3BF5FF" stroke-width="3" stroke-linecap="round"/>
<path d="M28 16V44H36C39.7712 44 41.6568 44 42.8284 42.8284C44 41.6568 44 39.7712 44 36V24C44 20.2288 44 18.3431 42.8284 17.1716C41.6568 16 39.7712 16 36 16H28ZM28 16C28 10.3431 28 7.51472 26.2426 5.75736C24.4852 4 21.6568 4 16 4C10.3431 4 7.51472 4 5.75736 5.75736C4 7.51472 4 10.3431 4 16V20" stroke="#3BF5FF" stroke-width="3" stroke-linecap="round" stroke-linejoin="round"/>
<path d="M16.0544 27.9109C16.0544 30.1185 14.2636 31.9079 12.0546 31.9079C9.84551 31.9079 8.05469 30.1185 8.05469 27.9109C8.05469 25.7035 9.84551 23.9141 12.0546 23.9141C14.2636 23.9141 16.0544 25.7035 16.0544 27.9109Z" stroke="#3BF5FF" stroke-width="3" stroke-linecap="round"/>
<path d="M4.14159 40.4351C6.25829 37.1789 9.61967 35.9585 12.0518 35.9609C14.4839 35.9635 17.7467 37.1789 19.8634 40.4351C20.0003 40.6457 20.0379 40.9049 19.9145 41.1237C19.4195 42.0009 17.8825 43.7415 16.7724 43.8595C15.4969 43.9951 12.1602 44.0141 12.0543 44.0147C11.9484 44.0141 8.50875 43.9951 7.23265 43.8595C6.12253 43.7415 4.58555 42.0009 4.09053 41.1237C3.96703 40.9049 4.00473 40.6457 4.14159 40.4351Z" stroke="#3BF5FF" stroke-width="3" stroke-linecap="round"/>
</svg>
