<svg width="48" height="48" viewBox="0 0 48 48" fill="none" xmlns="http://www.w3.org/2000/svg">
<path d="M24 18C27.866 18 31 14.866 31 11C31 7.13401 27.866 4 24 4C20.134 4 17 7.13401 17 11C17 14.866 20.134 18 24 18Z" stroke="#3BF5FF" stroke-width="3" stroke-linecap="round" stroke-linejoin="round"/>
<path d="M4 41C4 32.163 12.059 25 22 25M37 31V28C37 27.2044 36.6839 26.4413 36.1213 25.8787C35.5587 25.3161 34.7956 25 34 25C33.2044 25 32.4413 25.3161 31.8787 25.8787C31.3161 26.4413 31 27.2044 31 28V31M27 31H41V41H27V31Z" stroke="#3BF5FF" stroke-width="3" stroke-linecap="round" stroke-linejoin="round"/>
</svg>
