<svg width="160" height="33" viewBox="0 0 160 33" fill="none" xmlns="http://www.w3.org/2000/svg">
<g style="mix-blend-mode:luminosity">
<path d="M52.5244 11.8023H56.7358V25.0938H52.5244V11.8023Z" fill="#E60023"/>
<mask id="mask0_3917_48387" style="mask-type:luminance" maskUnits="userSpaceOnUse" x="0" y="0" width="134" height="33">
<path d="M0 0.00229263H133.333V32.7422H0V0.00229263Z" fill="white"/>
</mask>
<g mask="url(#mask0_3917_48387)">
<path d="M57.6152 11.8101H61.6715V13.6273H61.749C62.7308 12.1994 63.9967 11.4207 65.8312 11.4207C68.7248 11.4207 70.43 13.4975 70.43 16.4569V25.1016H66.2187V17.3137C66.2187 15.9117 65.5211 14.9511 64.1518 14.9511C62.7567 14.9511 61.8265 16.1194 61.8265 17.7549V25.1016H57.6152V11.8101Z" fill="#E60023"/>
<path d="M57.1563 8.25093C57.1563 6.84901 56.0253 5.71268 54.6302 5.71268C53.2351 5.71268 52.104 6.84901 52.104 8.25093C52.104 9.65273 53.2351 10.7891 54.6302 10.7891C56.0253 10.7891 57.1563 9.65273 57.1563 8.25093Z" fill="#E60023"/>
<path d="M100.049 11.6182C99.9293 11.6074 99.7915 11.6025 99.6303 11.6025C98.0284 11.6025 96.9434 12.3034 96.0132 13.887H95.9358V11.8102H91.9053V25.1016H96.1165V19.1309C96.1165 16.3643 97.6413 15.0824 100.049 15.306V11.6182Z" fill="#E60023"/>
<path d="M120.716 16.7151C119.036 16.4037 117.538 16.2739 117.538 15.3394C117.538 14.5086 118.339 14.1193 119.372 14.1193C120.535 14.1193 121.336 14.4827 121.491 15.6769H125.366C125.16 13.055 123.144 11.4194 119.398 11.4194C116.272 11.4194 113.688 12.8732 113.688 15.6769C113.688 18.7919 116.143 19.415 118.442 19.8045C120.199 20.116 121.801 20.2458 121.801 21.4399C121.801 22.2966 121 22.7639 119.734 22.7639C118.464 22.7639 117.624 22.224 117.366 21.1285H113.354C113.649 23.8608 116.036 25.5156 119.76 25.5156C123.222 25.5156 125.78 24.01 125.78 21.1025C125.78 17.7017 123.041 17.1046 120.716 16.7151Z" fill="#E60023"/>
<path d="M106.582 14.4254C107.952 14.4254 108.933 15.4378 109.089 17.0215H103.87C104.154 15.4378 104.981 14.4254 106.582 14.4254ZM106.815 22.4469C105.084 22.4469 104.102 21.3307 103.844 19.5395H113.352C113.377 16.8397 112.602 14.5292 111.026 13.0756C109.889 12.0372 108.391 11.4141 106.505 11.4141C102.474 11.4141 99.71 14.4513 99.71 18.4233C99.71 22.4469 102.397 25.4844 106.763 25.4844C108.442 25.4844 109.786 25.043 110.897 24.2642C112.06 23.4595 112.835 22.3172 113.119 21.1232H109.011C108.649 21.9538 107.926 22.4469 106.815 22.4469Z" fill="#E60023"/>
<path d="M133.197 21.9678C133.002 21.9756 132.74 21.987 132.499 21.987C131.595 21.987 131.027 21.7273 131.027 20.6889V14.4585H133.197V11.8106H131.027V7.60512H126.919V11.8106H125.626V14.4585H126.919V21.5975C126.919 24.4532 128.675 25.2578 131.13 25.2578C132.066 25.2578 132.774 25.1874 133.197 25.1045V21.9678Z" fill="#E60023"/>
<path d="M77.951 21.9739C77.783 21.9804 77.5891 21.987 77.4079 21.987C76.5038 21.987 75.9353 21.7273 75.9353 20.6889V14.4585H77.951V11.8106H75.9353V7.60512H71.8273V11.8106H70.4575V14.4585H71.8273V21.5975C71.8273 24.4532 73.5841 25.2578 76.0386 25.2578C76.8691 25.2578 77.5194 25.2023 77.951 25.132V21.9739Z" fill="#E60023"/>
<path d="M87.1237 17.0215C86.9687 15.4379 85.9868 14.4254 84.6175 14.4254C83.0156 14.4254 82.1889 15.4379 81.9046 17.0215H87.1237ZM77.7451 18.4233C77.7451 14.4514 80.5095 11.4142 84.54 11.4142C86.426 11.4142 87.9246 12.0372 89.0614 13.0756C90.6374 14.5293 91.4124 16.8397 91.3866 19.5396H81.879C82.1372 21.3307 83.119 22.447 84.8501 22.447C85.961 22.447 86.6844 21.9538 87.046 21.1232H91.154C90.8698 22.3172 90.0948 23.4595 88.9321 24.2644C87.8212 25.043 86.4777 25.4844 84.7984 25.4844C80.432 25.4844 77.7451 22.447 77.7451 18.4233Z" fill="#E60023"/>
<path d="M45.2115 15.2628C46.8651 15.2628 47.7952 14.2763 47.7952 12.7965C47.7952 11.3169 46.8391 10.4083 45.2115 10.4083H41.9818V15.2628H45.2115ZM37.7183 6.54027H45.0314C47.279 6.54027 48.9326 7.16324 50.0694 8.25361C51.2579 9.36978 51.9297 10.9535 51.9297 12.8225C51.9297 16.379 49.4752 18.8972 45.6772 18.8972H41.9818V25.1016H37.7183V6.54027Z" fill="#E60023"/>
<path d="M31.937 16.3755C31.937 25.1988 24.8183 32.3516 16.0371 32.3516C7.25588 32.3516 0.137207 25.1988 0.137207 16.3755C0.137207 7.55214 7.25588 0.399523 16.0371 0.399523C24.8183 0.399523 31.937 7.55214 31.937 16.3755Z" fill="white"/>
<path d="M16.0371 0.399523C7.25588 0.399523 0.137207 7.55227 0.137207 16.3755C0.137207 23.1438 4.32815 28.9297 10.2428 31.2575C10.1038 29.9935 9.9782 28.0495 10.2979 26.6696C10.5869 25.4228 12.1624 18.7285 12.1624 18.7285C12.1624 18.7285 11.6868 17.7714 11.6868 16.3566C11.6868 14.1351 12.9682 12.4766 14.5638 12.4766C15.9203 12.4766 16.5755 13.4999 16.5755 14.727C16.5755 16.0978 15.707 18.1472 15.2587 20.0463C14.8842 21.6365 16.0524 22.9332 17.6133 22.9332C20.4392 22.9332 22.6115 19.9392 22.6115 15.6174C22.6115 11.7922 19.876 9.11777 15.97 9.11777C11.4459 9.11777 8.79045 12.5273 8.79045 16.0509C8.79045 17.424 9.31687 18.8964 9.97377 19.6968C10.1037 19.855 10.1227 19.9936 10.084 20.155C9.96334 20.6596 9.69511 21.7448 9.64245 21.9669C9.57311 22.2593 9.41202 22.3214 9.11068 22.1805C7.12489 21.2517 5.88331 18.3344 5.88331 15.9913C5.88331 10.9517 9.5275 6.32348 16.389 6.32348C21.9047 6.32348 26.191 10.2727 26.191 15.5505C26.191 21.0564 22.736 25.4876 17.9404 25.4876C16.3292 25.4876 14.8146 24.6466 14.2961 23.6531C14.2961 23.6531 13.4988 26.7034 13.3055 27.4509C12.9466 28.8386 11.9775 30.578 11.3294 31.6391C12.817 32.102 14.398 32.3516 16.0371 32.3516C24.8185 32.3516 31.9371 25.1988 31.9371 16.3755C31.9371 7.55227 24.8185 0.399523 16.0371 0.399523Z" fill="#E60023"/>
</g>
</g>
</svg>
