<svg width="64" height="64" viewBox="0 0 64 64" fill="none" xmlns="http://www.w3.org/2000/svg">
<path d="M26.6673 21.3307C26.6673 26.3591 26.6673 28.8731 25.1052 30.4353C23.5431 31.9974 21.029 31.9974 16.0007 31.9974C10.9723 31.9974 8.45817 31.9974 6.89609 30.4353C5.33398 28.8731 5.33398 26.3591 5.33398 21.3307C5.33398 16.3024 5.33398 13.7882 6.89609 12.2262C8.45817 10.6641 10.9723 10.6641 16.0007 10.6641C21.029 10.6641 23.5431 10.6641 25.1052 12.2262C26.6673 13.7882 26.6673 16.3024 26.6673 21.3307Z" fill="#515354" stroke="#515354" stroke-width="6.25"/>
<path d="M26.666 18.6641V30.6163C26.666 41.2099 19.9575 50.1939 10.666 53.3307" stroke="#515354" stroke-width="6.25" stroke-linecap="round"/>
<path d="M58.6673 21.3307C58.6673 26.3591 58.6673 28.8731 57.1052 30.4353C55.5431 31.9974 53.0289 31.9974 48.0007 31.9974C42.9724 31.9974 40.4583 31.9974 38.8961 30.4353C37.334 28.8731 37.334 26.3591 37.334 21.3307C37.334 16.3024 37.334 13.7882 38.8961 12.2262C40.4583 10.6641 42.9724 10.6641 48.0007 10.6641C53.0289 10.6641 55.5431 10.6641 57.1052 12.2262C58.6673 13.7882 58.6673 16.3024 58.6673 21.3307Z" fill="#515354" stroke="#515354" stroke-width="6.25"/>
<path d="M58.666 18.6641V30.6163C58.666 41.2099 51.9575 50.1939 42.666 53.3307" stroke="#515354" stroke-width="6.25" stroke-linecap="round"/>
</svg>
