<svg width="48" height="48" viewBox="0 0 48 48" fill="none" xmlns="http://www.w3.org/2000/svg">
<path d="M42.1809 13.5203C44.4916 17.5227 45.4171 22.1756 44.8139 26.7575C44.2107 31.3394 42.1124 35.5943 38.8446 38.8621C35.5767 42.13 31.3219 44.2283 26.7399 44.8315C22.158 45.4347 17.5051 44.5092 13.5028 42.1985C9.50048 39.8877 6.37248 36.3209 4.60393 32.0513C2.83537 27.7816 2.52509 23.0476 3.72121 18.5837C4.91734 14.1197 7.55301 10.1751 11.2195 7.36174C14.8859 4.54837 19.3782 3.02344 23.9997 3.02344" stroke="#3BF5FF" stroke-width="3.5" stroke-linecap="round" stroke-linejoin="round"/>
<path d="M24 3.02344V21.0181" stroke="#3BF5FF" stroke-width="3.5" stroke-linecap="round" stroke-linejoin="round"/>
<path d="M26.9982 24.0226C26.9982 24.818 26.6823 25.5808 26.1198 26.1432C25.5574 26.7057 24.7945 27.0217 23.9991 27.0217C23.6053 27.0217 23.2153 26.9441 22.8514 26.7934C22.4875 26.6427 22.1569 26.4217 21.8784 26.1433C21.5999 25.8648 21.379 25.5341 21.2283 25.1703C21.0776 24.8064 21 24.4164 21 24.0226C21 23.2271 21.316 22.4643 21.8784 21.9019C22.4409 21.3394 23.2037 21.0234 23.9991 21.0234C24.7945 21.0234 25.5574 21.3394 26.1198 21.9019C26.6823 22.4643 26.9982 23.2271 26.9982 24.0226Z" stroke="#3BF5FF" stroke-width="3.5" stroke-linecap="round" stroke-linejoin="round"/>
<path d="M34.3916 18.0217C35.712 20.3087 36.2409 22.9675 35.8962 25.5858C35.5515 28.204 34.3525 30.6353 32.4851 32.5027C30.6178 34.37 28.1864 35.5691 25.5682 35.9138C22.9499 36.2584 20.2911 35.7296 18.0041 34.4092C15.7171 33.0887 13.9296 31.0506 12.919 28.6108C11.9084 26.1709 11.7311 23.4658 12.4146 20.915C13.0981 18.3641 14.6042 16.1101 16.6993 14.5025C18.7945 12.8948 21.3615 12.0234 24.0023 12.0234" stroke="#3BF5FF" stroke-width="3.5" stroke-linecap="round" stroke-linejoin="round"/>
</svg>
