<svg width="25" height="24" viewBox="0 0 25 24" fill="none" xmlns="http://www.w3.org/2000/svg">
<path d="M12.334 4V2" stroke="#FFD83B" stroke-width="1.5" stroke-linecap="round" stroke-linejoin="round"/>
<path d="M19.334 22C19.334 18.134 16.2 15 12.334 15C8.46799 15 5.33398 18.134 5.33398 22" stroke="#FFD83B" stroke-width="1.5" stroke-linecap="round" stroke-linejoin="round"/>
<path d="M9.83398 7.5H9.84396M14.824 7.5H14.834" stroke="#FFD83B" stroke-width="2" stroke-linecap="round" stroke-linejoin="round"/>
<path d="M5.83398 6.66667C5.83398 6.04669 5.83398 5.73669 5.90213 5.48236C6.08706 4.79218 6.62616 4.25308 7.31634 4.06815C7.57067 4 7.88067 4 8.50065 4H16.1673C16.7873 4 17.0973 4 17.3516 4.06815C18.0418 4.25308 18.5809 4.79218 18.7659 5.48236C18.834 5.73669 18.834 6.04669 18.834 6.66667C18.834 7.90663 18.834 8.52661 18.6977 9.03528C18.3278 10.4156 17.2496 11.4938 15.8693 11.8637C15.3606 12 14.7406 12 13.5007 12H11.1673C9.92735 12 9.30737 12 8.7987 11.8637C7.41834 11.4938 6.34015 10.4156 5.97028 9.03528C5.83398 8.52661 5.83398 7.90663 5.83398 6.66667Z" stroke="#FFD83B" stroke-width="1.5" stroke-linecap="round" stroke-linejoin="round"/>
</svg>
