<svg width="48" height="48" viewBox="0 0 48 48" fill="none" xmlns="http://www.w3.org/2000/svg">
<path fill-rule="evenodd" clip-rule="evenodd" d="M24 24C24 25.5913 23.3679 27.1174 22.2426 28.2426C21.1174 29.3679 19.5913 30 18 30C16.4087 30 14.8826 29.3679 13.7574 28.2426C12.6321 27.1174 12 25.5913 12 24C12 22.4087 12.6321 20.8826 13.7574 19.7574C14.8826 18.6321 16.4087 18 18 18C19.5913 18 21.1174 18.6321 22.2426 19.7574C23.3679 20.8826 24 22.4087 24 24ZM15 24C15 24.7956 15.3161 25.5587 15.8787 26.1213C16.4413 26.6839 17.2044 27 18 27C18.7956 27 19.5587 26.6839 20.1213 26.1213C20.6839 25.5587 21 24.7956 21 24C21 23.2044 20.6839 22.4413 20.1213 21.8787C19.5587 21.3161 18.7956 21 18 21C17.2044 21 16.4413 21.3161 15.8787 21.8787C15.3161 22.4413 15 23.2044 15 24ZM24 24C24 25.5913 24.6321 27.1174 25.7574 28.2426C26.8826 29.3679 28.4087 30 30 30C31.5913 30 33.1174 29.3679 34.2426 28.2426C35.3679 27.1174 36 25.5913 36 24C36 22.4087 35.3679 20.8826 34.2426 19.7574C33.1174 18.6321 31.5913 18 30 18C28.4087 18 26.8826 18.6321 25.7574 19.7574C24.6321 20.8826 24 22.4087 24 24ZM33 24C33 24.7956 32.6839 25.5587 32.1213 26.1213C31.5587 26.6839 30.7956 27 30 27C29.2044 27 28.4413 26.6839 27.8787 26.1213C27.3161 25.5587 27 24.7956 27 24C27 23.2044 27.3161 22.4413 27.8787 21.8787C28.4413 21.3161 29.2044 21 30 21C30.7956 21 31.5587 21.3161 32.1213 21.8787C32.6839 22.4413 33 23.2044 33 24ZM25.53 33.753C27.0883 33.4327 28.5177 32.6606 29.64 31.533L31.74 33.663C29.6785 35.7031 26.9003 36.8553 24 36.873C22.5373 36.859 21.091 36.5636 19.74 36.003C18.4036 35.4594 17.1898 34.6535 16.17 33.633L18.27 31.503C19.2082 32.4358 20.3598 33.1256 21.625 33.5125C22.8901 33.8993 24.2306 33.9716 25.53 33.723V33.753Z" fill="#3BF5FF"/>
<path fill-rule="evenodd" clip-rule="evenodd" d="M28.5 4.49764C28.5005 5.42862 28.2122 6.33683 27.6749 7.09711C27.1376 7.8574 26.3777 8.43232 25.5 8.74264V8.99764H33C35.3869 8.99764 37.6761 9.94585 39.364 11.6337C41.0518 13.3215 42 15.6107 42 17.9976V20.9976L45 23.9976V29.9976L42 32.9976V35.9976C42 38.3846 41.0518 40.6738 39.364 42.3616C37.6761 44.0494 35.3869 44.9976 33 44.9976H15C12.6131 44.9976 10.3239 44.0494 8.63604 42.3616C6.94821 40.6738 6 38.3846 6 35.9976V32.9976L3 29.9976V23.9976L6 20.9976V17.9976C6 15.6107 6.94821 13.3215 8.63604 11.6337C10.3239 9.94585 12.6131 8.99764 15 8.99764H22.5V8.74264C21.7223 8.46768 21.0351 7.98423 20.5136 7.34513C19.992 6.70604 19.6562 5.93588 19.5428 5.11882C19.4293 4.30176 19.5426 3.46924 19.8704 2.71224C20.1981 1.95524 20.7276 1.30288 21.401 0.826448C22.0744 0.350019 22.8658 0.0678524 23.6887 0.0107837C24.5116 -0.046285 25.3344 0.12394 26.0671 0.502856C26.7998 0.881773 27.4143 1.4548 27.8433 2.15932C28.2724 2.86384 28.4996 3.67275 28.5 4.49764ZM15 11.9976C13.4087 11.9976 11.8826 12.6298 10.7574 13.755C9.63214 14.8802 9 16.4063 9 17.9976V35.9976C9 37.5889 9.63214 39.1151 10.7574 40.2403C11.8826 41.3655 13.4087 41.9976 15 41.9976H33C34.5913 41.9976 36.1174 41.3655 37.2426 40.2403C38.3679 39.1151 39 37.5889 39 35.9976V17.9976C39 16.4063 38.3679 14.8802 37.2426 13.755C36.1174 12.6298 34.5913 11.9976 33 11.9976H15Z" fill="#3BF5FF"/>
</svg>
