<svg width="40" height="40" viewBox="0 0 40 40" fill="none" xmlns="http://www.w3.org/2000/svg">
<path d="M26.667 28.3333L27.0168 28.6832C27.6313 29.2977 27.9387 29.605 28.3107 29.5843C28.6827 29.5638 28.954 29.2243 29.4968 28.5457L31.6663 25.8333M21.667 25.7572V26.4005C21.667 28.4037 21.667 29.4052 21.9143 30.3218C22.2197 31.4538 22.7988 32.4977 23.603 33.3662C24.254 34.0693 25.1133 34.6168 26.8317 35.7118C27.601 36.202 27.9857 36.4472 28.3945 36.5612C28.8995 36.7018 29.4345 36.7018 29.9395 36.5612C30.3483 36.4472 30.733 36.202 31.5023 35.7118C33.2207 34.6168 34.08 34.0693 34.731 33.3662C35.5352 32.4977 36.1143 31.4538 36.4197 30.3218C36.667 29.4052 36.667 28.4037 36.667 26.4005V25.7572C36.667 24.5098 36.667 23.8862 36.4307 23.3595C36.2848 23.0347 36.076 22.7405 35.8157 22.4933C35.3935 22.0925 34.7953 21.8735 33.5987 21.4355L31.142 20.5363C30.1653 20.1788 29.677 20 29.167 20C28.657 20 28.1687 20.1788 27.192 20.5363L24.7353 21.4355C23.5387 21.8735 22.9405 22.0925 22.5183 22.4933C22.258 22.7405 22.0492 23.0347 21.9033 23.3595C21.667 23.8862 21.667 24.5098 21.667 25.7572Z" stroke="#3BF5FF" stroke-width="2" stroke-linecap="round" stroke-linejoin="round"/>
<path d="M26.9517 13.1844V15.8359M26.9517 13.1844C26.9517 11.9293 28.0072 10.9117 29.309 10.9117C30.611 10.9117 31.6663 11.9293 31.6663 13.1844V15.8359M26.9517 13.1844V8.63899C26.9517 7.38379 25.8963 6.36625 24.5943 6.36625C23.2925 6.36625 22.237 7.38379 22.237 8.63899M22.237 8.63899V15.8359M22.237 8.63899V5.60867C22.237 4.35347 21.1817 3.33594 19.8797 3.33594C18.5778 3.33594 17.5223 4.35347 17.5223 5.60867V10.1541M17.5223 10.1541C17.5223 8.89894 16.467 7.8814 15.1651 7.8814C13.8632 7.8814 12.8078 8.89894 12.8078 10.1541V21.0659C12.8078 21.7593 11.9202 22.0883 11.437 21.5741L7.61821 17.5098C6.96889 16.7429 5.87148 16.4834 4.92781 16.8733C3.24726 17.5676 2.85298 20.0198 3.94526 21.4333C5.81429 23.8523 7.72931 27.1551 9.27531 30.0673C11.3734 34.0196 15.5144 36.6693 20.1195 36.6693M17.5223 10.1541V15.8359" stroke="#3BF5FF" stroke-width="2" stroke-linecap="round" stroke-linejoin="round"/>
</svg>
