<svg width="56" height="56" viewBox="0 0 56 56" fill="none" xmlns="http://www.w3.org/2000/svg">
<path fill-rule="evenodd" clip-rule="evenodd" d="M11.5575 8.96982C16.3377 8.04427 22.1523 8.03701 27.996 8.03701C33.8396 8.03701 39.6543 8.04427 44.4345 8.96982C45.0936 9.10405 45.699 9.42813 46.1763 9.90215C46.6535 10.3762 46.9817 10.9794 47.1204 11.6376C47.9479 15.4088 47.9588 18.8496 47.9588 24.6316C47.9588 30.4063 47.9479 33.8508 47.124 37.6183C46.9851 38.277 46.6563 38.8806 46.1784 39.3546C45.7005 39.8287 45.0942 40.1525 44.4345 40.2861C39.6543 41.2116 33.8396 41.2225 27.996 41.2225C22.1523 41.2225 16.3377 41.2116 11.5575 40.2861C10.8983 40.1519 10.2929 39.8278 9.81566 39.3538C9.33842 38.8798 9.01024 38.2765 8.87155 37.6183C8.04399 33.8508 8.03311 30.4063 8.03311 24.628C8.03311 18.8496 8.04399 15.4088 8.86792 11.6376C9.00687 10.9789 9.33559 10.3753 9.81352 9.90128C10.2914 9.42722 10.8977 9.10342 11.5575 8.96982ZM27.996 3.5H27.858C22.1741 3.5 15.9457 3.5 10.6936 4.51629C9.16494 4.81911 7.75829 5.56262 6.64704 6.65516C5.53579 7.74771 4.76851 9.14154 4.43979 10.6648C3.49609 14.9587 3.49609 18.8787 3.49609 24.461V24.7949C3.49609 30.3809 3.49609 34.2972 4.43979 38.5911C5.02779 41.2806 6.94422 43.4838 9.51036 44.413L8.46866 48.5507C8.27341 49.3639 8.40682 50.2213 8.8399 50.9368C9.27299 51.6522 9.9708 52.168 10.7818 52.3721C11.5929 52.5761 12.4517 52.4521 13.1718 52.0268C13.8919 51.6015 14.4152 50.9093 14.6281 50.1006L15.8077 45.422C19.7495 45.7595 23.9344 45.7595 27.858 45.7595H28.1339C32.0575 45.7595 36.2424 45.7595 40.1842 45.422L41.3638 50.1006C41.5698 50.9174 42.0919 51.6189 42.8151 52.0508C43.5383 52.4826 44.4035 52.6096 45.2203 52.4035C46.0371 52.1975 46.7386 51.6755 47.1705 50.9523C47.6024 50.2291 47.7293 49.3639 47.5233 48.5471L46.4816 44.413C47.75 43.9504 48.8805 43.1737 49.7672 42.1555C50.654 41.1374 51.2681 39.911 51.5521 38.5911C52.4958 34.2972 52.4958 30.3809 52.4958 24.7985V24.461C52.4958 18.8787 52.4958 14.9587 51.5521 10.6685C51.224 9.1445 50.457 7.74989 49.3457 6.65665C48.2345 5.56341 46.8275 4.81937 45.2983 4.51629C40.0463 3.5 33.8179 3.5 28.1303 3.5H27.996ZM18.2686 21.4775C18.2686 21.12 18.1982 20.766 18.0614 20.4357C17.9246 20.1054 17.7241 19.8053 17.4713 19.5526C17.2185 19.2998 16.9184 19.0993 16.5881 18.9625C16.2579 18.8257 15.9039 18.7552 15.5464 18.7552C15.1889 18.7552 14.8349 18.8257 14.5047 18.9625C14.1744 19.0993 13.8743 19.2998 13.6215 19.5526C13.3687 19.8053 13.1682 20.1054 13.0314 20.4357C12.8946 20.766 12.8242 21.12 12.8242 21.4775V27.4082C12.8242 27.7657 12.8946 28.1197 13.0314 28.45C13.1682 28.7803 13.3687 29.0804 13.6215 29.3331C13.8743 29.5859 14.1744 29.7864 14.5047 29.9232C14.8349 30.06 15.1889 30.1304 15.5464 30.1304C15.9039 30.1304 16.2579 30.06 16.5881 29.9232C16.9184 29.7864 17.2185 29.5859 17.4713 29.3331C17.7241 29.0804 17.9246 28.7803 18.0614 28.45C18.1982 28.1197 18.2686 27.7657 18.2686 27.4082V21.4775ZM35.8468 29.9417C35.873 30.0829 35.8852 30.2264 35.8831 30.37V33.3354C35.8831 33.937 35.6441 34.514 35.2187 34.9395C34.7932 35.3649 34.2162 35.6039 33.6146 35.6039C33.013 35.6039 32.4359 35.3649 32.0105 34.9395C31.5851 34.514 31.3461 33.937 31.3461 33.3354V30.37C31.3461 30.2248 31.3606 30.0808 31.3896 29.9381C30.8815 29.7328 30.4049 29.4566 29.9741 29.1178C29.8644 29.2142 29.7452 29.2993 29.6184 29.3719L27.0523 30.8527C26.794 31.0114 26.5066 31.1167 26.207 31.1625C25.9074 31.2082 25.6016 31.1934 25.3078 31.119C25.014 31.0446 24.7381 30.9121 24.4963 30.7293C24.2546 30.5464 24.052 30.317 23.9004 30.0546C23.7488 29.7921 23.6513 29.502 23.6137 29.2012C23.5761 28.9005 23.5992 28.5952 23.6815 28.3036C23.7639 28.0119 23.9038 27.7397 24.0932 27.503C24.2825 27.2663 24.5173 27.0699 24.7838 26.9255L27.3499 25.4446C27.4765 25.3708 27.6103 25.31 27.7491 25.2631C27.6764 24.7199 27.6764 24.1694 27.7491 23.6262C27.6103 23.5793 27.4765 23.5185 27.3499 23.4447L24.7838 21.9602C24.5173 21.8158 24.2825 21.6194 24.0932 21.3827C23.9038 21.146 23.7639 20.8738 23.6815 20.5821C23.5992 20.2904 23.5761 19.9852 23.6137 19.6845C23.6513 19.3837 23.7488 19.0936 23.9004 18.8311C24.052 18.5687 24.2546 18.3393 24.4963 18.1564C24.7381 17.9736 25.014 17.8411 25.3078 17.7667C25.6016 17.6923 25.9074 17.6775 26.207 17.7232C26.5066 17.769 26.794 17.8743 27.0523 18.033L29.6184 19.5138C29.7466 19.5864 29.8652 19.6711 29.9741 19.7679C30.4072 19.4316 30.8791 19.1581 31.3896 18.9476C31.3618 18.8041 31.3484 18.6582 31.3497 18.5121V15.5503C31.3497 14.9487 31.5887 14.3717 32.0142 13.9462C32.4396 13.5208 33.0166 13.2818 33.6182 13.2818C34.2199 13.2818 34.7969 13.5208 35.2223 13.9462C35.6477 14.3717 35.8867 14.9487 35.8867 15.5503V18.5157C35.8867 18.6609 35.8734 18.8049 35.8468 18.9476C36.3598 19.1581 36.8316 19.4316 37.2624 19.7679C37.3721 19.6715 37.4913 19.5864 37.6181 19.5138L40.1842 18.033C40.7038 17.7514 41.3127 17.6836 41.8815 17.8442C42.4502 18.0048 42.9339 18.381 43.2295 18.8927C43.5251 19.4044 43.6093 20.0113 43.4642 20.5842C43.3191 21.1571 42.9562 21.6508 42.4527 21.9602L39.8866 23.4447C39.7611 23.5183 39.6285 23.5791 39.4909 23.6262C39.5633 24.1682 39.5633 24.7175 39.4909 25.2595C39.6285 25.3066 39.7611 25.3674 39.8866 25.441L42.4527 26.9255C42.7192 27.0699 42.954 27.2663 43.1433 27.503C43.3326 27.7397 43.4726 28.0119 43.5549 28.3036C43.6373 28.5952 43.6603 28.9005 43.6228 29.2012C43.5852 29.502 43.4877 29.7921 43.3361 30.0546C43.1845 30.317 42.9818 30.5464 42.7401 30.7293C42.4984 30.9121 42.2224 31.0446 41.9286 31.119C41.6348 31.1934 41.3291 31.2082 41.0295 31.1625C40.7298 31.1167 40.4424 31.0114 40.1842 30.8527L37.6181 29.3719C37.4913 29.2993 37.3721 29.2142 37.2624 29.1178C36.8316 29.4566 36.3598 29.7312 35.8468 29.9417Z" fill="#C6BBBB"/>
</svg>
