<svg width="32" height="32" viewBox="0 0 32 32" fill="none" xmlns="http://www.w3.org/2000/svg">
<path d="M28.333 22.667C28.333 19.5375 25.7964 17.0002 22.667 17C19.5374 17 17 19.5374 17 22.667C17.0002 25.7964 19.5375 28.333 22.667 28.333C25.7963 28.3328 28.3328 25.7963 28.333 22.667ZM22.6787 24.333C23.2309 24.333 23.6785 24.7809 23.6787 25.333C23.6787 25.8853 23.231 26.333 22.6787 26.333H22.667C22.1147 26.333 21.667 25.8853 21.667 25.333C21.6672 24.7809 22.1148 24.333 22.667 24.333H22.6787ZM21.667 22.667V20C21.667 19.4477 22.1147 19 22.667 19C23.2191 19.0002 23.667 19.4478 23.667 20V22.667C23.6668 23.219 23.219 23.6668 22.667 23.667C22.1148 23.667 21.6672 23.2191 21.667 22.667ZM30.333 22.667C30.3328 26.9009 26.9009 30.3328 22.667 30.333C18.4329 30.333 15.0002 26.901 15 22.667C15 18.4328 18.4328 15 22.667 15C26.901 15.0002 30.333 18.4329 30.333 22.667Z" fill="#EB9091"/>
<path d="M10.334 14.667C10.334 11.5374 12.8714 9 16.001 9C18.096 9.00012 19.9239 10.1379 20.9033 11.8242C21.1807 12.3018 21.0186 12.914 20.541 13.1914C20.0635 13.4686 19.4511 13.3056 19.1738 12.8281C18.5376 11.7329 17.3543 11.0001 16.001 11C13.9759 11 12.334 12.6419 12.334 14.667C12.3341 15.7831 12.8314 16.7822 13.6201 17.4561C14.0398 17.8147 14.0898 18.4454 13.7314 18.8652C13.3728 19.285 12.7412 19.3351 12.3213 18.9766C11.1068 17.9389 10.3341 16.3925 10.334 14.667Z" fill="#EB9091"/>
<path d="M1.66602 14.6641C1.66602 13.9623 1.8561 13.3299 2.15918 12.6641C2.4531 12.0184 2.88643 11.2747 3.41406 10.3652L5.97852 5.94434C6.50415 5.03831 6.93354 4.29557 7.34668 3.72168C7.77264 3.13 8.22495 2.65248 8.83105 2.30371C9.43706 1.95505 10.0777 1.80381 10.8037 1.73242C11.5081 1.6632 12.3669 1.66406 13.416 1.66406H18.582C19.6311 1.66406 20.4899 1.66322 21.1943 1.73242C21.9204 1.80378 22.561 1.95508 23.167 2.30371C23.7733 2.65251 24.2263 3.12988 24.6523 3.72168C25.0655 4.29556 25.4949 5.03837 26.0205 5.94434L28.585 10.3652C29.1173 11.2829 29.5289 12.0016 29.8086 12.585C30.087 13.1655 30.2856 13.711 30.3105 14.2734C30.3348 14.825 29.9071 15.2919 29.3555 15.3164C28.8039 15.3408 28.337 14.913 28.3125 14.3613C28.3054 14.2038 28.2451 13.9501 28.0049 13.4492C27.7658 12.9506 27.398 12.3034 26.8555 11.3682L24.29 6.94727C23.7451 6.00803 23.3715 5.36612 23.0293 4.89063C22.6998 4.43295 22.4442 4.19487 22.1699 4.03711C21.8957 3.87931 21.5614 3.77793 20.999 3.72266C20.4148 3.66524 19.67 3.66406 18.582 3.66406H13.416C12.3284 3.66406 11.5842 3.66527 11 3.72266C10.4378 3.77791 10.1033 3.8794 9.8291 4.03711C9.55489 4.19487 9.29921 4.43294 8.96973 4.89063C8.62741 5.36618 8.25304 6.0078 7.70801 6.94727L5.14355 11.3682C4.59623 12.3116 4.22308 12.958 3.97949 13.4932C3.74511 14.0081 3.66602 14.348 3.66602 14.6641C3.66602 14.9802 3.74511 15.32 3.97949 15.835C4.22308 16.3701 4.59623 17.0165 5.14355 17.96L7.70801 22.3809C8.25305 23.3203 8.62741 23.9619 8.96973 24.4375C9.28736 24.8787 9.53669 25.1147 9.7998 25.2725C10.1361 25.4328 10.3683 25.5169 10.7266 25.5723C11.1395 25.636 11.7314 25.6641 12.7998 25.6641C13.3519 25.6643 13.7998 26.1119 13.7998 26.6641C13.7998 27.2162 13.3519 27.6638 12.7998 27.6641C11.7311 27.6641 11.002 27.6384 10.4219 27.5488C9.7995 27.4527 9.36932 27.2871 8.89551 27.0586L8.86328 27.042L8.83105 27.0244C8.22494 26.6756 7.77262 26.1981 7.34668 25.6064C6.9336 25.0326 6.50405 24.2906 5.97852 23.3848L3.41406 18.9629C2.88643 18.0534 2.4531 17.3098 2.15918 16.6641C1.8561 15.9982 1.66602 15.3658 1.66602 14.6641Z" fill="#EB9091"/>
</svg>
