<svg width="16" height="16" viewBox="0 0 16 16" fill="none" xmlns="http://www.w3.org/2000/svg">
<path d="M2 8C5 8 8 5 8 2C8 5 11 8 14 8C11 8 8 11 8 14C8 11 5 8 2 8Z" fill="#FBF9F2"/>
<path d="M1.33325 13.0026C1.88881 13.0026 2.99992 11.8915 2.99992 11.3359C2.99992 11.8915 4.11103 13.0026 4.66658 13.0026C4.11103 13.0026 2.99992 14.1137 2.99992 14.6693C2.99992 14.1137 1.88881 13.0026 1.33325 13.0026Z" fill="#FBF9F2"/>
<path d="M10.6667 3.33594C11.3334 3.33594 12.6667 2.0026 12.6667 1.33594C12.6667 2.0026 14.0001 3.33594 14.6667 3.33594C14.0001 3.33594 12.6667 4.66927 12.6667 5.33594C12.6667 4.66927 11.3334 3.33594 10.6667 3.33594Z" fill="#FBF9F2"/>
</svg>
