<svg width="48" height="48" viewBox="0 0 48 48" fill="none" xmlns="http://www.w3.org/2000/svg">
<path d="M26.0028 4.00781C28.2106 4.00781 30.0006 5.87033 30.0006 8.16787C30.0006 10.0661 30.0724 11.7553 28.5384 13.1517C23.5174 17.7225 21.0068 20.0078 18.0005 20.0078C14.9943 20.0078 12.4837 17.7225 7.46265 13.1517C5.92851 11.7552 6.00053 10.0658 6.00053 8.16743C6.00053 5.87013 7.79019 4.00781 9.99785 4.00781" stroke="#3BF5FF" stroke-width="3" stroke-linecap="round" stroke-linejoin="round"/>
<path d="M18 28.0078V35.0074C18 39.9782 22.0298 44.008 27.0006 44.008C31.9716 44.008 36.0014 39.9782 36.0014 35.0074V32.0078" stroke="#3BF5FF" stroke-width="3" stroke-linecap="round" stroke-linejoin="round"/>
<path d="M28 14L25.3956 20.5112C24.7032 22.242 24.357 23.1074 23.7774 23.8184C23.1976 24.5296 22.4196 25.043 20.8638 26.0698L17.9392 28L15.0657 26.0646C13.5444 25.0402 12.7838 24.5278 12.2164 23.8252C11.649 23.1226 11.3085 22.2712 10.6273 20.5682L8 14" stroke="#3BF5FF" stroke-width="3" stroke-linecap="round" stroke-linejoin="round"/>
<path d="M42 26.0078C42 29.3216 39.3138 32.0078 36 32.0078C32.6862 32.0078 30 29.3216 30 26.0078C30 22.694 32.6862 20.0078 36 20.0078C39.3138 20.0078 42 22.694 42 26.0078Z" stroke="#3BF5FF" stroke-width="3"/>
<path d="M36.018 26H36" stroke="#3BF5FF" stroke-width="4" stroke-linecap="round" stroke-linejoin="round"/>
</svg>
