<svg width="96" height="96" viewBox="0 0 96 96" fill="none" xmlns="http://www.w3.org/2000/svg">
<path d="M80 72.0078V24.0078M24 80.0078H72M72 16.0078H24M16 24.0078V72.0078" stroke="#11C2CC" stroke-width="4.8" stroke-linecap="round" stroke-linejoin="round"/>
<path d="M32.0039 40C30.8283 33.7251 34.9439 32.2379 47.8334 32M47.8334 32C59.8214 32.2694 64.7626 33.2214 63.663 40M47.8334 32V64M41.8974 64H53.7698" stroke="#11C2CC" stroke-width="4.8" stroke-linecap="round" stroke-linejoin="round"/>
<path d="M84 8H76C73.7908 8 72 9.79088 72 12V20C72 22.2091 73.7908 24 76 24H84C86.2092 24 88 22.2091 88 20V12C88 9.79088 86.2092 8 84 8Z" stroke="#11C2CC" stroke-width="4.8"/>
<path d="M20 8H12C9.79088 8 8 9.79088 8 12V20C8 22.2091 9.79088 24 12 24H20C22.2091 24 24 22.2091 24 20V12C24 9.79088 22.2091 8 20 8Z" stroke="#11C2CC" stroke-width="4.8"/>
<path d="M84 72H76C73.7908 72 72 73.7908 72 76V84C72 86.2092 73.7908 88 76 88H84C86.2092 88 88 86.2092 88 84V76C88 73.7908 86.2092 72 84 72Z" stroke="#11C2CC" stroke-width="4.8"/>
<path d="M20 72H12C9.79088 72 8 73.7908 8 76V84C8 86.2092 9.79088 88 12 88H20C22.2091 88 24 86.2092 24 84V76C24 73.7908 22.2091 72 20 72Z" stroke="#11C2CC" stroke-width="4.8"/>
</svg>
