<svg xmlns="http://www.w3.org/2000/svg" width="48" height="48" fill="none" xmlns:v="https://vecta.io/nano"><g clip-path="url(#A)" fill="#3bf5ff"><path d="M7.858.04l-.721.108c-.295.036-.605.101-.685.137S6.1.4 5.84.465s-.476.144-.49.18c-.014.043-.079.072-.144.072-.151 0-1.023.425-1.023.505 0 .029-.079.072-.166.101-.533.13-2.205 1.759-2.674 2.602l-.332.577c-.115.195-.209.411-.209.468-.007.058-.065.223-.144.36-.072.144-.173.447-.231.685-.05.238-.115.447-.137.468-.252.195-.375 3.856-.18 5.564l.18 1.175c.029.036.108.382.18.757.065.375.144.713.18.757.029.036.094.288.144.555.05.274.115.49.144.49.036 0 .079.123.108.274.022.159.086.36.137.454a4.88 4.88 0 0 1 .223.663c.072.267.159.483.187.483.036 0 .065.058.065.123 0 .072.079.288.18.49.094.195.18.389.18.432 0 .036.086.231.18.432.101.195.18.411.18.476a.31.31 0 0 0 .094.202c.058.043.137.209.187.368.043.159.108.288.144.288.029 0 .101.13.151.288s.115.288.144.288c.022 0 .086.123.137.267a1.7 1.7 0 0 0 .187.382 2.73 2.73 0 0 1 .18.339c.05.13.115.238.151.238s.065.036.065.079c0 .101.8 1.528.901 1.593.05.043.043.072-.014.115a.61.61 0 0 0-.159.231c-.043.101-.18.339-.296.54l-.339.613c-.072.137-.151.267-.18.288s-.101.159-.159.303c-.065.144-.137.281-.173.303s-.101.166-.159.324c-.05.166-.123.296-.159.296-.029 0-.058.036-.058.072 0 .043-.159.411-.353.814l-.396.894c-.029.094-.079.166-.115.166s-.079.108-.108.231c-.029.13-.094.303-.144.389-.05.079-.137.288-.187.469-.05.173-.115.331-.137.353-.058.043-.288.778-.288.908 0 .058-.029.101-.065.101-.029 0-.101.195-.151.432s-.115.432-.144.432-.094.202-.144.454c-.043.245-.115.483-.144.519-.036.043-.115.411-.187.829-.065.418-.151.793-.18.836-.036.043-.115.605-.18 1.261-.18 1.845-.086 4.757.187 5.362.029.079.115.382.18.663.072.288.144.526.173.526.036 0 .094.13.144.288.195.649.966 1.809 1.672 2.515.519.519 1.305 1.131 1.528 1.204a.69.69 0 0 1 .195.094c.079.108.699.425.923.476.123.022.231.072.231.108 0 .029.238.115.526.18.281.072.533.151.555.18.195.252 3.913.375 5.636.18l1.139-.173c.022-.029.375-.115.793-.18.418-.072.793-.158.829-.187.043-.029.259-.094.49-.144.223-.05.411-.115.411-.144 0-.022.209-.087.469-.137s.468-.115.468-.144.151-.086.332-.137.476-.151.649-.231c.166-.079.346-.144.389-.144s.267-.087.49-.187l1.802-.778c.087-.029.159-.079.159-.108s.13-.101.288-.151.288-.115.288-.144.13-.094.296-.144c.159-.058.303-.115.317-.144.014-.022.281-.173.591-.331l.598-.324c.022-.022.267-.166.541-.317a4.08 4.08 0 0 0 .562-.353c.036-.058.065-.058.108 0 .029.036.281.202.555.353l.541.324c.022.022.144.087.274.137.122.058.231.123.231.151 0 .036.122.101.274.144.144.05.317.13.375.18s.231.13.382.187c.144.05.267.115.267.137 0 .029.13.094.288.144s.288.123.288.151.072.079.166.108c.151.043.62.245 1.24.526l1.117.476a4.86 4.86 0 0 1 .476.18 2.61 2.61 0 0 0 .555.18c.144.029.267.079.267.108s.195.094.432.144.432.115.432.137c0 .029.202.094.454.144.245.051.483.123.519.151.043.036.411.115.829.187.418.065.771.144.793.173.022.036.569.115 1.218.18 1.759.187 5.29.072 5.485-.18.022-.022.231-.087.468-.137s.497-.137.577-.18c.079-.05.274-.137.432-.187a2.31 2.31 0 0 0 .483-.223c.101-.079.223-.137.267-.137s.079-.029.079-.065.079-.086.18-.108c.094-.022.259-.122.368-.223s.223-.18.267-.18c.079 0 1.521-1.456 1.759-1.78.086-.123.202-.31.252-.425a.77.77 0 0 1 .18-.267c.043-.029.101-.151.13-.267.029-.123.072-.216.101-.216s.094-.137.144-.303.137-.367.187-.447c.058-.086.137-.317.18-.512.043-.202.101-.425.137-.505.281-.605.389-3.82.187-5.593l-.173-1.146c-.029-.022-.108-.375-.18-.793-.065-.411-.151-.771-.18-.793s-.101-.252-.151-.526c-.05-.267-.115-.483-.144-.483s-.094-.195-.144-.432-.115-.432-.137-.432c-.029 0-.087-.151-.137-.332a5.33 5.33 0 0 0-.231-.649c-.079-.166-.144-.353-.144-.404a.5.5 0 0 0-.101-.238c-.05-.079-.123-.223-.151-.324s-.13-.346-.216-.541l-.497-1.175c-.029-.086-.079-.159-.108-.159s-.101-.13-.151-.288-.115-.288-.144-.288-.094-.13-.144-.296c-.058-.159-.115-.303-.144-.317-.022-.014-.173-.281-.332-.591l-.324-.598c-.022-.022-.166-.267-.317-.541a4.08 4.08 0 0 0-.353-.562c-.058-.036-.058-.065 0-.108.036-.029.202-.281.353-.555l.317-.541c.022-.022.173-.288.324-.598l.332-.591c.029-.014.087-.159.144-.317.05-.166.115-.295.144-.295s.094-.13.144-.288.123-.288.151-.288.079-.072.108-.166c.05-.166.202-.533.497-1.168l.216-.54c.029-.101.101-.245.151-.324a.5.5 0 0 0 .101-.238c0-.05.065-.238.144-.404a5.33 5.33 0 0 0 .231-.649c.05-.18.108-.332.137-.332.022 0 .087-.195.137-.432s.115-.432.144-.432.094-.216.144-.49c.05-.267.122-.497.151-.519s.115-.382.18-.793c.072-.418.151-.771.18-.793.022-.022.101-.533.173-1.146.202-1.773.094-4.987-.187-5.593-.036-.079-.094-.31-.137-.505-.043-.202-.123-.425-.18-.512-.05-.079-.137-.281-.187-.447s-.115-.303-.144-.303-.072-.094-.101-.216c-.029-.115-.087-.238-.13-.267a.77.77 0 0 1-.18-.267c-.144-.332-.36-.584-1.175-1.405-.807-.807-1.211-1.139-1.485-1.204-.094-.029-.166-.072-.166-.101s-.108-.101-.231-.151c-.13-.05-.281-.137-.331-.187s-.151-.094-.216-.094c-.072 0-.238-.058-.375-.137a2.97 2.97 0 0 0-.649-.216L41.48.285c-.613-.274-3.669-.375-5.477-.18l-1.189.173c-.022.029-.296.101-.613.151s-.67.13-.793.18c-.115.043-.432.13-.699.18-.274.05-.49.115-.49.144 0 .036-.123.079-.274.108-.159.022-.36.086-.454.137s-.389.151-.656.223c-.274.079-.49.166-.49.195 0 .036-.058.058-.122.058s-.252.058-.411.137l-1.268.548c-.101.029-.245.094-.324.144-.079.043-.267.123-.411.173-.151.05-.274.115-.274.144s-.13.101-.288.151-.288.115-.288.144c0 .022-.123.086-.267.137-.151.058-.324.137-.382.187-.058.043-.216.123-.339.18-.13.05-.238.115-.238.151s-.036.065-.079.065c-.101 0-1.528.8-1.593.901-.043.05-.072.05-.108-.007-.036-.036-.281-.202-.562-.353-.274-.151-.512-.303-.526-.339-.015-.029-.065-.058-.115-.058s-.209-.079-.353-.173c-.137-.094-.331-.195-.418-.223-.094-.029-.224-.094-.281-.144s-.231-.13-.375-.187c-.151-.05-.274-.115-.274-.137 0-.029-.13-.094-.288-.144s-.288-.123-.288-.151-.072-.079-.159-.108c-.173-.05-.584-.223-1.175-.497a3.53 3.53 0 0 0-.562-.216c-.108-.029-.195-.079-.195-.108 0-.036-.108-.086-.231-.108-.13-.029-.375-.115-.533-.187a5.99 5.99 0 0 0-.634-.223c-.18-.05-.332-.108-.332-.137 0-.022-.195-.086-.432-.137s-.432-.115-.432-.144-.202-.094-.447-.144c-.252-.043-.49-.115-.526-.144-.043-.036-.382-.115-.757-.18-.375-.058-.75-.144-.829-.18-.317-.151-2.112-.288-3.64-.281L7.858.04zm3.366 1.694c.505.043.959.108.995.137.043.036.36.101.706.151s.627.115.627.151c0 .029.065.058.144.058.187 0 1.096.223 1.189.288.043.029.252.094.468.144s.432.115.468.144c.043.029.245.094.454.151.202.05.375.115.375.144s.209.108.468.173c.26.072.469.151.469.173 0 .029.144.094.324.144s.324.123.324.159.058.065.123.065c.072 0 .288.079.49.173l1.391.62c.05 0 .086.029.086.065s.101.101.216.144a1.89 1.89 0 0 1 .418.209c.108.079.274.166.375.195a.67.67 0 0 1 .216.101c.022.029.195.137.382.252l.346.202-.159.13c-.087.079-.216.159-.288.18-.079.029-.137.079-.137.115s-.058.086-.123.115c-.18.065-.843.519-1.11.757-.072.072-.159.13-.18.13-.029 0-.187.115-.36.252-.166.137-.324.252-.346.252s-.101.058-.173.123c-.079.072-.231.195-.339.274l-1.124.886-1.571 1.319c-.252.223-.425.231-.656.022-.123-.101-.872-.317-1.132-.317-.086 0-.18-.036-.202-.072-.022-.043-.238-.072-.476-.072s-.425.029-.425.072c0 .036-.123.072-.267.072-1.016.007-2.169.793-2.847 1.946-.101.18-.231.54-.274.793-.05.259-.115.526-.151.591-.079.159-.086.995-.007.995.029 0 .094.245.144.548.05.324.144.613.231.728.079.101.144.231.144.281 0 .058.108.209.245.346.13.144.259.303.288.367a.34.34 0 0 0 .159.159c.065.022.209.13.31.238.353.353 1.268.721 1.831.721.144 0 .332.043.411.087.115.072.173.072.288 0 .079-.043.252-.087.389-.087a3.19 3.19 0 0 0 1.766-.613c.281-.209 1.088-1.074 1.088-1.16 0-.022.065-.137.151-.252.18-.259.346-.908.353-1.377 0-.202.036-.346.094-.367.072-.022.072-.065 0-.187-.05-.079-.094-.26-.094-.396 0-.389-.144-.995-.303-1.247l-.137-.231.252-.259c.137-.137.281-.252.31-.252s.137-.087.238-.187c.094-.108.288-.274.432-.382.137-.101.296-.245.346-.31.05-.072.123-.13.166-.13.036 0 .13-.058.202-.13l.721-.577.367-.303c.029-.043.433-.332 1.103-.793.086-.058.187-.144.216-.195s.094-.094.144-.094c.05-.007.202-.101.339-.216.137-.123.288-.216.339-.216s.094-.036.094-.072c0-.043.079-.108.18-.144s.18-.101.18-.144c0-.036.036-.072.072-.072.072 0 .713-.411.93-.584.05-.05.115-.058.144-.022.022.036.238.195.476.353l.526.375c.05.05.123.094.159.094s.108.043.159.086c.144.137.778.562.829.562.022 0 .094.05.159.108.065.065.245.209.404.324l.454.346c.094.065.231.18.31.245.072.072.159.13.18.13.029 0 .166.101.31.223l.771.605.31.252.375.324.641.54.526.483c.086.094.18.166.216.166s.274.202.519.447l1.002.959 2.169 2.169.959 1.002c.245.245.447.483.447.519s.072.13.166.216a8.82 8.82 0 0 1 .483.526l.541.641.324.375.252.31.605.771c.123.144.224.281.224.31 0 .022.058.108.13.18l.245.31.346.454.324.404c.058.065.108.137.108.159 0 .05.425.685.562.829.043.05.087.122.087.159s.043.108.094.159c.043.05.216.288.375.526s.324.454.36.483c.05.036.05.072 0 .108-.036.036-.202.252-.36.49l-.375.526c-.05.05-.094.122-.094.159s-.043.108-.087.159c-.137.144-.562.778-.562.829 0 .022-.05.094-.108.159a4.49 4.49 0 0 0-.324.404l-.346.454c-.065.094-.18.231-.245.31-.072.072-.13.159-.13.18 0 .029-.087.151-.195.281l-.346.425-.541.685-.324.375-.541.641-.483.526c-.094.086-.166.18-.166.216s-.202.274-.454.519l-.951 1.002-2.169 2.169-1.002.951c-.245.252-.483.454-.519.454s-.13.072-.216.166c-.079.087-.317.303-.526.483l-.641.541-.375.324-.31.252-.771.605c-.144.123-.281.224-.31.224-.022 0-.108.058-.18.13l-.31.245-.454.346-.404.324c-.065.058-.137.108-.159.108-.05 0-.685.425-.829.562-.05.043-.122.087-.159.087s-.108.043-.159.094c-.05.043-.288.216-.526.375s-.454.317-.483.36c-.036.05-.072.05-.108 0-.036-.043-.252-.202-.49-.36l-.526-.375c-.05-.05-.123-.094-.159-.094s-.108-.043-.159-.087c-.144-.137-.778-.562-.829-.562-.022 0-.094-.05-.159-.108a4.49 4.49 0 0 0-.404-.324l-.454-.346c-.094-.065-.231-.18-.31-.245-.072-.072-.151-.13-.173-.13s-.252-.166-.512-.368c-.512-.396-.814-.49-1.247-.375-.137.036-.281.13-.324.202a.78.78 0 0 1-.137.187c-.115.087-.079.764.043.894.065.065.122.151.122.187s.036.065.079.065.187.086.31.202l.432.339.692.526.533.375a.53.53 0 0 1 .18.13c.166.144.223.187.67.497.18.13.36.238.389.238s.101.05.166.108a3.67 3.67 0 0 0 .353.288l.245.166-.353.202c-.187.108-.36.224-.382.252a.67.67 0 0 1-.216.101c-.101.029-.267.115-.375.195-.108.072-.295.173-.418.209-.115.043-.216.108-.216.144s-.036.065-.086.065c-.087 0-.159.036-1.218.533-.303.144-.605.26-.67.26s-.115.029-.115.065-.144.108-.324.158-.324.115-.324.144c0 .022-.209.101-.469.173-.259.065-.468.144-.468.173s-.173.094-.375.144c-.209.058-.411.123-.454.151-.036.029-.252.094-.468.144s-.425.115-.468.144c-.094.065-1.002.288-1.189.288-.079 0-.144.029-.144.058 0 .036-.281.101-.627.151s-.663.115-.706.151c-.101.079-1.744.216-2.631.216-.8 0-2.162-.13-2.27-.216-.036-.029-.267-.094-.505-.144s-.461-.108-.505-.137c-.036-.029-.231-.115-.432-.187-.195-.072-.375-.151-.396-.18-.022-.022-.151-.087-.288-.144l-.288-.137c-.022-.029-.166-.137-.332-.245-.159-.108-.382-.295-.497-.411-.115-.123-.252-.216-.303-.216s-.094-.036-.094-.079-.151-.245-.332-.447c-.187-.209-.36-.447-.396-.533-.036-.094-.086-.166-.123-.166s-.108-.13-.159-.288-.115-.288-.144-.288-.108-.187-.187-.418c-.072-.223-.159-.425-.18-.447s-.086-.245-.137-.505-.123-.483-.151-.505c-.072-.05-.209-1.499-.209-2.27 0-.814.144-2.58.209-2.631.029-.022.094-.332.144-.685l.151-.721c.029-.043.108-.353.18-.706.072-.346.151-.627.18-.627s.072-.137.101-.296c.029-.166.108-.44.187-.613.079-.166.144-.353.144-.404s.043-.18.101-.281c.05-.108.159-.367.223-.577.072-.216.151-.425.18-.461.029-.043.101-.209.151-.382.043-.166.115-.303.151-.303.029 0 .058-.043.058-.101 0-.05.072-.238.166-.411s.209-.454.267-.627c.05-.166.123-.303.151-.303s.094-.123.144-.274c.043-.144.108-.281.13-.303.029-.022.18-.296.332-.613l.375-.67c.05-.05.094-.137.094-.18.007-.05.079-.173.166-.281l.159-.195.18.267.216.303c.022.022.166.231.324.468l.555.764c.072.072.13.159.13.18 0 .029.115.187.252.36.137.166.252.324.252.346s.058.108.123.18l.202.238.951 1.211.267.324.541.641c.202.238.368.454.368.483 0 .101-.166.425-.216.425-.029 0-.094.137-.144.303-.058.173-.123.324-.151.346-.274.202-.267 2.883.007 3.099.022.022.086.173.144.346.05.166.115.303.151.303.029 0 .072.079.094.173.058.238 1.103 1.283 1.398 1.405.13.051.231.123.231.151s.137.094.31.144c.166.058.317.123.339.151.079.108.843.209 1.542.209.735 0 1.557-.115 1.557-.216 0-.029.094-.072.209-.094a.69.69 0 0 0 .31-.144c.051-.058.216-.159.36-.223.353-.166 1.182-1.009 1.333-1.355.065-.151.144-.274.166-.274.029 0 .094-.137.144-.31.058-.166.13-.324.166-.346s.101-.375.144-.778c.079-.742 0-1.924-.151-2.119-.029-.05-.101-.223-.159-.396-.05-.166-.122-.303-.151-.303s-.079-.072-.108-.159c-.13-.418-1.11-1.398-1.528-1.528-.087-.029-.159-.079-.159-.108s-.123-.094-.267-.144l-.505-.195c-.548-.245-2.422-.195-2.955.079-.108.058-.238.108-.281.108s-.166.065-.274.151c-.187.144-.332.137-.332-.029 0-.051-.058-.137-.122-.202-.072-.058-.224-.231-.346-.382l-.641-.764c-.151-.173-.836-1.067-1.319-1.73l-.562-.728c-.058-.065-.108-.137-.108-.159 0-.029-.144-.238-.324-.476-.18-.231-.324-.461-.324-.505 0-.05-.05-.101-.108-.122-.058-.029-.108-.072-.108-.108 0-.065-.418-.721-.584-.922-.05-.05-.058-.115-.022-.144.036-.022.195-.238.353-.476l.375-.526c.05-.05.094-.122.094-.159s.043-.108.094-.159c.13-.144.555-.778.555-.829 0-.022.05-.094.108-.159.065-.065.209-.245.324-.404l.346-.454a3.61 3.61 0 0 1 .252-.31c.065-.072.123-.159.123-.18 0-.029.086-.151.202-.281l.339-.432.252-.31c.18-.202.288-.512.288-.807 0-.324-.13-.649-.259-.649-.05 0-.101-.043-.115-.094-.022-.05-.173-.086-.425-.086-.332 0-.418.036-.613.216-.274.274-1.903 2.386-1.903 2.479 0 .036-.05.079-.108.108-.058.022-.108.086-.108.144a.22.22 0 0 1-.094.166c-.094.065-.49.634-.569.829-.029.072-.086.13-.13.13-.036 0-.072.043-.072.087 0 .05-.079.187-.18.31-.173.216-.18.216-.223.05-.022-.086-.072-.159-.101-.159s-.094-.101-.144-.216c-.05-.123-.115-.216-.144-.216s-.086-.123-.13-.281c-.05-.151-.137-.317-.195-.368-.05-.043-.137-.195-.18-.332s-.108-.245-.137-.245c-.036 0-.101-.144-.151-.324s-.123-.324-.151-.324c-.036 0-.065-.043-.065-.101 0-.05-.094-.288-.209-.519-.295-.584-.49-1.045-.548-1.276-.029-.108-.079-.195-.108-.195-.036 0-.086-.108-.108-.238-.029-.123-.115-.36-.187-.519a4.08 4.08 0 0 1-.209-.613c-.05-.18-.108-.36-.144-.396-.029-.043-.094-.245-.144-.454-.043-.202-.108-.375-.137-.375s-.115-.324-.187-.721-.159-.721-.187-.721-.086-.281-.137-.634c-.043-.346-.108-.699-.151-.793-.151-.367-.231-2.378-.144-3.575l.144-1.196c.029-.022.101-.252.151-.526.05-.267.115-.497.144-.519.036-.022.115-.216.18-.432.072-.216.151-.396.18-.396s.094-.13.144-.288.123-.288.159-.288.086-.072.123-.166c.036-.086.209-.324.396-.533.18-.202.332-.404.332-.447a.08.08 0 0 1 .079-.079c.043 0 .245-.151.447-.332.209-.187.447-.36.533-.396.094-.036.166-.086.166-.123s.13-.108.288-.159.288-.115.288-.144c0-.022.173-.101.382-.18l.447-.18c.043-.029.267-.094.497-.144.238-.05.483-.115.541-.151.324-.187 2.414-.252 3.877-.13zm28.389-.007c.505.043.959.101.995.137.043.029.288.101.548.151s.483.115.505.144.216.108.432.173c.216.072.411.151.432.18.022.022.151.101.288.173.339.173.526.281.649.389l.454.375c.187.159.468.447.627.634l.396.461c.058.065.108.151.108.202 0 .043.043.101.101.123.05.022.137.166.187.324.05.151.115.281.151.281.029 0 .108.195.18.432s.151.432.18.432.087.216.137.483c.05.274.115.505.144.526.079.05.216 1.492.216 2.285 0 .807-.137 2.479-.216 2.58-.029.036-.094.317-.137.613l-.151.685c-.036.079-.115.404-.18.721l-.18.649c-.029.036-.094.245-.144.461s-.137.476-.187.576c-.058.101-.101.231-.101.281s-.065.231-.137.404c-.079.166-.18.454-.231.642-.043.187-.101.339-.13.339s-.094.144-.144.324-.123.324-.151.324c-.036 0-.087.108-.108.231-.029.13-.115.353-.187.49l-.533 1.096-.468.886c-.036.022-.108.173-.151.324-.05.159-.108.288-.137.288s-.094.094-.144.216-.115.216-.144.216-.079.072-.101.159c-.043.166-.05.166-.223-.05-.101-.122-.18-.252-.18-.296 0-.05-.05-.101-.108-.13-.058-.022-.108-.079-.108-.13-.007-.05-.101-.209-.216-.346-.123-.137-.216-.288-.216-.339s-.036-.094-.072-.094c-.043 0-.108-.079-.144-.18s-.101-.18-.144-.18c-.036 0-.072-.036-.072-.079 0-.087-.778-1.096-.872-1.131-.036-.014-.065-.058-.065-.101 0-.058-.159-.274-.613-.829l-.216-.281-.793-.937-.461-.541-.382-.461-.728-.793-3.906-3.906-.793-.728-.461-.382-.54-.461-.937-.793-.281-.216-.829-.613c-.043 0-.087-.029-.101-.065-.036-.094-1.045-.872-1.131-.872-.043 0-.079-.036-.079-.072 0-.043-.079-.108-.18-.144s-.18-.101-.18-.144c0-.036-.036-.072-.079-.072s-.202-.094-.346-.202c-.144-.115-.317-.231-.382-.252-.072-.029-.13-.079-.13-.123 0-.036-.043-.072-.087-.072-.05 0-.187-.079-.31-.18-.216-.173-.216-.18-.05-.223.086-.022.159-.072.159-.101s.101-.094.216-.144c.123-.05.216-.115.216-.144s.123-.086.281-.13c.151-.05.317-.137.368-.195.043-.05.195-.137.331-.18s.245-.108.245-.137c0-.036.144-.101.324-.151s.324-.123.324-.151c0-.036.043-.065.094-.065s.317-.115.598-.252c.274-.137.555-.252.627-.252.065 0 .123-.029.123-.065 0-.029.144-.101.324-.151s.324-.115.324-.144.209-.108.469-.18c.259-.079.468-.159.468-.187s.122-.072.274-.101c.144-.029.368-.094.483-.144.122-.058.36-.137.541-.187s.339-.115.36-.137.346-.101.721-.18c.375-.072.699-.159.721-.187s.331-.094.685-.137c.36-.043.713-.115.8-.151.332-.166 2.364-.238 3.676-.137zM14.734 11.838c.072.065.166.123.216.123.151 0 .699.591.894.973.267.505.274 1.355.014 1.838-.216.411-.663.865-1.081 1.081-.461.252-1.405.252-1.852.007-.339-.18-.958-.757-.958-.886 0-.043-.058-.144-.123-.223-.18-.195-.187-1.557-.014-1.751.065-.079.144-.209.166-.288.065-.209.396-.54.656-.678.123-.058.267-.137.324-.187.173-.137.36-.166 1.016-.144.476.007.656.043.742.137zm27.575 14.076c0 .058.029.101.065.101s.101.094.151.216c.05.115.115.216.144.216s.087.13.137.288c.043.151.115.303.151.324s.245.425.468.887l.533 1.095a2.55 2.55 0 0 1 .187.483c.022.13.072.238.108.238.029 0 .101.144.151.324s.115.324.144.324c.022 0 .101.209.173.468.065.259.151.468.18.468.036 0 .079.123.108.274.022.159.087.36.137.461s.137.353.187.569.115.418.144.461c.029.036.108.332.18.649l.18.721c.036.079.101.389.151.685.043.295.108.569.137.613.079.101.216 1.773.216 2.58 0 .793-.137 2.234-.216 2.285-.029.022-.094.252-.144.519-.05.274-.108.49-.137.49s-.108.195-.18.432-.151.432-.18.432c-.036 0-.101.13-.151.288s-.123.288-.159.288-.094.079-.13.18-.101.18-.137.18-.087.058-.108.123c-.05.144-.533.663-.951 1.016l-.389.331a.79.79 0 0 1-.267.144c-.094.029-.166.079-.166.108 0 .036-.108.101-.231.158-.13.05-.252.115-.274.137-.022.029-.216.108-.432.18l-.468.18c-.036.036-.281.101-.541.151s-.483.123-.505.151-.519.094-1.096.137a13.18 13.18 0 0 1-2.263 0l-1.283-.144c-.043-.036-.396-.101-.778-.151-.389-.05-.706-.115-.706-.137 0-.029-.303-.108-.663-.18-.368-.072-.699-.159-.742-.187-.036-.029-.245-.094-.447-.151-.209-.05-.382-.115-.382-.144 0-.022-.195-.087-.432-.137s-.432-.115-.432-.144-.209-.115-.468-.187-.469-.158-.469-.187c0-.036-.05-.058-.108-.058s-.274-.079-.483-.173l-.541-.223c-.094-.022-.166-.072-.166-.101s-.122-.094-.281-.137c-.231-.072-1.218-.555-1.989-.973-.115-.065-.259-.123-.303-.123-.05 0-.094-.029-.094-.065s-.094-.101-.216-.151c-.115-.05-.216-.115-.216-.144s-.072-.079-.159-.101c-.166-.043-.166-.05.05-.223.123-.101.26-.18.31-.18.043 0 .087-.036.087-.072 0-.043.058-.094.13-.123.065-.022.238-.137.382-.252.144-.108.303-.202.346-.202s.079-.036.079-.072c0-.043.079-.108.18-.144s.18-.101.18-.144c0-.036.036-.072.079-.072.086 0 1.095-.778 1.131-.872.014-.036.058-.065.101-.065.058 0 .274-.159.829-.613a6.23 6.23 0 0 1 .281-.216l.937-.793c.122-.123.367-.324.54-.461l.461-.382.793-.728 3.906-3.906.728-.793.382-.461.461-.541.793-.937.216-.281.613-.829c0-.043.029-.087.065-.101.094-.036.872-1.045.872-1.131 0-.043.036-.079.072-.079.043 0 .108-.079.144-.18s.101-.18.144-.18c.036 0 .072-.043.072-.094s.094-.202.216-.339c.115-.137.209-.296.216-.346 0-.05.05-.108.108-.13.058-.029.108-.079.108-.115s.065-.166.151-.281c.144-.209.281-.223.281-.022zm-27.784 5.578a3.86 3.86 0 0 0 .418.144c.144.043.267.108.267.144s.065.079.137.108c.317.101.987.959 1.067 1.362.022.122.072.245.108.267.087.058.087 1.132 0 1.24-.036.05-.101.223-.151.389-.043.173-.115.31-.151.31-.043 0-.072.05-.072.101 0 .173-.706.814-1.067.98l-.512.238c-.094.05-.425.087-.728.087-.49 0-.62-.036-1.052-.252-.584-.288-1.276-.959-1.405-1.355-.043-.144-.123-.288-.159-.317-.101-.065-.108-1.283-.007-1.506.281-.627.454-.901.757-1.211.339-.346.858-.656 1.096-.656.065 0 .122-.029.122-.065 0-.137 1.031-.137 1.333-.007z"/><path d="M23.447 16.603c-.187.187-.31.483-.31.728 0 .187-.022.195-.613.288-.159.029-.317.072-.36.101-.036.029-.231.101-.432.151a2.72 2.72 0 0 0-.598.238c-.13.072-.245.13-.26.115a1.3 1.3 0 0 1-.101-.18c-.115-.216-.54-.324-.959-.238-.425.094-.576.259-.627.677-.029.274 0 .375.13.555l.159.216-.209.216c-.512.548-.649.728-.757.959-.043.101-.108.18-.137.18s-.087.108-.13.238c-.079.245-.087.245-.541.238-.36-.007-.49.022-.613.13-.187.166-.367.519-.367.706 0 .252.274.685.468.735.101.029.18.079.18.115 0 .043.043.072.094.072.065 0 .087.281.087 1.153s-.022 1.153-.087 1.153c-.05 0-.094.029-.094.072 0 .036-.079.087-.18.115-.209.05-.468.49-.468.771 0 .223.274.634.505.757.115.058.31.079.555.05l.368-.036.087.252c.043.137.108.252.137.252s.094.079.137.18c.108.231.245.411.764.958l.202.223-.151.195c-.245.31-.166.951.137 1.117.382.202.67.296.706.231.029-.036.137-.094.245-.115.202-.05.382-.202.432-.353.022-.058.101-.043.281.065a2.94 2.94 0 0 0 .605.238c.202.05.396.122.432.151.043.029.202.072.36.101.591.094.613.101.613.288 0 .785.865 1.204 1.42.685.166-.151.245-.303.274-.541.058-.346.072-.353.634-.432.187-.022.339-.065.339-.094s.187-.094.418-.151c.223-.05.519-.159.656-.245.18-.108.259-.123.281-.065.05.151.231.303.432.353.108.022.216.079.245.115.029.05.137.029.295-.043.137-.072.281-.122.317-.122.13 0 .324-.317.36-.584.029-.202 0-.346-.115-.533l-.151-.288c0-.014.137-.173.31-.353.454-.49.858-1.052.944-1.319.036-.122.108-.144.504-.137.555.007.771-.144.908-.634.072-.274.065-.339-.072-.598-.094-.187-.216-.31-.332-.339-.094-.029-.173-.079-.173-.115 0-.043-.043-.072-.087-.072-.072 0-.094-.281-.094-1.153s.022-1.153.094-1.153c.043 0 .087-.029.087-.072 0-.036.079-.086.18-.115.115-.029.231-.151.332-.36.151-.303.159-.317.036-.627-.187-.49-.339-.591-.879-.584-.396.007-.468-.014-.504-.137-.087-.267-.49-.829-.944-1.319l-.31-.353c0-.014.072-.144.151-.288.18-.303.159-.735-.058-.966-.324-.346-1.24-.324-1.405.036-.094.209-.108.209-.375.036-.115-.079-.396-.18-.627-.231-.238-.05-.425-.115-.425-.144s-.151-.079-.339-.101c-.562-.079-.577-.087-.634-.432-.072-.483-.389-.757-.865-.75-.267.007-.404.05-.519.166zm1.564 2.703c.022.029.159.079.31.108.158.029.468.144.699.267.223.115.432.209.461.209.122 0 1.629 1.506 1.629 1.629 0 .029.094.238.209.461.123.231.238.541.267.699.029.151.087.296.13.324.101.065.101 1.924 0 1.989-.043.029-.101.173-.13.324-.029.159-.144.469-.267.699-.115.223-.209.432-.209.461 0 .122-1.506 1.629-1.629 1.629-.029 0-.238.094-.461.209-.231.123-.541.238-.699.267-.151.029-.296.087-.324.13-.065.101-1.881.101-2.011 0-.058-.043-.259-.122-.461-.166-.195-.05-.411-.13-.468-.18s-.223-.137-.36-.187c-.137-.058-.281-.144-.31-.195s-.094-.094-.137-.094c-.094 0-1.139-1.045-1.139-1.139 0-.043-.043-.108-.094-.137s-.137-.173-.195-.31c-.05-.137-.137-.303-.187-.36s-.13-.274-.18-.468c-.043-.202-.122-.404-.166-.461-.108-.137-.108-1.896 0-2.032.043-.058.123-.267.166-.461.05-.202.13-.411.18-.468s.137-.223.187-.36c.058-.137.144-.281.195-.31s.094-.094.094-.137c0-.094 1.045-1.139 1.139-1.139.043 0 .108-.043.137-.094s.173-.137.31-.195c.137-.05.303-.137.36-.187s.252-.122.432-.166l.469-.151c.079-.036.259-.079.396-.101.368-.043 1.607.022 1.658.094z"/></g><defs><clipPath id="A"><path fill="#fff" transform="translate(.001)" d="M0 0h48v48H0z"/></clipPath></defs></svg>