<svg width="48" height="48" viewBox="0 0 48 48" fill="none" xmlns="http://www.w3.org/2000/svg">
<g clip-path="url(#clip0_3897_33238)">
<path d="M7.85826 0.0398483C7.75735 0.0542641 7.43303 0.104713 7.13753 0.147957C6.84204 0.183994 6.53213 0.248859 6.45285 0.284893C6.37357 0.32093 6.0997 0.400211 5.84024 0.465076C5.58078 0.529942 5.36456 0.609219 5.35015 0.645256C5.33573 0.688499 5.27087 0.717327 5.206 0.717327C5.05465 0.717327 4.18258 1.14255 4.18258 1.22183C4.18258 1.25066 4.1033 1.2939 4.01681 1.32273C3.48348 1.45246 1.81141 3.08129 1.34294 3.92453C1.27807 4.03985 1.12672 4.29931 1.01141 4.50111C0.896093 4.69571 0.802399 4.91192 0.802399 4.96958C0.795192 5.02724 0.737534 5.193 0.658255 5.32994C0.586183 5.47408 0.485282 5.77679 0.427624 6.01463C0.377174 6.25246 0.312309 6.46147 0.290687 6.48309C0.038435 6.67769 -0.0840875 10.3389 0.110507 12.0471C0.175372 12.6525 0.254651 13.1786 0.290687 13.2218C0.319516 13.2579 0.398795 13.6038 0.470867 13.9786C0.535732 14.3534 0.615012 14.6921 0.651048 14.7353C0.679876 14.7714 0.744741 15.0236 0.795192 15.2903C0.845642 15.5642 0.910507 15.7804 0.939336 15.7804C0.975372 15.7804 1.01862 15.9029 1.04744 16.0543C1.06907 16.2128 1.13393 16.4146 1.18438 16.5083C1.23483 16.6092 1.33573 16.9047 1.4078 17.1714C1.47988 17.438 1.56636 17.6543 1.59519 17.6543C1.63123 17.6543 1.66006 17.7119 1.66006 17.7768C1.66006 17.8489 1.73934 18.0651 1.84024 18.2669C1.93393 18.4615 2.02042 18.6561 2.02042 18.6993C2.02042 18.7353 2.1069 18.9299 2.2006 19.1317C2.3015 19.3263 2.38078 19.5426 2.38078 19.6074C2.38078 19.6723 2.42402 19.766 2.47447 19.8092C2.53213 19.8525 2.61141 20.0182 2.66186 20.1768C2.7051 20.3353 2.76997 20.4651 2.806 20.4651C2.83483 20.4651 2.9069 20.5948 2.95735 20.7534C3.0078 20.9119 3.07267 21.0417 3.1015 21.0417C3.12312 21.0417 3.18798 21.1642 3.23844 21.3083C3.29609 21.4597 3.37537 21.6326 3.42582 21.6903C3.46907 21.748 3.54835 21.9065 3.606 22.029C3.65645 22.1588 3.72132 22.2669 3.75735 22.2669C3.79339 22.2669 3.82222 22.3029 3.82222 22.3462C3.82222 22.4471 4.62222 23.8741 4.72312 23.9389C4.77357 23.9822 4.76636 24.011 4.7087 24.0543C4.66546 24.0831 4.58618 24.1912 4.55015 24.2849C4.5069 24.3858 4.36997 24.6236 4.25465 24.8254C4.13934 25.02 3.98078 25.3011 3.91591 25.438C3.84384 25.575 3.76456 25.7047 3.73573 25.7263C3.7069 25.748 3.63483 25.8849 3.57717 26.029C3.51231 26.1732 3.44024 26.3101 3.4042 26.3317C3.36816 26.3534 3.3033 26.4975 3.24564 26.6561C3.19519 26.8218 3.12312 26.9516 3.08708 26.9516C3.05825 26.9516 3.02943 26.9876 3.02943 27.0236C3.02943 27.0669 2.87087 27.4344 2.67627 27.838C2.48168 28.2416 2.3015 28.6453 2.27988 28.7317C2.25105 28.8254 2.2006 28.8975 2.16456 28.8975C2.12853 28.8975 2.08528 29.0056 2.05645 29.1281C2.02762 29.2579 1.96276 29.4308 1.91231 29.5173C1.86186 29.5966 1.77537 29.8056 1.72492 29.9858C1.67447 30.1588 1.60961 30.3173 1.58798 30.3389C1.53033 30.3822 1.2997 31.1173 1.2997 31.2471C1.2997 31.3047 1.27087 31.348 1.23483 31.348C1.206 31.348 1.13393 31.5426 1.08348 31.7804C1.03303 32.0182 0.968165 32.2128 0.939336 32.2128C0.910507 32.2128 0.845642 32.4146 0.795192 32.6669C0.751949 32.9119 0.679876 33.1498 0.651048 33.1858C0.615012 33.229 0.535732 33.5966 0.46366 34.0146C0.398795 34.4326 0.312309 34.8074 0.28348 34.8507C0.247444 34.8939 0.168165 35.4561 0.1033 36.1119C-0.0768803 37.957 0.0168134 40.8687 0.290687 41.4741C0.319516 41.5534 0.406003 41.8561 0.470867 42.1371C0.542939 42.4254 0.615012 42.6633 0.64384 42.6633C0.679876 42.6633 0.737534 42.793 0.787985 42.9516C0.982579 43.6002 1.75375 44.7606 2.46006 45.4669C2.97898 45.9858 3.76456 46.5984 3.98798 46.6705C4.07447 46.6993 4.16096 46.7426 4.18258 46.7642C4.26186 46.8723 4.88168 47.1894 5.1051 47.2398C5.22762 47.2615 5.33573 47.3119 5.33573 47.348C5.33573 47.3768 5.57357 47.4633 5.86186 47.5281C6.14294 47.6002 6.39519 47.6795 6.41681 47.7083C6.61141 47.9606 10.3303 48.0831 12.0528 47.8885C12.6583 47.8164 13.17 47.7371 13.1916 47.7155C13.2132 47.6867 13.5664 47.6002 13.9844 47.5353C14.4024 47.4633 14.7772 47.3768 14.8132 47.348C14.8565 47.3191 15.0727 47.2543 15.3033 47.2038C15.5267 47.1534 15.7141 47.0885 15.7141 47.0597C15.7141 47.038 15.9231 46.9732 16.1826 46.9227C16.442 46.8723 16.651 46.8074 16.651 46.7786C16.651 46.7498 16.8024 46.6921 16.9826 46.6417C17.1628 46.5912 17.4583 46.4903 17.6312 46.411C17.797 46.3317 17.9772 46.2669 18.0204 46.2669C18.0637 46.2669 18.2871 46.1804 18.5105 46.0795C19.5772 45.5894 20.1033 45.3588 20.3123 45.3011C20.3988 45.2723 20.4709 45.2218 20.4709 45.193C20.4709 45.1642 20.6006 45.0921 20.7592 45.0417C20.9177 44.9912 21.0474 44.9263 21.0474 44.8975C21.0474 44.8687 21.1772 44.8038 21.3429 44.7534C21.5015 44.6957 21.6456 44.638 21.6601 44.6092C21.6745 44.5876 21.9411 44.4362 22.251 44.2777C22.561 44.1263 22.8276 43.975 22.8492 43.9534C22.8709 43.9317 23.1159 43.7876 23.3898 43.6362C23.6709 43.4849 23.9159 43.3191 23.9519 43.2831C23.988 43.2254 24.0168 43.2254 24.0601 43.2831C24.0889 43.3191 24.3411 43.4849 24.615 43.6362C24.8961 43.7876 25.1339 43.9317 25.1556 43.9606C25.1772 43.9822 25.2997 44.0471 25.4294 44.0975C25.5519 44.1552 25.6601 44.22 25.6601 44.2489C25.6601 44.2849 25.7826 44.3498 25.9339 44.393C26.0781 44.4435 26.251 44.5227 26.3087 44.5732C26.3664 44.6236 26.5393 44.7029 26.6907 44.7606C26.8348 44.811 26.9574 44.8759 26.9574 44.8975C26.9574 44.9263 27.0871 44.9912 27.2456 45.0417C27.4042 45.0921 27.5339 45.1642 27.5339 45.193C27.5339 45.2218 27.606 45.2723 27.6997 45.3011C27.851 45.3444 28.3195 45.5462 28.9393 45.8272C29.6024 46.1371 29.8835 46.2525 30.0565 46.3029C30.1574 46.3317 30.3664 46.411 30.5321 46.4831C30.6907 46.5552 30.9429 46.6417 31.0871 46.6633C31.2312 46.6921 31.3538 46.7426 31.3538 46.7714C31.3538 46.8002 31.5483 46.8651 31.7862 46.9155C32.024 46.966 32.2186 47.0308 32.2186 47.0525C32.2186 47.0813 32.4204 47.1462 32.6727 47.1966C32.9177 47.2471 33.1556 47.3191 33.1916 47.348C33.2348 47.384 33.6024 47.4633 34.0204 47.5353C34.4384 47.6002 34.7916 47.6795 34.8132 47.7083C34.8348 47.7444 35.3826 47.8236 36.0312 47.8885C37.7898 48.0759 41.3213 47.9606 41.5159 47.7083C41.5375 47.6867 41.7465 47.6218 41.9844 47.5714C42.2222 47.5209 42.4817 47.4344 42.561 47.3912C42.6402 47.3408 42.8348 47.2543 42.9934 47.2038C43.1519 47.1534 43.3682 47.0525 43.4763 46.9804C43.5772 46.9011 43.6997 46.8435 43.7429 46.8435C43.7862 46.8435 43.8222 46.8146 43.8222 46.7786C43.8222 46.7426 43.9015 46.6921 44.0024 46.6705C44.0961 46.6489 44.2619 46.548 44.37 46.4471C44.4781 46.3462 44.5934 46.2669 44.6366 46.2669C44.7159 46.2669 46.1574 44.811 46.3952 44.4867C46.4817 44.3642 46.597 44.1768 46.6474 44.0615C46.6979 43.9462 46.7772 43.8308 46.8276 43.7948C46.8709 43.766 46.9285 43.6435 46.9574 43.5281C46.9862 43.4056 47.0294 43.3119 47.0583 43.3119C47.0871 43.3119 47.152 43.175 47.2024 43.0092C47.2528 42.8435 47.3393 42.6417 47.3898 42.5624C47.4474 42.4759 47.5267 42.2453 47.57 42.0507C47.6132 41.8489 47.6709 41.6254 47.7069 41.5462C47.988 40.9408 48.0961 37.7263 47.8943 35.9534C47.8222 35.3408 47.7429 34.829 47.7213 34.8074C47.6925 34.7858 47.6132 34.4326 47.5411 34.0146C47.4763 33.6038 47.3898 33.2435 47.361 33.2218C47.3321 33.2002 47.2601 32.9696 47.2096 32.6957C47.1592 32.429 47.0943 32.2128 47.0655 32.2128C47.0366 32.2128 46.9718 32.0182 46.9213 31.7804C46.8709 31.5426 46.806 31.348 46.7844 31.348C46.7556 31.348 46.6979 31.1966 46.6474 31.0164C46.597 30.8362 46.4961 30.5407 46.4168 30.3678C46.3375 30.202 46.2727 30.0146 46.2727 29.9642C46.2727 29.9065 46.2294 29.8056 46.1718 29.7263C46.1213 29.6471 46.0492 29.5029 46.0204 29.402C45.9916 29.3011 45.8907 29.0561 45.8042 28.8615C45.5087 28.2272 45.3574 27.8597 45.3069 27.6867C45.2781 27.6002 45.2276 27.5281 45.1988 27.5281C45.17 27.5281 45.0979 27.3984 45.0474 27.2398C44.997 27.0813 44.9321 26.9516 44.9033 26.9516C44.8745 26.9516 44.8096 26.8218 44.7592 26.6561C44.7015 26.4975 44.6438 26.3534 44.615 26.3389C44.5934 26.3245 44.442 26.0579 44.2835 25.748C44.1321 25.438 43.9808 25.1714 43.9592 25.1498C43.9375 25.1281 43.7934 24.8831 43.642 24.6092C43.4907 24.3281 43.3249 24.0831 43.2889 24.0471C43.2312 24.011 43.2312 23.9822 43.2889 23.9389C43.3249 23.9101 43.4907 23.6579 43.642 23.384C43.7934 23.1029 43.9375 22.8651 43.9592 22.8435C43.9808 22.8218 44.1321 22.5552 44.2835 22.2453C44.442 21.9353 44.5934 21.6687 44.615 21.6543C44.6438 21.6398 44.7015 21.4957 44.7592 21.3371C44.8096 21.1714 44.8745 21.0417 44.9033 21.0417C44.9321 21.0417 44.997 20.9119 45.0474 20.7534C45.0979 20.5948 45.17 20.4651 45.1988 20.4651C45.2276 20.4651 45.2781 20.393 45.3069 20.2993C45.3574 20.1335 45.5087 19.766 45.8042 19.1317C45.8907 18.9299 45.9916 18.6921 46.0204 18.5912C46.0492 18.4903 46.1213 18.3462 46.1718 18.2669C46.2294 18.1876 46.2727 18.0867 46.2727 18.029C46.2727 17.9786 46.3375 17.7912 46.4168 17.6254C46.4961 17.4525 46.597 17.157 46.6474 16.9768C46.6979 16.7966 46.7556 16.6453 46.7844 16.6453C46.806 16.6453 46.8709 16.4507 46.9213 16.2128C46.9718 15.975 47.0366 15.7804 47.0655 15.7804C47.0943 15.7804 47.1592 15.5642 47.2096 15.2903C47.2601 15.0236 47.3321 14.793 47.361 14.7714C47.3898 14.7498 47.4763 14.3894 47.5411 13.9786C47.6132 13.5606 47.6925 13.2074 47.7213 13.1858C47.7429 13.1642 47.8222 12.6525 47.8943 12.0398C48.0961 10.2669 47.988 7.05246 47.7069 6.44706C47.6709 6.36778 47.6132 6.13715 47.57 5.94255C47.5267 5.74075 47.4474 5.51733 47.3898 5.43084C47.3393 5.35156 47.2528 5.14976 47.2024 4.98399C47.152 4.81823 47.0871 4.68129 47.0583 4.68129C47.0294 4.68129 46.9862 4.5876 46.9574 4.46508C46.9285 4.34976 46.8709 4.22724 46.8276 4.19841C46.7772 4.16237 46.6979 4.04706 46.6474 3.93174C46.5033 3.60021 46.2871 3.34796 45.4727 2.52634C44.6655 1.71913 44.2619 1.3876 43.988 1.32273C43.8943 1.2939 43.8222 1.25066 43.8222 1.22183C43.8222 1.193 43.7141 1.12093 43.5916 1.07048C43.4619 1.02003 43.3105 0.933544 43.2601 0.883095C43.2096 0.832642 43.1087 0.789398 43.0438 0.789398C42.9718 0.789398 42.806 0.731743 42.6691 0.652462C42.5321 0.580391 42.2366 0.479488 42.0204 0.436245C41.8042 0.385796 41.5592 0.32093 41.4799 0.284893C40.8673 0.0110207 37.8114 -0.0898819 36.0024 0.104713C35.3682 0.169579 34.8348 0.248859 34.8132 0.277687C34.7916 0.306515 34.5177 0.37859 34.2006 0.429039C33.8835 0.479488 33.5303 0.558769 33.4078 0.609219C33.2925 0.652462 32.9754 0.738949 32.7087 0.789398C32.4348 0.839851 32.2186 0.904713 32.2186 0.933544C32.2186 0.969578 32.0961 1.01282 31.9447 1.04165C31.7862 1.06327 31.5844 1.12814 31.4907 1.17859C31.397 1.22904 31.1015 1.32994 30.8348 1.40201C30.561 1.48129 30.3447 1.56778 30.3447 1.59661C30.3447 1.63264 30.2871 1.65426 30.2222 1.65426C30.1574 1.65426 29.97 1.71192 29.8114 1.7912C29.0619 2.13715 28.7087 2.2885 28.5429 2.33895C28.442 2.36778 28.2979 2.43264 28.2186 2.48309C28.1393 2.52634 27.9519 2.60561 27.8078 2.65607C27.6565 2.70652 27.5339 2.77138 27.5339 2.80021C27.5339 2.82904 27.4042 2.90111 27.2456 2.95156C27.0871 3.00201 26.9574 3.06688 26.9574 3.09571C26.9574 3.11733 26.8348 3.18219 26.6907 3.23264C26.5393 3.2903 26.3664 3.36958 26.3087 3.42003C26.251 3.46327 26.0925 3.54255 25.97 3.60021C25.8402 3.65066 25.7321 3.71553 25.7321 3.75156C25.7321 3.7876 25.6961 3.81643 25.6528 3.81643C25.5519 3.81643 24.1249 4.61642 24.0601 4.71733C24.0168 4.76778 23.988 4.76778 23.9519 4.71012C23.9159 4.67408 23.6709 4.50832 23.3898 4.35697C23.1159 4.20562 22.8781 4.05426 22.8637 4.01823C22.8492 3.9894 22.7988 3.96057 22.7483 3.96057C22.6979 3.96057 22.5393 3.88129 22.3952 3.7876C22.2583 3.6939 22.0637 3.593 21.9772 3.56417C21.8835 3.53535 21.7537 3.47048 21.6961 3.42003C21.6384 3.36958 21.4655 3.2903 21.3213 3.23264C21.17 3.18219 21.0474 3.11733 21.0474 3.09571C21.0474 3.06688 20.9177 3.00201 20.7592 2.95156C20.6006 2.90111 20.4709 2.82904 20.4709 2.80021C20.4709 2.77138 20.3988 2.72093 20.3123 2.6921C20.1393 2.64165 19.7285 2.46868 19.1375 2.19481C18.9357 2.10111 18.6835 2.00021 18.5754 1.97859C18.4673 1.94976 18.3808 1.89931 18.3808 1.87048C18.3808 1.83445 18.2727 1.78399 18.1501 1.76237C18.0204 1.73354 17.7754 1.64706 17.6168 1.57499C17.451 1.50291 17.1628 1.40201 16.9826 1.35156C16.8024 1.30111 16.651 1.24345 16.651 1.21463C16.651 1.193 16.4565 1.12814 16.2186 1.07769C15.9808 1.02724 15.7862 0.962372 15.7862 0.933544C15.7862 0.904713 15.5844 0.839851 15.3393 0.789398C15.0871 0.746155 14.8492 0.674084 14.8132 0.645256C14.77 0.609219 14.4312 0.529942 14.0565 0.465076C13.6817 0.407417 13.3069 0.32093 13.2276 0.284893C12.9105 0.133545 11.1159 -0.00339508 9.58799 0.0038147C8.73753 0.0110207 7.95916 0.0254364 7.85826 0.0398483ZM11.224 1.73354C11.7285 1.77679 12.1826 1.84165 12.2186 1.87048C12.2619 1.90652 12.579 1.97138 12.9249 2.02183C13.2709 2.07228 13.5519 2.13715 13.5519 2.17318C13.5519 2.20201 13.6168 2.23084 13.6961 2.23084C13.8835 2.23084 14.7916 2.45427 14.8853 2.51913C14.9285 2.54796 15.1375 2.61282 15.3538 2.66327C15.57 2.71372 15.7862 2.77859 15.8222 2.80742C15.8655 2.83625 16.0673 2.90111 16.2763 2.95877C16.4781 3.00922 16.651 3.07409 16.651 3.10291C16.651 3.13174 16.8601 3.21102 17.1195 3.27589C17.379 3.34796 17.588 3.42724 17.588 3.44886C17.588 3.47769 17.7321 3.54255 17.9123 3.593C18.0925 3.64345 18.2366 3.71553 18.2366 3.75156C18.2366 3.7876 18.2943 3.81643 18.3592 3.81643C18.4312 3.81643 18.6474 3.89571 18.8492 3.9894C19.7646 4.42904 20.161 4.60922 20.2402 4.60922C20.2907 4.60922 20.3267 4.63805 20.3267 4.67408C20.3267 4.71012 20.4276 4.77499 20.5429 4.81823C20.6655 4.85426 20.8528 4.95517 20.961 5.02724C21.0691 5.10652 21.2348 5.193 21.3357 5.22183C21.4366 5.25066 21.5303 5.30111 21.5519 5.32273C21.5736 5.35156 21.7465 5.45967 21.9339 5.57499L22.2799 5.77679L22.1213 5.90652C22.0348 5.98579 21.9051 6.06507 21.833 6.0867C21.7537 6.11552 21.6961 6.16598 21.6961 6.20201C21.6961 6.23805 21.6384 6.2885 21.5736 6.31733C21.3934 6.38219 20.7303 6.83625 20.4637 7.07409C20.3916 7.14616 20.3051 7.20382 20.2835 7.20382C20.2547 7.20382 20.0961 7.31913 19.9231 7.45607C19.7574 7.593 19.5988 7.70832 19.5772 7.70832C19.5556 7.70832 19.4763 7.76598 19.4042 7.83084C19.3249 7.90291 19.1736 8.02544 19.0655 8.10471C18.8997 8.22724 18.561 8.4867 17.9411 8.9912C17.5736 9.2867 16.6655 10.0507 16.37 10.3101C16.1177 10.5335 15.9447 10.5408 15.7141 10.3317C15.5916 10.2308 14.842 10.0146 14.5826 10.0146C14.4961 10.0146 14.4024 9.97859 14.3808 9.94255C14.3592 9.89931 14.1429 9.87048 13.9051 9.87048C13.6673 9.87048 13.4799 9.89931 13.4799 9.94255C13.4799 9.97859 13.3574 10.0146 13.2132 10.0146C12.197 10.0218 11.0438 10.8074 10.3664 11.9606C10.2655 12.1408 10.1357 12.5011 10.0925 12.7534C10.042 13.0128 9.97717 13.2795 9.94114 13.3444C9.86186 13.5029 9.85465 14.3389 9.93393 14.3389C9.96276 14.3389 10.0276 14.584 10.0781 14.8867C10.1285 15.211 10.2222 15.4993 10.3087 15.6146C10.388 15.7155 10.4529 15.8453 10.4529 15.8957C10.4529 15.9534 10.561 16.1047 10.6979 16.2417C10.8276 16.3858 10.9574 16.5444 10.9862 16.6092C11.0078 16.6669 11.0799 16.7389 11.1447 16.7678C11.2096 16.7894 11.3538 16.8975 11.4547 17.0056C11.8078 17.3588 12.7231 17.7263 13.2853 17.7263C13.4294 17.7263 13.6168 17.7696 13.6961 17.8128C13.8114 17.8849 13.8691 17.8849 13.9844 17.8128C14.0637 17.7696 14.2366 17.7263 14.3736 17.7263C14.9429 17.7263 15.6492 17.4813 16.1393 17.1137C16.4204 16.9047 17.2276 16.0399 17.2276 15.9534C17.2276 15.9317 17.2925 15.8164 17.379 15.7011C17.5592 15.4417 17.7249 14.793 17.7321 14.3245C17.7321 14.1227 17.7682 13.9786 17.8258 13.957C17.8979 13.9353 17.8979 13.8921 17.8258 13.7696C17.7754 13.6903 17.7321 13.5101 17.7321 13.3732C17.7321 12.984 17.588 12.3786 17.4294 12.1263L17.2925 11.8957L17.5447 11.6362C17.6817 11.4993 17.8258 11.384 17.8547 11.384C17.8835 11.384 17.9916 11.2975 18.0925 11.1966C18.1862 11.0885 18.3808 10.9227 18.5249 10.8146C18.6619 10.7137 18.8204 10.5696 18.8709 10.5047C18.9213 10.4326 18.9934 10.375 19.0366 10.375C19.0727 10.375 19.1664 10.3173 19.2384 10.2453C19.4474 10.0651 19.5844 9.94976 19.9592 9.66868C20.1393 9.53174 20.3051 9.39481 20.3267 9.36597C20.3556 9.32273 20.7592 9.03444 21.4294 8.57318C21.5159 8.51553 21.6168 8.42904 21.6456 8.37859C21.6745 8.32814 21.7393 8.28489 21.7898 8.28489C21.8402 8.27769 21.9916 8.18399 22.1285 8.06868C22.2655 7.94616 22.4168 7.85246 22.4673 7.85246C22.5177 7.85246 22.561 7.81643 22.561 7.78039C22.561 7.73715 22.6402 7.67228 22.7411 7.63625C22.842 7.60021 22.9213 7.53535 22.9213 7.4921C22.9213 7.45607 22.9574 7.42003 22.9934 7.42003C23.0655 7.42003 23.7069 7.00922 23.9231 6.83625C23.9736 6.7858 24.0384 6.77859 24.0673 6.81462C24.0889 6.85066 24.3051 7.00922 24.5429 7.16778C24.7808 7.32634 25.0186 7.49931 25.0691 7.54255C25.1195 7.593 25.1916 7.63625 25.2276 7.63625C25.2637 7.63625 25.3357 7.67949 25.3862 7.72273C25.5303 7.85967 26.1646 8.28489 26.215 8.28489C26.2366 8.28489 26.3087 8.33535 26.3736 8.393C26.4384 8.45787 26.6186 8.60201 26.7772 8.71733C26.9357 8.83985 27.1375 8.9912 27.2312 9.06327C27.3249 9.12814 27.4619 9.24345 27.5411 9.30832C27.6132 9.38039 27.6997 9.43805 27.7213 9.43805C27.7501 9.43805 27.8871 9.53895 28.0312 9.66147C28.2763 9.87048 28.3556 9.92814 28.8024 10.2669C28.9033 10.3462 29.0474 10.4615 29.1123 10.5191C29.1772 10.5768 29.3501 10.7209 29.4871 10.8435C29.6312 10.9588 29.9195 11.2038 30.1285 11.384C30.3375 11.5642 30.5754 11.7804 30.6547 11.8669C30.7411 11.9606 30.8348 12.0326 30.8709 12.0326C30.9069 12.0326 31.1447 12.2344 31.3898 12.4795C31.6348 12.7317 32.0889 13.157 32.3916 13.438C33.0979 14.0795 33.9195 14.9011 34.561 15.6074C34.842 15.9101 35.2673 16.3642 35.5195 16.6092C35.7646 16.8543 35.9664 17.0921 35.9664 17.1281C35.9664 17.1642 36.0384 17.2579 36.1321 17.3444C36.2186 17.4236 36.4348 17.6615 36.615 17.8705C36.7952 18.0795 37.0402 18.3678 37.1556 18.5119C37.2781 18.6489 37.4222 18.8218 37.4799 18.8867C37.5375 18.9516 37.6529 19.0957 37.7321 19.1966C38.0709 19.6435 38.1285 19.7227 38.3375 19.9678C38.4601 20.1119 38.561 20.2489 38.561 20.2777C38.561 20.2993 38.6186 20.3858 38.6907 20.4579C38.7556 20.5371 38.8709 20.6741 38.9357 20.7678C39.0078 20.8615 39.1592 21.0633 39.2817 21.2218C39.397 21.3804 39.5411 21.5606 39.606 21.6254C39.6637 21.6903 39.7141 21.7624 39.7141 21.784C39.7141 21.8344 40.1393 22.4687 40.2763 22.6128C40.3195 22.6633 40.3628 22.7353 40.3628 22.7714C40.3628 22.8074 40.406 22.8795 40.4565 22.9299C40.4997 22.9804 40.6727 23.2182 40.8312 23.4561C40.9898 23.6939 41.1556 23.9101 41.1916 23.9389C41.242 23.975 41.242 24.011 41.1916 24.0471C41.1556 24.0831 40.9898 24.2993 40.8312 24.5371C40.6727 24.775 40.4997 25.0128 40.4565 25.0633C40.406 25.1137 40.3628 25.1858 40.3628 25.2218C40.3628 25.2579 40.3195 25.3299 40.2763 25.3804C40.1393 25.5245 39.7141 26.1588 39.7141 26.2092C39.7141 26.2308 39.6637 26.3029 39.606 26.3678C39.5411 26.4326 39.397 26.6128 39.2817 26.7714C39.1592 26.9299 39.0078 27.1317 38.9357 27.2254C38.8709 27.3191 38.7556 27.4561 38.6907 27.5353C38.6186 27.6074 38.561 27.6939 38.561 27.7155C38.561 27.7444 38.4745 27.8669 38.3664 27.9966C38.251 28.1263 38.0997 28.3209 38.0204 28.4218C37.7321 28.7966 37.588 28.984 37.4799 29.1065C37.4222 29.1714 37.2781 29.3444 37.1556 29.4813C37.0402 29.6254 36.7952 29.9137 36.615 30.1227C36.4348 30.3317 36.2186 30.5696 36.1321 30.6489C36.0384 30.7353 35.9664 30.829 35.9664 30.8651C35.9664 30.9011 35.7646 31.1389 35.5123 31.384C35.2673 31.629 34.842 32.0831 34.561 32.3858C33.9195 33.0921 33.0979 33.9137 32.3916 34.5552C32.0889 34.829 31.6348 35.2615 31.3898 35.5065C31.1447 35.7588 30.9069 35.9606 30.8709 35.9606C30.8348 35.9606 30.7411 36.0326 30.6547 36.1263C30.5754 36.2128 30.3375 36.429 30.1285 36.6092C29.9195 36.7894 29.6312 37.0272 29.4871 37.1498C29.3501 37.2651 29.1772 37.4164 29.1123 37.4741C29.0474 37.5317 28.9033 37.6471 28.8024 37.7263C28.3556 38.0651 28.2763 38.1227 28.0312 38.3317C27.8871 38.4543 27.7501 38.5552 27.7213 38.5552C27.6997 38.5552 27.6132 38.6128 27.5411 38.6849C27.4619 38.7498 27.3249 38.8651 27.2312 38.9299C27.1375 39.002 26.9357 39.1534 26.7772 39.2759C26.6186 39.3912 26.4384 39.5353 26.3736 39.6002C26.3087 39.6579 26.2366 39.7083 26.215 39.7083C26.1646 39.7083 25.5303 40.1335 25.3862 40.2705C25.3357 40.3137 25.2637 40.357 25.2276 40.357C25.1916 40.357 25.1195 40.4002 25.0691 40.4507C25.0186 40.4939 24.7808 40.6669 24.5429 40.8254C24.3051 40.984 24.0889 41.1426 24.0601 41.1858C24.024 41.2362 23.988 41.2362 23.9519 41.1858C23.9159 41.1426 23.6997 40.984 23.4619 40.8254C23.224 40.6669 22.9862 40.4939 22.9357 40.4507C22.8853 40.4002 22.8132 40.357 22.7772 40.357C22.7411 40.357 22.6691 40.3137 22.6186 40.2705C22.4745 40.1335 21.8402 39.7083 21.7898 39.7083C21.7682 39.7083 21.6961 39.6579 21.6312 39.6002C21.5664 39.5353 21.3862 39.3912 21.2276 39.2759C21.0691 39.1534 20.8673 39.002 20.7736 38.9299C20.6799 38.8651 20.5429 38.7498 20.4637 38.6849C20.3916 38.6128 20.3123 38.5552 20.2907 38.5552C20.2691 38.5552 20.0384 38.3894 19.779 38.1876C19.2673 37.7912 18.9646 37.6975 18.5321 37.8128C18.3952 37.8489 18.251 37.9426 18.2078 38.0146C18.1646 38.0939 18.0997 38.1804 18.0709 38.202C17.9556 38.2885 17.9916 38.966 18.1141 39.0957C18.179 39.1606 18.2366 39.2471 18.2366 39.2831C18.2366 39.3191 18.2727 39.348 18.3159 39.348C18.3592 39.348 18.5033 39.4344 18.6258 39.5498C18.7556 39.6579 18.9501 39.8092 19.0583 39.8885C19.1736 39.9678 19.4835 40.2056 19.7501 40.4146C20.024 40.6164 20.2619 40.7894 20.2835 40.7894C20.3051 40.7894 20.3916 40.8471 20.4637 40.9191C20.6294 41.0633 20.6871 41.1065 21.1339 41.4164C21.3141 41.5462 21.4943 41.6543 21.5231 41.6543C21.5519 41.6543 21.624 41.7047 21.6889 41.7624C21.7537 41.8272 21.9123 41.957 22.042 42.0507L22.2871 42.2164L21.9339 42.4182C21.7465 42.5263 21.5736 42.6417 21.5519 42.6705C21.5303 42.6921 21.4366 42.7426 21.3357 42.7714C21.2348 42.8002 21.0691 42.8867 20.961 42.966C20.8528 43.038 20.6655 43.1389 20.5429 43.175C20.4276 43.2182 20.3267 43.2831 20.3267 43.3191C20.3267 43.3552 20.2907 43.384 20.2402 43.384C20.1537 43.384 20.0817 43.42 19.0222 43.9173C18.7195 44.0615 18.4168 44.1768 18.3519 44.1768C18.2871 44.1768 18.2366 44.2056 18.2366 44.2417C18.2366 44.2777 18.0925 44.3498 17.9123 44.4002C17.7321 44.4507 17.588 44.5155 17.588 44.5444C17.588 44.566 17.379 44.6453 17.1195 44.7173C16.8601 44.7822 16.651 44.8615 16.651 44.8903C16.651 44.9191 16.4781 44.984 16.2763 45.0344C16.0673 45.0921 15.8655 45.157 15.8222 45.1858C15.7862 45.2146 15.57 45.2795 15.3538 45.3299C15.1375 45.3804 14.9285 45.4453 14.8853 45.4741C14.7916 45.5389 13.8835 45.7624 13.6961 45.7624C13.6168 45.7624 13.5519 45.7912 13.5519 45.82C13.5519 45.8561 13.2709 45.9209 12.9249 45.9714C12.579 46.0218 12.2619 46.0867 12.2186 46.1227C12.1177 46.202 10.4745 46.3389 9.58799 46.3389C8.78798 46.3389 7.42582 46.2092 7.31771 46.1227C7.28168 46.0939 7.05105 46.029 6.81321 45.9786C6.57537 45.9281 6.35195 45.8705 6.30871 45.8417C6.27267 45.8128 6.07807 45.7263 5.87627 45.6543C5.68168 45.5822 5.5015 45.5029 5.47988 45.4741C5.45825 45.4525 5.32853 45.3876 5.19159 45.3299C5.05465 45.2723 4.92492 45.2146 4.9033 45.193C4.88168 45.1642 4.73753 45.0561 4.57177 44.948C4.41321 44.8398 4.18979 44.6525 4.07447 44.5371C3.95916 44.4146 3.82222 44.3209 3.77177 44.3209C3.72132 44.3209 3.67807 44.2849 3.67807 44.2417C3.67807 44.1984 3.52672 43.9966 3.34654 43.7948C3.15916 43.5858 2.98618 43.348 2.95015 43.2615C2.91411 43.1678 2.86366 43.0957 2.82762 43.0957C2.79159 43.0957 2.71952 42.966 2.66907 42.8074C2.61862 42.6489 2.55375 42.5191 2.52492 42.5191C2.49609 42.5191 2.41681 42.3317 2.33753 42.1011C2.26546 41.8777 2.17898 41.6759 2.15735 41.6543C2.13573 41.6326 2.07087 41.4092 2.02042 41.1498C1.96997 40.8903 1.89789 40.6669 1.86907 40.6453C1.79699 40.5948 1.66006 39.1462 1.66006 38.375C1.66006 37.5606 1.8042 35.7948 1.86907 35.7444C1.89789 35.7227 1.96276 35.4128 2.01321 35.0597C2.07087 34.6993 2.13573 34.375 2.16456 34.3389C2.19339 34.2957 2.27267 33.9858 2.34474 33.6326C2.41681 33.2867 2.49609 33.0056 2.52492 33.0056C2.55375 33.0056 2.59699 32.8687 2.62582 32.7101C2.65465 32.5444 2.73393 32.2705 2.81321 32.0975C2.89249 31.9317 2.95735 31.7444 2.95735 31.6939C2.95735 31.6435 3.0006 31.5137 3.05825 31.4128C3.10871 31.3047 3.21681 31.0453 3.28168 30.8362C3.35375 30.62 3.43303 30.411 3.46186 30.375C3.49069 30.3317 3.56276 30.166 3.61321 29.993C3.65645 29.8272 3.72852 29.6903 3.76456 29.6903C3.79339 29.6903 3.82222 29.6471 3.82222 29.5894C3.82222 29.5389 3.89429 29.3516 3.98798 29.1786C4.08168 29.0056 4.19699 28.7245 4.25465 28.5516C4.3051 28.3858 4.37717 28.2489 4.406 28.2489C4.43483 28.2489 4.4997 28.1263 4.55015 27.975C4.59339 27.8308 4.65825 27.6939 4.67988 27.6723C4.7087 27.6507 4.86006 27.3768 5.01141 27.0597C5.16997 26.7426 5.34294 26.4398 5.38618 26.3894C5.43663 26.3389 5.47988 26.2525 5.47988 26.2092C5.48708 26.1588 5.55916 26.0362 5.64564 25.9281L5.8042 25.7335L5.98438 26.0002C6.08528 26.1444 6.17898 26.2813 6.2006 26.3029C6.22222 26.3245 6.36636 26.5335 6.52492 26.7714C6.85645 27.2687 6.91411 27.3407 7.07988 27.5353C7.15195 27.6074 7.20961 27.6939 7.20961 27.7155C7.20961 27.7444 7.32492 27.9029 7.46186 28.0759C7.5988 28.2416 7.71411 28.4002 7.71411 28.4218C7.71411 28.4435 7.77177 28.5299 7.83663 28.602C7.90871 28.6813 8.0024 28.7894 8.03843 28.8398C8.25465 29.1209 8.91051 29.957 8.98979 30.0507C9.04024 30.1083 9.15555 30.2525 9.25645 30.375C9.35735 30.4903 9.6024 30.7858 9.79699 31.0164C9.9988 31.2543 10.1646 31.4705 10.1646 31.4993C10.1646 31.6002 9.9988 31.9245 9.94835 31.9245C9.91952 31.9245 9.85465 32.0615 9.8042 32.2272C9.74654 32.4002 9.68168 32.5516 9.65285 32.5732C9.37898 32.775 9.38618 35.4561 9.66006 35.6723C9.68168 35.6939 9.74654 35.8453 9.8042 36.0182C9.85465 36.184 9.91952 36.3209 9.95555 36.3209C9.98438 36.3209 10.0276 36.4002 10.0492 36.4939C10.1069 36.7317 11.1519 37.7768 11.4474 37.8993C11.5772 37.9498 11.6781 38.0218 11.6781 38.0507C11.6781 38.0795 11.815 38.1444 11.988 38.1948C12.1538 38.2525 12.3051 38.3173 12.3267 38.3462C12.406 38.4543 13.17 38.5552 13.8691 38.5552C14.6042 38.5552 15.4258 38.4398 15.4258 38.3389C15.4258 38.3101 15.5195 38.2669 15.6348 38.2453C15.7501 38.2236 15.8871 38.1588 15.9447 38.1011C15.9952 38.0435 16.161 37.9426 16.3051 37.8777C16.6583 37.7119 17.4871 36.8687 17.6384 36.5227C17.7033 36.3714 17.7826 36.2489 17.8042 36.2489C17.833 36.2489 17.8979 36.1119 17.9483 35.9389C18.006 35.7732 18.0781 35.6146 18.1141 35.593C18.1501 35.5714 18.215 35.2182 18.2583 34.8146C18.3375 34.0723 18.2583 32.8903 18.1069 32.6957C18.0781 32.6453 18.006 32.4723 17.9483 32.2993C17.8979 32.1335 17.8258 31.9966 17.797 31.9966C17.7682 31.9966 17.7177 31.9245 17.6889 31.838C17.5592 31.42 16.579 30.4398 16.161 30.3101C16.0745 30.2813 16.0024 30.2308 16.0024 30.202C16.0024 30.1732 15.8799 30.1083 15.7357 30.0579C15.5844 30.0074 15.361 29.9209 15.2312 29.8633C14.6835 29.6182 12.8096 29.6687 12.2763 29.9426C12.1682 30.0002 12.0384 30.0507 11.9952 30.0507C11.9519 30.0507 11.8294 30.1155 11.7213 30.202C11.5339 30.3462 11.3898 30.3389 11.3898 30.1732C11.3898 30.1227 11.3321 30.0362 11.2673 29.9714C11.1952 29.9137 11.0438 29.7407 10.9213 29.5894C10.7195 29.3371 10.5321 29.1065 10.2799 28.8254C10.1285 28.6525 9.44384 27.7588 8.96096 27.0957C8.70871 26.757 8.46366 26.4326 8.3988 26.3678C8.34114 26.3029 8.29069 26.2308 8.29069 26.2092C8.29069 26.1804 8.14654 25.9714 7.96636 25.7335C7.78618 25.5029 7.64204 25.2723 7.64204 25.229C7.64204 25.1786 7.59159 25.1281 7.53393 25.1065C7.47627 25.0777 7.42582 25.0344 7.42582 24.9984C7.42582 24.9335 7.0078 24.2777 6.84204 24.0759C6.79159 24.0254 6.78438 23.9606 6.82042 23.9317C6.85645 23.9101 7.01501 23.6939 7.17357 23.4561C7.33213 23.2182 7.5051 22.9804 7.54835 22.9299C7.5988 22.8795 7.64204 22.8074 7.64204 22.7714C7.64204 22.7353 7.68528 22.6633 7.73573 22.6128C7.86546 22.4687 8.29069 21.8344 8.29069 21.784C8.29069 21.7624 8.34114 21.6903 8.3988 21.6254C8.46366 21.5606 8.60781 21.3804 8.72312 21.2218C8.84564 21.0633 8.99699 20.8615 9.06907 20.7678C9.13393 20.6741 9.24925 20.5371 9.32132 20.4579C9.38618 20.3858 9.44384 20.2993 9.44384 20.2777C9.44384 20.2489 9.53033 20.1263 9.64564 19.9966C9.75375 19.8669 9.9051 19.6723 9.98438 19.5642C10.0637 19.4633 10.179 19.3191 10.2366 19.2543C10.4168 19.0525 10.5249 18.7426 10.5249 18.4471C10.5249 18.1227 10.3952 17.7984 10.2655 17.7984C10.215 17.7984 10.1646 17.7552 10.1501 17.7047C10.1285 17.6543 9.97717 17.6182 9.72492 17.6182C9.39339 17.6182 9.3069 17.6543 9.11231 17.8344C8.83844 18.1083 7.20961 20.22 7.20961 20.3137C7.20961 20.3498 7.15916 20.393 7.1015 20.4218C7.04384 20.4435 6.99339 20.5083 6.99339 20.566C6.99339 20.6236 6.95015 20.7029 6.8997 20.7317C6.806 20.7966 6.40961 21.366 6.33033 21.5606C6.3015 21.6326 6.24384 21.6903 6.2006 21.6903C6.16456 21.6903 6.12852 21.7335 6.12852 21.7768C6.12852 21.8272 6.04925 21.9642 5.94834 22.0867C5.77537 22.3029 5.76816 22.3029 5.72492 22.1371C5.7033 22.0507 5.65285 21.9786 5.62402 21.9786C5.59519 21.9786 5.53033 21.8777 5.47988 21.7624C5.42943 21.6398 5.36456 21.5462 5.33573 21.5462C5.3069 21.5462 5.24925 21.4236 5.206 21.2651C5.15555 21.1137 5.06907 20.948 5.01141 20.8975C4.96096 20.8543 4.87447 20.7029 4.83123 20.566C4.78798 20.429 4.72312 20.3209 4.69429 20.3209C4.65825 20.3209 4.59339 20.1768 4.54294 19.9966C4.49249 19.8164 4.42042 19.6723 4.39159 19.6723C4.35555 19.6723 4.32672 19.629 4.32672 19.5714C4.32672 19.5209 4.23303 19.2831 4.11771 19.0525C3.82222 18.4687 3.62762 18.0074 3.56997 17.7768C3.54114 17.6687 3.49069 17.5822 3.46186 17.5822C3.42582 17.5822 3.37537 17.4741 3.35375 17.3444C3.32492 17.2218 3.23844 16.984 3.16636 16.8254C3.09429 16.6669 3.0006 16.393 2.95735 16.2128C2.9069 16.0326 2.84925 15.8525 2.81321 15.8164C2.78438 15.7732 2.71952 15.5714 2.66907 15.3624C2.62582 15.1606 2.56096 14.9876 2.53213 14.9876C2.5033 14.9876 2.41681 14.6633 2.34474 14.2669C2.27267 13.8705 2.18618 13.5462 2.15735 13.5462C2.12853 13.5462 2.07087 13.2651 2.02042 12.9119C1.97717 12.566 1.91231 12.2128 1.86907 12.1191C1.71771 11.7516 1.63844 9.74075 1.72492 8.54435C1.77537 7.91012 1.83303 7.36958 1.86907 7.34796C1.89789 7.32634 1.96997 7.09571 2.02042 6.82183C2.07087 6.55516 2.13573 6.32454 2.16456 6.30291C2.2006 6.28129 2.27988 6.0867 2.34474 5.87048C2.41681 5.65426 2.49609 5.47408 2.52492 5.47408C2.55375 5.47408 2.61862 5.34435 2.66907 5.18579C2.71952 5.02724 2.79159 4.89751 2.82762 4.89751C2.86366 4.89751 2.91411 4.82544 2.95015 4.73174C2.98618 4.64526 3.15916 4.40742 3.34654 4.19841C3.52672 3.9966 3.67807 3.7948 3.67807 3.75156C3.67807 3.70832 3.71411 3.67228 3.75735 3.67228C3.8006 3.67228 4.0024 3.52093 4.2042 3.34075C4.41321 3.15336 4.65105 2.98039 4.73753 2.94436C4.83123 2.90832 4.9033 2.85787 4.9033 2.82183C4.9033 2.7858 5.03303 2.71372 5.19159 2.66327C5.35015 2.61282 5.47988 2.54796 5.47988 2.51913C5.47988 2.49751 5.65285 2.41823 5.86186 2.33895C6.06366 2.26688 6.27267 2.1876 6.30871 2.15877C6.35195 2.12994 6.57537 2.06507 6.806 2.01463C7.04384 1.96417 7.28889 1.89931 7.34654 1.86327C7.67087 1.67588 9.76096 1.61102 11.224 1.73354ZM39.6132 1.72634C40.1177 1.76958 40.5718 1.82724 40.6078 1.86327C40.651 1.8921 40.8961 1.96417 41.1556 2.01463C41.415 2.06507 41.6384 2.12994 41.6601 2.15877C41.6817 2.1876 41.8763 2.26688 42.0925 2.33174C42.3087 2.40381 42.5033 2.48309 42.5249 2.51192C42.5465 2.53354 42.6763 2.61282 42.8132 2.68489C43.1519 2.85787 43.3393 2.96598 43.4619 3.07409C43.5195 3.12453 43.7285 3.29751 43.9159 3.44886C44.1033 3.60742 44.3844 3.89571 44.5429 4.08309C44.7015 4.27048 44.8817 4.47949 44.9393 4.54435C44.997 4.60922 45.0474 4.69571 45.0474 4.74615C45.0474 4.7894 45.0907 4.84706 45.1483 4.86868C45.1988 4.8903 45.2853 5.03444 45.3357 5.193C45.3862 5.34435 45.451 5.47408 45.4871 5.47408C45.5159 5.47408 45.5952 5.66868 45.6673 5.90652C45.7393 6.14436 45.8186 6.33895 45.8474 6.33895C45.8763 6.33895 45.9339 6.55516 45.9844 6.82183C46.0348 7.09571 46.0997 7.32634 46.1285 7.34796C46.2078 7.39841 46.3447 8.83985 46.3447 9.63264C46.3447 10.4398 46.2078 12.1119 46.1285 12.2128C46.0997 12.2489 46.0348 12.5299 45.9916 12.8254C45.9411 13.1209 45.8763 13.4308 45.8402 13.5101C45.8042 13.5894 45.7249 13.9137 45.6601 14.2308C45.588 14.548 45.5087 14.8362 45.4799 14.8795C45.451 14.9155 45.3862 15.1245 45.3357 15.3408C45.2853 15.557 45.1988 15.8164 45.1483 15.9173C45.0907 16.0182 45.0474 16.148 45.0474 16.1984C45.0474 16.2489 44.9826 16.429 44.9105 16.602C44.8312 16.7678 44.7303 17.0561 44.6799 17.2435C44.6366 17.4308 44.579 17.5822 44.5501 17.5822C44.5213 17.5822 44.4565 17.7263 44.406 17.9065C44.3556 18.0867 44.2835 18.2308 44.2547 18.2308C44.2186 18.2308 44.1682 18.3389 44.1465 18.4615C44.1177 18.5912 44.0312 18.8146 43.9592 18.9516C43.8871 19.0885 43.642 19.5858 43.4258 20.0471C43.2024 20.5083 42.9934 20.9119 42.9574 20.9335C42.9213 20.9552 42.8492 21.1065 42.806 21.2579C42.7556 21.4164 42.6979 21.5462 42.6691 21.5462C42.6402 21.5462 42.5754 21.6398 42.5249 21.7624C42.4745 21.8849 42.4096 21.9786 42.3808 21.9786C42.3519 21.9786 42.3015 22.0507 42.2799 22.1371C42.2366 22.3029 42.2294 22.3029 42.0565 22.0867C41.9556 21.9642 41.8763 21.8344 41.8763 21.7912C41.8763 21.7407 41.8258 21.6903 41.7682 21.6615C41.7105 21.6398 41.6601 21.5822 41.6601 21.5317C41.6529 21.4813 41.5592 21.3227 41.4438 21.1858C41.3213 21.0489 41.2276 20.8975 41.2276 20.8471C41.2276 20.7966 41.1916 20.7534 41.1556 20.7534C41.1123 20.7534 41.0474 20.6741 41.0114 20.5732C40.9754 20.4723 40.9105 20.393 40.8673 20.393C40.8312 20.393 40.7952 20.357 40.7952 20.3137C40.7952 20.2272 40.0168 19.2182 39.9231 19.1822C39.8871 19.1678 39.8583 19.1245 39.8583 19.0813C39.8583 19.0236 39.6997 18.8074 39.2456 18.2525C39.2096 18.202 39.1087 18.0795 39.0294 17.9714C38.8132 17.6903 38.4817 17.3011 38.2366 17.0344C38.1213 16.9119 37.9123 16.6669 37.7754 16.4939C37.6384 16.3209 37.4655 16.1119 37.3934 16.0326C37.3141 15.9534 36.9898 15.6002 36.6655 15.2398C35.9015 14.4038 33.5952 12.0975 32.7592 11.3335C32.3988 11.0092 32.0456 10.6849 31.9664 10.6056C31.8871 10.5335 31.6781 10.3606 31.5051 10.2236C31.3321 10.0867 31.0871 9.87769 30.9646 9.76237C30.6979 9.51733 30.3087 9.18579 30.0276 8.96958C29.9195 8.8903 29.797 8.7894 29.7465 8.75336C29.1916 8.29931 28.9754 8.14075 28.9177 8.14075C28.8745 8.14075 28.8312 8.11192 28.8168 8.07589C28.7808 7.98219 27.7718 7.20382 27.6853 7.20382C27.642 7.20382 27.606 7.16778 27.606 7.13174C27.606 7.0885 27.5267 7.02363 27.4258 6.9876C27.3249 6.95156 27.2456 6.8867 27.2456 6.84345C27.2456 6.80742 27.2096 6.77138 27.1664 6.77138C27.1231 6.77138 26.9646 6.67769 26.8204 6.56958C26.6763 6.45427 26.5033 6.33895 26.4384 6.31733C26.3664 6.2885 26.3087 6.23805 26.3087 6.19481C26.3087 6.15877 26.2655 6.12273 26.2222 6.12273C26.1718 6.12273 26.0348 6.04345 25.9123 5.94255C25.6961 5.76958 25.6961 5.76237 25.8619 5.71913C25.9483 5.69751 26.0204 5.64706 26.0204 5.61823C26.0204 5.5894 26.1213 5.52454 26.2366 5.47408C26.3592 5.42363 26.4528 5.35877 26.4528 5.32994C26.4528 5.30111 26.5754 5.24345 26.7339 5.20021C26.8853 5.14976 27.051 5.06327 27.1015 5.00562C27.1447 4.95517 27.2961 4.86868 27.433 4.82544C27.57 4.78219 27.6781 4.71733 27.6781 4.6885C27.6781 4.65246 27.8222 4.5876 28.0024 4.53715C28.1826 4.4867 28.3267 4.41462 28.3267 4.3858C28.3267 4.34976 28.37 4.32093 28.4204 4.32093C28.4709 4.32093 28.7375 4.20562 29.0186 4.06868C29.2925 3.93174 29.5736 3.81643 29.6456 3.81643C29.7105 3.81643 29.7682 3.7876 29.7682 3.75156C29.7682 3.72273 29.9123 3.65066 30.0925 3.60021C30.2727 3.54976 30.4168 3.48489 30.4168 3.45607C30.4168 3.42724 30.6258 3.34796 30.8853 3.27589C31.1447 3.19661 31.3538 3.11733 31.3538 3.0885C31.3538 3.05967 31.4763 3.01643 31.6276 2.9876C31.7718 2.95877 31.9952 2.89391 32.1105 2.84345C32.233 2.7858 32.4709 2.70652 32.651 2.65607C32.8312 2.60561 32.9898 2.54075 33.0114 2.51913C33.033 2.49751 33.3574 2.41823 33.7321 2.33895C34.1069 2.26688 34.4312 2.18039 34.4529 2.15156C34.4745 2.12273 34.7844 2.05787 35.1375 2.01463C35.4979 1.97138 35.851 1.89931 35.9375 1.86327C36.2691 1.69751 38.3015 1.62543 39.6132 1.72634ZM14.7339 11.838C14.806 11.9029 14.8997 11.9606 14.9501 11.9606C15.1015 11.9606 15.6492 12.5516 15.8438 12.9335C16.1105 13.438 16.1177 14.2885 15.8583 14.7714C15.642 15.1822 15.1952 15.6362 14.7772 15.8525C14.3159 16.1047 13.3718 16.1047 12.9249 15.8597C12.5862 15.6795 11.9664 15.1029 11.9664 14.9732C11.9664 14.9299 11.9087 14.829 11.8438 14.7498C11.6637 14.5552 11.6565 13.193 11.8294 12.9984C11.8943 12.9191 11.9736 12.7894 11.9952 12.7101C12.0601 12.5011 12.3916 12.1696 12.651 12.0326C12.7736 11.975 12.9177 11.8957 12.9754 11.8453C13.1483 11.7083 13.3357 11.6795 13.9916 11.7011C14.4673 11.7083 14.6474 11.7444 14.7339 11.838ZM42.3087 25.9137C42.3087 25.9714 42.3375 26.0146 42.3736 26.0146C42.4096 26.0146 42.4745 26.1083 42.5249 26.2308C42.5754 26.3462 42.6402 26.4471 42.6691 26.4471C42.6979 26.4471 42.7556 26.5768 42.806 26.7353C42.8492 26.8867 42.9213 27.038 42.9574 27.0597C42.9934 27.0813 43.2024 27.4849 43.4258 27.9462C43.642 28.4074 43.8871 28.9047 43.9592 29.0417C44.0312 29.1786 44.1177 29.402 44.1465 29.5245C44.1682 29.6543 44.2186 29.7624 44.2547 29.7624C44.2835 29.7624 44.3556 29.9065 44.406 30.0867C44.4565 30.2669 44.5213 30.411 44.5501 30.411C44.5718 30.411 44.651 30.62 44.7231 30.8795C44.788 31.1389 44.8745 31.348 44.9033 31.348C44.9393 31.348 44.9826 31.4705 45.0114 31.6218C45.033 31.7804 45.0979 31.9822 45.1483 32.0831C45.1988 32.184 45.2853 32.4362 45.3357 32.6525C45.3862 32.8687 45.451 33.0705 45.4799 33.1137C45.5087 33.1498 45.588 33.4453 45.6601 33.7624C45.7249 34.0795 45.8042 34.4038 45.8402 34.4831C45.8763 34.5624 45.9411 34.8723 45.9916 35.1678C46.0348 35.4633 46.0997 35.7371 46.1285 35.7804C46.2078 35.8813 46.3447 37.5534 46.3447 38.3606C46.3447 39.1534 46.2078 40.5948 46.1285 40.6453C46.0997 40.6669 46.0348 40.8975 45.9844 41.1642C45.9339 41.438 45.8763 41.6543 45.8474 41.6543C45.8186 41.6543 45.7393 41.8489 45.6673 42.0867C45.5952 42.3245 45.5159 42.5191 45.4871 42.5191C45.451 42.5191 45.3862 42.6489 45.3357 42.8074C45.2853 42.966 45.2132 43.0957 45.1772 43.0957C45.1411 43.0957 45.0835 43.175 45.0474 43.2759C45.0114 43.3768 44.9465 43.4561 44.9105 43.4561C44.8745 43.4561 44.824 43.5137 44.8024 43.5786C44.7519 43.7227 44.2691 44.2417 43.851 44.5948C43.6997 44.7245 43.5195 44.8759 43.4619 44.9263C43.4042 44.9768 43.2817 45.0489 43.1952 45.0705C43.1015 45.0993 43.0294 45.1498 43.0294 45.1786C43.0294 45.2146 42.9213 45.2795 42.7988 45.3371C42.6691 45.3876 42.5465 45.4525 42.5249 45.4741C42.5033 45.5029 42.3087 45.5822 42.0925 45.6543C41.8763 45.7263 41.6673 45.8056 41.624 45.8344C41.588 45.8705 41.3429 45.9353 41.0835 45.9858C40.824 46.0362 40.6006 46.1083 40.579 46.1371C40.5574 46.166 40.0601 46.2308 39.4835 46.2741C38.6763 46.3389 38.1357 46.3389 37.2204 46.2741C36.5574 46.2308 35.9808 46.166 35.9375 46.1299C35.8943 46.0939 35.5411 46.029 35.1592 45.9786C34.77 45.9281 34.4529 45.8633 34.4529 45.8417C34.4529 45.8128 34.1501 45.7335 33.7898 45.6615C33.4222 45.5894 33.0907 45.5029 33.0474 45.4741C33.0114 45.4453 32.8024 45.3804 32.6006 45.3227C32.3916 45.2723 32.2186 45.2074 32.2186 45.1786C32.2186 45.157 32.024 45.0921 31.7862 45.0417C31.5483 44.9912 31.3538 44.9263 31.3538 44.8975C31.3538 44.8687 31.1447 44.7822 30.8853 44.7101C30.6258 44.638 30.4168 44.5516 30.4168 44.5227C30.4168 44.4867 30.3664 44.4651 30.3087 44.4651C30.251 44.4651 30.0348 44.3858 29.8258 44.2921C29.6168 44.1984 29.3718 44.0975 29.2853 44.0687C29.1916 44.0471 29.1195 43.9966 29.1195 43.9678C29.1195 43.9389 28.997 43.8741 28.8384 43.8308C28.6078 43.7588 27.6204 43.2759 26.8492 42.8579C26.7339 42.793 26.5898 42.7353 26.5465 42.7353C26.4961 42.7353 26.4528 42.7065 26.4528 42.6705C26.4528 42.6344 26.3592 42.5696 26.2366 42.5191C26.1213 42.4687 26.0204 42.4038 26.0204 42.375C26.0204 42.3462 25.9483 42.2957 25.8619 42.2741C25.6961 42.2308 25.6961 42.2236 25.9123 42.0507C26.0348 41.9498 26.1718 41.8705 26.2222 41.8705C26.2655 41.8705 26.3087 41.8344 26.3087 41.7984C26.3087 41.7552 26.3664 41.7047 26.4384 41.6759C26.5033 41.6543 26.6763 41.5389 26.8204 41.4236C26.9646 41.3155 27.1231 41.2218 27.1664 41.2218C27.2096 41.2218 27.2456 41.1858 27.2456 41.1498C27.2456 41.1065 27.3249 41.0417 27.4258 41.0056C27.5267 40.9696 27.606 40.9047 27.606 40.8615C27.606 40.8254 27.642 40.7894 27.6853 40.7894C27.7718 40.7894 28.7808 40.011 28.8168 39.9173C28.8312 39.8813 28.8745 39.8525 28.9177 39.8525C28.9754 39.8525 29.1916 39.6939 29.7465 39.2399C29.797 39.1966 29.9195 39.1029 30.0276 39.0236C30.3087 38.8074 30.6979 38.4759 30.9646 38.2308C31.0871 38.1083 31.3321 37.9065 31.5051 37.7696C31.6781 37.6326 31.8871 37.4597 31.9664 37.3876C32.0456 37.3083 32.3988 36.984 32.7592 36.6597C33.5952 35.8957 35.9015 33.5894 36.6655 32.7534C36.9898 32.393 37.3141 32.0398 37.3934 31.9606C37.4655 31.8813 37.6384 31.6723 37.7754 31.4993C37.9123 31.3263 38.1213 31.0813 38.2366 30.9588C38.4817 30.6921 38.8132 30.3029 39.0294 30.0218C39.1087 29.9137 39.2096 29.7912 39.2456 29.7407C39.6997 29.1858 39.8583 28.9696 39.8583 28.9119C39.8583 28.8687 39.8871 28.8254 39.9231 28.811C40.0168 28.775 40.7952 27.766 40.7952 27.6795C40.7952 27.6362 40.8312 27.6002 40.8673 27.6002C40.9105 27.6002 40.9754 27.5209 41.0114 27.42C41.0474 27.3191 41.1123 27.2398 41.1556 27.2398C41.1916 27.2398 41.2276 27.1966 41.2276 27.1462C41.2276 27.0957 41.3213 26.9444 41.4438 26.8074C41.5592 26.6705 41.6529 26.5119 41.6601 26.4615C41.6601 26.411 41.7105 26.3534 41.7682 26.3317C41.8258 26.3029 41.8763 26.2525 41.8763 26.2164C41.8763 26.1804 41.9411 26.0507 42.0276 25.9353C42.1718 25.7263 42.3087 25.7119 42.3087 25.9137ZM14.5249 31.4921C14.6042 31.5281 14.7916 31.593 14.9429 31.6362C15.0871 31.6795 15.2096 31.7444 15.2096 31.7804C15.2096 31.8164 15.2745 31.8597 15.3465 31.8885C15.6637 31.9894 16.3339 32.8471 16.4132 33.2507C16.4348 33.3732 16.4853 33.4957 16.5213 33.5173C16.6078 33.575 16.6078 34.6489 16.5213 34.757C16.4853 34.8074 16.4204 34.9804 16.37 35.1462C16.3267 35.3191 16.2547 35.4561 16.2186 35.4561C16.1754 35.4561 16.1465 35.5065 16.1465 35.557C16.1465 35.7299 15.4402 36.3714 15.0799 36.5371C14.8925 36.6236 14.6619 36.7317 14.5682 36.775C14.4745 36.8254 14.1429 36.8615 13.8402 36.8615C13.3501 36.8615 13.2204 36.8254 12.788 36.6092C12.2042 36.3209 11.5123 35.6507 11.3826 35.2543C11.3393 35.1101 11.2601 34.966 11.224 34.9371C11.1231 34.8723 11.1159 33.6543 11.2168 33.4308C11.4979 32.8038 11.6709 32.5299 11.9736 32.22C12.3123 31.8741 12.8312 31.5642 13.0691 31.5642C13.1339 31.5642 13.1916 31.5353 13.1916 31.4993C13.1916 31.3624 14.2222 31.3624 14.5249 31.4921Z" fill="#3BF5FF"/>
<path d="M23.447 16.6027C23.2596 16.7901 23.1371 17.0856 23.1371 17.3306C23.1371 17.518 23.1154 17.5252 22.5245 17.6189C22.3659 17.6477 22.2073 17.691 22.1641 17.7198C22.1281 17.7486 21.9335 17.8207 21.7317 17.8712C21.5371 17.9216 21.2632 18.0297 21.1335 18.109C21.0037 18.1811 20.8884 18.2387 20.874 18.2243C20.8596 18.2099 20.8163 18.1306 20.7731 18.0441C20.6578 17.8279 20.2326 17.7198 19.8145 17.8063C19.3893 17.9 19.238 18.0658 19.1875 18.4838C19.1587 18.7576 19.1875 18.8585 19.3173 19.0387L19.4758 19.2549L19.2668 19.4712C18.7551 20.0189 18.6182 20.1991 18.51 20.4297C18.4668 20.5306 18.4019 20.6099 18.3731 20.6099C18.3443 20.6099 18.2866 20.718 18.2434 20.8477C18.1641 21.0928 18.1569 21.0928 17.7028 21.0856C17.3425 21.0784 17.2127 21.1072 17.0902 21.2153C16.9028 21.3811 16.7227 21.7342 16.7227 21.9216C16.7227 22.1739 16.9965 22.6063 17.1911 22.6567C17.292 22.6856 17.3713 22.736 17.3713 22.7721C17.3713 22.8153 17.4145 22.8441 17.465 22.8441C17.5299 22.8441 17.5515 23.1252 17.5515 23.9973C17.5515 24.8694 17.5299 25.1504 17.465 25.1504C17.4145 25.1504 17.3713 25.1793 17.3713 25.2225C17.3713 25.2585 17.292 25.309 17.1911 25.3378C16.9821 25.3883 16.7227 25.8279 16.7227 26.109C16.7227 26.3324 16.9965 26.7432 17.2272 26.8658C17.3425 26.9234 17.5371 26.945 17.7821 26.9162L18.1497 26.8802L18.2362 27.1324C18.2794 27.2694 18.3443 27.3847 18.3731 27.3847C18.4019 27.3847 18.4668 27.464 18.51 27.5649C18.6182 27.7955 18.7551 27.9757 19.274 28.5234L19.4758 28.7468L19.3245 28.9414C19.0794 29.2513 19.1587 29.8928 19.4614 30.0585C19.8434 30.2603 20.1317 30.354 20.1677 30.2892C20.1965 30.2531 20.3046 30.1955 20.4127 30.1739C20.6145 30.1234 20.7947 29.9721 20.8452 29.8207C20.8668 29.763 20.9461 29.7775 21.1263 29.8856C21.2632 29.9649 21.5371 30.073 21.7317 30.1234C21.9335 30.1739 22.1281 30.2459 22.1641 30.2748C22.2073 30.3036 22.3659 30.3468 22.5245 30.3757C23.1154 30.4694 23.1371 30.4766 23.1371 30.664C23.1371 31.4495 24.0019 31.8676 24.5569 31.3486C24.7227 31.1973 24.8019 31.0459 24.8308 30.8081C24.8884 30.4621 24.9028 30.4549 25.465 30.3757C25.6524 30.354 25.8037 30.3108 25.8037 30.282C25.8037 30.2531 25.9911 30.1883 26.2218 30.1306C26.4452 30.0802 26.7407 29.9721 26.8776 29.8856C27.0578 29.7775 27.1371 29.763 27.1587 29.8207C27.2091 29.9721 27.3893 30.1234 27.5911 30.1739C27.6992 30.1955 27.8073 30.2531 27.8362 30.2892C27.865 30.3396 27.9731 30.318 28.1317 30.2459C28.2686 30.1739 28.4127 30.1234 28.4488 30.1234C28.5785 30.1234 28.7731 29.8063 28.8091 29.5396C28.838 29.3378 28.8091 29.1937 28.6938 29.0063C28.6145 28.8621 28.5425 28.7324 28.5425 28.718C28.5425 28.7036 28.6794 28.545 28.8524 28.3649C29.3064 27.8748 29.71 27.3126 29.7965 27.0459C29.8326 26.9234 29.9046 26.9018 30.301 26.909C30.856 26.9162 31.0722 26.7649 31.2091 26.2748C31.2812 26.0009 31.274 25.936 31.1371 25.6766C31.0434 25.4892 30.9209 25.3667 30.8055 25.3378C30.7118 25.309 30.6326 25.2585 30.6326 25.2225C30.6326 25.1793 30.5893 25.1504 30.5461 25.1504C30.474 25.1504 30.4524 24.8694 30.4524 23.9973C30.4524 23.1252 30.474 22.8441 30.5461 22.8441C30.5893 22.8441 30.6326 22.8153 30.6326 22.7721C30.6326 22.736 30.7118 22.6856 30.8127 22.6567C30.9281 22.6279 31.0434 22.5054 31.1443 22.2964C31.2956 21.9937 31.3028 21.9793 31.1803 21.6694C30.9929 21.1793 30.8416 21.0784 30.301 21.0856C29.9046 21.0928 29.8326 21.0712 29.7965 20.9486C29.71 20.682 29.3064 20.1198 28.8524 19.6297C28.6794 19.4495 28.5425 19.291 28.5425 19.2766C28.5425 19.2621 28.6145 19.1324 28.6938 18.9883C28.874 18.6856 28.8524 18.2531 28.6362 18.0225C28.3118 17.6766 27.3965 17.6982 27.2308 18.0585C27.1371 18.2676 27.1227 18.2676 26.856 18.0946C26.7407 18.0153 26.4596 17.9144 26.229 17.8639C25.9911 17.8135 25.8037 17.7486 25.8037 17.7198C25.8037 17.691 25.6524 17.6405 25.465 17.6189C24.9028 17.5396 24.8884 17.5324 24.8308 17.1865C24.7587 16.7036 24.4416 16.4297 23.9659 16.4369C23.6992 16.4441 23.5623 16.4874 23.447 16.6027ZM25.0109 19.3054C25.0326 19.3342 25.1695 19.3847 25.3209 19.4135C25.4794 19.4423 25.7893 19.5576 26.02 19.6802C26.2434 19.7955 26.4524 19.8892 26.4812 19.8892C26.6037 19.8892 28.11 21.3955 28.11 21.518C28.11 21.5468 28.2037 21.7558 28.3191 21.9793C28.4416 22.2099 28.5569 22.5198 28.5857 22.6784C28.6145 22.8297 28.6722 22.9739 28.7154 23.0027C28.8163 23.0676 28.8163 24.927 28.7154 24.9919C28.6722 25.0207 28.6145 25.1649 28.5857 25.3162C28.5569 25.4748 28.4416 25.7847 28.3191 26.0153C28.2037 26.2387 28.11 26.4477 28.11 26.4766C28.11 26.5991 26.6037 28.1054 26.4812 28.1054C26.4524 28.1054 26.2434 28.1991 26.02 28.3144C25.7893 28.4369 25.4794 28.5522 25.3209 28.5811C25.1695 28.6099 25.0254 28.6676 24.9965 28.7108C24.9317 28.8117 23.1154 28.8117 22.9857 28.7108C22.9281 28.6676 22.7263 28.5883 22.5245 28.545C22.3299 28.4946 22.1136 28.4153 22.056 28.3649C21.9983 28.3144 21.8326 28.2279 21.6956 28.1775C21.5587 28.1198 21.4145 28.0333 21.3857 27.9829C21.3569 27.9324 21.292 27.8892 21.2488 27.8892C21.1551 27.8892 20.11 26.8441 20.11 26.7504C20.11 26.7072 20.0668 26.6423 20.0164 26.6135C19.9659 26.5847 19.8794 26.4405 19.8218 26.3036C19.7713 26.1667 19.6848 26.0009 19.6344 25.9432C19.5839 25.8856 19.5046 25.6694 19.4542 25.4748C19.4109 25.273 19.3317 25.0712 19.2884 25.0135C19.1803 24.8766 19.1803 23.118 19.2884 22.9811C19.3317 22.9234 19.4109 22.7144 19.4542 22.5198C19.5046 22.318 19.5839 22.109 19.6344 22.0513C19.6848 21.9937 19.7713 21.8279 19.8218 21.691C19.8794 21.554 19.9659 21.4099 20.0164 21.3811C20.0668 21.3522 20.11 21.2874 20.11 21.2441C20.11 21.1504 21.1551 20.1054 21.2488 20.1054C21.292 20.1054 21.3569 20.0621 21.3857 20.0117C21.4145 19.9612 21.5587 19.8748 21.6956 19.8171C21.8326 19.7667 21.9983 19.6802 22.056 19.6297C22.1136 19.5793 22.3082 19.5072 22.4884 19.464C22.6686 19.4135 22.8776 19.3486 22.9569 19.3126C23.0362 19.2766 23.2164 19.2333 23.3533 19.2117C23.7209 19.1685 24.9605 19.2333 25.0109 19.3054Z" fill="#3BF5FF"/>
</g>
<defs>
<clipPath id="clip0_3897_33238">
<rect width="48" height="48" fill="white" transform="translate(0.000976562)"/>
</clipPath>
</defs>
</svg>
