<svg width="48" height="48" viewBox="0 0 48 48" fill="none" xmlns="http://www.w3.org/2000/svg">
<path d="M42 26.1052V26.4528M42 26.4528C42 24.7034 40.7148 23.2102 38.9614 22.9226L36.5454 22.5264V24.3158M42 26.4528V30.8772C42 34.7664 42 36.711 41.398 38.2592C40.4776 40.6264 38.583 42.497 36.1852 43.4058C34.6172 44 32.6476 44 28.7084 44C26.6426 44 25.6096 44 24.6484 43.7914C23.1818 43.4732 21.8182 42.8 20.6804 41.8326C19.9345 41.1984 19.3147 40.3826 18.0752 38.751L12.6134 31.561C11.7742 30.4562 11.7983 28.9308 12.6721 27.8524C13.814 26.443 15.9432 26.3266 17.2358 27.6028L20 30.5114V13C20 11.3431 21.3432 10 23 10C24.6568 10 26 11.3431 26 13V18.9474M36.5454 24.3158C36.5454 22.3392 34.9174 20.7368 32.909 20.7368H31.091V22.5264M36.5454 24.3158V26.1052M26 18.9474H27.4546C29.4628 18.9474 31.091 20.5498 31.091 22.5264M26 18.9474V24.3158M31.091 22.5264V24.3158" stroke="#3BF5FF" stroke-width="2.5" stroke-linecap="round" stroke-linejoin="round"/>
<path d="M14 16.0078H12.3529C9.35814 16.0078 7.86074 16.0078 6.93036 15.1291C6 14.2505 6 12.8362 6 10.0078C6 7.17939 6 5.76517 6.93036 4.88649C7.86074 4.00781 9.35814 4.00781 12.3529 4.00781H35.647C38.6418 4.00781 40.1392 4.00781 41.0696 4.88649C42 5.76517 42 7.17939 42 10.0078C42 12.8362 42 14.2505 41.0696 15.1291C40.1392 16.0078 38.6418 16.0078 35.647 16.0078H33" stroke="#3BF5FF" stroke-width="2.5" stroke-linecap="round" stroke-linejoin="round"/>
</svg>
