<svg width="48" height="48" viewBox="0 0 48 48" fill="none" xmlns="http://www.w3.org/2000/svg">
<path fill-rule="evenodd" clip-rule="evenodd" d="M30.8561 25.9244C30.8529 25.9433 30.8484 25.9831 30.8428 26.0595C29.2006 26.1973 27.4993 27.1911 26.1082 28.1256C26.2313 28.0354 26.3466 27.9349 26.4528 27.8253C26.9541 27.3088 27.2451 26.6054 27.2638 25.8648C27.2625 25.5145 27.1957 25.1676 27.0669 24.8418C26.8889 24.2923 26.5538 23.8147 26.1082 23.4752C25.6626 23.1359 25.1286 22.9514 24.5795 22.9474C24.31 22.9591 24.0442 23.0168 23.7921 23.1179C23.3682 23.2505 22.9823 23.4934 22.6697 23.8244C22.3573 24.1551 22.1279 24.5638 22.0026 25.0124C21.9307 25.265 21.8945 25.5264 21.8952 25.7891C21.8936 26.3611 22.0573 26.92 22.3644 27.3907C22.6716 27.8614 23.1072 28.2214 23.6132 28.4222C23.9173 28.558 24.2464 28.629 24.5795 28.6306C25.0806 28.6309 25.5677 28.4828 25.988 28.2089C24.6571 29.156 23.6549 30.7598 22.8616 32.23C21.7562 31.9002 20.7628 31.2428 19.9984 30.3356L16.4193 32.23C16.4911 32.6046 16.527 32.9852 16.5266 33.3666C16.5266 34.6782 16.1593 35.9601 15.4711 37.0503C14.7829 38.1407 13.8047 38.9906 12.6602 39.4923C11.5157 39.9942 10.2563 40.1255 9.04142 39.8698C7.82642 39.6138 6.71042 38.9824 5.83452 38.055C4.95861 37.1277 4.36199 35.9464 4.1203 34.6604C3.87871 33.374 4.00274 32.0409 4.47674 30.8294C4.95083 29.6178 5.75361 28.5824 6.78364 27.8537C7.81367 27.1251 9.02455 26.7362 10.2634 26.7362C11.1221 26.7251 11.9736 26.9046 12.7628 27.2637C13.5519 27.6226 14.2611 28.1529 14.8445 28.8201L18.4236 26.9257C18.3517 26.5511 18.3158 26.1705 18.3162 25.7891C18.3015 24.9097 18.4532 24.0354 18.7634 23.2124C19.073 22.3935 19.5336 21.6482 20.1186 21.0203C20.7034 20.3923 21.401 19.8941 22.1699 19.555C22.9344 19.2167 23.7614 19.043 24.5974 19.0451C24.9583 19.0447 25.3182 19.0828 25.6711 19.1586L27.4606 15.3699C26.8403 14.767 26.3439 14.0354 26.0022 13.2206C25.6604 12.4058 25.4807 11.5254 25.4742 10.6339C25.4954 9.32685 25.8812 8.05551 26.5829 6.97982C27.2847 5.90404 28.271 5.07201 29.4184 4.58817C30.5656 4.10423 31.8222 3.99014 33.0306 4.26023C34.2388 4.53023 35.3447 5.17242 36.2092 6.10598C37.0738 7.03954 37.6582 8.22276 37.8894 9.50695C38.1204 10.7911 37.9877 12.119 37.5079 13.3236C37.0281 14.5282 36.2226 15.5558 35.1928 16.2771C34.163 16.9984 32.9546 17.3816 31.7196 17.378C31.3587 17.3785 30.9988 17.3404 30.6459 17.2643L28.8564 21.053C29.4767 21.656 29.9731 22.3876 30.3149 23.2024C30.6567 24.0172 30.8363 24.8977 30.8428 25.7891C30.8484 25.8655 30.8529 25.9054 30.8561 25.9244ZM30.8627 25.9243C30.8627 25.9371 30.8605 25.9499 30.8561 25.9244C30.8605 25.8989 30.8627 25.9115 30.8627 25.9243ZM25.988 28.2089C26.0277 28.1804 26.0678 28.1527 26.1082 28.1256C26.0689 28.1544 26.0288 28.1822 25.988 28.2089ZM33.6357 8.62457C33.1324 8.0917 32.4495 7.79235 31.7376 7.79235C31.0256 7.79235 30.3428 8.0917 29.8394 8.62457C29.336 9.15745 29.0533 9.88026 29.0533 10.6339C29.0626 11.3845 29.3484 12.1016 29.8498 12.6324C30.3512 13.1632 31.0286 13.4657 31.7376 13.4755C31.9807 13.4761 32.2224 13.4377 32.4534 13.3619C33.0207 13.2023 33.5217 12.8478 33.8781 12.354C34.2343 11.8604 34.4256 11.2552 34.4219 10.6339C34.4219 9.88026 34.1391 9.15754 33.6357 8.62457ZM11.8882 35.6327C12.3546 35.2556 12.6895 34.7249 12.8403 34.1244C12.9122 33.8783 12.9484 33.623 12.9476 33.3666C12.9383 32.616 12.6526 31.899 12.1511 31.3682C11.6497 30.8374 10.9724 30.5349 10.2634 30.525C9.55142 30.525 8.86864 30.8246 8.3652 31.3574C7.86177 31.8903 7.57902 32.613 7.57902 33.3666C7.57902 34.1204 7.86186 34.8432 8.3652 35.376C8.86864 35.9089 9.55142 36.2083 10.2634 36.2083C10.8502 36.2124 11.4218 36.0099 11.8882 35.6327ZM30.9997 35.997C30.9997 34.3402 32.3429 32.997 33.9997 32.997C35.6566 32.997 36.9997 34.3402 36.9997 35.997C36.9997 37.6539 35.6566 38.997 33.9997 38.997C32.3429 38.997 30.9997 37.6539 30.9997 35.997ZM33.9997 27.4722C41.459 27.4722 44.6557 35.9969 44.6557 35.9969C44.6557 35.9969 41.459 44.5218 33.9997 44.5218C26.5405 44.5218 23.3437 35.9969 23.3437 35.9969C23.3437 35.9969 26.5405 27.4722 33.9997 27.4722ZM28.1097 33.5507C27.3975 34.4273 26.8659 35.32 26.5132 35.9969C26.8659 36.674 27.3975 37.5667 28.1097 38.4433C29.5606 40.2289 31.4859 41.6418 33.9997 41.6418C36.5136 41.6418 38.4389 40.2289 39.8898 38.4433C40.602 37.5667 41.1328 36.6756 41.4854 35.9986V35.9954C41.1328 35.3183 40.602 34.4273 39.8898 33.5507C38.4389 31.7651 36.5136 30.3522 33.9997 30.3522C31.4859 30.3522 29.5606 31.7651 28.1097 33.5507Z" fill="#3BF5FF"/>
</svg>
