<svg width="48" height="48" viewBox="0 0 48 48" fill="none" xmlns="http://www.w3.org/2000/svg">
<path d="M8.07502 25.0774L19.953 13.1995C22.7526 10.3998 24.1526 9 25.892 9C27.6314 9 29.0314 10.3998 31.831 13.1995L34.8004 16.169C37.6002 18.9687 39 20.3686 39 22.108C39 23.8474 37.6002 25.2474 34.8004 28.047L22.9226 39.925C18.8225 44.025 12.175 44.025 8.07502 39.925C3.975 35.825 3.975 29.1776 8.07502 25.0774Z" stroke="#3BF5FF" stroke-width="2.5" stroke-linecap="round" stroke-linejoin="round"/>
<path d="M17 34C17 32.3432 15.6569 31 14 31C12.3431 31 11 32.3432 11 34C11 35.6568 12.3431 37 14 37C15.6569 37 17 35.6568 17 34Z" stroke="#3BF5FF" stroke-width="2.5"/>
<path d="M29 10.7007L31.7664 7.93426C33.7226 5.97808 34.7006 5 35.916 5C37.1314 5 38.1096 5.97808 40.0658 7.93426C42.022 9.89042 43 10.8685 43 12.0839C43 13.2993 42.022 14.2774 40.0658 16.2336L37.2994 19" stroke="#3BF5FF" stroke-width="2.5" stroke-linejoin="round"/>
</svg>
