<svg width="48" height="48" viewBox="0 0 48 48" fill="none" xmlns="http://www.w3.org/2000/svg">
<path d="M15.234 6L15 7.2195L13.5 15.657V21H13.641C13.8486 22.4499 14.3559 23.8407 15.1307 25.0837C15.9054 26.3267 16.9307 27.3946 18.141 28.2195C12.7905 30.5145 9 35.8245 9 42H12C11.9978 40.1997 12.4012 38.422 13.1802 36.799C13.9593 35.176 15.094 33.7493 16.5 32.625V33.609L16.9215 34.0785L22.9215 40.0785L24 41.109L25.0785 40.0785L31.0785 34.0785L31.5 33.609V32.625C32.906 33.7493 34.0407 35.176 34.8198 36.799C35.5988 38.422 36.0022 40.1997 36 42H39C39 35.8245 35.2095 30.516 29.859 28.218C31.0692 27.3933 32.0943 26.3256 32.8691 25.0828C33.6438 23.8401 34.1512 22.4496 34.359 21H34.5V15.6555L33 7.2195L32.766 6H15.234ZM17.766 9H30.234L31.5 16.1715V18H16.5V16.1715L17.766 9ZM22.5 10.5V12H21V15H22.5V16.5H25.5V15H27V12H25.5V10.5H22.5ZM16.641 21H31.359C31.0129 22.6956 30.0911 24.2193 28.7499 25.3128C27.4086 26.4063 25.7305 27.0024 24 27C22.2695 27.0024 20.5914 26.4063 19.2501 25.3128C17.9089 24.2193 16.9871 22.6956 16.641 21ZM24 30C25.5403 29.9901 27.0681 30.2768 28.5 30.8445V32.3445L24 36.8445L19.5 32.3445V30.8445C20.9319 30.2768 22.4597 29.9901 24 30Z" fill="#3BF5FF"/>
</svg>
