<svg width="160" height="53" viewBox="0 0 160 53" fill="none" xmlns="http://www.w3.org/2000/svg">
<g style="mix-blend-mode:luminosity" clip-path="url(#clip0_3917_48449)">
<path d="M5.6557 44.5391H7.87569L4.96856 52.8384H2.85428L0 44.5391H2.21999L3.96428 50.4221L5.6557 44.5391Z" fill="#666666"/>
<path d="M8.56348 44.5391H14.7477V46.1674H10.6778V47.6382H14.4835V49.214H10.6778V51.21H15.1177V52.8384H8.56348V44.5391Z" fill="#666666"/>
<path d="M16.5972 44.5391H20.35C21.2486 44.5391 22.3057 44.5391 23.0986 45.3795C23.4686 45.7997 23.7857 46.4826 23.7857 47.218C23.7857 48.8988 22.6229 49.319 22.0943 49.5292L23.9972 52.8384H21.6714L20.0329 49.8968H18.7114V52.8384H16.5972V44.5391ZM18.6586 46.0623V48.321H20.4029C20.72 48.321 21.6714 48.2685 21.6714 47.1654C21.6714 46.1149 20.8786 46.0623 20.4557 46.0623H18.6586Z" fill="#666666"/>
<path d="M27.3798 44.5391H25.3184V52.8384H27.3798V44.5391Z" fill="#666666"/>
<path d="M30.287 50.3162C30.4984 50.5263 30.657 50.7364 31.0799 50.9466C31.6084 51.2617 32.1899 51.3668 32.6656 51.3668C33.5113 51.3668 34.1984 50.9991 34.1984 50.4213C34.1984 49.7384 33.3527 49.6334 32.7184 49.5809C32.2427 49.5283 31.8199 49.4758 31.3441 49.3707C30.8156 49.2657 29.1241 48.898 29.1241 47.1121C29.1241 44.9584 31.027 44.3281 32.507 44.3281C34.4099 44.3281 35.467 45.2736 36.207 45.9039L34.6741 47.007C34.4099 46.7444 34.1984 46.5343 33.8284 46.3242C33.5113 46.1666 32.9827 45.9565 32.4541 45.9565C31.6084 45.9565 31.2384 46.4292 31.2384 46.8494C31.2384 47.4798 31.9256 47.5848 32.2956 47.6373C33.1941 47.7424 34.357 47.9525 34.8327 48.1101C35.7841 48.4778 36.2598 49.2132 36.2598 50.1586C36.2598 50.7364 36.0484 51.4193 35.5727 51.9446C34.8327 52.8375 33.617 53.0476 32.4541 53.0476C30.1284 53.0476 29.177 51.9446 28.6484 51.3668L30.287 50.3162Z" fill="#666666"/>
<path d="M39.9608 44.5391H37.8994V52.8384H39.9608V44.5391Z" fill="#666666"/>
<path d="M47.6243 52.0531C47.3072 52.3683 46.5672 52.9986 45.1401 52.9986C42.8143 52.9986 41.3872 51.1076 41.3872 48.6914C41.3872 46.0125 43.1315 44.2266 45.5101 44.2266C47.73 44.2266 48.7872 45.6448 49.21 46.1175L47.6243 47.063C47.3072 46.6428 46.8315 45.9074 45.6686 45.9074C44.0829 45.9074 43.5015 47.2206 43.5015 48.5863C43.5015 49.5318 43.7658 50.2672 44.1886 50.6874C44.5058 51.0026 45.0872 51.2652 45.7215 51.2652C46.0915 51.2652 46.5143 51.1602 46.8843 50.9501C47.4129 50.5824 47.5186 50.1621 47.5715 49.7419H45.7215V48.1661H49.3686V52.7885H47.73V52.0531H47.6243Z" fill="#666666"/>
<path d="M51.0079 44.5391H53.0694L54.8665 47.5856C55.5536 48.7412 55.7122 49.1089 56.1351 49.8443L56.0293 44.5391H58.0379V52.8384H55.9765L54.3908 50.212C53.6508 49.0039 53.4922 48.7412 52.9108 47.6382L52.9636 52.8384H50.9551V44.5391H51.0079Z" fill="#666666"/>
<path d="M60.3102 46.3797C59.8345 46.3797 59.4116 46.012 59.4116 45.4867C59.4116 45.014 59.7816 44.5938 60.3102 44.5938C60.7859 44.5938 61.2088 44.9614 61.2088 45.4342C61.1559 45.9595 60.7859 46.3797 60.3102 46.3797ZM60.3102 44.6988C59.8873 44.6988 59.5173 45.0665 59.5173 45.4867C59.5173 45.9069 59.8873 46.2746 60.3102 46.2746C60.733 46.2746 61.103 45.9069 61.103 45.4867C61.103 45.0665 60.733 44.6988 60.3102 44.6988ZM60.4688 46.012L60.3102 45.5918H60.1516V46.012H59.9402V44.9089H60.3102C60.4159 44.9089 60.5216 44.9089 60.5745 44.9614C60.6802 45.014 60.733 45.119 60.733 45.2766C60.733 45.4342 60.6802 45.4867 60.5216 45.5918L60.733 46.0645H60.4688V46.012ZM60.3102 45.119H60.1516V45.3817H60.3102C60.4159 45.3817 60.4688 45.3291 60.4688 45.2241C60.4688 45.1715 60.4159 45.119 60.3102 45.119Z" fill="#666666"/>
<path d="M29.3359 38.4499C40.0202 38.4499 48.6816 29.8426 48.6816 19.225C48.6816 8.60731 40.0202 0 29.3359 0C18.6516 0 9.99023 8.60731 9.99023 19.225C9.99023 29.8426 18.6516 38.4499 29.3359 38.4499Z" fill="url(#paint0_linear_3917_48449)"/>
<path d="M29.3359 38.4499C40.0202 38.4499 48.6816 29.8426 48.6816 19.225C48.6816 8.60731 40.0202 0 29.3359 0C18.6516 0 9.99023 8.60731 9.99023 19.225C9.99023 29.8426 18.6516 38.4499 29.3359 38.4499Z" fill="url(#paint1_linear_3917_48449)"/>
<path d="M29.3357 34.8262C38.0058 34.8262 45.0343 27.8416 45.0343 19.2256C45.0343 10.6096 38.0058 3.625 29.3357 3.625C20.6657 3.625 13.6372 10.6096 13.6372 19.2256C13.6372 27.8416 20.6657 34.8262 29.3357 34.8262Z" fill="url(#paint2_radial_3917_48449)"/>
<g opacity="0.1">
<path d="M10.0439 19.2271C10.0439 29.8376 18.7125 38.452 29.3896 38.452C35.151 38.452 40.2253 35.9833 43.7667 32.0963C40.3839 35.1428 35.8382 36.9813 30.9225 36.9813C20.2453 36.9813 11.5768 28.3668 11.5768 17.7563C11.5768 12.8713 13.4268 8.35393 16.4925 4.99219C12.5282 8.45899 10.0439 13.5016 10.0439 19.2271Z" fill="#707070"/>
</g>
<g opacity="0.1">
<path d="M45.0346 19.2256C45.0346 10.6111 38.0046 3.625 29.3361 3.625C24.7375 3.625 20.5089 5.62104 17.7075 8.8252C20.4561 6.35642 24.1561 4.7806 28.2261 4.7806C36.8946 4.7806 43.9246 11.7667 43.9246 20.3812C43.9246 24.4258 42.3917 27.9976 39.8546 30.8341C43.026 27.9976 45.0346 23.7955 45.0346 19.2256Z" fill="#707070"/>
</g>
<path d="M36.736 18.3844H29.4946L32.9832 12.3438H40.2775L36.736 18.3844ZM25.8475 12.3963H18.7646L29.3361 30.6232L32.8775 24.5301L25.8475 12.3963Z" fill="white"/>
</g>
<defs>
<linearGradient id="paint0_linear_3917_48449" x1="43.0234" y1="5.62756" x2="15.8517" y2="32.9698" gradientUnits="userSpaceOnUse">
<stop stop-color="white"/>
<stop offset="0.156" stop-color="#F9F9F9"/>
<stop offset="0.361" stop-color="#E9E9E9"/>
<stop offset="0.592" stop-color="#CECECE"/>
<stop offset="0.842" stop-color="#A8A8A8"/>
<stop offset="1" stop-color="#8D8D8D"/>
</linearGradient>
<linearGradient id="paint1_linear_3917_48449" x1="43.0234" y1="5.62756" x2="15.8517" y2="32.9698" gradientUnits="userSpaceOnUse">
<stop stop-color="white"/>
<stop offset="0.156" stop-color="#F9F9F9"/>
<stop offset="0.361" stop-color="#E9E9E9"/>
<stop offset="0.592" stop-color="#CECECE"/>
<stop offset="0.842" stop-color="#A8A8A8"/>
<stop offset="1" stop-color="#8D8D8D"/>
</linearGradient>
<radialGradient id="paint2_radial_3917_48449" cx="0" cy="0" r="1" gradientUnits="userSpaceOnUse" gradientTransform="translate(29.3518 19.2143) scale(15.6939 15.596)">
<stop stop-color="#0061A3"/>
<stop offset="0.579" stop-color="#005FA2"/>
<stop offset="0.841" stop-color="#00589F"/>
<stop offset="1" stop-color="#004E9A"/>
</radialGradient>
<clipPath id="clip0_3917_48449">
<rect width="160" height="53" fill="white"/>
</clipPath>
</defs>
</svg>
