<svg width="96" height="96" viewBox="0 0 96 96" fill="none" xmlns="http://www.w3.org/2000/svg">
<path d="M68 62.0078V54.0078L78.4 40.141C79.4072 38.7982 80.988 38.0078 82.6664 38.0078C85.612 38.0078 88 40.3958 88 43.341V72.6746C88 75.6198 85.612 78.0078 82.6664 78.0078C80.988 78.0078 79.4072 77.2174 78.4 75.8746L68 62.0078Z" stroke="#EBBB01" stroke-width="4.8" stroke-linecap="round" stroke-linejoin="round"/>
<path d="M41.8774 24.108C41.9046 23.9744 42.0954 23.9744 42.123 24.108C43.541 31.0455 48.9622 36.467 55.8998 37.885C56.0334 37.9123 56.0334 38.1033 55.8998 38.1306C48.9622 39.5486 43.541 44.9702 42.123 51.9074C42.0954 52.0414 41.9046 52.0414 41.8774 51.9074C40.4594 44.9702 35.0377 39.5486 28.1002 38.1306C27.9666 38.1033 27.9666 37.9123 28.1002 37.885C35.0377 36.467 40.4594 31.0455 41.8774 24.108Z" stroke="#EBBB01" stroke-width="4.8" stroke-linecap="round" stroke-linejoin="round"/>
<path d="M22.2068 28.0078C18.5978 28.4789 15.9757 29.3854 13.8497 31.1302C13.0396 31.7951 12.2967 32.5379 11.6318 33.3481C8 37.7735 8 44.349 8 57.499C8 70.649 8.0002 77.7354 11.632 82.1606C12.2969 82.9706 13.0398 83.7138 13.8499 84.3786C18.2753 88.0102 24.8503 88.0102 38.0002 88.0102C51.15 88.0102 57.7252 88.0102 62.1504 84.3786C62.9608 83.7138 63.7036 82.9706 64.3684 82.1606C68 77.7354 68 71.1602 68 58.0102C68 49.2822 68 43.4502 66.938 39.2211" stroke="#EBBB01" stroke-width="4.8" stroke-linecap="round" stroke-linejoin="round"/>
<path d="M60.4827 9.23867C60.8203 7.58711 63.1799 7.58711 63.5175 9.23867C64.2631 12.8864 67.1139 15.7369 70.7615 16.4825C72.4131 16.8201 72.4131 19.1799 70.7615 19.5175C67.1139 20.263 64.2631 23.1136 63.5175 26.7613C63.1799 28.4129 60.8203 28.4129 60.4827 26.7613C59.7371 23.1136 56.8867 20.263 53.2387 19.5175C51.5871 19.1799 51.5871 16.8201 53.2387 16.4825C56.8867 15.7369 59.7371 12.8864 60.4827 9.23867Z" fill="#EBBB01"/>
</svg>
