<svg width="48" height="48" viewBox="0 0 48 48" fill="none" xmlns="http://www.w3.org/2000/svg">
<g clip-path="url(#clip0_4519_63755)">
<path d="M12.0938 18.75C13.685 18.75 15.2112 18.1179 16.3364 16.9926M12.0938 18.75C10.5025 18.75 8.97633 18.1179 7.85111 16.9926M12.0938 18.75V23.25M16.3364 16.9926C17.4616 15.8674 18.0938 14.3413 18.0938 12.75M16.3364 16.9926L19.5177 20.174M18.0938 12.75C18.0938 11.1587 17.4616 9.63258 16.3364 8.50736M18.0938 12.75H22.5938M16.3364 8.50736C15.2112 7.38214 13.685 6.75 12.0938 6.75M16.3364 8.50736L19.5177 5.326M12.0938 6.75C10.5025 6.75 8.97633 7.38214 7.85111 8.50736M12.0938 6.75V2.25M7.85111 8.50736C6.72589 9.63258 6.09375 11.1587 6.09375 12.75M7.85111 8.50736L4.66975 5.326M6.09375 12.75C6.09375 14.3413 6.72589 15.8674 7.85111 16.9926M6.09375 12.75H1.59375M7.85111 16.9926L4.66975 20.174M11.0938 2.25H13.0938M18.8118 4.618L20.2257 6.032M22.5938 11.75V13.75M20.2257 19.468L18.8118 20.882M13.0938 23.25H11.0938M5.37575 20.882L3.96175 19.468M1.59375 13.75V11.75M3.96175 6.032L5.37575 4.618M36.2917 18.2C37.595 19.3052 38.653 20.6705 39.398 22.2084C40.1429 23.7463 40.5583 25.4229 40.6177 27.1307C40.677 28.8385 40.3788 30.5398 39.7424 32.1257C39.1059 33.7116 38.1452 35.147 36.9217 36.34C34.5308 38.6739 31.322 39.9804 27.9808 39.9804C24.6395 39.9804 21.4307 38.6739 19.0398 36.34C17.609 34.9365 16.5399 33.2071 15.9237 31.3" stroke="#3BF5FF" stroke-width="3" stroke-linecap="round" stroke-linejoin="round"/>
<path d="M32.3032 22.1101C31.962 22.4439 31.5036 22.6309 31.0262 22.6309C30.5488 22.6309 30.0904 22.4439 29.7492 22.1101L27.2012 19.6021C27.0337 19.439 26.9006 19.244 26.8096 19.0287C26.7187 18.8133 26.6719 18.5819 26.6719 18.3481C26.6719 18.1143 26.7187 17.8829 26.8096 17.6675C26.9006 17.4521 27.0337 17.2572 27.2012 17.0941L34.8652 9.56608C35.2069 9.23318 35.6652 9.04688 36.1422 9.04688C36.6193 9.04688 37.0775 9.23318 37.4192 9.56608L39.9732 12.0761C40.1407 12.2392 40.2739 12.4341 40.3648 12.6495C40.4557 12.8649 40.5026 13.0963 40.5026 13.3301C40.5026 13.5639 40.4557 13.7953 40.3648 14.0107C40.2739 14.226 40.1407 14.421 39.9732 14.5841L32.3032 22.1101Z" stroke="#3BF5FF" stroke-width="3" stroke-linecap="round" stroke-linejoin="round"/>
<path d="M38.3357 10.4724L43.5157 5.28844M43.5157 5.28844L40.6257 2.39844M43.5157 5.28844L46.4057 8.17844M11.5938 31.3004H21.7097M13.1698 45.7504H40.6257M27.6198 39.9704V45.7504" stroke="#3BF5FF" stroke-width="3" stroke-linecap="round" stroke-linejoin="round"/>
</g>
<defs>
<clipPath id="clip0_4519_63755">
<rect width="48" height="48" fill="white"/>
</clipPath>
</defs>
</svg>
