<svg width="40" height="40" viewBox="0 0 40 40" fill="none" xmlns="http://www.w3.org/2000/svg">
<path d="M4.16699 19.9974C4.16699 12.5335 4.16699 8.80155 6.48573 6.4828C8.80448 4.16406 12.5364 4.16406 20.0003 4.16406C27.4642 4.16406 31.1962 4.16406 33.515 6.4828C35.8337 8.80155 35.8337 12.5335 35.8337 19.9974C35.8337 27.4612 35.8337 31.1932 33.515 33.5121C31.1962 35.8307 27.4642 35.8307 20.0003 35.8307C12.5364 35.8307 8.80448 35.8307 6.48573 33.5121C4.16699 31.1932 4.16699 27.4612 4.16699 19.9974Z" stroke="#3BF5FF" stroke-width="2"/>
<path d="M20 13.3359V26.6693" stroke="#3BF5FF" stroke-width="2" stroke-linecap="round" stroke-linejoin="round"/>
<path d="M15 16.6641V23.3307" stroke="#3BF5FF" stroke-width="2" stroke-linecap="round" stroke-linejoin="round"/>
<path d="M10 18.3359V21.6693" stroke="#3BF5FF" stroke-width="2" stroke-linecap="round" stroke-linejoin="round"/>
<path d="M25 16.6641V23.3307" stroke="#3BF5FF" stroke-width="2" stroke-linecap="round" stroke-linejoin="round"/>
<path d="M30 18.3359V21.6693" stroke="#3BF5FF" stroke-width="2" stroke-linecap="round" stroke-linejoin="round"/>
</svg>
