<svg width="16" height="16" viewBox="0 0 16 16" fill="none" xmlns="http://www.w3.org/2000/svg">
<path d="M6 6C6 6.53043 5.78929 7.03914 5.41421 7.41421C5.03914 7.78929 4.53043 8 4 8C3.46957 8 2.96086 7.78929 2.58579 7.41421C2.21071 7.03914 2 6.53043 2 6C2 5.46957 2.21071 4.96086 2.58579 4.58579C2.96086 4.21071 3.46957 4 4 4C4.53043 4 5.03914 4.21071 5.41421 4.58579C5.78929 4.96086 6 5.46957 6 6ZM14 12C14 12.5304 13.7893 13.0391 13.4142 13.4142C13.0391 13.7893 12.5304 14 12 14C11.4696 14 10.9609 13.7893 10.5858 13.4142C10.2107 13.0391 10 12.5304 10 12C10 11.4696 10.2107 10.9609 10.5858 10.5858C10.9609 10.2107 11.4696 10 12 10C12.5304 10 13.0391 10.2107 13.4142 10.5858C13.7893 10.9609 14 11.4696 14 12Z" stroke="white" stroke-linecap="round" stroke-linejoin="round"/>
<path d="M6 6.0026H9.33333C10.5907 6.0026 11.2187 6.0026 11.6093 6.39327C12 6.78394 12 7.41194 12 8.66927V10.0026M4 8.0026V14.6693M4 4.0026V1.33594" stroke="white" stroke-linecap="round" stroke-linejoin="round"/>
</svg>
