<svg width="32" height="32" viewBox="0 0 32 32" fill="none" xmlns="http://www.w3.org/2000/svg">
<path d="M3.33398 16.0026C3.33398 10.0315 3.33398 7.04592 5.18897 5.19092C7.04397 3.33594 10.0295 3.33594 16.0006 3.33594C21.9718 3.33594 24.9573 3.33594 26.8124 5.19092C28.6673 7.04592 28.6673 10.0315 28.6673 16.0026C28.6673 21.9737 28.6673 24.9593 26.8124 26.8143C24.9573 28.6693 21.9718 28.6693 16.0006 28.6693C10.0295 28.6693 7.04397 28.6693 5.18897 26.8143C3.33398 24.9593 3.33398 21.9737 3.33398 16.0026Z" stroke="#CACED5" stroke-width="2" stroke-linecap="round" stroke-linejoin="round"/>
<path d="M9.33398 22.6693L14.9254 17.0779M14.9254 17.0779L9.33398 9.33594H13.0377L17.076 14.9273M14.9254 17.0779L18.9636 22.6693H22.6673L17.076 14.9273M22.6673 9.33594L17.076 14.9273" stroke="#CACED5" stroke-width="2" stroke-linecap="round" stroke-linejoin="round"/>
</svg>
