<svg width="25" height="25" viewBox="0 0 25 25" fill="none" xmlns="http://www.w3.org/2000/svg">
<path d="M14.6543 2.69532C15.4364 2.69532 16.1085 2.69338 16.6176 2.76939C17.1345 2.84657 17.6976 3.03305 18.0202 3.59185C18.342 4.14935 18.2238 4.7307 18.0346 5.2185C17.8479 5.69977 17.5137 6.28457 17.1255 6.96733L16.0693 8.82485C15.8643 9.18551 15.7321 9.4194 15.648 9.59825C15.5625 9.78022 15.5723 9.81618 15.572 9.78968C15.5731 9.90426 15.6337 10.008 15.7288 10.0638L15.7442 10.0658C15.7721 10.0724 15.8285 10.0829 15.9289 10.0908C16.1246 10.106 16.3911 10.1062 16.8043 10.1062C17.2991 10.1062 17.7139 10.1065 18.0355 10.1312C18.34 10.1545 18.6988 10.2056 18.9994 10.4053C19.5832 10.7934 19.8869 11.4864 19.7805 12.1782C19.7257 12.534 19.5238 12.8345 19.3361 13.0767C19.1381 13.3322 18.859 13.6397 18.5261 14.0078L13.0738 20.0373C12.553 20.6132 12.1158 21.0984 11.7617 21.4071C11.5858 21.5605 11.378 21.718 11.1461 21.8121C10.9224 21.9028 10.6363 21.9482 10.3438 21.841L10.2188 21.7861C9.88478 21.612 9.72808 21.3106 9.66564 21.0435C9.60889 20.8004 9.61643 20.5402 9.63967 20.3076C9.6865 19.8392 9.82952 19.2005 9.99751 18.4405L10.6738 15.3805C10.8102 14.7633 10.893 14.3782 10.9143 14.0963C10.9242 13.9648 10.9174 13.8928 10.9094 13.8558C10.9036 13.8286 10.8982 13.8229 10.896 13.8202C10.894 13.8177 10.8908 13.8115 10.8662 13.8C10.8331 13.7848 10.7657 13.762 10.6362 13.7433C10.359 13.7032 9.96776 13.7019 9.33858 13.7019H8.88647C8.18042 13.7019 7.56598 13.7039 7.09436 13.6336C6.60872 13.5612 6.08852 13.3874 5.76206 12.8823C5.43643 12.3786 5.48981 11.833 5.62065 11.3596C5.74809 10.8987 5.99939 10.3357 6.28632 9.68675L8.07073 5.65042C8.33422 5.05446 8.5542 4.5541 8.77873 4.16421C9.01195 3.75926 9.28166 3.41521 9.67526 3.15801C10.0692 2.90063 10.4926 2.79235 10.9566 2.74245C11.4027 2.69449 11.9473 2.69532 12.5957 2.69532H14.6543ZM12.5957 4.17287C11.9157 4.17287 11.4634 4.17382 11.1143 4.21135C10.7834 4.24695 10.6127 4.30961 10.4833 4.39412C10.3536 4.47886 10.2265 4.61127 10.0591 4.90202C9.88293 5.20794 9.69838 5.62329 9.42227 6.24779L7.63786 10.2841C7.33121 10.9777 7.13678 11.4222 7.0453 11.753C7.00183 11.9102 6.99423 11.9989 6.99624 12.0445C6.99761 12.0745 7.00217 12.0794 7.00297 12.0801C7.00305 12.0802 7.00305 12.0853 7.03087 12.0993C7.07019 12.119 7.15277 12.1486 7.31272 12.1724C7.64963 12.2226 8.13149 12.2244 8.88647 12.2244H9.33858C9.92151 12.2244 10.44 12.2221 10.8479 12.2811C11.2759 12.343 11.7243 12.4901 12.0503 12.8987C12.3757 13.3065 12.4206 13.7765 12.388 14.2079C12.3568 14.6198 12.2431 15.1268 12.1167 15.6989L11.4395 18.7589C11.3379 19.2183 11.2579 19.5902 11.1999 19.8911C11.4102 19.6708 11.6651 19.3926 11.9782 19.0465L17.4305 13.017C17.7799 12.6306 18.013 12.3719 18.1683 12.1715C18.28 12.0273 18.3126 11.9595 18.3203 11.9435C18.3349 11.8245 18.2835 11.7096 18.1885 11.6424C18.1683 11.6366 18.0956 11.6172 17.923 11.6039C17.6713 11.5846 17.3239 11.5837 16.8043 11.5837C16.4154 11.5837 16.0804 11.5844 15.8134 11.5635C15.5832 11.5455 15.3256 11.508 15.0833 11.3923L14.9804 11.3375C14.4696 11.0374 14.1431 10.5063 14.0993 9.92147L14.0944 9.80411C14.0914 9.491 14.1983 9.20859 14.3109 8.96914C14.4251 8.72618 14.5921 8.43431 14.7851 8.09473L15.8413 6.23721C16.2541 5.5112 16.5194 5.03863 16.6571 4.68366C16.723 4.5137 16.7404 4.41613 16.7427 4.36526L16.7417 4.33351C16.7416 4.33322 16.7407 4.33216 16.7398 4.33063L16.7388 4.3287C16.7384 4.32827 16.737 4.3269 16.734 4.32486C16.7304 4.32231 16.7236 4.31837 16.7138 4.31331C16.67 4.29071 16.5784 4.25732 16.3993 4.23059C16.0252 4.17476 15.4864 4.17287 14.6543 4.17287H12.5957Z" fill="#30A46C"/>
</svg>
